<?xml version="1.0" encoding="UTF-8" standalone="no"?>
<!-- Created with Inkscape (http://www.inkscape.org/) -->

<svg
   width="490mm"
   height="300mm"
   viewBox="0 0 490 300"
   version="1.1"
   id="svg5"
   inkscape:version="1.2.2 (732a01da63, 2022-12-09)"
   sodipodi:docname="panel_for_production_cut_490mm.svg"
   xml:space="preserve"
   xmlns:inkscape="http://www.inkscape.org/namespaces/inkscape"
   xmlns:sodipodi="http://sodipodi.sourceforge.net/DTD/sodipodi-0.dtd"
   xmlns="http://www.w3.org/2000/svg"
   xmlns:svg="http://www.w3.org/2000/svg"><sodipodi:namedview
     id="namedview7"
     pagecolor="#ffffff"
     bordercolor="#000000"
     borderopacity="0.25"
     inkscape:showpageshadow="2"
     inkscape:pageopacity="0.0"
     inkscape:pagecheckerboard="0"
     inkscape:deskcolor="#d1d1d1"
     inkscape:document-units="mm"
     showgrid="false"
     inkscape:zoom="1.4142136"
     inkscape:cx="239.7092"
     inkscape:cy="123.74369"
     inkscape:window-width="1920"
     inkscape:window-height="1017"
     inkscape:window-x="-8"
     inkscape:window-y="-8"
     inkscape:window-maximized="1"
     inkscape:current-layer="svg5" /><defs
     id="defs2" /><g
     inkscape:groupmode="layer"
     id="layer2"
     inkscape:label="Cut"
     style="display:inline"><path
       id="rect21"
       style="fill:none;stroke:#000000;stroke-width:0.1"
       d="m 231.51479,19.034967 h 26.21458 v 16.700405 h -26.21458 z" /><path
       id="circle37373"
       style="stroke-width:0.174616"
       d="m 300.18114,53.234358 a 3.95,3.95 0 0 1 -3.95,3.95 3.95,3.95 0 0 1 -3.95,-3.95 3.95,3.95 0 0 1 3.95,-3.95 3.95,3.95 0 0 1 3.95,3.95 z" /><path
       id="circle149762"
       style="stroke-width:0.174616"
       d="m 192.65077,53.23754 a 3.95,3.95 0 0 1 -3.95,3.95 3.95,3.95 0 0 1 -3.95,-3.95 3.95,3.95 0 0 1 3.95,-3.95 3.95,3.95 0 0 1 3.95,3.95 z" /><path
       id="circle89808"
       style="stroke-width:0.174616"
       d="m 46.91446,192.21862 a 3.95,3.95 0 0 1 -3.95,3.95 3.95,3.95 0 0 1 -3.95,-3.95 3.95,3.95 0 0 1 3.95,-3.95 3.95,3.95 0 0 1 3.95,3.95 z" /><path
       id="circle89810"
       style="stroke-width:0.174616"
       d="m 76.435662,192.21862 a 3.95,3.95 0 0 1 -3.95,3.95 3.95,3.95 0 0 1 -3.95,-3.95 3.95,3.95 0 0 1 3.95,-3.95 3.95,3.95 0 0 1 3.95,3.95 z" /><path
       id="circle89812"
       style="stroke-width:0.174616"
       d="m 105.95676,192.21862 a 3.95,3.95 0 0 1 -3.95,3.95 3.95,3.95 0 0 1 -3.949995,-3.95 3.95,3.95 0 0 1 3.949995,-3.95 3.95,3.95 0 0 1 3.95,3.95 z" /><path
       id="circle89814"
       style="stroke-width:0.174616"
       d="m 135.47786,192.21862 a 3.95,3.95 0 0 1 -3.95,3.95 3.95,3.95 0 0 1 -3.95,-3.95 3.95,3.95 0 0 1 3.95,-3.95 3.95,3.95 0 0 1 3.95,3.95 z" /><path
       id="rect89846"
       style="stroke-width:0.18619"
       d="m 40.96446,203.77362 h 4 v 4 h -4 z" /><path
       id="rect89848"
       style="stroke-width:0.18619"
       d="m 70.485662,203.77362 h 4 v 4 h -4 z" /><path
       id="rect89850"
       style="stroke-width:0.18619"
       d="m 100.00676,203.77362 h 4 v 4 h -4 z" /><path
       id="rect89852"
       style="stroke-width:0.18619"
       d="m 129.52786,203.77362 h 4 v 4 h -4 z" /><path
       id="rect97410"
       style="stroke-width:0.18619"
       d="m 198.31562,137.21006 h 4 v 4 h -4 z" /><path
       id="rect97410-0"
       style="stroke-width:0.18619"
       d="m 213.18421,162.76246 h 4 v 4 h -4 z" /><path
       id="rect97412"
       style="stroke-width:0.18619"
       d="m 227.91619,137.21006 h 4 v 4 h -4 z" /><path
       id="rect97414"
       style="stroke-width:0.18619"
       d="m 257.3294,137.21006 h 4 v 4 h -4 z" /><path
       id="rect97416"
       style="stroke-width:0.18619"
       d="m 286.84423,137.21006 h 4 v 4 h -4 z" /><path
       id="rect116587"
       style="stroke-width:0.18619"
       d="m 272.23919,162.81347 h 4 v 4 h -4 z" /><path
       id="circle125307"
       style="stroke-width:0.174616"
       d="m 204.26562,126.14525 a 3.95,3.95 0 0 1 -3.95,3.95 3.95,3.95 0 0 1 -3.95,-3.95 3.95,3.95 0 0 1 3.95,-3.95 3.95,3.95 0 0 1 3.95,3.95 z" /><path
       id="circle125309"
       style="stroke-width:0.174616"
       d="m 292.79423,126.10365 a 3.95,3.95 0 0 1 -3.95,3.95 3.95,3.95 0 0 1 -3.95,-3.95 3.95,3.95 0 0 1 3.95,-3.95 3.95,3.95 0 0 1 3.95,3.95 z" /><path
       id="circle125311"
       style="stroke-width:0.174616"
       d="m 263.2794,126.10365 a 3.95,3.95 0 0 1 -3.95,3.95 3.95,3.95 0 0 1 -3.95,-3.95 3.95,3.95 0 0 1 3.95,-3.95 3.95,3.95 0 0 1 3.95,3.95 z" /><path
       id="circle125313"
       style="stroke-width:0.174616"
       d="m 233.86619,126.14525 a 3.95,3.95 0 0 1 -3.95,3.95 3.95,3.95 0 0 1 -3.95,-3.95 3.95,3.95 0 0 1 3.95,-3.95 3.95,3.95 0 0 1 3.95,3.95 z" /><path
       id="circle132377"
       style="stroke-width:0.174616"
       d="m 219.13421,257.75483 a 3.95,3.95 0 0 1 -3.95,3.95 3.95,3.95 0 0 1 -3.95,-3.95 3.95,3.95 0 0 1 3.95,-3.95 3.95,3.95 0 0 1 3.95,3.95 z" /><path
       id="circle132379"
       style="stroke-width:0.174616"
       d="m 278.18919,257.75483 a 3.95,3.95 0 0 1 -3.95,3.95 3.95,3.95 0 0 1 -3.95,-3.95 3.95,3.95 0 0 1 3.95,-3.95 3.95,3.95 0 0 1 3.95,3.95 z" /><path
       id="rect132425"
       style="stroke-width:0.18619"
       d="m 198.31562,243.38503 h 4 v 4 h -4 z" /><path
       id="rect132427"
       style="stroke-width:0.18619"
       d="m 213.18421,268.93746 h 4 v 4 h -4 z" /><path
       id="rect132429"
       style="stroke-width:0.18619"
       d="m 227.91619,243.38503 h 4 v 4 h -4 z" /><path
       id="rect132431"
       style="stroke-width:0.18619"
       d="m 257.3294,243.38503 h 4 v 4 h -4 z" /><path
       id="rect132433"
       style="stroke-width:0.18619"
       d="m 286.84423,243.38503 h 4 v 4 h -4 z" /><path
       id="rect132435"
       style="stroke-width:0.18619"
       d="m 272.23919,268.98846 h 4 v 4 h -4 z" /><path
       id="circle132493"
       style="stroke-width:0.174616"
       d="m 204.26562,232.32023 a 3.95,3.95 0 0 1 -3.95,3.95 3.95,3.95 0 0 1 -3.95,-3.95 3.95,3.95 0 0 1 3.95,-3.95 3.95,3.95 0 0 1 3.95,3.95 z" /><path
       id="circle132495"
       style="stroke-width:0.174616"
       d="m 292.79423,232.27863 a 3.95,3.95 0 0 1 -3.95,3.95 3.95,3.95 0 0 1 -3.95,-3.95 3.95,3.95 0 0 1 3.95,-3.95 3.95,3.95 0 0 1 3.95,3.95 z" /><path
       id="circle132497"
       style="stroke-width:0.174616"
       d="m 263.2794,232.27863 a 3.95,3.95 0 0 1 -3.95,3.95 3.95,3.95 0 0 1 -3.95,-3.95 3.95,3.95 0 0 1 3.95,-3.95 3.95,3.95 0 0 1 3.95,3.95 z" /><path
       id="circle132499"
       style="stroke-width:0.174616"
       d="m 233.86619,232.32023 a 3.95,3.95 0 0 1 -3.95,3.95 3.95,3.95 0 0 1 -3.95,-3.95 3.95,3.95 0 0 1 3.95,-3.95 3.95,3.95 0 0 1 3.95,3.95 z" /><path
       id="circle146662"
       style="stroke-width:0.174616"
       d="m 360.01011,257.45249 a 3.95,3.95 0 0 1 -3.95,3.95 3.95,3.95 0 0 1 -3.95,-3.95 3.95,3.95 0 0 1 3.95,-3.95 3.95,3.95 0 0 1 3.95,3.95 z" /><path
       id="circle146664"
       style="stroke-width:0.174616"
       d="m 389.53129,257.45249 a 3.95,3.95 0 0 1 -3.95,3.95 3.95,3.95 0 0 1 -3.95,-3.95 3.95,3.95 0 0 1 3.95,-3.95 3.95,3.95 0 0 1 3.95,3.95 z" /><path
       id="circle146666"
       style="stroke-width:0.174616"
       d="m 419.03104,257.45249 a 3.95,3.95 0 0 1 -3.95,3.95 3.95,3.95 0 0 1 -3.95,-3.95 3.95,3.95 0 0 1 3.95,-3.95 3.95,3.95 0 0 1 3.95,3.95 z" /><path
       id="circle146668"
       style="stroke-width:0.174616"
       d="m 448.50178,257.45249 a 3.95,3.95 0 0 1 -3.95,3.95 3.95,3.95 0 0 1 -3.95,-3.95 3.95,3.95 0 0 1 3.95,-3.95 3.95,3.95 0 0 1 3.95,3.95 z" /><path
       id="rect146700"
       style="stroke-width:0.18619"
       d="m 354.06011,269.00748 h 4 v 4 h -4 z" /><path
       id="rect146702"
       style="stroke-width:0.18619"
       d="m 383.58129,269.00748 h 4 v 4 h -4 z" /><path
       id="rect146704"
       style="stroke-width:0.18619"
       d="m 413.10241,269.00748 h 4 v 4 h -4 z" /><path
       id="rect146706"
       style="stroke-width:0.18619"
       d="m 442.62349,269.00748 h 4 v 4 h -4 z" /><path
       id="circle97372"
       style="stroke-width:0.174616"
       d="m 204.26562,126.14525 a 3.95,3.95 0 0 1 -3.95,3.95 3.95,3.95 0 0 1 -3.95,-3.95 3.95,3.95 0 0 1 3.95,-3.95 3.95,3.95 0 0 1 3.95,3.95 z" /><path
       id="circle97378"
       style="stroke-width:0.174616"
       d="m 292.79423,126.10365 a 3.95,3.95 0 0 1 -3.95,3.95 3.95,3.95 0 0 1 -3.95,-3.95 3.95,3.95 0 0 1 3.95,-3.95 3.95,3.95 0 0 1 3.95,3.95 z" /><path
       id="circle97376"
       style="stroke-width:0.174616"
       d="m 263.2794,126.10365 a 3.95,3.95 0 0 1 -3.95,3.95 3.95,3.95 0 0 1 -3.95,-3.95 3.95,3.95 0 0 1 3.95,-3.95 3.95,3.95 0 0 1 3.95,3.95 z" /><path
       id="circle97374"
       style="stroke-width:0.174616"
       d="m 233.86619,126.14525 a 3.95,3.95 0 0 1 -3.95,3.95 3.95,3.95 0 0 1 -3.95,-3.95 3.95,3.95 0 0 1 3.95,-3.95 3.95,3.95 0 0 1 3.95,3.95 z" /><path
       id="circle97513"
       style="stroke-width:0.174616"
       d="m 219.13421,151.57986 a 3.95,3.95 0 0 1 -3.95,3.95 3.95,3.95 0 0 1 -3.95,-3.95 3.95,3.95 0 0 1 3.95,-3.95 3.95,3.95 0 0 1 3.95,3.95 z" /><path
       id="circle97499"
       style="stroke-width:0.174616"
       d="m 278.18919,151.57986 a 3.95,3.95 0 0 1 -3.95,3.95 3.95,3.95 0 0 1 -3.95,-3.95 3.95,3.95 0 0 1 3.95,-3.95 3.95,3.95 0 0 1 3.95,3.95 z" /><path
       id="rect17909"
       style="color:#000000;fill:#000000;-inkscape-stroke:none"
       d="m 34.891726,13.140799 c -15.778283,0 -28.760974,11.860064 -30.548006,27.155965 H 9.379072 C 11.116007,27.713884 21.801623,18.14101 34.891726,18.14101 h 18.564242 v -5.000211 z m 86.226774,0 v 5.000211 h 18.56269 c 13.09011,0 23.77696,9.572879 25.5142,22.155754 h 5.03536 C 168.44352,25.00086 155.45946,13.140799 139.68119,13.140799 Z M 4.34372,65.774795 C 6.130981,81.070449 19.113619,92.930244 34.891726,92.930244 H 53.455968 V 87.930032 H 34.891726 c -13.089905,0 -23.774957,-9.57264 -25.512138,-22.155237 z m 160.85167,0 c -1.73745,12.582623 -12.42427,22.155237 -25.5142,22.155237 H 121.1185 v 5.000212 h 18.56269 c 15.7781,0 28.7621,-11.859791 30.54956,-27.155449 z" /><path
       id="rect17959"
       style="color:#000000;fill:#000000;-inkscape-stroke:none"
       d="m 343.26589,13.211966 c -15.74207,0 -28.69545,11.826472 -30.49013,27.083618 h 5.03483 c 1.74403,-12.543978 12.4014,-22.083407 25.45529,-22.083407 h 23.27197 v -5.000211 z m 90.9345,0 v 5.000211 h 23.27042 c 13.05389,0 23.71304,9.539435 25.45736,22.083407 h 5.03482 C 486.16808,25.038446 473.21287,13.211966 457.47081,13.211966 Z M 312.77576,65.773615 c 1.79489,15.256899 14.74824,27.083102 30.49013,27.083102 h 23.27197 v -5.000212 h -23.27197 c -13.05372,0 -23.71105,-9.539164 -25.45529,-22.08289 z m 170.1524,0 c -1.74453,12.543722 -12.40365,22.08289 -25.45736,22.08289 h -23.27042 v 5.000212 h 23.27042 c 15.7419,0 28.69704,-11.826211 30.49219,-27.083102 z" /><path
       id="circle21"
       style="stroke-width:0.174616"
       d="m 271.01883,27.198978 a 3.95,3.95 0 0 1 -3.95,3.95 3.95,3.95 0 0 1 -3.95001,-3.95 3.95,3.95 0 0 1 3.95001,-3.95 3.95,3.95 0 0 1 3.95,3.95 z" /><path
       id="path235"
       style="stroke-width:0.174616"
       d="m 46.91446,128.26964 a 3.95,3.95 0 0 1 -3.95,3.95 3.95,3.95 0 0 1 -3.95,-3.95 3.95,3.95 0 0 1 3.95,-3.95 3.95,3.95 0 0 1 3.95,3.95 z" /><path
       id="circle345"
       style="stroke-width:0.174616"
       d="m 76.435662,128.26964 a 3.95,3.95 0 0 1 -3.95,3.95 3.95,3.95 0 0 1 -3.95,-3.95 3.95,3.95 0 0 1 3.95,-3.95 3.95,3.95 0 0 1 3.95,3.95 z" /><path
       id="circle347"
       style="stroke-width:0.174616"
       d="m 105.95676,128.26964 a 3.95,3.95 0 0 1 -3.95,3.95 3.95,3.95 0 0 1 -3.949995,-3.95 3.95,3.95 0 0 1 3.949995,-3.95 3.95,3.95 0 0 1 3.95,3.95 z" /><path
       id="circle349"
       style="stroke-width:0.174616"
       d="m 135.47786,128.26964 a 3.95,3.95 0 0 1 -3.95,3.95 3.95,3.95 0 0 1 -3.95,-3.95 3.95,3.95 0 0 1 3.95,-3.95 3.95,3.95 0 0 1 3.95,3.95 z" /><path
       id="rect5453"
       style="stroke-width:0.18619"
       d="m 40.96446,139.82464 h 4 v 4 h -4 z" /><path
       id="rect5477"
       style="stroke-width:0.18619"
       d="m 70.485662,139.82464 h 4 v 4 h -4 z" /><path
       id="rect5479"
       style="stroke-width:0.18619"
       d="m 100.00676,139.82464 h 4 v 4 h -4 z" /><path
       id="rect5481"
       style="stroke-width:0.18619"
       d="m 129.52786,139.82464 h 4 v 4 h -4 z" /><path
       id="circle97236"
       style="stroke-width:0.174616"
       d="m 46.91446,257.47473 a 3.95,3.95 0 0 1 -3.95,3.95 3.95,3.95 0 0 1 -3.95,-3.95 3.95,3.95 0 0 1 3.95,-3.95 3.95,3.95 0 0 1 3.95,3.95 z" /><path
       id="circle97238"
       style="stroke-width:0.174616"
       d="m 76.435662,257.47473 a 3.95,3.95 0 0 1 -3.95,3.95 3.95,3.95 0 0 1 -3.95,-3.95 3.95,3.95 0 0 1 3.95,-3.95 3.95,3.95 0 0 1 3.95,3.95 z" /><path
       id="circle97240"
       style="stroke-width:0.174616"
       d="m 105.95676,257.47473 a 3.95,3.95 0 0 1 -3.95,3.95 3.95,3.95 0 0 1 -3.949995,-3.95 3.95,3.95 0 0 1 3.949995,-3.95 3.95,3.95 0 0 1 3.95,3.95 z" /><path
       id="circle97242"
       style="stroke-width:0.174616"
       d="m 135.47786,257.47473 a 3.95,3.95 0 0 1 -3.95,3.95 3.95,3.95 0 0 1 -3.95,-3.95 3.95,3.95 0 0 1 3.95,-3.95 3.95,3.95 0 0 1 3.95,3.95 z" /><path
       id="rect97274"
       style="stroke-width:0.18619"
       d="m 40.96446,269.02972 h 4 v 4 h -4 z" /><path
       id="rect97276"
       style="stroke-width:0.18619"
       d="m 70.485662,269.02972 h 4 v 4 h -4 z" /><path
       id="rect97278"
       style="stroke-width:0.18619"
       d="m 100.00676,269.02972 h 4 v 4 h -4 z" /><path
       id="rect97280"
       style="stroke-width:0.18619"
       d="m 129.52786,269.02972 h 4 v 4 h -4 z" /><path
       id="circle134939"
       style="stroke-width:0.174616"
       d="m 374.87867,151.5349 a 3.95,3.95 0 0 1 -3.95,3.95 3.95,3.95 0 0 1 -3.95,-3.95 3.95,3.95 0 0 1 3.95,-3.95 3.95,3.95 0 0 1 3.95,3.95 z" /><path
       id="circle134941"
       style="stroke-width:0.174616"
       d="m 433.93366,151.5349 a 3.95,3.95 0 0 1 -3.95,3.95 3.95,3.95 0 0 1 -3.95,-3.95 3.95,3.95 0 0 1 3.95,-3.95 3.95,3.95 0 0 1 3.95,3.95 z" /><path
       id="rect134987"
       style="stroke-width:0.18619"
       d="m 354.06008,137.1651 h 4 v 4 h -4 z" /><path
       id="rect134989"
       style="stroke-width:0.18619"
       d="m 368.92867,162.7175 h 4 v 4 h -4 z" /><path
       id="rect134991"
       style="stroke-width:0.18619"
       d="m 383.66067,137.1651 h 4 v 4 h -4 z" /><path
       id="rect134993"
       style="stroke-width:0.18619"
       d="m 413.07387,137.1651 h 4 v 4 h -4 z" /><path
       id="rect134995"
       style="stroke-width:0.18619"
       d="m 442.5887,137.1651 h 4 v 4 h -4 z" /><path
       id="rect134997"
       style="stroke-width:0.18619"
       d="m 427.98366,162.76851 h 4 v 4 h -4 z" /><path
       id="circle135055"
       style="stroke-width:0.174616"
       d="m 360.01008,126.1003 a 3.95,3.95 0 0 1 -3.95,3.95 3.95,3.95 0 0 1 -3.95,-3.95 3.95,3.95 0 0 1 3.95,-3.95 3.95,3.95 0 0 1 3.95,3.95 z" /><path
       id="circle135057"
       style="stroke-width:0.174616"
       d="m 448.5387,126.0587 a 3.95,3.95 0 0 1 -3.95,3.95 3.95,3.95 0 0 1 -3.95,-3.95 3.95,3.95 0 0 1 3.95,-3.95 3.95,3.95 0 0 1 3.95,3.95 z" /><path
       id="circle135059"
       style="stroke-width:0.174616"
       d="m 419.02387,126.0587 a 3.95,3.95 0 0 1 -3.95,3.95 3.95,3.95 0 0 1 -3.95,-3.95 3.95,3.95 0 0 1 3.95,-3.95 3.95,3.95 0 0 1 3.95,3.95 z" /><path
       id="circle135061"
       style="stroke-width:0.174616"
       d="m 389.61067,126.1003 a 3.95,3.95 0 0 1 -3.95,3.95 3.95,3.95 0 0 1 -3.95001,-3.95 3.95,3.95 0 0 1 3.95001,-3.95 3.95,3.95 0 0 1 3.95,3.95 z" /><path
       id="circle146338"
       style="display:inline;stroke-width:0.174616"
       d="m 463.36158,203.30884 a 3.95,3.95 0 0 1 -3.95,3.95 3.95,3.95 0 0 1 -3.95,-3.95 3.95,3.95 0 0 1 3.95,-3.95 3.95,3.95 0 0 1 3.95,3.95 z" /><path
       id="path235-7"
       style="display:inline;stroke-width:0.174616"
       d="m 345.27708,203.30884 a 3.95,3.95 0 0 1 -3.95,3.95 3.95,3.95 0 0 1 -3.95,-3.95 3.95,3.95 0 0 1 3.95,-3.95 3.95,3.95 0 0 1 3.95,3.95 z" /><path
       id="circle345-6"
       style="display:inline;stroke-width:0.174616"
       d="m 374.79826,203.30884 a 3.95,3.95 0 0 1 -3.95,3.95 3.95,3.95 0 0 1 -3.95,-3.95 3.95,3.95 0 0 1 3.95,-3.95 3.95,3.95 0 0 1 3.95,3.95 z" /><path
       id="circle347-4"
       style="display:inline;stroke-width:0.174616"
       d="m 404.31937,203.30884 a 3.95,3.95 0 0 1 -3.95,3.95 3.95,3.95 0 0 1 -3.95,-3.95 3.95,3.95 0 0 1 3.95,-3.95 3.95,3.95 0 0 1 3.95,3.95 z" /><path
       id="circle349-5"
       style="display:inline;stroke-width:0.174616"
       d="m 433.84046,203.30884 a 3.95,3.95 0 0 1 -3.95,3.95 3.95,3.95 0 0 1 -3.95,-3.95 3.95,3.95 0 0 1 3.95,-3.95 3.95,3.95 0 0 1 3.95,3.95 z" /><path
       id="rect5453-8"
       style="display:inline;stroke-width:0.18619"
       d="m 339.32708,214.86383 h 4 v 4 h -4 z" /><path
       id="rect5477-4"
       style="display:inline;stroke-width:0.18619"
       d="m 368.84826,214.86383 h 4 v 4 h -4 z" /><path
       id="rect5479-1"
       style="display:inline;stroke-width:0.18619"
       d="m 398.36937,214.86383 h 4 v 4 h -4 z" /><path
       id="rect5481-9"
       style="display:inline;stroke-width:0.18619"
       d="m 427.89046,214.86383 h 4 v 4 h -4 z" /><path
       id="rect146388"
       style="display:inline;stroke-width:0.18619"
       d="m 457.41158,214.86383 h 4 v 4 h -4 z" /><path
       id="rect78128"
       style="fill:none;stroke:#000000;stroke-width:0.0971235"
       d="M 0.04856173,0.04856173 H 489.95143 V 299.95144 H 0.04856173 Z"
       inkscape:label="Contour" /><path
       id="rect143490-0"
       style="fill:none;stroke:#000000;stroke-width:0.1"
       d="M 28.488243,31.313546 H 146.06254 c 2.0825,0 3.75903,1.67653 3.75903,3.759036 v 35.91968 c 0,2.082506 -1.67653,3.759036 -3.75903,3.759036 H 28.488243 c -2.082506,0 -3.759036,-1.67653 -3.759036,-3.759036 v -35.91968 c 0,-2.082506 1.67653,-3.759036 3.759036,-3.759036 z" /><path
       id="rect143516-3"
       style="fill:none;stroke:#000000;stroke-width:0.111637"
       d="m 326.15402,31.321463 h 148.42747 c 2.08195,0 3.75803,1.67608 3.75803,3.758029 V 70.98955 c 0,2.081949 -1.67608,3.758029 -3.75803,3.758029 H 326.15402 c -2.08195,0 -3.75803,-1.67608 -3.75803,-3.758029 V 35.079492 c 0,-2.081949 1.67608,-3.758029 3.75803,-3.758029 z" /></g></svg>
