%TF.GenerationSoftware,KiCad,Pcbnew,9.0.0*%
%TF.CreationDate,2025-03-25T09:54:28+01:00*%
%TF.ProjectId,powerBoard,706f7765-7242-46f6-9172-642e6b696361,rev?*%
%TF.SameCoordinates,Original*%
%TF.FileFunction,Drillmap*%
%TF.FilePolarity,Positive*%
%FSLAX45Y45*%
G04 Gerber Fmt 4.5, Leading zero omitted, Abs format (unit mm)*
G04 Created by KiCad (PCBNEW 9.0.0) date 2025-03-25 09:54:28*
%MOMM*%
%LPD*%
G01*
G04 APERTURE LIST*
%ADD10C,0.050000*%
%ADD11C,0.200000*%
%ADD12C,0.350000*%
G04 APERTURE END LIST*
D10*
X2141220Y-1976120D02*
G75*
G02*
X1836420Y-1976120I-152400J0D01*
G01*
X1836420Y-1976120D02*
G75*
G02*
X2141220Y-1976120I152400J0D01*
G01*
X2164080Y-7922260D02*
G75*
G02*
X1859280Y-7922260I-152400J0D01*
G01*
X1859280Y-7922260D02*
G75*
G02*
X2164080Y-7922260I152400J0D01*
G01*
X11264900Y-7886700D02*
G75*
G02*
X10960100Y-7886700I-152400J0D01*
G01*
X10960100Y-7886700D02*
G75*
G02*
X11264900Y-7886700I152400J0D01*
G01*
X11259820Y-2001520D02*
G75*
G02*
X10955020Y-2001520I-152400J0D01*
G01*
X10955020Y-2001520D02*
G75*
G02*
X11259820Y-2001520I152400J0D01*
G01*
X1767840Y-1775460D02*
X11330940Y-1775460D01*
X11330940Y-8133080D01*
X1767840Y-8133080D01*
X1767840Y-1775460D01*
D11*
D12*
X6737540Y-6187880D02*
X7087540Y-6537880D01*
X7087540Y-6187880D02*
X6737540Y-6537880D01*
X6883372Y-2024860D02*
X7233372Y-2374860D01*
X7233372Y-2024860D02*
X6883372Y-2374860D01*
D11*
X2026117Y-8447064D02*
X2026117Y-8247064D01*
X2026117Y-8247064D02*
X2073736Y-8247064D01*
X2073736Y-8247064D02*
X2102307Y-8256588D01*
X2102307Y-8256588D02*
X2121355Y-8275635D01*
X2121355Y-8275635D02*
X2130879Y-8294683D01*
X2130879Y-8294683D02*
X2140403Y-8332778D01*
X2140403Y-8332778D02*
X2140403Y-8361349D01*
X2140403Y-8361349D02*
X2130879Y-8399445D01*
X2130879Y-8399445D02*
X2121355Y-8418492D01*
X2121355Y-8418492D02*
X2102307Y-8437540D01*
X2102307Y-8437540D02*
X2073736Y-8447064D01*
X2073736Y-8447064D02*
X2026117Y-8447064D01*
X2226117Y-8447064D02*
X2226117Y-8313730D01*
X2226117Y-8351826D02*
X2235641Y-8332778D01*
X2235641Y-8332778D02*
X2245164Y-8323254D01*
X2245164Y-8323254D02*
X2264212Y-8313730D01*
X2264212Y-8313730D02*
X2283260Y-8313730D01*
X2349926Y-8447064D02*
X2349926Y-8313730D01*
X2349926Y-8247064D02*
X2340403Y-8256588D01*
X2340403Y-8256588D02*
X2349926Y-8266111D01*
X2349926Y-8266111D02*
X2359450Y-8256588D01*
X2359450Y-8256588D02*
X2349926Y-8247064D01*
X2349926Y-8247064D02*
X2349926Y-8266111D01*
X2473736Y-8447064D02*
X2454688Y-8437540D01*
X2454688Y-8437540D02*
X2445164Y-8418492D01*
X2445164Y-8418492D02*
X2445164Y-8247064D01*
X2578498Y-8447064D02*
X2559450Y-8437540D01*
X2559450Y-8437540D02*
X2549926Y-8418492D01*
X2549926Y-8418492D02*
X2549926Y-8247064D01*
X2807069Y-8447064D02*
X2807069Y-8247064D01*
X2807069Y-8247064D02*
X2873736Y-8389921D01*
X2873736Y-8389921D02*
X2940402Y-8247064D01*
X2940402Y-8247064D02*
X2940402Y-8447064D01*
X3121355Y-8447064D02*
X3121355Y-8342302D01*
X3121355Y-8342302D02*
X3111831Y-8323254D01*
X3111831Y-8323254D02*
X3092783Y-8313730D01*
X3092783Y-8313730D02*
X3054688Y-8313730D01*
X3054688Y-8313730D02*
X3035641Y-8323254D01*
X3121355Y-8437540D02*
X3102307Y-8447064D01*
X3102307Y-8447064D02*
X3054688Y-8447064D01*
X3054688Y-8447064D02*
X3035641Y-8437540D01*
X3035641Y-8437540D02*
X3026117Y-8418492D01*
X3026117Y-8418492D02*
X3026117Y-8399445D01*
X3026117Y-8399445D02*
X3035641Y-8380397D01*
X3035641Y-8380397D02*
X3054688Y-8370873D01*
X3054688Y-8370873D02*
X3102307Y-8370873D01*
X3102307Y-8370873D02*
X3121355Y-8361349D01*
X3216593Y-8313730D02*
X3216593Y-8513730D01*
X3216593Y-8323254D02*
X3235641Y-8313730D01*
X3235641Y-8313730D02*
X3273736Y-8313730D01*
X3273736Y-8313730D02*
X3292783Y-8323254D01*
X3292783Y-8323254D02*
X3302307Y-8332778D01*
X3302307Y-8332778D02*
X3311831Y-8351826D01*
X3311831Y-8351826D02*
X3311831Y-8408969D01*
X3311831Y-8408969D02*
X3302307Y-8428016D01*
X3302307Y-8428016D02*
X3292783Y-8437540D01*
X3292783Y-8437540D02*
X3273736Y-8447064D01*
X3273736Y-8447064D02*
X3235641Y-8447064D01*
X3235641Y-8447064D02*
X3216593Y-8437540D01*
X3397545Y-8428016D02*
X3407069Y-8437540D01*
X3407069Y-8437540D02*
X3397545Y-8447064D01*
X3397545Y-8447064D02*
X3388022Y-8437540D01*
X3388022Y-8437540D02*
X3397545Y-8428016D01*
X3397545Y-8428016D02*
X3397545Y-8447064D01*
X3397545Y-8323254D02*
X3407069Y-8332778D01*
X3407069Y-8332778D02*
X3397545Y-8342302D01*
X3397545Y-8342302D02*
X3388022Y-8332778D01*
X3388022Y-8332778D02*
X3397545Y-8323254D01*
X3397545Y-8323254D02*
X3397545Y-8342302D01*
X1565340Y-8675580D02*
X1765340Y-8875580D01*
X1765340Y-8675580D02*
X1565340Y-8875580D01*
X2007069Y-8667064D02*
X2130879Y-8667064D01*
X2130879Y-8667064D02*
X2064212Y-8743254D01*
X2064212Y-8743254D02*
X2092783Y-8743254D01*
X2092783Y-8743254D02*
X2111831Y-8752778D01*
X2111831Y-8752778D02*
X2121355Y-8762302D01*
X2121355Y-8762302D02*
X2130879Y-8781350D01*
X2130879Y-8781350D02*
X2130879Y-8828969D01*
X2130879Y-8828969D02*
X2121355Y-8848016D01*
X2121355Y-8848016D02*
X2111831Y-8857540D01*
X2111831Y-8857540D02*
X2092783Y-8867064D01*
X2092783Y-8867064D02*
X2035641Y-8867064D01*
X2035641Y-8867064D02*
X2016593Y-8857540D01*
X2016593Y-8857540D02*
X2007069Y-8848016D01*
X2216593Y-8848016D02*
X2226117Y-8857540D01*
X2226117Y-8857540D02*
X2216593Y-8867064D01*
X2216593Y-8867064D02*
X2207069Y-8857540D01*
X2207069Y-8857540D02*
X2216593Y-8848016D01*
X2216593Y-8848016D02*
X2216593Y-8867064D01*
X2407069Y-8667064D02*
X2311831Y-8667064D01*
X2311831Y-8667064D02*
X2302307Y-8762302D01*
X2302307Y-8762302D02*
X2311831Y-8752778D01*
X2311831Y-8752778D02*
X2330879Y-8743254D01*
X2330879Y-8743254D02*
X2378498Y-8743254D01*
X2378498Y-8743254D02*
X2397545Y-8752778D01*
X2397545Y-8752778D02*
X2407069Y-8762302D01*
X2407069Y-8762302D02*
X2416593Y-8781350D01*
X2416593Y-8781350D02*
X2416593Y-8828969D01*
X2416593Y-8828969D02*
X2407069Y-8848016D01*
X2407069Y-8848016D02*
X2397545Y-8857540D01*
X2397545Y-8857540D02*
X2378498Y-8867064D01*
X2378498Y-8867064D02*
X2330879Y-8867064D01*
X2330879Y-8867064D02*
X2311831Y-8857540D01*
X2311831Y-8857540D02*
X2302307Y-8848016D01*
X2540403Y-8667064D02*
X2559450Y-8667064D01*
X2559450Y-8667064D02*
X2578498Y-8676588D01*
X2578498Y-8676588D02*
X2588022Y-8686111D01*
X2588022Y-8686111D02*
X2597545Y-8705159D01*
X2597545Y-8705159D02*
X2607069Y-8743254D01*
X2607069Y-8743254D02*
X2607069Y-8790873D01*
X2607069Y-8790873D02*
X2597545Y-8828969D01*
X2597545Y-8828969D02*
X2588022Y-8848016D01*
X2588022Y-8848016D02*
X2578498Y-8857540D01*
X2578498Y-8857540D02*
X2559450Y-8867064D01*
X2559450Y-8867064D02*
X2540403Y-8867064D01*
X2540403Y-8867064D02*
X2521355Y-8857540D01*
X2521355Y-8857540D02*
X2511831Y-8848016D01*
X2511831Y-8848016D02*
X2502307Y-8828969D01*
X2502307Y-8828969D02*
X2492784Y-8790873D01*
X2492784Y-8790873D02*
X2492784Y-8743254D01*
X2492784Y-8743254D02*
X2502307Y-8705159D01*
X2502307Y-8705159D02*
X2511831Y-8686111D01*
X2511831Y-8686111D02*
X2521355Y-8676588D01*
X2521355Y-8676588D02*
X2540403Y-8667064D01*
X2730879Y-8667064D02*
X2749926Y-8667064D01*
X2749926Y-8667064D02*
X2768974Y-8676588D01*
X2768974Y-8676588D02*
X2778498Y-8686111D01*
X2778498Y-8686111D02*
X2788022Y-8705159D01*
X2788022Y-8705159D02*
X2797545Y-8743254D01*
X2797545Y-8743254D02*
X2797545Y-8790873D01*
X2797545Y-8790873D02*
X2788022Y-8828969D01*
X2788022Y-8828969D02*
X2778498Y-8848016D01*
X2778498Y-8848016D02*
X2768974Y-8857540D01*
X2768974Y-8857540D02*
X2749926Y-8867064D01*
X2749926Y-8867064D02*
X2730879Y-8867064D01*
X2730879Y-8867064D02*
X2711831Y-8857540D01*
X2711831Y-8857540D02*
X2702307Y-8848016D01*
X2702307Y-8848016D02*
X2692784Y-8828969D01*
X2692784Y-8828969D02*
X2683260Y-8790873D01*
X2683260Y-8790873D02*
X2683260Y-8743254D01*
X2683260Y-8743254D02*
X2692784Y-8705159D01*
X2692784Y-8705159D02*
X2702307Y-8686111D01*
X2702307Y-8686111D02*
X2711831Y-8676588D01*
X2711831Y-8676588D02*
X2730879Y-8667064D01*
X2883260Y-8867064D02*
X2883260Y-8733730D01*
X2883260Y-8752778D02*
X2892783Y-8743254D01*
X2892783Y-8743254D02*
X2911831Y-8733730D01*
X2911831Y-8733730D02*
X2940403Y-8733730D01*
X2940403Y-8733730D02*
X2959450Y-8743254D01*
X2959450Y-8743254D02*
X2968974Y-8762302D01*
X2968974Y-8762302D02*
X2968974Y-8867064D01*
X2968974Y-8762302D02*
X2978498Y-8743254D01*
X2978498Y-8743254D02*
X2997545Y-8733730D01*
X2997545Y-8733730D02*
X3026117Y-8733730D01*
X3026117Y-8733730D02*
X3045164Y-8743254D01*
X3045164Y-8743254D02*
X3054688Y-8762302D01*
X3054688Y-8762302D02*
X3054688Y-8867064D01*
X3149926Y-8867064D02*
X3149926Y-8733730D01*
X3149926Y-8752778D02*
X3159450Y-8743254D01*
X3159450Y-8743254D02*
X3178498Y-8733730D01*
X3178498Y-8733730D02*
X3207069Y-8733730D01*
X3207069Y-8733730D02*
X3226117Y-8743254D01*
X3226117Y-8743254D02*
X3235641Y-8762302D01*
X3235641Y-8762302D02*
X3235641Y-8867064D01*
X3235641Y-8762302D02*
X3245164Y-8743254D01*
X3245164Y-8743254D02*
X3264212Y-8733730D01*
X3264212Y-8733730D02*
X3292783Y-8733730D01*
X3292783Y-8733730D02*
X3311831Y-8743254D01*
X3311831Y-8743254D02*
X3321355Y-8762302D01*
X3321355Y-8762302D02*
X3321355Y-8867064D01*
X3711831Y-8657540D02*
X3540403Y-8914683D01*
X3968974Y-8667064D02*
X3988022Y-8667064D01*
X3988022Y-8667064D02*
X4007069Y-8676588D01*
X4007069Y-8676588D02*
X4016593Y-8686111D01*
X4016593Y-8686111D02*
X4026117Y-8705159D01*
X4026117Y-8705159D02*
X4035641Y-8743254D01*
X4035641Y-8743254D02*
X4035641Y-8790873D01*
X4035641Y-8790873D02*
X4026117Y-8828969D01*
X4026117Y-8828969D02*
X4016593Y-8848016D01*
X4016593Y-8848016D02*
X4007069Y-8857540D01*
X4007069Y-8857540D02*
X3988022Y-8867064D01*
X3988022Y-8867064D02*
X3968974Y-8867064D01*
X3968974Y-8867064D02*
X3949926Y-8857540D01*
X3949926Y-8857540D02*
X3940403Y-8848016D01*
X3940403Y-8848016D02*
X3930879Y-8828969D01*
X3930879Y-8828969D02*
X3921355Y-8790873D01*
X3921355Y-8790873D02*
X3921355Y-8743254D01*
X3921355Y-8743254D02*
X3930879Y-8705159D01*
X3930879Y-8705159D02*
X3940403Y-8686111D01*
X3940403Y-8686111D02*
X3949926Y-8676588D01*
X3949926Y-8676588D02*
X3968974Y-8667064D01*
X4121355Y-8848016D02*
X4130879Y-8857540D01*
X4130879Y-8857540D02*
X4121355Y-8867064D01*
X4121355Y-8867064D02*
X4111831Y-8857540D01*
X4111831Y-8857540D02*
X4121355Y-8848016D01*
X4121355Y-8848016D02*
X4121355Y-8867064D01*
X4321355Y-8867064D02*
X4207069Y-8867064D01*
X4264212Y-8867064D02*
X4264212Y-8667064D01*
X4264212Y-8667064D02*
X4245165Y-8695635D01*
X4245165Y-8695635D02*
X4226117Y-8714683D01*
X4226117Y-8714683D02*
X4207069Y-8724207D01*
X4388022Y-8667064D02*
X4511831Y-8667064D01*
X4511831Y-8667064D02*
X4445165Y-8743254D01*
X4445165Y-8743254D02*
X4473736Y-8743254D01*
X4473736Y-8743254D02*
X4492784Y-8752778D01*
X4492784Y-8752778D02*
X4502308Y-8762302D01*
X4502308Y-8762302D02*
X4511831Y-8781350D01*
X4511831Y-8781350D02*
X4511831Y-8828969D01*
X4511831Y-8828969D02*
X4502308Y-8848016D01*
X4502308Y-8848016D02*
X4492784Y-8857540D01*
X4492784Y-8857540D02*
X4473736Y-8867064D01*
X4473736Y-8867064D02*
X4416593Y-8867064D01*
X4416593Y-8867064D02*
X4397546Y-8857540D01*
X4397546Y-8857540D02*
X4388022Y-8848016D01*
X4578498Y-8667064D02*
X4711831Y-8667064D01*
X4711831Y-8667064D02*
X4626117Y-8867064D01*
X4816593Y-8752778D02*
X4797546Y-8743254D01*
X4797546Y-8743254D02*
X4788022Y-8733730D01*
X4788022Y-8733730D02*
X4778498Y-8714683D01*
X4778498Y-8714683D02*
X4778498Y-8705159D01*
X4778498Y-8705159D02*
X4788022Y-8686111D01*
X4788022Y-8686111D02*
X4797546Y-8676588D01*
X4797546Y-8676588D02*
X4816593Y-8667064D01*
X4816593Y-8667064D02*
X4854689Y-8667064D01*
X4854689Y-8667064D02*
X4873736Y-8676588D01*
X4873736Y-8676588D02*
X4883260Y-8686111D01*
X4883260Y-8686111D02*
X4892784Y-8705159D01*
X4892784Y-8705159D02*
X4892784Y-8714683D01*
X4892784Y-8714683D02*
X4883260Y-8733730D01*
X4883260Y-8733730D02*
X4873736Y-8743254D01*
X4873736Y-8743254D02*
X4854689Y-8752778D01*
X4854689Y-8752778D02*
X4816593Y-8752778D01*
X4816593Y-8752778D02*
X4797546Y-8762302D01*
X4797546Y-8762302D02*
X4788022Y-8771826D01*
X4788022Y-8771826D02*
X4778498Y-8790873D01*
X4778498Y-8790873D02*
X4778498Y-8828969D01*
X4778498Y-8828969D02*
X4788022Y-8848016D01*
X4788022Y-8848016D02*
X4797546Y-8857540D01*
X4797546Y-8857540D02*
X4816593Y-8867064D01*
X4816593Y-8867064D02*
X4854689Y-8867064D01*
X4854689Y-8867064D02*
X4873736Y-8857540D01*
X4873736Y-8857540D02*
X4883260Y-8848016D01*
X4883260Y-8848016D02*
X4892784Y-8828969D01*
X4892784Y-8828969D02*
X4892784Y-8790873D01*
X4892784Y-8790873D02*
X4883260Y-8771826D01*
X4883260Y-8771826D02*
X4873736Y-8762302D01*
X4873736Y-8762302D02*
X4854689Y-8752778D01*
X4968974Y-8667064D02*
X4968974Y-8705159D01*
X5045165Y-8667064D02*
X5045165Y-8705159D01*
X5340403Y-8943254D02*
X5330879Y-8933730D01*
X5330879Y-8933730D02*
X5311831Y-8905159D01*
X5311831Y-8905159D02*
X5302308Y-8886111D01*
X5302308Y-8886111D02*
X5292784Y-8857540D01*
X5292784Y-8857540D02*
X5283260Y-8809921D01*
X5283260Y-8809921D02*
X5283260Y-8771826D01*
X5283260Y-8771826D02*
X5292784Y-8724207D01*
X5292784Y-8724207D02*
X5302308Y-8695635D01*
X5302308Y-8695635D02*
X5311831Y-8676588D01*
X5311831Y-8676588D02*
X5330879Y-8648016D01*
X5330879Y-8648016D02*
X5340403Y-8638492D01*
X5407070Y-8686111D02*
X5416593Y-8676588D01*
X5416593Y-8676588D02*
X5435641Y-8667064D01*
X5435641Y-8667064D02*
X5483260Y-8667064D01*
X5483260Y-8667064D02*
X5502308Y-8676588D01*
X5502308Y-8676588D02*
X5511831Y-8686111D01*
X5511831Y-8686111D02*
X5521355Y-8705159D01*
X5521355Y-8705159D02*
X5521355Y-8724207D01*
X5521355Y-8724207D02*
X5511831Y-8752778D01*
X5511831Y-8752778D02*
X5397546Y-8867064D01*
X5397546Y-8867064D02*
X5521355Y-8867064D01*
X5759450Y-8867064D02*
X5759450Y-8667064D01*
X5845165Y-8867064D02*
X5845165Y-8762302D01*
X5845165Y-8762302D02*
X5835641Y-8743254D01*
X5835641Y-8743254D02*
X5816593Y-8733730D01*
X5816593Y-8733730D02*
X5788022Y-8733730D01*
X5788022Y-8733730D02*
X5768974Y-8743254D01*
X5768974Y-8743254D02*
X5759450Y-8752778D01*
X5968974Y-8867064D02*
X5949927Y-8857540D01*
X5949927Y-8857540D02*
X5940403Y-8848016D01*
X5940403Y-8848016D02*
X5930879Y-8828969D01*
X5930879Y-8828969D02*
X5930879Y-8771826D01*
X5930879Y-8771826D02*
X5940403Y-8752778D01*
X5940403Y-8752778D02*
X5949927Y-8743254D01*
X5949927Y-8743254D02*
X5968974Y-8733730D01*
X5968974Y-8733730D02*
X5997546Y-8733730D01*
X5997546Y-8733730D02*
X6016593Y-8743254D01*
X6016593Y-8743254D02*
X6026117Y-8752778D01*
X6026117Y-8752778D02*
X6035641Y-8771826D01*
X6035641Y-8771826D02*
X6035641Y-8828969D01*
X6035641Y-8828969D02*
X6026117Y-8848016D01*
X6026117Y-8848016D02*
X6016593Y-8857540D01*
X6016593Y-8857540D02*
X5997546Y-8867064D01*
X5997546Y-8867064D02*
X5968974Y-8867064D01*
X6149927Y-8867064D02*
X6130879Y-8857540D01*
X6130879Y-8857540D02*
X6121355Y-8838492D01*
X6121355Y-8838492D02*
X6121355Y-8667064D01*
X6302308Y-8857540D02*
X6283260Y-8867064D01*
X6283260Y-8867064D02*
X6245165Y-8867064D01*
X6245165Y-8867064D02*
X6226117Y-8857540D01*
X6226117Y-8857540D02*
X6216593Y-8838492D01*
X6216593Y-8838492D02*
X6216593Y-8762302D01*
X6216593Y-8762302D02*
X6226117Y-8743254D01*
X6226117Y-8743254D02*
X6245165Y-8733730D01*
X6245165Y-8733730D02*
X6283260Y-8733730D01*
X6283260Y-8733730D02*
X6302308Y-8743254D01*
X6302308Y-8743254D02*
X6311831Y-8762302D01*
X6311831Y-8762302D02*
X6311831Y-8781350D01*
X6311831Y-8781350D02*
X6216593Y-8800397D01*
X6388022Y-8857540D02*
X6407070Y-8867064D01*
X6407070Y-8867064D02*
X6445165Y-8867064D01*
X6445165Y-8867064D02*
X6464212Y-8857540D01*
X6464212Y-8857540D02*
X6473736Y-8838492D01*
X6473736Y-8838492D02*
X6473736Y-8828969D01*
X6473736Y-8828969D02*
X6464212Y-8809921D01*
X6464212Y-8809921D02*
X6445165Y-8800397D01*
X6445165Y-8800397D02*
X6416593Y-8800397D01*
X6416593Y-8800397D02*
X6397546Y-8790873D01*
X6397546Y-8790873D02*
X6388022Y-8771826D01*
X6388022Y-8771826D02*
X6388022Y-8762302D01*
X6388022Y-8762302D02*
X6397546Y-8743254D01*
X6397546Y-8743254D02*
X6416593Y-8733730D01*
X6416593Y-8733730D02*
X6445165Y-8733730D01*
X6445165Y-8733730D02*
X6464212Y-8743254D01*
X6540403Y-8943254D02*
X6549927Y-8933730D01*
X6549927Y-8933730D02*
X6568974Y-8905159D01*
X6568974Y-8905159D02*
X6578498Y-8886111D01*
X6578498Y-8886111D02*
X6588022Y-8857540D01*
X6588022Y-8857540D02*
X6597546Y-8809921D01*
X6597546Y-8809921D02*
X6597546Y-8771826D01*
X6597546Y-8771826D02*
X6588022Y-8724207D01*
X6588022Y-8724207D02*
X6578498Y-8695635D01*
X6578498Y-8695635D02*
X6568974Y-8676588D01*
X6568974Y-8676588D02*
X6549927Y-8648016D01*
X6549927Y-8648016D02*
X6540403Y-8638492D01*
X6902308Y-8943254D02*
X6892784Y-8933730D01*
X6892784Y-8933730D02*
X6873736Y-8905159D01*
X6873736Y-8905159D02*
X6864212Y-8886111D01*
X6864212Y-8886111D02*
X6854689Y-8857540D01*
X6854689Y-8857540D02*
X6845165Y-8809921D01*
X6845165Y-8809921D02*
X6845165Y-8771826D01*
X6845165Y-8771826D02*
X6854689Y-8724207D01*
X6854689Y-8724207D02*
X6864212Y-8695635D01*
X6864212Y-8695635D02*
X6873736Y-8676588D01*
X6873736Y-8676588D02*
X6892784Y-8648016D01*
X6892784Y-8648016D02*
X6902308Y-8638492D01*
X6978498Y-8733730D02*
X6978498Y-8867064D01*
X6978498Y-8752778D02*
X6988022Y-8743254D01*
X6988022Y-8743254D02*
X7007070Y-8733730D01*
X7007070Y-8733730D02*
X7035641Y-8733730D01*
X7035641Y-8733730D02*
X7054689Y-8743254D01*
X7054689Y-8743254D02*
X7064212Y-8762302D01*
X7064212Y-8762302D02*
X7064212Y-8867064D01*
X7188022Y-8867064D02*
X7168974Y-8857540D01*
X7168974Y-8857540D02*
X7159451Y-8848016D01*
X7159451Y-8848016D02*
X7149927Y-8828969D01*
X7149927Y-8828969D02*
X7149927Y-8771826D01*
X7149927Y-8771826D02*
X7159451Y-8752778D01*
X7159451Y-8752778D02*
X7168974Y-8743254D01*
X7168974Y-8743254D02*
X7188022Y-8733730D01*
X7188022Y-8733730D02*
X7216593Y-8733730D01*
X7216593Y-8733730D02*
X7235641Y-8743254D01*
X7235641Y-8743254D02*
X7245165Y-8752778D01*
X7245165Y-8752778D02*
X7254689Y-8771826D01*
X7254689Y-8771826D02*
X7254689Y-8828969D01*
X7254689Y-8828969D02*
X7245165Y-8848016D01*
X7245165Y-8848016D02*
X7235641Y-8857540D01*
X7235641Y-8857540D02*
X7216593Y-8867064D01*
X7216593Y-8867064D02*
X7188022Y-8867064D01*
X7311832Y-8733730D02*
X7388022Y-8733730D01*
X7340403Y-8667064D02*
X7340403Y-8838492D01*
X7340403Y-8838492D02*
X7349927Y-8857540D01*
X7349927Y-8857540D02*
X7368974Y-8867064D01*
X7368974Y-8867064D02*
X7388022Y-8867064D01*
X7607070Y-8733730D02*
X7607070Y-8933730D01*
X7607070Y-8743254D02*
X7626117Y-8733730D01*
X7626117Y-8733730D02*
X7664213Y-8733730D01*
X7664213Y-8733730D02*
X7683260Y-8743254D01*
X7683260Y-8743254D02*
X7692784Y-8752778D01*
X7692784Y-8752778D02*
X7702308Y-8771826D01*
X7702308Y-8771826D02*
X7702308Y-8828969D01*
X7702308Y-8828969D02*
X7692784Y-8848016D01*
X7692784Y-8848016D02*
X7683260Y-8857540D01*
X7683260Y-8857540D02*
X7664213Y-8867064D01*
X7664213Y-8867064D02*
X7626117Y-8867064D01*
X7626117Y-8867064D02*
X7607070Y-8857540D01*
X7816593Y-8867064D02*
X7797546Y-8857540D01*
X7797546Y-8857540D02*
X7788022Y-8838492D01*
X7788022Y-8838492D02*
X7788022Y-8667064D01*
X7978498Y-8867064D02*
X7978498Y-8762302D01*
X7978498Y-8762302D02*
X7968974Y-8743254D01*
X7968974Y-8743254D02*
X7949927Y-8733730D01*
X7949927Y-8733730D02*
X7911832Y-8733730D01*
X7911832Y-8733730D02*
X7892784Y-8743254D01*
X7978498Y-8857540D02*
X7959451Y-8867064D01*
X7959451Y-8867064D02*
X7911832Y-8867064D01*
X7911832Y-8867064D02*
X7892784Y-8857540D01*
X7892784Y-8857540D02*
X7883260Y-8838492D01*
X7883260Y-8838492D02*
X7883260Y-8819445D01*
X7883260Y-8819445D02*
X7892784Y-8800397D01*
X7892784Y-8800397D02*
X7911832Y-8790873D01*
X7911832Y-8790873D02*
X7959451Y-8790873D01*
X7959451Y-8790873D02*
X7978498Y-8781350D01*
X8045165Y-8733730D02*
X8121355Y-8733730D01*
X8073736Y-8667064D02*
X8073736Y-8838492D01*
X8073736Y-8838492D02*
X8083260Y-8857540D01*
X8083260Y-8857540D02*
X8102308Y-8867064D01*
X8102308Y-8867064D02*
X8121355Y-8867064D01*
X8264213Y-8857540D02*
X8245165Y-8867064D01*
X8245165Y-8867064D02*
X8207070Y-8867064D01*
X8207070Y-8867064D02*
X8188022Y-8857540D01*
X8188022Y-8857540D02*
X8178498Y-8838492D01*
X8178498Y-8838492D02*
X8178498Y-8762302D01*
X8178498Y-8762302D02*
X8188022Y-8743254D01*
X8188022Y-8743254D02*
X8207070Y-8733730D01*
X8207070Y-8733730D02*
X8245165Y-8733730D01*
X8245165Y-8733730D02*
X8264213Y-8743254D01*
X8264213Y-8743254D02*
X8273736Y-8762302D01*
X8273736Y-8762302D02*
X8273736Y-8781350D01*
X8273736Y-8781350D02*
X8178498Y-8800397D01*
X8445165Y-8867064D02*
X8445165Y-8667064D01*
X8445165Y-8857540D02*
X8426117Y-8867064D01*
X8426117Y-8867064D02*
X8388022Y-8867064D01*
X8388022Y-8867064D02*
X8368974Y-8857540D01*
X8368974Y-8857540D02*
X8359451Y-8848016D01*
X8359451Y-8848016D02*
X8349927Y-8828969D01*
X8349927Y-8828969D02*
X8349927Y-8771826D01*
X8349927Y-8771826D02*
X8359451Y-8752778D01*
X8359451Y-8752778D02*
X8368974Y-8743254D01*
X8368974Y-8743254D02*
X8388022Y-8733730D01*
X8388022Y-8733730D02*
X8426117Y-8733730D01*
X8426117Y-8733730D02*
X8445165Y-8743254D01*
X8521356Y-8943254D02*
X8530879Y-8933730D01*
X8530879Y-8933730D02*
X8549927Y-8905159D01*
X8549927Y-8905159D02*
X8559451Y-8886111D01*
X8559451Y-8886111D02*
X8568975Y-8857540D01*
X8568975Y-8857540D02*
X8578498Y-8809921D01*
X8578498Y-8809921D02*
X8578498Y-8771826D01*
X8578498Y-8771826D02*
X8568975Y-8724207D01*
X8568975Y-8724207D02*
X8559451Y-8695635D01*
X8559451Y-8695635D02*
X8549927Y-8676588D01*
X8549927Y-8676588D02*
X8530879Y-8648016D01*
X8530879Y-8648016D02*
X8521356Y-8638492D01*
M02*
