G04 #@! TF.GenerationSoftware,KiCad,Pcbnew,9.0.0*
G04 #@! TF.CreationDate,2025-03-25T09:53:12+01:00*
G04 #@! TF.ProjectId,powerBoard,706f7765-7242-46f6-9172-642e6b696361,rev?*
G04 #@! TF.SameCoordinates,Original*
G04 #@! TF.FileFunction,Legend,Top*
G04 #@! TF.FilePolarity,Positive*
%FSLAX46Y46*%
G04 Gerber Fmt 4.6, Leading zero omitted, Abs format (unit mm)*
G04 Created by KiCad (PCBNEW 9.0.0) date 2025-03-25 09:53:12*
%MOMM*%
%LPD*%
G01*
G04 APERTURE LIST*
%ADD10C,0.150000*%
%ADD11C,0.100000*%
%ADD12C,0.120000*%
%ADD13C,3.500000*%
%ADD14R,1.800000X1.275000*%
%ADD15O,1.800000X1.275000*%
%ADD16R,2.200000X2.200000*%
%ADD17O,2.200000X2.200000*%
%ADD18C,2.400000*%
%ADD19C,1.600000*%
%ADD20O,1.600000X1.600000*%
%ADD21R,2.000000X2.000000*%
%ADD22C,2.000000*%
%ADD23R,1.700000X1.700000*%
%ADD24O,1.700000X1.700000*%
%ADD25R,1.275000X1.800000*%
%ADD26O,1.275000X1.800000*%
%ADD27R,3.200000X3.200000*%
%ADD28O,3.200000X3.200000*%
G04 APERTURE END LIST*
D10*
X64660219Y-64390704D02*
X65469742Y-64390704D01*
X65469742Y-64390704D02*
X65564980Y-64343085D01*
X65564980Y-64343085D02*
X65612600Y-64295466D01*
X65612600Y-64295466D02*
X65660219Y-64200228D01*
X65660219Y-64200228D02*
X65660219Y-64009752D01*
X65660219Y-64009752D02*
X65612600Y-63914514D01*
X65612600Y-63914514D02*
X65564980Y-63866895D01*
X65564980Y-63866895D02*
X65469742Y-63819276D01*
X65469742Y-63819276D02*
X64660219Y-63819276D01*
X64755457Y-63390704D02*
X64707838Y-63343085D01*
X64707838Y-63343085D02*
X64660219Y-63247847D01*
X64660219Y-63247847D02*
X64660219Y-63009752D01*
X64660219Y-63009752D02*
X64707838Y-62914514D01*
X64707838Y-62914514D02*
X64755457Y-62866895D01*
X64755457Y-62866895D02*
X64850695Y-62819276D01*
X64850695Y-62819276D02*
X64945933Y-62819276D01*
X64945933Y-62819276D02*
X65088790Y-62866895D01*
X65088790Y-62866895D02*
X65660219Y-63438323D01*
X65660219Y-63438323D02*
X65660219Y-62819276D01*
X70325628Y-42104619D02*
X70325628Y-41104619D01*
X70325628Y-41104619D02*
X70563723Y-41104619D01*
X70563723Y-41104619D02*
X70706580Y-41152238D01*
X70706580Y-41152238D02*
X70801818Y-41247476D01*
X70801818Y-41247476D02*
X70849437Y-41342714D01*
X70849437Y-41342714D02*
X70897056Y-41533190D01*
X70897056Y-41533190D02*
X70897056Y-41676047D01*
X70897056Y-41676047D02*
X70849437Y-41866523D01*
X70849437Y-41866523D02*
X70801818Y-41961761D01*
X70801818Y-41961761D02*
X70706580Y-42057000D01*
X70706580Y-42057000D02*
X70563723Y-42104619D01*
X70563723Y-42104619D02*
X70325628Y-42104619D01*
X71849437Y-42104619D02*
X71278009Y-42104619D01*
X71563723Y-42104619D02*
X71563723Y-41104619D01*
X71563723Y-41104619D02*
X71468485Y-41247476D01*
X71468485Y-41247476D02*
X71373247Y-41342714D01*
X71373247Y-41342714D02*
X71278009Y-41390333D01*
X65798018Y-42339419D02*
X65798018Y-41339419D01*
X66369446Y-42339419D02*
X65940875Y-41767990D01*
X66369446Y-41339419D02*
X65798018Y-41910847D01*
X88053019Y-63672666D02*
X88053019Y-64148856D01*
X88053019Y-64148856D02*
X87053019Y-64148856D01*
X87148257Y-63386951D02*
X87100638Y-63339332D01*
X87100638Y-63339332D02*
X87053019Y-63244094D01*
X87053019Y-63244094D02*
X87053019Y-63005999D01*
X87053019Y-63005999D02*
X87100638Y-62910761D01*
X87100638Y-62910761D02*
X87148257Y-62863142D01*
X87148257Y-62863142D02*
X87243495Y-62815523D01*
X87243495Y-62815523D02*
X87338733Y-62815523D01*
X87338733Y-62815523D02*
X87481590Y-62863142D01*
X87481590Y-62863142D02*
X88053019Y-63434570D01*
X88053019Y-63434570D02*
X88053019Y-62815523D01*
X81010286Y-23465619D02*
X81581714Y-23465619D01*
X81296000Y-24465619D02*
X81296000Y-23465619D01*
X81915048Y-24465619D02*
X81915048Y-23465619D01*
X81915048Y-23941809D02*
X82486476Y-23941809D01*
X82486476Y-24465619D02*
X82486476Y-23465619D01*
X82867429Y-23465619D02*
X83486476Y-23465619D01*
X83486476Y-23465619D02*
X83153143Y-23846571D01*
X83153143Y-23846571D02*
X83296000Y-23846571D01*
X83296000Y-23846571D02*
X83391238Y-23894190D01*
X83391238Y-23894190D02*
X83438857Y-23941809D01*
X83438857Y-23941809D02*
X83486476Y-24037047D01*
X83486476Y-24037047D02*
X83486476Y-24275142D01*
X83486476Y-24275142D02*
X83438857Y-24370380D01*
X83438857Y-24370380D02*
X83391238Y-24418000D01*
X83391238Y-24418000D02*
X83296000Y-24465619D01*
X83296000Y-24465619D02*
X83010286Y-24465619D01*
X83010286Y-24465619D02*
X82915048Y-24418000D01*
X82915048Y-24418000D02*
X82867429Y-24370380D01*
X100480619Y-77422494D02*
X99480619Y-77422494D01*
X99480619Y-77422494D02*
X99480619Y-77184399D01*
X99480619Y-77184399D02*
X99528238Y-77041542D01*
X99528238Y-77041542D02*
X99623476Y-76946304D01*
X99623476Y-76946304D02*
X99718714Y-76898685D01*
X99718714Y-76898685D02*
X99909190Y-76851066D01*
X99909190Y-76851066D02*
X100052047Y-76851066D01*
X100052047Y-76851066D02*
X100242523Y-76898685D01*
X100242523Y-76898685D02*
X100337761Y-76946304D01*
X100337761Y-76946304D02*
X100433000Y-77041542D01*
X100433000Y-77041542D02*
X100480619Y-77184399D01*
X100480619Y-77184399D02*
X100480619Y-77422494D01*
X99575857Y-76470113D02*
X99528238Y-76422494D01*
X99528238Y-76422494D02*
X99480619Y-76327256D01*
X99480619Y-76327256D02*
X99480619Y-76089161D01*
X99480619Y-76089161D02*
X99528238Y-75993923D01*
X99528238Y-75993923D02*
X99575857Y-75946304D01*
X99575857Y-75946304D02*
X99671095Y-75898685D01*
X99671095Y-75898685D02*
X99766333Y-75898685D01*
X99766333Y-75898685D02*
X99909190Y-75946304D01*
X99909190Y-75946304D02*
X100480619Y-76517732D01*
X100480619Y-76517732D02*
X100480619Y-75898685D01*
X94937895Y-71102219D02*
X94937895Y-70102219D01*
X95509323Y-71102219D02*
X95080752Y-70530790D01*
X95509323Y-70102219D02*
X94937895Y-70673647D01*
X106498219Y-63668113D02*
X106498219Y-63096685D01*
X107498219Y-63382399D02*
X106498219Y-63382399D01*
X107498219Y-62763351D02*
X106498219Y-62763351D01*
X106974409Y-62763351D02*
X106974409Y-62191923D01*
X107498219Y-62191923D02*
X106498219Y-62191923D01*
X106593457Y-61763351D02*
X106545838Y-61715732D01*
X106545838Y-61715732D02*
X106498219Y-61620494D01*
X106498219Y-61620494D02*
X106498219Y-61382399D01*
X106498219Y-61382399D02*
X106545838Y-61287161D01*
X106545838Y-61287161D02*
X106593457Y-61239542D01*
X106593457Y-61239542D02*
X106688695Y-61191923D01*
X106688695Y-61191923D02*
X106783933Y-61191923D01*
X106783933Y-61191923D02*
X106926790Y-61239542D01*
X106926790Y-61239542D02*
X107498219Y-61810970D01*
X107498219Y-61810970D02*
X107498219Y-61191923D01*
X79758980Y-51973666D02*
X79806600Y-52021285D01*
X79806600Y-52021285D02*
X79854219Y-52164142D01*
X79854219Y-52164142D02*
X79854219Y-52259380D01*
X79854219Y-52259380D02*
X79806600Y-52402237D01*
X79806600Y-52402237D02*
X79711361Y-52497475D01*
X79711361Y-52497475D02*
X79616123Y-52545094D01*
X79616123Y-52545094D02*
X79425647Y-52592713D01*
X79425647Y-52592713D02*
X79282790Y-52592713D01*
X79282790Y-52592713D02*
X79092314Y-52545094D01*
X79092314Y-52545094D02*
X78997076Y-52497475D01*
X78997076Y-52497475D02*
X78901838Y-52402237D01*
X78901838Y-52402237D02*
X78854219Y-52259380D01*
X78854219Y-52259380D02*
X78854219Y-52164142D01*
X78854219Y-52164142D02*
X78901838Y-52021285D01*
X78901838Y-52021285D02*
X78949457Y-51973666D01*
X79187552Y-51116523D02*
X79854219Y-51116523D01*
X78806600Y-51354618D02*
X79520885Y-51592713D01*
X79520885Y-51592713D02*
X79520885Y-50973666D01*
X56537266Y-19959419D02*
X56537266Y-20673704D01*
X56537266Y-20673704D02*
X56489647Y-20816561D01*
X56489647Y-20816561D02*
X56394409Y-20911800D01*
X56394409Y-20911800D02*
X56251552Y-20959419D01*
X56251552Y-20959419D02*
X56156314Y-20959419D01*
X57537266Y-20959419D02*
X56965838Y-20959419D01*
X57251552Y-20959419D02*
X57251552Y-19959419D01*
X57251552Y-19959419D02*
X57156314Y-20102276D01*
X57156314Y-20102276D02*
X57061076Y-20197514D01*
X57061076Y-20197514D02*
X56965838Y-20245133D01*
X97990066Y-26353419D02*
X97990066Y-27067704D01*
X97990066Y-27067704D02*
X97942447Y-27210561D01*
X97942447Y-27210561D02*
X97847209Y-27305800D01*
X97847209Y-27305800D02*
X97704352Y-27353419D01*
X97704352Y-27353419D02*
X97609114Y-27353419D01*
X98418638Y-26448657D02*
X98466257Y-26401038D01*
X98466257Y-26401038D02*
X98561495Y-26353419D01*
X98561495Y-26353419D02*
X98799590Y-26353419D01*
X98799590Y-26353419D02*
X98894828Y-26401038D01*
X98894828Y-26401038D02*
X98942447Y-26448657D01*
X98942447Y-26448657D02*
X98990066Y-26543895D01*
X98990066Y-26543895D02*
X98990066Y-26639133D01*
X98990066Y-26639133D02*
X98942447Y-26781990D01*
X98942447Y-26781990D02*
X98371019Y-27353419D01*
X98371019Y-27353419D02*
X98990066Y-27353419D01*
X70027895Y-28588619D02*
X70027895Y-29398142D01*
X70027895Y-29398142D02*
X70075514Y-29493380D01*
X70075514Y-29493380D02*
X70123133Y-29541000D01*
X70123133Y-29541000D02*
X70218371Y-29588619D01*
X70218371Y-29588619D02*
X70408847Y-29588619D01*
X70408847Y-29588619D02*
X70504085Y-29541000D01*
X70504085Y-29541000D02*
X70551704Y-29493380D01*
X70551704Y-29493380D02*
X70599323Y-29398142D01*
X70599323Y-29398142D02*
X70599323Y-28588619D01*
X71599323Y-29588619D02*
X71027895Y-29588619D01*
X71313609Y-29588619D02*
X71313609Y-28588619D01*
X71313609Y-28588619D02*
X71218371Y-28731476D01*
X71218371Y-28731476D02*
X71123133Y-28826714D01*
X71123133Y-28826714D02*
X71027895Y-28874333D01*
X95513219Y-29871894D02*
X94513219Y-29871894D01*
X94513219Y-29871894D02*
X94513219Y-29633799D01*
X94513219Y-29633799D02*
X94560838Y-29490942D01*
X94560838Y-29490942D02*
X94656076Y-29395704D01*
X94656076Y-29395704D02*
X94751314Y-29348085D01*
X94751314Y-29348085D02*
X94941790Y-29300466D01*
X94941790Y-29300466D02*
X95084647Y-29300466D01*
X95084647Y-29300466D02*
X95275123Y-29348085D01*
X95275123Y-29348085D02*
X95370361Y-29395704D01*
X95370361Y-29395704D02*
X95465600Y-29490942D01*
X95465600Y-29490942D02*
X95513219Y-29633799D01*
X95513219Y-29633799D02*
X95513219Y-29871894D01*
X94513219Y-28395704D02*
X94513219Y-28871894D01*
X94513219Y-28871894D02*
X94989409Y-28919513D01*
X94989409Y-28919513D02*
X94941790Y-28871894D01*
X94941790Y-28871894D02*
X94894171Y-28776656D01*
X94894171Y-28776656D02*
X94894171Y-28538561D01*
X94894171Y-28538561D02*
X94941790Y-28443323D01*
X94941790Y-28443323D02*
X94989409Y-28395704D01*
X94989409Y-28395704D02*
X95084647Y-28348085D01*
X95084647Y-28348085D02*
X95322742Y-28348085D01*
X95322742Y-28348085D02*
X95417980Y-28395704D01*
X95417980Y-28395704D02*
X95465600Y-28443323D01*
X95465600Y-28443323D02*
X95513219Y-28538561D01*
X95513219Y-28538561D02*
X95513219Y-28776656D01*
X95513219Y-28776656D02*
X95465600Y-28871894D01*
X95465600Y-28871894D02*
X95417980Y-28919513D01*
X94393219Y-21775704D02*
X93393219Y-21775704D01*
X94393219Y-21204276D02*
X93821790Y-21632847D01*
X93393219Y-21204276D02*
X93964647Y-21775704D01*
X59767656Y-60685219D02*
X59291466Y-60685219D01*
X59291466Y-60685219D02*
X59291466Y-59685219D01*
X60624799Y-60685219D02*
X60053371Y-60685219D01*
X60339085Y-60685219D02*
X60339085Y-59685219D01*
X60339085Y-59685219D02*
X60243847Y-59828076D01*
X60243847Y-59828076D02*
X60148609Y-59923314D01*
X60148609Y-59923314D02*
X60053371Y-59970933D01*
X111087819Y-69764113D02*
X111087819Y-69192685D01*
X112087819Y-69478399D02*
X111087819Y-69478399D01*
X112087819Y-68859351D02*
X111087819Y-68859351D01*
X111564009Y-68859351D02*
X111564009Y-68287923D01*
X112087819Y-68287923D02*
X111087819Y-68287923D01*
X112087819Y-67287923D02*
X112087819Y-67859351D01*
X112087819Y-67573637D02*
X111087819Y-67573637D01*
X111087819Y-67573637D02*
X111230676Y-67668875D01*
X111230676Y-67668875D02*
X111325914Y-67764113D01*
X111325914Y-67764113D02*
X111373533Y-67859351D01*
X95718619Y-45772294D02*
X94718619Y-45772294D01*
X94718619Y-45772294D02*
X94718619Y-45534199D01*
X94718619Y-45534199D02*
X94766238Y-45391342D01*
X94766238Y-45391342D02*
X94861476Y-45296104D01*
X94861476Y-45296104D02*
X94956714Y-45248485D01*
X94956714Y-45248485D02*
X95147190Y-45200866D01*
X95147190Y-45200866D02*
X95290047Y-45200866D01*
X95290047Y-45200866D02*
X95480523Y-45248485D01*
X95480523Y-45248485D02*
X95575761Y-45296104D01*
X95575761Y-45296104D02*
X95671000Y-45391342D01*
X95671000Y-45391342D02*
X95718619Y-45534199D01*
X95718619Y-45534199D02*
X95718619Y-45772294D01*
X95051952Y-44343723D02*
X95718619Y-44343723D01*
X94671000Y-44581818D02*
X95385285Y-44819913D01*
X95385285Y-44819913D02*
X95385285Y-44200866D01*
X96838619Y-52916104D02*
X95838619Y-52916104D01*
X96838619Y-52344676D02*
X96267190Y-52773247D01*
X95838619Y-52344676D02*
X96410047Y-52916104D01*
X58897456Y-45319180D02*
X58849837Y-45366800D01*
X58849837Y-45366800D02*
X58706980Y-45414419D01*
X58706980Y-45414419D02*
X58611742Y-45414419D01*
X58611742Y-45414419D02*
X58468885Y-45366800D01*
X58468885Y-45366800D02*
X58373647Y-45271561D01*
X58373647Y-45271561D02*
X58326028Y-45176323D01*
X58326028Y-45176323D02*
X58278409Y-44985847D01*
X58278409Y-44985847D02*
X58278409Y-44842990D01*
X58278409Y-44842990D02*
X58326028Y-44652514D01*
X58326028Y-44652514D02*
X58373647Y-44557276D01*
X58373647Y-44557276D02*
X58468885Y-44462038D01*
X58468885Y-44462038D02*
X58611742Y-44414419D01*
X58611742Y-44414419D02*
X58706980Y-44414419D01*
X58706980Y-44414419D02*
X58849837Y-44462038D01*
X58849837Y-44462038D02*
X58897456Y-44509657D01*
X59849837Y-45414419D02*
X59278409Y-45414419D01*
X59564123Y-45414419D02*
X59564123Y-44414419D01*
X59564123Y-44414419D02*
X59468885Y-44557276D01*
X59468885Y-44557276D02*
X59373647Y-44652514D01*
X59373647Y-44652514D02*
X59278409Y-44700133D01*
D11*
X33949428Y-19523419D02*
X33949428Y-20332942D01*
X33949428Y-20332942D02*
X33997047Y-20428180D01*
X33997047Y-20428180D02*
X34044666Y-20475800D01*
X34044666Y-20475800D02*
X34139904Y-20523419D01*
X34139904Y-20523419D02*
X34330380Y-20523419D01*
X34330380Y-20523419D02*
X34425618Y-20475800D01*
X34425618Y-20475800D02*
X34473237Y-20428180D01*
X34473237Y-20428180D02*
X34520856Y-20332942D01*
X34520856Y-20332942D02*
X34520856Y-19523419D01*
X34901809Y-19523419D02*
X35520856Y-19523419D01*
X35520856Y-19523419D02*
X35187523Y-19904371D01*
X35187523Y-19904371D02*
X35330380Y-19904371D01*
X35330380Y-19904371D02*
X35425618Y-19951990D01*
X35425618Y-19951990D02*
X35473237Y-19999609D01*
X35473237Y-19999609D02*
X35520856Y-20094847D01*
X35520856Y-20094847D02*
X35520856Y-20332942D01*
X35520856Y-20332942D02*
X35473237Y-20428180D01*
X35473237Y-20428180D02*
X35425618Y-20475800D01*
X35425618Y-20475800D02*
X35330380Y-20523419D01*
X35330380Y-20523419D02*
X35044666Y-20523419D01*
X35044666Y-20523419D02*
X34949428Y-20475800D01*
X34949428Y-20475800D02*
X34901809Y-20428180D01*
X35711333Y-20618657D02*
X36473237Y-20618657D01*
X37044666Y-19999609D02*
X37187523Y-20047228D01*
X37187523Y-20047228D02*
X37235142Y-20094847D01*
X37235142Y-20094847D02*
X37282761Y-20190085D01*
X37282761Y-20190085D02*
X37282761Y-20332942D01*
X37282761Y-20332942D02*
X37235142Y-20428180D01*
X37235142Y-20428180D02*
X37187523Y-20475800D01*
X37187523Y-20475800D02*
X37092285Y-20523419D01*
X37092285Y-20523419D02*
X36711333Y-20523419D01*
X36711333Y-20523419D02*
X36711333Y-19523419D01*
X36711333Y-19523419D02*
X37044666Y-19523419D01*
X37044666Y-19523419D02*
X37139904Y-19571038D01*
X37139904Y-19571038D02*
X37187523Y-19618657D01*
X37187523Y-19618657D02*
X37235142Y-19713895D01*
X37235142Y-19713895D02*
X37235142Y-19809133D01*
X37235142Y-19809133D02*
X37187523Y-19904371D01*
X37187523Y-19904371D02*
X37139904Y-19951990D01*
X37139904Y-19951990D02*
X37044666Y-19999609D01*
X37044666Y-19999609D02*
X36711333Y-19999609D01*
X37711333Y-20523419D02*
X37711333Y-19856752D01*
X37711333Y-20047228D02*
X37758952Y-19951990D01*
X37758952Y-19951990D02*
X37806571Y-19904371D01*
X37806571Y-19904371D02*
X37901809Y-19856752D01*
X37901809Y-19856752D02*
X37997047Y-19856752D01*
X38711333Y-20475800D02*
X38616095Y-20523419D01*
X38616095Y-20523419D02*
X38425619Y-20523419D01*
X38425619Y-20523419D02*
X38330381Y-20475800D01*
X38330381Y-20475800D02*
X38282762Y-20380561D01*
X38282762Y-20380561D02*
X38282762Y-19999609D01*
X38282762Y-19999609D02*
X38330381Y-19904371D01*
X38330381Y-19904371D02*
X38425619Y-19856752D01*
X38425619Y-19856752D02*
X38616095Y-19856752D01*
X38616095Y-19856752D02*
X38711333Y-19904371D01*
X38711333Y-19904371D02*
X38758952Y-19999609D01*
X38758952Y-19999609D02*
X38758952Y-20094847D01*
X38758952Y-20094847D02*
X38282762Y-20190085D01*
X39616095Y-20523419D02*
X39616095Y-19999609D01*
X39616095Y-19999609D02*
X39568476Y-19904371D01*
X39568476Y-19904371D02*
X39473238Y-19856752D01*
X39473238Y-19856752D02*
X39282762Y-19856752D01*
X39282762Y-19856752D02*
X39187524Y-19904371D01*
X39616095Y-20475800D02*
X39520857Y-20523419D01*
X39520857Y-20523419D02*
X39282762Y-20523419D01*
X39282762Y-20523419D02*
X39187524Y-20475800D01*
X39187524Y-20475800D02*
X39139905Y-20380561D01*
X39139905Y-20380561D02*
X39139905Y-20285323D01*
X39139905Y-20285323D02*
X39187524Y-20190085D01*
X39187524Y-20190085D02*
X39282762Y-20142466D01*
X39282762Y-20142466D02*
X39520857Y-20142466D01*
X39520857Y-20142466D02*
X39616095Y-20094847D01*
X40520857Y-20523419D02*
X40520857Y-19523419D01*
X40520857Y-20475800D02*
X40425619Y-20523419D01*
X40425619Y-20523419D02*
X40235143Y-20523419D01*
X40235143Y-20523419D02*
X40139905Y-20475800D01*
X40139905Y-20475800D02*
X40092286Y-20428180D01*
X40092286Y-20428180D02*
X40044667Y-20332942D01*
X40044667Y-20332942D02*
X40044667Y-20047228D01*
X40044667Y-20047228D02*
X40092286Y-19951990D01*
X40092286Y-19951990D02*
X40139905Y-19904371D01*
X40139905Y-19904371D02*
X40235143Y-19856752D01*
X40235143Y-19856752D02*
X40425619Y-19856752D01*
X40425619Y-19856752D02*
X40520857Y-19904371D01*
X41330381Y-19999609D02*
X41473238Y-20047228D01*
X41473238Y-20047228D02*
X41520857Y-20094847D01*
X41520857Y-20094847D02*
X41568476Y-20190085D01*
X41568476Y-20190085D02*
X41568476Y-20332942D01*
X41568476Y-20332942D02*
X41520857Y-20428180D01*
X41520857Y-20428180D02*
X41473238Y-20475800D01*
X41473238Y-20475800D02*
X41378000Y-20523419D01*
X41378000Y-20523419D02*
X40997048Y-20523419D01*
X40997048Y-20523419D02*
X40997048Y-19523419D01*
X40997048Y-19523419D02*
X41330381Y-19523419D01*
X41330381Y-19523419D02*
X41425619Y-19571038D01*
X41425619Y-19571038D02*
X41473238Y-19618657D01*
X41473238Y-19618657D02*
X41520857Y-19713895D01*
X41520857Y-19713895D02*
X41520857Y-19809133D01*
X41520857Y-19809133D02*
X41473238Y-19904371D01*
X41473238Y-19904371D02*
X41425619Y-19951990D01*
X41425619Y-19951990D02*
X41330381Y-19999609D01*
X41330381Y-19999609D02*
X40997048Y-19999609D01*
X42139905Y-20523419D02*
X42044667Y-20475800D01*
X42044667Y-20475800D02*
X41997048Y-20428180D01*
X41997048Y-20428180D02*
X41949429Y-20332942D01*
X41949429Y-20332942D02*
X41949429Y-20047228D01*
X41949429Y-20047228D02*
X41997048Y-19951990D01*
X41997048Y-19951990D02*
X42044667Y-19904371D01*
X42044667Y-19904371D02*
X42139905Y-19856752D01*
X42139905Y-19856752D02*
X42282762Y-19856752D01*
X42282762Y-19856752D02*
X42378000Y-19904371D01*
X42378000Y-19904371D02*
X42425619Y-19951990D01*
X42425619Y-19951990D02*
X42473238Y-20047228D01*
X42473238Y-20047228D02*
X42473238Y-20332942D01*
X42473238Y-20332942D02*
X42425619Y-20428180D01*
X42425619Y-20428180D02*
X42378000Y-20475800D01*
X42378000Y-20475800D02*
X42282762Y-20523419D01*
X42282762Y-20523419D02*
X42139905Y-20523419D01*
X43330381Y-20523419D02*
X43330381Y-19999609D01*
X43330381Y-19999609D02*
X43282762Y-19904371D01*
X43282762Y-19904371D02*
X43187524Y-19856752D01*
X43187524Y-19856752D02*
X42997048Y-19856752D01*
X42997048Y-19856752D02*
X42901810Y-19904371D01*
X43330381Y-20475800D02*
X43235143Y-20523419D01*
X43235143Y-20523419D02*
X42997048Y-20523419D01*
X42997048Y-20523419D02*
X42901810Y-20475800D01*
X42901810Y-20475800D02*
X42854191Y-20380561D01*
X42854191Y-20380561D02*
X42854191Y-20285323D01*
X42854191Y-20285323D02*
X42901810Y-20190085D01*
X42901810Y-20190085D02*
X42997048Y-20142466D01*
X42997048Y-20142466D02*
X43235143Y-20142466D01*
X43235143Y-20142466D02*
X43330381Y-20094847D01*
X43806572Y-20523419D02*
X43806572Y-19856752D01*
X43806572Y-20047228D02*
X43854191Y-19951990D01*
X43854191Y-19951990D02*
X43901810Y-19904371D01*
X43901810Y-19904371D02*
X43997048Y-19856752D01*
X43997048Y-19856752D02*
X44092286Y-19856752D01*
X44854191Y-20523419D02*
X44854191Y-19523419D01*
X44854191Y-20475800D02*
X44758953Y-20523419D01*
X44758953Y-20523419D02*
X44568477Y-20523419D01*
X44568477Y-20523419D02*
X44473239Y-20475800D01*
X44473239Y-20475800D02*
X44425620Y-20428180D01*
X44425620Y-20428180D02*
X44378001Y-20332942D01*
X44378001Y-20332942D02*
X44378001Y-20047228D01*
X44378001Y-20047228D02*
X44425620Y-19951990D01*
X44425620Y-19951990D02*
X44473239Y-19904371D01*
X44473239Y-19904371D02*
X44568477Y-19856752D01*
X44568477Y-19856752D02*
X44758953Y-19856752D01*
X44758953Y-19856752D02*
X44854191Y-19904371D01*
X45854191Y-20523419D02*
X45282763Y-20523419D01*
X45568477Y-20523419D02*
X45568477Y-19523419D01*
X45568477Y-19523419D02*
X45473239Y-19666276D01*
X45473239Y-19666276D02*
X45378001Y-19761514D01*
X45378001Y-19761514D02*
X45282763Y-19809133D01*
D10*
X111478219Y-48591694D02*
X110478219Y-48591694D01*
X110478219Y-48591694D02*
X110478219Y-48353599D01*
X110478219Y-48353599D02*
X110525838Y-48210742D01*
X110525838Y-48210742D02*
X110621076Y-48115504D01*
X110621076Y-48115504D02*
X110716314Y-48067885D01*
X110716314Y-48067885D02*
X110906790Y-48020266D01*
X110906790Y-48020266D02*
X111049647Y-48020266D01*
X111049647Y-48020266D02*
X111240123Y-48067885D01*
X111240123Y-48067885D02*
X111335361Y-48115504D01*
X111335361Y-48115504D02*
X111430600Y-48210742D01*
X111430600Y-48210742D02*
X111478219Y-48353599D01*
X111478219Y-48353599D02*
X111478219Y-48591694D01*
X110478219Y-47686932D02*
X110478219Y-47067885D01*
X110478219Y-47067885D02*
X110859171Y-47401218D01*
X110859171Y-47401218D02*
X110859171Y-47258361D01*
X110859171Y-47258361D02*
X110906790Y-47163123D01*
X110906790Y-47163123D02*
X110954409Y-47115504D01*
X110954409Y-47115504D02*
X111049647Y-47067885D01*
X111049647Y-47067885D02*
X111287742Y-47067885D01*
X111287742Y-47067885D02*
X111382980Y-47115504D01*
X111382980Y-47115504D02*
X111430600Y-47163123D01*
X111430600Y-47163123D02*
X111478219Y-47258361D01*
X111478219Y-47258361D02*
X111478219Y-47544075D01*
X111478219Y-47544075D02*
X111430600Y-47639313D01*
X111430600Y-47639313D02*
X111382980Y-47686932D01*
X103239419Y-52916104D02*
X102239419Y-52916104D01*
X103239419Y-52344676D02*
X102667990Y-52773247D01*
X102239419Y-52344676D02*
X102810847Y-52916104D01*
X92462180Y-74931466D02*
X92509800Y-74979085D01*
X92509800Y-74979085D02*
X92557419Y-75121942D01*
X92557419Y-75121942D02*
X92557419Y-75217180D01*
X92557419Y-75217180D02*
X92509800Y-75360037D01*
X92509800Y-75360037D02*
X92414561Y-75455275D01*
X92414561Y-75455275D02*
X92319323Y-75502894D01*
X92319323Y-75502894D02*
X92128847Y-75550513D01*
X92128847Y-75550513D02*
X91985990Y-75550513D01*
X91985990Y-75550513D02*
X91795514Y-75502894D01*
X91795514Y-75502894D02*
X91700276Y-75455275D01*
X91700276Y-75455275D02*
X91605038Y-75360037D01*
X91605038Y-75360037D02*
X91557419Y-75217180D01*
X91557419Y-75217180D02*
X91557419Y-75121942D01*
X91557419Y-75121942D02*
X91605038Y-74979085D01*
X91605038Y-74979085D02*
X91652657Y-74931466D01*
X91557419Y-74598132D02*
X91557419Y-73979085D01*
X91557419Y-73979085D02*
X91938371Y-74312418D01*
X91938371Y-74312418D02*
X91938371Y-74169561D01*
X91938371Y-74169561D02*
X91985990Y-74074323D01*
X91985990Y-74074323D02*
X92033609Y-74026704D01*
X92033609Y-74026704D02*
X92128847Y-73979085D01*
X92128847Y-73979085D02*
X92366942Y-73979085D01*
X92366942Y-73979085D02*
X92462180Y-74026704D01*
X92462180Y-74026704D02*
X92509800Y-74074323D01*
X92509800Y-74074323D02*
X92557419Y-74169561D01*
X92557419Y-74169561D02*
X92557419Y-74455275D01*
X92557419Y-74455275D02*
X92509800Y-74550513D01*
X92509800Y-74550513D02*
X92462180Y-74598132D01*
X82575733Y-45471580D02*
X82528114Y-45519200D01*
X82528114Y-45519200D02*
X82385257Y-45566819D01*
X82385257Y-45566819D02*
X82290019Y-45566819D01*
X82290019Y-45566819D02*
X82147162Y-45519200D01*
X82147162Y-45519200D02*
X82051924Y-45423961D01*
X82051924Y-45423961D02*
X82004305Y-45328723D01*
X82004305Y-45328723D02*
X81956686Y-45138247D01*
X81956686Y-45138247D02*
X81956686Y-44995390D01*
X81956686Y-44995390D02*
X82004305Y-44804914D01*
X82004305Y-44804914D02*
X82051924Y-44709676D01*
X82051924Y-44709676D02*
X82147162Y-44614438D01*
X82147162Y-44614438D02*
X82290019Y-44566819D01*
X82290019Y-44566819D02*
X82385257Y-44566819D01*
X82385257Y-44566819D02*
X82528114Y-44614438D01*
X82528114Y-44614438D02*
X82575733Y-44662057D01*
X82956686Y-44662057D02*
X83004305Y-44614438D01*
X83004305Y-44614438D02*
X83099543Y-44566819D01*
X83099543Y-44566819D02*
X83337638Y-44566819D01*
X83337638Y-44566819D02*
X83432876Y-44614438D01*
X83432876Y-44614438D02*
X83480495Y-44662057D01*
X83480495Y-44662057D02*
X83528114Y-44757295D01*
X83528114Y-44757295D02*
X83528114Y-44852533D01*
X83528114Y-44852533D02*
X83480495Y-44995390D01*
X83480495Y-44995390D02*
X82909067Y-45566819D01*
X82909067Y-45566819D02*
X83528114Y-45566819D01*
D12*
G04 #@! TO.C,U2*
X66205400Y-58508800D02*
X82095400Y-58508800D01*
X66205400Y-68749800D02*
X66205400Y-58508800D01*
X66205400Y-68749800D02*
X82095400Y-68749800D01*
X82095400Y-60228800D02*
X84735400Y-60228800D01*
X82095400Y-61928800D02*
X84735400Y-61928800D01*
X82095400Y-63628800D02*
X84735400Y-63628800D01*
X82095400Y-65328800D02*
X84735400Y-65328800D01*
X82095400Y-67028800D02*
X84735400Y-67028800D01*
X82095400Y-68749800D02*
X82095400Y-58508800D01*
G04 #@! TO.C,D1*
X67323723Y-44119800D02*
X68343723Y-44119800D01*
X68343723Y-42649800D02*
X68343723Y-45589800D01*
X68343723Y-45589800D02*
X73783723Y-45589800D01*
X69123723Y-42649800D02*
X69123723Y-45589800D01*
X69243723Y-42649800D02*
X69243723Y-45589800D01*
X69363723Y-42649800D02*
X69363723Y-45589800D01*
X73783723Y-42649800D02*
X68343723Y-42649800D01*
X73783723Y-45589800D02*
X73783723Y-42649800D01*
X74803723Y-44119800D02*
X73783723Y-44119800D01*
G04 #@! TO.C,L2*
X101468200Y-63506000D02*
G75*
G02*
X88728200Y-63506000I-6370000J0D01*
G01*
X88728200Y-63506000D02*
G75*
G02*
X101468200Y-63506000I6370000J0D01*
G01*
G04 #@! TO.C,TH3*
X79026000Y-20270800D02*
X79026000Y-20600800D01*
X79026000Y-23010800D02*
X79026000Y-22680800D01*
X85566000Y-20270800D02*
X79026000Y-20270800D01*
X85566000Y-20600800D02*
X85566000Y-20270800D01*
X85566000Y-22680800D02*
X85566000Y-23010800D01*
X85566000Y-23010800D02*
X79026000Y-23010800D01*
G04 #@! TO.C,D2*
X96539800Y-72747400D02*
X97559800Y-72747400D01*
X97559800Y-71277400D02*
X97559800Y-74217400D01*
X97559800Y-74217400D02*
X102999800Y-74217400D01*
X98339800Y-71277400D02*
X98339800Y-74217400D01*
X98459800Y-71277400D02*
X98459800Y-74217400D01*
X98579800Y-71277400D02*
X98579800Y-74217400D01*
X102999800Y-71277400D02*
X97559800Y-71277400D01*
X102999800Y-74217400D02*
X102999800Y-71277400D01*
X104019800Y-72747400D02*
X102999800Y-72747400D01*
G04 #@! TO.C,TH2*
X103303400Y-59112400D02*
X103303400Y-65652400D01*
X103303400Y-65652400D02*
X103633400Y-65652400D01*
X103633400Y-59112400D02*
X103303400Y-59112400D01*
X105713400Y-59112400D02*
X106043400Y-59112400D01*
X106043400Y-59112400D02*
X106043400Y-65652400D01*
X106043400Y-65652400D02*
X105713400Y-65652400D01*
G04 #@! TO.C,C4*
X80569400Y-51727000D02*
X90729400Y-51727000D01*
X80569400Y-51767000D02*
X90729400Y-51767000D01*
X80569400Y-51807000D02*
X90729400Y-51807000D01*
X80570400Y-51687000D02*
X90728400Y-51687000D01*
X80571400Y-51647000D02*
X90727400Y-51647000D01*
X80572400Y-51607000D02*
X90726400Y-51607000D01*
X80574400Y-51567000D02*
X90724400Y-51567000D01*
X80576400Y-51527000D02*
X90722400Y-51527000D01*
X80579400Y-51487000D02*
X90719400Y-51487000D01*
X80581400Y-51447000D02*
X90717400Y-51447000D01*
X80584400Y-51407000D02*
X90714400Y-51407000D01*
X80587400Y-51367000D02*
X90711400Y-51367000D01*
X80591400Y-51327000D02*
X90707400Y-51327000D01*
X80595400Y-51287000D02*
X90703400Y-51287000D01*
X80599400Y-51247000D02*
X90699400Y-51247000D01*
X80604400Y-51207000D02*
X90694400Y-51207000D01*
X80609400Y-51167000D02*
X90689400Y-51167000D01*
X80614400Y-51127000D02*
X90684400Y-51127000D01*
X80619400Y-51086000D02*
X90679400Y-51086000D01*
X80625400Y-51046000D02*
X90673400Y-51046000D01*
X80631400Y-51006000D02*
X90667400Y-51006000D01*
X80638400Y-50966000D02*
X90660400Y-50966000D01*
X80645400Y-50926000D02*
X90653400Y-50926000D01*
X80652400Y-50886000D02*
X90646400Y-50886000D01*
X80659400Y-50846000D02*
X90639400Y-50846000D01*
X80667400Y-50806000D02*
X90631400Y-50806000D01*
X80675400Y-50766000D02*
X90623400Y-50766000D01*
X80684400Y-50726000D02*
X90614400Y-50726000D01*
X80693400Y-50686000D02*
X90605400Y-50686000D01*
X80702400Y-50646000D02*
X90596400Y-50646000D01*
X80711400Y-50606000D02*
X90587400Y-50606000D01*
X80721400Y-50566000D02*
X90577400Y-50566000D01*
X80731400Y-50526000D02*
X84408400Y-50526000D01*
X80742400Y-50486000D02*
X84408400Y-50486000D01*
X80752400Y-50446000D02*
X84408400Y-50446000D01*
X80764400Y-50406000D02*
X84408400Y-50406000D01*
X80775400Y-50366000D02*
X84408400Y-50366000D01*
X80787400Y-50326000D02*
X84408400Y-50326000D01*
X80799400Y-50286000D02*
X84408400Y-50286000D01*
X80812400Y-50246000D02*
X84408400Y-50246000D01*
X80825400Y-50206000D02*
X84408400Y-50206000D01*
X80838400Y-50166000D02*
X84408400Y-50166000D01*
X80852400Y-50126000D02*
X84408400Y-50126000D01*
X80866400Y-50086000D02*
X84408400Y-50086000D01*
X80881400Y-50046000D02*
X84408400Y-50046000D01*
X80895400Y-50006000D02*
X84408400Y-50006000D01*
X80911400Y-49966000D02*
X84408400Y-49966000D01*
X80926400Y-49926000D02*
X84408400Y-49926000D01*
X80942400Y-49886000D02*
X84408400Y-49886000D01*
X80959400Y-49846000D02*
X84408400Y-49846000D01*
X80975400Y-49806000D02*
X84408400Y-49806000D01*
X80992400Y-49766000D02*
X84408400Y-49766000D01*
X81010400Y-49726000D02*
X84408400Y-49726000D01*
X81028400Y-49686000D02*
X84408400Y-49686000D01*
X81046400Y-49646000D02*
X84408400Y-49646000D01*
X81065400Y-49606000D02*
X84408400Y-49606000D01*
X81085400Y-49566000D02*
X84408400Y-49566000D01*
X81104400Y-49526000D02*
X84408400Y-49526000D01*
X81124400Y-49486000D02*
X84408400Y-49486000D01*
X81145400Y-49446000D02*
X84408400Y-49446000D01*
X81166400Y-49406000D02*
X84408400Y-49406000D01*
X81187400Y-49366000D02*
X84408400Y-49366000D01*
X81209400Y-49326000D02*
X84408400Y-49326000D01*
X81232400Y-49286000D02*
X84408400Y-49286000D01*
X81254400Y-49246000D02*
X84408400Y-49246000D01*
X81278400Y-49206000D02*
X84408400Y-49206000D01*
X81302400Y-49166000D02*
X84408400Y-49166000D01*
X81326400Y-49126000D02*
X84408400Y-49126000D01*
X81351400Y-49086000D02*
X84408400Y-49086000D01*
X81376400Y-49046000D02*
X84408400Y-49046000D01*
X81402400Y-49006000D02*
X84408400Y-49006000D01*
X81428400Y-48966000D02*
X84408400Y-48966000D01*
X81455400Y-48926000D02*
X84408400Y-48926000D01*
X81483400Y-48886000D02*
X84408400Y-48886000D01*
X81511400Y-48846000D02*
X84408400Y-48846000D01*
X81539400Y-48806000D02*
X84408400Y-48806000D01*
X81569400Y-48766000D02*
X84408400Y-48766000D01*
X81599400Y-48726000D02*
X84408400Y-48726000D01*
X81629400Y-48686000D02*
X84408400Y-48686000D01*
X81660400Y-48646000D02*
X84408400Y-48646000D01*
X81692400Y-48606000D02*
X84408400Y-48606000D01*
X81724400Y-48566000D02*
X84408400Y-48566000D01*
X81757400Y-48526000D02*
X84408400Y-48526000D01*
X81791400Y-48486000D02*
X84408400Y-48486000D01*
X81825400Y-48446000D02*
X84408400Y-48446000D01*
X81860400Y-48406000D02*
X84408400Y-48406000D01*
X81896400Y-48366000D02*
X84408400Y-48366000D01*
X81933400Y-48326000D02*
X84408400Y-48326000D01*
X81970400Y-48286000D02*
X84408400Y-48286000D01*
X82009400Y-48246000D02*
X84408400Y-48246000D01*
X82048400Y-48206000D02*
X84408400Y-48206000D01*
X82088400Y-48166000D02*
X84408400Y-48166000D01*
X82129400Y-48126000D02*
X84408400Y-48126000D01*
X82171400Y-48086000D02*
X84408400Y-48086000D01*
X82213400Y-48046000D02*
X89085400Y-48046000D01*
X82257400Y-48006000D02*
X89041400Y-48006000D01*
X82274400Y-56786646D02*
X83274400Y-56786646D01*
X82302400Y-47966000D02*
X88996400Y-47966000D01*
X82348400Y-47926000D02*
X88950400Y-47926000D01*
X82395400Y-47886000D02*
X88903400Y-47886000D01*
X82443400Y-47846000D02*
X88855400Y-47846000D01*
X82493400Y-47806000D02*
X88805400Y-47806000D01*
X82543400Y-47766000D02*
X88755400Y-47766000D01*
X82595400Y-47726000D02*
X88703400Y-47726000D01*
X82649400Y-47686000D02*
X88649400Y-47686000D01*
X82704400Y-47646000D02*
X88594400Y-47646000D01*
X82760400Y-47606000D02*
X88538400Y-47606000D01*
X82774400Y-57286646D02*
X82774400Y-56286646D01*
X82819400Y-47566000D02*
X88479400Y-47566000D01*
X82879400Y-47526000D02*
X88419400Y-47526000D01*
X82940400Y-47486000D02*
X88358400Y-47486000D01*
X83004400Y-47446000D02*
X88294400Y-47446000D01*
X83070400Y-47406000D02*
X88228400Y-47406000D01*
X83139400Y-47366000D02*
X88159400Y-47366000D01*
X83210400Y-47326000D02*
X88088400Y-47326000D01*
X83284400Y-47286000D02*
X88014400Y-47286000D01*
X83360400Y-47246000D02*
X87938400Y-47246000D01*
X83440400Y-47206000D02*
X87858400Y-47206000D01*
X83524400Y-47166000D02*
X87774400Y-47166000D01*
X83612400Y-47126000D02*
X87686400Y-47126000D01*
X83705400Y-47086000D02*
X87593400Y-47086000D01*
X83803400Y-47046000D02*
X87495400Y-47046000D01*
X83907400Y-47006000D02*
X87391400Y-47006000D01*
X84019400Y-46966000D02*
X87279400Y-46966000D01*
X84139400Y-46926000D02*
X87159400Y-46926000D01*
X84271400Y-46886000D02*
X87027400Y-46886000D01*
X84419400Y-46846000D02*
X86879400Y-46846000D01*
X84587400Y-46806000D02*
X86711400Y-46806000D01*
X84787400Y-46766000D02*
X86511400Y-46766000D01*
X85050400Y-46726000D02*
X86248400Y-46726000D01*
X86890400Y-48086000D02*
X89127400Y-48086000D01*
X86890400Y-48126000D02*
X89169400Y-48126000D01*
X86890400Y-48166000D02*
X89210400Y-48166000D01*
X86890400Y-48206000D02*
X89250400Y-48206000D01*
X86890400Y-48246000D02*
X89289400Y-48246000D01*
X86890400Y-48286000D02*
X89328400Y-48286000D01*
X86890400Y-48326000D02*
X89365400Y-48326000D01*
X86890400Y-48366000D02*
X89402400Y-48366000D01*
X86890400Y-48406000D02*
X89438400Y-48406000D01*
X86890400Y-48446000D02*
X89473400Y-48446000D01*
X86890400Y-48486000D02*
X89507400Y-48486000D01*
X86890400Y-48526000D02*
X89541400Y-48526000D01*
X86890400Y-48566000D02*
X89574400Y-48566000D01*
X86890400Y-48606000D02*
X89606400Y-48606000D01*
X86890400Y-48646000D02*
X89638400Y-48646000D01*
X86890400Y-48686000D02*
X89669400Y-48686000D01*
X86890400Y-48726000D02*
X89699400Y-48726000D01*
X86890400Y-48766000D02*
X89729400Y-48766000D01*
X86890400Y-48806000D02*
X89759400Y-48806000D01*
X86890400Y-48846000D02*
X89787400Y-48846000D01*
X86890400Y-48886000D02*
X89815400Y-48886000D01*
X86890400Y-48926000D02*
X89843400Y-48926000D01*
X86890400Y-48966000D02*
X89870400Y-48966000D01*
X86890400Y-49006000D02*
X89896400Y-49006000D01*
X86890400Y-49046000D02*
X89922400Y-49046000D01*
X86890400Y-49086000D02*
X89947400Y-49086000D01*
X86890400Y-49126000D02*
X89972400Y-49126000D01*
X86890400Y-49166000D02*
X89996400Y-49166000D01*
X86890400Y-49206000D02*
X90020400Y-49206000D01*
X86890400Y-49246000D02*
X90044400Y-49246000D01*
X86890400Y-49286000D02*
X90066400Y-49286000D01*
X86890400Y-49326000D02*
X90089400Y-49326000D01*
X86890400Y-49366000D02*
X90111400Y-49366000D01*
X86890400Y-49406000D02*
X90132400Y-49406000D01*
X86890400Y-49446000D02*
X90153400Y-49446000D01*
X86890400Y-49486000D02*
X90174400Y-49486000D01*
X86890400Y-49526000D02*
X90194400Y-49526000D01*
X86890400Y-49566000D02*
X90213400Y-49566000D01*
X86890400Y-49606000D02*
X90233400Y-49606000D01*
X86890400Y-49646000D02*
X90252400Y-49646000D01*
X86890400Y-49686000D02*
X90270400Y-49686000D01*
X86890400Y-49726000D02*
X90288400Y-49726000D01*
X86890400Y-49766000D02*
X90306400Y-49766000D01*
X86890400Y-49806000D02*
X90323400Y-49806000D01*
X86890400Y-49846000D02*
X90339400Y-49846000D01*
X86890400Y-49886000D02*
X90356400Y-49886000D01*
X86890400Y-49926000D02*
X90372400Y-49926000D01*
X86890400Y-49966000D02*
X90387400Y-49966000D01*
X86890400Y-50006000D02*
X90403400Y-50006000D01*
X86890400Y-50046000D02*
X90417400Y-50046000D01*
X86890400Y-50086000D02*
X90432400Y-50086000D01*
X86890400Y-50126000D02*
X90446400Y-50126000D01*
X86890400Y-50166000D02*
X90460400Y-50166000D01*
X86890400Y-50206000D02*
X90473400Y-50206000D01*
X86890400Y-50246000D02*
X90486400Y-50246000D01*
X86890400Y-50286000D02*
X90499400Y-50286000D01*
X86890400Y-50326000D02*
X90511400Y-50326000D01*
X86890400Y-50366000D02*
X90523400Y-50366000D01*
X86890400Y-50406000D02*
X90534400Y-50406000D01*
X86890400Y-50446000D02*
X90546400Y-50446000D01*
X86890400Y-50486000D02*
X90556400Y-50486000D01*
X86890400Y-50526000D02*
X90567400Y-50526000D01*
X90769400Y-51807000D02*
G75*
G02*
X80529400Y-51807000I-5120000J0D01*
G01*
X80529400Y-51807000D02*
G75*
G02*
X90769400Y-51807000I5120000J0D01*
G01*
G04 #@! TO.C,J1*
X55540600Y-21504600D02*
X56870600Y-21504600D01*
X55540600Y-22834600D02*
X55540600Y-21504600D01*
X55540600Y-24104600D02*
X55540600Y-29244600D01*
X55540600Y-24104600D02*
X58200600Y-24104600D01*
X55540600Y-29244600D02*
X58200600Y-29244600D01*
X58200600Y-24104600D02*
X58200600Y-29244600D01*
G04 #@! TO.C,J2*
X100244600Y-18710600D02*
X101574600Y-18710600D01*
X100244600Y-20040600D02*
X100244600Y-18710600D01*
X100244600Y-21310600D02*
X100244600Y-31530600D01*
X100244600Y-21310600D02*
X102844600Y-21310600D01*
X100244600Y-31530600D02*
X105444600Y-31530600D01*
X102844600Y-18710600D02*
X105444600Y-18710600D01*
X102844600Y-21310600D02*
X102844600Y-18710600D01*
X105444600Y-18710600D02*
X105444600Y-31530600D01*
G04 #@! TO.C,U1*
X65462723Y-19078600D02*
X65462723Y-34968600D01*
X65462723Y-19078600D02*
X75703723Y-19078600D01*
X65462723Y-34968600D02*
X75703723Y-34968600D01*
X67183723Y-34968600D02*
X67183723Y-37608600D01*
X68883723Y-34968600D02*
X68883723Y-37608600D01*
X70583723Y-34968600D02*
X70583723Y-37608600D01*
X72283723Y-34968600D02*
X72283723Y-37608600D01*
X73983723Y-34968600D02*
X73983723Y-37608600D01*
X75703723Y-19078600D02*
X75703723Y-34968600D01*
G04 #@! TO.C,D5*
X88618400Y-24263800D02*
X88618400Y-34003800D01*
X88618400Y-34003800D02*
X94058400Y-34003800D01*
X91338400Y-23353800D02*
X91338400Y-24263800D01*
X91338400Y-34913800D02*
X91338400Y-34003800D01*
X94058400Y-24263800D02*
X88618400Y-24263800D01*
X94058400Y-25688800D02*
X88618400Y-25688800D01*
X94058400Y-25808800D02*
X88618400Y-25808800D01*
X94058400Y-25928800D02*
X88618400Y-25928800D01*
X94058400Y-34003800D02*
X94058400Y-24263800D01*
G04 #@! TO.C,L1*
X66304323Y-52730400D02*
G75*
G02*
X53564323Y-52730400I-6370000J0D01*
G01*
X53564323Y-52730400D02*
G75*
G02*
X66304323Y-52730400I6370000J0D01*
G01*
G04 #@! TO.C,TH1*
X107723000Y-58858400D02*
X107723000Y-65398400D01*
X107723000Y-65398400D02*
X108053000Y-65398400D01*
X108053000Y-58858400D02*
X107723000Y-58858400D01*
X110133000Y-58858400D02*
X110463000Y-58858400D01*
X110463000Y-58858400D02*
X110463000Y-65398400D01*
X110463000Y-65398400D02*
X110133000Y-65398400D01*
G04 #@! TO.C,D4*
X96263800Y-40164200D02*
X96263800Y-49904200D01*
X96263800Y-48239200D02*
X101703800Y-48239200D01*
X96263800Y-48359200D02*
X101703800Y-48359200D01*
X96263800Y-48479200D02*
X101703800Y-48479200D01*
X96263800Y-49904200D02*
X101703800Y-49904200D01*
X98983800Y-39254200D02*
X98983800Y-40164200D01*
X98983800Y-50814200D02*
X98983800Y-49904200D01*
X101703800Y-40164200D02*
X96263800Y-40164200D01*
X101703800Y-49904200D02*
X101703800Y-40164200D01*
G04 #@! TO.C,C1*
X53983123Y-39308600D02*
X53983123Y-38110600D01*
X54023123Y-39571600D02*
X54023123Y-37847600D01*
X54063123Y-39771600D02*
X54063123Y-37647600D01*
X54103123Y-39939600D02*
X54103123Y-37479600D01*
X54143123Y-40087600D02*
X54143123Y-37331600D01*
X54183123Y-40219600D02*
X54183123Y-37199600D01*
X54223123Y-40339600D02*
X54223123Y-37079600D01*
X54263123Y-40451600D02*
X54263123Y-36967600D01*
X54303123Y-40555600D02*
X54303123Y-36863600D01*
X54343123Y-40653600D02*
X54343123Y-36765600D01*
X54383123Y-40746600D02*
X54383123Y-36672600D01*
X54423123Y-40834600D02*
X54423123Y-36584600D01*
X54463123Y-40918600D02*
X54463123Y-36500600D01*
X54503123Y-40998600D02*
X54503123Y-36420600D01*
X54543123Y-41074600D02*
X54543123Y-36344600D01*
X54583123Y-41148600D02*
X54583123Y-36270600D01*
X54623123Y-41219600D02*
X54623123Y-36199600D01*
X54663123Y-41288600D02*
X54663123Y-36130600D01*
X54703123Y-41354600D02*
X54703123Y-36064600D01*
X54743123Y-41418600D02*
X54743123Y-36000600D01*
X54783123Y-41479600D02*
X54783123Y-35939600D01*
X54823123Y-41539600D02*
X54823123Y-35879600D01*
X54863123Y-41598600D02*
X54863123Y-35820600D01*
X54903123Y-41654600D02*
X54903123Y-35764600D01*
X54943123Y-41709600D02*
X54943123Y-35709600D01*
X54983123Y-41763600D02*
X54983123Y-35655600D01*
X55023123Y-41815600D02*
X55023123Y-35603600D01*
X55063123Y-41865600D02*
X55063123Y-35553600D01*
X55103123Y-41915600D02*
X55103123Y-35503600D01*
X55143123Y-41963600D02*
X55143123Y-35455600D01*
X55183123Y-42010600D02*
X55183123Y-35408600D01*
X55223123Y-42056600D02*
X55223123Y-35362600D01*
X55263123Y-42101600D02*
X55263123Y-35317600D01*
X55303123Y-42145600D02*
X55303123Y-35273600D01*
X55343123Y-37468600D02*
X55343123Y-35231600D01*
X55343123Y-42187600D02*
X55343123Y-39950600D01*
X55383123Y-37468600D02*
X55383123Y-35189600D01*
X55383123Y-42229600D02*
X55383123Y-39950600D01*
X55423123Y-37468600D02*
X55423123Y-35148600D01*
X55423123Y-42270600D02*
X55423123Y-39950600D01*
X55463123Y-37468600D02*
X55463123Y-35108600D01*
X55463123Y-42310600D02*
X55463123Y-39950600D01*
X55503123Y-37468600D02*
X55503123Y-35069600D01*
X55503123Y-42349600D02*
X55503123Y-39950600D01*
X55543123Y-37468600D02*
X55543123Y-35030600D01*
X55543123Y-42388600D02*
X55543123Y-39950600D01*
X55583123Y-37468600D02*
X55583123Y-34993600D01*
X55583123Y-42425600D02*
X55583123Y-39950600D01*
X55623123Y-37468600D02*
X55623123Y-34956600D01*
X55623123Y-42462600D02*
X55623123Y-39950600D01*
X55663123Y-37468600D02*
X55663123Y-34920600D01*
X55663123Y-42498600D02*
X55663123Y-39950600D01*
X55703123Y-37468600D02*
X55703123Y-34885600D01*
X55703123Y-42533600D02*
X55703123Y-39950600D01*
X55743123Y-37468600D02*
X55743123Y-34851600D01*
X55743123Y-42567600D02*
X55743123Y-39950600D01*
X55783123Y-37468600D02*
X55783123Y-34817600D01*
X55783123Y-42601600D02*
X55783123Y-39950600D01*
X55823123Y-37468600D02*
X55823123Y-34784600D01*
X55823123Y-42634600D02*
X55823123Y-39950600D01*
X55863123Y-37468600D02*
X55863123Y-34752600D01*
X55863123Y-42666600D02*
X55863123Y-39950600D01*
X55903123Y-37468600D02*
X55903123Y-34720600D01*
X55903123Y-42698600D02*
X55903123Y-39950600D01*
X55943123Y-37468600D02*
X55943123Y-34689600D01*
X55943123Y-42729600D02*
X55943123Y-39950600D01*
X55983123Y-37468600D02*
X55983123Y-34659600D01*
X55983123Y-42759600D02*
X55983123Y-39950600D01*
X56023123Y-37468600D02*
X56023123Y-34629600D01*
X56023123Y-42789600D02*
X56023123Y-39950600D01*
X56063123Y-37468600D02*
X56063123Y-34599600D01*
X56063123Y-42819600D02*
X56063123Y-39950600D01*
X56103123Y-37468600D02*
X56103123Y-34571600D01*
X56103123Y-42847600D02*
X56103123Y-39950600D01*
X56143123Y-37468600D02*
X56143123Y-34543600D01*
X56143123Y-42875600D02*
X56143123Y-39950600D01*
X56183123Y-37468600D02*
X56183123Y-34515600D01*
X56183123Y-42903600D02*
X56183123Y-39950600D01*
X56223123Y-37468600D02*
X56223123Y-34488600D01*
X56223123Y-42930600D02*
X56223123Y-39950600D01*
X56263123Y-37468600D02*
X56263123Y-34462600D01*
X56263123Y-42956600D02*
X56263123Y-39950600D01*
X56303123Y-37468600D02*
X56303123Y-34436600D01*
X56303123Y-42982600D02*
X56303123Y-39950600D01*
X56343123Y-37468600D02*
X56343123Y-34411600D01*
X56343123Y-43007600D02*
X56343123Y-39950600D01*
X56383123Y-37468600D02*
X56383123Y-34386600D01*
X56383123Y-43032600D02*
X56383123Y-39950600D01*
X56423123Y-37468600D02*
X56423123Y-34362600D01*
X56423123Y-43056600D02*
X56423123Y-39950600D01*
X56463123Y-37468600D02*
X56463123Y-34338600D01*
X56463123Y-43080600D02*
X56463123Y-39950600D01*
X56503123Y-37468600D02*
X56503123Y-34314600D01*
X56503123Y-43104600D02*
X56503123Y-39950600D01*
X56543123Y-37468600D02*
X56543123Y-34292600D01*
X56543123Y-43126600D02*
X56543123Y-39950600D01*
X56583123Y-37468600D02*
X56583123Y-34269600D01*
X56583123Y-43149600D02*
X56583123Y-39950600D01*
X56623123Y-37468600D02*
X56623123Y-34247600D01*
X56623123Y-43171600D02*
X56623123Y-39950600D01*
X56663123Y-37468600D02*
X56663123Y-34226600D01*
X56663123Y-43192600D02*
X56663123Y-39950600D01*
X56703123Y-37468600D02*
X56703123Y-34205600D01*
X56703123Y-43213600D02*
X56703123Y-39950600D01*
X56743123Y-37468600D02*
X56743123Y-34184600D01*
X56743123Y-43234600D02*
X56743123Y-39950600D01*
X56783123Y-37468600D02*
X56783123Y-34164600D01*
X56783123Y-43254600D02*
X56783123Y-39950600D01*
X56823123Y-37468600D02*
X56823123Y-34145600D01*
X56823123Y-43273600D02*
X56823123Y-39950600D01*
X56863123Y-37468600D02*
X56863123Y-34125600D01*
X56863123Y-43293600D02*
X56863123Y-39950600D01*
X56903123Y-37468600D02*
X56903123Y-34106600D01*
X56903123Y-43312600D02*
X56903123Y-39950600D01*
X56943123Y-37468600D02*
X56943123Y-34088600D01*
X56943123Y-43330600D02*
X56943123Y-39950600D01*
X56983123Y-37468600D02*
X56983123Y-34070600D01*
X56983123Y-43348600D02*
X56983123Y-39950600D01*
X57023123Y-37468600D02*
X57023123Y-34052600D01*
X57023123Y-43366600D02*
X57023123Y-39950600D01*
X57063123Y-37468600D02*
X57063123Y-34035600D01*
X57063123Y-43383600D02*
X57063123Y-39950600D01*
X57103123Y-37468600D02*
X57103123Y-34019600D01*
X57103123Y-43399600D02*
X57103123Y-39950600D01*
X57143123Y-37468600D02*
X57143123Y-34002600D01*
X57143123Y-43416600D02*
X57143123Y-39950600D01*
X57183123Y-37468600D02*
X57183123Y-33986600D01*
X57183123Y-43432600D02*
X57183123Y-39950600D01*
X57223123Y-37468600D02*
X57223123Y-33971600D01*
X57223123Y-43447600D02*
X57223123Y-39950600D01*
X57263123Y-37468600D02*
X57263123Y-33955600D01*
X57263123Y-43463600D02*
X57263123Y-39950600D01*
X57303123Y-37468600D02*
X57303123Y-33941600D01*
X57303123Y-43477600D02*
X57303123Y-39950600D01*
X57343123Y-37468600D02*
X57343123Y-33926600D01*
X57343123Y-43492600D02*
X57343123Y-39950600D01*
X57383123Y-37468600D02*
X57383123Y-33912600D01*
X57383123Y-43506600D02*
X57383123Y-39950600D01*
X57423123Y-37468600D02*
X57423123Y-33898600D01*
X57423123Y-43520600D02*
X57423123Y-39950600D01*
X57463123Y-37468600D02*
X57463123Y-33885600D01*
X57463123Y-43533600D02*
X57463123Y-39950600D01*
X57503123Y-37468600D02*
X57503123Y-33872600D01*
X57503123Y-43546600D02*
X57503123Y-39950600D01*
X57543123Y-37468600D02*
X57543123Y-33859600D01*
X57543123Y-43559600D02*
X57543123Y-39950600D01*
X57583123Y-37468600D02*
X57583123Y-33847600D01*
X57583123Y-43571600D02*
X57583123Y-39950600D01*
X57623123Y-37468600D02*
X57623123Y-33835600D01*
X57623123Y-43583600D02*
X57623123Y-39950600D01*
X57663123Y-37468600D02*
X57663123Y-33824600D01*
X57663123Y-43594600D02*
X57663123Y-39950600D01*
X57703123Y-37468600D02*
X57703123Y-33812600D01*
X57703123Y-43606600D02*
X57703123Y-39950600D01*
X57743123Y-37468600D02*
X57743123Y-33802600D01*
X57743123Y-43616600D02*
X57743123Y-39950600D01*
X57783123Y-37468600D02*
X57783123Y-33791600D01*
X57783123Y-43627600D02*
X57783123Y-39950600D01*
X57823123Y-43637600D02*
X57823123Y-33781600D01*
X57863123Y-43647600D02*
X57863123Y-33771600D01*
X57903123Y-43656600D02*
X57903123Y-33762600D01*
X57943123Y-43665600D02*
X57943123Y-33753600D01*
X57983123Y-43674600D02*
X57983123Y-33744600D01*
X58023123Y-43683600D02*
X58023123Y-33735600D01*
X58063123Y-43691600D02*
X58063123Y-33727600D01*
X58103123Y-43699600D02*
X58103123Y-33719600D01*
X58143123Y-43706600D02*
X58143123Y-33712600D01*
X58183123Y-43713600D02*
X58183123Y-33705600D01*
X58223123Y-43720600D02*
X58223123Y-33698600D01*
X58263123Y-43727600D02*
X58263123Y-33691600D01*
X58303123Y-43733600D02*
X58303123Y-33685600D01*
X58343123Y-43739600D02*
X58343123Y-33679600D01*
X58384123Y-43744600D02*
X58384123Y-33674600D01*
X58424123Y-43749600D02*
X58424123Y-33669600D01*
X58464123Y-43754600D02*
X58464123Y-33664600D01*
X58504123Y-43759600D02*
X58504123Y-33659600D01*
X58544123Y-43763600D02*
X58544123Y-33655600D01*
X58584123Y-43767600D02*
X58584123Y-33651600D01*
X58624123Y-43771600D02*
X58624123Y-33647600D01*
X58664123Y-43774600D02*
X58664123Y-33644600D01*
X58704123Y-43777600D02*
X58704123Y-33641600D01*
X58744123Y-43779600D02*
X58744123Y-33639600D01*
X58784123Y-43782600D02*
X58784123Y-33636600D01*
X58824123Y-43784600D02*
X58824123Y-33634600D01*
X58864123Y-43786600D02*
X58864123Y-33632600D01*
X58904123Y-43787600D02*
X58904123Y-33631600D01*
X58944123Y-43788600D02*
X58944123Y-33630600D01*
X58984123Y-43789600D02*
X58984123Y-33629600D01*
X59024123Y-43789600D02*
X59024123Y-33629600D01*
X59064123Y-43789600D02*
X59064123Y-33629600D01*
X64043769Y-42084600D02*
X64043769Y-41084600D01*
X64543769Y-41584600D02*
X63543769Y-41584600D01*
X64184123Y-38709600D02*
G75*
G02*
X53944123Y-38709600I-5120000J0D01*
G01*
X53944123Y-38709600D02*
G75*
G02*
X64184123Y-38709600I5120000J0D01*
G01*
G04 #@! TO.C,D3*
X102664600Y-40164200D02*
X102664600Y-49904200D01*
X102664600Y-48239200D02*
X108104600Y-48239200D01*
X102664600Y-48359200D02*
X108104600Y-48359200D01*
X102664600Y-48479200D02*
X108104600Y-48479200D01*
X102664600Y-49904200D02*
X108104600Y-49904200D01*
X105384600Y-39254200D02*
X105384600Y-40164200D01*
X105384600Y-50814200D02*
X105384600Y-49904200D01*
X108104600Y-40164200D02*
X102664600Y-40164200D01*
X108104600Y-49904200D02*
X108104600Y-40164200D01*
G04 #@! TO.C,C3*
X84611600Y-76045800D02*
X80934600Y-76045800D01*
X84611600Y-76085800D02*
X80945600Y-76085800D01*
X84611600Y-76125800D02*
X80955600Y-76125800D01*
X84611600Y-76165800D02*
X80967600Y-76165800D01*
X84611600Y-76205800D02*
X80978600Y-76205800D01*
X84611600Y-76245800D02*
X80990600Y-76245800D01*
X84611600Y-76285800D02*
X81002600Y-76285800D01*
X84611600Y-76325800D02*
X81015600Y-76325800D01*
X84611600Y-76365800D02*
X81028600Y-76365800D01*
X84611600Y-76405800D02*
X81041600Y-76405800D01*
X84611600Y-76445800D02*
X81055600Y-76445800D01*
X84611600Y-76485800D02*
X81069600Y-76485800D01*
X84611600Y-76525800D02*
X81084600Y-76525800D01*
X84611600Y-76565800D02*
X81098600Y-76565800D01*
X84611600Y-76605800D02*
X81114600Y-76605800D01*
X84611600Y-76645800D02*
X81129600Y-76645800D01*
X84611600Y-76685800D02*
X81145600Y-76685800D01*
X84611600Y-76725800D02*
X81162600Y-76725800D01*
X84611600Y-76765800D02*
X81178600Y-76765800D01*
X84611600Y-76805800D02*
X81195600Y-76805800D01*
X84611600Y-76845800D02*
X81213600Y-76845800D01*
X84611600Y-76885800D02*
X81231600Y-76885800D01*
X84611600Y-76925800D02*
X81249600Y-76925800D01*
X84611600Y-76965800D02*
X81268600Y-76965800D01*
X84611600Y-77005800D02*
X81288600Y-77005800D01*
X84611600Y-77045800D02*
X81307600Y-77045800D01*
X84611600Y-77085800D02*
X81327600Y-77085800D01*
X84611600Y-77125800D02*
X81348600Y-77125800D01*
X84611600Y-77165800D02*
X81369600Y-77165800D01*
X84611600Y-77205800D02*
X81390600Y-77205800D01*
X84611600Y-77245800D02*
X81412600Y-77245800D01*
X84611600Y-77285800D02*
X81435600Y-77285800D01*
X84611600Y-77325800D02*
X81457600Y-77325800D01*
X84611600Y-77365800D02*
X81481600Y-77365800D01*
X84611600Y-77405800D02*
X81505600Y-77405800D01*
X84611600Y-77445800D02*
X81529600Y-77445800D01*
X84611600Y-77485800D02*
X81554600Y-77485800D01*
X84611600Y-77525800D02*
X81579600Y-77525800D01*
X84611600Y-77565800D02*
X81605600Y-77565800D01*
X84611600Y-77605800D02*
X81631600Y-77605800D01*
X84611600Y-77645800D02*
X81658600Y-77645800D01*
X84611600Y-77685800D02*
X81686600Y-77685800D01*
X84611600Y-77725800D02*
X81714600Y-77725800D01*
X84611600Y-77765800D02*
X81742600Y-77765800D01*
X84611600Y-77805800D02*
X81772600Y-77805800D01*
X84611600Y-77845800D02*
X81802600Y-77845800D01*
X84611600Y-77885800D02*
X81832600Y-77885800D01*
X84611600Y-77925800D02*
X81863600Y-77925800D01*
X84611600Y-77965800D02*
X81895600Y-77965800D01*
X84611600Y-78005800D02*
X81927600Y-78005800D01*
X84611600Y-78045800D02*
X81960600Y-78045800D01*
X84611600Y-78085800D02*
X81994600Y-78085800D01*
X84611600Y-78125800D02*
X82028600Y-78125800D01*
X84611600Y-78165800D02*
X82063600Y-78165800D01*
X84611600Y-78205800D02*
X82099600Y-78205800D01*
X84611600Y-78245800D02*
X82136600Y-78245800D01*
X84611600Y-78285800D02*
X82173600Y-78285800D01*
X84611600Y-78325800D02*
X82212600Y-78325800D01*
X84611600Y-78365800D02*
X82251600Y-78365800D01*
X84611600Y-78405800D02*
X82291600Y-78405800D01*
X84611600Y-78445800D02*
X82332600Y-78445800D01*
X84611600Y-78485800D02*
X82374600Y-78485800D01*
X86451600Y-79845800D02*
X85253600Y-79845800D01*
X86714600Y-79805800D02*
X84990600Y-79805800D01*
X86914600Y-79765800D02*
X84790600Y-79765800D01*
X87082600Y-79725800D02*
X84622600Y-79725800D01*
X87230600Y-79685800D02*
X84474600Y-79685800D01*
X87362600Y-79645800D02*
X84342600Y-79645800D01*
X87482600Y-79605800D02*
X84222600Y-79605800D01*
X87594600Y-79565800D02*
X84110600Y-79565800D01*
X87698600Y-79525800D02*
X84006600Y-79525800D01*
X87796600Y-79485800D02*
X83908600Y-79485800D01*
X87889600Y-79445800D02*
X83815600Y-79445800D01*
X87977600Y-79405800D02*
X83727600Y-79405800D01*
X88061600Y-79365800D02*
X83643600Y-79365800D01*
X88141600Y-79325800D02*
X83563600Y-79325800D01*
X88217600Y-79285800D02*
X83487600Y-79285800D01*
X88291600Y-79245800D02*
X83413600Y-79245800D01*
X88362600Y-79205800D02*
X83342600Y-79205800D01*
X88431600Y-79165800D02*
X83273600Y-79165800D01*
X88497600Y-79125800D02*
X83207600Y-79125800D01*
X88561600Y-79085800D02*
X83143600Y-79085800D01*
X88622600Y-79045800D02*
X83082600Y-79045800D01*
X88682600Y-79005800D02*
X83022600Y-79005800D01*
X88727600Y-69285154D02*
X88727600Y-70285154D01*
X88741600Y-78965800D02*
X82963600Y-78965800D01*
X88797600Y-78925800D02*
X82907600Y-78925800D01*
X88852600Y-78885800D02*
X82852600Y-78885800D01*
X88906600Y-78845800D02*
X82798600Y-78845800D01*
X88958600Y-78805800D02*
X82746600Y-78805800D01*
X89008600Y-78765800D02*
X82696600Y-78765800D01*
X89058600Y-78725800D02*
X82646600Y-78725800D01*
X89106600Y-78685800D02*
X82598600Y-78685800D01*
X89153600Y-78645800D02*
X82551600Y-78645800D01*
X89199600Y-78605800D02*
X82505600Y-78605800D01*
X89227600Y-69785154D02*
X88227600Y-69785154D01*
X89244600Y-78565800D02*
X82460600Y-78565800D01*
X89288600Y-78525800D02*
X82416600Y-78525800D01*
X89330600Y-78485800D02*
X87093600Y-78485800D01*
X89372600Y-78445800D02*
X87093600Y-78445800D01*
X89413600Y-78405800D02*
X87093600Y-78405800D01*
X89453600Y-78365800D02*
X87093600Y-78365800D01*
X89492600Y-78325800D02*
X87093600Y-78325800D01*
X89531600Y-78285800D02*
X87093600Y-78285800D01*
X89568600Y-78245800D02*
X87093600Y-78245800D01*
X89605600Y-78205800D02*
X87093600Y-78205800D01*
X89641600Y-78165800D02*
X87093600Y-78165800D01*
X89676600Y-78125800D02*
X87093600Y-78125800D01*
X89710600Y-78085800D02*
X87093600Y-78085800D01*
X89744600Y-78045800D02*
X87093600Y-78045800D01*
X89777600Y-78005800D02*
X87093600Y-78005800D01*
X89809600Y-77965800D02*
X87093600Y-77965800D01*
X89841600Y-77925800D02*
X87093600Y-77925800D01*
X89872600Y-77885800D02*
X87093600Y-77885800D01*
X89902600Y-77845800D02*
X87093600Y-77845800D01*
X89932600Y-77805800D02*
X87093600Y-77805800D01*
X89962600Y-77765800D02*
X87093600Y-77765800D01*
X89990600Y-77725800D02*
X87093600Y-77725800D01*
X90018600Y-77685800D02*
X87093600Y-77685800D01*
X90046600Y-77645800D02*
X87093600Y-77645800D01*
X90073600Y-77605800D02*
X87093600Y-77605800D01*
X90099600Y-77565800D02*
X87093600Y-77565800D01*
X90125600Y-77525800D02*
X87093600Y-77525800D01*
X90150600Y-77485800D02*
X87093600Y-77485800D01*
X90175600Y-77445800D02*
X87093600Y-77445800D01*
X90199600Y-77405800D02*
X87093600Y-77405800D01*
X90223600Y-77365800D02*
X87093600Y-77365800D01*
X90247600Y-77325800D02*
X87093600Y-77325800D01*
X90269600Y-77285800D02*
X87093600Y-77285800D01*
X90292600Y-77245800D02*
X87093600Y-77245800D01*
X90314600Y-77205800D02*
X87093600Y-77205800D01*
X90335600Y-77165800D02*
X87093600Y-77165800D01*
X90356600Y-77125800D02*
X87093600Y-77125800D01*
X90377600Y-77085800D02*
X87093600Y-77085800D01*
X90397600Y-77045800D02*
X87093600Y-77045800D01*
X90416600Y-77005800D02*
X87093600Y-77005800D01*
X90436600Y-76965800D02*
X87093600Y-76965800D01*
X90455600Y-76925800D02*
X87093600Y-76925800D01*
X90473600Y-76885800D02*
X87093600Y-76885800D01*
X90491600Y-76845800D02*
X87093600Y-76845800D01*
X90509600Y-76805800D02*
X87093600Y-76805800D01*
X90526600Y-76765800D02*
X87093600Y-76765800D01*
X90542600Y-76725800D02*
X87093600Y-76725800D01*
X90559600Y-76685800D02*
X87093600Y-76685800D01*
X90575600Y-76645800D02*
X87093600Y-76645800D01*
X90590600Y-76605800D02*
X87093600Y-76605800D01*
X90606600Y-76565800D02*
X87093600Y-76565800D01*
X90620600Y-76525800D02*
X87093600Y-76525800D01*
X90635600Y-76485800D02*
X87093600Y-76485800D01*
X90649600Y-76445800D02*
X87093600Y-76445800D01*
X90663600Y-76405800D02*
X87093600Y-76405800D01*
X90676600Y-76365800D02*
X87093600Y-76365800D01*
X90689600Y-76325800D02*
X87093600Y-76325800D01*
X90702600Y-76285800D02*
X87093600Y-76285800D01*
X90714600Y-76245800D02*
X87093600Y-76245800D01*
X90726600Y-76205800D02*
X87093600Y-76205800D01*
X90737600Y-76165800D02*
X87093600Y-76165800D01*
X90749600Y-76125800D02*
X87093600Y-76125800D01*
X90759600Y-76085800D02*
X87093600Y-76085800D01*
X90770600Y-76045800D02*
X87093600Y-76045800D01*
X90780600Y-76005800D02*
X80924600Y-76005800D01*
X90790600Y-75965800D02*
X80914600Y-75965800D01*
X90799600Y-75925800D02*
X80905600Y-75925800D01*
X90808600Y-75885800D02*
X80896600Y-75885800D01*
X90817600Y-75845800D02*
X80887600Y-75845800D01*
X90826600Y-75805800D02*
X80878600Y-75805800D01*
X90834600Y-75765800D02*
X80870600Y-75765800D01*
X90842600Y-75725800D02*
X80862600Y-75725800D01*
X90849600Y-75685800D02*
X80855600Y-75685800D01*
X90856600Y-75645800D02*
X80848600Y-75645800D01*
X90863600Y-75605800D02*
X80841600Y-75605800D01*
X90870600Y-75565800D02*
X80834600Y-75565800D01*
X90876600Y-75525800D02*
X80828600Y-75525800D01*
X90882600Y-75485800D02*
X80822600Y-75485800D01*
X90887600Y-75444800D02*
X80817600Y-75444800D01*
X90892600Y-75404800D02*
X80812600Y-75404800D01*
X90897600Y-75364800D02*
X80807600Y-75364800D01*
X90902600Y-75324800D02*
X80802600Y-75324800D01*
X90906600Y-75284800D02*
X80798600Y-75284800D01*
X90910600Y-75244800D02*
X80794600Y-75244800D01*
X90914600Y-75204800D02*
X80790600Y-75204800D01*
X90917600Y-75164800D02*
X80787600Y-75164800D01*
X90920600Y-75124800D02*
X80784600Y-75124800D01*
X90922600Y-75084800D02*
X80782600Y-75084800D01*
X90925600Y-75044800D02*
X80779600Y-75044800D01*
X90927600Y-75004800D02*
X80777600Y-75004800D01*
X90929600Y-74964800D02*
X80775600Y-74964800D01*
X90930600Y-74924800D02*
X80774600Y-74924800D01*
X90931600Y-74884800D02*
X80773600Y-74884800D01*
X90932600Y-74764800D02*
X80772600Y-74764800D01*
X90932600Y-74804800D02*
X80772600Y-74804800D01*
X90932600Y-74844800D02*
X80772600Y-74844800D01*
X90972600Y-74764800D02*
G75*
G02*
X80732600Y-74764800I-5120000J0D01*
G01*
X80732600Y-74764800D02*
G75*
G02*
X90972600Y-74764800I5120000J0D01*
G01*
G04 #@! TO.C,C2*
X77661400Y-39461000D02*
X77661400Y-38263000D01*
X77701400Y-39724000D02*
X77701400Y-38000000D01*
X77741400Y-39924000D02*
X77741400Y-37800000D01*
X77781400Y-40092000D02*
X77781400Y-37632000D01*
X77821400Y-40240000D02*
X77821400Y-37484000D01*
X77861400Y-40372000D02*
X77861400Y-37352000D01*
X77901400Y-40492000D02*
X77901400Y-37232000D01*
X77941400Y-40604000D02*
X77941400Y-37120000D01*
X77981400Y-40708000D02*
X77981400Y-37016000D01*
X78021400Y-40806000D02*
X78021400Y-36918000D01*
X78061400Y-40899000D02*
X78061400Y-36825000D01*
X78101400Y-40987000D02*
X78101400Y-36737000D01*
X78141400Y-41071000D02*
X78141400Y-36653000D01*
X78181400Y-41151000D02*
X78181400Y-36573000D01*
X78221400Y-41227000D02*
X78221400Y-36497000D01*
X78261400Y-41301000D02*
X78261400Y-36423000D01*
X78301400Y-41372000D02*
X78301400Y-36352000D01*
X78341400Y-41441000D02*
X78341400Y-36283000D01*
X78381400Y-41507000D02*
X78381400Y-36217000D01*
X78421400Y-41571000D02*
X78421400Y-36153000D01*
X78461400Y-41632000D02*
X78461400Y-36092000D01*
X78501400Y-41692000D02*
X78501400Y-36032000D01*
X78541400Y-41751000D02*
X78541400Y-35973000D01*
X78581400Y-41807000D02*
X78581400Y-35917000D01*
X78621400Y-41862000D02*
X78621400Y-35862000D01*
X78661400Y-41916000D02*
X78661400Y-35808000D01*
X78701400Y-41968000D02*
X78701400Y-35756000D01*
X78741400Y-42018000D02*
X78741400Y-35706000D01*
X78781400Y-42068000D02*
X78781400Y-35656000D01*
X78821400Y-42116000D02*
X78821400Y-35608000D01*
X78861400Y-42163000D02*
X78861400Y-35561000D01*
X78901400Y-42209000D02*
X78901400Y-35515000D01*
X78941400Y-42254000D02*
X78941400Y-35470000D01*
X78981400Y-42298000D02*
X78981400Y-35426000D01*
X79021400Y-37621000D02*
X79021400Y-35384000D01*
X79021400Y-42340000D02*
X79021400Y-40103000D01*
X79061400Y-37621000D02*
X79061400Y-35342000D01*
X79061400Y-42382000D02*
X79061400Y-40103000D01*
X79101400Y-37621000D02*
X79101400Y-35301000D01*
X79101400Y-42423000D02*
X79101400Y-40103000D01*
X79141400Y-37621000D02*
X79141400Y-35261000D01*
X79141400Y-42463000D02*
X79141400Y-40103000D01*
X79181400Y-37621000D02*
X79181400Y-35222000D01*
X79181400Y-42502000D02*
X79181400Y-40103000D01*
X79221400Y-37621000D02*
X79221400Y-35183000D01*
X79221400Y-42541000D02*
X79221400Y-40103000D01*
X79261400Y-37621000D02*
X79261400Y-35146000D01*
X79261400Y-42578000D02*
X79261400Y-40103000D01*
X79301400Y-37621000D02*
X79301400Y-35109000D01*
X79301400Y-42615000D02*
X79301400Y-40103000D01*
X79341400Y-37621000D02*
X79341400Y-35073000D01*
X79341400Y-42651000D02*
X79341400Y-40103000D01*
X79381400Y-37621000D02*
X79381400Y-35038000D01*
X79381400Y-42686000D02*
X79381400Y-40103000D01*
X79421400Y-37621000D02*
X79421400Y-35004000D01*
X79421400Y-42720000D02*
X79421400Y-40103000D01*
X79461400Y-37621000D02*
X79461400Y-34970000D01*
X79461400Y-42754000D02*
X79461400Y-40103000D01*
X79501400Y-37621000D02*
X79501400Y-34937000D01*
X79501400Y-42787000D02*
X79501400Y-40103000D01*
X79541400Y-37621000D02*
X79541400Y-34905000D01*
X79541400Y-42819000D02*
X79541400Y-40103000D01*
X79581400Y-37621000D02*
X79581400Y-34873000D01*
X79581400Y-42851000D02*
X79581400Y-40103000D01*
X79621400Y-37621000D02*
X79621400Y-34842000D01*
X79621400Y-42882000D02*
X79621400Y-40103000D01*
X79661400Y-37621000D02*
X79661400Y-34812000D01*
X79661400Y-42912000D02*
X79661400Y-40103000D01*
X79701400Y-37621000D02*
X79701400Y-34782000D01*
X79701400Y-42942000D02*
X79701400Y-40103000D01*
X79741400Y-37621000D02*
X79741400Y-34752000D01*
X79741400Y-42972000D02*
X79741400Y-40103000D01*
X79781400Y-37621000D02*
X79781400Y-34724000D01*
X79781400Y-43000000D02*
X79781400Y-40103000D01*
X79821400Y-37621000D02*
X79821400Y-34696000D01*
X79821400Y-43028000D02*
X79821400Y-40103000D01*
X79861400Y-37621000D02*
X79861400Y-34668000D01*
X79861400Y-43056000D02*
X79861400Y-40103000D01*
X79901400Y-37621000D02*
X79901400Y-34641000D01*
X79901400Y-43083000D02*
X79901400Y-40103000D01*
X79941400Y-37621000D02*
X79941400Y-34615000D01*
X79941400Y-43109000D02*
X79941400Y-40103000D01*
X79981400Y-37621000D02*
X79981400Y-34589000D01*
X79981400Y-43135000D02*
X79981400Y-40103000D01*
X80021400Y-37621000D02*
X80021400Y-34564000D01*
X80021400Y-43160000D02*
X80021400Y-40103000D01*
X80061400Y-37621000D02*
X80061400Y-34539000D01*
X80061400Y-43185000D02*
X80061400Y-40103000D01*
X80101400Y-37621000D02*
X80101400Y-34515000D01*
X80101400Y-43209000D02*
X80101400Y-40103000D01*
X80141400Y-37621000D02*
X80141400Y-34491000D01*
X80141400Y-43233000D02*
X80141400Y-40103000D01*
X80181400Y-37621000D02*
X80181400Y-34467000D01*
X80181400Y-43257000D02*
X80181400Y-40103000D01*
X80221400Y-37621000D02*
X80221400Y-34445000D01*
X80221400Y-43279000D02*
X80221400Y-40103000D01*
X80261400Y-37621000D02*
X80261400Y-34422000D01*
X80261400Y-43302000D02*
X80261400Y-40103000D01*
X80301400Y-37621000D02*
X80301400Y-34400000D01*
X80301400Y-43324000D02*
X80301400Y-40103000D01*
X80341400Y-37621000D02*
X80341400Y-34379000D01*
X80341400Y-43345000D02*
X80341400Y-40103000D01*
X80381400Y-37621000D02*
X80381400Y-34358000D01*
X80381400Y-43366000D02*
X80381400Y-40103000D01*
X80421400Y-37621000D02*
X80421400Y-34337000D01*
X80421400Y-43387000D02*
X80421400Y-40103000D01*
X80461400Y-37621000D02*
X80461400Y-34317000D01*
X80461400Y-43407000D02*
X80461400Y-40103000D01*
X80501400Y-37621000D02*
X80501400Y-34298000D01*
X80501400Y-43426000D02*
X80501400Y-40103000D01*
X80541400Y-37621000D02*
X80541400Y-34278000D01*
X80541400Y-43446000D02*
X80541400Y-40103000D01*
X80581400Y-37621000D02*
X80581400Y-34259000D01*
X80581400Y-43465000D02*
X80581400Y-40103000D01*
X80621400Y-37621000D02*
X80621400Y-34241000D01*
X80621400Y-43483000D02*
X80621400Y-40103000D01*
X80661400Y-37621000D02*
X80661400Y-34223000D01*
X80661400Y-43501000D02*
X80661400Y-40103000D01*
X80701400Y-37621000D02*
X80701400Y-34205000D01*
X80701400Y-43519000D02*
X80701400Y-40103000D01*
X80741400Y-37621000D02*
X80741400Y-34188000D01*
X80741400Y-43536000D02*
X80741400Y-40103000D01*
X80781400Y-37621000D02*
X80781400Y-34172000D01*
X80781400Y-43552000D02*
X80781400Y-40103000D01*
X80821400Y-37621000D02*
X80821400Y-34155000D01*
X80821400Y-43569000D02*
X80821400Y-40103000D01*
X80861400Y-37621000D02*
X80861400Y-34139000D01*
X80861400Y-43585000D02*
X80861400Y-40103000D01*
X80901400Y-37621000D02*
X80901400Y-34124000D01*
X80901400Y-43600000D02*
X80901400Y-40103000D01*
X80941400Y-37621000D02*
X80941400Y-34108000D01*
X80941400Y-43616000D02*
X80941400Y-40103000D01*
X80981400Y-37621000D02*
X80981400Y-34094000D01*
X80981400Y-43630000D02*
X80981400Y-40103000D01*
X81021400Y-37621000D02*
X81021400Y-34079000D01*
X81021400Y-43645000D02*
X81021400Y-40103000D01*
X81061400Y-37621000D02*
X81061400Y-34065000D01*
X81061400Y-43659000D02*
X81061400Y-40103000D01*
X81101400Y-37621000D02*
X81101400Y-34051000D01*
X81101400Y-43673000D02*
X81101400Y-40103000D01*
X81141400Y-37621000D02*
X81141400Y-34038000D01*
X81141400Y-43686000D02*
X81141400Y-40103000D01*
X81181400Y-37621000D02*
X81181400Y-34025000D01*
X81181400Y-43699000D02*
X81181400Y-40103000D01*
X81221400Y-37621000D02*
X81221400Y-34012000D01*
X81221400Y-43712000D02*
X81221400Y-40103000D01*
X81261400Y-37621000D02*
X81261400Y-34000000D01*
X81261400Y-43724000D02*
X81261400Y-40103000D01*
X81301400Y-37621000D02*
X81301400Y-33988000D01*
X81301400Y-43736000D02*
X81301400Y-40103000D01*
X81341400Y-37621000D02*
X81341400Y-33977000D01*
X81341400Y-43747000D02*
X81341400Y-40103000D01*
X81381400Y-37621000D02*
X81381400Y-33965000D01*
X81381400Y-43759000D02*
X81381400Y-40103000D01*
X81421400Y-37621000D02*
X81421400Y-33955000D01*
X81421400Y-43769000D02*
X81421400Y-40103000D01*
X81461400Y-37621000D02*
X81461400Y-33944000D01*
X81461400Y-43780000D02*
X81461400Y-40103000D01*
X81501400Y-43790000D02*
X81501400Y-33934000D01*
X81541400Y-43800000D02*
X81541400Y-33924000D01*
X81581400Y-43809000D02*
X81581400Y-33915000D01*
X81621400Y-43818000D02*
X81621400Y-33906000D01*
X81661400Y-43827000D02*
X81661400Y-33897000D01*
X81701400Y-43836000D02*
X81701400Y-33888000D01*
X81741400Y-43844000D02*
X81741400Y-33880000D01*
X81781400Y-43852000D02*
X81781400Y-33872000D01*
X81821400Y-43859000D02*
X81821400Y-33865000D01*
X81861400Y-43866000D02*
X81861400Y-33858000D01*
X81901400Y-43873000D02*
X81901400Y-33851000D01*
X81941400Y-43880000D02*
X81941400Y-33844000D01*
X81981400Y-43886000D02*
X81981400Y-33838000D01*
X82021400Y-43892000D02*
X82021400Y-33832000D01*
X82062400Y-43897000D02*
X82062400Y-33827000D01*
X82102400Y-43902000D02*
X82102400Y-33822000D01*
X82142400Y-43907000D02*
X82142400Y-33817000D01*
X82182400Y-43912000D02*
X82182400Y-33812000D01*
X82222400Y-43916000D02*
X82222400Y-33808000D01*
X82262400Y-43920000D02*
X82262400Y-33804000D01*
X82302400Y-43924000D02*
X82302400Y-33800000D01*
X82342400Y-43927000D02*
X82342400Y-33797000D01*
X82382400Y-43930000D02*
X82382400Y-33794000D01*
X82422400Y-43932000D02*
X82422400Y-33792000D01*
X82462400Y-43935000D02*
X82462400Y-33789000D01*
X82502400Y-43937000D02*
X82502400Y-33787000D01*
X82542400Y-43939000D02*
X82542400Y-33785000D01*
X82582400Y-43940000D02*
X82582400Y-33784000D01*
X82622400Y-43941000D02*
X82622400Y-33783000D01*
X82662400Y-43942000D02*
X82662400Y-33782000D01*
X82702400Y-43942000D02*
X82702400Y-33782000D01*
X82742400Y-43942000D02*
X82742400Y-33782000D01*
X87722046Y-42237000D02*
X87722046Y-41237000D01*
X88222046Y-41737000D02*
X87222046Y-41737000D01*
X87862400Y-38862000D02*
G75*
G02*
X77622400Y-38862000I-5120000J0D01*
G01*
X77622400Y-38862000D02*
G75*
G02*
X87862400Y-38862000I5120000J0D01*
G01*
G04 #@! TD*
%LPC*%
D13*
G04 #@! TO.C,U2*
X69125400Y-63628800D03*
D14*
X85785400Y-67028800D03*
D15*
X85785400Y-65328800D03*
X85785400Y-63628800D03*
X85785400Y-61928800D03*
X85785400Y-60228800D03*
G04 #@! TD*
D16*
G04 #@! TO.C,D1*
X65983723Y-44119800D03*
D17*
X76143723Y-44119800D03*
G04 #@! TD*
D18*
G04 #@! TO.C,L2*
X95098200Y-68006000D03*
X95098200Y-59006000D03*
G04 #@! TD*
D19*
G04 #@! TO.C,TH3*
X86106000Y-21640800D03*
D20*
X78486000Y-21640800D03*
G04 #@! TD*
D16*
G04 #@! TO.C,D2*
X95199800Y-72747400D03*
D17*
X105359800Y-72747400D03*
G04 #@! TD*
D19*
G04 #@! TO.C,TH2*
X104673400Y-58572400D03*
D20*
X104673400Y-66192400D03*
G04 #@! TD*
D21*
G04 #@! TO.C,C4*
X85649400Y-54307000D03*
D22*
X85649400Y-49307000D03*
G04 #@! TD*
D23*
G04 #@! TO.C,J1*
X56870600Y-22834600D03*
D24*
X56870600Y-25374600D03*
X56870600Y-27914600D03*
G04 #@! TD*
D23*
G04 #@! TO.C,J2*
X101574600Y-20040600D03*
D24*
X104114600Y-20040600D03*
X101574600Y-22580600D03*
X104114600Y-22580600D03*
X101574600Y-25120600D03*
X104114600Y-25120600D03*
X101574600Y-27660600D03*
X104114600Y-27660600D03*
X101574600Y-30200600D03*
X104114600Y-30200600D03*
G04 #@! TD*
D13*
G04 #@! TO.C,U1*
X70583723Y-21998600D03*
D25*
X67183723Y-38658600D03*
D26*
X68883723Y-38658600D03*
X70583723Y-38658600D03*
X72283723Y-38658600D03*
X73983723Y-38658600D03*
G04 #@! TD*
D27*
G04 #@! TO.C,D5*
X91338400Y-21513800D03*
D28*
X91338400Y-36753800D03*
G04 #@! TD*
D18*
G04 #@! TO.C,L1*
X64434323Y-52730400D03*
X55434323Y-52730400D03*
G04 #@! TD*
D19*
G04 #@! TO.C,TH1*
X109093000Y-58318400D03*
D20*
X109093000Y-65938400D03*
G04 #@! TD*
D27*
G04 #@! TO.C,D4*
X98983800Y-52654200D03*
D28*
X98983800Y-37414200D03*
G04 #@! TD*
D21*
G04 #@! TO.C,C1*
X61564123Y-38709600D03*
D22*
X56564123Y-38709600D03*
G04 #@! TD*
D19*
G04 #@! TO.C,U3_BreadBoard1*
X20396200Y-23114000D03*
X20396200Y-25654000D03*
X20396200Y-28194000D03*
X20396200Y-30734000D03*
X20396200Y-33274000D03*
X20396200Y-35814000D03*
X20396200Y-38354000D03*
X20396200Y-40894000D03*
X20396200Y-43434000D03*
X20396200Y-45974000D03*
X20396200Y-48514000D03*
X20396200Y-51054000D03*
X20396200Y-53594000D03*
X20396200Y-56134000D03*
X20396200Y-58674000D03*
X20396200Y-61214000D03*
X20396200Y-63754000D03*
X20396200Y-66294000D03*
X20396200Y-68834000D03*
X20396200Y-71374000D03*
X20396200Y-73914000D03*
X20396200Y-76454000D03*
X22936200Y-23114000D03*
X22936200Y-25654000D03*
X22936200Y-28194000D03*
X22936200Y-30734000D03*
X22936200Y-33274000D03*
X22936200Y-35814000D03*
X22936200Y-38354000D03*
X22936200Y-40894000D03*
X22936200Y-43434000D03*
X22936200Y-45974000D03*
X22936200Y-48514000D03*
X22936200Y-51054000D03*
X22936200Y-53594000D03*
X22936200Y-56134000D03*
X22936200Y-58674000D03*
X22936200Y-61214000D03*
X22936200Y-63754000D03*
X22936200Y-66294000D03*
X22936200Y-68834000D03*
X22936200Y-71374000D03*
X22936200Y-73914000D03*
X22936200Y-76454000D03*
X25476200Y-23114000D03*
X25476200Y-25654000D03*
X25476200Y-28194000D03*
X25476200Y-30734000D03*
X25476200Y-33274000D03*
X25476200Y-35814000D03*
X25476200Y-38354000D03*
X25476200Y-40894000D03*
X25476200Y-43434000D03*
X25476200Y-45974000D03*
X25476200Y-48514000D03*
X25476200Y-51054000D03*
X25476200Y-53594000D03*
X25476200Y-56134000D03*
X25476200Y-58674000D03*
X25476200Y-61214000D03*
X25476200Y-63754000D03*
X25476200Y-66294000D03*
X25476200Y-68834000D03*
X25476200Y-71374000D03*
X25476200Y-73914000D03*
X25476200Y-76454000D03*
X28016200Y-23114000D03*
X28016200Y-25654000D03*
X28016200Y-28194000D03*
X28016200Y-30734000D03*
X28016200Y-33274000D03*
X28016200Y-35814000D03*
X28016200Y-38354000D03*
X28016200Y-40894000D03*
X28016200Y-43434000D03*
X28016200Y-45974000D03*
X28016200Y-48514000D03*
X28016200Y-51054000D03*
X28016200Y-53594000D03*
X28016200Y-56134000D03*
X28016200Y-58674000D03*
X28016200Y-61214000D03*
X28016200Y-63754000D03*
X28016200Y-66294000D03*
X28016200Y-68834000D03*
X28016200Y-71374000D03*
X28016200Y-73914000D03*
X28016200Y-76454000D03*
X30556200Y-23114000D03*
X30556200Y-25654000D03*
X30556200Y-28194000D03*
X30556200Y-30734000D03*
X30556200Y-33274000D03*
X30556200Y-35814000D03*
X30556200Y-38354000D03*
X30556200Y-40894000D03*
X30556200Y-43434000D03*
X30556200Y-45974000D03*
X30556200Y-48514000D03*
X30556200Y-51054000D03*
X30556200Y-53594000D03*
X30556200Y-56134000D03*
X30556200Y-58674000D03*
X30556200Y-61214000D03*
X30556200Y-63754000D03*
X30556200Y-66294000D03*
X30556200Y-68834000D03*
X30556200Y-71374000D03*
X30556200Y-73914000D03*
X30556200Y-76454000D03*
X33096200Y-23114000D03*
X33096200Y-25654000D03*
X33096200Y-28194000D03*
X33096200Y-30734000D03*
X33096200Y-33274000D03*
X33096200Y-35814000D03*
X33096200Y-38354000D03*
X33096200Y-40894000D03*
X33096200Y-43434000D03*
X33096200Y-45974000D03*
X33096200Y-48514000D03*
X33096200Y-51054000D03*
X33096200Y-53594000D03*
X33096200Y-56134000D03*
X33096200Y-58674000D03*
X33096200Y-61214000D03*
X33096200Y-63754000D03*
X33096200Y-66294000D03*
X33096200Y-68834000D03*
X33096200Y-71374000D03*
X33096200Y-73914000D03*
X33096200Y-76454000D03*
X35636200Y-23114000D03*
X35636200Y-25654000D03*
X35636200Y-28194000D03*
X35636200Y-30734000D03*
X35636200Y-33274000D03*
X35636200Y-35814000D03*
X35636200Y-38354000D03*
X35636200Y-40894000D03*
X35636200Y-43434000D03*
X35636200Y-45974000D03*
X35636200Y-48514000D03*
X35636200Y-51054000D03*
X35636200Y-53594000D03*
X35636200Y-56134000D03*
X35636200Y-58674000D03*
X35636200Y-61214000D03*
X35636200Y-63754000D03*
X35636200Y-66294000D03*
X35636200Y-68834000D03*
X35636200Y-71374000D03*
X35636200Y-73914000D03*
X35636200Y-76454000D03*
X38176200Y-23114000D03*
X38176200Y-25654000D03*
X38176200Y-28194000D03*
X38176200Y-30734000D03*
X38176200Y-33274000D03*
X38176200Y-35814000D03*
X38176200Y-38354000D03*
X38176200Y-40894000D03*
X38176200Y-43434000D03*
X38176200Y-45974000D03*
X38176200Y-48514000D03*
X38176200Y-51054000D03*
X38176200Y-53594000D03*
X38176200Y-56134000D03*
X38176200Y-58674000D03*
X38176200Y-61214000D03*
X38176200Y-63754000D03*
X38176200Y-66294000D03*
X38176200Y-68834000D03*
X38176200Y-71374000D03*
X38176200Y-73914000D03*
X38176200Y-76454000D03*
X40716200Y-23114000D03*
X40716200Y-25654000D03*
X40716200Y-28194000D03*
X40716200Y-30734000D03*
X40716200Y-33274000D03*
X40716200Y-35814000D03*
X40716200Y-38354000D03*
X40716200Y-40894000D03*
X40716200Y-43434000D03*
X40716200Y-45974000D03*
X40716200Y-48514000D03*
X40716200Y-51054000D03*
X40716200Y-53594000D03*
X40716200Y-56134000D03*
X40716200Y-58674000D03*
X40716200Y-61214000D03*
X40716200Y-63754000D03*
X40716200Y-66294000D03*
X40716200Y-68834000D03*
X40716200Y-71374000D03*
X40716200Y-73914000D03*
X40716200Y-76454000D03*
X43256200Y-23114000D03*
X43256200Y-25654000D03*
X43256200Y-28194000D03*
X43256200Y-30734000D03*
X43256200Y-33274000D03*
X43256200Y-35814000D03*
X43256200Y-38354000D03*
X43256200Y-40894000D03*
X43256200Y-43434000D03*
X43256200Y-45974000D03*
X43256200Y-48514000D03*
X43256200Y-51054000D03*
X43256200Y-53594000D03*
X43256200Y-56134000D03*
X43256200Y-58674000D03*
X43256200Y-61214000D03*
X43256200Y-63754000D03*
X43256200Y-66294000D03*
X43256200Y-68834000D03*
X43256200Y-71374000D03*
X43256200Y-73914000D03*
X43256200Y-76454000D03*
X45796200Y-23114000D03*
X45796200Y-25654000D03*
X45796200Y-28194000D03*
X45796200Y-30734000D03*
X45796200Y-33274000D03*
X45796200Y-35814000D03*
X45796200Y-38354000D03*
X45796200Y-40894000D03*
X45796200Y-43434000D03*
X45796200Y-45974000D03*
X45796200Y-48514000D03*
X45796200Y-51054000D03*
X45796200Y-53594000D03*
X45796200Y-56134000D03*
X45796200Y-58674000D03*
X45796200Y-61214000D03*
X45796200Y-63754000D03*
X45796200Y-66294000D03*
X45796200Y-68834000D03*
X45796200Y-71374000D03*
X45796200Y-73914000D03*
X45796200Y-76454000D03*
X48336200Y-23114000D03*
X48336200Y-25654000D03*
X48336200Y-28194000D03*
X48336200Y-30734000D03*
X48336200Y-33274000D03*
X48336200Y-35814000D03*
X48336200Y-38354000D03*
X48336200Y-40894000D03*
X48336200Y-43434000D03*
X48336200Y-45974000D03*
X48336200Y-48514000D03*
X48336200Y-51054000D03*
X48336200Y-53594000D03*
X48336200Y-56134000D03*
X48336200Y-58674000D03*
X48336200Y-61214000D03*
X48336200Y-63754000D03*
X48336200Y-66294000D03*
X48336200Y-68834000D03*
X48336200Y-71374000D03*
X48336200Y-73914000D03*
X48336200Y-76454000D03*
G04 #@! TD*
D27*
G04 #@! TO.C,D3*
X105384600Y-52654200D03*
D28*
X105384600Y-37414200D03*
G04 #@! TD*
D21*
G04 #@! TO.C,C3*
X85852600Y-72264800D03*
D22*
X85852600Y-77264800D03*
G04 #@! TD*
D21*
G04 #@! TO.C,C2*
X85242400Y-38862000D03*
D22*
X80242400Y-38862000D03*
G04 #@! TD*
%LPD*%
M02*
