M48
; DRILL file {KiCad 9.0.0} date 2025-03-25T09:54:28+0100
; FORMAT={-:-/ absolute / metric / decimal}
; #@! TF.CreationDate,2025-03-25T09:54:28+01:00
; #@! TF.GenerationSoftware,Kicad,Pcbnew,9.0.0
; #@! TF.FileFunction,Plated,1,2,PTH
FMAT,2
METRIC
; #@! TA.AperFunction,Plated,PTH,ComponentDrill
T1C0.800
; #@! TA.AperFunction,Plated,PTH,ComponentDrill
T2C1.000
; #@! TA.AperFunction,Plated,PTH,ComponentDrill
T3C1.100
; #@! TA.AperFunction,Plated,PTH,ComponentDrill
T4C1.200
; #@! TA.AperFunction,Plated,PTH,ComponentDrill
T5C1.600
%
G90
G05
T1
X20.396Y-23.114
X20.396Y-25.654
X20.396Y-28.194
X20.396Y-30.734
X20.396Y-33.274
X20.396Y-35.814
X20.396Y-38.354
X20.396Y-40.894
X20.396Y-43.434
X20.396Y-45.974
X20.396Y-48.514
X20.396Y-51.054
X20.396Y-53.594
X20.396Y-56.134
X20.396Y-58.674
X20.396Y-61.214
X20.396Y-63.754
X20.396Y-66.294
X20.396Y-68.834
X20.396Y-71.374
X20.396Y-73.914
X20.396Y-76.454
X22.936Y-23.114
X22.936Y-25.654
X22.936Y-28.194
X22.936Y-30.734
X22.936Y-33.274
X22.936Y-35.814
X22.936Y-38.354
X22.936Y-40.894
X22.936Y-43.434
X22.936Y-45.974
X22.936Y-48.514
X22.936Y-51.054
X22.936Y-53.594
X22.936Y-56.134
X22.936Y-58.674
X22.936Y-61.214
X22.936Y-63.754
X22.936Y-66.294
X22.936Y-68.834
X22.936Y-71.374
X22.936Y-73.914
X22.936Y-76.454
X25.476Y-23.114
X25.476Y-25.654
X25.476Y-28.194
X25.476Y-30.734
X25.476Y-33.274
X25.476Y-35.814
X25.476Y-38.354
X25.476Y-40.894
X25.476Y-43.434
X25.476Y-45.974
X25.476Y-48.514
X25.476Y-51.054
X25.476Y-53.594
X25.476Y-56.134
X25.476Y-58.674
X25.476Y-61.214
X25.476Y-63.754
X25.476Y-66.294
X25.476Y-68.834
X25.476Y-71.374
X25.476Y-73.914
X25.476Y-76.454
X28.016Y-23.114
X28.016Y-25.654
X28.016Y-28.194
X28.016Y-30.734
X28.016Y-33.274
X28.016Y-35.814
X28.016Y-38.354
X28.016Y-40.894
X28.016Y-43.434
X28.016Y-45.974
X28.016Y-48.514
X28.016Y-51.054
X28.016Y-53.594
X28.016Y-56.134
X28.016Y-58.674
X28.016Y-61.214
X28.016Y-63.754
X28.016Y-66.294
X28.016Y-68.834
X28.016Y-71.374
X28.016Y-73.914
X28.016Y-76.454
X30.556Y-23.114
X30.556Y-25.654
X30.556Y-28.194
X30.556Y-30.734
X30.556Y-33.274
X30.556Y-35.814
X30.556Y-38.354
X30.556Y-40.894
X30.556Y-43.434
X30.556Y-45.974
X30.556Y-48.514
X30.556Y-51.054
X30.556Y-53.594
X30.556Y-56.134
X30.556Y-58.674
X30.556Y-61.214
X30.556Y-63.754
X30.556Y-66.294
X30.556Y-68.834
X30.556Y-71.374
X30.556Y-73.914
X30.556Y-76.454
X33.096Y-23.114
X33.096Y-25.654
X33.096Y-28.194
X33.096Y-30.734
X33.096Y-33.274
X33.096Y-35.814
X33.096Y-38.354
X33.096Y-40.894
X33.096Y-43.434
X33.096Y-45.974
X33.096Y-48.514
X33.096Y-51.054
X33.096Y-53.594
X33.096Y-56.134
X33.096Y-58.674
X33.096Y-61.214
X33.096Y-63.754
X33.096Y-66.294
X33.096Y-68.834
X33.096Y-71.374
X33.096Y-73.914
X33.096Y-76.454
X35.636Y-23.114
X35.636Y-25.654
X35.636Y-28.194
X35.636Y-30.734
X35.636Y-33.274
X35.636Y-35.814
X35.636Y-38.354
X35.636Y-40.894
X35.636Y-43.434
X35.636Y-45.974
X35.636Y-48.514
X35.636Y-51.054
X35.636Y-53.594
X35.636Y-56.134
X35.636Y-58.674
X35.636Y-61.214
X35.636Y-63.754
X35.636Y-66.294
X35.636Y-68.834
X35.636Y-71.374
X35.636Y-73.914
X35.636Y-76.454
X38.176Y-23.114
X38.176Y-25.654
X38.176Y-28.194
X38.176Y-30.734
X38.176Y-33.274
X38.176Y-35.814
X38.176Y-38.354
X38.176Y-40.894
X38.176Y-43.434
X38.176Y-45.974
X38.176Y-48.514
X38.176Y-51.054
X38.176Y-53.594
X38.176Y-56.134
X38.176Y-58.674
X38.176Y-61.214
X38.176Y-63.754
X38.176Y-66.294
X38.176Y-68.834
X38.176Y-71.374
X38.176Y-73.914
X38.176Y-76.454
X40.716Y-23.114
X40.716Y-25.654
X40.716Y-28.194
X40.716Y-30.734
X40.716Y-33.274
X40.716Y-35.814
X40.716Y-38.354
X40.716Y-40.894
X40.716Y-43.434
X40.716Y-45.974
X40.716Y-48.514
X40.716Y-51.054
X40.716Y-53.594
X40.716Y-56.134
X40.716Y-58.674
X40.716Y-61.214
X40.716Y-63.754
X40.716Y-66.294
X40.716Y-68.834
X40.716Y-71.374
X40.716Y-73.914
X40.716Y-76.454
X43.256Y-23.114
X43.256Y-25.654
X43.256Y-28.194
X43.256Y-30.734
X43.256Y-33.274
X43.256Y-35.814
X43.256Y-38.354
X43.256Y-40.894
X43.256Y-43.434
X43.256Y-45.974
X43.256Y-48.514
X43.256Y-51.054
X43.256Y-53.594
X43.256Y-56.134
X43.256Y-58.674
X43.256Y-61.214
X43.256Y-63.754
X43.256Y-66.294
X43.256Y-68.834
X43.256Y-71.374
X43.256Y-73.914
X43.256Y-76.454
X45.796Y-23.114
X45.796Y-25.654
X45.796Y-28.194
X45.796Y-30.734
X45.796Y-33.274
X45.796Y-35.814
X45.796Y-38.354
X45.796Y-40.894
X45.796Y-43.434
X45.796Y-45.974
X45.796Y-48.514
X45.796Y-51.054
X45.796Y-53.594
X45.796Y-56.134
X45.796Y-58.674
X45.796Y-61.214
X45.796Y-63.754
X45.796Y-66.294
X45.796Y-68.834
X45.796Y-71.374
X45.796Y-73.914
X45.796Y-76.454
X48.336Y-23.114
X48.336Y-25.654
X48.336Y-28.194
X48.336Y-30.734
X48.336Y-33.274
X48.336Y-35.814
X48.336Y-38.354
X48.336Y-40.894
X48.336Y-43.434
X48.336Y-45.974
X48.336Y-48.514
X48.336Y-51.054
X48.336Y-53.594
X48.336Y-56.134
X48.336Y-58.674
X48.336Y-61.214
X48.336Y-63.754
X48.336Y-66.294
X48.336Y-68.834
X48.336Y-71.374
X48.336Y-73.914
X48.336Y-76.454
X78.486Y-21.641
X86.106Y-21.641
X104.673Y-58.572
X104.673Y-66.192
X109.093Y-58.318
X109.093Y-65.938
T2
X56.564Y-38.71
X56.871Y-22.835
X56.871Y-25.375
X56.871Y-27.915
X61.564Y-38.71
X80.242Y-38.862
X85.242Y-38.862
X85.649Y-49.307
X85.649Y-54.307
X85.853Y-72.265
X85.853Y-77.265
X101.575Y-20.041
X101.575Y-22.581
X101.575Y-25.121
X101.575Y-27.661
X101.575Y-30.201
X104.115Y-20.041
X104.115Y-22.581
X104.115Y-25.121
X104.115Y-27.661
X104.115Y-30.201
T3
X65.984Y-44.12
X67.184Y-38.659
X68.884Y-38.659
X70.584Y-38.659
X72.284Y-38.659
X73.984Y-38.659
X76.144Y-44.12
X85.785Y-60.229
X85.785Y-61.929
X85.785Y-63.629
X85.785Y-65.329
X85.785Y-67.029
X95.2Y-72.747
X105.36Y-72.747
T4
X55.434Y-52.73
X64.434Y-52.73
X95.098Y-59.006
X95.098Y-68.006
T5
X91.338Y-21.514
X91.338Y-36.754
X98.984Y-37.414
X98.984Y-52.654
X105.385Y-37.414
X105.385Y-52.654
M30
