G04 #@! TF.GenerationSoftware,KiCad,Pcbnew,7.0.7*
G04 #@! TF.CreationDate,2024-03-19T17:37:58+01:00*
G04 #@! TF.ProjectId,Main_board,4d61696e-5f62-46f6-9172-642e6b696361,rev?*
G04 #@! TF.SameCoordinates,Original*
G04 #@! TF.FileFunction,Legend,Bot*
G04 #@! TF.FilePolarity,Positive*
%FSLAX46Y46*%
G04 Gerber Fmt 4.6, Leading zero omitted, Abs format (unit mm)*
G04 Created by KiCad (PCBNEW 7.0.7) date 2024-03-19 17:37:58*
%MOMM*%
%LPD*%
G01*
G04 APERTURE LIST*
G04 Aperture macros list*
%AMRoundRect*
0 Rectangle with rounded corners*
0 $1 Rounding radius*
0 $2 $3 $4 $5 $6 $7 $8 $9 X,Y pos of 4 corners*
0 Add a 4 corners polygon primitive as box body*
4,1,4,$2,$3,$4,$5,$6,$7,$8,$9,$2,$3,0*
0 Add four circle primitives for the rounded corners*
1,1,$1+$1,$2,$3*
1,1,$1+$1,$4,$5*
1,1,$1+$1,$6,$7*
1,1,$1+$1,$8,$9*
0 Add four rect primitives between the rounded corners*
20,1,$1+$1,$2,$3,$4,$5,0*
20,1,$1+$1,$4,$5,$6,$7,0*
20,1,$1+$1,$6,$7,$8,$9,0*
20,1,$1+$1,$8,$9,$2,$3,0*%
G04 Aperture macros list end*
%ADD10C,0.150000*%
%ADD11C,0.120000*%
%ADD12R,1.524000X1.524000*%
%ADD13C,1.524000*%
%ADD14R,3.500000X1.700000*%
%ADD15O,1.700000X1.700000*%
%ADD16R,1.700000X1.700000*%
%ADD17R,1.700000X3.500000*%
%ADD18O,1.600000X2.000000*%
%ADD19RoundRect,0.150000X0.587500X0.150000X-0.587500X0.150000X-0.587500X-0.150000X0.587500X-0.150000X0*%
%ADD20C,3.500000*%
%ADD21C,1.700000*%
%ADD22R,2.000000X2.000000*%
%ADD23C,2.000000*%
%ADD24R,2.000000X3.200000*%
G04 APERTURE END LIST*
D10*
X72075439Y-163668104D02*
X71599249Y-163668104D01*
X72170677Y-163953819D02*
X71837344Y-162953819D01*
X71837344Y-162953819D02*
X71504011Y-163953819D01*
X78682620Y-137344209D02*
X78349287Y-137344209D01*
X78206430Y-137868019D02*
X78682620Y-137868019D01*
X78682620Y-137868019D02*
X78682620Y-136868019D01*
X78682620Y-136868019D02*
X78206430Y-136868019D01*
X98085087Y-137318809D02*
X98418420Y-137318809D01*
X98418420Y-137842619D02*
X98418420Y-136842619D01*
X98418420Y-136842619D02*
X97942230Y-136842619D01*
X120856211Y-136483838D02*
X120951449Y-136436219D01*
X120951449Y-136436219D02*
X121094306Y-136436219D01*
X121094306Y-136436219D02*
X121237163Y-136483838D01*
X121237163Y-136483838D02*
X121332401Y-136579076D01*
X121332401Y-136579076D02*
X121380020Y-136674314D01*
X121380020Y-136674314D02*
X121427639Y-136864790D01*
X121427639Y-136864790D02*
X121427639Y-137007647D01*
X121427639Y-137007647D02*
X121380020Y-137198123D01*
X121380020Y-137198123D02*
X121332401Y-137293361D01*
X121332401Y-137293361D02*
X121237163Y-137388600D01*
X121237163Y-137388600D02*
X121094306Y-137436219D01*
X121094306Y-137436219D02*
X120999068Y-137436219D01*
X120999068Y-137436219D02*
X120856211Y-137388600D01*
X120856211Y-137388600D02*
X120808592Y-137340980D01*
X120808592Y-137340980D02*
X120808592Y-137007647D01*
X120808592Y-137007647D02*
X120999068Y-137007647D01*
X138245620Y-183054619D02*
X138245620Y-182054619D01*
X138245620Y-182530809D02*
X137674192Y-182530809D01*
X137674192Y-183054619D02*
X137674192Y-182054619D01*
X119268687Y-182226009D02*
X119125830Y-182273628D01*
X119125830Y-182273628D02*
X119078211Y-182321247D01*
X119078211Y-182321247D02*
X119030592Y-182416485D01*
X119030592Y-182416485D02*
X119030592Y-182559342D01*
X119030592Y-182559342D02*
X119078211Y-182654580D01*
X119078211Y-182654580D02*
X119125830Y-182702200D01*
X119125830Y-182702200D02*
X119221068Y-182749819D01*
X119221068Y-182749819D02*
X119602020Y-182749819D01*
X119602020Y-182749819D02*
X119602020Y-181749819D01*
X119602020Y-181749819D02*
X119268687Y-181749819D01*
X119268687Y-181749819D02*
X119173449Y-181797438D01*
X119173449Y-181797438D02*
X119125830Y-181845057D01*
X119125830Y-181845057D02*
X119078211Y-181940295D01*
X119078211Y-181940295D02*
X119078211Y-182035533D01*
X119078211Y-182035533D02*
X119125830Y-182130771D01*
X119125830Y-182130771D02*
X119173449Y-182178390D01*
X119173449Y-182178390D02*
X119268687Y-182226009D01*
X119268687Y-182226009D02*
X119602020Y-182226009D01*
X102076020Y-182165619D02*
X102076020Y-181165619D01*
X102076020Y-181165619D02*
X101837925Y-181165619D01*
X101837925Y-181165619D02*
X101695068Y-181213238D01*
X101695068Y-181213238D02*
X101599830Y-181308476D01*
X101599830Y-181308476D02*
X101552211Y-181403714D01*
X101552211Y-181403714D02*
X101504592Y-181594190D01*
X101504592Y-181594190D02*
X101504592Y-181737047D01*
X101504592Y-181737047D02*
X101552211Y-181927523D01*
X101552211Y-181927523D02*
X101599830Y-182022761D01*
X101599830Y-182022761D02*
X101695068Y-182118000D01*
X101695068Y-182118000D02*
X101837925Y-182165619D01*
X101837925Y-182165619D02*
X102076020Y-182165619D01*
X89464992Y-182857780D02*
X89512611Y-182905400D01*
X89512611Y-182905400D02*
X89655468Y-182953019D01*
X89655468Y-182953019D02*
X89750706Y-182953019D01*
X89750706Y-182953019D02*
X89893563Y-182905400D01*
X89893563Y-182905400D02*
X89988801Y-182810161D01*
X89988801Y-182810161D02*
X90036420Y-182714923D01*
X90036420Y-182714923D02*
X90084039Y-182524447D01*
X90084039Y-182524447D02*
X90084039Y-182381590D01*
X90084039Y-182381590D02*
X90036420Y-182191114D01*
X90036420Y-182191114D02*
X89988801Y-182095876D01*
X89988801Y-182095876D02*
X89893563Y-182000638D01*
X89893563Y-182000638D02*
X89750706Y-181953019D01*
X89750706Y-181953019D02*
X89655468Y-181953019D01*
X89655468Y-181953019D02*
X89512611Y-182000638D01*
X89512611Y-182000638D02*
X89464992Y-182048257D01*
X89274516Y-183048257D02*
X88512611Y-183048257D01*
X87703087Y-182857780D02*
X87750706Y-182905400D01*
X87750706Y-182905400D02*
X87893563Y-182953019D01*
X87893563Y-182953019D02*
X87988801Y-182953019D01*
X87988801Y-182953019D02*
X88131658Y-182905400D01*
X88131658Y-182905400D02*
X88226896Y-182810161D01*
X88226896Y-182810161D02*
X88274515Y-182714923D01*
X88274515Y-182714923D02*
X88322134Y-182524447D01*
X88322134Y-182524447D02*
X88322134Y-182381590D01*
X88322134Y-182381590D02*
X88274515Y-182191114D01*
X88274515Y-182191114D02*
X88226896Y-182095876D01*
X88226896Y-182095876D02*
X88131658Y-182000638D01*
X88131658Y-182000638D02*
X87988801Y-181953019D01*
X87988801Y-181953019D02*
X87893563Y-181953019D01*
X87893563Y-181953019D02*
X87750706Y-182000638D01*
X87750706Y-182000638D02*
X87703087Y-182048257D01*
X86845944Y-182286352D02*
X86845944Y-182953019D01*
X87274515Y-182286352D02*
X87274515Y-182810161D01*
X87274515Y-182810161D02*
X87226896Y-182905400D01*
X87226896Y-182905400D02*
X87131658Y-182953019D01*
X87131658Y-182953019D02*
X86988801Y-182953019D01*
X86988801Y-182953019D02*
X86893563Y-182905400D01*
X86893563Y-182905400D02*
X86845944Y-182857780D01*
X86512610Y-182286352D02*
X86131658Y-182286352D01*
X86369753Y-181953019D02*
X86369753Y-182810161D01*
X86369753Y-182810161D02*
X86322134Y-182905400D01*
X86322134Y-182905400D02*
X86226896Y-182953019D01*
X86226896Y-182953019D02*
X86131658Y-182953019D01*
X85607848Y-181953019D02*
X85417372Y-181953019D01*
X85417372Y-181953019D02*
X85322134Y-182000638D01*
X85322134Y-182000638D02*
X85226896Y-182095876D01*
X85226896Y-182095876D02*
X85179277Y-182286352D01*
X85179277Y-182286352D02*
X85179277Y-182619685D01*
X85179277Y-182619685D02*
X85226896Y-182810161D01*
X85226896Y-182810161D02*
X85322134Y-182905400D01*
X85322134Y-182905400D02*
X85417372Y-182953019D01*
X85417372Y-182953019D02*
X85607848Y-182953019D01*
X85607848Y-182953019D02*
X85703086Y-182905400D01*
X85703086Y-182905400D02*
X85798324Y-182810161D01*
X85798324Y-182810161D02*
X85845943Y-182619685D01*
X85845943Y-182619685D02*
X85845943Y-182286352D01*
X85845943Y-182286352D02*
X85798324Y-182095876D01*
X85798324Y-182095876D02*
X85703086Y-182000638D01*
X85703086Y-182000638D02*
X85607848Y-181953019D01*
X84893562Y-182286352D02*
X84512610Y-182286352D01*
X84750705Y-182953019D02*
X84750705Y-182095876D01*
X84750705Y-182095876D02*
X84703086Y-182000638D01*
X84703086Y-182000638D02*
X84607848Y-181953019D01*
X84607848Y-181953019D02*
X84512610Y-181953019D01*
X84322133Y-182286352D02*
X83941181Y-182286352D01*
X84179276Y-182953019D02*
X84179276Y-182095876D01*
X84179276Y-182095876D02*
X84131657Y-182000638D01*
X84131657Y-182000638D02*
X84036419Y-181953019D01*
X84036419Y-181953019D02*
X83941181Y-181953019D01*
X83845943Y-183048257D02*
X83084038Y-183048257D01*
X82274514Y-182953019D02*
X82607847Y-182476828D01*
X82845942Y-182953019D02*
X82845942Y-181953019D01*
X82845942Y-181953019D02*
X82464990Y-181953019D01*
X82464990Y-181953019D02*
X82369752Y-182000638D01*
X82369752Y-182000638D02*
X82322133Y-182048257D01*
X82322133Y-182048257D02*
X82274514Y-182143495D01*
X82274514Y-182143495D02*
X82274514Y-182286352D01*
X82274514Y-182286352D02*
X82322133Y-182381590D01*
X82322133Y-182381590D02*
X82369752Y-182429209D01*
X82369752Y-182429209D02*
X82464990Y-182476828D01*
X82464990Y-182476828D02*
X82845942Y-182476828D01*
X81464990Y-182905400D02*
X81560228Y-182953019D01*
X81560228Y-182953019D02*
X81750704Y-182953019D01*
X81750704Y-182953019D02*
X81845942Y-182905400D01*
X81845942Y-182905400D02*
X81893561Y-182810161D01*
X81893561Y-182810161D02*
X81893561Y-182429209D01*
X81893561Y-182429209D02*
X81845942Y-182333971D01*
X81845942Y-182333971D02*
X81750704Y-182286352D01*
X81750704Y-182286352D02*
X81560228Y-182286352D01*
X81560228Y-182286352D02*
X81464990Y-182333971D01*
X81464990Y-182333971D02*
X81417371Y-182429209D01*
X81417371Y-182429209D02*
X81417371Y-182524447D01*
X81417371Y-182524447D02*
X81893561Y-182619685D01*
X81036418Y-182905400D02*
X80941180Y-182953019D01*
X80941180Y-182953019D02*
X80750704Y-182953019D01*
X80750704Y-182953019D02*
X80655466Y-182905400D01*
X80655466Y-182905400D02*
X80607847Y-182810161D01*
X80607847Y-182810161D02*
X80607847Y-182762542D01*
X80607847Y-182762542D02*
X80655466Y-182667304D01*
X80655466Y-182667304D02*
X80750704Y-182619685D01*
X80750704Y-182619685D02*
X80893561Y-182619685D01*
X80893561Y-182619685D02*
X80988799Y-182572066D01*
X80988799Y-182572066D02*
X81036418Y-182476828D01*
X81036418Y-182476828D02*
X81036418Y-182429209D01*
X81036418Y-182429209D02*
X80988799Y-182333971D01*
X80988799Y-182333971D02*
X80893561Y-182286352D01*
X80893561Y-182286352D02*
X80750704Y-182286352D01*
X80750704Y-182286352D02*
X80655466Y-182333971D01*
X107001419Y-158191295D02*
X107810942Y-158191295D01*
X107810942Y-158191295D02*
X107906180Y-158238914D01*
X107906180Y-158238914D02*
X107953800Y-158286533D01*
X107953800Y-158286533D02*
X108001419Y-158381771D01*
X108001419Y-158381771D02*
X108001419Y-158572247D01*
X108001419Y-158572247D02*
X107953800Y-158667485D01*
X107953800Y-158667485D02*
X107906180Y-158715104D01*
X107906180Y-158715104D02*
X107810942Y-158762723D01*
X107810942Y-158762723D02*
X107001419Y-158762723D01*
X108001419Y-159762723D02*
X108001419Y-159191295D01*
X108001419Y-159477009D02*
X107001419Y-159477009D01*
X107001419Y-159477009D02*
X107144276Y-159381771D01*
X107144276Y-159381771D02*
X107239514Y-159286533D01*
X107239514Y-159286533D02*
X107287133Y-159191295D01*
X111737468Y-144943198D02*
X111764405Y-144862385D01*
X111764405Y-144862385D02*
X111845218Y-144781573D01*
X111845218Y-144781573D02*
X111952967Y-144727698D01*
X111952967Y-144727698D02*
X112060717Y-144727698D01*
X112060717Y-144727698D02*
X112141529Y-144754636D01*
X112141529Y-144754636D02*
X112276216Y-144835448D01*
X112276216Y-144835448D02*
X112357028Y-144916260D01*
X112357028Y-144916260D02*
X112437841Y-145050947D01*
X112437841Y-145050947D02*
X112464778Y-145131760D01*
X112464778Y-145131760D02*
X112464778Y-145239509D01*
X112464778Y-145239509D02*
X112410903Y-145347259D01*
X112410903Y-145347259D02*
X112357028Y-145401134D01*
X112357028Y-145401134D02*
X112249279Y-145455008D01*
X112249279Y-145455008D02*
X112195404Y-145455008D01*
X112195404Y-145455008D02*
X112006842Y-145266447D01*
X112006842Y-145266447D02*
X112114592Y-145158697D01*
X112006842Y-145751320D02*
X111441157Y-145185634D01*
X111441157Y-145185634D02*
X111225657Y-145401134D01*
X111225657Y-145401134D02*
X111198720Y-145481946D01*
X111198720Y-145481946D02*
X111198720Y-145535821D01*
X111198720Y-145535821D02*
X111225657Y-145616633D01*
X111225657Y-145616633D02*
X111306470Y-145697445D01*
X111306470Y-145697445D02*
X111387282Y-145724382D01*
X111387282Y-145724382D02*
X111441157Y-145724382D01*
X111441157Y-145724382D02*
X111521969Y-145697445D01*
X111521969Y-145697445D02*
X111737468Y-145481946D01*
X110956283Y-145778257D02*
X110902409Y-145778257D01*
X110902409Y-145778257D02*
X110821596Y-145805195D01*
X110821596Y-145805195D02*
X110686909Y-145939882D01*
X110686909Y-145939882D02*
X110659972Y-146020694D01*
X110659972Y-146020694D02*
X110659972Y-146074569D01*
X110659972Y-146074569D02*
X110686909Y-146155381D01*
X110686909Y-146155381D02*
X110740784Y-146209256D01*
X110740784Y-146209256D02*
X110848534Y-146263130D01*
X110848534Y-146263130D02*
X111495031Y-146263130D01*
X111495031Y-146263130D02*
X111144845Y-146613317D01*
X110390598Y-146236193D02*
X110013474Y-146613317D01*
X110013474Y-146613317D02*
X110821596Y-146936566D01*
X106950310Y-145791851D02*
X106869498Y-145333916D01*
X107273559Y-145468603D02*
X106707874Y-144902917D01*
X106707874Y-144902917D02*
X106492375Y-145118416D01*
X106492375Y-145118416D02*
X106465437Y-145199229D01*
X106465437Y-145199229D02*
X106465437Y-145253103D01*
X106465437Y-145253103D02*
X106492375Y-145333916D01*
X106492375Y-145333916D02*
X106573187Y-145414728D01*
X106573187Y-145414728D02*
X106653999Y-145441665D01*
X106653999Y-145441665D02*
X106707874Y-145441665D01*
X106707874Y-145441665D02*
X106788686Y-145414728D01*
X106788686Y-145414728D02*
X107004185Y-145199229D01*
X106142188Y-145468603D02*
X106600124Y-145926538D01*
X106600124Y-145926538D02*
X106627062Y-146007351D01*
X106627062Y-146007351D02*
X106627062Y-146061225D01*
X106627062Y-146061225D02*
X106600124Y-146142038D01*
X106600124Y-146142038D02*
X106492375Y-146249787D01*
X106492375Y-146249787D02*
X106411562Y-146276725D01*
X106411562Y-146276725D02*
X106357688Y-146276725D01*
X106357688Y-146276725D02*
X106276875Y-146249787D01*
X106276875Y-146249787D02*
X105818940Y-145791851D01*
X106115251Y-146626911D02*
X105549566Y-146061225D01*
X105549566Y-146061225D02*
X105792002Y-146950159D01*
X105792002Y-146950159D02*
X105226317Y-146384474D01*
X99047468Y-171051198D02*
X99074405Y-170970385D01*
X99074405Y-170970385D02*
X99155218Y-170889573D01*
X99155218Y-170889573D02*
X99262967Y-170835698D01*
X99262967Y-170835698D02*
X99370717Y-170835698D01*
X99370717Y-170835698D02*
X99451529Y-170862636D01*
X99451529Y-170862636D02*
X99586216Y-170943448D01*
X99586216Y-170943448D02*
X99667028Y-171024260D01*
X99667028Y-171024260D02*
X99747841Y-171158947D01*
X99747841Y-171158947D02*
X99774778Y-171239760D01*
X99774778Y-171239760D02*
X99774778Y-171347509D01*
X99774778Y-171347509D02*
X99720903Y-171455259D01*
X99720903Y-171455259D02*
X99667028Y-171509134D01*
X99667028Y-171509134D02*
X99559279Y-171563008D01*
X99559279Y-171563008D02*
X99505404Y-171563008D01*
X99505404Y-171563008D02*
X99316842Y-171374447D01*
X99316842Y-171374447D02*
X99424592Y-171266697D01*
X99316842Y-171859320D02*
X98751157Y-171293634D01*
X98751157Y-171293634D02*
X98535657Y-171509134D01*
X98535657Y-171509134D02*
X98508720Y-171589946D01*
X98508720Y-171589946D02*
X98508720Y-171643821D01*
X98508720Y-171643821D02*
X98535657Y-171724633D01*
X98535657Y-171724633D02*
X98616470Y-171805445D01*
X98616470Y-171805445D02*
X98697282Y-171832382D01*
X98697282Y-171832382D02*
X98751157Y-171832382D01*
X98751157Y-171832382D02*
X98831969Y-171805445D01*
X98831969Y-171805445D02*
X99047468Y-171589946D01*
X98454845Y-172721317D02*
X98778094Y-172398068D01*
X98616470Y-172559692D02*
X98050784Y-171994007D01*
X98050784Y-171994007D02*
X98185471Y-172020944D01*
X98185471Y-172020944D02*
X98293221Y-172020944D01*
X98293221Y-172020944D02*
X98374033Y-171994007D01*
X97538973Y-172505818D02*
X97485099Y-172559692D01*
X97485099Y-172559692D02*
X97458161Y-172640505D01*
X97458161Y-172640505D02*
X97458161Y-172694379D01*
X97458161Y-172694379D02*
X97485099Y-172775192D01*
X97485099Y-172775192D02*
X97565911Y-172909879D01*
X97565911Y-172909879D02*
X97700598Y-173044566D01*
X97700598Y-173044566D02*
X97835285Y-173125378D01*
X97835285Y-173125378D02*
X97916097Y-173152315D01*
X97916097Y-173152315D02*
X97969972Y-173152315D01*
X97969972Y-173152315D02*
X98050784Y-173125378D01*
X98050784Y-173125378D02*
X98104659Y-173071503D01*
X98104659Y-173071503D02*
X98131596Y-172990691D01*
X98131596Y-172990691D02*
X98131596Y-172936816D01*
X98131596Y-172936816D02*
X98104659Y-172856004D01*
X98104659Y-172856004D02*
X98023847Y-172721317D01*
X98023847Y-172721317D02*
X97889160Y-172586630D01*
X97889160Y-172586630D02*
X97754473Y-172505818D01*
X97754473Y-172505818D02*
X97673660Y-172478880D01*
X97673660Y-172478880D02*
X97619786Y-172478880D01*
X97619786Y-172478880D02*
X97538973Y-172505818D01*
X129268094Y-171166572D02*
X129295031Y-171085760D01*
X129295031Y-171085760D02*
X129375843Y-171004948D01*
X129375843Y-171004948D02*
X129483593Y-170951073D01*
X129483593Y-170951073D02*
X129591342Y-170951073D01*
X129591342Y-170951073D02*
X129672155Y-170978010D01*
X129672155Y-170978010D02*
X129806842Y-171058823D01*
X129806842Y-171058823D02*
X129887654Y-171139635D01*
X129887654Y-171139635D02*
X129968466Y-171274322D01*
X129968466Y-171274322D02*
X129995403Y-171355134D01*
X129995403Y-171355134D02*
X129995403Y-171462884D01*
X129995403Y-171462884D02*
X129941529Y-171570633D01*
X129941529Y-171570633D02*
X129887654Y-171624508D01*
X129887654Y-171624508D02*
X129779904Y-171678383D01*
X129779904Y-171678383D02*
X129726029Y-171678383D01*
X129726029Y-171678383D02*
X129537468Y-171489821D01*
X129537468Y-171489821D02*
X129645217Y-171382071D01*
X129537468Y-171974694D02*
X128971782Y-171409009D01*
X128971782Y-171409009D02*
X128756283Y-171624508D01*
X128756283Y-171624508D02*
X128729346Y-171705320D01*
X128729346Y-171705320D02*
X128729346Y-171759195D01*
X128729346Y-171759195D02*
X128756283Y-171840007D01*
X128756283Y-171840007D02*
X128837095Y-171920819D01*
X128837095Y-171920819D02*
X128917907Y-171947757D01*
X128917907Y-171947757D02*
X128971782Y-171947757D01*
X128971782Y-171947757D02*
X129052594Y-171920819D01*
X129052594Y-171920819D02*
X129268094Y-171705320D01*
X128675471Y-172836691D02*
X128998720Y-172513442D01*
X128837095Y-172675067D02*
X128271410Y-172109381D01*
X128271410Y-172109381D02*
X128406097Y-172136319D01*
X128406097Y-172136319D02*
X128513846Y-172136319D01*
X128513846Y-172136319D02*
X128594659Y-172109381D01*
X93967468Y-171197198D02*
X93994405Y-171116385D01*
X93994405Y-171116385D02*
X94075218Y-171035573D01*
X94075218Y-171035573D02*
X94182967Y-170981698D01*
X94182967Y-170981698D02*
X94290717Y-170981698D01*
X94290717Y-170981698D02*
X94371529Y-171008636D01*
X94371529Y-171008636D02*
X94506216Y-171089448D01*
X94506216Y-171089448D02*
X94587028Y-171170260D01*
X94587028Y-171170260D02*
X94667841Y-171304947D01*
X94667841Y-171304947D02*
X94694778Y-171385760D01*
X94694778Y-171385760D02*
X94694778Y-171493509D01*
X94694778Y-171493509D02*
X94640903Y-171601259D01*
X94640903Y-171601259D02*
X94587028Y-171655134D01*
X94587028Y-171655134D02*
X94479279Y-171709008D01*
X94479279Y-171709008D02*
X94425404Y-171709008D01*
X94425404Y-171709008D02*
X94236842Y-171520447D01*
X94236842Y-171520447D02*
X94344592Y-171412697D01*
X94236842Y-172005320D02*
X93671157Y-171439634D01*
X93671157Y-171439634D02*
X93455657Y-171655134D01*
X93455657Y-171655134D02*
X93428720Y-171735946D01*
X93428720Y-171735946D02*
X93428720Y-171789821D01*
X93428720Y-171789821D02*
X93455657Y-171870633D01*
X93455657Y-171870633D02*
X93536470Y-171951445D01*
X93536470Y-171951445D02*
X93617282Y-171978382D01*
X93617282Y-171978382D02*
X93671157Y-171978382D01*
X93671157Y-171978382D02*
X93751969Y-171951445D01*
X93751969Y-171951445D02*
X93967468Y-171735946D01*
X93374845Y-172867317D02*
X93698094Y-172544068D01*
X93536470Y-172705692D02*
X92970784Y-172140007D01*
X92970784Y-172140007D02*
X93105471Y-172166944D01*
X93105471Y-172166944D02*
X93213221Y-172166944D01*
X93213221Y-172166944D02*
X93294033Y-172140007D01*
X92647535Y-172571005D02*
X92593660Y-172571005D01*
X92593660Y-172571005D02*
X92512848Y-172597943D01*
X92512848Y-172597943D02*
X92378161Y-172732630D01*
X92378161Y-172732630D02*
X92351224Y-172813442D01*
X92351224Y-172813442D02*
X92351224Y-172867317D01*
X92351224Y-172867317D02*
X92378161Y-172948129D01*
X92378161Y-172948129D02*
X92432036Y-173002004D01*
X92432036Y-173002004D02*
X92539786Y-173055879D01*
X92539786Y-173055879D02*
X93186283Y-173055879D01*
X93186283Y-173055879D02*
X92836097Y-173406065D01*
X129796842Y-144473949D02*
X130173966Y-145228196D01*
X130173966Y-145228196D02*
X129419718Y-144851073D01*
X129796842Y-145551445D02*
X129742967Y-145659195D01*
X129742967Y-145659195D02*
X129608280Y-145793882D01*
X129608280Y-145793882D02*
X129527468Y-145820819D01*
X129527468Y-145820819D02*
X129473593Y-145820819D01*
X129473593Y-145820819D02*
X129392781Y-145793882D01*
X129392781Y-145793882D02*
X129338906Y-145740007D01*
X129338906Y-145740007D02*
X129311969Y-145659195D01*
X129311969Y-145659195D02*
X129311969Y-145605320D01*
X129311969Y-145605320D02*
X129338906Y-145524508D01*
X129338906Y-145524508D02*
X129419718Y-145389821D01*
X129419718Y-145389821D02*
X129446656Y-145309008D01*
X129446656Y-145309008D02*
X129446656Y-145255134D01*
X129446656Y-145255134D02*
X129419718Y-145174321D01*
X129419718Y-145174321D02*
X129365844Y-145120447D01*
X129365844Y-145120447D02*
X129285031Y-145093509D01*
X129285031Y-145093509D02*
X129231157Y-145093509D01*
X129231157Y-145093509D02*
X129150344Y-145120447D01*
X129150344Y-145120447D02*
X129015657Y-145255134D01*
X129015657Y-145255134D02*
X128961783Y-145362883D01*
X128880970Y-145982444D02*
X129150344Y-146251818D01*
X128773221Y-145497570D02*
X128880970Y-145982444D01*
X128880970Y-145982444D02*
X128396097Y-145874694D01*
X128773221Y-146575066D02*
X128719346Y-146682816D01*
X128719346Y-146682816D02*
X128584659Y-146817503D01*
X128584659Y-146817503D02*
X128503847Y-146844440D01*
X128503847Y-146844440D02*
X128449972Y-146844440D01*
X128449972Y-146844440D02*
X128369160Y-146817503D01*
X128369160Y-146817503D02*
X128315285Y-146763628D01*
X128315285Y-146763628D02*
X128288348Y-146682816D01*
X128288348Y-146682816D02*
X128288348Y-146628941D01*
X128288348Y-146628941D02*
X128315285Y-146548129D01*
X128315285Y-146548129D02*
X128396097Y-146413442D01*
X128396097Y-146413442D02*
X128423035Y-146332630D01*
X128423035Y-146332630D02*
X128423035Y-146278755D01*
X128423035Y-146278755D02*
X128396097Y-146197943D01*
X128396097Y-146197943D02*
X128342222Y-146144068D01*
X128342222Y-146144068D02*
X128261410Y-146117130D01*
X128261410Y-146117130D02*
X128207535Y-146117130D01*
X128207535Y-146117130D02*
X128126723Y-146144068D01*
X128126723Y-146144068D02*
X127992036Y-146278755D01*
X127992036Y-146278755D02*
X127938161Y-146386504D01*
X86347468Y-171097198D02*
X86374405Y-171016385D01*
X86374405Y-171016385D02*
X86455218Y-170935573D01*
X86455218Y-170935573D02*
X86562967Y-170881698D01*
X86562967Y-170881698D02*
X86670717Y-170881698D01*
X86670717Y-170881698D02*
X86751529Y-170908636D01*
X86751529Y-170908636D02*
X86886216Y-170989448D01*
X86886216Y-170989448D02*
X86967028Y-171070260D01*
X86967028Y-171070260D02*
X87047841Y-171204947D01*
X87047841Y-171204947D02*
X87074778Y-171285760D01*
X87074778Y-171285760D02*
X87074778Y-171393509D01*
X87074778Y-171393509D02*
X87020903Y-171501259D01*
X87020903Y-171501259D02*
X86967028Y-171555134D01*
X86967028Y-171555134D02*
X86859279Y-171609008D01*
X86859279Y-171609008D02*
X86805404Y-171609008D01*
X86805404Y-171609008D02*
X86616842Y-171420447D01*
X86616842Y-171420447D02*
X86724592Y-171312697D01*
X86616842Y-171905320D02*
X86051157Y-171339634D01*
X86051157Y-171339634D02*
X85835657Y-171555134D01*
X85835657Y-171555134D02*
X85808720Y-171635946D01*
X85808720Y-171635946D02*
X85808720Y-171689821D01*
X85808720Y-171689821D02*
X85835657Y-171770633D01*
X85835657Y-171770633D02*
X85916470Y-171851445D01*
X85916470Y-171851445D02*
X85997282Y-171878382D01*
X85997282Y-171878382D02*
X86051157Y-171878382D01*
X86051157Y-171878382D02*
X86131969Y-171851445D01*
X86131969Y-171851445D02*
X86347468Y-171635946D01*
X85754845Y-172767317D02*
X86078094Y-172444068D01*
X85916470Y-172605692D02*
X85350784Y-172040007D01*
X85350784Y-172040007D02*
X85485471Y-172066944D01*
X85485471Y-172066944D02*
X85593221Y-172066944D01*
X85593221Y-172066944D02*
X85674033Y-172040007D01*
X84892848Y-172875066D02*
X85269972Y-173252190D01*
X84812036Y-172524880D02*
X85350784Y-172794254D01*
X85350784Y-172794254D02*
X85000598Y-173144440D01*
X101345031Y-171039635D02*
X101371968Y-170958823D01*
X101371968Y-170958823D02*
X101452780Y-170878011D01*
X101452780Y-170878011D02*
X101560530Y-170824136D01*
X101560530Y-170824136D02*
X101668280Y-170824136D01*
X101668280Y-170824136D02*
X101749092Y-170851073D01*
X101749092Y-170851073D02*
X101883779Y-170931885D01*
X101883779Y-170931885D02*
X101964591Y-171012698D01*
X101964591Y-171012698D02*
X102045403Y-171147385D01*
X102045403Y-171147385D02*
X102072341Y-171228197D01*
X102072341Y-171228197D02*
X102072341Y-171335946D01*
X102072341Y-171335946D02*
X102018466Y-171443696D01*
X102018466Y-171443696D02*
X101964591Y-171497571D01*
X101964591Y-171497571D02*
X101856841Y-171551446D01*
X101856841Y-171551446D02*
X101802967Y-171551446D01*
X101802967Y-171551446D02*
X101614405Y-171362884D01*
X101614405Y-171362884D02*
X101722154Y-171255134D01*
X101614405Y-171847757D02*
X101048719Y-171282072D01*
X101048719Y-171282072D02*
X101291156Y-172171006D01*
X101291156Y-172171006D02*
X100725471Y-171605320D01*
X101021782Y-172440380D02*
X100456097Y-171874694D01*
X100456097Y-171874694D02*
X100321410Y-172009381D01*
X100321410Y-172009381D02*
X100267535Y-172117131D01*
X100267535Y-172117131D02*
X100267535Y-172224880D01*
X100267535Y-172224880D02*
X100294472Y-172305693D01*
X100294472Y-172305693D02*
X100375285Y-172440380D01*
X100375285Y-172440380D02*
X100456097Y-172521192D01*
X100456097Y-172521192D02*
X100590784Y-172602004D01*
X100590784Y-172602004D02*
X100671596Y-172628941D01*
X100671596Y-172628941D02*
X100779346Y-172628941D01*
X100779346Y-172628941D02*
X100887095Y-172575067D01*
X100887095Y-172575067D02*
X101021782Y-172440380D01*
X104127468Y-144943198D02*
X104154405Y-144862385D01*
X104154405Y-144862385D02*
X104235218Y-144781573D01*
X104235218Y-144781573D02*
X104342967Y-144727698D01*
X104342967Y-144727698D02*
X104450717Y-144727698D01*
X104450717Y-144727698D02*
X104531529Y-144754636D01*
X104531529Y-144754636D02*
X104666216Y-144835448D01*
X104666216Y-144835448D02*
X104747028Y-144916260D01*
X104747028Y-144916260D02*
X104827841Y-145050947D01*
X104827841Y-145050947D02*
X104854778Y-145131760D01*
X104854778Y-145131760D02*
X104854778Y-145239509D01*
X104854778Y-145239509D02*
X104800903Y-145347259D01*
X104800903Y-145347259D02*
X104747028Y-145401134D01*
X104747028Y-145401134D02*
X104639279Y-145455008D01*
X104639279Y-145455008D02*
X104585404Y-145455008D01*
X104585404Y-145455008D02*
X104396842Y-145266447D01*
X104396842Y-145266447D02*
X104504592Y-145158697D01*
X104396842Y-145751320D02*
X103831157Y-145185634D01*
X103831157Y-145185634D02*
X103615657Y-145401134D01*
X103615657Y-145401134D02*
X103588720Y-145481946D01*
X103588720Y-145481946D02*
X103588720Y-145535821D01*
X103588720Y-145535821D02*
X103615657Y-145616633D01*
X103615657Y-145616633D02*
X103696470Y-145697445D01*
X103696470Y-145697445D02*
X103777282Y-145724382D01*
X103777282Y-145724382D02*
X103831157Y-145724382D01*
X103831157Y-145724382D02*
X103911969Y-145697445D01*
X103911969Y-145697445D02*
X104127468Y-145481946D01*
X103346283Y-145778257D02*
X103292409Y-145778257D01*
X103292409Y-145778257D02*
X103211596Y-145805195D01*
X103211596Y-145805195D02*
X103076909Y-145939882D01*
X103076909Y-145939882D02*
X103049972Y-146020694D01*
X103049972Y-146020694D02*
X103049972Y-146074569D01*
X103049972Y-146074569D02*
X103076909Y-146155381D01*
X103076909Y-146155381D02*
X103130784Y-146209256D01*
X103130784Y-146209256D02*
X103238534Y-146263130D01*
X103238534Y-146263130D02*
X103885031Y-146263130D01*
X103885031Y-146263130D02*
X103534845Y-146613317D01*
X102807535Y-146317005D02*
X102753660Y-146317005D01*
X102753660Y-146317005D02*
X102672848Y-146343943D01*
X102672848Y-146343943D02*
X102538161Y-146478630D01*
X102538161Y-146478630D02*
X102511224Y-146559442D01*
X102511224Y-146559442D02*
X102511224Y-146613317D01*
X102511224Y-146613317D02*
X102538161Y-146694129D01*
X102538161Y-146694129D02*
X102592036Y-146748004D01*
X102592036Y-146748004D02*
X102699786Y-146801879D01*
X102699786Y-146801879D02*
X103346283Y-146801879D01*
X103346283Y-146801879D02*
X102996097Y-147152065D01*
X99037468Y-144943198D02*
X99064405Y-144862385D01*
X99064405Y-144862385D02*
X99145218Y-144781573D01*
X99145218Y-144781573D02*
X99252967Y-144727698D01*
X99252967Y-144727698D02*
X99360717Y-144727698D01*
X99360717Y-144727698D02*
X99441529Y-144754636D01*
X99441529Y-144754636D02*
X99576216Y-144835448D01*
X99576216Y-144835448D02*
X99657028Y-144916260D01*
X99657028Y-144916260D02*
X99737841Y-145050947D01*
X99737841Y-145050947D02*
X99764778Y-145131760D01*
X99764778Y-145131760D02*
X99764778Y-145239509D01*
X99764778Y-145239509D02*
X99710903Y-145347259D01*
X99710903Y-145347259D02*
X99657028Y-145401134D01*
X99657028Y-145401134D02*
X99549279Y-145455008D01*
X99549279Y-145455008D02*
X99495404Y-145455008D01*
X99495404Y-145455008D02*
X99306842Y-145266447D01*
X99306842Y-145266447D02*
X99414592Y-145158697D01*
X99306842Y-145751320D02*
X98741157Y-145185634D01*
X98741157Y-145185634D02*
X98525657Y-145401134D01*
X98525657Y-145401134D02*
X98498720Y-145481946D01*
X98498720Y-145481946D02*
X98498720Y-145535821D01*
X98498720Y-145535821D02*
X98525657Y-145616633D01*
X98525657Y-145616633D02*
X98606470Y-145697445D01*
X98606470Y-145697445D02*
X98687282Y-145724382D01*
X98687282Y-145724382D02*
X98741157Y-145724382D01*
X98741157Y-145724382D02*
X98821969Y-145697445D01*
X98821969Y-145697445D02*
X99037468Y-145481946D01*
X98256283Y-145778257D02*
X98202409Y-145778257D01*
X98202409Y-145778257D02*
X98121596Y-145805195D01*
X98121596Y-145805195D02*
X97986909Y-145939882D01*
X97986909Y-145939882D02*
X97959972Y-146020694D01*
X97959972Y-146020694D02*
X97959972Y-146074569D01*
X97959972Y-146074569D02*
X97986909Y-146155381D01*
X97986909Y-146155381D02*
X98040784Y-146209256D01*
X98040784Y-146209256D02*
X98148534Y-146263130D01*
X98148534Y-146263130D02*
X98795031Y-146263130D01*
X98795031Y-146263130D02*
X98444845Y-146613317D01*
X97906097Y-147152065D02*
X98229346Y-146828816D01*
X98067721Y-146990440D02*
X97502036Y-146424755D01*
X97502036Y-146424755D02*
X97636723Y-146451692D01*
X97636723Y-146451692D02*
X97744473Y-146451692D01*
X97744473Y-146451692D02*
X97825285Y-146424755D01*
X111478094Y-171066572D02*
X111505031Y-170985760D01*
X111505031Y-170985760D02*
X111585843Y-170904948D01*
X111585843Y-170904948D02*
X111693593Y-170851073D01*
X111693593Y-170851073D02*
X111801342Y-170851073D01*
X111801342Y-170851073D02*
X111882155Y-170878010D01*
X111882155Y-170878010D02*
X112016842Y-170958823D01*
X112016842Y-170958823D02*
X112097654Y-171039635D01*
X112097654Y-171039635D02*
X112178466Y-171174322D01*
X112178466Y-171174322D02*
X112205403Y-171255134D01*
X112205403Y-171255134D02*
X112205403Y-171362884D01*
X112205403Y-171362884D02*
X112151529Y-171470633D01*
X112151529Y-171470633D02*
X112097654Y-171524508D01*
X112097654Y-171524508D02*
X111989904Y-171578383D01*
X111989904Y-171578383D02*
X111936029Y-171578383D01*
X111936029Y-171578383D02*
X111747468Y-171389821D01*
X111747468Y-171389821D02*
X111855217Y-171282071D01*
X111747468Y-171874694D02*
X111181782Y-171309009D01*
X111181782Y-171309009D02*
X110966283Y-171524508D01*
X110966283Y-171524508D02*
X110939346Y-171605320D01*
X110939346Y-171605320D02*
X110939346Y-171659195D01*
X110939346Y-171659195D02*
X110966283Y-171740007D01*
X110966283Y-171740007D02*
X111047095Y-171820819D01*
X111047095Y-171820819D02*
X111127907Y-171847757D01*
X111127907Y-171847757D02*
X111181782Y-171847757D01*
X111181782Y-171847757D02*
X111262594Y-171820819D01*
X111262594Y-171820819D02*
X111478094Y-171605320D01*
X110373660Y-172117131D02*
X110481410Y-172009381D01*
X110481410Y-172009381D02*
X110562222Y-171982444D01*
X110562222Y-171982444D02*
X110616097Y-171982444D01*
X110616097Y-171982444D02*
X110750784Y-172009381D01*
X110750784Y-172009381D02*
X110885471Y-172090193D01*
X110885471Y-172090193D02*
X111100970Y-172305693D01*
X111100970Y-172305693D02*
X111127907Y-172386505D01*
X111127907Y-172386505D02*
X111127907Y-172440380D01*
X111127907Y-172440380D02*
X111100970Y-172521192D01*
X111100970Y-172521192D02*
X110993220Y-172628941D01*
X110993220Y-172628941D02*
X110912408Y-172655879D01*
X110912408Y-172655879D02*
X110858533Y-172655879D01*
X110858533Y-172655879D02*
X110777721Y-172628941D01*
X110777721Y-172628941D02*
X110643034Y-172494254D01*
X110643034Y-172494254D02*
X110616097Y-172413442D01*
X110616097Y-172413442D02*
X110616097Y-172359567D01*
X110616097Y-172359567D02*
X110643034Y-172278755D01*
X110643034Y-172278755D02*
X110750784Y-172171006D01*
X110750784Y-172171006D02*
X110831596Y-172144068D01*
X110831596Y-172144068D02*
X110885471Y-172144068D01*
X110885471Y-172144068D02*
X110966283Y-172171006D01*
X91427468Y-144943198D02*
X91454405Y-144862385D01*
X91454405Y-144862385D02*
X91535218Y-144781573D01*
X91535218Y-144781573D02*
X91642967Y-144727698D01*
X91642967Y-144727698D02*
X91750717Y-144727698D01*
X91750717Y-144727698D02*
X91831529Y-144754636D01*
X91831529Y-144754636D02*
X91966216Y-144835448D01*
X91966216Y-144835448D02*
X92047028Y-144916260D01*
X92047028Y-144916260D02*
X92127841Y-145050947D01*
X92127841Y-145050947D02*
X92154778Y-145131760D01*
X92154778Y-145131760D02*
X92154778Y-145239509D01*
X92154778Y-145239509D02*
X92100903Y-145347259D01*
X92100903Y-145347259D02*
X92047028Y-145401134D01*
X92047028Y-145401134D02*
X91939279Y-145455008D01*
X91939279Y-145455008D02*
X91885404Y-145455008D01*
X91885404Y-145455008D02*
X91696842Y-145266447D01*
X91696842Y-145266447D02*
X91804592Y-145158697D01*
X91696842Y-145751320D02*
X91131157Y-145185634D01*
X91131157Y-145185634D02*
X90915657Y-145401134D01*
X90915657Y-145401134D02*
X90888720Y-145481946D01*
X90888720Y-145481946D02*
X90888720Y-145535821D01*
X90888720Y-145535821D02*
X90915657Y-145616633D01*
X90915657Y-145616633D02*
X90996470Y-145697445D01*
X90996470Y-145697445D02*
X91077282Y-145724382D01*
X91077282Y-145724382D02*
X91131157Y-145724382D01*
X91131157Y-145724382D02*
X91211969Y-145697445D01*
X91211969Y-145697445D02*
X91427468Y-145481946D01*
X90834845Y-146613317D02*
X91158094Y-146290068D01*
X90996470Y-146451692D02*
X90430784Y-145886007D01*
X90430784Y-145886007D02*
X90565471Y-145912944D01*
X90565471Y-145912944D02*
X90673221Y-145912944D01*
X90673221Y-145912944D02*
X90754033Y-145886007D01*
X90188347Y-146613317D02*
X90215285Y-146532505D01*
X90215285Y-146532505D02*
X90215285Y-146478630D01*
X90215285Y-146478630D02*
X90188347Y-146397818D01*
X90188347Y-146397818D02*
X90161410Y-146370880D01*
X90161410Y-146370880D02*
X90080598Y-146343943D01*
X90080598Y-146343943D02*
X90026723Y-146343943D01*
X90026723Y-146343943D02*
X89945911Y-146370880D01*
X89945911Y-146370880D02*
X89838161Y-146478630D01*
X89838161Y-146478630D02*
X89811224Y-146559442D01*
X89811224Y-146559442D02*
X89811224Y-146613317D01*
X89811224Y-146613317D02*
X89838161Y-146694129D01*
X89838161Y-146694129D02*
X89865099Y-146721066D01*
X89865099Y-146721066D02*
X89945911Y-146748004D01*
X89945911Y-146748004D02*
X89999786Y-146748004D01*
X89999786Y-146748004D02*
X90080598Y-146721066D01*
X90080598Y-146721066D02*
X90188347Y-146613317D01*
X90188347Y-146613317D02*
X90269160Y-146586379D01*
X90269160Y-146586379D02*
X90323034Y-146586379D01*
X90323034Y-146586379D02*
X90403847Y-146613317D01*
X90403847Y-146613317D02*
X90511596Y-146721066D01*
X90511596Y-146721066D02*
X90538534Y-146801879D01*
X90538534Y-146801879D02*
X90538534Y-146855753D01*
X90538534Y-146855753D02*
X90511596Y-146936566D01*
X90511596Y-146936566D02*
X90403847Y-147044315D01*
X90403847Y-147044315D02*
X90323034Y-147071253D01*
X90323034Y-147071253D02*
X90269160Y-147071253D01*
X90269160Y-147071253D02*
X90188347Y-147044315D01*
X90188347Y-147044315D02*
X90080598Y-146936566D01*
X90080598Y-146936566D02*
X90053660Y-146855753D01*
X90053660Y-146855753D02*
X90053660Y-146801879D01*
X90053660Y-146801879D02*
X90080598Y-146721066D01*
X124178094Y-171166572D02*
X124205031Y-171085760D01*
X124205031Y-171085760D02*
X124285843Y-171004948D01*
X124285843Y-171004948D02*
X124393593Y-170951073D01*
X124393593Y-170951073D02*
X124501342Y-170951073D01*
X124501342Y-170951073D02*
X124582155Y-170978010D01*
X124582155Y-170978010D02*
X124716842Y-171058823D01*
X124716842Y-171058823D02*
X124797654Y-171139635D01*
X124797654Y-171139635D02*
X124878466Y-171274322D01*
X124878466Y-171274322D02*
X124905403Y-171355134D01*
X124905403Y-171355134D02*
X124905403Y-171462884D01*
X124905403Y-171462884D02*
X124851529Y-171570633D01*
X124851529Y-171570633D02*
X124797654Y-171624508D01*
X124797654Y-171624508D02*
X124689904Y-171678383D01*
X124689904Y-171678383D02*
X124636029Y-171678383D01*
X124636029Y-171678383D02*
X124447468Y-171489821D01*
X124447468Y-171489821D02*
X124555217Y-171382071D01*
X124447468Y-171974694D02*
X123881782Y-171409009D01*
X123881782Y-171409009D02*
X123666283Y-171624508D01*
X123666283Y-171624508D02*
X123639346Y-171705320D01*
X123639346Y-171705320D02*
X123639346Y-171759195D01*
X123639346Y-171759195D02*
X123666283Y-171840007D01*
X123666283Y-171840007D02*
X123747095Y-171920819D01*
X123747095Y-171920819D02*
X123827907Y-171947757D01*
X123827907Y-171947757D02*
X123881782Y-171947757D01*
X123881782Y-171947757D02*
X123962594Y-171920819D01*
X123962594Y-171920819D02*
X124178094Y-171705320D01*
X123396909Y-172001632D02*
X123343034Y-172001632D01*
X123343034Y-172001632D02*
X123262222Y-172028569D01*
X123262222Y-172028569D02*
X123127535Y-172163256D01*
X123127535Y-172163256D02*
X123100598Y-172244068D01*
X123100598Y-172244068D02*
X123100598Y-172297943D01*
X123100598Y-172297943D02*
X123127535Y-172378755D01*
X123127535Y-172378755D02*
X123181410Y-172432630D01*
X123181410Y-172432630D02*
X123289159Y-172486505D01*
X123289159Y-172486505D02*
X123935657Y-172486505D01*
X123935657Y-172486505D02*
X123585471Y-172836691D01*
X93967468Y-144943198D02*
X93994405Y-144862385D01*
X93994405Y-144862385D02*
X94075218Y-144781573D01*
X94075218Y-144781573D02*
X94182967Y-144727698D01*
X94182967Y-144727698D02*
X94290717Y-144727698D01*
X94290717Y-144727698D02*
X94371529Y-144754636D01*
X94371529Y-144754636D02*
X94506216Y-144835448D01*
X94506216Y-144835448D02*
X94587028Y-144916260D01*
X94587028Y-144916260D02*
X94667841Y-145050947D01*
X94667841Y-145050947D02*
X94694778Y-145131760D01*
X94694778Y-145131760D02*
X94694778Y-145239509D01*
X94694778Y-145239509D02*
X94640903Y-145347259D01*
X94640903Y-145347259D02*
X94587028Y-145401134D01*
X94587028Y-145401134D02*
X94479279Y-145455008D01*
X94479279Y-145455008D02*
X94425404Y-145455008D01*
X94425404Y-145455008D02*
X94236842Y-145266447D01*
X94236842Y-145266447D02*
X94344592Y-145158697D01*
X94236842Y-145751320D02*
X93671157Y-145185634D01*
X93671157Y-145185634D02*
X93455657Y-145401134D01*
X93455657Y-145401134D02*
X93428720Y-145481946D01*
X93428720Y-145481946D02*
X93428720Y-145535821D01*
X93428720Y-145535821D02*
X93455657Y-145616633D01*
X93455657Y-145616633D02*
X93536470Y-145697445D01*
X93536470Y-145697445D02*
X93617282Y-145724382D01*
X93617282Y-145724382D02*
X93671157Y-145724382D01*
X93671157Y-145724382D02*
X93751969Y-145697445D01*
X93751969Y-145697445D02*
X93967468Y-145481946D01*
X93374845Y-146613317D02*
X93698094Y-146290068D01*
X93536470Y-146451692D02*
X92970784Y-145886007D01*
X92970784Y-145886007D02*
X93105471Y-145912944D01*
X93105471Y-145912944D02*
X93213221Y-145912944D01*
X93213221Y-145912944D02*
X93294033Y-145886007D01*
X93105471Y-146882691D02*
X92997721Y-146990440D01*
X92997721Y-146990440D02*
X92916909Y-147017378D01*
X92916909Y-147017378D02*
X92863034Y-147017378D01*
X92863034Y-147017378D02*
X92728347Y-146990440D01*
X92728347Y-146990440D02*
X92593660Y-146909628D01*
X92593660Y-146909628D02*
X92378161Y-146694129D01*
X92378161Y-146694129D02*
X92351224Y-146613317D01*
X92351224Y-146613317D02*
X92351224Y-146559442D01*
X92351224Y-146559442D02*
X92378161Y-146478630D01*
X92378161Y-146478630D02*
X92485911Y-146370880D01*
X92485911Y-146370880D02*
X92566723Y-146343943D01*
X92566723Y-146343943D02*
X92620598Y-146343943D01*
X92620598Y-146343943D02*
X92701410Y-146370880D01*
X92701410Y-146370880D02*
X92836097Y-146505567D01*
X92836097Y-146505567D02*
X92863034Y-146586379D01*
X92863034Y-146586379D02*
X92863034Y-146640254D01*
X92863034Y-146640254D02*
X92836097Y-146721066D01*
X92836097Y-146721066D02*
X92728347Y-146828816D01*
X92728347Y-146828816D02*
X92647535Y-146855753D01*
X92647535Y-146855753D02*
X92593660Y-146855753D01*
X92593660Y-146855753D02*
X92512848Y-146828816D01*
X96507468Y-144943198D02*
X96534405Y-144862385D01*
X96534405Y-144862385D02*
X96615218Y-144781573D01*
X96615218Y-144781573D02*
X96722967Y-144727698D01*
X96722967Y-144727698D02*
X96830717Y-144727698D01*
X96830717Y-144727698D02*
X96911529Y-144754636D01*
X96911529Y-144754636D02*
X97046216Y-144835448D01*
X97046216Y-144835448D02*
X97127028Y-144916260D01*
X97127028Y-144916260D02*
X97207841Y-145050947D01*
X97207841Y-145050947D02*
X97234778Y-145131760D01*
X97234778Y-145131760D02*
X97234778Y-145239509D01*
X97234778Y-145239509D02*
X97180903Y-145347259D01*
X97180903Y-145347259D02*
X97127028Y-145401134D01*
X97127028Y-145401134D02*
X97019279Y-145455008D01*
X97019279Y-145455008D02*
X96965404Y-145455008D01*
X96965404Y-145455008D02*
X96776842Y-145266447D01*
X96776842Y-145266447D02*
X96884592Y-145158697D01*
X96776842Y-145751320D02*
X96211157Y-145185634D01*
X96211157Y-145185634D02*
X95995657Y-145401134D01*
X95995657Y-145401134D02*
X95968720Y-145481946D01*
X95968720Y-145481946D02*
X95968720Y-145535821D01*
X95968720Y-145535821D02*
X95995657Y-145616633D01*
X95995657Y-145616633D02*
X96076470Y-145697445D01*
X96076470Y-145697445D02*
X96157282Y-145724382D01*
X96157282Y-145724382D02*
X96211157Y-145724382D01*
X96211157Y-145724382D02*
X96291969Y-145697445D01*
X96291969Y-145697445D02*
X96507468Y-145481946D01*
X95726283Y-145778257D02*
X95672409Y-145778257D01*
X95672409Y-145778257D02*
X95591596Y-145805195D01*
X95591596Y-145805195D02*
X95456909Y-145939882D01*
X95456909Y-145939882D02*
X95429972Y-146020694D01*
X95429972Y-146020694D02*
X95429972Y-146074569D01*
X95429972Y-146074569D02*
X95456909Y-146155381D01*
X95456909Y-146155381D02*
X95510784Y-146209256D01*
X95510784Y-146209256D02*
X95618534Y-146263130D01*
X95618534Y-146263130D02*
X96265031Y-146263130D01*
X96265031Y-146263130D02*
X95914845Y-146613317D01*
X94998973Y-146397818D02*
X94945099Y-146451692D01*
X94945099Y-146451692D02*
X94918161Y-146532505D01*
X94918161Y-146532505D02*
X94918161Y-146586379D01*
X94918161Y-146586379D02*
X94945099Y-146667192D01*
X94945099Y-146667192D02*
X95025911Y-146801879D01*
X95025911Y-146801879D02*
X95160598Y-146936566D01*
X95160598Y-146936566D02*
X95295285Y-147017378D01*
X95295285Y-147017378D02*
X95376097Y-147044315D01*
X95376097Y-147044315D02*
X95429972Y-147044315D01*
X95429972Y-147044315D02*
X95510784Y-147017378D01*
X95510784Y-147017378D02*
X95564659Y-146963503D01*
X95564659Y-146963503D02*
X95591596Y-146882691D01*
X95591596Y-146882691D02*
X95591596Y-146828816D01*
X95591596Y-146828816D02*
X95564659Y-146748004D01*
X95564659Y-146748004D02*
X95483847Y-146613317D01*
X95483847Y-146613317D02*
X95349160Y-146478630D01*
X95349160Y-146478630D02*
X95214473Y-146397818D01*
X95214473Y-146397818D02*
X95133660Y-146370880D01*
X95133660Y-146370880D02*
X95079786Y-146370880D01*
X95079786Y-146370880D02*
X94998973Y-146397818D01*
X126745031Y-171039635D02*
X126771968Y-170958823D01*
X126771968Y-170958823D02*
X126852780Y-170878011D01*
X126852780Y-170878011D02*
X126960530Y-170824136D01*
X126960530Y-170824136D02*
X127068280Y-170824136D01*
X127068280Y-170824136D02*
X127149092Y-170851073D01*
X127149092Y-170851073D02*
X127283779Y-170931885D01*
X127283779Y-170931885D02*
X127364591Y-171012698D01*
X127364591Y-171012698D02*
X127445403Y-171147385D01*
X127445403Y-171147385D02*
X127472341Y-171228197D01*
X127472341Y-171228197D02*
X127472341Y-171335946D01*
X127472341Y-171335946D02*
X127418466Y-171443696D01*
X127418466Y-171443696D02*
X127364591Y-171497571D01*
X127364591Y-171497571D02*
X127256841Y-171551446D01*
X127256841Y-171551446D02*
X127202967Y-171551446D01*
X127202967Y-171551446D02*
X127014405Y-171362884D01*
X127014405Y-171362884D02*
X127122154Y-171255134D01*
X127014405Y-171847757D02*
X126448719Y-171282072D01*
X126448719Y-171282072D02*
X126691156Y-172171006D01*
X126691156Y-172171006D02*
X126125471Y-171605320D01*
X126421782Y-172440380D02*
X125856097Y-171874694D01*
X125856097Y-171874694D02*
X125721410Y-172009381D01*
X125721410Y-172009381D02*
X125667535Y-172117131D01*
X125667535Y-172117131D02*
X125667535Y-172224880D01*
X125667535Y-172224880D02*
X125694472Y-172305693D01*
X125694472Y-172305693D02*
X125775285Y-172440380D01*
X125775285Y-172440380D02*
X125856097Y-172521192D01*
X125856097Y-172521192D02*
X125990784Y-172602004D01*
X125990784Y-172602004D02*
X126071596Y-172628941D01*
X126071596Y-172628941D02*
X126179346Y-172628941D01*
X126179346Y-172628941D02*
X126287095Y-172575067D01*
X126287095Y-172575067D02*
X126421782Y-172440380D01*
X88645031Y-171039635D02*
X88671968Y-170958823D01*
X88671968Y-170958823D02*
X88752780Y-170878011D01*
X88752780Y-170878011D02*
X88860530Y-170824136D01*
X88860530Y-170824136D02*
X88968280Y-170824136D01*
X88968280Y-170824136D02*
X89049092Y-170851073D01*
X89049092Y-170851073D02*
X89183779Y-170931885D01*
X89183779Y-170931885D02*
X89264591Y-171012698D01*
X89264591Y-171012698D02*
X89345403Y-171147385D01*
X89345403Y-171147385D02*
X89372341Y-171228197D01*
X89372341Y-171228197D02*
X89372341Y-171335946D01*
X89372341Y-171335946D02*
X89318466Y-171443696D01*
X89318466Y-171443696D02*
X89264591Y-171497571D01*
X89264591Y-171497571D02*
X89156841Y-171551446D01*
X89156841Y-171551446D02*
X89102967Y-171551446D01*
X89102967Y-171551446D02*
X88914405Y-171362884D01*
X88914405Y-171362884D02*
X89022154Y-171255134D01*
X88914405Y-171847757D02*
X88348719Y-171282072D01*
X88348719Y-171282072D02*
X88591156Y-172171006D01*
X88591156Y-172171006D02*
X88025471Y-171605320D01*
X88321782Y-172440380D02*
X87756097Y-171874694D01*
X87756097Y-171874694D02*
X87621410Y-172009381D01*
X87621410Y-172009381D02*
X87567535Y-172117131D01*
X87567535Y-172117131D02*
X87567535Y-172224880D01*
X87567535Y-172224880D02*
X87594472Y-172305693D01*
X87594472Y-172305693D02*
X87675285Y-172440380D01*
X87675285Y-172440380D02*
X87756097Y-172521192D01*
X87756097Y-172521192D02*
X87890784Y-172602004D01*
X87890784Y-172602004D02*
X87971596Y-172628941D01*
X87971596Y-172628941D02*
X88079346Y-172628941D01*
X88079346Y-172628941D02*
X88187095Y-172575067D01*
X88187095Y-172575067D02*
X88321782Y-172440380D01*
X121638094Y-171066572D02*
X121665031Y-170985760D01*
X121665031Y-170985760D02*
X121745843Y-170904948D01*
X121745843Y-170904948D02*
X121853593Y-170851073D01*
X121853593Y-170851073D02*
X121961342Y-170851073D01*
X121961342Y-170851073D02*
X122042155Y-170878010D01*
X122042155Y-170878010D02*
X122176842Y-170958823D01*
X122176842Y-170958823D02*
X122257654Y-171039635D01*
X122257654Y-171039635D02*
X122338466Y-171174322D01*
X122338466Y-171174322D02*
X122365403Y-171255134D01*
X122365403Y-171255134D02*
X122365403Y-171362884D01*
X122365403Y-171362884D02*
X122311529Y-171470633D01*
X122311529Y-171470633D02*
X122257654Y-171524508D01*
X122257654Y-171524508D02*
X122149904Y-171578383D01*
X122149904Y-171578383D02*
X122096029Y-171578383D01*
X122096029Y-171578383D02*
X121907468Y-171389821D01*
X121907468Y-171389821D02*
X122015217Y-171282071D01*
X121907468Y-171874694D02*
X121341782Y-171309009D01*
X121341782Y-171309009D02*
X121126283Y-171524508D01*
X121126283Y-171524508D02*
X121099346Y-171605320D01*
X121099346Y-171605320D02*
X121099346Y-171659195D01*
X121099346Y-171659195D02*
X121126283Y-171740007D01*
X121126283Y-171740007D02*
X121207095Y-171820819D01*
X121207095Y-171820819D02*
X121287907Y-171847757D01*
X121287907Y-171847757D02*
X121341782Y-171847757D01*
X121341782Y-171847757D02*
X121422594Y-171820819D01*
X121422594Y-171820819D02*
X121638094Y-171605320D01*
X120829972Y-171820819D02*
X120479785Y-172171006D01*
X120479785Y-172171006D02*
X120883846Y-172197943D01*
X120883846Y-172197943D02*
X120803034Y-172278755D01*
X120803034Y-172278755D02*
X120776097Y-172359567D01*
X120776097Y-172359567D02*
X120776097Y-172413442D01*
X120776097Y-172413442D02*
X120803034Y-172494254D01*
X120803034Y-172494254D02*
X120937721Y-172628941D01*
X120937721Y-172628941D02*
X121018533Y-172655879D01*
X121018533Y-172655879D02*
X121072408Y-172655879D01*
X121072408Y-172655879D02*
X121153220Y-172628941D01*
X121153220Y-172628941D02*
X121314845Y-172467317D01*
X121314845Y-172467317D02*
X121341782Y-172386505D01*
X121341782Y-172386505D02*
X121341782Y-172332630D01*
X131798094Y-171066572D02*
X131825031Y-170985760D01*
X131825031Y-170985760D02*
X131905843Y-170904948D01*
X131905843Y-170904948D02*
X132013593Y-170851073D01*
X132013593Y-170851073D02*
X132121342Y-170851073D01*
X132121342Y-170851073D02*
X132202155Y-170878010D01*
X132202155Y-170878010D02*
X132336842Y-170958823D01*
X132336842Y-170958823D02*
X132417654Y-171039635D01*
X132417654Y-171039635D02*
X132498466Y-171174322D01*
X132498466Y-171174322D02*
X132525403Y-171255134D01*
X132525403Y-171255134D02*
X132525403Y-171362884D01*
X132525403Y-171362884D02*
X132471529Y-171470633D01*
X132471529Y-171470633D02*
X132417654Y-171524508D01*
X132417654Y-171524508D02*
X132309904Y-171578383D01*
X132309904Y-171578383D02*
X132256029Y-171578383D01*
X132256029Y-171578383D02*
X132067468Y-171389821D01*
X132067468Y-171389821D02*
X132175217Y-171282071D01*
X132067468Y-171874694D02*
X131501782Y-171309009D01*
X131501782Y-171309009D02*
X131286283Y-171524508D01*
X131286283Y-171524508D02*
X131259346Y-171605320D01*
X131259346Y-171605320D02*
X131259346Y-171659195D01*
X131259346Y-171659195D02*
X131286283Y-171740007D01*
X131286283Y-171740007D02*
X131367095Y-171820819D01*
X131367095Y-171820819D02*
X131447907Y-171847757D01*
X131447907Y-171847757D02*
X131501782Y-171847757D01*
X131501782Y-171847757D02*
X131582594Y-171820819D01*
X131582594Y-171820819D02*
X131798094Y-171605320D01*
X130828347Y-171982444D02*
X130774472Y-172036319D01*
X130774472Y-172036319D02*
X130747535Y-172117131D01*
X130747535Y-172117131D02*
X130747535Y-172171006D01*
X130747535Y-172171006D02*
X130774472Y-172251818D01*
X130774472Y-172251818D02*
X130855285Y-172386505D01*
X130855285Y-172386505D02*
X130989972Y-172521192D01*
X130989972Y-172521192D02*
X131124659Y-172602004D01*
X131124659Y-172602004D02*
X131205471Y-172628941D01*
X131205471Y-172628941D02*
X131259346Y-172628941D01*
X131259346Y-172628941D02*
X131340158Y-172602004D01*
X131340158Y-172602004D02*
X131394033Y-172548129D01*
X131394033Y-172548129D02*
X131420970Y-172467317D01*
X131420970Y-172467317D02*
X131420970Y-172413442D01*
X131420970Y-172413442D02*
X131394033Y-172332630D01*
X131394033Y-172332630D02*
X131313220Y-172197943D01*
X131313220Y-172197943D02*
X131178533Y-172063256D01*
X131178533Y-172063256D02*
X131043846Y-171982444D01*
X131043846Y-171982444D02*
X130963034Y-171955506D01*
X130963034Y-171955506D02*
X130909159Y-171955506D01*
X130909159Y-171955506D02*
X130828347Y-171982444D01*
X116558094Y-171066572D02*
X116585031Y-170985760D01*
X116585031Y-170985760D02*
X116665843Y-170904948D01*
X116665843Y-170904948D02*
X116773593Y-170851073D01*
X116773593Y-170851073D02*
X116881342Y-170851073D01*
X116881342Y-170851073D02*
X116962155Y-170878010D01*
X116962155Y-170878010D02*
X117096842Y-170958823D01*
X117096842Y-170958823D02*
X117177654Y-171039635D01*
X117177654Y-171039635D02*
X117258466Y-171174322D01*
X117258466Y-171174322D02*
X117285403Y-171255134D01*
X117285403Y-171255134D02*
X117285403Y-171362884D01*
X117285403Y-171362884D02*
X117231529Y-171470633D01*
X117231529Y-171470633D02*
X117177654Y-171524508D01*
X117177654Y-171524508D02*
X117069904Y-171578383D01*
X117069904Y-171578383D02*
X117016029Y-171578383D01*
X117016029Y-171578383D02*
X116827468Y-171389821D01*
X116827468Y-171389821D02*
X116935217Y-171282071D01*
X116827468Y-171874694D02*
X116261782Y-171309009D01*
X116261782Y-171309009D02*
X116046283Y-171524508D01*
X116046283Y-171524508D02*
X116019346Y-171605320D01*
X116019346Y-171605320D02*
X116019346Y-171659195D01*
X116019346Y-171659195D02*
X116046283Y-171740007D01*
X116046283Y-171740007D02*
X116127095Y-171820819D01*
X116127095Y-171820819D02*
X116207907Y-171847757D01*
X116207907Y-171847757D02*
X116261782Y-171847757D01*
X116261782Y-171847757D02*
X116342594Y-171820819D01*
X116342594Y-171820819D02*
X116558094Y-171605320D01*
X115426723Y-172144068D02*
X115696097Y-171874694D01*
X115696097Y-171874694D02*
X115992408Y-172117131D01*
X115992408Y-172117131D02*
X115938533Y-172117131D01*
X115938533Y-172117131D02*
X115857721Y-172144068D01*
X115857721Y-172144068D02*
X115723034Y-172278755D01*
X115723034Y-172278755D02*
X115696097Y-172359567D01*
X115696097Y-172359567D02*
X115696097Y-172413442D01*
X115696097Y-172413442D02*
X115723034Y-172494254D01*
X115723034Y-172494254D02*
X115857721Y-172628941D01*
X115857721Y-172628941D02*
X115938533Y-172655879D01*
X115938533Y-172655879D02*
X115992408Y-172655879D01*
X115992408Y-172655879D02*
X116073220Y-172628941D01*
X116073220Y-172628941D02*
X116207907Y-172494254D01*
X116207907Y-172494254D02*
X116234845Y-172413442D01*
X116234845Y-172413442D02*
X116234845Y-172359567D01*
X81670800Y-151657961D02*
X81708895Y-151772247D01*
X81708895Y-151772247D02*
X81708895Y-151962723D01*
X81708895Y-151962723D02*
X81670800Y-152038914D01*
X81670800Y-152038914D02*
X81632704Y-152077009D01*
X81632704Y-152077009D02*
X81556514Y-152115104D01*
X81556514Y-152115104D02*
X81480323Y-152115104D01*
X81480323Y-152115104D02*
X81404133Y-152077009D01*
X81404133Y-152077009D02*
X81366038Y-152038914D01*
X81366038Y-152038914D02*
X81327942Y-151962723D01*
X81327942Y-151962723D02*
X81289847Y-151810342D01*
X81289847Y-151810342D02*
X81251752Y-151734152D01*
X81251752Y-151734152D02*
X81213657Y-151696057D01*
X81213657Y-151696057D02*
X81137466Y-151657961D01*
X81137466Y-151657961D02*
X81061276Y-151657961D01*
X81061276Y-151657961D02*
X80985085Y-151696057D01*
X80985085Y-151696057D02*
X80946990Y-151734152D01*
X80946990Y-151734152D02*
X80908895Y-151810342D01*
X80908895Y-151810342D02*
X80908895Y-152000819D01*
X80908895Y-152000819D02*
X80946990Y-152115104D01*
X80908895Y-152381771D02*
X81708895Y-152572247D01*
X81708895Y-152572247D02*
X81137466Y-152724628D01*
X81137466Y-152724628D02*
X81708895Y-152877009D01*
X81708895Y-152877009D02*
X80908895Y-153067486D01*
X81708895Y-153372248D02*
X80908895Y-153372248D01*
X80908895Y-153372248D02*
X80908895Y-153562724D01*
X80908895Y-153562724D02*
X80946990Y-153677010D01*
X80946990Y-153677010D02*
X81023180Y-153753200D01*
X81023180Y-153753200D02*
X81099371Y-153791295D01*
X81099371Y-153791295D02*
X81251752Y-153829391D01*
X81251752Y-153829391D02*
X81366038Y-153829391D01*
X81366038Y-153829391D02*
X81518419Y-153791295D01*
X81518419Y-153791295D02*
X81594609Y-153753200D01*
X81594609Y-153753200D02*
X81670800Y-153677010D01*
X81670800Y-153677010D02*
X81708895Y-153562724D01*
X81708895Y-153562724D02*
X81708895Y-153372248D01*
X81708895Y-154172248D02*
X80908895Y-154172248D01*
X80908895Y-154705581D02*
X80908895Y-154857962D01*
X80908895Y-154857962D02*
X80946990Y-154934152D01*
X80946990Y-154934152D02*
X81023180Y-155010343D01*
X81023180Y-155010343D02*
X81175561Y-155048438D01*
X81175561Y-155048438D02*
X81442228Y-155048438D01*
X81442228Y-155048438D02*
X81594609Y-155010343D01*
X81594609Y-155010343D02*
X81670800Y-154934152D01*
X81670800Y-154934152D02*
X81708895Y-154857962D01*
X81708895Y-154857962D02*
X81708895Y-154705581D01*
X81708895Y-154705581D02*
X81670800Y-154629390D01*
X81670800Y-154629390D02*
X81594609Y-154553200D01*
X81594609Y-154553200D02*
X81442228Y-154515104D01*
X81442228Y-154515104D02*
X81175561Y-154515104D01*
X81175561Y-154515104D02*
X81023180Y-154553200D01*
X81023180Y-154553200D02*
X80946990Y-154629390D01*
X80946990Y-154629390D02*
X80908895Y-154705581D01*
X103858094Y-171066572D02*
X103885031Y-170985760D01*
X103885031Y-170985760D02*
X103965843Y-170904948D01*
X103965843Y-170904948D02*
X104073593Y-170851073D01*
X104073593Y-170851073D02*
X104181342Y-170851073D01*
X104181342Y-170851073D02*
X104262155Y-170878010D01*
X104262155Y-170878010D02*
X104396842Y-170958823D01*
X104396842Y-170958823D02*
X104477654Y-171039635D01*
X104477654Y-171039635D02*
X104558466Y-171174322D01*
X104558466Y-171174322D02*
X104585403Y-171255134D01*
X104585403Y-171255134D02*
X104585403Y-171362884D01*
X104585403Y-171362884D02*
X104531529Y-171470633D01*
X104531529Y-171470633D02*
X104477654Y-171524508D01*
X104477654Y-171524508D02*
X104369904Y-171578383D01*
X104369904Y-171578383D02*
X104316029Y-171578383D01*
X104316029Y-171578383D02*
X104127468Y-171389821D01*
X104127468Y-171389821D02*
X104235217Y-171282071D01*
X104127468Y-171874694D02*
X103561782Y-171309009D01*
X103561782Y-171309009D02*
X103346283Y-171524508D01*
X103346283Y-171524508D02*
X103319346Y-171605320D01*
X103319346Y-171605320D02*
X103319346Y-171659195D01*
X103319346Y-171659195D02*
X103346283Y-171740007D01*
X103346283Y-171740007D02*
X103427095Y-171820819D01*
X103427095Y-171820819D02*
X103507907Y-171847757D01*
X103507907Y-171847757D02*
X103561782Y-171847757D01*
X103561782Y-171847757D02*
X103642594Y-171820819D01*
X103642594Y-171820819D02*
X103858094Y-171605320D01*
X103534845Y-172467317D02*
X103427095Y-172575067D01*
X103427095Y-172575067D02*
X103346283Y-172602004D01*
X103346283Y-172602004D02*
X103292408Y-172602004D01*
X103292408Y-172602004D02*
X103157721Y-172575067D01*
X103157721Y-172575067D02*
X103023034Y-172494254D01*
X103023034Y-172494254D02*
X102807535Y-172278755D01*
X102807535Y-172278755D02*
X102780598Y-172197943D01*
X102780598Y-172197943D02*
X102780598Y-172144068D01*
X102780598Y-172144068D02*
X102807535Y-172063256D01*
X102807535Y-172063256D02*
X102915285Y-171955506D01*
X102915285Y-171955506D02*
X102996097Y-171928569D01*
X102996097Y-171928569D02*
X103049972Y-171928569D01*
X103049972Y-171928569D02*
X103130784Y-171955506D01*
X103130784Y-171955506D02*
X103265471Y-172090193D01*
X103265471Y-172090193D02*
X103292408Y-172171006D01*
X103292408Y-172171006D02*
X103292408Y-172224880D01*
X103292408Y-172224880D02*
X103265471Y-172305693D01*
X103265471Y-172305693D02*
X103157721Y-172413442D01*
X103157721Y-172413442D02*
X103076909Y-172440380D01*
X103076909Y-172440380D02*
X103023034Y-172440380D01*
X103023034Y-172440380D02*
X102942222Y-172413442D01*
X117081468Y-144943198D02*
X117108405Y-144862385D01*
X117108405Y-144862385D02*
X117189218Y-144781573D01*
X117189218Y-144781573D02*
X117296967Y-144727698D01*
X117296967Y-144727698D02*
X117404717Y-144727698D01*
X117404717Y-144727698D02*
X117485529Y-144754636D01*
X117485529Y-144754636D02*
X117620216Y-144835448D01*
X117620216Y-144835448D02*
X117701028Y-144916260D01*
X117701028Y-144916260D02*
X117781841Y-145050947D01*
X117781841Y-145050947D02*
X117808778Y-145131760D01*
X117808778Y-145131760D02*
X117808778Y-145239509D01*
X117808778Y-145239509D02*
X117754903Y-145347259D01*
X117754903Y-145347259D02*
X117701028Y-145401134D01*
X117701028Y-145401134D02*
X117593279Y-145455008D01*
X117593279Y-145455008D02*
X117539404Y-145455008D01*
X117539404Y-145455008D02*
X117350842Y-145266447D01*
X117350842Y-145266447D02*
X117458592Y-145158697D01*
X117350842Y-145751320D02*
X116785157Y-145185634D01*
X116785157Y-145185634D02*
X116569657Y-145401134D01*
X116569657Y-145401134D02*
X116542720Y-145481946D01*
X116542720Y-145481946D02*
X116542720Y-145535821D01*
X116542720Y-145535821D02*
X116569657Y-145616633D01*
X116569657Y-145616633D02*
X116650470Y-145697445D01*
X116650470Y-145697445D02*
X116731282Y-145724382D01*
X116731282Y-145724382D02*
X116785157Y-145724382D01*
X116785157Y-145724382D02*
X116865969Y-145697445D01*
X116865969Y-145697445D02*
X117081468Y-145481946D01*
X116300283Y-145778257D02*
X116246409Y-145778257D01*
X116246409Y-145778257D02*
X116165596Y-145805195D01*
X116165596Y-145805195D02*
X116030909Y-145939882D01*
X116030909Y-145939882D02*
X116003972Y-146020694D01*
X116003972Y-146020694D02*
X116003972Y-146074569D01*
X116003972Y-146074569D02*
X116030909Y-146155381D01*
X116030909Y-146155381D02*
X116084784Y-146209256D01*
X116084784Y-146209256D02*
X116192534Y-146263130D01*
X116192534Y-146263130D02*
X116839031Y-146263130D01*
X116839031Y-146263130D02*
X116488845Y-146613317D01*
X115842347Y-146613317D02*
X115869285Y-146532505D01*
X115869285Y-146532505D02*
X115869285Y-146478630D01*
X115869285Y-146478630D02*
X115842347Y-146397818D01*
X115842347Y-146397818D02*
X115815410Y-146370880D01*
X115815410Y-146370880D02*
X115734598Y-146343943D01*
X115734598Y-146343943D02*
X115680723Y-146343943D01*
X115680723Y-146343943D02*
X115599911Y-146370880D01*
X115599911Y-146370880D02*
X115492161Y-146478630D01*
X115492161Y-146478630D02*
X115465224Y-146559442D01*
X115465224Y-146559442D02*
X115465224Y-146613317D01*
X115465224Y-146613317D02*
X115492161Y-146694129D01*
X115492161Y-146694129D02*
X115519099Y-146721066D01*
X115519099Y-146721066D02*
X115599911Y-146748004D01*
X115599911Y-146748004D02*
X115653786Y-146748004D01*
X115653786Y-146748004D02*
X115734598Y-146721066D01*
X115734598Y-146721066D02*
X115842347Y-146613317D01*
X115842347Y-146613317D02*
X115923160Y-146586379D01*
X115923160Y-146586379D02*
X115977034Y-146586379D01*
X115977034Y-146586379D02*
X116057847Y-146613317D01*
X116057847Y-146613317D02*
X116165596Y-146721066D01*
X116165596Y-146721066D02*
X116192534Y-146801879D01*
X116192534Y-146801879D02*
X116192534Y-146855753D01*
X116192534Y-146855753D02*
X116165596Y-146936566D01*
X116165596Y-146936566D02*
X116057847Y-147044315D01*
X116057847Y-147044315D02*
X115977034Y-147071253D01*
X115977034Y-147071253D02*
X115923160Y-147071253D01*
X115923160Y-147071253D02*
X115842347Y-147044315D01*
X115842347Y-147044315D02*
X115734598Y-146936566D01*
X115734598Y-146936566D02*
X115707660Y-146855753D01*
X115707660Y-146855753D02*
X115707660Y-146801879D01*
X115707660Y-146801879D02*
X115734598Y-146721066D01*
X114045031Y-171039635D02*
X114071968Y-170958823D01*
X114071968Y-170958823D02*
X114152780Y-170878011D01*
X114152780Y-170878011D02*
X114260530Y-170824136D01*
X114260530Y-170824136D02*
X114368280Y-170824136D01*
X114368280Y-170824136D02*
X114449092Y-170851073D01*
X114449092Y-170851073D02*
X114583779Y-170931885D01*
X114583779Y-170931885D02*
X114664591Y-171012698D01*
X114664591Y-171012698D02*
X114745403Y-171147385D01*
X114745403Y-171147385D02*
X114772341Y-171228197D01*
X114772341Y-171228197D02*
X114772341Y-171335946D01*
X114772341Y-171335946D02*
X114718466Y-171443696D01*
X114718466Y-171443696D02*
X114664591Y-171497571D01*
X114664591Y-171497571D02*
X114556841Y-171551446D01*
X114556841Y-171551446D02*
X114502967Y-171551446D01*
X114502967Y-171551446D02*
X114314405Y-171362884D01*
X114314405Y-171362884D02*
X114422154Y-171255134D01*
X114314405Y-171847757D02*
X113748719Y-171282072D01*
X113748719Y-171282072D02*
X113991156Y-172171006D01*
X113991156Y-172171006D02*
X113425471Y-171605320D01*
X113721782Y-172440380D02*
X113156097Y-171874694D01*
X113156097Y-171874694D02*
X113021410Y-172009381D01*
X113021410Y-172009381D02*
X112967535Y-172117131D01*
X112967535Y-172117131D02*
X112967535Y-172224880D01*
X112967535Y-172224880D02*
X112994472Y-172305693D01*
X112994472Y-172305693D02*
X113075285Y-172440380D01*
X113075285Y-172440380D02*
X113156097Y-172521192D01*
X113156097Y-172521192D02*
X113290784Y-172602004D01*
X113290784Y-172602004D02*
X113371596Y-172628941D01*
X113371596Y-172628941D02*
X113479346Y-172628941D01*
X113479346Y-172628941D02*
X113587095Y-172575067D01*
X113587095Y-172575067D02*
X113721782Y-172440380D01*
X101345031Y-145439635D02*
X101371968Y-145358823D01*
X101371968Y-145358823D02*
X101452780Y-145278011D01*
X101452780Y-145278011D02*
X101560530Y-145224136D01*
X101560530Y-145224136D02*
X101668280Y-145224136D01*
X101668280Y-145224136D02*
X101749092Y-145251073D01*
X101749092Y-145251073D02*
X101883779Y-145331885D01*
X101883779Y-145331885D02*
X101964591Y-145412698D01*
X101964591Y-145412698D02*
X102045403Y-145547385D01*
X102045403Y-145547385D02*
X102072341Y-145628197D01*
X102072341Y-145628197D02*
X102072341Y-145735946D01*
X102072341Y-145735946D02*
X102018466Y-145843696D01*
X102018466Y-145843696D02*
X101964591Y-145897571D01*
X101964591Y-145897571D02*
X101856841Y-145951446D01*
X101856841Y-145951446D02*
X101802967Y-145951446D01*
X101802967Y-145951446D02*
X101614405Y-145762884D01*
X101614405Y-145762884D02*
X101722154Y-145655134D01*
X101614405Y-146247757D02*
X101048719Y-145682072D01*
X101048719Y-145682072D02*
X101291156Y-146571006D01*
X101291156Y-146571006D02*
X100725471Y-146005320D01*
X101021782Y-146840380D02*
X100456097Y-146274694D01*
X100456097Y-146274694D02*
X100321410Y-146409381D01*
X100321410Y-146409381D02*
X100267535Y-146517131D01*
X100267535Y-146517131D02*
X100267535Y-146624880D01*
X100267535Y-146624880D02*
X100294472Y-146705693D01*
X100294472Y-146705693D02*
X100375285Y-146840380D01*
X100375285Y-146840380D02*
X100456097Y-146921192D01*
X100456097Y-146921192D02*
X100590784Y-147002004D01*
X100590784Y-147002004D02*
X100671596Y-147028941D01*
X100671596Y-147028941D02*
X100779346Y-147028941D01*
X100779346Y-147028941D02*
X100887095Y-146975067D01*
X100887095Y-146975067D02*
X101021782Y-146840380D01*
X83807468Y-144943198D02*
X83834405Y-144862385D01*
X83834405Y-144862385D02*
X83915218Y-144781573D01*
X83915218Y-144781573D02*
X84022967Y-144727698D01*
X84022967Y-144727698D02*
X84130717Y-144727698D01*
X84130717Y-144727698D02*
X84211529Y-144754636D01*
X84211529Y-144754636D02*
X84346216Y-144835448D01*
X84346216Y-144835448D02*
X84427028Y-144916260D01*
X84427028Y-144916260D02*
X84507841Y-145050947D01*
X84507841Y-145050947D02*
X84534778Y-145131760D01*
X84534778Y-145131760D02*
X84534778Y-145239509D01*
X84534778Y-145239509D02*
X84480903Y-145347259D01*
X84480903Y-145347259D02*
X84427028Y-145401134D01*
X84427028Y-145401134D02*
X84319279Y-145455008D01*
X84319279Y-145455008D02*
X84265404Y-145455008D01*
X84265404Y-145455008D02*
X84076842Y-145266447D01*
X84076842Y-145266447D02*
X84184592Y-145158697D01*
X84076842Y-145751320D02*
X83511157Y-145185634D01*
X83511157Y-145185634D02*
X83295657Y-145401134D01*
X83295657Y-145401134D02*
X83268720Y-145481946D01*
X83268720Y-145481946D02*
X83268720Y-145535821D01*
X83268720Y-145535821D02*
X83295657Y-145616633D01*
X83295657Y-145616633D02*
X83376470Y-145697445D01*
X83376470Y-145697445D02*
X83457282Y-145724382D01*
X83457282Y-145724382D02*
X83511157Y-145724382D01*
X83511157Y-145724382D02*
X83591969Y-145697445D01*
X83591969Y-145697445D02*
X83807468Y-145481946D01*
X83214845Y-146613317D02*
X83538094Y-146290068D01*
X83376470Y-146451692D02*
X82810784Y-145886007D01*
X82810784Y-145886007D02*
X82945471Y-145912944D01*
X82945471Y-145912944D02*
X83053221Y-145912944D01*
X83053221Y-145912944D02*
X83134033Y-145886007D01*
X82164286Y-146532505D02*
X82272036Y-146424755D01*
X82272036Y-146424755D02*
X82352848Y-146397818D01*
X82352848Y-146397818D02*
X82406723Y-146397818D01*
X82406723Y-146397818D02*
X82541410Y-146424755D01*
X82541410Y-146424755D02*
X82676097Y-146505567D01*
X82676097Y-146505567D02*
X82891596Y-146721066D01*
X82891596Y-146721066D02*
X82918534Y-146801879D01*
X82918534Y-146801879D02*
X82918534Y-146855753D01*
X82918534Y-146855753D02*
X82891596Y-146936566D01*
X82891596Y-146936566D02*
X82783847Y-147044315D01*
X82783847Y-147044315D02*
X82703034Y-147071253D01*
X82703034Y-147071253D02*
X82649160Y-147071253D01*
X82649160Y-147071253D02*
X82568347Y-147044315D01*
X82568347Y-147044315D02*
X82433660Y-146909628D01*
X82433660Y-146909628D02*
X82406723Y-146828816D01*
X82406723Y-146828816D02*
X82406723Y-146774941D01*
X82406723Y-146774941D02*
X82433660Y-146694129D01*
X82433660Y-146694129D02*
X82541410Y-146586379D01*
X82541410Y-146586379D02*
X82622222Y-146559442D01*
X82622222Y-146559442D02*
X82676097Y-146559442D01*
X82676097Y-146559442D02*
X82756909Y-146586379D01*
X106398094Y-171066572D02*
X106425031Y-170985760D01*
X106425031Y-170985760D02*
X106505843Y-170904948D01*
X106505843Y-170904948D02*
X106613593Y-170851073D01*
X106613593Y-170851073D02*
X106721342Y-170851073D01*
X106721342Y-170851073D02*
X106802155Y-170878010D01*
X106802155Y-170878010D02*
X106936842Y-170958823D01*
X106936842Y-170958823D02*
X107017654Y-171039635D01*
X107017654Y-171039635D02*
X107098466Y-171174322D01*
X107098466Y-171174322D02*
X107125403Y-171255134D01*
X107125403Y-171255134D02*
X107125403Y-171362884D01*
X107125403Y-171362884D02*
X107071529Y-171470633D01*
X107071529Y-171470633D02*
X107017654Y-171524508D01*
X107017654Y-171524508D02*
X106909904Y-171578383D01*
X106909904Y-171578383D02*
X106856029Y-171578383D01*
X106856029Y-171578383D02*
X106667468Y-171389821D01*
X106667468Y-171389821D02*
X106775217Y-171282071D01*
X106667468Y-171874694D02*
X106101782Y-171309009D01*
X106101782Y-171309009D02*
X105886283Y-171524508D01*
X105886283Y-171524508D02*
X105859346Y-171605320D01*
X105859346Y-171605320D02*
X105859346Y-171659195D01*
X105859346Y-171659195D02*
X105886283Y-171740007D01*
X105886283Y-171740007D02*
X105967095Y-171820819D01*
X105967095Y-171820819D02*
X106047907Y-171847757D01*
X106047907Y-171847757D02*
X106101782Y-171847757D01*
X106101782Y-171847757D02*
X106182594Y-171820819D01*
X106182594Y-171820819D02*
X106398094Y-171605320D01*
X105697721Y-172197943D02*
X105724659Y-172117131D01*
X105724659Y-172117131D02*
X105724659Y-172063256D01*
X105724659Y-172063256D02*
X105697721Y-171982444D01*
X105697721Y-171982444D02*
X105670784Y-171955506D01*
X105670784Y-171955506D02*
X105589972Y-171928569D01*
X105589972Y-171928569D02*
X105536097Y-171928569D01*
X105536097Y-171928569D02*
X105455285Y-171955506D01*
X105455285Y-171955506D02*
X105347535Y-172063256D01*
X105347535Y-172063256D02*
X105320598Y-172144068D01*
X105320598Y-172144068D02*
X105320598Y-172197943D01*
X105320598Y-172197943D02*
X105347535Y-172278755D01*
X105347535Y-172278755D02*
X105374472Y-172305693D01*
X105374472Y-172305693D02*
X105455285Y-172332630D01*
X105455285Y-172332630D02*
X105509159Y-172332630D01*
X105509159Y-172332630D02*
X105589972Y-172305693D01*
X105589972Y-172305693D02*
X105697721Y-172197943D01*
X105697721Y-172197943D02*
X105778533Y-172171006D01*
X105778533Y-172171006D02*
X105832408Y-172171006D01*
X105832408Y-172171006D02*
X105913220Y-172197943D01*
X105913220Y-172197943D02*
X106020970Y-172305693D01*
X106020970Y-172305693D02*
X106047907Y-172386505D01*
X106047907Y-172386505D02*
X106047907Y-172440380D01*
X106047907Y-172440380D02*
X106020970Y-172521192D01*
X106020970Y-172521192D02*
X105913220Y-172628941D01*
X105913220Y-172628941D02*
X105832408Y-172655879D01*
X105832408Y-172655879D02*
X105778533Y-172655879D01*
X105778533Y-172655879D02*
X105697721Y-172628941D01*
X105697721Y-172628941D02*
X105589972Y-172521192D01*
X105589972Y-172521192D02*
X105563034Y-172440380D01*
X105563034Y-172440380D02*
X105563034Y-172386505D01*
X105563034Y-172386505D02*
X105589972Y-172305693D01*
X121837468Y-145043323D02*
X121487282Y-145393509D01*
X121487282Y-145393509D02*
X121891343Y-145420447D01*
X121891343Y-145420447D02*
X121810531Y-145501259D01*
X121810531Y-145501259D02*
X121783593Y-145582071D01*
X121783593Y-145582071D02*
X121783593Y-145635946D01*
X121783593Y-145635946D02*
X121810531Y-145716758D01*
X121810531Y-145716758D02*
X121945218Y-145851445D01*
X121945218Y-145851445D02*
X122026030Y-145878382D01*
X122026030Y-145878382D02*
X122079905Y-145878382D01*
X122079905Y-145878382D02*
X122160717Y-145851445D01*
X122160717Y-145851445D02*
X122322341Y-145689821D01*
X122322341Y-145689821D02*
X122349279Y-145609008D01*
X122349279Y-145609008D02*
X122349279Y-145555134D01*
X121325657Y-145555134D02*
X121702781Y-146309381D01*
X121702781Y-146309381D02*
X120948534Y-145932257D01*
X120813847Y-146066944D02*
X120463661Y-146417130D01*
X120463661Y-146417130D02*
X120867722Y-146444068D01*
X120867722Y-146444068D02*
X120786909Y-146524880D01*
X120786909Y-146524880D02*
X120759972Y-146605692D01*
X120759972Y-146605692D02*
X120759972Y-146659567D01*
X120759972Y-146659567D02*
X120786909Y-146740379D01*
X120786909Y-146740379D02*
X120921596Y-146875066D01*
X120921596Y-146875066D02*
X121002409Y-146902004D01*
X121002409Y-146902004D02*
X121056283Y-146902004D01*
X121056283Y-146902004D02*
X121137096Y-146875066D01*
X121137096Y-146875066D02*
X121298720Y-146713442D01*
X121298720Y-146713442D02*
X121325657Y-146632630D01*
X121325657Y-146632630D02*
X121325657Y-146578755D01*
X125905184Y-143475607D02*
X125554998Y-143825793D01*
X125554998Y-143825793D02*
X125959059Y-143852731D01*
X125959059Y-143852731D02*
X125878246Y-143933543D01*
X125878246Y-143933543D02*
X125851309Y-144014355D01*
X125851309Y-144014355D02*
X125851309Y-144068230D01*
X125851309Y-144068230D02*
X125878246Y-144149042D01*
X125878246Y-144149042D02*
X126012933Y-144283729D01*
X126012933Y-144283729D02*
X126093746Y-144310667D01*
X126093746Y-144310667D02*
X126147620Y-144310667D01*
X126147620Y-144310667D02*
X126228433Y-144283729D01*
X126228433Y-144283729D02*
X126390057Y-144122105D01*
X126390057Y-144122105D02*
X126416994Y-144041293D01*
X126416994Y-144041293D02*
X126416994Y-143987418D01*
X125393373Y-143987418D02*
X125770497Y-144741665D01*
X125770497Y-144741665D02*
X125016249Y-144364542D01*
X124881563Y-144499228D02*
X124531376Y-144849415D01*
X124531376Y-144849415D02*
X124935437Y-144876352D01*
X124935437Y-144876352D02*
X124854625Y-144957164D01*
X124854625Y-144957164D02*
X124827688Y-145037976D01*
X124827688Y-145037976D02*
X124827688Y-145091851D01*
X124827688Y-145091851D02*
X124854625Y-145172664D01*
X124854625Y-145172664D02*
X124989312Y-145307351D01*
X124989312Y-145307351D02*
X125070124Y-145334288D01*
X125070124Y-145334288D02*
X125123999Y-145334288D01*
X125123999Y-145334288D02*
X125204811Y-145307351D01*
X125204811Y-145307351D02*
X125366436Y-145145726D01*
X125366436Y-145145726D02*
X125393373Y-145064914D01*
X125393373Y-145064914D02*
X125393373Y-145011039D01*
X125043187Y-145576725D02*
X124612188Y-146007723D01*
X124127315Y-145792224D02*
X123938753Y-145980786D01*
X124154252Y-146357909D02*
X124423626Y-146088535D01*
X124423626Y-146088535D02*
X123857941Y-145522850D01*
X123857941Y-145522850D02*
X123588567Y-145792224D01*
X123911815Y-146600346D02*
X123346130Y-146034661D01*
X123346130Y-146034661D02*
X123588567Y-146923595D01*
X123588567Y-146923595D02*
X123022881Y-146357910D01*
X81670800Y-162843675D02*
X81708895Y-162957961D01*
X81708895Y-162957961D02*
X81708895Y-163148437D01*
X81708895Y-163148437D02*
X81670800Y-163224628D01*
X81670800Y-163224628D02*
X81632704Y-163262723D01*
X81632704Y-163262723D02*
X81556514Y-163300818D01*
X81556514Y-163300818D02*
X81480323Y-163300818D01*
X81480323Y-163300818D02*
X81404133Y-163262723D01*
X81404133Y-163262723D02*
X81366038Y-163224628D01*
X81366038Y-163224628D02*
X81327942Y-163148437D01*
X81327942Y-163148437D02*
X81289847Y-162996056D01*
X81289847Y-162996056D02*
X81251752Y-162919866D01*
X81251752Y-162919866D02*
X81213657Y-162881771D01*
X81213657Y-162881771D02*
X81137466Y-162843675D01*
X81137466Y-162843675D02*
X81061276Y-162843675D01*
X81061276Y-162843675D02*
X80985085Y-162881771D01*
X80985085Y-162881771D02*
X80946990Y-162919866D01*
X80946990Y-162919866D02*
X80908895Y-162996056D01*
X80908895Y-162996056D02*
X80908895Y-163186533D01*
X80908895Y-163186533D02*
X80946990Y-163300818D01*
X80908895Y-163567485D02*
X81708895Y-163757961D01*
X81708895Y-163757961D02*
X81137466Y-163910342D01*
X81137466Y-163910342D02*
X81708895Y-164062723D01*
X81708895Y-164062723D02*
X80908895Y-164253200D01*
X81632704Y-165015105D02*
X81670800Y-164977009D01*
X81670800Y-164977009D02*
X81708895Y-164862724D01*
X81708895Y-164862724D02*
X81708895Y-164786533D01*
X81708895Y-164786533D02*
X81670800Y-164672247D01*
X81670800Y-164672247D02*
X81594609Y-164596057D01*
X81594609Y-164596057D02*
X81518419Y-164557962D01*
X81518419Y-164557962D02*
X81366038Y-164519866D01*
X81366038Y-164519866D02*
X81251752Y-164519866D01*
X81251752Y-164519866D02*
X81099371Y-164557962D01*
X81099371Y-164557962D02*
X81023180Y-164596057D01*
X81023180Y-164596057D02*
X80946990Y-164672247D01*
X80946990Y-164672247D02*
X80908895Y-164786533D01*
X80908895Y-164786533D02*
X80908895Y-164862724D01*
X80908895Y-164862724D02*
X80946990Y-164977009D01*
X80946990Y-164977009D02*
X80985085Y-165015105D01*
X81708895Y-165738914D02*
X81708895Y-165357962D01*
X81708895Y-165357962D02*
X80908895Y-165357962D01*
X81708895Y-166005581D02*
X80908895Y-166005581D01*
X81708895Y-166462724D02*
X81251752Y-166119866D01*
X80908895Y-166462724D02*
X81366038Y-166005581D01*
X109207468Y-144943198D02*
X109234405Y-144862385D01*
X109234405Y-144862385D02*
X109315218Y-144781573D01*
X109315218Y-144781573D02*
X109422967Y-144727698D01*
X109422967Y-144727698D02*
X109530717Y-144727698D01*
X109530717Y-144727698D02*
X109611529Y-144754636D01*
X109611529Y-144754636D02*
X109746216Y-144835448D01*
X109746216Y-144835448D02*
X109827028Y-144916260D01*
X109827028Y-144916260D02*
X109907841Y-145050947D01*
X109907841Y-145050947D02*
X109934778Y-145131760D01*
X109934778Y-145131760D02*
X109934778Y-145239509D01*
X109934778Y-145239509D02*
X109880903Y-145347259D01*
X109880903Y-145347259D02*
X109827028Y-145401134D01*
X109827028Y-145401134D02*
X109719279Y-145455008D01*
X109719279Y-145455008D02*
X109665404Y-145455008D01*
X109665404Y-145455008D02*
X109476842Y-145266447D01*
X109476842Y-145266447D02*
X109584592Y-145158697D01*
X109476842Y-145751320D02*
X108911157Y-145185634D01*
X108911157Y-145185634D02*
X108695657Y-145401134D01*
X108695657Y-145401134D02*
X108668720Y-145481946D01*
X108668720Y-145481946D02*
X108668720Y-145535821D01*
X108668720Y-145535821D02*
X108695657Y-145616633D01*
X108695657Y-145616633D02*
X108776470Y-145697445D01*
X108776470Y-145697445D02*
X108857282Y-145724382D01*
X108857282Y-145724382D02*
X108911157Y-145724382D01*
X108911157Y-145724382D02*
X108991969Y-145697445D01*
X108991969Y-145697445D02*
X109207468Y-145481946D01*
X108426283Y-145778257D02*
X108372409Y-145778257D01*
X108372409Y-145778257D02*
X108291596Y-145805195D01*
X108291596Y-145805195D02*
X108156909Y-145939882D01*
X108156909Y-145939882D02*
X108129972Y-146020694D01*
X108129972Y-146020694D02*
X108129972Y-146074569D01*
X108129972Y-146074569D02*
X108156909Y-146155381D01*
X108156909Y-146155381D02*
X108210784Y-146209256D01*
X108210784Y-146209256D02*
X108318534Y-146263130D01*
X108318534Y-146263130D02*
X108965031Y-146263130D01*
X108965031Y-146263130D02*
X108614845Y-146613317D01*
X107564286Y-146532505D02*
X107672036Y-146424755D01*
X107672036Y-146424755D02*
X107752848Y-146397818D01*
X107752848Y-146397818D02*
X107806723Y-146397818D01*
X107806723Y-146397818D02*
X107941410Y-146424755D01*
X107941410Y-146424755D02*
X108076097Y-146505567D01*
X108076097Y-146505567D02*
X108291596Y-146721066D01*
X108291596Y-146721066D02*
X108318534Y-146801879D01*
X108318534Y-146801879D02*
X108318534Y-146855753D01*
X108318534Y-146855753D02*
X108291596Y-146936566D01*
X108291596Y-146936566D02*
X108183847Y-147044315D01*
X108183847Y-147044315D02*
X108103034Y-147071253D01*
X108103034Y-147071253D02*
X108049160Y-147071253D01*
X108049160Y-147071253D02*
X107968347Y-147044315D01*
X107968347Y-147044315D02*
X107833660Y-146909628D01*
X107833660Y-146909628D02*
X107806723Y-146828816D01*
X107806723Y-146828816D02*
X107806723Y-146774941D01*
X107806723Y-146774941D02*
X107833660Y-146694129D01*
X107833660Y-146694129D02*
X107941410Y-146586379D01*
X107941410Y-146586379D02*
X108022222Y-146559442D01*
X108022222Y-146559442D02*
X108076097Y-146559442D01*
X108076097Y-146559442D02*
X108156909Y-146586379D01*
X86347468Y-144943198D02*
X86374405Y-144862385D01*
X86374405Y-144862385D02*
X86455218Y-144781573D01*
X86455218Y-144781573D02*
X86562967Y-144727698D01*
X86562967Y-144727698D02*
X86670717Y-144727698D01*
X86670717Y-144727698D02*
X86751529Y-144754636D01*
X86751529Y-144754636D02*
X86886216Y-144835448D01*
X86886216Y-144835448D02*
X86967028Y-144916260D01*
X86967028Y-144916260D02*
X87047841Y-145050947D01*
X87047841Y-145050947D02*
X87074778Y-145131760D01*
X87074778Y-145131760D02*
X87074778Y-145239509D01*
X87074778Y-145239509D02*
X87020903Y-145347259D01*
X87020903Y-145347259D02*
X86967028Y-145401134D01*
X86967028Y-145401134D02*
X86859279Y-145455008D01*
X86859279Y-145455008D02*
X86805404Y-145455008D01*
X86805404Y-145455008D02*
X86616842Y-145266447D01*
X86616842Y-145266447D02*
X86724592Y-145158697D01*
X86616842Y-145751320D02*
X86051157Y-145185634D01*
X86051157Y-145185634D02*
X85835657Y-145401134D01*
X85835657Y-145401134D02*
X85808720Y-145481946D01*
X85808720Y-145481946D02*
X85808720Y-145535821D01*
X85808720Y-145535821D02*
X85835657Y-145616633D01*
X85835657Y-145616633D02*
X85916470Y-145697445D01*
X85916470Y-145697445D02*
X85997282Y-145724382D01*
X85997282Y-145724382D02*
X86051157Y-145724382D01*
X86051157Y-145724382D02*
X86131969Y-145697445D01*
X86131969Y-145697445D02*
X86347468Y-145481946D01*
X85754845Y-146613317D02*
X86078094Y-146290068D01*
X85916470Y-146451692D02*
X85350784Y-145886007D01*
X85350784Y-145886007D02*
X85485471Y-145912944D01*
X85485471Y-145912944D02*
X85593221Y-145912944D01*
X85593221Y-145912944D02*
X85674033Y-145886007D01*
X85000598Y-146236193D02*
X84623474Y-146613317D01*
X84623474Y-146613317D02*
X85431596Y-146936566D01*
X83807468Y-171051198D02*
X83834405Y-170970385D01*
X83834405Y-170970385D02*
X83915218Y-170889573D01*
X83915218Y-170889573D02*
X84022967Y-170835698D01*
X84022967Y-170835698D02*
X84130717Y-170835698D01*
X84130717Y-170835698D02*
X84211529Y-170862636D01*
X84211529Y-170862636D02*
X84346216Y-170943448D01*
X84346216Y-170943448D02*
X84427028Y-171024260D01*
X84427028Y-171024260D02*
X84507841Y-171158947D01*
X84507841Y-171158947D02*
X84534778Y-171239760D01*
X84534778Y-171239760D02*
X84534778Y-171347509D01*
X84534778Y-171347509D02*
X84480903Y-171455259D01*
X84480903Y-171455259D02*
X84427028Y-171509134D01*
X84427028Y-171509134D02*
X84319279Y-171563008D01*
X84319279Y-171563008D02*
X84265404Y-171563008D01*
X84265404Y-171563008D02*
X84076842Y-171374447D01*
X84076842Y-171374447D02*
X84184592Y-171266697D01*
X84076842Y-171859320D02*
X83511157Y-171293634D01*
X83511157Y-171293634D02*
X83295657Y-171509134D01*
X83295657Y-171509134D02*
X83268720Y-171589946D01*
X83268720Y-171589946D02*
X83268720Y-171643821D01*
X83268720Y-171643821D02*
X83295657Y-171724633D01*
X83295657Y-171724633D02*
X83376470Y-171805445D01*
X83376470Y-171805445D02*
X83457282Y-171832382D01*
X83457282Y-171832382D02*
X83511157Y-171832382D01*
X83511157Y-171832382D02*
X83591969Y-171805445D01*
X83591969Y-171805445D02*
X83807468Y-171589946D01*
X83214845Y-172721317D02*
X83538094Y-172398068D01*
X83376470Y-172559692D02*
X82810784Y-171994007D01*
X82810784Y-171994007D02*
X82945471Y-172020944D01*
X82945471Y-172020944D02*
X83053221Y-172020944D01*
X83053221Y-172020944D02*
X83134033Y-171994007D01*
X82137349Y-172667442D02*
X82406723Y-172398068D01*
X82406723Y-172398068D02*
X82703034Y-172640505D01*
X82703034Y-172640505D02*
X82649160Y-172640505D01*
X82649160Y-172640505D02*
X82568347Y-172667442D01*
X82568347Y-172667442D02*
X82433660Y-172802129D01*
X82433660Y-172802129D02*
X82406723Y-172882941D01*
X82406723Y-172882941D02*
X82406723Y-172936816D01*
X82406723Y-172936816D02*
X82433660Y-173017628D01*
X82433660Y-173017628D02*
X82568347Y-173152315D01*
X82568347Y-173152315D02*
X82649160Y-173179253D01*
X82649160Y-173179253D02*
X82703034Y-173179253D01*
X82703034Y-173179253D02*
X82783847Y-173152315D01*
X82783847Y-173152315D02*
X82918534Y-173017628D01*
X82918534Y-173017628D02*
X82945471Y-172936816D01*
X82945471Y-172936816D02*
X82945471Y-172882941D01*
X108968094Y-170966572D02*
X108995031Y-170885760D01*
X108995031Y-170885760D02*
X109075843Y-170804948D01*
X109075843Y-170804948D02*
X109183593Y-170751073D01*
X109183593Y-170751073D02*
X109291342Y-170751073D01*
X109291342Y-170751073D02*
X109372155Y-170778010D01*
X109372155Y-170778010D02*
X109506842Y-170858823D01*
X109506842Y-170858823D02*
X109587654Y-170939635D01*
X109587654Y-170939635D02*
X109668466Y-171074322D01*
X109668466Y-171074322D02*
X109695403Y-171155134D01*
X109695403Y-171155134D02*
X109695403Y-171262884D01*
X109695403Y-171262884D02*
X109641529Y-171370633D01*
X109641529Y-171370633D02*
X109587654Y-171424508D01*
X109587654Y-171424508D02*
X109479904Y-171478383D01*
X109479904Y-171478383D02*
X109426029Y-171478383D01*
X109426029Y-171478383D02*
X109237468Y-171289821D01*
X109237468Y-171289821D02*
X109345217Y-171182071D01*
X109237468Y-171774694D02*
X108671782Y-171209009D01*
X108671782Y-171209009D02*
X108456283Y-171424508D01*
X108456283Y-171424508D02*
X108429346Y-171505320D01*
X108429346Y-171505320D02*
X108429346Y-171559195D01*
X108429346Y-171559195D02*
X108456283Y-171640007D01*
X108456283Y-171640007D02*
X108537095Y-171720819D01*
X108537095Y-171720819D02*
X108617907Y-171747757D01*
X108617907Y-171747757D02*
X108671782Y-171747757D01*
X108671782Y-171747757D02*
X108752594Y-171720819D01*
X108752594Y-171720819D02*
X108968094Y-171505320D01*
X108159972Y-171720819D02*
X107782848Y-172097943D01*
X107782848Y-172097943D02*
X108590970Y-172421192D01*
X119098094Y-171066572D02*
X119125031Y-170985760D01*
X119125031Y-170985760D02*
X119205843Y-170904948D01*
X119205843Y-170904948D02*
X119313593Y-170851073D01*
X119313593Y-170851073D02*
X119421342Y-170851073D01*
X119421342Y-170851073D02*
X119502155Y-170878010D01*
X119502155Y-170878010D02*
X119636842Y-170958823D01*
X119636842Y-170958823D02*
X119717654Y-171039635D01*
X119717654Y-171039635D02*
X119798466Y-171174322D01*
X119798466Y-171174322D02*
X119825403Y-171255134D01*
X119825403Y-171255134D02*
X119825403Y-171362884D01*
X119825403Y-171362884D02*
X119771529Y-171470633D01*
X119771529Y-171470633D02*
X119717654Y-171524508D01*
X119717654Y-171524508D02*
X119609904Y-171578383D01*
X119609904Y-171578383D02*
X119556029Y-171578383D01*
X119556029Y-171578383D02*
X119367468Y-171389821D01*
X119367468Y-171389821D02*
X119475217Y-171282071D01*
X119367468Y-171874694D02*
X118801782Y-171309009D01*
X118801782Y-171309009D02*
X118586283Y-171524508D01*
X118586283Y-171524508D02*
X118559346Y-171605320D01*
X118559346Y-171605320D02*
X118559346Y-171659195D01*
X118559346Y-171659195D02*
X118586283Y-171740007D01*
X118586283Y-171740007D02*
X118667095Y-171820819D01*
X118667095Y-171820819D02*
X118747907Y-171847757D01*
X118747907Y-171847757D02*
X118801782Y-171847757D01*
X118801782Y-171847757D02*
X118882594Y-171820819D01*
X118882594Y-171820819D02*
X119098094Y-171605320D01*
X118182222Y-172305693D02*
X118559346Y-172682816D01*
X118101410Y-171955506D02*
X118640158Y-172224880D01*
X118640158Y-172224880D02*
X118289972Y-172575067D01*
X122080649Y-143108264D02*
X121811275Y-143377638D01*
X122296149Y-143216013D02*
X121541901Y-142838890D01*
X121541901Y-142838890D02*
X121919025Y-143593137D01*
X121730463Y-143781699D02*
X121164778Y-143216013D01*
X121164778Y-143216013D02*
X121030091Y-143350700D01*
X121030091Y-143350700D02*
X120976216Y-143458450D01*
X120976216Y-143458450D02*
X120976216Y-143566199D01*
X120976216Y-143566199D02*
X121003153Y-143647012D01*
X121003153Y-143647012D02*
X121083966Y-143781699D01*
X121083966Y-143781699D02*
X121164778Y-143862511D01*
X121164778Y-143862511D02*
X121299465Y-143943323D01*
X121299465Y-143943323D02*
X121380277Y-143970260D01*
X121380277Y-143970260D02*
X121488027Y-143970260D01*
X121488027Y-143970260D02*
X121595776Y-143916386D01*
X121595776Y-143916386D02*
X121730463Y-143781699D01*
X120787654Y-144616758D02*
X120841529Y-144616758D01*
X120841529Y-144616758D02*
X120949279Y-144562883D01*
X120949279Y-144562883D02*
X121003153Y-144509008D01*
X121003153Y-144509008D02*
X121057028Y-144401259D01*
X121057028Y-144401259D02*
X121057028Y-144293509D01*
X121057028Y-144293509D02*
X121030091Y-144212697D01*
X121030091Y-144212697D02*
X120949279Y-144078010D01*
X120949279Y-144078010D02*
X120868466Y-143997198D01*
X120868466Y-143997198D02*
X120733779Y-143916386D01*
X120733779Y-143916386D02*
X120652967Y-143889448D01*
X120652967Y-143889448D02*
X120545218Y-143889448D01*
X120545218Y-143889448D02*
X120437468Y-143943323D01*
X120437468Y-143943323D02*
X120383593Y-143997198D01*
X120383593Y-143997198D02*
X120329718Y-144104947D01*
X120329718Y-144104947D02*
X120329718Y-144158822D01*
X120787654Y-144832257D02*
X120356656Y-145263256D01*
X119683221Y-144697570D02*
X120060344Y-145451818D01*
X120060344Y-145451818D02*
X119306097Y-145074694D01*
X119359972Y-146152190D02*
X119279160Y-145694254D01*
X119683221Y-145828941D02*
X119117535Y-145263256D01*
X119117535Y-145263256D02*
X118902036Y-145478755D01*
X118902036Y-145478755D02*
X118875099Y-145559567D01*
X118875099Y-145559567D02*
X118875099Y-145613442D01*
X118875099Y-145613442D02*
X118902036Y-145694254D01*
X118902036Y-145694254D02*
X118982848Y-145775066D01*
X118982848Y-145775066D02*
X119063661Y-145802004D01*
X119063661Y-145802004D02*
X119117535Y-145802004D01*
X119117535Y-145802004D02*
X119198348Y-145775066D01*
X119198348Y-145775066D02*
X119413847Y-145559567D01*
X118821224Y-146098315D02*
X118632662Y-146286877D01*
X118848161Y-146664000D02*
X119117535Y-146394626D01*
X119117535Y-146394626D02*
X118551850Y-145828941D01*
X118551850Y-145828941D02*
X118282476Y-146098315D01*
X118120851Y-146798688D02*
X118309413Y-146610126D01*
X118605725Y-146906437D02*
X118040039Y-146340752D01*
X118040039Y-146340752D02*
X117770665Y-146610126D01*
X91427468Y-171051198D02*
X91454405Y-170970385D01*
X91454405Y-170970385D02*
X91535218Y-170889573D01*
X91535218Y-170889573D02*
X91642967Y-170835698D01*
X91642967Y-170835698D02*
X91750717Y-170835698D01*
X91750717Y-170835698D02*
X91831529Y-170862636D01*
X91831529Y-170862636D02*
X91966216Y-170943448D01*
X91966216Y-170943448D02*
X92047028Y-171024260D01*
X92047028Y-171024260D02*
X92127841Y-171158947D01*
X92127841Y-171158947D02*
X92154778Y-171239760D01*
X92154778Y-171239760D02*
X92154778Y-171347509D01*
X92154778Y-171347509D02*
X92100903Y-171455259D01*
X92100903Y-171455259D02*
X92047028Y-171509134D01*
X92047028Y-171509134D02*
X91939279Y-171563008D01*
X91939279Y-171563008D02*
X91885404Y-171563008D01*
X91885404Y-171563008D02*
X91696842Y-171374447D01*
X91696842Y-171374447D02*
X91804592Y-171266697D01*
X91696842Y-171859320D02*
X91131157Y-171293634D01*
X91131157Y-171293634D02*
X90915657Y-171509134D01*
X90915657Y-171509134D02*
X90888720Y-171589946D01*
X90888720Y-171589946D02*
X90888720Y-171643821D01*
X90888720Y-171643821D02*
X90915657Y-171724633D01*
X90915657Y-171724633D02*
X90996470Y-171805445D01*
X90996470Y-171805445D02*
X91077282Y-171832382D01*
X91077282Y-171832382D02*
X91131157Y-171832382D01*
X91131157Y-171832382D02*
X91211969Y-171805445D01*
X91211969Y-171805445D02*
X91427468Y-171589946D01*
X90834845Y-172721317D02*
X91158094Y-172398068D01*
X90996470Y-172559692D02*
X90430784Y-171994007D01*
X90430784Y-171994007D02*
X90565471Y-172020944D01*
X90565471Y-172020944D02*
X90673221Y-172020944D01*
X90673221Y-172020944D02*
X90754033Y-171994007D01*
X90080598Y-172344193D02*
X89730412Y-172694379D01*
X89730412Y-172694379D02*
X90134473Y-172721317D01*
X90134473Y-172721317D02*
X90053660Y-172802129D01*
X90053660Y-172802129D02*
X90026723Y-172882941D01*
X90026723Y-172882941D02*
X90026723Y-172936816D01*
X90026723Y-172936816D02*
X90053660Y-173017628D01*
X90053660Y-173017628D02*
X90188347Y-173152315D01*
X90188347Y-173152315D02*
X90269160Y-173179253D01*
X90269160Y-173179253D02*
X90323034Y-173179253D01*
X90323034Y-173179253D02*
X90403847Y-173152315D01*
X90403847Y-173152315D02*
X90565471Y-172990691D01*
X90565471Y-172990691D02*
X90592408Y-172909879D01*
X90592408Y-172909879D02*
X90592408Y-172856004D01*
X126745031Y-145439635D02*
X126771968Y-145358823D01*
X126771968Y-145358823D02*
X126852780Y-145278011D01*
X126852780Y-145278011D02*
X126960530Y-145224136D01*
X126960530Y-145224136D02*
X127068280Y-145224136D01*
X127068280Y-145224136D02*
X127149092Y-145251073D01*
X127149092Y-145251073D02*
X127283779Y-145331885D01*
X127283779Y-145331885D02*
X127364591Y-145412698D01*
X127364591Y-145412698D02*
X127445403Y-145547385D01*
X127445403Y-145547385D02*
X127472341Y-145628197D01*
X127472341Y-145628197D02*
X127472341Y-145735946D01*
X127472341Y-145735946D02*
X127418466Y-145843696D01*
X127418466Y-145843696D02*
X127364591Y-145897571D01*
X127364591Y-145897571D02*
X127256841Y-145951446D01*
X127256841Y-145951446D02*
X127202967Y-145951446D01*
X127202967Y-145951446D02*
X127014405Y-145762884D01*
X127014405Y-145762884D02*
X127122154Y-145655134D01*
X127014405Y-146247757D02*
X126448719Y-145682072D01*
X126448719Y-145682072D02*
X126691156Y-146571006D01*
X126691156Y-146571006D02*
X126125471Y-146005320D01*
X126421782Y-146840380D02*
X125856097Y-146274694D01*
X125856097Y-146274694D02*
X125721410Y-146409381D01*
X125721410Y-146409381D02*
X125667535Y-146517131D01*
X125667535Y-146517131D02*
X125667535Y-146624880D01*
X125667535Y-146624880D02*
X125694472Y-146705693D01*
X125694472Y-146705693D02*
X125775285Y-146840380D01*
X125775285Y-146840380D02*
X125856097Y-146921192D01*
X125856097Y-146921192D02*
X125990784Y-147002004D01*
X125990784Y-147002004D02*
X126071596Y-147028941D01*
X126071596Y-147028941D02*
X126179346Y-147028941D01*
X126179346Y-147028941D02*
X126287095Y-146975067D01*
X126287095Y-146975067D02*
X126421782Y-146840380D01*
X132474185Y-144306606D02*
X132851309Y-145060853D01*
X132851309Y-145060853D02*
X132097062Y-144683729D01*
X131989312Y-145330227D02*
X131935438Y-145437976D01*
X131935438Y-145437976D02*
X131935438Y-145491851D01*
X131935438Y-145491851D02*
X131962375Y-145572663D01*
X131962375Y-145572663D02*
X132043187Y-145653476D01*
X132043187Y-145653476D02*
X132123999Y-145680413D01*
X132123999Y-145680413D02*
X132177874Y-145680413D01*
X132177874Y-145680413D02*
X132258686Y-145653476D01*
X132258686Y-145653476D02*
X132474186Y-145437976D01*
X132474186Y-145437976D02*
X131908500Y-144872291D01*
X131908500Y-144872291D02*
X131719938Y-145060853D01*
X131719938Y-145060853D02*
X131693001Y-145141665D01*
X131693001Y-145141665D02*
X131693001Y-145195540D01*
X131693001Y-145195540D02*
X131719938Y-145276352D01*
X131719938Y-145276352D02*
X131773813Y-145330227D01*
X131773813Y-145330227D02*
X131854625Y-145357164D01*
X131854625Y-145357164D02*
X131908500Y-145357164D01*
X131908500Y-145357164D02*
X131989312Y-145330227D01*
X131989312Y-145330227D02*
X132177874Y-145141665D01*
X131342815Y-145437976D02*
X131800751Y-145895912D01*
X131800751Y-145895912D02*
X131827688Y-145976724D01*
X131827688Y-145976724D02*
X131827688Y-146030599D01*
X131827688Y-146030599D02*
X131800751Y-146111411D01*
X131800751Y-146111411D02*
X131693001Y-146219161D01*
X131693001Y-146219161D02*
X131612189Y-146246098D01*
X131612189Y-146246098D02*
X131558314Y-146246098D01*
X131558314Y-146246098D02*
X131477502Y-146219161D01*
X131477502Y-146219161D02*
X131019566Y-145761225D01*
X131315877Y-146542410D02*
X131262003Y-146650159D01*
X131262003Y-146650159D02*
X131127316Y-146784846D01*
X131127316Y-146784846D02*
X131046503Y-146811784D01*
X131046503Y-146811784D02*
X130992629Y-146811784D01*
X130992629Y-146811784D02*
X130911816Y-146784846D01*
X130911816Y-146784846D02*
X130857942Y-146730971D01*
X130857942Y-146730971D02*
X130831004Y-146650159D01*
X130831004Y-146650159D02*
X130831004Y-146596284D01*
X130831004Y-146596284D02*
X130857942Y-146515472D01*
X130857942Y-146515472D02*
X130938754Y-146380785D01*
X130938754Y-146380785D02*
X130965691Y-146299973D01*
X130965691Y-146299973D02*
X130965691Y-146246098D01*
X130965691Y-146246098D02*
X130938754Y-146165286D01*
X130938754Y-146165286D02*
X130884879Y-146111411D01*
X130884879Y-146111411D02*
X130804067Y-146084474D01*
X130804067Y-146084474D02*
X130750192Y-146084474D01*
X130750192Y-146084474D02*
X130669380Y-146111411D01*
X130669380Y-146111411D02*
X130534693Y-146246098D01*
X130534693Y-146246098D02*
X130480818Y-146353848D01*
X88645031Y-145439635D02*
X88671968Y-145358823D01*
X88671968Y-145358823D02*
X88752780Y-145278011D01*
X88752780Y-145278011D02*
X88860530Y-145224136D01*
X88860530Y-145224136D02*
X88968280Y-145224136D01*
X88968280Y-145224136D02*
X89049092Y-145251073D01*
X89049092Y-145251073D02*
X89183779Y-145331885D01*
X89183779Y-145331885D02*
X89264591Y-145412698D01*
X89264591Y-145412698D02*
X89345403Y-145547385D01*
X89345403Y-145547385D02*
X89372341Y-145628197D01*
X89372341Y-145628197D02*
X89372341Y-145735946D01*
X89372341Y-145735946D02*
X89318466Y-145843696D01*
X89318466Y-145843696D02*
X89264591Y-145897571D01*
X89264591Y-145897571D02*
X89156841Y-145951446D01*
X89156841Y-145951446D02*
X89102967Y-145951446D01*
X89102967Y-145951446D02*
X88914405Y-145762884D01*
X88914405Y-145762884D02*
X89022154Y-145655134D01*
X88914405Y-146247757D02*
X88348719Y-145682072D01*
X88348719Y-145682072D02*
X88591156Y-146571006D01*
X88591156Y-146571006D02*
X88025471Y-146005320D01*
X88321782Y-146840380D02*
X87756097Y-146274694D01*
X87756097Y-146274694D02*
X87621410Y-146409381D01*
X87621410Y-146409381D02*
X87567535Y-146517131D01*
X87567535Y-146517131D02*
X87567535Y-146624880D01*
X87567535Y-146624880D02*
X87594472Y-146705693D01*
X87594472Y-146705693D02*
X87675285Y-146840380D01*
X87675285Y-146840380D02*
X87756097Y-146921192D01*
X87756097Y-146921192D02*
X87890784Y-147002004D01*
X87890784Y-147002004D02*
X87971596Y-147028941D01*
X87971596Y-147028941D02*
X88079346Y-147028941D01*
X88079346Y-147028941D02*
X88187095Y-146975067D01*
X88187095Y-146975067D02*
X88321782Y-146840380D01*
X114987840Y-144997073D02*
X114718466Y-145266447D01*
X115203339Y-145104823D02*
X114449092Y-144727699D01*
X114449092Y-144727699D02*
X114826215Y-145481946D01*
X113802594Y-145428071D02*
X113829532Y-145347259D01*
X113829532Y-145347259D02*
X113910344Y-145266447D01*
X113910344Y-145266447D02*
X114018094Y-145212572D01*
X114018094Y-145212572D02*
X114125843Y-145212572D01*
X114125843Y-145212572D02*
X114206655Y-145239510D01*
X114206655Y-145239510D02*
X114341342Y-145320322D01*
X114341342Y-145320322D02*
X114422155Y-145401134D01*
X114422155Y-145401134D02*
X114502967Y-145535821D01*
X114502967Y-145535821D02*
X114529904Y-145616633D01*
X114529904Y-145616633D02*
X114529904Y-145724383D01*
X114529904Y-145724383D02*
X114476029Y-145832132D01*
X114476029Y-145832132D02*
X114422155Y-145886007D01*
X114422155Y-145886007D02*
X114314405Y-145939882D01*
X114314405Y-145939882D02*
X114260530Y-145939882D01*
X114260530Y-145939882D02*
X114071968Y-145751320D01*
X114071968Y-145751320D02*
X114179718Y-145643571D01*
X114071968Y-146236193D02*
X113506283Y-145670508D01*
X113506283Y-145670508D02*
X113748720Y-146559442D01*
X113748720Y-146559442D02*
X113183034Y-145993757D01*
X113479346Y-146828816D02*
X112913660Y-146263131D01*
X112913660Y-146263131D02*
X112778973Y-146397818D01*
X112778973Y-146397818D02*
X112725098Y-146505567D01*
X112725098Y-146505567D02*
X112725098Y-146613317D01*
X112725098Y-146613317D02*
X112752036Y-146694129D01*
X112752036Y-146694129D02*
X112832848Y-146828816D01*
X112832848Y-146828816D02*
X112913660Y-146909628D01*
X112913660Y-146909628D02*
X113048347Y-146990441D01*
X113048347Y-146990441D02*
X113129160Y-147017378D01*
X113129160Y-147017378D02*
X113236909Y-147017378D01*
X113236909Y-147017378D02*
X113344659Y-146963503D01*
X113344659Y-146963503D02*
X113479346Y-146828816D01*
X96507468Y-171197198D02*
X96534405Y-171116385D01*
X96534405Y-171116385D02*
X96615218Y-171035573D01*
X96615218Y-171035573D02*
X96722967Y-170981698D01*
X96722967Y-170981698D02*
X96830717Y-170981698D01*
X96830717Y-170981698D02*
X96911529Y-171008636D01*
X96911529Y-171008636D02*
X97046216Y-171089448D01*
X97046216Y-171089448D02*
X97127028Y-171170260D01*
X97127028Y-171170260D02*
X97207841Y-171304947D01*
X97207841Y-171304947D02*
X97234778Y-171385760D01*
X97234778Y-171385760D02*
X97234778Y-171493509D01*
X97234778Y-171493509D02*
X97180903Y-171601259D01*
X97180903Y-171601259D02*
X97127028Y-171655134D01*
X97127028Y-171655134D02*
X97019279Y-171709008D01*
X97019279Y-171709008D02*
X96965404Y-171709008D01*
X96965404Y-171709008D02*
X96776842Y-171520447D01*
X96776842Y-171520447D02*
X96884592Y-171412697D01*
X96776842Y-172005320D02*
X96211157Y-171439634D01*
X96211157Y-171439634D02*
X95995657Y-171655134D01*
X95995657Y-171655134D02*
X95968720Y-171735946D01*
X95968720Y-171735946D02*
X95968720Y-171789821D01*
X95968720Y-171789821D02*
X95995657Y-171870633D01*
X95995657Y-171870633D02*
X96076470Y-171951445D01*
X96076470Y-171951445D02*
X96157282Y-171978382D01*
X96157282Y-171978382D02*
X96211157Y-171978382D01*
X96211157Y-171978382D02*
X96291969Y-171951445D01*
X96291969Y-171951445D02*
X96507468Y-171735946D01*
X95914845Y-172867317D02*
X96238094Y-172544068D01*
X96076470Y-172705692D02*
X95510784Y-172140007D01*
X95510784Y-172140007D02*
X95645471Y-172166944D01*
X95645471Y-172166944D02*
X95753221Y-172166944D01*
X95753221Y-172166944D02*
X95834033Y-172140007D01*
X95376097Y-173406065D02*
X95699346Y-173082816D01*
X95537721Y-173244440D02*
X94972036Y-172678755D01*
X94972036Y-172678755D02*
X95106723Y-172705692D01*
X95106723Y-172705692D02*
X95214473Y-172705692D01*
X95214473Y-172705692D02*
X95295285Y-172678755D01*
X123781019Y-130075323D02*
X124495304Y-130075323D01*
X124495304Y-130075323D02*
X124638161Y-130027704D01*
X124638161Y-130027704D02*
X124733400Y-129932466D01*
X124733400Y-129932466D02*
X124781019Y-129789609D01*
X124781019Y-129789609D02*
X124781019Y-129694371D01*
X123781019Y-130456276D02*
X123781019Y-131122942D01*
X123781019Y-131122942D02*
X124781019Y-130694371D01*
X124876257Y-131265800D02*
X124876257Y-132027704D01*
X124781019Y-132265800D02*
X123781019Y-132265800D01*
X123781019Y-132265800D02*
X123781019Y-132503895D01*
X123781019Y-132503895D02*
X123828638Y-132646752D01*
X123828638Y-132646752D02*
X123923876Y-132741990D01*
X123923876Y-132741990D02*
X124019114Y-132789609D01*
X124019114Y-132789609D02*
X124209590Y-132837228D01*
X124209590Y-132837228D02*
X124352447Y-132837228D01*
X124352447Y-132837228D02*
X124542923Y-132789609D01*
X124542923Y-132789609D02*
X124638161Y-132741990D01*
X124638161Y-132741990D02*
X124733400Y-132646752D01*
X124733400Y-132646752D02*
X124781019Y-132503895D01*
X124781019Y-132503895D02*
X124781019Y-132265800D01*
X124733400Y-133218181D02*
X124781019Y-133361038D01*
X124781019Y-133361038D02*
X124781019Y-133599133D01*
X124781019Y-133599133D02*
X124733400Y-133694371D01*
X124733400Y-133694371D02*
X124685780Y-133741990D01*
X124685780Y-133741990D02*
X124590542Y-133789609D01*
X124590542Y-133789609D02*
X124495304Y-133789609D01*
X124495304Y-133789609D02*
X124400066Y-133741990D01*
X124400066Y-133741990D02*
X124352447Y-133694371D01*
X124352447Y-133694371D02*
X124304828Y-133599133D01*
X124304828Y-133599133D02*
X124257209Y-133408657D01*
X124257209Y-133408657D02*
X124209590Y-133313419D01*
X124209590Y-133313419D02*
X124161971Y-133265800D01*
X124161971Y-133265800D02*
X124066733Y-133218181D01*
X124066733Y-133218181D02*
X123971495Y-133218181D01*
X123971495Y-133218181D02*
X123876257Y-133265800D01*
X123876257Y-133265800D02*
X123828638Y-133313419D01*
X123828638Y-133313419D02*
X123781019Y-133408657D01*
X123781019Y-133408657D02*
X123781019Y-133646752D01*
X123781019Y-133646752D02*
X123828638Y-133789609D01*
X123781019Y-134408657D02*
X123781019Y-134599133D01*
X123781019Y-134599133D02*
X123828638Y-134694371D01*
X123828638Y-134694371D02*
X123923876Y-134789609D01*
X123923876Y-134789609D02*
X124114352Y-134837228D01*
X124114352Y-134837228D02*
X124447685Y-134837228D01*
X124447685Y-134837228D02*
X124638161Y-134789609D01*
X124638161Y-134789609D02*
X124733400Y-134694371D01*
X124733400Y-134694371D02*
X124781019Y-134599133D01*
X124781019Y-134599133D02*
X124781019Y-134408657D01*
X124781019Y-134408657D02*
X124733400Y-134313419D01*
X124733400Y-134313419D02*
X124638161Y-134218181D01*
X124638161Y-134218181D02*
X124447685Y-134170562D01*
X124447685Y-134170562D02*
X124114352Y-134170562D01*
X124114352Y-134170562D02*
X123923876Y-134218181D01*
X123923876Y-134218181D02*
X123828638Y-134313419D01*
X123828638Y-134313419D02*
X123781019Y-134408657D01*
X124781019Y-135789609D02*
X124781019Y-135218181D01*
X124781019Y-135503895D02*
X123781019Y-135503895D01*
X123781019Y-135503895D02*
X123923876Y-135408657D01*
X123923876Y-135408657D02*
X124019114Y-135313419D01*
X124019114Y-135313419D02*
X124066733Y-135218181D01*
X129406638Y-152861457D02*
X129501876Y-152813838D01*
X129501876Y-152813838D02*
X129597114Y-152718600D01*
X129597114Y-152718600D02*
X129739971Y-152575742D01*
X129739971Y-152575742D02*
X129835209Y-152528123D01*
X129835209Y-152528123D02*
X129930447Y-152528123D01*
X129882828Y-152766219D02*
X129978066Y-152718600D01*
X129978066Y-152718600D02*
X130073304Y-152623361D01*
X130073304Y-152623361D02*
X130120923Y-152432885D01*
X130120923Y-152432885D02*
X130120923Y-152099552D01*
X130120923Y-152099552D02*
X130073304Y-151909076D01*
X130073304Y-151909076D02*
X129978066Y-151813838D01*
X129978066Y-151813838D02*
X129882828Y-151766219D01*
X129882828Y-151766219D02*
X129692352Y-151766219D01*
X129692352Y-151766219D02*
X129597114Y-151813838D01*
X129597114Y-151813838D02*
X129501876Y-151909076D01*
X129501876Y-151909076D02*
X129454257Y-152099552D01*
X129454257Y-152099552D02*
X129454257Y-152432885D01*
X129454257Y-152432885D02*
X129501876Y-152623361D01*
X129501876Y-152623361D02*
X129597114Y-152718600D01*
X129597114Y-152718600D02*
X129692352Y-152766219D01*
X129692352Y-152766219D02*
X129882828Y-152766219D01*
X128501876Y-152766219D02*
X129073304Y-152766219D01*
X128787590Y-152766219D02*
X128787590Y-151766219D01*
X128787590Y-151766219D02*
X128882828Y-151909076D01*
X128882828Y-151909076D02*
X128978066Y-152004314D01*
X128978066Y-152004314D02*
X129073304Y-152051933D01*
X144420133Y-163529119D02*
X144420133Y-164243404D01*
X144420133Y-164243404D02*
X144467752Y-164386261D01*
X144467752Y-164386261D02*
X144562990Y-164481500D01*
X144562990Y-164481500D02*
X144705847Y-164529119D01*
X144705847Y-164529119D02*
X144801085Y-164529119D01*
X143420133Y-164529119D02*
X143991561Y-164529119D01*
X143705847Y-164529119D02*
X143705847Y-163529119D01*
X143705847Y-163529119D02*
X143801085Y-163671976D01*
X143801085Y-163671976D02*
X143896323Y-163767214D01*
X143896323Y-163767214D02*
X143991561Y-163814833D01*
X78003419Y-183867342D02*
X78717704Y-183867342D01*
X78717704Y-183867342D02*
X78860561Y-183819723D01*
X78860561Y-183819723D02*
X78955800Y-183724485D01*
X78955800Y-183724485D02*
X79003419Y-183581628D01*
X79003419Y-183581628D02*
X79003419Y-183486390D01*
X78003419Y-184248295D02*
X78003419Y-184867342D01*
X78003419Y-184867342D02*
X78384371Y-184534009D01*
X78384371Y-184534009D02*
X78384371Y-184676866D01*
X78384371Y-184676866D02*
X78431990Y-184772104D01*
X78431990Y-184772104D02*
X78479609Y-184819723D01*
X78479609Y-184819723D02*
X78574847Y-184867342D01*
X78574847Y-184867342D02*
X78812942Y-184867342D01*
X78812942Y-184867342D02*
X78908180Y-184819723D01*
X78908180Y-184819723D02*
X78955800Y-184772104D01*
X78955800Y-184772104D02*
X79003419Y-184676866D01*
X79003419Y-184676866D02*
X79003419Y-184391152D01*
X79003419Y-184391152D02*
X78955800Y-184295914D01*
X78955800Y-184295914D02*
X78908180Y-184248295D01*
X79098657Y-185057819D02*
X79098657Y-185819723D01*
X78479609Y-186391152D02*
X78479609Y-186057819D01*
X79003419Y-186057819D02*
X78003419Y-186057819D01*
X78003419Y-186057819D02*
X78003419Y-186534009D01*
X79003419Y-186914962D02*
X78336752Y-186914962D01*
X78003419Y-186914962D02*
X78051038Y-186867343D01*
X78051038Y-186867343D02*
X78098657Y-186914962D01*
X78098657Y-186914962D02*
X78051038Y-186962581D01*
X78051038Y-186962581D02*
X78003419Y-186914962D01*
X78003419Y-186914962D02*
X78098657Y-186914962D01*
X79003419Y-187534009D02*
X78955800Y-187438771D01*
X78955800Y-187438771D02*
X78860561Y-187391152D01*
X78860561Y-187391152D02*
X78003419Y-187391152D01*
X78336752Y-187772105D02*
X78336752Y-188153057D01*
X78003419Y-187914962D02*
X78860561Y-187914962D01*
X78860561Y-187914962D02*
X78955800Y-187962581D01*
X78955800Y-187962581D02*
X79003419Y-188057819D01*
X79003419Y-188057819D02*
X79003419Y-188153057D01*
X78955800Y-188867343D02*
X79003419Y-188772105D01*
X79003419Y-188772105D02*
X79003419Y-188581629D01*
X79003419Y-188581629D02*
X78955800Y-188486391D01*
X78955800Y-188486391D02*
X78860561Y-188438772D01*
X78860561Y-188438772D02*
X78479609Y-188438772D01*
X78479609Y-188438772D02*
X78384371Y-188486391D01*
X78384371Y-188486391D02*
X78336752Y-188581629D01*
X78336752Y-188581629D02*
X78336752Y-188772105D01*
X78336752Y-188772105D02*
X78384371Y-188867343D01*
X78384371Y-188867343D02*
X78479609Y-188914962D01*
X78479609Y-188914962D02*
X78574847Y-188914962D01*
X78574847Y-188914962D02*
X78670085Y-188438772D01*
X79003419Y-189343534D02*
X78336752Y-189343534D01*
X78527228Y-189343534D02*
X78431990Y-189391153D01*
X78431990Y-189391153D02*
X78384371Y-189438772D01*
X78384371Y-189438772D02*
X78336752Y-189534010D01*
X78336752Y-189534010D02*
X78336752Y-189629248D01*
X79003419Y-190486391D02*
X79003419Y-189914963D01*
X79003419Y-190200677D02*
X78003419Y-190200677D01*
X78003419Y-190200677D02*
X78146276Y-190105439D01*
X78146276Y-190105439D02*
X78241514Y-190010201D01*
X78241514Y-190010201D02*
X78289133Y-189914963D01*
X229599732Y-119164000D02*
X229456875Y-119211619D01*
X229456875Y-119211619D02*
X229218780Y-119211619D01*
X229218780Y-119211619D02*
X229123542Y-119164000D01*
X229123542Y-119164000D02*
X229075923Y-119116380D01*
X229075923Y-119116380D02*
X229028304Y-119021142D01*
X229028304Y-119021142D02*
X229028304Y-118925904D01*
X229028304Y-118925904D02*
X229075923Y-118830666D01*
X229075923Y-118830666D02*
X229123542Y-118783047D01*
X229123542Y-118783047D02*
X229218780Y-118735428D01*
X229218780Y-118735428D02*
X229409256Y-118687809D01*
X229409256Y-118687809D02*
X229504494Y-118640190D01*
X229504494Y-118640190D02*
X229552113Y-118592571D01*
X229552113Y-118592571D02*
X229599732Y-118497333D01*
X229599732Y-118497333D02*
X229599732Y-118402095D01*
X229599732Y-118402095D02*
X229552113Y-118306857D01*
X229552113Y-118306857D02*
X229504494Y-118259238D01*
X229504494Y-118259238D02*
X229409256Y-118211619D01*
X229409256Y-118211619D02*
X229171161Y-118211619D01*
X229171161Y-118211619D02*
X229028304Y-118259238D01*
X228694970Y-118211619D02*
X228456875Y-119211619D01*
X228456875Y-119211619D02*
X228266399Y-118497333D01*
X228266399Y-118497333D02*
X228075923Y-119211619D01*
X228075923Y-119211619D02*
X227837828Y-118211619D01*
X227504494Y-118306857D02*
X227456875Y-118259238D01*
X227456875Y-118259238D02*
X227361637Y-118211619D01*
X227361637Y-118211619D02*
X227123542Y-118211619D01*
X227123542Y-118211619D02*
X227028304Y-118259238D01*
X227028304Y-118259238D02*
X226980685Y-118306857D01*
X226980685Y-118306857D02*
X226933066Y-118402095D01*
X226933066Y-118402095D02*
X226933066Y-118497333D01*
X226933066Y-118497333D02*
X226980685Y-118640190D01*
X226980685Y-118640190D02*
X227552113Y-119211619D01*
X227552113Y-119211619D02*
X226933066Y-119211619D01*
X94818219Y-184462580D02*
X95532504Y-184462580D01*
X95532504Y-184462580D02*
X95675361Y-184414961D01*
X95675361Y-184414961D02*
X95770600Y-184319723D01*
X95770600Y-184319723D02*
X95818219Y-184176866D01*
X95818219Y-184176866D02*
X95818219Y-184081628D01*
X95151552Y-185367342D02*
X95818219Y-185367342D01*
X94770600Y-185129247D02*
X95484885Y-184891152D01*
X95484885Y-184891152D02*
X95484885Y-185510199D01*
X95913457Y-185653057D02*
X95913457Y-186414961D01*
X94818219Y-186510200D02*
X95818219Y-186843533D01*
X95818219Y-186843533D02*
X94818219Y-187176866D01*
X95722980Y-188081628D02*
X95770600Y-188034009D01*
X95770600Y-188034009D02*
X95818219Y-187891152D01*
X95818219Y-187891152D02*
X95818219Y-187795914D01*
X95818219Y-187795914D02*
X95770600Y-187653057D01*
X95770600Y-187653057D02*
X95675361Y-187557819D01*
X95675361Y-187557819D02*
X95580123Y-187510200D01*
X95580123Y-187510200D02*
X95389647Y-187462581D01*
X95389647Y-187462581D02*
X95246790Y-187462581D01*
X95246790Y-187462581D02*
X95056314Y-187510200D01*
X95056314Y-187510200D02*
X94961076Y-187557819D01*
X94961076Y-187557819D02*
X94865838Y-187653057D01*
X94865838Y-187653057D02*
X94818219Y-187795914D01*
X94818219Y-187795914D02*
X94818219Y-187891152D01*
X94818219Y-187891152D02*
X94865838Y-188034009D01*
X94865838Y-188034009D02*
X94913457Y-188081628D01*
X95532504Y-188462581D02*
X95532504Y-188938771D01*
X95818219Y-188367343D02*
X94818219Y-188700676D01*
X94818219Y-188700676D02*
X95818219Y-189034009D01*
X95818219Y-189891152D02*
X95818219Y-189319724D01*
X95818219Y-189605438D02*
X94818219Y-189605438D01*
X94818219Y-189605438D02*
X94961076Y-189510200D01*
X94961076Y-189510200D02*
X95056314Y-189414962D01*
X95056314Y-189414962D02*
X95103933Y-189319724D01*
X128798419Y-183820180D02*
X129512704Y-183820180D01*
X129512704Y-183820180D02*
X129655561Y-183772561D01*
X129655561Y-183772561D02*
X129750800Y-183677323D01*
X129750800Y-183677323D02*
X129798419Y-183534466D01*
X129798419Y-183534466D02*
X129798419Y-183439228D01*
X129226990Y-184439228D02*
X129179371Y-184343990D01*
X129179371Y-184343990D02*
X129131752Y-184296371D01*
X129131752Y-184296371D02*
X129036514Y-184248752D01*
X129036514Y-184248752D02*
X128988895Y-184248752D01*
X128988895Y-184248752D02*
X128893657Y-184296371D01*
X128893657Y-184296371D02*
X128846038Y-184343990D01*
X128846038Y-184343990D02*
X128798419Y-184439228D01*
X128798419Y-184439228D02*
X128798419Y-184629704D01*
X128798419Y-184629704D02*
X128846038Y-184724942D01*
X128846038Y-184724942D02*
X128893657Y-184772561D01*
X128893657Y-184772561D02*
X128988895Y-184820180D01*
X128988895Y-184820180D02*
X129036514Y-184820180D01*
X129036514Y-184820180D02*
X129131752Y-184772561D01*
X129131752Y-184772561D02*
X129179371Y-184724942D01*
X129179371Y-184724942D02*
X129226990Y-184629704D01*
X129226990Y-184629704D02*
X129226990Y-184439228D01*
X129226990Y-184439228D02*
X129274609Y-184343990D01*
X129274609Y-184343990D02*
X129322228Y-184296371D01*
X129322228Y-184296371D02*
X129417466Y-184248752D01*
X129417466Y-184248752D02*
X129607942Y-184248752D01*
X129607942Y-184248752D02*
X129703180Y-184296371D01*
X129703180Y-184296371D02*
X129750800Y-184343990D01*
X129750800Y-184343990D02*
X129798419Y-184439228D01*
X129798419Y-184439228D02*
X129798419Y-184629704D01*
X129798419Y-184629704D02*
X129750800Y-184724942D01*
X129750800Y-184724942D02*
X129703180Y-184772561D01*
X129703180Y-184772561D02*
X129607942Y-184820180D01*
X129607942Y-184820180D02*
X129417466Y-184820180D01*
X129417466Y-184820180D02*
X129322228Y-184772561D01*
X129322228Y-184772561D02*
X129274609Y-184724942D01*
X129274609Y-184724942D02*
X129226990Y-184629704D01*
X129893657Y-185010657D02*
X129893657Y-185772561D01*
X129798419Y-186010657D02*
X128798419Y-186010657D01*
X128798419Y-186010657D02*
X128798419Y-186391609D01*
X128798419Y-186391609D02*
X128846038Y-186486847D01*
X128846038Y-186486847D02*
X128893657Y-186534466D01*
X128893657Y-186534466D02*
X128988895Y-186582085D01*
X128988895Y-186582085D02*
X129131752Y-186582085D01*
X129131752Y-186582085D02*
X129226990Y-186534466D01*
X129226990Y-186534466D02*
X129274609Y-186486847D01*
X129274609Y-186486847D02*
X129322228Y-186391609D01*
X129322228Y-186391609D02*
X129322228Y-186010657D01*
X128798419Y-187201133D02*
X128798419Y-187391609D01*
X128798419Y-187391609D02*
X128846038Y-187486847D01*
X128846038Y-187486847D02*
X128941276Y-187582085D01*
X128941276Y-187582085D02*
X129131752Y-187629704D01*
X129131752Y-187629704D02*
X129465085Y-187629704D01*
X129465085Y-187629704D02*
X129655561Y-187582085D01*
X129655561Y-187582085D02*
X129750800Y-187486847D01*
X129750800Y-187486847D02*
X129798419Y-187391609D01*
X129798419Y-187391609D02*
X129798419Y-187201133D01*
X129798419Y-187201133D02*
X129750800Y-187105895D01*
X129750800Y-187105895D02*
X129655561Y-187010657D01*
X129655561Y-187010657D02*
X129465085Y-186963038D01*
X129465085Y-186963038D02*
X129131752Y-186963038D01*
X129131752Y-186963038D02*
X128941276Y-187010657D01*
X128941276Y-187010657D02*
X128846038Y-187105895D01*
X128846038Y-187105895D02*
X128798419Y-187201133D01*
X129798419Y-188534466D02*
X129798419Y-188058276D01*
X129798419Y-188058276D02*
X128798419Y-188058276D01*
X129322228Y-189058276D02*
X129798419Y-189058276D01*
X128798419Y-188724943D02*
X129322228Y-189058276D01*
X129322228Y-189058276D02*
X128798419Y-189391609D01*
X129798419Y-190248752D02*
X129798419Y-189677324D01*
X129798419Y-189963038D02*
X128798419Y-189963038D01*
X128798419Y-189963038D02*
X128941276Y-189867800D01*
X128941276Y-189867800D02*
X129036514Y-189772562D01*
X129036514Y-189772562D02*
X129084133Y-189677324D01*
X88532619Y-130264209D02*
X89246904Y-130264209D01*
X89246904Y-130264209D02*
X89389761Y-130216590D01*
X89389761Y-130216590D02*
X89485000Y-130121352D01*
X89485000Y-130121352D02*
X89532619Y-129978495D01*
X89532619Y-129978495D02*
X89532619Y-129883257D01*
X88532619Y-131216590D02*
X88532619Y-130740400D01*
X88532619Y-130740400D02*
X89008809Y-130692781D01*
X89008809Y-130692781D02*
X88961190Y-130740400D01*
X88961190Y-130740400D02*
X88913571Y-130835638D01*
X88913571Y-130835638D02*
X88913571Y-131073733D01*
X88913571Y-131073733D02*
X88961190Y-131168971D01*
X88961190Y-131168971D02*
X89008809Y-131216590D01*
X89008809Y-131216590D02*
X89104047Y-131264209D01*
X89104047Y-131264209D02*
X89342142Y-131264209D01*
X89342142Y-131264209D02*
X89437380Y-131216590D01*
X89437380Y-131216590D02*
X89485000Y-131168971D01*
X89485000Y-131168971D02*
X89532619Y-131073733D01*
X89532619Y-131073733D02*
X89532619Y-130835638D01*
X89532619Y-130835638D02*
X89485000Y-130740400D01*
X89485000Y-130740400D02*
X89437380Y-130692781D01*
X89627857Y-131454686D02*
X89627857Y-132216590D01*
X89008809Y-132454686D02*
X89008809Y-132788019D01*
X89532619Y-132930876D02*
X89532619Y-132454686D01*
X89532619Y-132454686D02*
X88532619Y-132454686D01*
X88532619Y-132454686D02*
X88532619Y-132930876D01*
X88865952Y-133359448D02*
X89532619Y-133359448D01*
X88961190Y-133359448D02*
X88913571Y-133407067D01*
X88913571Y-133407067D02*
X88865952Y-133502305D01*
X88865952Y-133502305D02*
X88865952Y-133645162D01*
X88865952Y-133645162D02*
X88913571Y-133740400D01*
X88913571Y-133740400D02*
X89008809Y-133788019D01*
X89008809Y-133788019D02*
X89532619Y-133788019D01*
X88865952Y-134168972D02*
X89532619Y-134407067D01*
X89532619Y-134407067D02*
X88865952Y-134645162D01*
X89532619Y-135549924D02*
X89532619Y-134978496D01*
X89532619Y-135264210D02*
X88532619Y-135264210D01*
X88532619Y-135264210D02*
X88675476Y-135168972D01*
X88675476Y-135168972D02*
X88770714Y-135073734D01*
X88770714Y-135073734D02*
X88818333Y-134978496D01*
X78814181Y-166402219D02*
X78814181Y-167116504D01*
X78814181Y-167116504D02*
X78861800Y-167259361D01*
X78861800Y-167259361D02*
X78957038Y-167354600D01*
X78957038Y-167354600D02*
X79099895Y-167402219D01*
X79099895Y-167402219D02*
X79195133Y-167402219D01*
X77814181Y-167402219D02*
X78385609Y-167402219D01*
X78099895Y-167402219D02*
X78099895Y-166402219D01*
X78099895Y-166402219D02*
X78195133Y-166545076D01*
X78195133Y-166545076D02*
X78290371Y-166640314D01*
X78290371Y-166640314D02*
X78385609Y-166687933D01*
X77623705Y-167497457D02*
X76861800Y-167497457D01*
X76766561Y-166402219D02*
X76433228Y-167402219D01*
X76433228Y-167402219D02*
X76099895Y-166402219D01*
X75195133Y-167306980D02*
X75242752Y-167354600D01*
X75242752Y-167354600D02*
X75385609Y-167402219D01*
X75385609Y-167402219D02*
X75480847Y-167402219D01*
X75480847Y-167402219D02*
X75623704Y-167354600D01*
X75623704Y-167354600D02*
X75718942Y-167259361D01*
X75718942Y-167259361D02*
X75766561Y-167164123D01*
X75766561Y-167164123D02*
X75814180Y-166973647D01*
X75814180Y-166973647D02*
X75814180Y-166830790D01*
X75814180Y-166830790D02*
X75766561Y-166640314D01*
X75766561Y-166640314D02*
X75718942Y-166545076D01*
X75718942Y-166545076D02*
X75623704Y-166449838D01*
X75623704Y-166449838D02*
X75480847Y-166402219D01*
X75480847Y-166402219D02*
X75385609Y-166402219D01*
X75385609Y-166402219D02*
X75242752Y-166449838D01*
X75242752Y-166449838D02*
X75195133Y-166497457D01*
X74576085Y-166402219D02*
X74385609Y-166402219D01*
X74385609Y-166402219D02*
X74290371Y-166449838D01*
X74290371Y-166449838D02*
X74195133Y-166545076D01*
X74195133Y-166545076D02*
X74147514Y-166735552D01*
X74147514Y-166735552D02*
X74147514Y-167068885D01*
X74147514Y-167068885D02*
X74195133Y-167259361D01*
X74195133Y-167259361D02*
X74290371Y-167354600D01*
X74290371Y-167354600D02*
X74385609Y-167402219D01*
X74385609Y-167402219D02*
X74576085Y-167402219D01*
X74576085Y-167402219D02*
X74671323Y-167354600D01*
X74671323Y-167354600D02*
X74766561Y-167259361D01*
X74766561Y-167259361D02*
X74814180Y-167068885D01*
X74814180Y-167068885D02*
X74814180Y-166735552D01*
X74814180Y-166735552D02*
X74766561Y-166545076D01*
X74766561Y-166545076D02*
X74671323Y-166449838D01*
X74671323Y-166449838D02*
X74576085Y-166402219D01*
X73957038Y-167497457D02*
X73195133Y-167497457D01*
X73004656Y-167116504D02*
X72528466Y-167116504D01*
X73099894Y-167402219D02*
X72766561Y-166402219D01*
X72766561Y-166402219D02*
X72433228Y-167402219D01*
X71576085Y-167402219D02*
X72147513Y-167402219D01*
X71861799Y-167402219D02*
X71861799Y-166402219D01*
X71861799Y-166402219D02*
X71957037Y-166545076D01*
X71957037Y-166545076D02*
X72052275Y-166640314D01*
X72052275Y-166640314D02*
X72147513Y-166687933D01*
X111729619Y-183470990D02*
X112443904Y-183470990D01*
X112443904Y-183470990D02*
X112586761Y-183423371D01*
X112586761Y-183423371D02*
X112682000Y-183328133D01*
X112682000Y-183328133D02*
X112729619Y-183185276D01*
X112729619Y-183185276D02*
X112729619Y-183090038D01*
X111824857Y-183899562D02*
X111777238Y-183947181D01*
X111777238Y-183947181D02*
X111729619Y-184042419D01*
X111729619Y-184042419D02*
X111729619Y-184280514D01*
X111729619Y-184280514D02*
X111777238Y-184375752D01*
X111777238Y-184375752D02*
X111824857Y-184423371D01*
X111824857Y-184423371D02*
X111920095Y-184470990D01*
X111920095Y-184470990D02*
X112015333Y-184470990D01*
X112015333Y-184470990D02*
X112158190Y-184423371D01*
X112158190Y-184423371D02*
X112729619Y-183851943D01*
X112729619Y-183851943D02*
X112729619Y-184470990D01*
X112824857Y-184661467D02*
X112824857Y-185423371D01*
X111729619Y-185518610D02*
X112729619Y-185851943D01*
X112729619Y-185851943D02*
X111729619Y-186185276D01*
X112634380Y-187090038D02*
X112682000Y-187042419D01*
X112682000Y-187042419D02*
X112729619Y-186899562D01*
X112729619Y-186899562D02*
X112729619Y-186804324D01*
X112729619Y-186804324D02*
X112682000Y-186661467D01*
X112682000Y-186661467D02*
X112586761Y-186566229D01*
X112586761Y-186566229D02*
X112491523Y-186518610D01*
X112491523Y-186518610D02*
X112301047Y-186470991D01*
X112301047Y-186470991D02*
X112158190Y-186470991D01*
X112158190Y-186470991D02*
X111967714Y-186518610D01*
X111967714Y-186518610D02*
X111872476Y-186566229D01*
X111872476Y-186566229D02*
X111777238Y-186661467D01*
X111777238Y-186661467D02*
X111729619Y-186804324D01*
X111729619Y-186804324D02*
X111729619Y-186899562D01*
X111729619Y-186899562D02*
X111777238Y-187042419D01*
X111777238Y-187042419D02*
X111824857Y-187090038D01*
X111729619Y-187709086D02*
X111729619Y-187899562D01*
X111729619Y-187899562D02*
X111777238Y-187994800D01*
X111777238Y-187994800D02*
X111872476Y-188090038D01*
X111872476Y-188090038D02*
X112062952Y-188137657D01*
X112062952Y-188137657D02*
X112396285Y-188137657D01*
X112396285Y-188137657D02*
X112586761Y-188090038D01*
X112586761Y-188090038D02*
X112682000Y-187994800D01*
X112682000Y-187994800D02*
X112729619Y-187899562D01*
X112729619Y-187899562D02*
X112729619Y-187709086D01*
X112729619Y-187709086D02*
X112682000Y-187613848D01*
X112682000Y-187613848D02*
X112586761Y-187518610D01*
X112586761Y-187518610D02*
X112396285Y-187470991D01*
X112396285Y-187470991D02*
X112062952Y-187470991D01*
X112062952Y-187470991D02*
X111872476Y-187518610D01*
X111872476Y-187518610D02*
X111777238Y-187613848D01*
X111777238Y-187613848D02*
X111729619Y-187709086D01*
X112824857Y-188328134D02*
X112824857Y-189090038D01*
X112205809Y-189661467D02*
X112253428Y-189804324D01*
X112253428Y-189804324D02*
X112301047Y-189851943D01*
X112301047Y-189851943D02*
X112396285Y-189899562D01*
X112396285Y-189899562D02*
X112539142Y-189899562D01*
X112539142Y-189899562D02*
X112634380Y-189851943D01*
X112634380Y-189851943D02*
X112682000Y-189804324D01*
X112682000Y-189804324D02*
X112729619Y-189709086D01*
X112729619Y-189709086D02*
X112729619Y-189328134D01*
X112729619Y-189328134D02*
X111729619Y-189328134D01*
X111729619Y-189328134D02*
X111729619Y-189661467D01*
X111729619Y-189661467D02*
X111777238Y-189756705D01*
X111777238Y-189756705D02*
X111824857Y-189804324D01*
X111824857Y-189804324D02*
X111920095Y-189851943D01*
X111920095Y-189851943D02*
X112015333Y-189851943D01*
X112015333Y-189851943D02*
X112110571Y-189804324D01*
X112110571Y-189804324D02*
X112158190Y-189756705D01*
X112158190Y-189756705D02*
X112205809Y-189661467D01*
X112205809Y-189661467D02*
X112205809Y-189328134D01*
X112729619Y-190851943D02*
X112729619Y-190280515D01*
X112729619Y-190566229D02*
X111729619Y-190566229D01*
X111729619Y-190566229D02*
X111872476Y-190470991D01*
X111872476Y-190470991D02*
X111967714Y-190375753D01*
X111967714Y-190375753D02*
X112015333Y-190280515D01*
X105670819Y-130218180D02*
X106385104Y-130218180D01*
X106385104Y-130218180D02*
X106527961Y-130170561D01*
X106527961Y-130170561D02*
X106623200Y-130075323D01*
X106623200Y-130075323D02*
X106670819Y-129932466D01*
X106670819Y-129932466D02*
X106670819Y-129837228D01*
X105670819Y-131122942D02*
X105670819Y-130932466D01*
X105670819Y-130932466D02*
X105718438Y-130837228D01*
X105718438Y-130837228D02*
X105766057Y-130789609D01*
X105766057Y-130789609D02*
X105908914Y-130694371D01*
X105908914Y-130694371D02*
X106099390Y-130646752D01*
X106099390Y-130646752D02*
X106480342Y-130646752D01*
X106480342Y-130646752D02*
X106575580Y-130694371D01*
X106575580Y-130694371D02*
X106623200Y-130741990D01*
X106623200Y-130741990D02*
X106670819Y-130837228D01*
X106670819Y-130837228D02*
X106670819Y-131027704D01*
X106670819Y-131027704D02*
X106623200Y-131122942D01*
X106623200Y-131122942D02*
X106575580Y-131170561D01*
X106575580Y-131170561D02*
X106480342Y-131218180D01*
X106480342Y-131218180D02*
X106242247Y-131218180D01*
X106242247Y-131218180D02*
X106147009Y-131170561D01*
X106147009Y-131170561D02*
X106099390Y-131122942D01*
X106099390Y-131122942D02*
X106051771Y-131027704D01*
X106051771Y-131027704D02*
X106051771Y-130837228D01*
X106051771Y-130837228D02*
X106099390Y-130741990D01*
X106099390Y-130741990D02*
X106147009Y-130694371D01*
X106147009Y-130694371D02*
X106242247Y-130646752D01*
X106766057Y-131408657D02*
X106766057Y-132170561D01*
X106670819Y-132884847D02*
X106670819Y-132408657D01*
X106670819Y-132408657D02*
X105670819Y-132408657D01*
X106147009Y-133551514D02*
X106147009Y-133218181D01*
X106670819Y-133218181D02*
X105670819Y-133218181D01*
X105670819Y-133218181D02*
X105670819Y-133694371D01*
X105670819Y-134265800D02*
X105670819Y-134456276D01*
X105670819Y-134456276D02*
X105718438Y-134551514D01*
X105718438Y-134551514D02*
X105813676Y-134646752D01*
X105813676Y-134646752D02*
X106004152Y-134694371D01*
X106004152Y-134694371D02*
X106337485Y-134694371D01*
X106337485Y-134694371D02*
X106527961Y-134646752D01*
X106527961Y-134646752D02*
X106623200Y-134551514D01*
X106623200Y-134551514D02*
X106670819Y-134456276D01*
X106670819Y-134456276D02*
X106670819Y-134265800D01*
X106670819Y-134265800D02*
X106623200Y-134170562D01*
X106623200Y-134170562D02*
X106527961Y-134075324D01*
X106527961Y-134075324D02*
X106337485Y-134027705D01*
X106337485Y-134027705D02*
X106004152Y-134027705D01*
X106004152Y-134027705D02*
X105813676Y-134075324D01*
X105813676Y-134075324D02*
X105718438Y-134170562D01*
X105718438Y-134170562D02*
X105670819Y-134265800D01*
X106670819Y-135646752D02*
X106670819Y-135075324D01*
X106670819Y-135361038D02*
X105670819Y-135361038D01*
X105670819Y-135361038D02*
X105813676Y-135265800D01*
X105813676Y-135265800D02*
X105908914Y-135170562D01*
X105908914Y-135170562D02*
X105956533Y-135075324D01*
D11*
X92446600Y-148453200D02*
X92046600Y-148453200D01*
X125546600Y-169453200D02*
X125146600Y-169453200D01*
X133046600Y-148453200D02*
X132746600Y-148453200D01*
X105246600Y-169453200D02*
X104846600Y-169453200D01*
X125546600Y-148453200D02*
X125146600Y-148453200D01*
X95046600Y-148453200D02*
X94646600Y-148453200D01*
X87446600Y-148453200D02*
X87046600Y-148453200D01*
X133046600Y-169453200D02*
X132746600Y-169453200D01*
X115346600Y-148453200D02*
X114946600Y-148453200D01*
X89946600Y-148453200D02*
X89546600Y-148453200D01*
X117946600Y-148453200D02*
X117546600Y-148453200D01*
X100146600Y-148453200D02*
X99746600Y-148453200D01*
X95046600Y-169453200D02*
X94646600Y-169453200D01*
X89946600Y-169453200D02*
X89546600Y-169453200D01*
X107746600Y-169453200D02*
X107346600Y-169453200D01*
X117946600Y-169453200D02*
X117546600Y-169453200D01*
X105246600Y-148453200D02*
X104846600Y-148453200D01*
X97546600Y-169453200D02*
X97146600Y-169453200D01*
X120446600Y-148453200D02*
X120046600Y-148453200D01*
X82046600Y-157853200D02*
X82046600Y-157453200D01*
X92446600Y-169453200D02*
X92046600Y-169453200D01*
X128046600Y-148453200D02*
X127646600Y-148453200D01*
X120446600Y-169453200D02*
X120046600Y-169453200D01*
X82046600Y-160453200D02*
X82046600Y-160053200D01*
X102646600Y-169453200D02*
X102246600Y-169453200D01*
X115346600Y-169453200D02*
X114946600Y-169453200D01*
X130379600Y-169453200D02*
X130379600Y-166446200D01*
X100146600Y-169453200D02*
X99746600Y-169453200D01*
X122946600Y-148453200D02*
X122546600Y-148453200D01*
X82046600Y-148453200D02*
X82046600Y-155253200D01*
X110246600Y-148453200D02*
X109846600Y-148453200D01*
X112846600Y-169453200D02*
X112446600Y-169453200D01*
X122946600Y-169453200D02*
X122546600Y-169453200D01*
X84846600Y-169453200D02*
X84446600Y-169453200D01*
X110246600Y-169453200D02*
X109846600Y-169453200D01*
X87446600Y-169453200D02*
X87046600Y-169453200D01*
X133046600Y-169453200D02*
X133046600Y-148453200D01*
X112846600Y-148453200D02*
X112446600Y-148453200D01*
X130379600Y-166446200D02*
X133046600Y-166446200D01*
X130646600Y-148453200D02*
X130246600Y-148453200D01*
X84846600Y-148453200D02*
X84446600Y-148453200D01*
X107746600Y-148453200D02*
X107346600Y-148453200D01*
X82046600Y-162653200D02*
X82046600Y-169453200D01*
X97546600Y-148453200D02*
X97146600Y-148453200D01*
X128046600Y-169453200D02*
X127646600Y-169453200D01*
X130646600Y-169453200D02*
X130246600Y-169453200D01*
X102646600Y-148453200D02*
X102246600Y-148453200D01*
X123326200Y-130165800D02*
X110506200Y-130165800D01*
X120726200Y-132765800D02*
X123326200Y-132765800D01*
X123326200Y-132765800D02*
X123326200Y-130165800D01*
X110506200Y-135365800D02*
X110506200Y-130165800D01*
X120726200Y-135365800D02*
X120726200Y-132765800D01*
X120726200Y-135365800D02*
X110506200Y-135365800D01*
X121996200Y-135365800D02*
X123326200Y-135365800D01*
X123326200Y-135365800D02*
X123326200Y-134035800D01*
X129311400Y-153151400D02*
X128661400Y-153151400D01*
X129311400Y-156271400D02*
X128661400Y-156271400D01*
X129311400Y-153151400D02*
X130986400Y-153151400D01*
X129311400Y-156271400D02*
X129961400Y-156271400D01*
X135006800Y-156804300D02*
X135006800Y-155804300D01*
X135506800Y-156304300D02*
X135006800Y-156804300D01*
X135726800Y-161214300D02*
X135726800Y-148894300D01*
X135726800Y-148894300D02*
X139986800Y-148894300D01*
X152446800Y-148894300D02*
X144086800Y-148894300D01*
X144086800Y-161214300D02*
X152446800Y-161214300D01*
X135006800Y-155804300D02*
X135506800Y-156304300D01*
X139986800Y-161214300D02*
X135726800Y-161214300D01*
X152446800Y-161214300D02*
X152446800Y-148894300D01*
X79548600Y-189610200D02*
X92368600Y-189610200D01*
X82148600Y-187010200D02*
X79548600Y-187010200D01*
X79548600Y-187010200D02*
X79548600Y-189610200D01*
X92368600Y-184410200D02*
X92368600Y-189610200D01*
X82148600Y-184410200D02*
X82148600Y-187010200D01*
X82148600Y-184410200D02*
X92368600Y-184410200D01*
X80878600Y-184410200D02*
X79548600Y-184410200D01*
X79548600Y-184410200D02*
X79548600Y-185740200D01*
X96363400Y-184410200D02*
X96363400Y-185740200D01*
X97693400Y-184410200D02*
X96363400Y-184410200D01*
X98963400Y-184410200D02*
X109183400Y-184410200D01*
X98963400Y-184410200D02*
X98963400Y-187010200D01*
X109183400Y-184410200D02*
X109183400Y-189610200D01*
X96363400Y-187010200D02*
X96363400Y-189610200D01*
X98963400Y-187010200D02*
X96363400Y-187010200D01*
X96363400Y-189610200D02*
X109183400Y-189610200D01*
X130343600Y-189467800D02*
X143163600Y-189467800D01*
X132943600Y-186867800D02*
X130343600Y-186867800D01*
X130343600Y-186867800D02*
X130343600Y-189467800D01*
X143163600Y-184267800D02*
X143163600Y-189467800D01*
X132943600Y-184267800D02*
X132943600Y-186867800D01*
X132943600Y-184267800D02*
X143163600Y-184267800D01*
X131673600Y-184267800D02*
X130343600Y-184267800D01*
X130343600Y-184267800D02*
X130343600Y-185597800D01*
X87613800Y-130165800D02*
X74793800Y-130165800D01*
X85013800Y-132765800D02*
X87613800Y-132765800D01*
X87613800Y-132765800D02*
X87613800Y-130165800D01*
X74793800Y-135365800D02*
X74793800Y-130165800D01*
X85013800Y-135365800D02*
X85013800Y-132765800D01*
X85013800Y-135365800D02*
X74793800Y-135365800D01*
X86283800Y-135365800D02*
X87613800Y-135365800D01*
X87613800Y-135365800D02*
X87613800Y-134035800D01*
X72761800Y-165947400D02*
X74091800Y-165947400D01*
X72761800Y-164617400D02*
X72761800Y-165947400D01*
X72761800Y-163347400D02*
X72761800Y-153127400D01*
X72761800Y-163347400D02*
X75361800Y-163347400D01*
X72761800Y-153127400D02*
X77961800Y-153127400D01*
X75361800Y-165947400D02*
X77961800Y-165947400D01*
X75361800Y-163347400D02*
X75361800Y-165947400D01*
X77961800Y-165947400D02*
X77961800Y-153127400D01*
X113274800Y-184394800D02*
X113274800Y-185724800D01*
X114604800Y-184394800D02*
X113274800Y-184394800D01*
X115874800Y-184394800D02*
X126094800Y-184394800D01*
X115874800Y-184394800D02*
X115874800Y-186994800D01*
X126094800Y-184394800D02*
X126094800Y-189594800D01*
X113274800Y-186994800D02*
X113274800Y-189594800D01*
X115874800Y-186994800D02*
X113274800Y-186994800D01*
X113274800Y-189594800D02*
X126094800Y-189594800D01*
X105216000Y-130165800D02*
X92396000Y-130165800D01*
X102616000Y-132765800D02*
X105216000Y-132765800D01*
X105216000Y-132765800D02*
X105216000Y-130165800D01*
X92396000Y-135365800D02*
X92396000Y-130165800D01*
X102616000Y-135365800D02*
X102616000Y-132765800D01*
X102616000Y-135365800D02*
X92396000Y-135365800D01*
X103886000Y-135365800D02*
X105216000Y-135365800D01*
X105216000Y-135365800D02*
X105216000Y-134035800D01*
%LPC*%
D12*
X74781900Y-175526300D03*
D13*
X74781900Y-177526300D03*
X74781900Y-179526300D03*
X74781900Y-181526300D03*
D14*
X82746600Y-156413200D03*
D15*
X83646600Y-156413200D03*
D14*
X82746600Y-158953200D03*
D16*
X83646600Y-158953200D03*
D15*
X83646600Y-161493200D03*
D14*
X82746600Y-161493200D03*
D17*
X131676600Y-149163200D03*
D15*
X131676600Y-150063200D03*
X129136600Y-150063200D03*
D17*
X129136600Y-149163200D03*
D16*
X126596600Y-150063200D03*
D17*
X126596600Y-149163200D03*
D15*
X124056600Y-150063200D03*
D17*
X124056600Y-149163200D03*
X121516600Y-149163200D03*
D15*
X121516600Y-150063200D03*
X118976600Y-150063200D03*
D17*
X118976600Y-149163200D03*
D15*
X116436600Y-150063200D03*
D17*
X116436600Y-149163200D03*
D16*
X113896600Y-150063200D03*
D17*
X113896600Y-149163200D03*
X111356600Y-149163200D03*
D15*
X111356600Y-150063200D03*
D17*
X108816600Y-149163200D03*
D15*
X108816600Y-150063200D03*
X106276600Y-150063200D03*
D17*
X106276600Y-149163200D03*
X103736600Y-149163200D03*
D15*
X103736600Y-150063200D03*
D17*
X101196600Y-149163200D03*
D16*
X101196600Y-150063200D03*
D17*
X98656600Y-149163200D03*
D15*
X98656600Y-150063200D03*
X96116600Y-150063200D03*
D17*
X96116600Y-149163200D03*
D15*
X93576600Y-150063200D03*
D17*
X93576600Y-149163200D03*
X91036600Y-149163200D03*
D15*
X91036600Y-150063200D03*
D16*
X88496600Y-150063200D03*
D17*
X88496600Y-149163200D03*
D15*
X85956600Y-150063200D03*
D17*
X85956600Y-149163200D03*
D15*
X83416600Y-150063200D03*
D17*
X83416600Y-149163200D03*
D15*
X83416600Y-167843200D03*
D17*
X83416600Y-168743200D03*
X85956600Y-168743200D03*
D15*
X85956600Y-167843200D03*
D16*
X88496600Y-167843200D03*
D17*
X88496600Y-168743200D03*
D15*
X91036600Y-167843200D03*
D17*
X91036600Y-168743200D03*
D15*
X93576600Y-167843200D03*
D17*
X93576600Y-168743200D03*
X96116600Y-168743200D03*
D15*
X96116600Y-167843200D03*
X98656600Y-167843200D03*
D17*
X98656600Y-168743200D03*
X101196600Y-168743200D03*
D16*
X101196600Y-167843200D03*
D17*
X103736600Y-168743200D03*
D15*
X103736600Y-167843200D03*
X106276600Y-167843200D03*
D17*
X106276600Y-168743200D03*
X108816600Y-168743200D03*
D15*
X108816600Y-167843200D03*
X111356600Y-167843200D03*
D17*
X111356600Y-168743200D03*
X113896600Y-168743200D03*
D16*
X113896600Y-167843200D03*
D15*
X116436600Y-167843200D03*
D17*
X116436600Y-168743200D03*
X118976600Y-168743200D03*
D15*
X118976600Y-167843200D03*
D17*
X121516600Y-168743200D03*
D15*
X121516600Y-167843200D03*
D17*
X124056600Y-168743200D03*
D15*
X124056600Y-167843200D03*
D16*
X126596600Y-167843200D03*
D17*
X126596600Y-168743200D03*
X129136600Y-168743200D03*
D15*
X129136600Y-167843200D03*
D17*
X131676600Y-168743200D03*
D15*
X131676600Y-167843200D03*
X111836200Y-131495800D03*
X111836200Y-134035800D03*
X114376200Y-131495800D03*
X114376200Y-134035800D03*
X116916200Y-131495800D03*
X116916200Y-134035800D03*
X119456200Y-131495800D03*
X119456200Y-134035800D03*
X121996200Y-131495800D03*
D16*
X121996200Y-134035800D03*
D18*
X116228000Y-122100600D03*
X113688000Y-122100600D03*
X108608000Y-122100600D03*
X111148000Y-122100600D03*
D19*
X130248900Y-153761400D03*
X130248900Y-155661400D03*
X128373900Y-154711400D03*
D20*
X142036800Y-149034300D03*
X142036800Y-161074300D03*
D21*
X139326800Y-156304300D03*
X139326800Y-153804300D03*
X137326800Y-153804300D03*
D16*
X137326800Y-156304300D03*
D15*
X91038600Y-188280200D03*
X91038600Y-185740200D03*
X88498600Y-188280200D03*
X88498600Y-185740200D03*
X85958600Y-188280200D03*
X85958600Y-185740200D03*
X83418600Y-188280200D03*
X83418600Y-185740200D03*
X80878600Y-188280200D03*
D16*
X80878600Y-185740200D03*
D22*
X132323200Y-139279200D03*
D23*
X137323200Y-139279200D03*
X134823200Y-139279200D03*
D24*
X129223200Y-131779200D03*
X140423200Y-131779200D03*
D23*
X137323200Y-124779200D03*
X132323200Y-124779200D03*
D16*
X97693400Y-185740200D03*
D15*
X97693400Y-188280200D03*
X100233400Y-185740200D03*
X100233400Y-188280200D03*
X102773400Y-185740200D03*
X102773400Y-188280200D03*
X105313400Y-185740200D03*
X105313400Y-188280200D03*
X107853400Y-185740200D03*
X107853400Y-188280200D03*
X141833600Y-188137800D03*
X141833600Y-185597800D03*
X139293600Y-188137800D03*
X139293600Y-185597800D03*
X136753600Y-188137800D03*
X136753600Y-185597800D03*
X134213600Y-188137800D03*
X134213600Y-185597800D03*
X131673600Y-188137800D03*
D16*
X131673600Y-185597800D03*
D15*
X76123800Y-131495800D03*
X76123800Y-134035800D03*
X78663800Y-131495800D03*
X78663800Y-134035800D03*
X81203800Y-131495800D03*
X81203800Y-134035800D03*
X83743800Y-131495800D03*
X83743800Y-134035800D03*
X86283800Y-131495800D03*
D16*
X86283800Y-134035800D03*
X74091800Y-164617400D03*
D15*
X76631800Y-164617400D03*
X74091800Y-162077400D03*
X76631800Y-162077400D03*
X74091800Y-159537400D03*
X76631800Y-159537400D03*
X74091800Y-156997400D03*
X76631800Y-156997400D03*
X74091800Y-154457400D03*
X76631800Y-154457400D03*
D16*
X114604800Y-185724800D03*
D15*
X114604800Y-188264800D03*
X117144800Y-185724800D03*
X117144800Y-188264800D03*
X119684800Y-185724800D03*
X119684800Y-188264800D03*
X122224800Y-185724800D03*
X122224800Y-188264800D03*
X124764800Y-185724800D03*
X124764800Y-188264800D03*
X93726000Y-131495800D03*
X93726000Y-134035800D03*
X96266000Y-131495800D03*
X96266000Y-134035800D03*
X98806000Y-131495800D03*
X98806000Y-134035800D03*
X101346000Y-131495800D03*
X101346000Y-134035800D03*
X103886000Y-131495800D03*
D16*
X103886000Y-134035800D03*
%LPD*%
M02*
