M48
; DRILL file {KiCad 7.0.7} date Tue Mar 19 17:38:06 2024
; FORMAT={-:-/ absolute / metric / decimal}
; #@! TF.CreationDate,2024-03-19T17:38:06+01:00
; #@! TF.GenerationSoftware,Kicad,Pcbnew,7.0.7
; #@! TF.FileFunction,Plated,1,2,PTH
FMAT,2
METRIC
; #@! TA.AperFunction,Plated,PTH,ViaDrill
T1C0.400
; #@! TA.AperFunction,Plated,PTH,ComponentDrill
T2C0.762
; #@! TA.AperFunction,Plated,PTH,ComponentDrill
T3C0.920
; #@! TA.AperFunction,Plated,PTH,ComponentDrill
T4C1.000
; #@! TA.AperFunction,Plated,PTH,ComponentDrill
T5C1.020
; #@! TA.AperFunction,Plated,PTH,ComponentDrill
T6C1.500
; #@! TA.AperFunction,Plated,PTH,ComponentDrill
T7C2.330
%
G90
G05
T1
X70.917Y-157.429
X71.73Y-141.707
X71.933Y-160.528
X72.263Y-192.303
X72.822Y-148.361
X74.143Y-170.104
X74.193Y-168.046
X75.768Y-144.323
X75.794Y-120.853
X76.327Y-182.968
X76.327Y-185.395
X76.429Y-171.679
X77.343Y-150.038
X77.622Y-139.675
X77.953Y-167.056
X78.13Y-145.999
X80.239Y-170.129
X80.264Y-138.252
X81.153Y-174.523
X82.855Y-138.328
X83.236Y-140.919
X84.582Y-172.136
X86.309Y-125.806
X86.665Y-193.269
X88.494Y-122.403
X88.748Y-181.661
X89.51Y-152.044
X90.068Y-190.525
X91.643Y-143.688
X93.472Y-178.308
X93.599Y-127.94
X94.056Y-187.757
X95.301Y-184.074
X97.866Y-181.864
X100.076Y-125.806
X101.727Y-155.118
X102.387Y-152.756
X102.514Y-138.887
X102.972Y-172.441
X103.556Y-161.925
X103.683Y-121.945
X104.292Y-173.787
X105.918Y-193.472
X106.655Y-175.362
X107.188Y-190.373
X110.363Y-158.902
X111.328Y-175.895
X114.402Y-136.169
X114.529Y-182.804
X116.408Y-139.37
X121.234Y-182.194
X122.072Y-177.292
X122.911Y-125.882
X124.13Y-190.398
X124.892Y-139.471
X128.905Y-190.881
X129.007Y-182.829
X133.934Y-142.215
X135.255Y-121.285
X138.074Y-171.171
X139.395Y-165.964
X141.148Y-141.554
X142.494Y-171.983
X142.646Y-155.092
T2
X74.782Y-175.526
X74.782Y-177.526
X74.782Y-179.526
X74.782Y-181.526
T3
X137.327Y-153.804
X137.327Y-156.304
X139.327Y-153.804
X139.327Y-156.304
T4
X74.092Y-154.457
X74.092Y-156.997
X74.092Y-159.537
X74.092Y-162.077
X74.092Y-164.617
X76.124Y-131.496
X76.124Y-134.036
X76.632Y-154.457
X76.632Y-156.997
X76.632Y-159.537
X76.632Y-162.077
X76.632Y-164.617
X78.664Y-131.496
X78.664Y-134.036
X80.879Y-185.74
X80.879Y-188.28
X81.204Y-131.496
X81.204Y-134.036
X83.419Y-185.74
X83.419Y-188.28
X83.744Y-131.496
X83.744Y-134.036
X85.959Y-185.74
X85.959Y-188.28
X86.284Y-131.496
X86.284Y-134.036
X88.499Y-185.74
X88.499Y-188.28
X91.039Y-185.74
X91.039Y-188.28
X93.726Y-131.496
X93.726Y-134.036
X96.266Y-131.496
X96.266Y-134.036
X97.693Y-185.74
X97.693Y-188.28
X98.806Y-131.496
X98.806Y-134.036
X100.233Y-185.74
X100.233Y-188.28
X101.346Y-131.496
X101.346Y-134.036
X102.773Y-185.74
X102.773Y-188.28
X103.886Y-131.496
X103.886Y-134.036
X105.313Y-185.74
X105.313Y-188.28
X107.853Y-185.74
X107.853Y-188.28
X108.608Y-122.101
X111.148Y-122.101
X111.836Y-131.496
X111.836Y-134.036
X113.688Y-122.101
X114.376Y-131.496
X114.376Y-134.036
X114.605Y-185.725
X114.605Y-188.265
X116.228Y-122.101
X116.916Y-131.496
X116.916Y-134.036
X117.145Y-185.725
X117.145Y-188.265
X119.456Y-131.496
X119.456Y-134.036
X119.685Y-185.725
X119.685Y-188.265
X121.996Y-131.496
X121.996Y-134.036
X122.225Y-185.725
X122.225Y-188.265
X124.765Y-185.725
X124.765Y-188.265
X131.674Y-185.598
X131.674Y-188.138
X132.323Y-124.779
X132.323Y-139.279
X134.214Y-185.598
X134.214Y-188.138
X134.823Y-139.279
X136.754Y-185.598
X136.754Y-188.138
X137.323Y-124.779
X137.323Y-139.279
X139.294Y-185.598
X139.294Y-188.138
X141.834Y-185.598
X141.834Y-188.138
T5
X83.417Y-150.063
X83.417Y-167.843
X83.647Y-156.413
X83.647Y-158.953
X83.647Y-161.493
X85.957Y-150.063
X85.957Y-167.843
X88.497Y-150.063
X88.497Y-167.843
X91.037Y-150.063
X91.037Y-167.843
X93.577Y-150.063
X93.577Y-167.843
X96.117Y-150.063
X96.117Y-167.843
X98.657Y-150.063
X98.657Y-167.843
X101.197Y-150.063
X101.197Y-167.843
X103.737Y-150.063
X103.737Y-167.843
X106.277Y-150.063
X106.277Y-167.843
X108.817Y-150.063
X108.817Y-167.843
X111.357Y-150.063
X111.357Y-167.843
X113.897Y-150.063
X113.897Y-167.843
X116.437Y-150.063
X116.437Y-167.843
X118.977Y-150.063
X118.977Y-167.843
X121.517Y-150.063
X121.517Y-167.843
X124.057Y-150.063
X124.057Y-167.843
X126.597Y-150.063
X126.597Y-167.843
X129.137Y-150.063
X129.137Y-167.843
X131.677Y-150.063
X131.677Y-167.843
T7
X142.037Y-149.034
X142.037Y-161.074
T6
X129.223Y-132.429G85X129.223Y-131.129
G05
X140.423Y-132.429G85X140.423Y-131.129
G05
T0
M30
