M48
; DRILL file {KiCad 9.0.0} date 2026-01-16T11:46:07+0100
; FORMAT={-:-/ absolute / metric / decimal}
; #@! TF.CreationDate,2026-01-16T11:46:07+01:00
; #@! TF.GenerationSoftware,Kicad,Pcbnew,9.0.0
; #@! TF.FileFunction,Plated,1,2,PTH
FMAT,2
METRIC
; #@! TA.AperFunction,Plated,PTH,ViaDrill
T1C0.400
; #@! TA.AperFunction,Plated,PTH,ComponentDrill
T2C0.800
; #@! TA.AperFunction,Plated,PTH,ComponentDrill
T3C0.900
; #@! TA.AperFunction,Plated,PTH,ComponentDrill
T4C0.950
; #@! TA.AperFunction,Plated,PTH,ComponentDrill
T5C1.000
; #@! TA.AperFunction,Plated,PTH,ComponentDrill
T6C1.100
; #@! TA.AperFunction,Plated,PTH,ComponentDrill
T7C1.300
; #@! TA.AperFunction,Plated,PTH,ComponentDrill
T8C1.397
%
G90
G05
T1
X108.28Y-89.332
X108.433Y-144.755
X108.534Y-104.318
X109.803Y-78.803
X110.973Y-66.167
X112.979Y-80.315
X113.132Y-84.633
X114.097Y-69.926
X115.238Y-71.539
X116.738Y-71.653
X118.362Y-79.413
X118.948Y-134.239
X120.708Y-111.111
X122.047Y-93.218
X122.401Y-71.488
X123.165Y-69.469
X123.266Y-121.463
X123.366Y-73.342
X124.154Y-71.488
X124.511Y-113.436
X124.866Y-103.657
X126.568Y-79.223
X127.483Y-92.913
X128.6Y-113.563
X129.083Y-101.448
X129.616Y-103.734
X129.743Y-71.653
X129.894Y-79.26
X131.343Y-71.577
X132.029Y-102.565
X132.715Y-64.211
X132.842Y-147.701
X133.172Y-92.939
X133.655Y-108.001
X133.883Y-141.326
X134.341Y-67.793
X135.077Y-71.526
X135.839Y-92.812
X137.643Y-91.821
X137.693Y-63.652
X138.1Y-78.41
X139.141Y-70.434
X140.056Y-95.225
X143.866Y-86.081
X151.74Y-136.068
X153.01Y-152.425
X154.28Y-109.347
X158.521Y-148.59
X161.823Y-95.682
X161.95Y-83.668
X162.509Y-66.294
X165.329Y-143.129
X165.379Y-133.629
X169.748Y-98.704
X170.764Y-80.493
X171.196Y-108.407
X174.193Y-101.498
X174.295Y-66.37
X176.225Y-151.765
X176.301Y-120.117
X177.571Y-142.596
X178.511Y-138.938
X180.086Y-130.632
X182.118Y-66.853
X182.982Y-113.386
X184.277Y-116.662
X195.758Y-98.654
X199.238Y-134.315
X200.711Y-65.176
T2
X189.906Y-66.126
X189.906Y-68.666
X189.906Y-71.206
X189.906Y-73.746
X189.921Y-61.519
X197.526Y-66.126
X197.526Y-68.666
X197.526Y-71.206
X197.526Y-73.746
X197.541Y-61.519
T3
X196.24Y-146.772
X196.24Y-149.312
T4
X114.028Y-101.078
X114.028Y-103.578
X114.028Y-106.078
X114.028Y-108.578
X114.028Y-111.078
X114.028Y-113.578
X114.028Y-116.078
X114.028Y-118.578
X114.028Y-121.078
X138.024Y-128.183
X138.024Y-130.683
X138.024Y-133.183
X138.024Y-135.683
X149.381Y-88.773
X149.443Y-95.123
X150.841Y-80.955
X151.881Y-88.773
X151.943Y-95.123
X153.341Y-80.955
X154.381Y-88.773
X154.443Y-95.123
X155.841Y-80.955
X156.881Y-88.773
X156.943Y-95.123
X166.969Y-95.352
X169.469Y-95.352
X171.969Y-95.352
X174.469Y-95.352
T5
X115.087Y-146.202
X115.087Y-148.742
X117.627Y-146.202
X117.627Y-148.742
X120.167Y-146.202
X120.167Y-148.742
X122.707Y-146.202
X122.707Y-148.742
X124.054Y-86.919
X124.054Y-89.459
X124.155Y-95.682
X124.155Y-98.222
X125.247Y-146.202
X125.247Y-148.742
X126.594Y-86.919
X126.594Y-89.459
X126.695Y-95.682
X126.695Y-98.222
X129.134Y-86.919
X129.134Y-89.459
X129.235Y-95.682
X129.235Y-98.222
X131.674Y-86.919
X131.674Y-89.459
X131.775Y-95.682
X131.775Y-98.222
X134.214Y-86.919
X134.214Y-89.459
X134.315Y-95.682
X134.315Y-98.222
X138.811Y-107.772
X138.811Y-110.312
X138.811Y-112.852
X138.811Y-115.392
X138.811Y-117.932
X138.811Y-120.472
X144.501Y-102.616
X144.501Y-105.156
X144.501Y-107.696
X144.501Y-110.236
X144.501Y-112.776
X144.501Y-115.316
X144.501Y-117.856
X144.501Y-120.396
X144.501Y-122.936
X144.501Y-125.476
X144.501Y-128.016
X144.501Y-130.556
X144.501Y-133.096
X144.501Y-135.636
X144.501Y-138.176
X144.501Y-140.716
X144.501Y-143.256
X144.501Y-145.796
X144.501Y-148.336
X144.501Y-150.876
X162.239Y-112.776
X162.281Y-102.616
X162.281Y-105.156
X162.281Y-107.696
X162.281Y-110.236
X162.281Y-115.316
X162.281Y-117.856
X162.281Y-120.396
X162.281Y-122.936
X162.281Y-125.476
X162.281Y-128.016
X162.281Y-130.556
X162.281Y-133.096
X162.281Y-135.636
X162.281Y-138.176
X162.281Y-140.716
X162.281Y-143.256
X162.281Y-145.796
X162.281Y-148.336
X162.281Y-150.876
X168.123Y-122.961
X168.123Y-125.501
X168.123Y-128.041
X168.123Y-130.581
X168.123Y-133.121
X168.123Y-135.661
X168.173Y-140.259
X168.173Y-142.799
X168.173Y-145.339
X176.047Y-83.083
X178.547Y-83.083
X179.908Y-102.311
X179.908Y-104.851
X179.908Y-107.391
X189.281Y-138.089
X189.281Y-140.589
T6
X138.024Y-141.757
X138.024Y-151.917
T7
X148.029Y-65.952
X148.529Y-73.252
X152.629Y-62.052
X155.129Y-68.852
X157.829Y-70.052
T8
X169.542Y-71.717
X172.044Y-74.219
X177.041Y-71.719
X182.037Y-74.219
X184.539Y-71.717
M30
