%TF.GenerationSoftware,KiCad,Pcbnew,9.0.0*%
%TF.CreationDate,2026-01-16T11:45:50+01:00*%
%TF.ProjectId,AS3397-Conductor,41533333-3937-42d4-936f-6e647563746f,rev?*%
%TF.SameCoordinates,Original*%
%TF.FileFunction,Legend,Top*%
%TF.FilePolarity,Positive*%
%FSLAX46Y46*%
G04 Gerber Fmt 4.6, Leading zero omitted, Abs format (unit mm)*
G04 Created by KiCad (PCBNEW 9.0.0) date 2026-01-16 11:45:50*
%MOMM*%
%LPD*%
G01*
G04 APERTURE LIST*
%ADD10C,0.150000*%
%ADD11C,0.200000*%
%ADD12C,0.304800*%
%ADD13C,0.120000*%
%ADD14C,0.127000*%
%ADD15C,0.300000*%
%ADD16C,2.499360*%
G04 APERTURE END LIST*
D10*
X119481600Y-81762600D02*
X139014200Y-81762600D01*
X139014200Y-102133400D01*
X119481600Y-102133400D01*
X119481600Y-81762600D01*
X105740200Y-95300800D02*
X118364000Y-95300800D01*
X118364000Y-124891800D01*
X105740200Y-124891800D01*
X105740200Y-95300800D01*
X143840200Y-58699400D02*
X164388800Y-58699400D01*
X164388800Y-84658200D01*
X143840200Y-84658200D01*
X143840200Y-58699400D01*
X165828980Y-58501280D02*
X201472800Y-58501280D01*
X201472800Y-85877400D01*
X165828980Y-85877400D01*
X165828980Y-58501280D01*
X164388800Y-87045800D02*
X178968400Y-86995000D01*
X178841400Y-99745800D01*
X144068800Y-99796600D01*
X143840200Y-84658200D01*
X164388800Y-84658200D01*
X164388800Y-87045800D01*
X109245400Y-138963400D02*
X130911600Y-138963400D01*
X130911600Y-153974800D01*
X109245400Y-153974800D01*
X109245400Y-138963400D01*
D11*
X133952990Y-137561898D02*
X133914895Y-137638088D01*
X133914895Y-137638088D02*
X133914895Y-137752374D01*
X133914895Y-137752374D02*
X133952990Y-137866660D01*
X133952990Y-137866660D02*
X134029180Y-137942850D01*
X134029180Y-137942850D02*
X134105371Y-137980945D01*
X134105371Y-137980945D02*
X134257752Y-138019041D01*
X134257752Y-138019041D02*
X134372038Y-138019041D01*
X134372038Y-138019041D02*
X134524419Y-137980945D01*
X134524419Y-137980945D02*
X134600609Y-137942850D01*
X134600609Y-137942850D02*
X134676800Y-137866660D01*
X134676800Y-137866660D02*
X134714895Y-137752374D01*
X134714895Y-137752374D02*
X134714895Y-137676183D01*
X134714895Y-137676183D02*
X134676800Y-137561898D01*
X134676800Y-137561898D02*
X134638704Y-137523802D01*
X134638704Y-137523802D02*
X134372038Y-137523802D01*
X134372038Y-137523802D02*
X134372038Y-137676183D01*
X134714895Y-137180945D02*
X133914895Y-137180945D01*
X133914895Y-137180945D02*
X134714895Y-136723802D01*
X134714895Y-136723802D02*
X133914895Y-136723802D01*
X134714895Y-136342850D02*
X133914895Y-136342850D01*
X133914895Y-136342850D02*
X133914895Y-136152374D01*
X133914895Y-136152374D02*
X133952990Y-136038088D01*
X133952990Y-136038088D02*
X134029180Y-135961898D01*
X134029180Y-135961898D02*
X134105371Y-135923803D01*
X134105371Y-135923803D02*
X134257752Y-135885707D01*
X134257752Y-135885707D02*
X134372038Y-135885707D01*
X134372038Y-135885707D02*
X134524419Y-135923803D01*
X134524419Y-135923803D02*
X134600609Y-135961898D01*
X134600609Y-135961898D02*
X134676800Y-136038088D01*
X134676800Y-136038088D02*
X134714895Y-136152374D01*
X134714895Y-136152374D02*
X134714895Y-136342850D01*
X134486323Y-134971422D02*
X134486323Y-134590469D01*
X134714895Y-135047612D02*
X133914895Y-134780945D01*
X133914895Y-134780945D02*
X134714895Y-134514279D01*
X134714895Y-134247612D02*
X133914895Y-134247612D01*
X133914895Y-134247612D02*
X133914895Y-134057136D01*
X133914895Y-134057136D02*
X133952990Y-133942850D01*
X133952990Y-133942850D02*
X134029180Y-133866660D01*
X134029180Y-133866660D02*
X134105371Y-133828565D01*
X134105371Y-133828565D02*
X134257752Y-133790469D01*
X134257752Y-133790469D02*
X134372038Y-133790469D01*
X134372038Y-133790469D02*
X134524419Y-133828565D01*
X134524419Y-133828565D02*
X134600609Y-133866660D01*
X134600609Y-133866660D02*
X134676800Y-133942850D01*
X134676800Y-133942850D02*
X134714895Y-134057136D01*
X134714895Y-134057136D02*
X134714895Y-134247612D01*
X134638704Y-132990469D02*
X134676800Y-133028565D01*
X134676800Y-133028565D02*
X134714895Y-133142850D01*
X134714895Y-133142850D02*
X134714895Y-133219041D01*
X134714895Y-133219041D02*
X134676800Y-133333327D01*
X134676800Y-133333327D02*
X134600609Y-133409517D01*
X134600609Y-133409517D02*
X134524419Y-133447612D01*
X134524419Y-133447612D02*
X134372038Y-133485708D01*
X134372038Y-133485708D02*
X134257752Y-133485708D01*
X134257752Y-133485708D02*
X134105371Y-133447612D01*
X134105371Y-133447612D02*
X134029180Y-133409517D01*
X134029180Y-133409517D02*
X133952990Y-133333327D01*
X133952990Y-133333327D02*
X133914895Y-133219041D01*
X133914895Y-133219041D02*
X133914895Y-133142850D01*
X133914895Y-133142850D02*
X133952990Y-133028565D01*
X133952990Y-133028565D02*
X133991085Y-132990469D01*
X133991085Y-132685708D02*
X133952990Y-132647612D01*
X133952990Y-132647612D02*
X133914895Y-132571422D01*
X133914895Y-132571422D02*
X133914895Y-132380946D01*
X133914895Y-132380946D02*
X133952990Y-132304755D01*
X133952990Y-132304755D02*
X133991085Y-132266660D01*
X133991085Y-132266660D02*
X134067276Y-132228565D01*
X134067276Y-132228565D02*
X134143466Y-132228565D01*
X134143466Y-132228565D02*
X134257752Y-132266660D01*
X134257752Y-132266660D02*
X134714895Y-132723803D01*
X134714895Y-132723803D02*
X134714895Y-132228565D01*
X134486323Y-131314279D02*
X134486323Y-130933326D01*
X134714895Y-131390469D02*
X133914895Y-131123802D01*
X133914895Y-131123802D02*
X134714895Y-130857136D01*
X134714895Y-130590469D02*
X133914895Y-130590469D01*
X133914895Y-130590469D02*
X133914895Y-130399993D01*
X133914895Y-130399993D02*
X133952990Y-130285707D01*
X133952990Y-130285707D02*
X134029180Y-130209517D01*
X134029180Y-130209517D02*
X134105371Y-130171422D01*
X134105371Y-130171422D02*
X134257752Y-130133326D01*
X134257752Y-130133326D02*
X134372038Y-130133326D01*
X134372038Y-130133326D02*
X134524419Y-130171422D01*
X134524419Y-130171422D02*
X134600609Y-130209517D01*
X134600609Y-130209517D02*
X134676800Y-130285707D01*
X134676800Y-130285707D02*
X134714895Y-130399993D01*
X134714895Y-130399993D02*
X134714895Y-130590469D01*
X134638704Y-129333326D02*
X134676800Y-129371422D01*
X134676800Y-129371422D02*
X134714895Y-129485707D01*
X134714895Y-129485707D02*
X134714895Y-129561898D01*
X134714895Y-129561898D02*
X134676800Y-129676184D01*
X134676800Y-129676184D02*
X134600609Y-129752374D01*
X134600609Y-129752374D02*
X134524419Y-129790469D01*
X134524419Y-129790469D02*
X134372038Y-129828565D01*
X134372038Y-129828565D02*
X134257752Y-129828565D01*
X134257752Y-129828565D02*
X134105371Y-129790469D01*
X134105371Y-129790469D02*
X134029180Y-129752374D01*
X134029180Y-129752374D02*
X133952990Y-129676184D01*
X133952990Y-129676184D02*
X133914895Y-129561898D01*
X133914895Y-129561898D02*
X133914895Y-129485707D01*
X133914895Y-129485707D02*
X133952990Y-129371422D01*
X133952990Y-129371422D02*
X133991085Y-129333326D01*
X134714895Y-128571422D02*
X134714895Y-129028565D01*
X134714895Y-128799993D02*
X133914895Y-128799993D01*
X133914895Y-128799993D02*
X134029180Y-128876184D01*
X134029180Y-128876184D02*
X134105371Y-128952374D01*
X134105371Y-128952374D02*
X134143466Y-129028565D01*
X134486323Y-127657136D02*
X134486323Y-127276183D01*
X134714895Y-127733326D02*
X133914895Y-127466659D01*
X133914895Y-127466659D02*
X134714895Y-127199993D01*
X134714895Y-126933326D02*
X133914895Y-126933326D01*
X133914895Y-126933326D02*
X133914895Y-126742850D01*
X133914895Y-126742850D02*
X133952990Y-126628564D01*
X133952990Y-126628564D02*
X134029180Y-126552374D01*
X134029180Y-126552374D02*
X134105371Y-126514279D01*
X134105371Y-126514279D02*
X134257752Y-126476183D01*
X134257752Y-126476183D02*
X134372038Y-126476183D01*
X134372038Y-126476183D02*
X134524419Y-126514279D01*
X134524419Y-126514279D02*
X134600609Y-126552374D01*
X134600609Y-126552374D02*
X134676800Y-126628564D01*
X134676800Y-126628564D02*
X134714895Y-126742850D01*
X134714895Y-126742850D02*
X134714895Y-126933326D01*
X134638704Y-125676183D02*
X134676800Y-125714279D01*
X134676800Y-125714279D02*
X134714895Y-125828564D01*
X134714895Y-125828564D02*
X134714895Y-125904755D01*
X134714895Y-125904755D02*
X134676800Y-126019041D01*
X134676800Y-126019041D02*
X134600609Y-126095231D01*
X134600609Y-126095231D02*
X134524419Y-126133326D01*
X134524419Y-126133326D02*
X134372038Y-126171422D01*
X134372038Y-126171422D02*
X134257752Y-126171422D01*
X134257752Y-126171422D02*
X134105371Y-126133326D01*
X134105371Y-126133326D02*
X134029180Y-126095231D01*
X134029180Y-126095231D02*
X133952990Y-126019041D01*
X133952990Y-126019041D02*
X133914895Y-125904755D01*
X133914895Y-125904755D02*
X133914895Y-125828564D01*
X133914895Y-125828564D02*
X133952990Y-125714279D01*
X133952990Y-125714279D02*
X133991085Y-125676183D01*
X133914895Y-125180945D02*
X133914895Y-125104755D01*
X133914895Y-125104755D02*
X133952990Y-125028564D01*
X133952990Y-125028564D02*
X133991085Y-124990469D01*
X133991085Y-124990469D02*
X134067276Y-124952374D01*
X134067276Y-124952374D02*
X134219657Y-124914279D01*
X134219657Y-124914279D02*
X134410133Y-124914279D01*
X134410133Y-124914279D02*
X134562514Y-124952374D01*
X134562514Y-124952374D02*
X134638704Y-124990469D01*
X134638704Y-124990469D02*
X134676800Y-125028564D01*
X134676800Y-125028564D02*
X134714895Y-125104755D01*
X134714895Y-125104755D02*
X134714895Y-125180945D01*
X134714895Y-125180945D02*
X134676800Y-125257136D01*
X134676800Y-125257136D02*
X134638704Y-125295231D01*
X134638704Y-125295231D02*
X134562514Y-125333326D01*
X134562514Y-125333326D02*
X134410133Y-125371422D01*
X134410133Y-125371422D02*
X134219657Y-125371422D01*
X134219657Y-125371422D02*
X134067276Y-125333326D01*
X134067276Y-125333326D02*
X133991085Y-125295231D01*
X133991085Y-125295231D02*
X133952990Y-125257136D01*
X133952990Y-125257136D02*
X133914895Y-125180945D01*
D10*
X182854769Y-83096219D02*
X182378579Y-83096219D01*
X182378579Y-83096219D02*
X182330960Y-83572409D01*
X182330960Y-83572409D02*
X182378579Y-83524790D01*
X182378579Y-83524790D02*
X182473817Y-83477171D01*
X182473817Y-83477171D02*
X182711912Y-83477171D01*
X182711912Y-83477171D02*
X182807150Y-83524790D01*
X182807150Y-83524790D02*
X182854769Y-83572409D01*
X182854769Y-83572409D02*
X182902388Y-83667647D01*
X182902388Y-83667647D02*
X182902388Y-83905742D01*
X182902388Y-83905742D02*
X182854769Y-84000980D01*
X182854769Y-84000980D02*
X182807150Y-84048600D01*
X182807150Y-84048600D02*
X182711912Y-84096219D01*
X182711912Y-84096219D02*
X182473817Y-84096219D01*
X182473817Y-84096219D02*
X182378579Y-84048600D01*
X182378579Y-84048600D02*
X182330960Y-84000980D01*
X184045246Y-84048600D02*
X184140484Y-84096219D01*
X184140484Y-84096219D02*
X184330960Y-84096219D01*
X184330960Y-84096219D02*
X184426198Y-84048600D01*
X184426198Y-84048600D02*
X184473817Y-83953361D01*
X184473817Y-83953361D02*
X184473817Y-83905742D01*
X184473817Y-83905742D02*
X184426198Y-83810504D01*
X184426198Y-83810504D02*
X184330960Y-83762885D01*
X184330960Y-83762885D02*
X184188103Y-83762885D01*
X184188103Y-83762885D02*
X184092865Y-83715266D01*
X184092865Y-83715266D02*
X184045246Y-83620028D01*
X184045246Y-83620028D02*
X184045246Y-83572409D01*
X184045246Y-83572409D02*
X184092865Y-83477171D01*
X184092865Y-83477171D02*
X184188103Y-83429552D01*
X184188103Y-83429552D02*
X184330960Y-83429552D01*
X184330960Y-83429552D02*
X184426198Y-83477171D01*
X185045246Y-84096219D02*
X184950008Y-84048600D01*
X184950008Y-84048600D02*
X184902389Y-84000980D01*
X184902389Y-84000980D02*
X184854770Y-83905742D01*
X184854770Y-83905742D02*
X184854770Y-83620028D01*
X184854770Y-83620028D02*
X184902389Y-83524790D01*
X184902389Y-83524790D02*
X184950008Y-83477171D01*
X184950008Y-83477171D02*
X185045246Y-83429552D01*
X185045246Y-83429552D02*
X185188103Y-83429552D01*
X185188103Y-83429552D02*
X185283341Y-83477171D01*
X185283341Y-83477171D02*
X185330960Y-83524790D01*
X185330960Y-83524790D02*
X185378579Y-83620028D01*
X185378579Y-83620028D02*
X185378579Y-83905742D01*
X185378579Y-83905742D02*
X185330960Y-84000980D01*
X185330960Y-84000980D02*
X185283341Y-84048600D01*
X185283341Y-84048600D02*
X185188103Y-84096219D01*
X185188103Y-84096219D02*
X185045246Y-84096219D01*
X186235722Y-83429552D02*
X186235722Y-84096219D01*
X185807151Y-83429552D02*
X185807151Y-83953361D01*
X185807151Y-83953361D02*
X185854770Y-84048600D01*
X185854770Y-84048600D02*
X185950008Y-84096219D01*
X185950008Y-84096219D02*
X186092865Y-84096219D01*
X186092865Y-84096219D02*
X186188103Y-84048600D01*
X186188103Y-84048600D02*
X186235722Y-84000980D01*
X186711913Y-84096219D02*
X186711913Y-83429552D01*
X186711913Y-83620028D02*
X186759532Y-83524790D01*
X186759532Y-83524790D02*
X186807151Y-83477171D01*
X186807151Y-83477171D02*
X186902389Y-83429552D01*
X186902389Y-83429552D02*
X186997627Y-83429552D01*
X187759532Y-84048600D02*
X187664294Y-84096219D01*
X187664294Y-84096219D02*
X187473818Y-84096219D01*
X187473818Y-84096219D02*
X187378580Y-84048600D01*
X187378580Y-84048600D02*
X187330961Y-84000980D01*
X187330961Y-84000980D02*
X187283342Y-83905742D01*
X187283342Y-83905742D02*
X187283342Y-83620028D01*
X187283342Y-83620028D02*
X187330961Y-83524790D01*
X187330961Y-83524790D02*
X187378580Y-83477171D01*
X187378580Y-83477171D02*
X187473818Y-83429552D01*
X187473818Y-83429552D02*
X187664294Y-83429552D01*
X187664294Y-83429552D02*
X187759532Y-83477171D01*
X188569056Y-84048600D02*
X188473818Y-84096219D01*
X188473818Y-84096219D02*
X188283342Y-84096219D01*
X188283342Y-84096219D02*
X188188104Y-84048600D01*
X188188104Y-84048600D02*
X188140485Y-83953361D01*
X188140485Y-83953361D02*
X188140485Y-83572409D01*
X188140485Y-83572409D02*
X188188104Y-83477171D01*
X188188104Y-83477171D02*
X188283342Y-83429552D01*
X188283342Y-83429552D02*
X188473818Y-83429552D01*
X188473818Y-83429552D02*
X188569056Y-83477171D01*
X188569056Y-83477171D02*
X188616675Y-83572409D01*
X188616675Y-83572409D02*
X188616675Y-83667647D01*
X188616675Y-83667647D02*
X188140485Y-83762885D01*
D11*
X113199654Y-151986933D02*
X113809178Y-151986933D01*
X114571082Y-151491695D02*
X114190130Y-151491695D01*
X114190130Y-151491695D02*
X114152034Y-151872647D01*
X114152034Y-151872647D02*
X114190130Y-151834552D01*
X114190130Y-151834552D02*
X114266320Y-151796457D01*
X114266320Y-151796457D02*
X114456796Y-151796457D01*
X114456796Y-151796457D02*
X114532987Y-151834552D01*
X114532987Y-151834552D02*
X114571082Y-151872647D01*
X114571082Y-151872647D02*
X114609177Y-151948838D01*
X114609177Y-151948838D02*
X114609177Y-152139314D01*
X114609177Y-152139314D02*
X114571082Y-152215504D01*
X114571082Y-152215504D02*
X114532987Y-152253600D01*
X114532987Y-152253600D02*
X114456796Y-152291695D01*
X114456796Y-152291695D02*
X114266320Y-152291695D01*
X114266320Y-152291695D02*
X114190130Y-152253600D01*
X114190130Y-152253600D02*
X114152034Y-152215504D01*
X114837749Y-151491695D02*
X115104416Y-152291695D01*
X115104416Y-152291695D02*
X115371082Y-151491695D01*
X116666320Y-151529790D02*
X116590130Y-151491695D01*
X116590130Y-151491695D02*
X116475844Y-151491695D01*
X116475844Y-151491695D02*
X116361558Y-151529790D01*
X116361558Y-151529790D02*
X116285368Y-151605980D01*
X116285368Y-151605980D02*
X116247273Y-151682171D01*
X116247273Y-151682171D02*
X116209177Y-151834552D01*
X116209177Y-151834552D02*
X116209177Y-151948838D01*
X116209177Y-151948838D02*
X116247273Y-152101219D01*
X116247273Y-152101219D02*
X116285368Y-152177409D01*
X116285368Y-152177409D02*
X116361558Y-152253600D01*
X116361558Y-152253600D02*
X116475844Y-152291695D01*
X116475844Y-152291695D02*
X116552035Y-152291695D01*
X116552035Y-152291695D02*
X116666320Y-152253600D01*
X116666320Y-152253600D02*
X116704416Y-152215504D01*
X116704416Y-152215504D02*
X116704416Y-151948838D01*
X116704416Y-151948838D02*
X116552035Y-151948838D01*
X117047273Y-152291695D02*
X117047273Y-151491695D01*
X117047273Y-151491695D02*
X117504416Y-152291695D01*
X117504416Y-152291695D02*
X117504416Y-151491695D01*
X117885368Y-152291695D02*
X117885368Y-151491695D01*
X117885368Y-151491695D02*
X118075844Y-151491695D01*
X118075844Y-151491695D02*
X118190130Y-151529790D01*
X118190130Y-151529790D02*
X118266320Y-151605980D01*
X118266320Y-151605980D02*
X118304415Y-151682171D01*
X118304415Y-151682171D02*
X118342511Y-151834552D01*
X118342511Y-151834552D02*
X118342511Y-151948838D01*
X118342511Y-151948838D02*
X118304415Y-152101219D01*
X118304415Y-152101219D02*
X118266320Y-152177409D01*
X118266320Y-152177409D02*
X118190130Y-152253600D01*
X118190130Y-152253600D02*
X118075844Y-152291695D01*
X118075844Y-152291695D02*
X117885368Y-152291695D01*
X119713939Y-151529790D02*
X119637749Y-151491695D01*
X119637749Y-151491695D02*
X119523463Y-151491695D01*
X119523463Y-151491695D02*
X119409177Y-151529790D01*
X119409177Y-151529790D02*
X119332987Y-151605980D01*
X119332987Y-151605980D02*
X119294892Y-151682171D01*
X119294892Y-151682171D02*
X119256796Y-151834552D01*
X119256796Y-151834552D02*
X119256796Y-151948838D01*
X119256796Y-151948838D02*
X119294892Y-152101219D01*
X119294892Y-152101219D02*
X119332987Y-152177409D01*
X119332987Y-152177409D02*
X119409177Y-152253600D01*
X119409177Y-152253600D02*
X119523463Y-152291695D01*
X119523463Y-152291695D02*
X119599654Y-152291695D01*
X119599654Y-152291695D02*
X119713939Y-152253600D01*
X119713939Y-152253600D02*
X119752035Y-152215504D01*
X119752035Y-152215504D02*
X119752035Y-151948838D01*
X119752035Y-151948838D02*
X119599654Y-151948838D01*
X120094892Y-152291695D02*
X120094892Y-151491695D01*
X120094892Y-151491695D02*
X120552035Y-152291695D01*
X120552035Y-152291695D02*
X120552035Y-151491695D01*
X120932987Y-152291695D02*
X120932987Y-151491695D01*
X120932987Y-151491695D02*
X121123463Y-151491695D01*
X121123463Y-151491695D02*
X121237749Y-151529790D01*
X121237749Y-151529790D02*
X121313939Y-151605980D01*
X121313939Y-151605980D02*
X121352034Y-151682171D01*
X121352034Y-151682171D02*
X121390130Y-151834552D01*
X121390130Y-151834552D02*
X121390130Y-151948838D01*
X121390130Y-151948838D02*
X121352034Y-152101219D01*
X121352034Y-152101219D02*
X121313939Y-152177409D01*
X121313939Y-152177409D02*
X121237749Y-152253600D01*
X121237749Y-152253600D02*
X121123463Y-152291695D01*
X121123463Y-152291695D02*
X120932987Y-152291695D01*
X122761558Y-151529790D02*
X122685368Y-151491695D01*
X122685368Y-151491695D02*
X122571082Y-151491695D01*
X122571082Y-151491695D02*
X122456796Y-151529790D01*
X122456796Y-151529790D02*
X122380606Y-151605980D01*
X122380606Y-151605980D02*
X122342511Y-151682171D01*
X122342511Y-151682171D02*
X122304415Y-151834552D01*
X122304415Y-151834552D02*
X122304415Y-151948838D01*
X122304415Y-151948838D02*
X122342511Y-152101219D01*
X122342511Y-152101219D02*
X122380606Y-152177409D01*
X122380606Y-152177409D02*
X122456796Y-152253600D01*
X122456796Y-152253600D02*
X122571082Y-152291695D01*
X122571082Y-152291695D02*
X122647273Y-152291695D01*
X122647273Y-152291695D02*
X122761558Y-152253600D01*
X122761558Y-152253600D02*
X122799654Y-152215504D01*
X122799654Y-152215504D02*
X122799654Y-151948838D01*
X122799654Y-151948838D02*
X122647273Y-151948838D01*
X123142511Y-152291695D02*
X123142511Y-151491695D01*
X123142511Y-151491695D02*
X123599654Y-152291695D01*
X123599654Y-152291695D02*
X123599654Y-151491695D01*
X123980606Y-152291695D02*
X123980606Y-151491695D01*
X123980606Y-151491695D02*
X124171082Y-151491695D01*
X124171082Y-151491695D02*
X124285368Y-151529790D01*
X124285368Y-151529790D02*
X124361558Y-151605980D01*
X124361558Y-151605980D02*
X124399653Y-151682171D01*
X124399653Y-151682171D02*
X124437749Y-151834552D01*
X124437749Y-151834552D02*
X124437749Y-151948838D01*
X124437749Y-151948838D02*
X124399653Y-152101219D01*
X124399653Y-152101219D02*
X124361558Y-152177409D01*
X124361558Y-152177409D02*
X124285368Y-152253600D01*
X124285368Y-152253600D02*
X124171082Y-152291695D01*
X124171082Y-152291695D02*
X123980606Y-152291695D01*
X125809177Y-151529790D02*
X125732987Y-151491695D01*
X125732987Y-151491695D02*
X125618701Y-151491695D01*
X125618701Y-151491695D02*
X125504415Y-151529790D01*
X125504415Y-151529790D02*
X125428225Y-151605980D01*
X125428225Y-151605980D02*
X125390130Y-151682171D01*
X125390130Y-151682171D02*
X125352034Y-151834552D01*
X125352034Y-151834552D02*
X125352034Y-151948838D01*
X125352034Y-151948838D02*
X125390130Y-152101219D01*
X125390130Y-152101219D02*
X125428225Y-152177409D01*
X125428225Y-152177409D02*
X125504415Y-152253600D01*
X125504415Y-152253600D02*
X125618701Y-152291695D01*
X125618701Y-152291695D02*
X125694892Y-152291695D01*
X125694892Y-152291695D02*
X125809177Y-152253600D01*
X125809177Y-152253600D02*
X125847273Y-152215504D01*
X125847273Y-152215504D02*
X125847273Y-151948838D01*
X125847273Y-151948838D02*
X125694892Y-151948838D01*
X126190130Y-152291695D02*
X126190130Y-151491695D01*
X126190130Y-151491695D02*
X126647273Y-152291695D01*
X126647273Y-152291695D02*
X126647273Y-151491695D01*
X127028225Y-152291695D02*
X127028225Y-151491695D01*
X127028225Y-151491695D02*
X127218701Y-151491695D01*
X127218701Y-151491695D02*
X127332987Y-151529790D01*
X127332987Y-151529790D02*
X127409177Y-151605980D01*
X127409177Y-151605980D02*
X127447272Y-151682171D01*
X127447272Y-151682171D02*
X127485368Y-151834552D01*
X127485368Y-151834552D02*
X127485368Y-151948838D01*
X127485368Y-151948838D02*
X127447272Y-152101219D01*
X127447272Y-152101219D02*
X127409177Y-152177409D01*
X127409177Y-152177409D02*
X127332987Y-152253600D01*
X127332987Y-152253600D02*
X127218701Y-152291695D01*
X127218701Y-152291695D02*
X127028225Y-152291695D01*
X135718285Y-120061241D02*
X135680190Y-120023145D01*
X135680190Y-120023145D02*
X135642095Y-119946955D01*
X135642095Y-119946955D02*
X135642095Y-119756479D01*
X135642095Y-119756479D02*
X135680190Y-119680288D01*
X135680190Y-119680288D02*
X135718285Y-119642193D01*
X135718285Y-119642193D02*
X135794476Y-119604098D01*
X135794476Y-119604098D02*
X135870666Y-119604098D01*
X135870666Y-119604098D02*
X135984952Y-119642193D01*
X135984952Y-119642193D02*
X136442095Y-120099336D01*
X136442095Y-120099336D02*
X136442095Y-119604098D01*
X135718285Y-119299336D02*
X135680190Y-119261240D01*
X135680190Y-119261240D02*
X135642095Y-119185050D01*
X135642095Y-119185050D02*
X135642095Y-118994574D01*
X135642095Y-118994574D02*
X135680190Y-118918383D01*
X135680190Y-118918383D02*
X135718285Y-118880288D01*
X135718285Y-118880288D02*
X135794476Y-118842193D01*
X135794476Y-118842193D02*
X135870666Y-118842193D01*
X135870666Y-118842193D02*
X135984952Y-118880288D01*
X135984952Y-118880288D02*
X136442095Y-119337431D01*
X136442095Y-119337431D02*
X136442095Y-118842193D01*
X135718285Y-117927907D02*
X135680190Y-117889811D01*
X135680190Y-117889811D02*
X135642095Y-117813621D01*
X135642095Y-117813621D02*
X135642095Y-117623145D01*
X135642095Y-117623145D02*
X135680190Y-117546954D01*
X135680190Y-117546954D02*
X135718285Y-117508859D01*
X135718285Y-117508859D02*
X135794476Y-117470764D01*
X135794476Y-117470764D02*
X135870666Y-117470764D01*
X135870666Y-117470764D02*
X135984952Y-117508859D01*
X135984952Y-117508859D02*
X136442095Y-117966002D01*
X136442095Y-117966002D02*
X136442095Y-117470764D01*
X136442095Y-116708859D02*
X136442095Y-117166002D01*
X136442095Y-116937430D02*
X135642095Y-116937430D01*
X135642095Y-116937430D02*
X135756380Y-117013621D01*
X135756380Y-117013621D02*
X135832571Y-117089811D01*
X135832571Y-117089811D02*
X135870666Y-117166002D01*
X135718285Y-115794573D02*
X135680190Y-115756477D01*
X135680190Y-115756477D02*
X135642095Y-115680287D01*
X135642095Y-115680287D02*
X135642095Y-115489811D01*
X135642095Y-115489811D02*
X135680190Y-115413620D01*
X135680190Y-115413620D02*
X135718285Y-115375525D01*
X135718285Y-115375525D02*
X135794476Y-115337430D01*
X135794476Y-115337430D02*
X135870666Y-115337430D01*
X135870666Y-115337430D02*
X135984952Y-115375525D01*
X135984952Y-115375525D02*
X136442095Y-115832668D01*
X136442095Y-115832668D02*
X136442095Y-115337430D01*
X135642095Y-114842191D02*
X135642095Y-114766001D01*
X135642095Y-114766001D02*
X135680190Y-114689810D01*
X135680190Y-114689810D02*
X135718285Y-114651715D01*
X135718285Y-114651715D02*
X135794476Y-114613620D01*
X135794476Y-114613620D02*
X135946857Y-114575525D01*
X135946857Y-114575525D02*
X136137333Y-114575525D01*
X136137333Y-114575525D02*
X136289714Y-114613620D01*
X136289714Y-114613620D02*
X136365904Y-114651715D01*
X136365904Y-114651715D02*
X136404000Y-114689810D01*
X136404000Y-114689810D02*
X136442095Y-114766001D01*
X136442095Y-114766001D02*
X136442095Y-114842191D01*
X136442095Y-114842191D02*
X136404000Y-114918382D01*
X136404000Y-114918382D02*
X136365904Y-114956477D01*
X136365904Y-114956477D02*
X136289714Y-114994572D01*
X136289714Y-114994572D02*
X136137333Y-115032668D01*
X136137333Y-115032668D02*
X135946857Y-115032668D01*
X135946857Y-115032668D02*
X135794476Y-114994572D01*
X135794476Y-114994572D02*
X135718285Y-114956477D01*
X135718285Y-114956477D02*
X135680190Y-114918382D01*
X135680190Y-114918382D02*
X135642095Y-114842191D01*
X136442095Y-113204096D02*
X136442095Y-113661239D01*
X136442095Y-113432667D02*
X135642095Y-113432667D01*
X135642095Y-113432667D02*
X135756380Y-113508858D01*
X135756380Y-113508858D02*
X135832571Y-113585048D01*
X135832571Y-113585048D02*
X135870666Y-113661239D01*
X136442095Y-112823143D02*
X136442095Y-112670762D01*
X136442095Y-112670762D02*
X136404000Y-112594572D01*
X136404000Y-112594572D02*
X136365904Y-112556476D01*
X136365904Y-112556476D02*
X136251619Y-112480286D01*
X136251619Y-112480286D02*
X136099238Y-112442191D01*
X136099238Y-112442191D02*
X135794476Y-112442191D01*
X135794476Y-112442191D02*
X135718285Y-112480286D01*
X135718285Y-112480286D02*
X135680190Y-112518381D01*
X135680190Y-112518381D02*
X135642095Y-112594572D01*
X135642095Y-112594572D02*
X135642095Y-112746953D01*
X135642095Y-112746953D02*
X135680190Y-112823143D01*
X135680190Y-112823143D02*
X135718285Y-112861238D01*
X135718285Y-112861238D02*
X135794476Y-112899334D01*
X135794476Y-112899334D02*
X135984952Y-112899334D01*
X135984952Y-112899334D02*
X136061142Y-112861238D01*
X136061142Y-112861238D02*
X136099238Y-112823143D01*
X136099238Y-112823143D02*
X136137333Y-112746953D01*
X136137333Y-112746953D02*
X136137333Y-112594572D01*
X136137333Y-112594572D02*
X136099238Y-112518381D01*
X136099238Y-112518381D02*
X136061142Y-112480286D01*
X136061142Y-112480286D02*
X135984952Y-112442191D01*
X136442095Y-111070762D02*
X136442095Y-111527905D01*
X136442095Y-111299333D02*
X135642095Y-111299333D01*
X135642095Y-111299333D02*
X135756380Y-111375524D01*
X135756380Y-111375524D02*
X135832571Y-111451714D01*
X135832571Y-111451714D02*
X135870666Y-111527905D01*
X135984952Y-110613619D02*
X135946857Y-110689809D01*
X135946857Y-110689809D02*
X135908761Y-110727904D01*
X135908761Y-110727904D02*
X135832571Y-110766000D01*
X135832571Y-110766000D02*
X135794476Y-110766000D01*
X135794476Y-110766000D02*
X135718285Y-110727904D01*
X135718285Y-110727904D02*
X135680190Y-110689809D01*
X135680190Y-110689809D02*
X135642095Y-110613619D01*
X135642095Y-110613619D02*
X135642095Y-110461238D01*
X135642095Y-110461238D02*
X135680190Y-110385047D01*
X135680190Y-110385047D02*
X135718285Y-110346952D01*
X135718285Y-110346952D02*
X135794476Y-110308857D01*
X135794476Y-110308857D02*
X135832571Y-110308857D01*
X135832571Y-110308857D02*
X135908761Y-110346952D01*
X135908761Y-110346952D02*
X135946857Y-110385047D01*
X135946857Y-110385047D02*
X135984952Y-110461238D01*
X135984952Y-110461238D02*
X135984952Y-110613619D01*
X135984952Y-110613619D02*
X136023047Y-110689809D01*
X136023047Y-110689809D02*
X136061142Y-110727904D01*
X136061142Y-110727904D02*
X136137333Y-110766000D01*
X136137333Y-110766000D02*
X136289714Y-110766000D01*
X136289714Y-110766000D02*
X136365904Y-110727904D01*
X136365904Y-110727904D02*
X136404000Y-110689809D01*
X136404000Y-110689809D02*
X136442095Y-110613619D01*
X136442095Y-110613619D02*
X136442095Y-110461238D01*
X136442095Y-110461238D02*
X136404000Y-110385047D01*
X136404000Y-110385047D02*
X136365904Y-110346952D01*
X136365904Y-110346952D02*
X136289714Y-110308857D01*
X136289714Y-110308857D02*
X136137333Y-110308857D01*
X136137333Y-110308857D02*
X136061142Y-110346952D01*
X136061142Y-110346952D02*
X136023047Y-110385047D01*
X136023047Y-110385047D02*
X135984952Y-110461238D01*
X135680190Y-108937428D02*
X135642095Y-109013618D01*
X135642095Y-109013618D02*
X135642095Y-109127904D01*
X135642095Y-109127904D02*
X135680190Y-109242190D01*
X135680190Y-109242190D02*
X135756380Y-109318380D01*
X135756380Y-109318380D02*
X135832571Y-109356475D01*
X135832571Y-109356475D02*
X135984952Y-109394571D01*
X135984952Y-109394571D02*
X136099238Y-109394571D01*
X136099238Y-109394571D02*
X136251619Y-109356475D01*
X136251619Y-109356475D02*
X136327809Y-109318380D01*
X136327809Y-109318380D02*
X136404000Y-109242190D01*
X136404000Y-109242190D02*
X136442095Y-109127904D01*
X136442095Y-109127904D02*
X136442095Y-109051713D01*
X136442095Y-109051713D02*
X136404000Y-108937428D01*
X136404000Y-108937428D02*
X136365904Y-108899332D01*
X136365904Y-108899332D02*
X136099238Y-108899332D01*
X136099238Y-108899332D02*
X136099238Y-109051713D01*
X136442095Y-108556475D02*
X135642095Y-108556475D01*
X135642095Y-108556475D02*
X136442095Y-108099332D01*
X136442095Y-108099332D02*
X135642095Y-108099332D01*
X136442095Y-107718380D02*
X135642095Y-107718380D01*
X135642095Y-107718380D02*
X135642095Y-107527904D01*
X135642095Y-107527904D02*
X135680190Y-107413618D01*
X135680190Y-107413618D02*
X135756380Y-107337428D01*
X135756380Y-107337428D02*
X135832571Y-107299333D01*
X135832571Y-107299333D02*
X135984952Y-107261237D01*
X135984952Y-107261237D02*
X136099238Y-107261237D01*
X136099238Y-107261237D02*
X136251619Y-107299333D01*
X136251619Y-107299333D02*
X136327809Y-107337428D01*
X136327809Y-107337428D02*
X136404000Y-107413618D01*
X136404000Y-107413618D02*
X136442095Y-107527904D01*
X136442095Y-107527904D02*
X136442095Y-107718380D01*
X106386092Y-96413600D02*
X107300378Y-96413600D01*
X107871806Y-96070742D02*
X108786092Y-96413600D01*
X108786092Y-96413600D02*
X107871806Y-96756457D01*
X110100377Y-95670742D02*
X110500377Y-96870742D01*
X110500377Y-96870742D02*
X110900377Y-95670742D01*
X111471805Y-96870742D02*
X111357520Y-96813600D01*
X111357520Y-96813600D02*
X111300377Y-96756457D01*
X111300377Y-96756457D02*
X111243234Y-96642171D01*
X111243234Y-96642171D02*
X111243234Y-96299314D01*
X111243234Y-96299314D02*
X111300377Y-96185028D01*
X111300377Y-96185028D02*
X111357520Y-96127885D01*
X111357520Y-96127885D02*
X111471805Y-96070742D01*
X111471805Y-96070742D02*
X111643234Y-96070742D01*
X111643234Y-96070742D02*
X111757520Y-96127885D01*
X111757520Y-96127885D02*
X111814663Y-96185028D01*
X111814663Y-96185028D02*
X111871805Y-96299314D01*
X111871805Y-96299314D02*
X111871805Y-96642171D01*
X111871805Y-96642171D02*
X111814663Y-96756457D01*
X111814663Y-96756457D02*
X111757520Y-96813600D01*
X111757520Y-96813600D02*
X111643234Y-96870742D01*
X111643234Y-96870742D02*
X111471805Y-96870742D01*
X112386091Y-96870742D02*
X112386091Y-96070742D01*
X112386091Y-95670742D02*
X112328948Y-95727885D01*
X112328948Y-95727885D02*
X112386091Y-95785028D01*
X112386091Y-95785028D02*
X112443234Y-95727885D01*
X112443234Y-95727885D02*
X112386091Y-95670742D01*
X112386091Y-95670742D02*
X112386091Y-95785028D01*
X113471806Y-96813600D02*
X113357520Y-96870742D01*
X113357520Y-96870742D02*
X113128948Y-96870742D01*
X113128948Y-96870742D02*
X113014663Y-96813600D01*
X113014663Y-96813600D02*
X112957520Y-96756457D01*
X112957520Y-96756457D02*
X112900377Y-96642171D01*
X112900377Y-96642171D02*
X112900377Y-96299314D01*
X112900377Y-96299314D02*
X112957520Y-96185028D01*
X112957520Y-96185028D02*
X113014663Y-96127885D01*
X113014663Y-96127885D02*
X113128948Y-96070742D01*
X113128948Y-96070742D02*
X113357520Y-96070742D01*
X113357520Y-96070742D02*
X113471806Y-96127885D01*
X114443234Y-96813600D02*
X114328948Y-96870742D01*
X114328948Y-96870742D02*
X114100377Y-96870742D01*
X114100377Y-96870742D02*
X113986091Y-96813600D01*
X113986091Y-96813600D02*
X113928948Y-96699314D01*
X113928948Y-96699314D02*
X113928948Y-96242171D01*
X113928948Y-96242171D02*
X113986091Y-96127885D01*
X113986091Y-96127885D02*
X114100377Y-96070742D01*
X114100377Y-96070742D02*
X114328948Y-96070742D01*
X114328948Y-96070742D02*
X114443234Y-96127885D01*
X114443234Y-96127885D02*
X114500377Y-96242171D01*
X114500377Y-96242171D02*
X114500377Y-96356457D01*
X114500377Y-96356457D02*
X113928948Y-96470742D01*
X114957519Y-96813600D02*
X115071805Y-96870742D01*
X115071805Y-96870742D02*
X115300376Y-96870742D01*
X115300376Y-96870742D02*
X115414662Y-96813600D01*
X115414662Y-96813600D02*
X115471805Y-96699314D01*
X115471805Y-96699314D02*
X115471805Y-96642171D01*
X115471805Y-96642171D02*
X115414662Y-96527885D01*
X115414662Y-96527885D02*
X115300376Y-96470742D01*
X115300376Y-96470742D02*
X115128948Y-96470742D01*
X115128948Y-96470742D02*
X115014662Y-96413600D01*
X115014662Y-96413600D02*
X114957519Y-96299314D01*
X114957519Y-96299314D02*
X114957519Y-96242171D01*
X114957519Y-96242171D02*
X115014662Y-96127885D01*
X115014662Y-96127885D02*
X115128948Y-96070742D01*
X115128948Y-96070742D02*
X115300376Y-96070742D01*
X115300376Y-96070742D02*
X115414662Y-96127885D01*
X120508492Y-83205600D02*
X121422778Y-83205600D01*
X121994206Y-82862742D02*
X122908492Y-83205600D01*
X122908492Y-83205600D02*
X121994206Y-83548457D01*
X124794206Y-83034171D02*
X124394206Y-83034171D01*
X124394206Y-83662742D02*
X124394206Y-82462742D01*
X124394206Y-82462742D02*
X124965634Y-82462742D01*
X125308491Y-82462742D02*
X126108491Y-83662742D01*
X126108491Y-82462742D02*
X125308491Y-83662742D01*
X170706790Y-146197898D02*
X170668695Y-146274088D01*
X170668695Y-146274088D02*
X170668695Y-146388374D01*
X170668695Y-146388374D02*
X170706790Y-146502660D01*
X170706790Y-146502660D02*
X170782980Y-146578850D01*
X170782980Y-146578850D02*
X170859171Y-146616945D01*
X170859171Y-146616945D02*
X171011552Y-146655041D01*
X171011552Y-146655041D02*
X171125838Y-146655041D01*
X171125838Y-146655041D02*
X171278219Y-146616945D01*
X171278219Y-146616945D02*
X171354409Y-146578850D01*
X171354409Y-146578850D02*
X171430600Y-146502660D01*
X171430600Y-146502660D02*
X171468695Y-146388374D01*
X171468695Y-146388374D02*
X171468695Y-146312183D01*
X171468695Y-146312183D02*
X171430600Y-146197898D01*
X171430600Y-146197898D02*
X171392504Y-146159802D01*
X171392504Y-146159802D02*
X171125838Y-146159802D01*
X171125838Y-146159802D02*
X171125838Y-146312183D01*
X171468695Y-145816945D02*
X170668695Y-145816945D01*
X170668695Y-145816945D02*
X171468695Y-145359802D01*
X171468695Y-145359802D02*
X170668695Y-145359802D01*
X171468695Y-144978850D02*
X170668695Y-144978850D01*
X170668695Y-144978850D02*
X170668695Y-144788374D01*
X170668695Y-144788374D02*
X170706790Y-144674088D01*
X170706790Y-144674088D02*
X170782980Y-144597898D01*
X170782980Y-144597898D02*
X170859171Y-144559803D01*
X170859171Y-144559803D02*
X171011552Y-144521707D01*
X171011552Y-144521707D02*
X171125838Y-144521707D01*
X171125838Y-144521707D02*
X171278219Y-144559803D01*
X171278219Y-144559803D02*
X171354409Y-144597898D01*
X171354409Y-144597898D02*
X171430600Y-144674088D01*
X171430600Y-144674088D02*
X171468695Y-144788374D01*
X171468695Y-144788374D02*
X171468695Y-144978850D01*
X170668695Y-143416945D02*
X170668695Y-143340755D01*
X170668695Y-143340755D02*
X170706790Y-143264564D01*
X170706790Y-143264564D02*
X170744885Y-143226469D01*
X170744885Y-143226469D02*
X170821076Y-143188374D01*
X170821076Y-143188374D02*
X170973457Y-143150279D01*
X170973457Y-143150279D02*
X171163933Y-143150279D01*
X171163933Y-143150279D02*
X171316314Y-143188374D01*
X171316314Y-143188374D02*
X171392504Y-143226469D01*
X171392504Y-143226469D02*
X171430600Y-143264564D01*
X171430600Y-143264564D02*
X171468695Y-143340755D01*
X171468695Y-143340755D02*
X171468695Y-143416945D01*
X171468695Y-143416945D02*
X171430600Y-143493136D01*
X171430600Y-143493136D02*
X171392504Y-143531231D01*
X171392504Y-143531231D02*
X171316314Y-143569326D01*
X171316314Y-143569326D02*
X171163933Y-143607422D01*
X171163933Y-143607422D02*
X170973457Y-143607422D01*
X170973457Y-143607422D02*
X170821076Y-143569326D01*
X170821076Y-143569326D02*
X170744885Y-143531231D01*
X170744885Y-143531231D02*
X170706790Y-143493136D01*
X170706790Y-143493136D02*
X170668695Y-143416945D01*
X170935361Y-142464564D02*
X171468695Y-142464564D01*
X170630600Y-142655040D02*
X171202028Y-142845517D01*
X171202028Y-142845517D02*
X171202028Y-142350278D01*
X170668695Y-141283611D02*
X170668695Y-141207421D01*
X170668695Y-141207421D02*
X170706790Y-141131230D01*
X170706790Y-141131230D02*
X170744885Y-141093135D01*
X170744885Y-141093135D02*
X170821076Y-141055040D01*
X170821076Y-141055040D02*
X170973457Y-141016945D01*
X170973457Y-141016945D02*
X171163933Y-141016945D01*
X171163933Y-141016945D02*
X171316314Y-141055040D01*
X171316314Y-141055040D02*
X171392504Y-141093135D01*
X171392504Y-141093135D02*
X171430600Y-141131230D01*
X171430600Y-141131230D02*
X171468695Y-141207421D01*
X171468695Y-141207421D02*
X171468695Y-141283611D01*
X171468695Y-141283611D02*
X171430600Y-141359802D01*
X171430600Y-141359802D02*
X171392504Y-141397897D01*
X171392504Y-141397897D02*
X171316314Y-141435992D01*
X171316314Y-141435992D02*
X171163933Y-141474088D01*
X171163933Y-141474088D02*
X170973457Y-141474088D01*
X170973457Y-141474088D02*
X170821076Y-141435992D01*
X170821076Y-141435992D02*
X170744885Y-141397897D01*
X170744885Y-141397897D02*
X170706790Y-141359802D01*
X170706790Y-141359802D02*
X170668695Y-141283611D01*
X170668695Y-140293135D02*
X170668695Y-140674087D01*
X170668695Y-140674087D02*
X171049647Y-140712183D01*
X171049647Y-140712183D02*
X171011552Y-140674087D01*
X171011552Y-140674087D02*
X170973457Y-140597897D01*
X170973457Y-140597897D02*
X170973457Y-140407421D01*
X170973457Y-140407421D02*
X171011552Y-140331230D01*
X171011552Y-140331230D02*
X171049647Y-140293135D01*
X171049647Y-140293135D02*
X171125838Y-140255040D01*
X171125838Y-140255040D02*
X171316314Y-140255040D01*
X171316314Y-140255040D02*
X171392504Y-140293135D01*
X171392504Y-140293135D02*
X171430600Y-140331230D01*
X171430600Y-140331230D02*
X171468695Y-140407421D01*
X171468695Y-140407421D02*
X171468695Y-140597897D01*
X171468695Y-140597897D02*
X171430600Y-140674087D01*
X171430600Y-140674087D02*
X171392504Y-140712183D01*
X148289758Y-99294600D02*
X148404044Y-99332695D01*
X148404044Y-99332695D02*
X148594520Y-99332695D01*
X148594520Y-99332695D02*
X148670711Y-99294600D01*
X148670711Y-99294600D02*
X148708806Y-99256504D01*
X148708806Y-99256504D02*
X148746901Y-99180314D01*
X148746901Y-99180314D02*
X148746901Y-99104123D01*
X148746901Y-99104123D02*
X148708806Y-99027933D01*
X148708806Y-99027933D02*
X148670711Y-98989838D01*
X148670711Y-98989838D02*
X148594520Y-98951742D01*
X148594520Y-98951742D02*
X148442139Y-98913647D01*
X148442139Y-98913647D02*
X148365949Y-98875552D01*
X148365949Y-98875552D02*
X148327854Y-98837457D01*
X148327854Y-98837457D02*
X148289758Y-98761266D01*
X148289758Y-98761266D02*
X148289758Y-98685076D01*
X148289758Y-98685076D02*
X148327854Y-98608885D01*
X148327854Y-98608885D02*
X148365949Y-98570790D01*
X148365949Y-98570790D02*
X148442139Y-98532695D01*
X148442139Y-98532695D02*
X148632616Y-98532695D01*
X148632616Y-98532695D02*
X148746901Y-98570790D01*
X149546902Y-99256504D02*
X149508806Y-99294600D01*
X149508806Y-99294600D02*
X149394521Y-99332695D01*
X149394521Y-99332695D02*
X149318330Y-99332695D01*
X149318330Y-99332695D02*
X149204044Y-99294600D01*
X149204044Y-99294600D02*
X149127854Y-99218409D01*
X149127854Y-99218409D02*
X149089759Y-99142219D01*
X149089759Y-99142219D02*
X149051663Y-98989838D01*
X149051663Y-98989838D02*
X149051663Y-98875552D01*
X149051663Y-98875552D02*
X149089759Y-98723171D01*
X149089759Y-98723171D02*
X149127854Y-98646980D01*
X149127854Y-98646980D02*
X149204044Y-98570790D01*
X149204044Y-98570790D02*
X149318330Y-98532695D01*
X149318330Y-98532695D02*
X149394521Y-98532695D01*
X149394521Y-98532695D02*
X149508806Y-98570790D01*
X149508806Y-98570790D02*
X149546902Y-98608885D01*
X150270711Y-99332695D02*
X149889759Y-99332695D01*
X149889759Y-99332695D02*
X149889759Y-98532695D01*
X151108806Y-99294600D02*
X151223092Y-99332695D01*
X151223092Y-99332695D02*
X151413568Y-99332695D01*
X151413568Y-99332695D02*
X151489759Y-99294600D01*
X151489759Y-99294600D02*
X151527854Y-99256504D01*
X151527854Y-99256504D02*
X151565949Y-99180314D01*
X151565949Y-99180314D02*
X151565949Y-99104123D01*
X151565949Y-99104123D02*
X151527854Y-99027933D01*
X151527854Y-99027933D02*
X151489759Y-98989838D01*
X151489759Y-98989838D02*
X151413568Y-98951742D01*
X151413568Y-98951742D02*
X151261187Y-98913647D01*
X151261187Y-98913647D02*
X151184997Y-98875552D01*
X151184997Y-98875552D02*
X151146902Y-98837457D01*
X151146902Y-98837457D02*
X151108806Y-98761266D01*
X151108806Y-98761266D02*
X151108806Y-98685076D01*
X151108806Y-98685076D02*
X151146902Y-98608885D01*
X151146902Y-98608885D02*
X151184997Y-98570790D01*
X151184997Y-98570790D02*
X151261187Y-98532695D01*
X151261187Y-98532695D02*
X151451664Y-98532695D01*
X151451664Y-98532695D02*
X151565949Y-98570790D01*
X151908807Y-99332695D02*
X151908807Y-98532695D01*
X151908807Y-98532695D02*
X152099283Y-98532695D01*
X152099283Y-98532695D02*
X152213569Y-98570790D01*
X152213569Y-98570790D02*
X152289759Y-98646980D01*
X152289759Y-98646980D02*
X152327854Y-98723171D01*
X152327854Y-98723171D02*
X152365950Y-98875552D01*
X152365950Y-98875552D02*
X152365950Y-98989838D01*
X152365950Y-98989838D02*
X152327854Y-99142219D01*
X152327854Y-99142219D02*
X152289759Y-99218409D01*
X152289759Y-99218409D02*
X152213569Y-99294600D01*
X152213569Y-99294600D02*
X152099283Y-99332695D01*
X152099283Y-99332695D02*
X151908807Y-99332695D01*
X152670711Y-99104123D02*
X153051664Y-99104123D01*
X152594521Y-99332695D02*
X152861188Y-98532695D01*
X152861188Y-98532695D02*
X153127854Y-99332695D01*
X153927854Y-98532695D02*
X154423092Y-98532695D01*
X154423092Y-98532695D02*
X154156426Y-98837457D01*
X154156426Y-98837457D02*
X154270711Y-98837457D01*
X154270711Y-98837457D02*
X154346902Y-98875552D01*
X154346902Y-98875552D02*
X154384997Y-98913647D01*
X154384997Y-98913647D02*
X154423092Y-98989838D01*
X154423092Y-98989838D02*
X154423092Y-99180314D01*
X154423092Y-99180314D02*
X154384997Y-99256504D01*
X154384997Y-99256504D02*
X154346902Y-99294600D01*
X154346902Y-99294600D02*
X154270711Y-99332695D01*
X154270711Y-99332695D02*
X154042140Y-99332695D01*
X154042140Y-99332695D02*
X153965949Y-99294600D01*
X153965949Y-99294600D02*
X153927854Y-99256504D01*
X154651664Y-98532695D02*
X154918331Y-99332695D01*
X154918331Y-99332695D02*
X155184997Y-98532695D01*
X155375473Y-98532695D02*
X155870711Y-98532695D01*
X155870711Y-98532695D02*
X155604045Y-98837457D01*
X155604045Y-98837457D02*
X155718330Y-98837457D01*
X155718330Y-98837457D02*
X155794521Y-98875552D01*
X155794521Y-98875552D02*
X155832616Y-98913647D01*
X155832616Y-98913647D02*
X155870711Y-98989838D01*
X155870711Y-98989838D02*
X155870711Y-99180314D01*
X155870711Y-99180314D02*
X155832616Y-99256504D01*
X155832616Y-99256504D02*
X155794521Y-99294600D01*
X155794521Y-99294600D02*
X155718330Y-99332695D01*
X155718330Y-99332695D02*
X155489759Y-99332695D01*
X155489759Y-99332695D02*
X155413568Y-99294600D01*
X155413568Y-99294600D02*
X155375473Y-99256504D01*
X157242140Y-98570790D02*
X157165950Y-98532695D01*
X157165950Y-98532695D02*
X157051664Y-98532695D01*
X157051664Y-98532695D02*
X156937378Y-98570790D01*
X156937378Y-98570790D02*
X156861188Y-98646980D01*
X156861188Y-98646980D02*
X156823093Y-98723171D01*
X156823093Y-98723171D02*
X156784997Y-98875552D01*
X156784997Y-98875552D02*
X156784997Y-98989838D01*
X156784997Y-98989838D02*
X156823093Y-99142219D01*
X156823093Y-99142219D02*
X156861188Y-99218409D01*
X156861188Y-99218409D02*
X156937378Y-99294600D01*
X156937378Y-99294600D02*
X157051664Y-99332695D01*
X157051664Y-99332695D02*
X157127855Y-99332695D01*
X157127855Y-99332695D02*
X157242140Y-99294600D01*
X157242140Y-99294600D02*
X157280236Y-99256504D01*
X157280236Y-99256504D02*
X157280236Y-98989838D01*
X157280236Y-98989838D02*
X157127855Y-98989838D01*
X157623093Y-99332695D02*
X157623093Y-98532695D01*
X157623093Y-98532695D02*
X158080236Y-99332695D01*
X158080236Y-99332695D02*
X158080236Y-98532695D01*
X158461188Y-99332695D02*
X158461188Y-98532695D01*
X158461188Y-98532695D02*
X158651664Y-98532695D01*
X158651664Y-98532695D02*
X158765950Y-98570790D01*
X158765950Y-98570790D02*
X158842140Y-98646980D01*
X158842140Y-98646980D02*
X158880235Y-98723171D01*
X158880235Y-98723171D02*
X158918331Y-98875552D01*
X158918331Y-98875552D02*
X158918331Y-98989838D01*
X158918331Y-98989838D02*
X158880235Y-99142219D01*
X158880235Y-99142219D02*
X158842140Y-99218409D01*
X158842140Y-99218409D02*
X158765950Y-99294600D01*
X158765950Y-99294600D02*
X158651664Y-99332695D01*
X158651664Y-99332695D02*
X158461188Y-99332695D01*
X113771101Y-142258790D02*
X113694911Y-142220695D01*
X113694911Y-142220695D02*
X113580625Y-142220695D01*
X113580625Y-142220695D02*
X113466339Y-142258790D01*
X113466339Y-142258790D02*
X113390149Y-142334980D01*
X113390149Y-142334980D02*
X113352054Y-142411171D01*
X113352054Y-142411171D02*
X113313958Y-142563552D01*
X113313958Y-142563552D02*
X113313958Y-142677838D01*
X113313958Y-142677838D02*
X113352054Y-142830219D01*
X113352054Y-142830219D02*
X113390149Y-142906409D01*
X113390149Y-142906409D02*
X113466339Y-142982600D01*
X113466339Y-142982600D02*
X113580625Y-143020695D01*
X113580625Y-143020695D02*
X113656816Y-143020695D01*
X113656816Y-143020695D02*
X113771101Y-142982600D01*
X113771101Y-142982600D02*
X113809197Y-142944504D01*
X113809197Y-142944504D02*
X113809197Y-142677838D01*
X113809197Y-142677838D02*
X113656816Y-142677838D01*
X114152054Y-143020695D02*
X114152054Y-142220695D01*
X114152054Y-142220695D02*
X114609197Y-143020695D01*
X114609197Y-143020695D02*
X114609197Y-142220695D01*
X114990149Y-143020695D02*
X114990149Y-142220695D01*
X114990149Y-142220695D02*
X115180625Y-142220695D01*
X115180625Y-142220695D02*
X115294911Y-142258790D01*
X115294911Y-142258790D02*
X115371101Y-142334980D01*
X115371101Y-142334980D02*
X115409196Y-142411171D01*
X115409196Y-142411171D02*
X115447292Y-142563552D01*
X115447292Y-142563552D02*
X115447292Y-142677838D01*
X115447292Y-142677838D02*
X115409196Y-142830219D01*
X115409196Y-142830219D02*
X115371101Y-142906409D01*
X115371101Y-142906409D02*
X115294911Y-142982600D01*
X115294911Y-142982600D02*
X115180625Y-143020695D01*
X115180625Y-143020695D02*
X114990149Y-143020695D01*
X116399673Y-142715933D02*
X117009197Y-142715933D01*
X116704435Y-143020695D02*
X116704435Y-142411171D01*
X117771101Y-142220695D02*
X117390149Y-142220695D01*
X117390149Y-142220695D02*
X117352053Y-142601647D01*
X117352053Y-142601647D02*
X117390149Y-142563552D01*
X117390149Y-142563552D02*
X117466339Y-142525457D01*
X117466339Y-142525457D02*
X117656815Y-142525457D01*
X117656815Y-142525457D02*
X117733006Y-142563552D01*
X117733006Y-142563552D02*
X117771101Y-142601647D01*
X117771101Y-142601647D02*
X117809196Y-142677838D01*
X117809196Y-142677838D02*
X117809196Y-142868314D01*
X117809196Y-142868314D02*
X117771101Y-142944504D01*
X117771101Y-142944504D02*
X117733006Y-142982600D01*
X117733006Y-142982600D02*
X117656815Y-143020695D01*
X117656815Y-143020695D02*
X117466339Y-143020695D01*
X117466339Y-143020695D02*
X117390149Y-142982600D01*
X117390149Y-142982600D02*
X117352053Y-142944504D01*
X118037768Y-142220695D02*
X118304435Y-143020695D01*
X118304435Y-143020695D02*
X118571101Y-142220695D01*
X119447292Y-142715933D02*
X120056816Y-142715933D01*
X119752054Y-143020695D02*
X119752054Y-142411171D01*
X120856815Y-143020695D02*
X120399672Y-143020695D01*
X120628244Y-143020695D02*
X120628244Y-142220695D01*
X120628244Y-142220695D02*
X120552053Y-142334980D01*
X120552053Y-142334980D02*
X120475863Y-142411171D01*
X120475863Y-142411171D02*
X120399672Y-142449266D01*
X121161577Y-142296885D02*
X121199673Y-142258790D01*
X121199673Y-142258790D02*
X121275863Y-142220695D01*
X121275863Y-142220695D02*
X121466339Y-142220695D01*
X121466339Y-142220695D02*
X121542530Y-142258790D01*
X121542530Y-142258790D02*
X121580625Y-142296885D01*
X121580625Y-142296885D02*
X121618720Y-142373076D01*
X121618720Y-142373076D02*
X121618720Y-142449266D01*
X121618720Y-142449266D02*
X121580625Y-142563552D01*
X121580625Y-142563552D02*
X121123482Y-143020695D01*
X121123482Y-143020695D02*
X121618720Y-143020695D01*
X122990149Y-142258790D02*
X122913959Y-142220695D01*
X122913959Y-142220695D02*
X122799673Y-142220695D01*
X122799673Y-142220695D02*
X122685387Y-142258790D01*
X122685387Y-142258790D02*
X122609197Y-142334980D01*
X122609197Y-142334980D02*
X122571102Y-142411171D01*
X122571102Y-142411171D02*
X122533006Y-142563552D01*
X122533006Y-142563552D02*
X122533006Y-142677838D01*
X122533006Y-142677838D02*
X122571102Y-142830219D01*
X122571102Y-142830219D02*
X122609197Y-142906409D01*
X122609197Y-142906409D02*
X122685387Y-142982600D01*
X122685387Y-142982600D02*
X122799673Y-143020695D01*
X122799673Y-143020695D02*
X122875864Y-143020695D01*
X122875864Y-143020695D02*
X122990149Y-142982600D01*
X122990149Y-142982600D02*
X123028245Y-142944504D01*
X123028245Y-142944504D02*
X123028245Y-142677838D01*
X123028245Y-142677838D02*
X122875864Y-142677838D01*
X123371102Y-143020695D02*
X123371102Y-142220695D01*
X123371102Y-142220695D02*
X123828245Y-143020695D01*
X123828245Y-143020695D02*
X123828245Y-142220695D01*
X124209197Y-143020695D02*
X124209197Y-142220695D01*
X124209197Y-142220695D02*
X124399673Y-142220695D01*
X124399673Y-142220695D02*
X124513959Y-142258790D01*
X124513959Y-142258790D02*
X124590149Y-142334980D01*
X124590149Y-142334980D02*
X124628244Y-142411171D01*
X124628244Y-142411171D02*
X124666340Y-142563552D01*
X124666340Y-142563552D02*
X124666340Y-142677838D01*
X124666340Y-142677838D02*
X124628244Y-142830219D01*
X124628244Y-142830219D02*
X124590149Y-142906409D01*
X124590149Y-142906409D02*
X124513959Y-142982600D01*
X124513959Y-142982600D02*
X124399673Y-143020695D01*
X124399673Y-143020695D02*
X124209197Y-143020695D01*
X126037768Y-142258790D02*
X125961578Y-142220695D01*
X125961578Y-142220695D02*
X125847292Y-142220695D01*
X125847292Y-142220695D02*
X125733006Y-142258790D01*
X125733006Y-142258790D02*
X125656816Y-142334980D01*
X125656816Y-142334980D02*
X125618721Y-142411171D01*
X125618721Y-142411171D02*
X125580625Y-142563552D01*
X125580625Y-142563552D02*
X125580625Y-142677838D01*
X125580625Y-142677838D02*
X125618721Y-142830219D01*
X125618721Y-142830219D02*
X125656816Y-142906409D01*
X125656816Y-142906409D02*
X125733006Y-142982600D01*
X125733006Y-142982600D02*
X125847292Y-143020695D01*
X125847292Y-143020695D02*
X125923483Y-143020695D01*
X125923483Y-143020695D02*
X126037768Y-142982600D01*
X126037768Y-142982600D02*
X126075864Y-142944504D01*
X126075864Y-142944504D02*
X126075864Y-142677838D01*
X126075864Y-142677838D02*
X125923483Y-142677838D01*
X126418721Y-143020695D02*
X126418721Y-142220695D01*
X126418721Y-142220695D02*
X126875864Y-143020695D01*
X126875864Y-143020695D02*
X126875864Y-142220695D01*
X127256816Y-143020695D02*
X127256816Y-142220695D01*
X127256816Y-142220695D02*
X127447292Y-142220695D01*
X127447292Y-142220695D02*
X127561578Y-142258790D01*
X127561578Y-142258790D02*
X127637768Y-142334980D01*
X127637768Y-142334980D02*
X127675863Y-142411171D01*
X127675863Y-142411171D02*
X127713959Y-142563552D01*
X127713959Y-142563552D02*
X127713959Y-142677838D01*
X127713959Y-142677838D02*
X127675863Y-142830219D01*
X127675863Y-142830219D02*
X127637768Y-142906409D01*
X127637768Y-142906409D02*
X127561578Y-142982600D01*
X127561578Y-142982600D02*
X127447292Y-143020695D01*
X127447292Y-143020695D02*
X127256816Y-143020695D01*
X170859190Y-135834698D02*
X170821095Y-135910888D01*
X170821095Y-135910888D02*
X170821095Y-136025174D01*
X170821095Y-136025174D02*
X170859190Y-136139460D01*
X170859190Y-136139460D02*
X170935380Y-136215650D01*
X170935380Y-136215650D02*
X171011571Y-136253745D01*
X171011571Y-136253745D02*
X171163952Y-136291841D01*
X171163952Y-136291841D02*
X171278238Y-136291841D01*
X171278238Y-136291841D02*
X171430619Y-136253745D01*
X171430619Y-136253745D02*
X171506809Y-136215650D01*
X171506809Y-136215650D02*
X171583000Y-136139460D01*
X171583000Y-136139460D02*
X171621095Y-136025174D01*
X171621095Y-136025174D02*
X171621095Y-135948983D01*
X171621095Y-135948983D02*
X171583000Y-135834698D01*
X171583000Y-135834698D02*
X171544904Y-135796602D01*
X171544904Y-135796602D02*
X171278238Y-135796602D01*
X171278238Y-135796602D02*
X171278238Y-135948983D01*
X171621095Y-135453745D02*
X170821095Y-135453745D01*
X170821095Y-135453745D02*
X171621095Y-134996602D01*
X171621095Y-134996602D02*
X170821095Y-134996602D01*
X171621095Y-134615650D02*
X170821095Y-134615650D01*
X170821095Y-134615650D02*
X170821095Y-134425174D01*
X170821095Y-134425174D02*
X170859190Y-134310888D01*
X170859190Y-134310888D02*
X170935380Y-134234698D01*
X170935380Y-134234698D02*
X171011571Y-134196603D01*
X171011571Y-134196603D02*
X171163952Y-134158507D01*
X171163952Y-134158507D02*
X171278238Y-134158507D01*
X171278238Y-134158507D02*
X171430619Y-134196603D01*
X171430619Y-134196603D02*
X171506809Y-134234698D01*
X171506809Y-134234698D02*
X171583000Y-134310888D01*
X171583000Y-134310888D02*
X171621095Y-134425174D01*
X171621095Y-134425174D02*
X171621095Y-134615650D01*
X170821095Y-133282317D02*
X170821095Y-132787079D01*
X170821095Y-132787079D02*
X171125857Y-133053745D01*
X171125857Y-133053745D02*
X171125857Y-132939460D01*
X171125857Y-132939460D02*
X171163952Y-132863269D01*
X171163952Y-132863269D02*
X171202047Y-132825174D01*
X171202047Y-132825174D02*
X171278238Y-132787079D01*
X171278238Y-132787079D02*
X171468714Y-132787079D01*
X171468714Y-132787079D02*
X171544904Y-132825174D01*
X171544904Y-132825174D02*
X171583000Y-132863269D01*
X171583000Y-132863269D02*
X171621095Y-132939460D01*
X171621095Y-132939460D02*
X171621095Y-133168031D01*
X171621095Y-133168031D02*
X171583000Y-133244222D01*
X171583000Y-133244222D02*
X171544904Y-133282317D01*
X170821095Y-132558507D02*
X171621095Y-132291840D01*
X171621095Y-132291840D02*
X170821095Y-132025174D01*
X170821095Y-131834698D02*
X170821095Y-131339460D01*
X170821095Y-131339460D02*
X171125857Y-131606126D01*
X171125857Y-131606126D02*
X171125857Y-131491841D01*
X171125857Y-131491841D02*
X171163952Y-131415650D01*
X171163952Y-131415650D02*
X171202047Y-131377555D01*
X171202047Y-131377555D02*
X171278238Y-131339460D01*
X171278238Y-131339460D02*
X171468714Y-131339460D01*
X171468714Y-131339460D02*
X171544904Y-131377555D01*
X171544904Y-131377555D02*
X171583000Y-131415650D01*
X171583000Y-131415650D02*
X171621095Y-131491841D01*
X171621095Y-131491841D02*
X171621095Y-131720412D01*
X171621095Y-131720412D02*
X171583000Y-131796603D01*
X171583000Y-131796603D02*
X171544904Y-131834698D01*
X171583000Y-130425174D02*
X171621095Y-130310888D01*
X171621095Y-130310888D02*
X171621095Y-130120412D01*
X171621095Y-130120412D02*
X171583000Y-130044221D01*
X171583000Y-130044221D02*
X171544904Y-130006126D01*
X171544904Y-130006126D02*
X171468714Y-129968031D01*
X171468714Y-129968031D02*
X171392523Y-129968031D01*
X171392523Y-129968031D02*
X171316333Y-130006126D01*
X171316333Y-130006126D02*
X171278238Y-130044221D01*
X171278238Y-130044221D02*
X171240142Y-130120412D01*
X171240142Y-130120412D02*
X171202047Y-130272793D01*
X171202047Y-130272793D02*
X171163952Y-130348983D01*
X171163952Y-130348983D02*
X171125857Y-130387078D01*
X171125857Y-130387078D02*
X171049666Y-130425174D01*
X171049666Y-130425174D02*
X170973476Y-130425174D01*
X170973476Y-130425174D02*
X170897285Y-130387078D01*
X170897285Y-130387078D02*
X170859190Y-130348983D01*
X170859190Y-130348983D02*
X170821095Y-130272793D01*
X170821095Y-130272793D02*
X170821095Y-130082316D01*
X170821095Y-130082316D02*
X170859190Y-129968031D01*
X171544904Y-129168030D02*
X171583000Y-129206126D01*
X171583000Y-129206126D02*
X171621095Y-129320411D01*
X171621095Y-129320411D02*
X171621095Y-129396602D01*
X171621095Y-129396602D02*
X171583000Y-129510888D01*
X171583000Y-129510888D02*
X171506809Y-129587078D01*
X171506809Y-129587078D02*
X171430619Y-129625173D01*
X171430619Y-129625173D02*
X171278238Y-129663269D01*
X171278238Y-129663269D02*
X171163952Y-129663269D01*
X171163952Y-129663269D02*
X171011571Y-129625173D01*
X171011571Y-129625173D02*
X170935380Y-129587078D01*
X170935380Y-129587078D02*
X170859190Y-129510888D01*
X170859190Y-129510888D02*
X170821095Y-129396602D01*
X170821095Y-129396602D02*
X170821095Y-129320411D01*
X170821095Y-129320411D02*
X170859190Y-129206126D01*
X170859190Y-129206126D02*
X170897285Y-129168030D01*
X171621095Y-128825173D02*
X170821095Y-128825173D01*
X171621095Y-128368030D02*
X171163952Y-128710888D01*
X170821095Y-128368030D02*
X171278238Y-128825173D01*
X170821095Y-127529935D02*
X170821095Y-127072792D01*
X171621095Y-127301364D02*
X170821095Y-127301364D01*
X170821095Y-126882316D02*
X171621095Y-126348982D01*
X170821095Y-126348982D02*
X171621095Y-126882316D01*
X171621095Y-124977553D02*
X171240142Y-125244220D01*
X171621095Y-125434696D02*
X170821095Y-125434696D01*
X170821095Y-125434696D02*
X170821095Y-125129934D01*
X170821095Y-125129934D02*
X170859190Y-125053744D01*
X170859190Y-125053744D02*
X170897285Y-125015649D01*
X170897285Y-125015649D02*
X170973476Y-124977553D01*
X170973476Y-124977553D02*
X171087761Y-124977553D01*
X171087761Y-124977553D02*
X171163952Y-125015649D01*
X171163952Y-125015649D02*
X171202047Y-125053744D01*
X171202047Y-125053744D02*
X171240142Y-125129934D01*
X171240142Y-125129934D02*
X171240142Y-125434696D01*
X170821095Y-124710887D02*
X171621095Y-124177553D01*
X170821095Y-124177553D02*
X171621095Y-124710887D01*
X171544904Y-122806124D02*
X171583000Y-122844220D01*
X171583000Y-122844220D02*
X171621095Y-122958505D01*
X171621095Y-122958505D02*
X171621095Y-123034696D01*
X171621095Y-123034696D02*
X171583000Y-123148982D01*
X171583000Y-123148982D02*
X171506809Y-123225172D01*
X171506809Y-123225172D02*
X171430619Y-123263267D01*
X171430619Y-123263267D02*
X171278238Y-123301363D01*
X171278238Y-123301363D02*
X171163952Y-123301363D01*
X171163952Y-123301363D02*
X171011571Y-123263267D01*
X171011571Y-123263267D02*
X170935380Y-123225172D01*
X170935380Y-123225172D02*
X170859190Y-123148982D01*
X170859190Y-123148982D02*
X170821095Y-123034696D01*
X170821095Y-123034696D02*
X170821095Y-122958505D01*
X170821095Y-122958505D02*
X170859190Y-122844220D01*
X170859190Y-122844220D02*
X170897285Y-122806124D01*
X171583000Y-122501363D02*
X171621095Y-122387077D01*
X171621095Y-122387077D02*
X171621095Y-122196601D01*
X171621095Y-122196601D02*
X171583000Y-122120410D01*
X171583000Y-122120410D02*
X171544904Y-122082315D01*
X171544904Y-122082315D02*
X171468714Y-122044220D01*
X171468714Y-122044220D02*
X171392523Y-122044220D01*
X171392523Y-122044220D02*
X171316333Y-122082315D01*
X171316333Y-122082315D02*
X171278238Y-122120410D01*
X171278238Y-122120410D02*
X171240142Y-122196601D01*
X171240142Y-122196601D02*
X171202047Y-122348982D01*
X171202047Y-122348982D02*
X171163952Y-122425172D01*
X171163952Y-122425172D02*
X171125857Y-122463267D01*
X171125857Y-122463267D02*
X171049666Y-122501363D01*
X171049666Y-122501363D02*
X170973476Y-122501363D01*
X170973476Y-122501363D02*
X170897285Y-122463267D01*
X170897285Y-122463267D02*
X170859190Y-122425172D01*
X170859190Y-122425172D02*
X170821095Y-122348982D01*
X170821095Y-122348982D02*
X170821095Y-122158505D01*
X170821095Y-122158505D02*
X170859190Y-122044220D01*
D10*
X151203188Y-83067638D02*
X151107950Y-83020019D01*
X151107950Y-83020019D02*
X150965093Y-83020019D01*
X150965093Y-83020019D02*
X150822236Y-83067638D01*
X150822236Y-83067638D02*
X150726998Y-83162876D01*
X150726998Y-83162876D02*
X150679379Y-83258114D01*
X150679379Y-83258114D02*
X150631760Y-83448590D01*
X150631760Y-83448590D02*
X150631760Y-83591447D01*
X150631760Y-83591447D02*
X150679379Y-83781923D01*
X150679379Y-83781923D02*
X150726998Y-83877161D01*
X150726998Y-83877161D02*
X150822236Y-83972400D01*
X150822236Y-83972400D02*
X150965093Y-84020019D01*
X150965093Y-84020019D02*
X151060331Y-84020019D01*
X151060331Y-84020019D02*
X151203188Y-83972400D01*
X151203188Y-83972400D02*
X151250807Y-83924780D01*
X151250807Y-83924780D02*
X151250807Y-83591447D01*
X151250807Y-83591447D02*
X151060331Y-83591447D01*
X153774617Y-84020019D02*
X153441284Y-83543828D01*
X153203189Y-84020019D02*
X153203189Y-83020019D01*
X153203189Y-83020019D02*
X153584141Y-83020019D01*
X153584141Y-83020019D02*
X153679379Y-83067638D01*
X153679379Y-83067638D02*
X153726998Y-83115257D01*
X153726998Y-83115257D02*
X153774617Y-83210495D01*
X153774617Y-83210495D02*
X153774617Y-83353352D01*
X153774617Y-83353352D02*
X153726998Y-83448590D01*
X153726998Y-83448590D02*
X153679379Y-83496209D01*
X153679379Y-83496209D02*
X153584141Y-83543828D01*
X153584141Y-83543828D02*
X153203189Y-83543828D01*
X156203189Y-84020019D02*
X155726999Y-84020019D01*
X155726999Y-84020019D02*
X155726999Y-83020019D01*
D11*
X109865892Y-140533342D02*
X109865892Y-139333342D01*
X109865892Y-139333342D02*
X110323035Y-139333342D01*
X110323035Y-139333342D02*
X110437320Y-139390485D01*
X110437320Y-139390485D02*
X110494463Y-139447628D01*
X110494463Y-139447628D02*
X110551606Y-139561914D01*
X110551606Y-139561914D02*
X110551606Y-139733342D01*
X110551606Y-139733342D02*
X110494463Y-139847628D01*
X110494463Y-139847628D02*
X110437320Y-139904771D01*
X110437320Y-139904771D02*
X110323035Y-139961914D01*
X110323035Y-139961914D02*
X109865892Y-139961914D01*
X111237320Y-140533342D02*
X111123035Y-140476200D01*
X111123035Y-140476200D02*
X111065892Y-140419057D01*
X111065892Y-140419057D02*
X111008749Y-140304771D01*
X111008749Y-140304771D02*
X111008749Y-139961914D01*
X111008749Y-139961914D02*
X111065892Y-139847628D01*
X111065892Y-139847628D02*
X111123035Y-139790485D01*
X111123035Y-139790485D02*
X111237320Y-139733342D01*
X111237320Y-139733342D02*
X111408749Y-139733342D01*
X111408749Y-139733342D02*
X111523035Y-139790485D01*
X111523035Y-139790485D02*
X111580178Y-139847628D01*
X111580178Y-139847628D02*
X111637320Y-139961914D01*
X111637320Y-139961914D02*
X111637320Y-140304771D01*
X111637320Y-140304771D02*
X111580178Y-140419057D01*
X111580178Y-140419057D02*
X111523035Y-140476200D01*
X111523035Y-140476200D02*
X111408749Y-140533342D01*
X111408749Y-140533342D02*
X111237320Y-140533342D01*
X112037320Y-139733342D02*
X112265892Y-140533342D01*
X112265892Y-140533342D02*
X112494463Y-139961914D01*
X112494463Y-139961914D02*
X112723034Y-140533342D01*
X112723034Y-140533342D02*
X112951606Y-139733342D01*
X113865892Y-140476200D02*
X113751606Y-140533342D01*
X113751606Y-140533342D02*
X113523035Y-140533342D01*
X113523035Y-140533342D02*
X113408749Y-140476200D01*
X113408749Y-140476200D02*
X113351606Y-140361914D01*
X113351606Y-140361914D02*
X113351606Y-139904771D01*
X113351606Y-139904771D02*
X113408749Y-139790485D01*
X113408749Y-139790485D02*
X113523035Y-139733342D01*
X113523035Y-139733342D02*
X113751606Y-139733342D01*
X113751606Y-139733342D02*
X113865892Y-139790485D01*
X113865892Y-139790485D02*
X113923035Y-139904771D01*
X113923035Y-139904771D02*
X113923035Y-140019057D01*
X113923035Y-140019057D02*
X113351606Y-140133342D01*
X114437320Y-140533342D02*
X114437320Y-139733342D01*
X114437320Y-139961914D02*
X114494463Y-139847628D01*
X114494463Y-139847628D02*
X114551606Y-139790485D01*
X114551606Y-139790485D02*
X114665891Y-139733342D01*
X114665891Y-139733342D02*
X114780177Y-139733342D01*
D10*
X169014950Y-83124752D02*
X169014950Y-83791419D01*
X168776855Y-82743800D02*
X168538760Y-83458085D01*
X168538760Y-83458085D02*
X169157807Y-83458085D01*
X170253046Y-83743800D02*
X170348284Y-83791419D01*
X170348284Y-83791419D02*
X170538760Y-83791419D01*
X170538760Y-83791419D02*
X170633998Y-83743800D01*
X170633998Y-83743800D02*
X170681617Y-83648561D01*
X170681617Y-83648561D02*
X170681617Y-83600942D01*
X170681617Y-83600942D02*
X170633998Y-83505704D01*
X170633998Y-83505704D02*
X170538760Y-83458085D01*
X170538760Y-83458085D02*
X170395903Y-83458085D01*
X170395903Y-83458085D02*
X170300665Y-83410466D01*
X170300665Y-83410466D02*
X170253046Y-83315228D01*
X170253046Y-83315228D02*
X170253046Y-83267609D01*
X170253046Y-83267609D02*
X170300665Y-83172371D01*
X170300665Y-83172371D02*
X170395903Y-83124752D01*
X170395903Y-83124752D02*
X170538760Y-83124752D01*
X170538760Y-83124752D02*
X170633998Y-83172371D01*
X171110189Y-83791419D02*
X171110189Y-83124752D01*
X171110189Y-82791419D02*
X171062570Y-82839038D01*
X171062570Y-82839038D02*
X171110189Y-82886657D01*
X171110189Y-82886657D02*
X171157808Y-82839038D01*
X171157808Y-82839038D02*
X171110189Y-82791419D01*
X171110189Y-82791419D02*
X171110189Y-82886657D01*
X171586379Y-83124752D02*
X171586379Y-83791419D01*
X171586379Y-83219990D02*
X171633998Y-83172371D01*
X171633998Y-83172371D02*
X171729236Y-83124752D01*
X171729236Y-83124752D02*
X171872093Y-83124752D01*
X171872093Y-83124752D02*
X171967331Y-83172371D01*
X171967331Y-83172371D02*
X172014950Y-83267609D01*
X172014950Y-83267609D02*
X172014950Y-83791419D01*
X172491141Y-83791419D02*
X172491141Y-82791419D01*
X172586379Y-83410466D02*
X172872093Y-83791419D01*
X172872093Y-83124752D02*
X172491141Y-83505704D01*
D11*
X148264358Y-86289800D02*
X148378644Y-86327895D01*
X148378644Y-86327895D02*
X148569120Y-86327895D01*
X148569120Y-86327895D02*
X148645311Y-86289800D01*
X148645311Y-86289800D02*
X148683406Y-86251704D01*
X148683406Y-86251704D02*
X148721501Y-86175514D01*
X148721501Y-86175514D02*
X148721501Y-86099323D01*
X148721501Y-86099323D02*
X148683406Y-86023133D01*
X148683406Y-86023133D02*
X148645311Y-85985038D01*
X148645311Y-85985038D02*
X148569120Y-85946942D01*
X148569120Y-85946942D02*
X148416739Y-85908847D01*
X148416739Y-85908847D02*
X148340549Y-85870752D01*
X148340549Y-85870752D02*
X148302454Y-85832657D01*
X148302454Y-85832657D02*
X148264358Y-85756466D01*
X148264358Y-85756466D02*
X148264358Y-85680276D01*
X148264358Y-85680276D02*
X148302454Y-85604085D01*
X148302454Y-85604085D02*
X148340549Y-85565990D01*
X148340549Y-85565990D02*
X148416739Y-85527895D01*
X148416739Y-85527895D02*
X148607216Y-85527895D01*
X148607216Y-85527895D02*
X148721501Y-85565990D01*
X149521502Y-86251704D02*
X149483406Y-86289800D01*
X149483406Y-86289800D02*
X149369121Y-86327895D01*
X149369121Y-86327895D02*
X149292930Y-86327895D01*
X149292930Y-86327895D02*
X149178644Y-86289800D01*
X149178644Y-86289800D02*
X149102454Y-86213609D01*
X149102454Y-86213609D02*
X149064359Y-86137419D01*
X149064359Y-86137419D02*
X149026263Y-85985038D01*
X149026263Y-85985038D02*
X149026263Y-85870752D01*
X149026263Y-85870752D02*
X149064359Y-85718371D01*
X149064359Y-85718371D02*
X149102454Y-85642180D01*
X149102454Y-85642180D02*
X149178644Y-85565990D01*
X149178644Y-85565990D02*
X149292930Y-85527895D01*
X149292930Y-85527895D02*
X149369121Y-85527895D01*
X149369121Y-85527895D02*
X149483406Y-85565990D01*
X149483406Y-85565990D02*
X149521502Y-85604085D01*
X150245311Y-86327895D02*
X149864359Y-86327895D01*
X149864359Y-86327895D02*
X149864359Y-85527895D01*
X151083406Y-86289800D02*
X151197692Y-86327895D01*
X151197692Y-86327895D02*
X151388168Y-86327895D01*
X151388168Y-86327895D02*
X151464359Y-86289800D01*
X151464359Y-86289800D02*
X151502454Y-86251704D01*
X151502454Y-86251704D02*
X151540549Y-86175514D01*
X151540549Y-86175514D02*
X151540549Y-86099323D01*
X151540549Y-86099323D02*
X151502454Y-86023133D01*
X151502454Y-86023133D02*
X151464359Y-85985038D01*
X151464359Y-85985038D02*
X151388168Y-85946942D01*
X151388168Y-85946942D02*
X151235787Y-85908847D01*
X151235787Y-85908847D02*
X151159597Y-85870752D01*
X151159597Y-85870752D02*
X151121502Y-85832657D01*
X151121502Y-85832657D02*
X151083406Y-85756466D01*
X151083406Y-85756466D02*
X151083406Y-85680276D01*
X151083406Y-85680276D02*
X151121502Y-85604085D01*
X151121502Y-85604085D02*
X151159597Y-85565990D01*
X151159597Y-85565990D02*
X151235787Y-85527895D01*
X151235787Y-85527895D02*
X151426264Y-85527895D01*
X151426264Y-85527895D02*
X151540549Y-85565990D01*
X151883407Y-86327895D02*
X151883407Y-85527895D01*
X151883407Y-85527895D02*
X152073883Y-85527895D01*
X152073883Y-85527895D02*
X152188169Y-85565990D01*
X152188169Y-85565990D02*
X152264359Y-85642180D01*
X152264359Y-85642180D02*
X152302454Y-85718371D01*
X152302454Y-85718371D02*
X152340550Y-85870752D01*
X152340550Y-85870752D02*
X152340550Y-85985038D01*
X152340550Y-85985038D02*
X152302454Y-86137419D01*
X152302454Y-86137419D02*
X152264359Y-86213609D01*
X152264359Y-86213609D02*
X152188169Y-86289800D01*
X152188169Y-86289800D02*
X152073883Y-86327895D01*
X152073883Y-86327895D02*
X151883407Y-86327895D01*
X152645311Y-86099323D02*
X153026264Y-86099323D01*
X152569121Y-86327895D02*
X152835788Y-85527895D01*
X152835788Y-85527895D02*
X153102454Y-86327895D01*
X153902454Y-85527895D02*
X154397692Y-85527895D01*
X154397692Y-85527895D02*
X154131026Y-85832657D01*
X154131026Y-85832657D02*
X154245311Y-85832657D01*
X154245311Y-85832657D02*
X154321502Y-85870752D01*
X154321502Y-85870752D02*
X154359597Y-85908847D01*
X154359597Y-85908847D02*
X154397692Y-85985038D01*
X154397692Y-85985038D02*
X154397692Y-86175514D01*
X154397692Y-86175514D02*
X154359597Y-86251704D01*
X154359597Y-86251704D02*
X154321502Y-86289800D01*
X154321502Y-86289800D02*
X154245311Y-86327895D01*
X154245311Y-86327895D02*
X154016740Y-86327895D01*
X154016740Y-86327895D02*
X153940549Y-86289800D01*
X153940549Y-86289800D02*
X153902454Y-86251704D01*
X154626264Y-85527895D02*
X154892931Y-86327895D01*
X154892931Y-86327895D02*
X155159597Y-85527895D01*
X155350073Y-85527895D02*
X155845311Y-85527895D01*
X155845311Y-85527895D02*
X155578645Y-85832657D01*
X155578645Y-85832657D02*
X155692930Y-85832657D01*
X155692930Y-85832657D02*
X155769121Y-85870752D01*
X155769121Y-85870752D02*
X155807216Y-85908847D01*
X155807216Y-85908847D02*
X155845311Y-85985038D01*
X155845311Y-85985038D02*
X155845311Y-86175514D01*
X155845311Y-86175514D02*
X155807216Y-86251704D01*
X155807216Y-86251704D02*
X155769121Y-86289800D01*
X155769121Y-86289800D02*
X155692930Y-86327895D01*
X155692930Y-86327895D02*
X155464359Y-86327895D01*
X155464359Y-86327895D02*
X155388168Y-86289800D01*
X155388168Y-86289800D02*
X155350073Y-86251704D01*
X157216740Y-85565990D02*
X157140550Y-85527895D01*
X157140550Y-85527895D02*
X157026264Y-85527895D01*
X157026264Y-85527895D02*
X156911978Y-85565990D01*
X156911978Y-85565990D02*
X156835788Y-85642180D01*
X156835788Y-85642180D02*
X156797693Y-85718371D01*
X156797693Y-85718371D02*
X156759597Y-85870752D01*
X156759597Y-85870752D02*
X156759597Y-85985038D01*
X156759597Y-85985038D02*
X156797693Y-86137419D01*
X156797693Y-86137419D02*
X156835788Y-86213609D01*
X156835788Y-86213609D02*
X156911978Y-86289800D01*
X156911978Y-86289800D02*
X157026264Y-86327895D01*
X157026264Y-86327895D02*
X157102455Y-86327895D01*
X157102455Y-86327895D02*
X157216740Y-86289800D01*
X157216740Y-86289800D02*
X157254836Y-86251704D01*
X157254836Y-86251704D02*
X157254836Y-85985038D01*
X157254836Y-85985038D02*
X157102455Y-85985038D01*
X157597693Y-86327895D02*
X157597693Y-85527895D01*
X157597693Y-85527895D02*
X158054836Y-86327895D01*
X158054836Y-86327895D02*
X158054836Y-85527895D01*
X158435788Y-86327895D02*
X158435788Y-85527895D01*
X158435788Y-85527895D02*
X158626264Y-85527895D01*
X158626264Y-85527895D02*
X158740550Y-85565990D01*
X158740550Y-85565990D02*
X158816740Y-85642180D01*
X158816740Y-85642180D02*
X158854835Y-85718371D01*
X158854835Y-85718371D02*
X158892931Y-85870752D01*
X158892931Y-85870752D02*
X158892931Y-85985038D01*
X158892931Y-85985038D02*
X158854835Y-86137419D01*
X158854835Y-86137419D02*
X158816740Y-86213609D01*
X158816740Y-86213609D02*
X158740550Y-86289800D01*
X158740550Y-86289800D02*
X158626264Y-86327895D01*
X158626264Y-86327895D02*
X158435788Y-86327895D01*
X185387895Y-141333745D02*
X184587895Y-141333745D01*
X184587895Y-141333745D02*
X185159323Y-141067079D01*
X185159323Y-141067079D02*
X184587895Y-140800412D01*
X184587895Y-140800412D02*
X185387895Y-140800412D01*
X185387895Y-140419459D02*
X184587895Y-140419459D01*
X185387895Y-140038507D02*
X184587895Y-140038507D01*
X184587895Y-140038507D02*
X184587895Y-139848031D01*
X184587895Y-139848031D02*
X184625990Y-139733745D01*
X184625990Y-139733745D02*
X184702180Y-139657555D01*
X184702180Y-139657555D02*
X184778371Y-139619460D01*
X184778371Y-139619460D02*
X184930752Y-139581364D01*
X184930752Y-139581364D02*
X185045038Y-139581364D01*
X185045038Y-139581364D02*
X185197419Y-139619460D01*
X185197419Y-139619460D02*
X185273609Y-139657555D01*
X185273609Y-139657555D02*
X185349800Y-139733745D01*
X185349800Y-139733745D02*
X185387895Y-139848031D01*
X185387895Y-139848031D02*
X185387895Y-140038507D01*
X185387895Y-139238507D02*
X184587895Y-139238507D01*
X184587895Y-138095650D02*
X184587895Y-137943269D01*
X184587895Y-137943269D02*
X184625990Y-137867079D01*
X184625990Y-137867079D02*
X184702180Y-137790888D01*
X184702180Y-137790888D02*
X184854561Y-137752793D01*
X184854561Y-137752793D02*
X185121228Y-137752793D01*
X185121228Y-137752793D02*
X185273609Y-137790888D01*
X185273609Y-137790888D02*
X185349800Y-137867079D01*
X185349800Y-137867079D02*
X185387895Y-137943269D01*
X185387895Y-137943269D02*
X185387895Y-138095650D01*
X185387895Y-138095650D02*
X185349800Y-138171841D01*
X185349800Y-138171841D02*
X185273609Y-138248031D01*
X185273609Y-138248031D02*
X185121228Y-138286127D01*
X185121228Y-138286127D02*
X184854561Y-138286127D01*
X184854561Y-138286127D02*
X184702180Y-138248031D01*
X184702180Y-138248031D02*
X184625990Y-138171841D01*
X184625990Y-138171841D02*
X184587895Y-138095650D01*
X184587895Y-137409936D02*
X185235514Y-137409936D01*
X185235514Y-137409936D02*
X185311704Y-137371841D01*
X185311704Y-137371841D02*
X185349800Y-137333746D01*
X185349800Y-137333746D02*
X185387895Y-137257555D01*
X185387895Y-137257555D02*
X185387895Y-137105174D01*
X185387895Y-137105174D02*
X185349800Y-137028984D01*
X185349800Y-137028984D02*
X185311704Y-136990889D01*
X185311704Y-136990889D02*
X185235514Y-136952793D01*
X185235514Y-136952793D02*
X184587895Y-136952793D01*
X184587895Y-136686127D02*
X184587895Y-136228984D01*
X185387895Y-136457556D02*
X184587895Y-136457556D01*
X165663358Y-92893800D02*
X165777644Y-92931895D01*
X165777644Y-92931895D02*
X165968120Y-92931895D01*
X165968120Y-92931895D02*
X166044311Y-92893800D01*
X166044311Y-92893800D02*
X166082406Y-92855704D01*
X166082406Y-92855704D02*
X166120501Y-92779514D01*
X166120501Y-92779514D02*
X166120501Y-92703323D01*
X166120501Y-92703323D02*
X166082406Y-92627133D01*
X166082406Y-92627133D02*
X166044311Y-92589038D01*
X166044311Y-92589038D02*
X165968120Y-92550942D01*
X165968120Y-92550942D02*
X165815739Y-92512847D01*
X165815739Y-92512847D02*
X165739549Y-92474752D01*
X165739549Y-92474752D02*
X165701454Y-92436657D01*
X165701454Y-92436657D02*
X165663358Y-92360466D01*
X165663358Y-92360466D02*
X165663358Y-92284276D01*
X165663358Y-92284276D02*
X165701454Y-92208085D01*
X165701454Y-92208085D02*
X165739549Y-92169990D01*
X165739549Y-92169990D02*
X165815739Y-92131895D01*
X165815739Y-92131895D02*
X166006216Y-92131895D01*
X166006216Y-92131895D02*
X166120501Y-92169990D01*
X166920502Y-92855704D02*
X166882406Y-92893800D01*
X166882406Y-92893800D02*
X166768121Y-92931895D01*
X166768121Y-92931895D02*
X166691930Y-92931895D01*
X166691930Y-92931895D02*
X166577644Y-92893800D01*
X166577644Y-92893800D02*
X166501454Y-92817609D01*
X166501454Y-92817609D02*
X166463359Y-92741419D01*
X166463359Y-92741419D02*
X166425263Y-92589038D01*
X166425263Y-92589038D02*
X166425263Y-92474752D01*
X166425263Y-92474752D02*
X166463359Y-92322371D01*
X166463359Y-92322371D02*
X166501454Y-92246180D01*
X166501454Y-92246180D02*
X166577644Y-92169990D01*
X166577644Y-92169990D02*
X166691930Y-92131895D01*
X166691930Y-92131895D02*
X166768121Y-92131895D01*
X166768121Y-92131895D02*
X166882406Y-92169990D01*
X166882406Y-92169990D02*
X166920502Y-92208085D01*
X167644311Y-92931895D02*
X167263359Y-92931895D01*
X167263359Y-92931895D02*
X167263359Y-92131895D01*
X168482406Y-92893800D02*
X168596692Y-92931895D01*
X168596692Y-92931895D02*
X168787168Y-92931895D01*
X168787168Y-92931895D02*
X168863359Y-92893800D01*
X168863359Y-92893800D02*
X168901454Y-92855704D01*
X168901454Y-92855704D02*
X168939549Y-92779514D01*
X168939549Y-92779514D02*
X168939549Y-92703323D01*
X168939549Y-92703323D02*
X168901454Y-92627133D01*
X168901454Y-92627133D02*
X168863359Y-92589038D01*
X168863359Y-92589038D02*
X168787168Y-92550942D01*
X168787168Y-92550942D02*
X168634787Y-92512847D01*
X168634787Y-92512847D02*
X168558597Y-92474752D01*
X168558597Y-92474752D02*
X168520502Y-92436657D01*
X168520502Y-92436657D02*
X168482406Y-92360466D01*
X168482406Y-92360466D02*
X168482406Y-92284276D01*
X168482406Y-92284276D02*
X168520502Y-92208085D01*
X168520502Y-92208085D02*
X168558597Y-92169990D01*
X168558597Y-92169990D02*
X168634787Y-92131895D01*
X168634787Y-92131895D02*
X168825264Y-92131895D01*
X168825264Y-92131895D02*
X168939549Y-92169990D01*
X169282407Y-92931895D02*
X169282407Y-92131895D01*
X169282407Y-92131895D02*
X169472883Y-92131895D01*
X169472883Y-92131895D02*
X169587169Y-92169990D01*
X169587169Y-92169990D02*
X169663359Y-92246180D01*
X169663359Y-92246180D02*
X169701454Y-92322371D01*
X169701454Y-92322371D02*
X169739550Y-92474752D01*
X169739550Y-92474752D02*
X169739550Y-92589038D01*
X169739550Y-92589038D02*
X169701454Y-92741419D01*
X169701454Y-92741419D02*
X169663359Y-92817609D01*
X169663359Y-92817609D02*
X169587169Y-92893800D01*
X169587169Y-92893800D02*
X169472883Y-92931895D01*
X169472883Y-92931895D02*
X169282407Y-92931895D01*
X170044311Y-92703323D02*
X170425264Y-92703323D01*
X169968121Y-92931895D02*
X170234788Y-92131895D01*
X170234788Y-92131895D02*
X170501454Y-92931895D01*
X171301454Y-92131895D02*
X171796692Y-92131895D01*
X171796692Y-92131895D02*
X171530026Y-92436657D01*
X171530026Y-92436657D02*
X171644311Y-92436657D01*
X171644311Y-92436657D02*
X171720502Y-92474752D01*
X171720502Y-92474752D02*
X171758597Y-92512847D01*
X171758597Y-92512847D02*
X171796692Y-92589038D01*
X171796692Y-92589038D02*
X171796692Y-92779514D01*
X171796692Y-92779514D02*
X171758597Y-92855704D01*
X171758597Y-92855704D02*
X171720502Y-92893800D01*
X171720502Y-92893800D02*
X171644311Y-92931895D01*
X171644311Y-92931895D02*
X171415740Y-92931895D01*
X171415740Y-92931895D02*
X171339549Y-92893800D01*
X171339549Y-92893800D02*
X171301454Y-92855704D01*
X172025264Y-92131895D02*
X172291931Y-92931895D01*
X172291931Y-92931895D02*
X172558597Y-92131895D01*
X172749073Y-92131895D02*
X173244311Y-92131895D01*
X173244311Y-92131895D02*
X172977645Y-92436657D01*
X172977645Y-92436657D02*
X173091930Y-92436657D01*
X173091930Y-92436657D02*
X173168121Y-92474752D01*
X173168121Y-92474752D02*
X173206216Y-92512847D01*
X173206216Y-92512847D02*
X173244311Y-92589038D01*
X173244311Y-92589038D02*
X173244311Y-92779514D01*
X173244311Y-92779514D02*
X173206216Y-92855704D01*
X173206216Y-92855704D02*
X173168121Y-92893800D01*
X173168121Y-92893800D02*
X173091930Y-92931895D01*
X173091930Y-92931895D02*
X172863359Y-92931895D01*
X172863359Y-92931895D02*
X172787168Y-92893800D01*
X172787168Y-92893800D02*
X172749073Y-92855704D01*
X174615740Y-92169990D02*
X174539550Y-92131895D01*
X174539550Y-92131895D02*
X174425264Y-92131895D01*
X174425264Y-92131895D02*
X174310978Y-92169990D01*
X174310978Y-92169990D02*
X174234788Y-92246180D01*
X174234788Y-92246180D02*
X174196693Y-92322371D01*
X174196693Y-92322371D02*
X174158597Y-92474752D01*
X174158597Y-92474752D02*
X174158597Y-92589038D01*
X174158597Y-92589038D02*
X174196693Y-92741419D01*
X174196693Y-92741419D02*
X174234788Y-92817609D01*
X174234788Y-92817609D02*
X174310978Y-92893800D01*
X174310978Y-92893800D02*
X174425264Y-92931895D01*
X174425264Y-92931895D02*
X174501455Y-92931895D01*
X174501455Y-92931895D02*
X174615740Y-92893800D01*
X174615740Y-92893800D02*
X174653836Y-92855704D01*
X174653836Y-92855704D02*
X174653836Y-92589038D01*
X174653836Y-92589038D02*
X174501455Y-92589038D01*
X174996693Y-92931895D02*
X174996693Y-92131895D01*
X174996693Y-92131895D02*
X175453836Y-92931895D01*
X175453836Y-92931895D02*
X175453836Y-92131895D01*
X175834788Y-92931895D02*
X175834788Y-92131895D01*
X175834788Y-92131895D02*
X176025264Y-92131895D01*
X176025264Y-92131895D02*
X176139550Y-92169990D01*
X176139550Y-92169990D02*
X176215740Y-92246180D01*
X176215740Y-92246180D02*
X176253835Y-92322371D01*
X176253835Y-92322371D02*
X176291931Y-92474752D01*
X176291931Y-92474752D02*
X176291931Y-92589038D01*
X176291931Y-92589038D02*
X176253835Y-92741419D01*
X176253835Y-92741419D02*
X176215740Y-92817609D01*
X176215740Y-92817609D02*
X176139550Y-92893800D01*
X176139550Y-92893800D02*
X176025264Y-92931895D01*
X176025264Y-92931895D02*
X175834788Y-92931895D01*
X170927492Y-90114400D02*
X171841778Y-90114400D01*
X172413206Y-89771542D02*
X173327492Y-90114400D01*
X173327492Y-90114400D02*
X172413206Y-90457257D01*
X175498920Y-90457257D02*
X175441777Y-90514400D01*
X175441777Y-90514400D02*
X175270349Y-90571542D01*
X175270349Y-90571542D02*
X175156063Y-90571542D01*
X175156063Y-90571542D02*
X174984634Y-90514400D01*
X174984634Y-90514400D02*
X174870349Y-90400114D01*
X174870349Y-90400114D02*
X174813206Y-90285828D01*
X174813206Y-90285828D02*
X174756063Y-90057257D01*
X174756063Y-90057257D02*
X174756063Y-89885828D01*
X174756063Y-89885828D02*
X174813206Y-89657257D01*
X174813206Y-89657257D02*
X174870349Y-89542971D01*
X174870349Y-89542971D02*
X174984634Y-89428685D01*
X174984634Y-89428685D02*
X175156063Y-89371542D01*
X175156063Y-89371542D02*
X175270349Y-89371542D01*
X175270349Y-89371542D02*
X175441777Y-89428685D01*
X175441777Y-89428685D02*
X175498920Y-89485828D01*
X175841777Y-89371542D02*
X176527492Y-89371542D01*
X176184634Y-90571542D02*
X176184634Y-89371542D01*
X177613206Y-90571542D02*
X177213206Y-90000114D01*
X176927492Y-90571542D02*
X176927492Y-89371542D01*
X176927492Y-89371542D02*
X177384635Y-89371542D01*
X177384635Y-89371542D02*
X177498920Y-89428685D01*
X177498920Y-89428685D02*
X177556063Y-89485828D01*
X177556063Y-89485828D02*
X177613206Y-89600114D01*
X177613206Y-89600114D02*
X177613206Y-89771542D01*
X177613206Y-89771542D02*
X177556063Y-89885828D01*
X177556063Y-89885828D02*
X177498920Y-89942971D01*
X177498920Y-89942971D02*
X177384635Y-90000114D01*
X177384635Y-90000114D02*
X176927492Y-90000114D01*
X178698920Y-90571542D02*
X178127492Y-90571542D01*
X178127492Y-90571542D02*
X178127492Y-89371542D01*
D10*
X107570712Y-102282300D02*
X106856426Y-102282300D01*
X106856426Y-102282300D02*
X106856426Y-100782300D01*
X107713569Y-104697216D02*
X107213569Y-103982930D01*
X106856426Y-104697216D02*
X106856426Y-103197216D01*
X106856426Y-103197216D02*
X107427855Y-103197216D01*
X107427855Y-103197216D02*
X107570712Y-103268645D01*
X107570712Y-103268645D02*
X107642141Y-103340073D01*
X107642141Y-103340073D02*
X107713569Y-103482930D01*
X107713569Y-103482930D02*
X107713569Y-103697216D01*
X107713569Y-103697216D02*
X107642141Y-103840073D01*
X107642141Y-103840073D02*
X107570712Y-103911502D01*
X107570712Y-103911502D02*
X107427855Y-103982930D01*
X107427855Y-103982930D02*
X106856426Y-103982930D01*
X106784998Y-107040704D02*
X106999284Y-107112132D01*
X106999284Y-107112132D02*
X107356426Y-107112132D01*
X107356426Y-107112132D02*
X107499284Y-107040704D01*
X107499284Y-107040704D02*
X107570712Y-106969275D01*
X107570712Y-106969275D02*
X107642141Y-106826418D01*
X107642141Y-106826418D02*
X107642141Y-106683561D01*
X107642141Y-106683561D02*
X107570712Y-106540704D01*
X107570712Y-106540704D02*
X107499284Y-106469275D01*
X107499284Y-106469275D02*
X107356426Y-106397846D01*
X107356426Y-106397846D02*
X107070712Y-106326418D01*
X107070712Y-106326418D02*
X106927855Y-106254989D01*
X106927855Y-106254989D02*
X106856426Y-106183561D01*
X106856426Y-106183561D02*
X106784998Y-106040704D01*
X106784998Y-106040704D02*
X106784998Y-105897846D01*
X106784998Y-105897846D02*
X106856426Y-105754989D01*
X106856426Y-105754989D02*
X106927855Y-105683561D01*
X106927855Y-105683561D02*
X107070712Y-105612132D01*
X107070712Y-105612132D02*
X107427855Y-105612132D01*
X107427855Y-105612132D02*
X107642141Y-105683561D01*
X109142140Y-106969275D02*
X109070712Y-107040704D01*
X109070712Y-107040704D02*
X108856426Y-107112132D01*
X108856426Y-107112132D02*
X108713569Y-107112132D01*
X108713569Y-107112132D02*
X108499283Y-107040704D01*
X108499283Y-107040704D02*
X108356426Y-106897846D01*
X108356426Y-106897846D02*
X108284997Y-106754989D01*
X108284997Y-106754989D02*
X108213569Y-106469275D01*
X108213569Y-106469275D02*
X108213569Y-106254989D01*
X108213569Y-106254989D02*
X108284997Y-105969275D01*
X108284997Y-105969275D02*
X108356426Y-105826418D01*
X108356426Y-105826418D02*
X108499283Y-105683561D01*
X108499283Y-105683561D02*
X108713569Y-105612132D01*
X108713569Y-105612132D02*
X108856426Y-105612132D01*
X108856426Y-105612132D02*
X109070712Y-105683561D01*
X109070712Y-105683561D02*
X109142140Y-105754989D01*
X110499283Y-107112132D02*
X109784997Y-107112132D01*
X109784997Y-107112132D02*
X109784997Y-105612132D01*
X106784998Y-109455620D02*
X106999284Y-109527048D01*
X106999284Y-109527048D02*
X107356426Y-109527048D01*
X107356426Y-109527048D02*
X107499284Y-109455620D01*
X107499284Y-109455620D02*
X107570712Y-109384191D01*
X107570712Y-109384191D02*
X107642141Y-109241334D01*
X107642141Y-109241334D02*
X107642141Y-109098477D01*
X107642141Y-109098477D02*
X107570712Y-108955620D01*
X107570712Y-108955620D02*
X107499284Y-108884191D01*
X107499284Y-108884191D02*
X107356426Y-108812762D01*
X107356426Y-108812762D02*
X107070712Y-108741334D01*
X107070712Y-108741334D02*
X106927855Y-108669905D01*
X106927855Y-108669905D02*
X106856426Y-108598477D01*
X106856426Y-108598477D02*
X106784998Y-108455620D01*
X106784998Y-108455620D02*
X106784998Y-108312762D01*
X106784998Y-108312762D02*
X106856426Y-108169905D01*
X106856426Y-108169905D02*
X106927855Y-108098477D01*
X106927855Y-108098477D02*
X107070712Y-108027048D01*
X107070712Y-108027048D02*
X107427855Y-108027048D01*
X107427855Y-108027048D02*
X107642141Y-108098477D01*
X108284997Y-109527048D02*
X108284997Y-108027048D01*
X108284997Y-108027048D02*
X108642140Y-108027048D01*
X108642140Y-108027048D02*
X108856426Y-108098477D01*
X108856426Y-108098477D02*
X108999283Y-108241334D01*
X108999283Y-108241334D02*
X109070712Y-108384191D01*
X109070712Y-108384191D02*
X109142140Y-108669905D01*
X109142140Y-108669905D02*
X109142140Y-108884191D01*
X109142140Y-108884191D02*
X109070712Y-109169905D01*
X109070712Y-109169905D02*
X108999283Y-109312762D01*
X108999283Y-109312762D02*
X108856426Y-109455620D01*
X108856426Y-109455620D02*
X108642140Y-109527048D01*
X108642140Y-109527048D02*
X108284997Y-109527048D01*
X109713569Y-109098477D02*
X110427855Y-109098477D01*
X109570712Y-109527048D02*
X110070712Y-108027048D01*
X110070712Y-108027048D02*
X110570712Y-109527048D01*
X107642141Y-111941964D02*
X106784998Y-111941964D01*
X107213569Y-111941964D02*
X107213569Y-110441964D01*
X107213569Y-110441964D02*
X107070712Y-110656250D01*
X107070712Y-110656250D02*
X106927855Y-110799107D01*
X106927855Y-110799107D02*
X106784998Y-110870536D01*
X108213569Y-110584821D02*
X108284997Y-110513393D01*
X108284997Y-110513393D02*
X108427855Y-110441964D01*
X108427855Y-110441964D02*
X108784997Y-110441964D01*
X108784997Y-110441964D02*
X108927855Y-110513393D01*
X108927855Y-110513393D02*
X108999283Y-110584821D01*
X108999283Y-110584821D02*
X109070712Y-110727678D01*
X109070712Y-110727678D02*
X109070712Y-110870536D01*
X109070712Y-110870536D02*
X108999283Y-111084821D01*
X108999283Y-111084821D02*
X108142140Y-111941964D01*
X108142140Y-111941964D02*
X109070712Y-111941964D01*
X107642141Y-112928309D02*
X107499284Y-112856880D01*
X107499284Y-112856880D02*
X107284998Y-112856880D01*
X107284998Y-112856880D02*
X107070712Y-112928309D01*
X107070712Y-112928309D02*
X106927855Y-113071166D01*
X106927855Y-113071166D02*
X106856426Y-113214023D01*
X106856426Y-113214023D02*
X106784998Y-113499737D01*
X106784998Y-113499737D02*
X106784998Y-113714023D01*
X106784998Y-113714023D02*
X106856426Y-113999737D01*
X106856426Y-113999737D02*
X106927855Y-114142594D01*
X106927855Y-114142594D02*
X107070712Y-114285452D01*
X107070712Y-114285452D02*
X107284998Y-114356880D01*
X107284998Y-114356880D02*
X107427855Y-114356880D01*
X107427855Y-114356880D02*
X107642141Y-114285452D01*
X107642141Y-114285452D02*
X107713569Y-114214023D01*
X107713569Y-114214023D02*
X107713569Y-113714023D01*
X107713569Y-113714023D02*
X107427855Y-113714023D01*
X108356426Y-114356880D02*
X108356426Y-112856880D01*
X108356426Y-112856880D02*
X109213569Y-114356880D01*
X109213569Y-114356880D02*
X109213569Y-112856880D01*
X109927855Y-114356880D02*
X109927855Y-112856880D01*
X109927855Y-112856880D02*
X110284998Y-112856880D01*
X110284998Y-112856880D02*
X110499284Y-112928309D01*
X110499284Y-112928309D02*
X110642141Y-113071166D01*
X110642141Y-113071166D02*
X110713570Y-113214023D01*
X110713570Y-113214023D02*
X110784998Y-113499737D01*
X110784998Y-113499737D02*
X110784998Y-113714023D01*
X110784998Y-113714023D02*
X110713570Y-113999737D01*
X110713570Y-113999737D02*
X110642141Y-114142594D01*
X110642141Y-114142594D02*
X110499284Y-114285452D01*
X110499284Y-114285452D02*
X110284998Y-114356880D01*
X110284998Y-114356880D02*
X109927855Y-114356880D01*
X106856426Y-116200368D02*
X107999284Y-116200368D01*
X107427855Y-116771796D02*
X107427855Y-115628939D01*
X109427855Y-115271796D02*
X108713569Y-115271796D01*
X108713569Y-115271796D02*
X108642141Y-115986082D01*
X108642141Y-115986082D02*
X108713569Y-115914653D01*
X108713569Y-115914653D02*
X108856427Y-115843225D01*
X108856427Y-115843225D02*
X109213569Y-115843225D01*
X109213569Y-115843225D02*
X109356427Y-115914653D01*
X109356427Y-115914653D02*
X109427855Y-115986082D01*
X109427855Y-115986082D02*
X109499284Y-116128939D01*
X109499284Y-116128939D02*
X109499284Y-116486082D01*
X109499284Y-116486082D02*
X109427855Y-116628939D01*
X109427855Y-116628939D02*
X109356427Y-116700368D01*
X109356427Y-116700368D02*
X109213569Y-116771796D01*
X109213569Y-116771796D02*
X108856427Y-116771796D01*
X108856427Y-116771796D02*
X108713569Y-116700368D01*
X108713569Y-116700368D02*
X108642141Y-116628939D01*
X106784998Y-118758141D02*
X107499284Y-118758141D01*
X106642141Y-119186712D02*
X107142141Y-117686712D01*
X107142141Y-117686712D02*
X107642141Y-119186712D01*
X108142140Y-119186712D02*
X108142140Y-117686712D01*
X108142140Y-117686712D02*
X108499283Y-117686712D01*
X108499283Y-117686712D02*
X108713569Y-117758141D01*
X108713569Y-117758141D02*
X108856426Y-117900998D01*
X108856426Y-117900998D02*
X108927855Y-118043855D01*
X108927855Y-118043855D02*
X108999283Y-118329569D01*
X108999283Y-118329569D02*
X108999283Y-118543855D01*
X108999283Y-118543855D02*
X108927855Y-118829569D01*
X108927855Y-118829569D02*
X108856426Y-118972426D01*
X108856426Y-118972426D02*
X108713569Y-119115284D01*
X108713569Y-119115284D02*
X108499283Y-119186712D01*
X108499283Y-119186712D02*
X108142140Y-119186712D01*
X109642140Y-119186712D02*
X109642140Y-117686712D01*
X109642140Y-117686712D02*
X109999283Y-117686712D01*
X109999283Y-117686712D02*
X110213569Y-117758141D01*
X110213569Y-117758141D02*
X110356426Y-117900998D01*
X110356426Y-117900998D02*
X110427855Y-118043855D01*
X110427855Y-118043855D02*
X110499283Y-118329569D01*
X110499283Y-118329569D02*
X110499283Y-118543855D01*
X110499283Y-118543855D02*
X110427855Y-118829569D01*
X110427855Y-118829569D02*
X110356426Y-118972426D01*
X110356426Y-118972426D02*
X110213569Y-119115284D01*
X110213569Y-119115284D02*
X109999283Y-119186712D01*
X109999283Y-119186712D02*
X109642140Y-119186712D01*
X106856426Y-121030200D02*
X107999284Y-121030200D01*
X109427855Y-120101628D02*
X108713569Y-120101628D01*
X108713569Y-120101628D02*
X108642141Y-120815914D01*
X108642141Y-120815914D02*
X108713569Y-120744485D01*
X108713569Y-120744485D02*
X108856427Y-120673057D01*
X108856427Y-120673057D02*
X109213569Y-120673057D01*
X109213569Y-120673057D02*
X109356427Y-120744485D01*
X109356427Y-120744485D02*
X109427855Y-120815914D01*
X109427855Y-120815914D02*
X109499284Y-120958771D01*
X109499284Y-120958771D02*
X109499284Y-121315914D01*
X109499284Y-121315914D02*
X109427855Y-121458771D01*
X109427855Y-121458771D02*
X109356427Y-121530200D01*
X109356427Y-121530200D02*
X109213569Y-121601628D01*
X109213569Y-121601628D02*
X108856427Y-121601628D01*
X108856427Y-121601628D02*
X108713569Y-121530200D01*
X108713569Y-121530200D02*
X108642141Y-121458771D01*
X195145819Y-138531266D02*
X194669628Y-138864599D01*
X195145819Y-139102694D02*
X194145819Y-139102694D01*
X194145819Y-139102694D02*
X194145819Y-138721742D01*
X194145819Y-138721742D02*
X194193438Y-138626504D01*
X194193438Y-138626504D02*
X194241057Y-138578885D01*
X194241057Y-138578885D02*
X194336295Y-138531266D01*
X194336295Y-138531266D02*
X194479152Y-138531266D01*
X194479152Y-138531266D02*
X194574390Y-138578885D01*
X194574390Y-138578885D02*
X194622009Y-138626504D01*
X194622009Y-138626504D02*
X194669628Y-138721742D01*
X194669628Y-138721742D02*
X194669628Y-139102694D01*
X194241057Y-138150313D02*
X194193438Y-138102694D01*
X194193438Y-138102694D02*
X194145819Y-138007456D01*
X194145819Y-138007456D02*
X194145819Y-137769361D01*
X194145819Y-137769361D02*
X194193438Y-137674123D01*
X194193438Y-137674123D02*
X194241057Y-137626504D01*
X194241057Y-137626504D02*
X194336295Y-137578885D01*
X194336295Y-137578885D02*
X194431533Y-137578885D01*
X194431533Y-137578885D02*
X194574390Y-137626504D01*
X194574390Y-137626504D02*
X195145819Y-138197932D01*
X195145819Y-138197932D02*
X195145819Y-137578885D01*
X159769276Y-80201419D02*
X159769276Y-80915704D01*
X159769276Y-80915704D02*
X159721657Y-81058561D01*
X159721657Y-81058561D02*
X159626419Y-81153800D01*
X159626419Y-81153800D02*
X159483562Y-81201419D01*
X159483562Y-81201419D02*
X159388324Y-81201419D01*
X160769276Y-81201419D02*
X160197848Y-81201419D01*
X160483562Y-81201419D02*
X160483562Y-80201419D01*
X160483562Y-80201419D02*
X160388324Y-80344276D01*
X160388324Y-80344276D02*
X160293086Y-80439514D01*
X160293086Y-80439514D02*
X160197848Y-80487133D01*
X161150229Y-80296657D02*
X161197848Y-80249038D01*
X161197848Y-80249038D02*
X161293086Y-80201419D01*
X161293086Y-80201419D02*
X161531181Y-80201419D01*
X161531181Y-80201419D02*
X161626419Y-80249038D01*
X161626419Y-80249038D02*
X161674038Y-80296657D01*
X161674038Y-80296657D02*
X161721657Y-80391895D01*
X161721657Y-80391895D02*
X161721657Y-80487133D01*
X161721657Y-80487133D02*
X161674038Y-80629990D01*
X161674038Y-80629990D02*
X161102610Y-81201419D01*
X161102610Y-81201419D02*
X161721657Y-81201419D01*
X108707219Y-102573323D02*
X109421504Y-102573323D01*
X109421504Y-102573323D02*
X109564361Y-102620942D01*
X109564361Y-102620942D02*
X109659600Y-102716180D01*
X109659600Y-102716180D02*
X109707219Y-102859037D01*
X109707219Y-102859037D02*
X109707219Y-102954275D01*
X109707219Y-101573323D02*
X109707219Y-102144751D01*
X109707219Y-101859037D02*
X108707219Y-101859037D01*
X108707219Y-101859037D02*
X108850076Y-101954275D01*
X108850076Y-101954275D02*
X108945314Y-102049513D01*
X108945314Y-102049513D02*
X108992933Y-102144751D01*
X108707219Y-101239989D02*
X108707219Y-100620942D01*
X108707219Y-100620942D02*
X109088171Y-100954275D01*
X109088171Y-100954275D02*
X109088171Y-100811418D01*
X109088171Y-100811418D02*
X109135790Y-100716180D01*
X109135790Y-100716180D02*
X109183409Y-100668561D01*
X109183409Y-100668561D02*
X109278647Y-100620942D01*
X109278647Y-100620942D02*
X109516742Y-100620942D01*
X109516742Y-100620942D02*
X109611980Y-100668561D01*
X109611980Y-100668561D02*
X109659600Y-100716180D01*
X109659600Y-100716180D02*
X109707219Y-100811418D01*
X109707219Y-100811418D02*
X109707219Y-101097132D01*
X109707219Y-101097132D02*
X109659600Y-101192370D01*
X109659600Y-101192370D02*
X109611980Y-101239989D01*
X188701775Y-63158019D02*
X188701775Y-63967542D01*
X188701775Y-63967542D02*
X188749394Y-64062780D01*
X188749394Y-64062780D02*
X188797013Y-64110400D01*
X188797013Y-64110400D02*
X188892251Y-64158019D01*
X188892251Y-64158019D02*
X189082727Y-64158019D01*
X189082727Y-64158019D02*
X189177965Y-64110400D01*
X189177965Y-64110400D02*
X189225584Y-64062780D01*
X189225584Y-64062780D02*
X189273203Y-63967542D01*
X189273203Y-63967542D02*
X189273203Y-63158019D01*
X189701775Y-63253257D02*
X189749394Y-63205638D01*
X189749394Y-63205638D02*
X189844632Y-63158019D01*
X189844632Y-63158019D02*
X190082727Y-63158019D01*
X190082727Y-63158019D02*
X190177965Y-63205638D01*
X190177965Y-63205638D02*
X190225584Y-63253257D01*
X190225584Y-63253257D02*
X190273203Y-63348495D01*
X190273203Y-63348495D02*
X190273203Y-63443733D01*
X190273203Y-63443733D02*
X190225584Y-63586590D01*
X190225584Y-63586590D02*
X189654156Y-64158019D01*
X189654156Y-64158019D02*
X190273203Y-64158019D01*
X128780480Y-75439166D02*
X128828100Y-75486785D01*
X128828100Y-75486785D02*
X128875719Y-75629642D01*
X128875719Y-75629642D02*
X128875719Y-75724880D01*
X128875719Y-75724880D02*
X128828100Y-75867737D01*
X128828100Y-75867737D02*
X128732861Y-75962975D01*
X128732861Y-75962975D02*
X128637623Y-76010594D01*
X128637623Y-76010594D02*
X128447147Y-76058213D01*
X128447147Y-76058213D02*
X128304290Y-76058213D01*
X128304290Y-76058213D02*
X128113814Y-76010594D01*
X128113814Y-76010594D02*
X128018576Y-75962975D01*
X128018576Y-75962975D02*
X127923338Y-75867737D01*
X127923338Y-75867737D02*
X127875719Y-75724880D01*
X127875719Y-75724880D02*
X127875719Y-75629642D01*
X127875719Y-75629642D02*
X127923338Y-75486785D01*
X127923338Y-75486785D02*
X127970957Y-75439166D01*
X127970957Y-75058213D02*
X127923338Y-75010594D01*
X127923338Y-75010594D02*
X127875719Y-74915356D01*
X127875719Y-74915356D02*
X127875719Y-74677261D01*
X127875719Y-74677261D02*
X127923338Y-74582023D01*
X127923338Y-74582023D02*
X127970957Y-74534404D01*
X127970957Y-74534404D02*
X128066195Y-74486785D01*
X128066195Y-74486785D02*
X128161433Y-74486785D01*
X128161433Y-74486785D02*
X128304290Y-74534404D01*
X128304290Y-74534404D02*
X128875719Y-75105832D01*
X128875719Y-75105832D02*
X128875719Y-74486785D01*
X144040266Y-95238219D02*
X144040266Y-95952504D01*
X144040266Y-95952504D02*
X143992647Y-96095361D01*
X143992647Y-96095361D02*
X143897409Y-96190600D01*
X143897409Y-96190600D02*
X143754552Y-96238219D01*
X143754552Y-96238219D02*
X143659314Y-96238219D01*
X144945028Y-95571552D02*
X144945028Y-96238219D01*
X144706933Y-95190600D02*
X144468838Y-95904885D01*
X144468838Y-95904885D02*
X145087885Y-95904885D01*
X160150276Y-88685019D02*
X160150276Y-89399304D01*
X160150276Y-89399304D02*
X160102657Y-89542161D01*
X160102657Y-89542161D02*
X160007419Y-89637400D01*
X160007419Y-89637400D02*
X159864562Y-89685019D01*
X159864562Y-89685019D02*
X159769324Y-89685019D01*
X161150276Y-89685019D02*
X160578848Y-89685019D01*
X160864562Y-89685019D02*
X160864562Y-88685019D01*
X160864562Y-88685019D02*
X160769324Y-88827876D01*
X160769324Y-88827876D02*
X160674086Y-88923114D01*
X160674086Y-88923114D02*
X160578848Y-88970733D01*
X162102657Y-89685019D02*
X161531229Y-89685019D01*
X161816943Y-89685019D02*
X161816943Y-88685019D01*
X161816943Y-88685019D02*
X161721705Y-88827876D01*
X161721705Y-88827876D02*
X161626467Y-88923114D01*
X161626467Y-88923114D02*
X161531229Y-88970733D01*
X119980242Y-61554119D02*
X119646909Y-61077928D01*
X119408814Y-61554119D02*
X119408814Y-60554119D01*
X119408814Y-60554119D02*
X119789766Y-60554119D01*
X119789766Y-60554119D02*
X119885004Y-60601738D01*
X119885004Y-60601738D02*
X119932623Y-60649357D01*
X119932623Y-60649357D02*
X119980242Y-60744595D01*
X119980242Y-60744595D02*
X119980242Y-60887452D01*
X119980242Y-60887452D02*
X119932623Y-60982690D01*
X119932623Y-60982690D02*
X119885004Y-61030309D01*
X119885004Y-61030309D02*
X119789766Y-61077928D01*
X119789766Y-61077928D02*
X119408814Y-61077928D01*
X120361195Y-60649357D02*
X120408814Y-60601738D01*
X120408814Y-60601738D02*
X120504052Y-60554119D01*
X120504052Y-60554119D02*
X120742147Y-60554119D01*
X120742147Y-60554119D02*
X120837385Y-60601738D01*
X120837385Y-60601738D02*
X120885004Y-60649357D01*
X120885004Y-60649357D02*
X120932623Y-60744595D01*
X120932623Y-60744595D02*
X120932623Y-60839833D01*
X120932623Y-60839833D02*
X120885004Y-60982690D01*
X120885004Y-60982690D02*
X120313576Y-61554119D01*
X120313576Y-61554119D02*
X120932623Y-61554119D01*
X121885004Y-61554119D02*
X121313576Y-61554119D01*
X121599290Y-61554119D02*
X121599290Y-60554119D01*
X121599290Y-60554119D02*
X121504052Y-60696976D01*
X121504052Y-60696976D02*
X121408814Y-60792214D01*
X121408814Y-60792214D02*
X121313576Y-60839833D01*
X120373080Y-77217166D02*
X120420700Y-77264785D01*
X120420700Y-77264785D02*
X120468319Y-77407642D01*
X120468319Y-77407642D02*
X120468319Y-77502880D01*
X120468319Y-77502880D02*
X120420700Y-77645737D01*
X120420700Y-77645737D02*
X120325461Y-77740975D01*
X120325461Y-77740975D02*
X120230223Y-77788594D01*
X120230223Y-77788594D02*
X120039747Y-77836213D01*
X120039747Y-77836213D02*
X119896890Y-77836213D01*
X119896890Y-77836213D02*
X119706414Y-77788594D01*
X119706414Y-77788594D02*
X119611176Y-77740975D01*
X119611176Y-77740975D02*
X119515938Y-77645737D01*
X119515938Y-77645737D02*
X119468319Y-77502880D01*
X119468319Y-77502880D02*
X119468319Y-77407642D01*
X119468319Y-77407642D02*
X119515938Y-77264785D01*
X119515938Y-77264785D02*
X119563557Y-77217166D01*
X120468319Y-76264785D02*
X120468319Y-76836213D01*
X120468319Y-76550499D02*
X119468319Y-76550499D01*
X119468319Y-76550499D02*
X119611176Y-76645737D01*
X119611176Y-76645737D02*
X119706414Y-76740975D01*
X119706414Y-76740975D02*
X119754033Y-76836213D01*
X199082422Y-79169419D02*
X198749089Y-78693228D01*
X198510994Y-79169419D02*
X198510994Y-78169419D01*
X198510994Y-78169419D02*
X198891946Y-78169419D01*
X198891946Y-78169419D02*
X198987184Y-78217038D01*
X198987184Y-78217038D02*
X199034803Y-78264657D01*
X199034803Y-78264657D02*
X199082422Y-78359895D01*
X199082422Y-78359895D02*
X199082422Y-78502752D01*
X199082422Y-78502752D02*
X199034803Y-78597990D01*
X199034803Y-78597990D02*
X198987184Y-78645609D01*
X198987184Y-78645609D02*
X198891946Y-78693228D01*
X198891946Y-78693228D02*
X198510994Y-78693228D01*
X200034803Y-79169419D02*
X199463375Y-79169419D01*
X199749089Y-79169419D02*
X199749089Y-78169419D01*
X199749089Y-78169419D02*
X199653851Y-78312276D01*
X199653851Y-78312276D02*
X199558613Y-78407514D01*
X199558613Y-78407514D02*
X199463375Y-78455133D01*
X200510994Y-79169419D02*
X200701470Y-79169419D01*
X200701470Y-79169419D02*
X200796708Y-79121800D01*
X200796708Y-79121800D02*
X200844327Y-79074180D01*
X200844327Y-79074180D02*
X200939565Y-78931323D01*
X200939565Y-78931323D02*
X200987184Y-78740847D01*
X200987184Y-78740847D02*
X200987184Y-78359895D01*
X200987184Y-78359895D02*
X200939565Y-78264657D01*
X200939565Y-78264657D02*
X200891946Y-78217038D01*
X200891946Y-78217038D02*
X200796708Y-78169419D01*
X200796708Y-78169419D02*
X200606232Y-78169419D01*
X200606232Y-78169419D02*
X200510994Y-78217038D01*
X200510994Y-78217038D02*
X200463375Y-78264657D01*
X200463375Y-78264657D02*
X200415756Y-78359895D01*
X200415756Y-78359895D02*
X200415756Y-78597990D01*
X200415756Y-78597990D02*
X200463375Y-78693228D01*
X200463375Y-78693228D02*
X200510994Y-78740847D01*
X200510994Y-78740847D02*
X200606232Y-78788466D01*
X200606232Y-78788466D02*
X200796708Y-78788466D01*
X200796708Y-78788466D02*
X200891946Y-78740847D01*
X200891946Y-78740847D02*
X200939565Y-78693228D01*
X200939565Y-78693228D02*
X200987184Y-78597990D01*
X136150019Y-97285133D02*
X136864304Y-97285133D01*
X136864304Y-97285133D02*
X137007161Y-97332752D01*
X137007161Y-97332752D02*
X137102400Y-97427990D01*
X137102400Y-97427990D02*
X137150019Y-97570847D01*
X137150019Y-97570847D02*
X137150019Y-97666085D01*
X137150019Y-96761323D02*
X137150019Y-96570847D01*
X137150019Y-96570847D02*
X137102400Y-96475609D01*
X137102400Y-96475609D02*
X137054780Y-96427990D01*
X137054780Y-96427990D02*
X136911923Y-96332752D01*
X136911923Y-96332752D02*
X136721447Y-96285133D01*
X136721447Y-96285133D02*
X136340495Y-96285133D01*
X136340495Y-96285133D02*
X136245257Y-96332752D01*
X136245257Y-96332752D02*
X136197638Y-96380371D01*
X136197638Y-96380371D02*
X136150019Y-96475609D01*
X136150019Y-96475609D02*
X136150019Y-96666085D01*
X136150019Y-96666085D02*
X136197638Y-96761323D01*
X136197638Y-96761323D02*
X136245257Y-96808942D01*
X136245257Y-96808942D02*
X136340495Y-96856561D01*
X136340495Y-96856561D02*
X136578590Y-96856561D01*
X136578590Y-96856561D02*
X136673828Y-96808942D01*
X136673828Y-96808942D02*
X136721447Y-96761323D01*
X136721447Y-96761323D02*
X136769066Y-96666085D01*
X136769066Y-96666085D02*
X136769066Y-96475609D01*
X136769066Y-96475609D02*
X136721447Y-96380371D01*
X136721447Y-96380371D02*
X136673828Y-96332752D01*
X136673828Y-96332752D02*
X136578590Y-96285133D01*
X188174333Y-151240019D02*
X187841000Y-150763828D01*
X187602905Y-151240019D02*
X187602905Y-150240019D01*
X187602905Y-150240019D02*
X187983857Y-150240019D01*
X187983857Y-150240019D02*
X188079095Y-150287638D01*
X188079095Y-150287638D02*
X188126714Y-150335257D01*
X188126714Y-150335257D02*
X188174333Y-150430495D01*
X188174333Y-150430495D02*
X188174333Y-150573352D01*
X188174333Y-150573352D02*
X188126714Y-150668590D01*
X188126714Y-150668590D02*
X188079095Y-150716209D01*
X188079095Y-150716209D02*
X187983857Y-150763828D01*
X187983857Y-150763828D02*
X187602905Y-150763828D01*
X189126714Y-151240019D02*
X188555286Y-151240019D01*
X188841000Y-151240019D02*
X188841000Y-150240019D01*
X188841000Y-150240019D02*
X188745762Y-150382876D01*
X188745762Y-150382876D02*
X188650524Y-150478114D01*
X188650524Y-150478114D02*
X188555286Y-150525733D01*
X134694892Y-70012319D02*
X134361559Y-69536128D01*
X134123464Y-70012319D02*
X134123464Y-69012319D01*
X134123464Y-69012319D02*
X134504416Y-69012319D01*
X134504416Y-69012319D02*
X134599654Y-69059938D01*
X134599654Y-69059938D02*
X134647273Y-69107557D01*
X134647273Y-69107557D02*
X134694892Y-69202795D01*
X134694892Y-69202795D02*
X134694892Y-69345652D01*
X134694892Y-69345652D02*
X134647273Y-69440890D01*
X134647273Y-69440890D02*
X134599654Y-69488509D01*
X134599654Y-69488509D02*
X134504416Y-69536128D01*
X134504416Y-69536128D02*
X134123464Y-69536128D01*
X135075845Y-69107557D02*
X135123464Y-69059938D01*
X135123464Y-69059938D02*
X135218702Y-69012319D01*
X135218702Y-69012319D02*
X135456797Y-69012319D01*
X135456797Y-69012319D02*
X135552035Y-69059938D01*
X135552035Y-69059938D02*
X135599654Y-69107557D01*
X135599654Y-69107557D02*
X135647273Y-69202795D01*
X135647273Y-69202795D02*
X135647273Y-69298033D01*
X135647273Y-69298033D02*
X135599654Y-69440890D01*
X135599654Y-69440890D02*
X135028226Y-70012319D01*
X135028226Y-70012319D02*
X135647273Y-70012319D01*
X136552035Y-69012319D02*
X136075845Y-69012319D01*
X136075845Y-69012319D02*
X136028226Y-69488509D01*
X136028226Y-69488509D02*
X136075845Y-69440890D01*
X136075845Y-69440890D02*
X136171083Y-69393271D01*
X136171083Y-69393271D02*
X136409178Y-69393271D01*
X136409178Y-69393271D02*
X136504416Y-69440890D01*
X136504416Y-69440890D02*
X136552035Y-69488509D01*
X136552035Y-69488509D02*
X136599654Y-69583747D01*
X136599654Y-69583747D02*
X136599654Y-69821842D01*
X136599654Y-69821842D02*
X136552035Y-69917080D01*
X136552035Y-69917080D02*
X136504416Y-69964700D01*
X136504416Y-69964700D02*
X136409178Y-70012319D01*
X136409178Y-70012319D02*
X136171083Y-70012319D01*
X136171083Y-70012319D02*
X136075845Y-69964700D01*
X136075845Y-69964700D02*
X136028226Y-69917080D01*
X122445542Y-109344619D02*
X122112209Y-108868428D01*
X121874114Y-109344619D02*
X121874114Y-108344619D01*
X121874114Y-108344619D02*
X122255066Y-108344619D01*
X122255066Y-108344619D02*
X122350304Y-108392238D01*
X122350304Y-108392238D02*
X122397923Y-108439857D01*
X122397923Y-108439857D02*
X122445542Y-108535095D01*
X122445542Y-108535095D02*
X122445542Y-108677952D01*
X122445542Y-108677952D02*
X122397923Y-108773190D01*
X122397923Y-108773190D02*
X122350304Y-108820809D01*
X122350304Y-108820809D02*
X122255066Y-108868428D01*
X122255066Y-108868428D02*
X121874114Y-108868428D01*
X122826495Y-108439857D02*
X122874114Y-108392238D01*
X122874114Y-108392238D02*
X122969352Y-108344619D01*
X122969352Y-108344619D02*
X123207447Y-108344619D01*
X123207447Y-108344619D02*
X123302685Y-108392238D01*
X123302685Y-108392238D02*
X123350304Y-108439857D01*
X123350304Y-108439857D02*
X123397923Y-108535095D01*
X123397923Y-108535095D02*
X123397923Y-108630333D01*
X123397923Y-108630333D02*
X123350304Y-108773190D01*
X123350304Y-108773190D02*
X122778876Y-109344619D01*
X122778876Y-109344619D02*
X123397923Y-109344619D01*
X123969352Y-108773190D02*
X123874114Y-108725571D01*
X123874114Y-108725571D02*
X123826495Y-108677952D01*
X123826495Y-108677952D02*
X123778876Y-108582714D01*
X123778876Y-108582714D02*
X123778876Y-108535095D01*
X123778876Y-108535095D02*
X123826495Y-108439857D01*
X123826495Y-108439857D02*
X123874114Y-108392238D01*
X123874114Y-108392238D02*
X123969352Y-108344619D01*
X123969352Y-108344619D02*
X124159828Y-108344619D01*
X124159828Y-108344619D02*
X124255066Y-108392238D01*
X124255066Y-108392238D02*
X124302685Y-108439857D01*
X124302685Y-108439857D02*
X124350304Y-108535095D01*
X124350304Y-108535095D02*
X124350304Y-108582714D01*
X124350304Y-108582714D02*
X124302685Y-108677952D01*
X124302685Y-108677952D02*
X124255066Y-108725571D01*
X124255066Y-108725571D02*
X124159828Y-108773190D01*
X124159828Y-108773190D02*
X123969352Y-108773190D01*
X123969352Y-108773190D02*
X123874114Y-108820809D01*
X123874114Y-108820809D02*
X123826495Y-108868428D01*
X123826495Y-108868428D02*
X123778876Y-108963666D01*
X123778876Y-108963666D02*
X123778876Y-109154142D01*
X123778876Y-109154142D02*
X123826495Y-109249380D01*
X123826495Y-109249380D02*
X123874114Y-109297000D01*
X123874114Y-109297000D02*
X123969352Y-109344619D01*
X123969352Y-109344619D02*
X124159828Y-109344619D01*
X124159828Y-109344619D02*
X124255066Y-109297000D01*
X124255066Y-109297000D02*
X124302685Y-109249380D01*
X124302685Y-109249380D02*
X124350304Y-109154142D01*
X124350304Y-109154142D02*
X124350304Y-108963666D01*
X124350304Y-108963666D02*
X124302685Y-108868428D01*
X124302685Y-108868428D02*
X124255066Y-108820809D01*
X124255066Y-108820809D02*
X124159828Y-108773190D01*
X122267742Y-106703019D02*
X121934409Y-106226828D01*
X121696314Y-106703019D02*
X121696314Y-105703019D01*
X121696314Y-105703019D02*
X122077266Y-105703019D01*
X122077266Y-105703019D02*
X122172504Y-105750638D01*
X122172504Y-105750638D02*
X122220123Y-105798257D01*
X122220123Y-105798257D02*
X122267742Y-105893495D01*
X122267742Y-105893495D02*
X122267742Y-106036352D01*
X122267742Y-106036352D02*
X122220123Y-106131590D01*
X122220123Y-106131590D02*
X122172504Y-106179209D01*
X122172504Y-106179209D02*
X122077266Y-106226828D01*
X122077266Y-106226828D02*
X121696314Y-106226828D01*
X122648695Y-105798257D02*
X122696314Y-105750638D01*
X122696314Y-105750638D02*
X122791552Y-105703019D01*
X122791552Y-105703019D02*
X123029647Y-105703019D01*
X123029647Y-105703019D02*
X123124885Y-105750638D01*
X123124885Y-105750638D02*
X123172504Y-105798257D01*
X123172504Y-105798257D02*
X123220123Y-105893495D01*
X123220123Y-105893495D02*
X123220123Y-105988733D01*
X123220123Y-105988733D02*
X123172504Y-106131590D01*
X123172504Y-106131590D02*
X122601076Y-106703019D01*
X122601076Y-106703019D02*
X123220123Y-106703019D01*
X123553457Y-105703019D02*
X124220123Y-105703019D01*
X124220123Y-105703019D02*
X123791552Y-106703019D01*
X130888680Y-67895366D02*
X130936300Y-67942985D01*
X130936300Y-67942985D02*
X130983919Y-68085842D01*
X130983919Y-68085842D02*
X130983919Y-68181080D01*
X130983919Y-68181080D02*
X130936300Y-68323937D01*
X130936300Y-68323937D02*
X130841061Y-68419175D01*
X130841061Y-68419175D02*
X130745823Y-68466794D01*
X130745823Y-68466794D02*
X130555347Y-68514413D01*
X130555347Y-68514413D02*
X130412490Y-68514413D01*
X130412490Y-68514413D02*
X130222014Y-68466794D01*
X130222014Y-68466794D02*
X130126776Y-68419175D01*
X130126776Y-68419175D02*
X130031538Y-68323937D01*
X130031538Y-68323937D02*
X129983919Y-68181080D01*
X129983919Y-68181080D02*
X129983919Y-68085842D01*
X129983919Y-68085842D02*
X130031538Y-67942985D01*
X130031538Y-67942985D02*
X130079157Y-67895366D01*
X129983919Y-67038223D02*
X129983919Y-67228699D01*
X129983919Y-67228699D02*
X130031538Y-67323937D01*
X130031538Y-67323937D02*
X130079157Y-67371556D01*
X130079157Y-67371556D02*
X130222014Y-67466794D01*
X130222014Y-67466794D02*
X130412490Y-67514413D01*
X130412490Y-67514413D02*
X130793442Y-67514413D01*
X130793442Y-67514413D02*
X130888680Y-67466794D01*
X130888680Y-67466794D02*
X130936300Y-67419175D01*
X130936300Y-67419175D02*
X130983919Y-67323937D01*
X130983919Y-67323937D02*
X130983919Y-67133461D01*
X130983919Y-67133461D02*
X130936300Y-67038223D01*
X130936300Y-67038223D02*
X130888680Y-66990604D01*
X130888680Y-66990604D02*
X130793442Y-66942985D01*
X130793442Y-66942985D02*
X130555347Y-66942985D01*
X130555347Y-66942985D02*
X130460109Y-66990604D01*
X130460109Y-66990604D02*
X130412490Y-67038223D01*
X130412490Y-67038223D02*
X130364871Y-67133461D01*
X130364871Y-67133461D02*
X130364871Y-67323937D01*
X130364871Y-67323937D02*
X130412490Y-67419175D01*
X130412490Y-67419175D02*
X130460109Y-67466794D01*
X130460109Y-67466794D02*
X130555347Y-67514413D01*
X190515267Y-113643476D02*
X190515267Y-114100619D01*
X190515267Y-114100619D02*
X190484790Y-114192047D01*
X190484790Y-114192047D02*
X190423838Y-114253000D01*
X190423838Y-114253000D02*
X190332409Y-114283476D01*
X190332409Y-114283476D02*
X190271457Y-114283476D01*
X191155267Y-114283476D02*
X190789552Y-114283476D01*
X190972409Y-114283476D02*
X190972409Y-113643476D01*
X190972409Y-113643476D02*
X190911457Y-113734904D01*
X190911457Y-113734904D02*
X190850505Y-113795857D01*
X190850505Y-113795857D02*
X190789552Y-113826333D01*
X199291985Y-61948219D02*
X199291985Y-60948219D01*
X199291985Y-60948219D02*
X199530080Y-60948219D01*
X199530080Y-60948219D02*
X199672937Y-60995838D01*
X199672937Y-60995838D02*
X199768175Y-61091076D01*
X199768175Y-61091076D02*
X199815794Y-61186314D01*
X199815794Y-61186314D02*
X199863413Y-61376790D01*
X199863413Y-61376790D02*
X199863413Y-61519647D01*
X199863413Y-61519647D02*
X199815794Y-61710123D01*
X199815794Y-61710123D02*
X199768175Y-61805361D01*
X199768175Y-61805361D02*
X199672937Y-61900600D01*
X199672937Y-61900600D02*
X199530080Y-61948219D01*
X199530080Y-61948219D02*
X199291985Y-61948219D01*
X200815794Y-61948219D02*
X200244366Y-61948219D01*
X200530080Y-61948219D02*
X200530080Y-60948219D01*
X200530080Y-60948219D02*
X200434842Y-61091076D01*
X200434842Y-61091076D02*
X200339604Y-61186314D01*
X200339604Y-61186314D02*
X200244366Y-61233933D01*
X188033375Y-60449619D02*
X188033375Y-59449619D01*
X188604803Y-60449619D02*
X188176232Y-59878190D01*
X188604803Y-59449619D02*
X188033375Y-60021047D01*
X136048419Y-88998323D02*
X136762704Y-88998323D01*
X136762704Y-88998323D02*
X136905561Y-89045942D01*
X136905561Y-89045942D02*
X137000800Y-89141180D01*
X137000800Y-89141180D02*
X137048419Y-89284037D01*
X137048419Y-89284037D02*
X137048419Y-89379275D01*
X137048419Y-87998323D02*
X137048419Y-88569751D01*
X137048419Y-88284037D02*
X136048419Y-88284037D01*
X136048419Y-88284037D02*
X136191276Y-88379275D01*
X136191276Y-88379275D02*
X136286514Y-88474513D01*
X136286514Y-88474513D02*
X136334133Y-88569751D01*
X136048419Y-87379275D02*
X136048419Y-87284037D01*
X136048419Y-87284037D02*
X136096038Y-87188799D01*
X136096038Y-87188799D02*
X136143657Y-87141180D01*
X136143657Y-87141180D02*
X136238895Y-87093561D01*
X136238895Y-87093561D02*
X136429371Y-87045942D01*
X136429371Y-87045942D02*
X136667466Y-87045942D01*
X136667466Y-87045942D02*
X136857942Y-87093561D01*
X136857942Y-87093561D02*
X136953180Y-87141180D01*
X136953180Y-87141180D02*
X137000800Y-87188799D01*
X137000800Y-87188799D02*
X137048419Y-87284037D01*
X137048419Y-87284037D02*
X137048419Y-87379275D01*
X137048419Y-87379275D02*
X137000800Y-87474513D01*
X137000800Y-87474513D02*
X136953180Y-87522132D01*
X136953180Y-87522132D02*
X136857942Y-87569751D01*
X136857942Y-87569751D02*
X136667466Y-87617370D01*
X136667466Y-87617370D02*
X136429371Y-87617370D01*
X136429371Y-87617370D02*
X136238895Y-87569751D01*
X136238895Y-87569751D02*
X136143657Y-87522132D01*
X136143657Y-87522132D02*
X136096038Y-87474513D01*
X136096038Y-87474513D02*
X136048419Y-87379275D01*
D12*
X176331879Y-61395181D02*
X176331879Y-62483752D01*
X176331879Y-62483752D02*
X176259308Y-62701467D01*
X176259308Y-62701467D02*
X176114165Y-62846610D01*
X176114165Y-62846610D02*
X175896451Y-62919181D01*
X175896451Y-62919181D02*
X175751308Y-62919181D01*
X177275308Y-62048324D02*
X177130165Y-61975752D01*
X177130165Y-61975752D02*
X177057594Y-61903181D01*
X177057594Y-61903181D02*
X176985022Y-61758038D01*
X176985022Y-61758038D02*
X176985022Y-61685467D01*
X176985022Y-61685467D02*
X177057594Y-61540324D01*
X177057594Y-61540324D02*
X177130165Y-61467752D01*
X177130165Y-61467752D02*
X177275308Y-61395181D01*
X177275308Y-61395181D02*
X177565594Y-61395181D01*
X177565594Y-61395181D02*
X177710737Y-61467752D01*
X177710737Y-61467752D02*
X177783308Y-61540324D01*
X177783308Y-61540324D02*
X177855879Y-61685467D01*
X177855879Y-61685467D02*
X177855879Y-61758038D01*
X177855879Y-61758038D02*
X177783308Y-61903181D01*
X177783308Y-61903181D02*
X177710737Y-61975752D01*
X177710737Y-61975752D02*
X177565594Y-62048324D01*
X177565594Y-62048324D02*
X177275308Y-62048324D01*
X177275308Y-62048324D02*
X177130165Y-62120895D01*
X177130165Y-62120895D02*
X177057594Y-62193467D01*
X177057594Y-62193467D02*
X176985022Y-62338610D01*
X176985022Y-62338610D02*
X176985022Y-62628895D01*
X176985022Y-62628895D02*
X177057594Y-62774038D01*
X177057594Y-62774038D02*
X177130165Y-62846610D01*
X177130165Y-62846610D02*
X177275308Y-62919181D01*
X177275308Y-62919181D02*
X177565594Y-62919181D01*
X177565594Y-62919181D02*
X177710737Y-62846610D01*
X177710737Y-62846610D02*
X177783308Y-62774038D01*
X177783308Y-62774038D02*
X177855879Y-62628895D01*
X177855879Y-62628895D02*
X177855879Y-62338610D01*
X177855879Y-62338610D02*
X177783308Y-62193467D01*
X177783308Y-62193467D02*
X177710737Y-62120895D01*
X177710737Y-62120895D02*
X177565594Y-62048324D01*
D10*
X195495942Y-83970019D02*
X195162609Y-83493828D01*
X194924514Y-83970019D02*
X194924514Y-82970019D01*
X194924514Y-82970019D02*
X195305466Y-82970019D01*
X195305466Y-82970019D02*
X195400704Y-83017638D01*
X195400704Y-83017638D02*
X195448323Y-83065257D01*
X195448323Y-83065257D02*
X195495942Y-83160495D01*
X195495942Y-83160495D02*
X195495942Y-83303352D01*
X195495942Y-83303352D02*
X195448323Y-83398590D01*
X195448323Y-83398590D02*
X195400704Y-83446209D01*
X195400704Y-83446209D02*
X195305466Y-83493828D01*
X195305466Y-83493828D02*
X194924514Y-83493828D01*
X195876895Y-83065257D02*
X195924514Y-83017638D01*
X195924514Y-83017638D02*
X196019752Y-82970019D01*
X196019752Y-82970019D02*
X196257847Y-82970019D01*
X196257847Y-82970019D02*
X196353085Y-83017638D01*
X196353085Y-83017638D02*
X196400704Y-83065257D01*
X196400704Y-83065257D02*
X196448323Y-83160495D01*
X196448323Y-83160495D02*
X196448323Y-83255733D01*
X196448323Y-83255733D02*
X196400704Y-83398590D01*
X196400704Y-83398590D02*
X195829276Y-83970019D01*
X195829276Y-83970019D02*
X196448323Y-83970019D01*
X197067371Y-82970019D02*
X197162609Y-82970019D01*
X197162609Y-82970019D02*
X197257847Y-83017638D01*
X197257847Y-83017638D02*
X197305466Y-83065257D01*
X197305466Y-83065257D02*
X197353085Y-83160495D01*
X197353085Y-83160495D02*
X197400704Y-83350971D01*
X197400704Y-83350971D02*
X197400704Y-83589066D01*
X197400704Y-83589066D02*
X197353085Y-83779542D01*
X197353085Y-83779542D02*
X197305466Y-83874780D01*
X197305466Y-83874780D02*
X197257847Y-83922400D01*
X197257847Y-83922400D02*
X197162609Y-83970019D01*
X197162609Y-83970019D02*
X197067371Y-83970019D01*
X197067371Y-83970019D02*
X196972133Y-83922400D01*
X196972133Y-83922400D02*
X196924514Y-83874780D01*
X196924514Y-83874780D02*
X196876895Y-83779542D01*
X196876895Y-83779542D02*
X196829276Y-83589066D01*
X196829276Y-83589066D02*
X196829276Y-83350971D01*
X196829276Y-83350971D02*
X196876895Y-83160495D01*
X196876895Y-83160495D02*
X196924514Y-83065257D01*
X196924514Y-83065257D02*
X196972133Y-83017638D01*
X196972133Y-83017638D02*
X197067371Y-82970019D01*
X138477666Y-104847019D02*
X138477666Y-105561304D01*
X138477666Y-105561304D02*
X138430047Y-105704161D01*
X138430047Y-105704161D02*
X138334809Y-105799400D01*
X138334809Y-105799400D02*
X138191952Y-105847019D01*
X138191952Y-105847019D02*
X138096714Y-105847019D01*
X138858619Y-104847019D02*
X139477666Y-104847019D01*
X139477666Y-104847019D02*
X139144333Y-105227971D01*
X139144333Y-105227971D02*
X139287190Y-105227971D01*
X139287190Y-105227971D02*
X139382428Y-105275590D01*
X139382428Y-105275590D02*
X139430047Y-105323209D01*
X139430047Y-105323209D02*
X139477666Y-105418447D01*
X139477666Y-105418447D02*
X139477666Y-105656542D01*
X139477666Y-105656542D02*
X139430047Y-105751780D01*
X139430047Y-105751780D02*
X139382428Y-105799400D01*
X139382428Y-105799400D02*
X139287190Y-105847019D01*
X139287190Y-105847019D02*
X139001476Y-105847019D01*
X139001476Y-105847019D02*
X138906238Y-105799400D01*
X138906238Y-105799400D02*
X138858619Y-105751780D01*
X167313076Y-137886219D02*
X167313076Y-138600504D01*
X167313076Y-138600504D02*
X167265457Y-138743361D01*
X167265457Y-138743361D02*
X167170219Y-138838600D01*
X167170219Y-138838600D02*
X167027362Y-138886219D01*
X167027362Y-138886219D02*
X166932124Y-138886219D01*
X168313076Y-138886219D02*
X167741648Y-138886219D01*
X168027362Y-138886219D02*
X168027362Y-137886219D01*
X168027362Y-137886219D02*
X167932124Y-138029076D01*
X167932124Y-138029076D02*
X167836886Y-138124314D01*
X167836886Y-138124314D02*
X167741648Y-138171933D01*
X169170219Y-137886219D02*
X168979743Y-137886219D01*
X168979743Y-137886219D02*
X168884505Y-137933838D01*
X168884505Y-137933838D02*
X168836886Y-137981457D01*
X168836886Y-137981457D02*
X168741648Y-138124314D01*
X168741648Y-138124314D02*
X168694029Y-138314790D01*
X168694029Y-138314790D02*
X168694029Y-138695742D01*
X168694029Y-138695742D02*
X168741648Y-138790980D01*
X168741648Y-138790980D02*
X168789267Y-138838600D01*
X168789267Y-138838600D02*
X168884505Y-138886219D01*
X168884505Y-138886219D02*
X169074981Y-138886219D01*
X169074981Y-138886219D02*
X169170219Y-138838600D01*
X169170219Y-138838600D02*
X169217838Y-138790980D01*
X169217838Y-138790980D02*
X169265457Y-138695742D01*
X169265457Y-138695742D02*
X169265457Y-138457647D01*
X169265457Y-138457647D02*
X169217838Y-138362409D01*
X169217838Y-138362409D02*
X169170219Y-138314790D01*
X169170219Y-138314790D02*
X169074981Y-138267171D01*
X169074981Y-138267171D02*
X168884505Y-138267171D01*
X168884505Y-138267171D02*
X168789267Y-138314790D01*
X168789267Y-138314790D02*
X168741648Y-138362409D01*
X168741648Y-138362409D02*
X168694029Y-138457647D01*
X161471076Y-93485619D02*
X161471076Y-94199904D01*
X161471076Y-94199904D02*
X161423457Y-94342761D01*
X161423457Y-94342761D02*
X161328219Y-94438000D01*
X161328219Y-94438000D02*
X161185362Y-94485619D01*
X161185362Y-94485619D02*
X161090124Y-94485619D01*
X162471076Y-94485619D02*
X161899648Y-94485619D01*
X162185362Y-94485619D02*
X162185362Y-93485619D01*
X162185362Y-93485619D02*
X162090124Y-93628476D01*
X162090124Y-93628476D02*
X161994886Y-93723714D01*
X161994886Y-93723714D02*
X161899648Y-93771333D01*
X163375838Y-93485619D02*
X162899648Y-93485619D01*
X162899648Y-93485619D02*
X162852029Y-93961809D01*
X162852029Y-93961809D02*
X162899648Y-93914190D01*
X162899648Y-93914190D02*
X162994886Y-93866571D01*
X162994886Y-93866571D02*
X163232981Y-93866571D01*
X163232981Y-93866571D02*
X163328219Y-93914190D01*
X163328219Y-93914190D02*
X163375838Y-93961809D01*
X163375838Y-93961809D02*
X163423457Y-94057047D01*
X163423457Y-94057047D02*
X163423457Y-94295142D01*
X163423457Y-94295142D02*
X163375838Y-94390380D01*
X163375838Y-94390380D02*
X163328219Y-94438000D01*
X163328219Y-94438000D02*
X163232981Y-94485619D01*
X163232981Y-94485619D02*
X162994886Y-94485619D01*
X162994886Y-94485619D02*
X162899648Y-94438000D01*
X162899648Y-94438000D02*
X162852029Y-94390380D01*
X110778892Y-70313619D02*
X110445559Y-69837428D01*
X110207464Y-70313619D02*
X110207464Y-69313619D01*
X110207464Y-69313619D02*
X110588416Y-69313619D01*
X110588416Y-69313619D02*
X110683654Y-69361238D01*
X110683654Y-69361238D02*
X110731273Y-69408857D01*
X110731273Y-69408857D02*
X110778892Y-69504095D01*
X110778892Y-69504095D02*
X110778892Y-69646952D01*
X110778892Y-69646952D02*
X110731273Y-69742190D01*
X110731273Y-69742190D02*
X110683654Y-69789809D01*
X110683654Y-69789809D02*
X110588416Y-69837428D01*
X110588416Y-69837428D02*
X110207464Y-69837428D01*
X111159845Y-69408857D02*
X111207464Y-69361238D01*
X111207464Y-69361238D02*
X111302702Y-69313619D01*
X111302702Y-69313619D02*
X111540797Y-69313619D01*
X111540797Y-69313619D02*
X111636035Y-69361238D01*
X111636035Y-69361238D02*
X111683654Y-69408857D01*
X111683654Y-69408857D02*
X111731273Y-69504095D01*
X111731273Y-69504095D02*
X111731273Y-69599333D01*
X111731273Y-69599333D02*
X111683654Y-69742190D01*
X111683654Y-69742190D02*
X111112226Y-70313619D01*
X111112226Y-70313619D02*
X111731273Y-70313619D01*
X112064607Y-69313619D02*
X112683654Y-69313619D01*
X112683654Y-69313619D02*
X112350321Y-69694571D01*
X112350321Y-69694571D02*
X112493178Y-69694571D01*
X112493178Y-69694571D02*
X112588416Y-69742190D01*
X112588416Y-69742190D02*
X112636035Y-69789809D01*
X112636035Y-69789809D02*
X112683654Y-69885047D01*
X112683654Y-69885047D02*
X112683654Y-70123142D01*
X112683654Y-70123142D02*
X112636035Y-70218380D01*
X112636035Y-70218380D02*
X112588416Y-70266000D01*
X112588416Y-70266000D02*
X112493178Y-70313619D01*
X112493178Y-70313619D02*
X112207464Y-70313619D01*
X112207464Y-70313619D02*
X112112226Y-70266000D01*
X112112226Y-70266000D02*
X112064607Y-70218380D01*
X112162219Y-147805733D02*
X112876504Y-147805733D01*
X112876504Y-147805733D02*
X113019361Y-147853352D01*
X113019361Y-147853352D02*
X113114600Y-147948590D01*
X113114600Y-147948590D02*
X113162219Y-148091447D01*
X113162219Y-148091447D02*
X113162219Y-148186685D01*
X112162219Y-147424780D02*
X112162219Y-146758114D01*
X112162219Y-146758114D02*
X113162219Y-147186685D01*
X111425919Y-76499557D02*
X110949728Y-76832890D01*
X111425919Y-77070985D02*
X110425919Y-77070985D01*
X110425919Y-77070985D02*
X110425919Y-76690033D01*
X110425919Y-76690033D02*
X110473538Y-76594795D01*
X110473538Y-76594795D02*
X110521157Y-76547176D01*
X110521157Y-76547176D02*
X110616395Y-76499557D01*
X110616395Y-76499557D02*
X110759252Y-76499557D01*
X110759252Y-76499557D02*
X110854490Y-76547176D01*
X110854490Y-76547176D02*
X110902109Y-76594795D01*
X110902109Y-76594795D02*
X110949728Y-76690033D01*
X110949728Y-76690033D02*
X110949728Y-77070985D01*
X110521157Y-76118604D02*
X110473538Y-76070985D01*
X110473538Y-76070985D02*
X110425919Y-75975747D01*
X110425919Y-75975747D02*
X110425919Y-75737652D01*
X110425919Y-75737652D02*
X110473538Y-75642414D01*
X110473538Y-75642414D02*
X110521157Y-75594795D01*
X110521157Y-75594795D02*
X110616395Y-75547176D01*
X110616395Y-75547176D02*
X110711633Y-75547176D01*
X110711633Y-75547176D02*
X110854490Y-75594795D01*
X110854490Y-75594795D02*
X111425919Y-76166223D01*
X111425919Y-76166223D02*
X111425919Y-75547176D01*
X110521157Y-75166223D02*
X110473538Y-75118604D01*
X110473538Y-75118604D02*
X110425919Y-75023366D01*
X110425919Y-75023366D02*
X110425919Y-74785271D01*
X110425919Y-74785271D02*
X110473538Y-74690033D01*
X110473538Y-74690033D02*
X110521157Y-74642414D01*
X110521157Y-74642414D02*
X110616395Y-74594795D01*
X110616395Y-74594795D02*
X110711633Y-74594795D01*
X110711633Y-74594795D02*
X110854490Y-74642414D01*
X110854490Y-74642414D02*
X111425919Y-75213842D01*
X111425919Y-75213842D02*
X111425919Y-74594795D01*
X129549633Y-71999880D02*
X129502014Y-72047500D01*
X129502014Y-72047500D02*
X129359157Y-72095119D01*
X129359157Y-72095119D02*
X129263919Y-72095119D01*
X129263919Y-72095119D02*
X129121062Y-72047500D01*
X129121062Y-72047500D02*
X129025824Y-71952261D01*
X129025824Y-71952261D02*
X128978205Y-71857023D01*
X128978205Y-71857023D02*
X128930586Y-71666547D01*
X128930586Y-71666547D02*
X128930586Y-71523690D01*
X128930586Y-71523690D02*
X128978205Y-71333214D01*
X128978205Y-71333214D02*
X129025824Y-71237976D01*
X129025824Y-71237976D02*
X129121062Y-71142738D01*
X129121062Y-71142738D02*
X129263919Y-71095119D01*
X129263919Y-71095119D02*
X129359157Y-71095119D01*
X129359157Y-71095119D02*
X129502014Y-71142738D01*
X129502014Y-71142738D02*
X129549633Y-71190357D01*
X130406776Y-71428452D02*
X130406776Y-72095119D01*
X130168681Y-71047500D02*
X129930586Y-71761785D01*
X129930586Y-71761785D02*
X130549633Y-71761785D01*
X116124919Y-80055557D02*
X115648728Y-80388890D01*
X116124919Y-80626985D02*
X115124919Y-80626985D01*
X115124919Y-80626985D02*
X115124919Y-80246033D01*
X115124919Y-80246033D02*
X115172538Y-80150795D01*
X115172538Y-80150795D02*
X115220157Y-80103176D01*
X115220157Y-80103176D02*
X115315395Y-80055557D01*
X115315395Y-80055557D02*
X115458252Y-80055557D01*
X115458252Y-80055557D02*
X115553490Y-80103176D01*
X115553490Y-80103176D02*
X115601109Y-80150795D01*
X115601109Y-80150795D02*
X115648728Y-80246033D01*
X115648728Y-80246033D02*
X115648728Y-80626985D01*
X116124919Y-79103176D02*
X116124919Y-79674604D01*
X116124919Y-79388890D02*
X115124919Y-79388890D01*
X115124919Y-79388890D02*
X115267776Y-79484128D01*
X115267776Y-79484128D02*
X115363014Y-79579366D01*
X115363014Y-79579366D02*
X115410633Y-79674604D01*
X115124919Y-78484128D02*
X115124919Y-78388890D01*
X115124919Y-78388890D02*
X115172538Y-78293652D01*
X115172538Y-78293652D02*
X115220157Y-78246033D01*
X115220157Y-78246033D02*
X115315395Y-78198414D01*
X115315395Y-78198414D02*
X115505871Y-78150795D01*
X115505871Y-78150795D02*
X115743966Y-78150795D01*
X115743966Y-78150795D02*
X115934442Y-78198414D01*
X115934442Y-78198414D02*
X116029680Y-78246033D01*
X116029680Y-78246033D02*
X116077300Y-78293652D01*
X116077300Y-78293652D02*
X116124919Y-78388890D01*
X116124919Y-78388890D02*
X116124919Y-78484128D01*
X116124919Y-78484128D02*
X116077300Y-78579366D01*
X116077300Y-78579366D02*
X116029680Y-78626985D01*
X116029680Y-78626985D02*
X115934442Y-78674604D01*
X115934442Y-78674604D02*
X115743966Y-78722223D01*
X115743966Y-78722223D02*
X115505871Y-78722223D01*
X115505871Y-78722223D02*
X115315395Y-78674604D01*
X115315395Y-78674604D02*
X115220157Y-78626985D01*
X115220157Y-78626985D02*
X115172538Y-78579366D01*
X115172538Y-78579366D02*
X115124919Y-78484128D01*
X116611530Y-67933866D02*
X116659150Y-67981485D01*
X116659150Y-67981485D02*
X116706769Y-68124342D01*
X116706769Y-68124342D02*
X116706769Y-68219580D01*
X116706769Y-68219580D02*
X116659150Y-68362437D01*
X116659150Y-68362437D02*
X116563911Y-68457675D01*
X116563911Y-68457675D02*
X116468673Y-68505294D01*
X116468673Y-68505294D02*
X116278197Y-68552913D01*
X116278197Y-68552913D02*
X116135340Y-68552913D01*
X116135340Y-68552913D02*
X115944864Y-68505294D01*
X115944864Y-68505294D02*
X115849626Y-68457675D01*
X115849626Y-68457675D02*
X115754388Y-68362437D01*
X115754388Y-68362437D02*
X115706769Y-68219580D01*
X115706769Y-68219580D02*
X115706769Y-68124342D01*
X115706769Y-68124342D02*
X115754388Y-67981485D01*
X115754388Y-67981485D02*
X115802007Y-67933866D01*
X115706769Y-67600532D02*
X115706769Y-66933866D01*
X115706769Y-66933866D02*
X116706769Y-67362437D01*
X196771419Y-153631494D02*
X195771419Y-153631494D01*
X195771419Y-153631494D02*
X195771419Y-153393399D01*
X195771419Y-153393399D02*
X195819038Y-153250542D01*
X195819038Y-153250542D02*
X195914276Y-153155304D01*
X195914276Y-153155304D02*
X196009514Y-153107685D01*
X196009514Y-153107685D02*
X196199990Y-153060066D01*
X196199990Y-153060066D02*
X196342847Y-153060066D01*
X196342847Y-153060066D02*
X196533323Y-153107685D01*
X196533323Y-153107685D02*
X196628561Y-153155304D01*
X196628561Y-153155304D02*
X196723800Y-153250542D01*
X196723800Y-153250542D02*
X196771419Y-153393399D01*
X196771419Y-153393399D02*
X196771419Y-153631494D01*
X195866657Y-152679113D02*
X195819038Y-152631494D01*
X195819038Y-152631494D02*
X195771419Y-152536256D01*
X195771419Y-152536256D02*
X195771419Y-152298161D01*
X195771419Y-152298161D02*
X195819038Y-152202923D01*
X195819038Y-152202923D02*
X195866657Y-152155304D01*
X195866657Y-152155304D02*
X195961895Y-152107685D01*
X195961895Y-152107685D02*
X196057133Y-152107685D01*
X196057133Y-152107685D02*
X196199990Y-152155304D01*
X196199990Y-152155304D02*
X196771419Y-152726732D01*
X196771419Y-152726732D02*
X196771419Y-152107685D01*
X196409504Y-145110094D02*
X196409504Y-144633904D01*
X196695219Y-145205332D02*
X195695219Y-144871999D01*
X195695219Y-144871999D02*
X196695219Y-144538666D01*
X173104276Y-79541019D02*
X173104276Y-80255304D01*
X173104276Y-80255304D02*
X173056657Y-80398161D01*
X173056657Y-80398161D02*
X172961419Y-80493400D01*
X172961419Y-80493400D02*
X172818562Y-80541019D01*
X172818562Y-80541019D02*
X172723324Y-80541019D01*
X174104276Y-80541019D02*
X173532848Y-80541019D01*
X173818562Y-80541019D02*
X173818562Y-79541019D01*
X173818562Y-79541019D02*
X173723324Y-79683876D01*
X173723324Y-79683876D02*
X173628086Y-79779114D01*
X173628086Y-79779114D02*
X173532848Y-79826733D01*
X174961419Y-79874352D02*
X174961419Y-80541019D01*
X174723324Y-79493400D02*
X174485229Y-80207685D01*
X174485229Y-80207685D02*
X175104276Y-80207685D01*
X122510445Y-61316119D02*
X122510445Y-62125642D01*
X122510445Y-62125642D02*
X122558064Y-62220880D01*
X122558064Y-62220880D02*
X122605683Y-62268500D01*
X122605683Y-62268500D02*
X122700921Y-62316119D01*
X122700921Y-62316119D02*
X122891397Y-62316119D01*
X122891397Y-62316119D02*
X122986635Y-62268500D01*
X122986635Y-62268500D02*
X123034254Y-62220880D01*
X123034254Y-62220880D02*
X123081873Y-62125642D01*
X123081873Y-62125642D02*
X123081873Y-61316119D01*
X123462826Y-61316119D02*
X124081873Y-61316119D01*
X124081873Y-61316119D02*
X123748540Y-61697071D01*
X123748540Y-61697071D02*
X123891397Y-61697071D01*
X123891397Y-61697071D02*
X123986635Y-61744690D01*
X123986635Y-61744690D02*
X124034254Y-61792309D01*
X124034254Y-61792309D02*
X124081873Y-61887547D01*
X124081873Y-61887547D02*
X124081873Y-62125642D01*
X124081873Y-62125642D02*
X124034254Y-62220880D01*
X124034254Y-62220880D02*
X123986635Y-62268500D01*
X123986635Y-62268500D02*
X123891397Y-62316119D01*
X123891397Y-62316119D02*
X123605683Y-62316119D01*
X123605683Y-62316119D02*
X123510445Y-62268500D01*
X123510445Y-62268500D02*
X123462826Y-62220880D01*
X128215319Y-64358357D02*
X127739128Y-64691690D01*
X128215319Y-64929785D02*
X127215319Y-64929785D01*
X127215319Y-64929785D02*
X127215319Y-64548833D01*
X127215319Y-64548833D02*
X127262938Y-64453595D01*
X127262938Y-64453595D02*
X127310557Y-64405976D01*
X127310557Y-64405976D02*
X127405795Y-64358357D01*
X127405795Y-64358357D02*
X127548652Y-64358357D01*
X127548652Y-64358357D02*
X127643890Y-64405976D01*
X127643890Y-64405976D02*
X127691509Y-64453595D01*
X127691509Y-64453595D02*
X127739128Y-64548833D01*
X127739128Y-64548833D02*
X127739128Y-64929785D01*
X127310557Y-63977404D02*
X127262938Y-63929785D01*
X127262938Y-63929785D02*
X127215319Y-63834547D01*
X127215319Y-63834547D02*
X127215319Y-63596452D01*
X127215319Y-63596452D02*
X127262938Y-63501214D01*
X127262938Y-63501214D02*
X127310557Y-63453595D01*
X127310557Y-63453595D02*
X127405795Y-63405976D01*
X127405795Y-63405976D02*
X127501033Y-63405976D01*
X127501033Y-63405976D02*
X127643890Y-63453595D01*
X127643890Y-63453595D02*
X128215319Y-64025023D01*
X128215319Y-64025023D02*
X128215319Y-63405976D01*
X127215319Y-62548833D02*
X127215319Y-62739309D01*
X127215319Y-62739309D02*
X127262938Y-62834547D01*
X127262938Y-62834547D02*
X127310557Y-62882166D01*
X127310557Y-62882166D02*
X127453414Y-62977404D01*
X127453414Y-62977404D02*
X127643890Y-63025023D01*
X127643890Y-63025023D02*
X128024842Y-63025023D01*
X128024842Y-63025023D02*
X128120080Y-62977404D01*
X128120080Y-62977404D02*
X128167700Y-62929785D01*
X128167700Y-62929785D02*
X128215319Y-62834547D01*
X128215319Y-62834547D02*
X128215319Y-62644071D01*
X128215319Y-62644071D02*
X128167700Y-62548833D01*
X128167700Y-62548833D02*
X128120080Y-62501214D01*
X128120080Y-62501214D02*
X128024842Y-62453595D01*
X128024842Y-62453595D02*
X127786747Y-62453595D01*
X127786747Y-62453595D02*
X127691509Y-62501214D01*
X127691509Y-62501214D02*
X127643890Y-62548833D01*
X127643890Y-62548833D02*
X127596271Y-62644071D01*
X127596271Y-62644071D02*
X127596271Y-62834547D01*
X127596271Y-62834547D02*
X127643890Y-62929785D01*
X127643890Y-62929785D02*
X127691509Y-62977404D01*
X127691509Y-62977404D02*
X127786747Y-63025023D01*
X189303422Y-80769619D02*
X188970089Y-80293428D01*
X188731994Y-80769619D02*
X188731994Y-79769619D01*
X188731994Y-79769619D02*
X189112946Y-79769619D01*
X189112946Y-79769619D02*
X189208184Y-79817238D01*
X189208184Y-79817238D02*
X189255803Y-79864857D01*
X189255803Y-79864857D02*
X189303422Y-79960095D01*
X189303422Y-79960095D02*
X189303422Y-80102952D01*
X189303422Y-80102952D02*
X189255803Y-80198190D01*
X189255803Y-80198190D02*
X189208184Y-80245809D01*
X189208184Y-80245809D02*
X189112946Y-80293428D01*
X189112946Y-80293428D02*
X188731994Y-80293428D01*
X190255803Y-80769619D02*
X189684375Y-80769619D01*
X189970089Y-80769619D02*
X189970089Y-79769619D01*
X189970089Y-79769619D02*
X189874851Y-79912476D01*
X189874851Y-79912476D02*
X189779613Y-80007714D01*
X189779613Y-80007714D02*
X189684375Y-80055333D01*
X190827232Y-80198190D02*
X190731994Y-80150571D01*
X190731994Y-80150571D02*
X190684375Y-80102952D01*
X190684375Y-80102952D02*
X190636756Y-80007714D01*
X190636756Y-80007714D02*
X190636756Y-79960095D01*
X190636756Y-79960095D02*
X190684375Y-79864857D01*
X190684375Y-79864857D02*
X190731994Y-79817238D01*
X190731994Y-79817238D02*
X190827232Y-79769619D01*
X190827232Y-79769619D02*
X191017708Y-79769619D01*
X191017708Y-79769619D02*
X191112946Y-79817238D01*
X191112946Y-79817238D02*
X191160565Y-79864857D01*
X191160565Y-79864857D02*
X191208184Y-79960095D01*
X191208184Y-79960095D02*
X191208184Y-80007714D01*
X191208184Y-80007714D02*
X191160565Y-80102952D01*
X191160565Y-80102952D02*
X191112946Y-80150571D01*
X191112946Y-80150571D02*
X191017708Y-80198190D01*
X191017708Y-80198190D02*
X190827232Y-80198190D01*
X190827232Y-80198190D02*
X190731994Y-80245809D01*
X190731994Y-80245809D02*
X190684375Y-80293428D01*
X190684375Y-80293428D02*
X190636756Y-80388666D01*
X190636756Y-80388666D02*
X190636756Y-80579142D01*
X190636756Y-80579142D02*
X190684375Y-80674380D01*
X190684375Y-80674380D02*
X190731994Y-80722000D01*
X190731994Y-80722000D02*
X190827232Y-80769619D01*
X190827232Y-80769619D02*
X191017708Y-80769619D01*
X191017708Y-80769619D02*
X191112946Y-80722000D01*
X191112946Y-80722000D02*
X191160565Y-80674380D01*
X191160565Y-80674380D02*
X191208184Y-80579142D01*
X191208184Y-80579142D02*
X191208184Y-80388666D01*
X191208184Y-80388666D02*
X191160565Y-80293428D01*
X191160565Y-80293428D02*
X191112946Y-80245809D01*
X191112946Y-80245809D02*
X191017708Y-80198190D01*
X131022833Y-78851519D02*
X130689500Y-78375328D01*
X130451405Y-78851519D02*
X130451405Y-77851519D01*
X130451405Y-77851519D02*
X130832357Y-77851519D01*
X130832357Y-77851519D02*
X130927595Y-77899138D01*
X130927595Y-77899138D02*
X130975214Y-77946757D01*
X130975214Y-77946757D02*
X131022833Y-78041995D01*
X131022833Y-78041995D02*
X131022833Y-78184852D01*
X131022833Y-78184852D02*
X130975214Y-78280090D01*
X130975214Y-78280090D02*
X130927595Y-78327709D01*
X130927595Y-78327709D02*
X130832357Y-78375328D01*
X130832357Y-78375328D02*
X130451405Y-78375328D01*
X131499024Y-78851519D02*
X131689500Y-78851519D01*
X131689500Y-78851519D02*
X131784738Y-78803900D01*
X131784738Y-78803900D02*
X131832357Y-78756280D01*
X131832357Y-78756280D02*
X131927595Y-78613423D01*
X131927595Y-78613423D02*
X131975214Y-78422947D01*
X131975214Y-78422947D02*
X131975214Y-78041995D01*
X131975214Y-78041995D02*
X131927595Y-77946757D01*
X131927595Y-77946757D02*
X131879976Y-77899138D01*
X131879976Y-77899138D02*
X131784738Y-77851519D01*
X131784738Y-77851519D02*
X131594262Y-77851519D01*
X131594262Y-77851519D02*
X131499024Y-77899138D01*
X131499024Y-77899138D02*
X131451405Y-77946757D01*
X131451405Y-77946757D02*
X131403786Y-78041995D01*
X131403786Y-78041995D02*
X131403786Y-78280090D01*
X131403786Y-78280090D02*
X131451405Y-78375328D01*
X131451405Y-78375328D02*
X131499024Y-78422947D01*
X131499024Y-78422947D02*
X131594262Y-78470566D01*
X131594262Y-78470566D02*
X131784738Y-78470566D01*
X131784738Y-78470566D02*
X131879976Y-78422947D01*
X131879976Y-78422947D02*
X131927595Y-78375328D01*
X131927595Y-78375328D02*
X131975214Y-78280090D01*
X135759119Y-75712157D02*
X135282928Y-76045490D01*
X135759119Y-76283585D02*
X134759119Y-76283585D01*
X134759119Y-76283585D02*
X134759119Y-75902633D01*
X134759119Y-75902633D02*
X134806738Y-75807395D01*
X134806738Y-75807395D02*
X134854357Y-75759776D01*
X134854357Y-75759776D02*
X134949595Y-75712157D01*
X134949595Y-75712157D02*
X135092452Y-75712157D01*
X135092452Y-75712157D02*
X135187690Y-75759776D01*
X135187690Y-75759776D02*
X135235309Y-75807395D01*
X135235309Y-75807395D02*
X135282928Y-75902633D01*
X135282928Y-75902633D02*
X135282928Y-76283585D01*
X134854357Y-75331204D02*
X134806738Y-75283585D01*
X134806738Y-75283585D02*
X134759119Y-75188347D01*
X134759119Y-75188347D02*
X134759119Y-74950252D01*
X134759119Y-74950252D02*
X134806738Y-74855014D01*
X134806738Y-74855014D02*
X134854357Y-74807395D01*
X134854357Y-74807395D02*
X134949595Y-74759776D01*
X134949595Y-74759776D02*
X135044833Y-74759776D01*
X135044833Y-74759776D02*
X135187690Y-74807395D01*
X135187690Y-74807395D02*
X135759119Y-75378823D01*
X135759119Y-75378823D02*
X135759119Y-74759776D01*
X135092452Y-73902633D02*
X135759119Y-73902633D01*
X134711500Y-74140728D02*
X135425785Y-74378823D01*
X135425785Y-74378823D02*
X135425785Y-73759776D01*
X137402219Y-124259933D02*
X138116504Y-124259933D01*
X138116504Y-124259933D02*
X138259361Y-124307552D01*
X138259361Y-124307552D02*
X138354600Y-124402790D01*
X138354600Y-124402790D02*
X138402219Y-124545647D01*
X138402219Y-124545647D02*
X138402219Y-124640885D01*
X137497457Y-123831361D02*
X137449838Y-123783742D01*
X137449838Y-123783742D02*
X137402219Y-123688504D01*
X137402219Y-123688504D02*
X137402219Y-123450409D01*
X137402219Y-123450409D02*
X137449838Y-123355171D01*
X137449838Y-123355171D02*
X137497457Y-123307552D01*
X137497457Y-123307552D02*
X137592695Y-123259933D01*
X137592695Y-123259933D02*
X137687933Y-123259933D01*
X137687933Y-123259933D02*
X137830790Y-123307552D01*
X137830790Y-123307552D02*
X138402219Y-123878980D01*
X138402219Y-123878980D02*
X138402219Y-123259933D01*
X188100619Y-134586933D02*
X188814904Y-134586933D01*
X188814904Y-134586933D02*
X188957761Y-134634552D01*
X188957761Y-134634552D02*
X189053000Y-134729790D01*
X189053000Y-134729790D02*
X189100619Y-134872647D01*
X189100619Y-134872647D02*
X189100619Y-134967885D01*
X188100619Y-133634552D02*
X188100619Y-134110742D01*
X188100619Y-134110742D02*
X188576809Y-134158361D01*
X188576809Y-134158361D02*
X188529190Y-134110742D01*
X188529190Y-134110742D02*
X188481571Y-134015504D01*
X188481571Y-134015504D02*
X188481571Y-133777409D01*
X188481571Y-133777409D02*
X188529190Y-133682171D01*
X188529190Y-133682171D02*
X188576809Y-133634552D01*
X188576809Y-133634552D02*
X188672047Y-133586933D01*
X188672047Y-133586933D02*
X188910142Y-133586933D01*
X188910142Y-133586933D02*
X189005380Y-133634552D01*
X189005380Y-133634552D02*
X189053000Y-133682171D01*
X189053000Y-133682171D02*
X189100619Y-133777409D01*
X189100619Y-133777409D02*
X189100619Y-134015504D01*
X189100619Y-134015504D02*
X189053000Y-134110742D01*
X189053000Y-134110742D02*
X189005380Y-134158361D01*
X167363876Y-137333619D02*
X167363876Y-138047904D01*
X167363876Y-138047904D02*
X167316257Y-138190761D01*
X167316257Y-138190761D02*
X167221019Y-138286000D01*
X167221019Y-138286000D02*
X167078162Y-138333619D01*
X167078162Y-138333619D02*
X166982924Y-138333619D01*
X168363876Y-138333619D02*
X167792448Y-138333619D01*
X168078162Y-138333619D02*
X168078162Y-137333619D01*
X168078162Y-137333619D02*
X167982924Y-137476476D01*
X167982924Y-137476476D02*
X167887686Y-137571714D01*
X167887686Y-137571714D02*
X167792448Y-137619333D01*
X168697210Y-137333619D02*
X169363876Y-137333619D01*
X169363876Y-137333619D02*
X168935305Y-138333619D01*
X165300819Y-90177857D02*
X164824628Y-90511190D01*
X165300819Y-90749285D02*
X164300819Y-90749285D01*
X164300819Y-90749285D02*
X164300819Y-90368333D01*
X164300819Y-90368333D02*
X164348438Y-90273095D01*
X164348438Y-90273095D02*
X164396057Y-90225476D01*
X164396057Y-90225476D02*
X164491295Y-90177857D01*
X164491295Y-90177857D02*
X164634152Y-90177857D01*
X164634152Y-90177857D02*
X164729390Y-90225476D01*
X164729390Y-90225476D02*
X164777009Y-90273095D01*
X164777009Y-90273095D02*
X164824628Y-90368333D01*
X164824628Y-90368333D02*
X164824628Y-90749285D01*
X164300819Y-89844523D02*
X164300819Y-89225476D01*
X164300819Y-89225476D02*
X164681771Y-89558809D01*
X164681771Y-89558809D02*
X164681771Y-89415952D01*
X164681771Y-89415952D02*
X164729390Y-89320714D01*
X164729390Y-89320714D02*
X164777009Y-89273095D01*
X164777009Y-89273095D02*
X164872247Y-89225476D01*
X164872247Y-89225476D02*
X165110342Y-89225476D01*
X165110342Y-89225476D02*
X165205580Y-89273095D01*
X165205580Y-89273095D02*
X165253200Y-89320714D01*
X165253200Y-89320714D02*
X165300819Y-89415952D01*
X165300819Y-89415952D02*
X165300819Y-89701666D01*
X165300819Y-89701666D02*
X165253200Y-89796904D01*
X165253200Y-89796904D02*
X165205580Y-89844523D01*
X164300819Y-88606428D02*
X164300819Y-88511190D01*
X164300819Y-88511190D02*
X164348438Y-88415952D01*
X164348438Y-88415952D02*
X164396057Y-88368333D01*
X164396057Y-88368333D02*
X164491295Y-88320714D01*
X164491295Y-88320714D02*
X164681771Y-88273095D01*
X164681771Y-88273095D02*
X164919866Y-88273095D01*
X164919866Y-88273095D02*
X165110342Y-88320714D01*
X165110342Y-88320714D02*
X165205580Y-88368333D01*
X165205580Y-88368333D02*
X165253200Y-88415952D01*
X165253200Y-88415952D02*
X165300819Y-88511190D01*
X165300819Y-88511190D02*
X165300819Y-88606428D01*
X165300819Y-88606428D02*
X165253200Y-88701666D01*
X165253200Y-88701666D02*
X165205580Y-88749285D01*
X165205580Y-88749285D02*
X165110342Y-88796904D01*
X165110342Y-88796904D02*
X164919866Y-88844523D01*
X164919866Y-88844523D02*
X164681771Y-88844523D01*
X164681771Y-88844523D02*
X164491295Y-88796904D01*
X164491295Y-88796904D02*
X164396057Y-88749285D01*
X164396057Y-88749285D02*
X164348438Y-88701666D01*
X164348438Y-88701666D02*
X164300819Y-88606428D01*
X114258833Y-68647080D02*
X114211214Y-68694700D01*
X114211214Y-68694700D02*
X114068357Y-68742319D01*
X114068357Y-68742319D02*
X113973119Y-68742319D01*
X113973119Y-68742319D02*
X113830262Y-68694700D01*
X113830262Y-68694700D02*
X113735024Y-68599461D01*
X113735024Y-68599461D02*
X113687405Y-68504223D01*
X113687405Y-68504223D02*
X113639786Y-68313747D01*
X113639786Y-68313747D02*
X113639786Y-68170890D01*
X113639786Y-68170890D02*
X113687405Y-67980414D01*
X113687405Y-67980414D02*
X113735024Y-67885176D01*
X113735024Y-67885176D02*
X113830262Y-67789938D01*
X113830262Y-67789938D02*
X113973119Y-67742319D01*
X113973119Y-67742319D02*
X114068357Y-67742319D01*
X114068357Y-67742319D02*
X114211214Y-67789938D01*
X114211214Y-67789938D02*
X114258833Y-67837557D01*
X114592167Y-67742319D02*
X115211214Y-67742319D01*
X115211214Y-67742319D02*
X114877881Y-68123271D01*
X114877881Y-68123271D02*
X115020738Y-68123271D01*
X115020738Y-68123271D02*
X115115976Y-68170890D01*
X115115976Y-68170890D02*
X115163595Y-68218509D01*
X115163595Y-68218509D02*
X115211214Y-68313747D01*
X115211214Y-68313747D02*
X115211214Y-68551842D01*
X115211214Y-68551842D02*
X115163595Y-68647080D01*
X115163595Y-68647080D02*
X115115976Y-68694700D01*
X115115976Y-68694700D02*
X115020738Y-68742319D01*
X115020738Y-68742319D02*
X114735024Y-68742319D01*
X114735024Y-68742319D02*
X114639786Y-68694700D01*
X114639786Y-68694700D02*
X114592167Y-68647080D01*
X145183419Y-62785533D02*
X145897704Y-62785533D01*
X145897704Y-62785533D02*
X146040561Y-62833152D01*
X146040561Y-62833152D02*
X146135800Y-62928390D01*
X146135800Y-62928390D02*
X146183419Y-63071247D01*
X146183419Y-63071247D02*
X146183419Y-63166485D01*
X145183419Y-61880771D02*
X145183419Y-62071247D01*
X145183419Y-62071247D02*
X145231038Y-62166485D01*
X145231038Y-62166485D02*
X145278657Y-62214104D01*
X145278657Y-62214104D02*
X145421514Y-62309342D01*
X145421514Y-62309342D02*
X145611990Y-62356961D01*
X145611990Y-62356961D02*
X145992942Y-62356961D01*
X145992942Y-62356961D02*
X146088180Y-62309342D01*
X146088180Y-62309342D02*
X146135800Y-62261723D01*
X146135800Y-62261723D02*
X146183419Y-62166485D01*
X146183419Y-62166485D02*
X146183419Y-61976009D01*
X146183419Y-61976009D02*
X146135800Y-61880771D01*
X146135800Y-61880771D02*
X146088180Y-61833152D01*
X146088180Y-61833152D02*
X145992942Y-61785533D01*
X145992942Y-61785533D02*
X145754847Y-61785533D01*
X145754847Y-61785533D02*
X145659609Y-61833152D01*
X145659609Y-61833152D02*
X145611990Y-61880771D01*
X145611990Y-61880771D02*
X145564371Y-61976009D01*
X145564371Y-61976009D02*
X145564371Y-62166485D01*
X145564371Y-62166485D02*
X145611990Y-62261723D01*
X145611990Y-62261723D02*
X145659609Y-62309342D01*
X145659609Y-62309342D02*
X145754847Y-62356961D01*
X136014619Y-147448494D02*
X135014619Y-147448494D01*
X135014619Y-147448494D02*
X135014619Y-147210399D01*
X135014619Y-147210399D02*
X135062238Y-147067542D01*
X135062238Y-147067542D02*
X135157476Y-146972304D01*
X135157476Y-146972304D02*
X135252714Y-146924685D01*
X135252714Y-146924685D02*
X135443190Y-146877066D01*
X135443190Y-146877066D02*
X135586047Y-146877066D01*
X135586047Y-146877066D02*
X135776523Y-146924685D01*
X135776523Y-146924685D02*
X135871761Y-146972304D01*
X135871761Y-146972304D02*
X135967000Y-147067542D01*
X135967000Y-147067542D02*
X136014619Y-147210399D01*
X136014619Y-147210399D02*
X136014619Y-147448494D01*
X135014619Y-146543732D02*
X135014619Y-145924685D01*
X135014619Y-145924685D02*
X135395571Y-146258018D01*
X135395571Y-146258018D02*
X135395571Y-146115161D01*
X135395571Y-146115161D02*
X135443190Y-146019923D01*
X135443190Y-146019923D02*
X135490809Y-145972304D01*
X135490809Y-145972304D02*
X135586047Y-145924685D01*
X135586047Y-145924685D02*
X135824142Y-145924685D01*
X135824142Y-145924685D02*
X135919380Y-145972304D01*
X135919380Y-145972304D02*
X135967000Y-146019923D01*
X135967000Y-146019923D02*
X136014619Y-146115161D01*
X136014619Y-146115161D02*
X136014619Y-146400875D01*
X136014619Y-146400875D02*
X135967000Y-146496113D01*
X135967000Y-146496113D02*
X135919380Y-146543732D01*
X179098676Y-99386019D02*
X179098676Y-100100304D01*
X179098676Y-100100304D02*
X179051057Y-100243161D01*
X179051057Y-100243161D02*
X178955819Y-100338400D01*
X178955819Y-100338400D02*
X178812962Y-100386019D01*
X178812962Y-100386019D02*
X178717724Y-100386019D01*
X180098676Y-100386019D02*
X179527248Y-100386019D01*
X179812962Y-100386019D02*
X179812962Y-99386019D01*
X179812962Y-99386019D02*
X179717724Y-99528876D01*
X179717724Y-99528876D02*
X179622486Y-99624114D01*
X179622486Y-99624114D02*
X179527248Y-99671733D01*
X180670105Y-99814590D02*
X180574867Y-99766971D01*
X180574867Y-99766971D02*
X180527248Y-99719352D01*
X180527248Y-99719352D02*
X180479629Y-99624114D01*
X180479629Y-99624114D02*
X180479629Y-99576495D01*
X180479629Y-99576495D02*
X180527248Y-99481257D01*
X180527248Y-99481257D02*
X180574867Y-99433638D01*
X180574867Y-99433638D02*
X180670105Y-99386019D01*
X180670105Y-99386019D02*
X180860581Y-99386019D01*
X180860581Y-99386019D02*
X180955819Y-99433638D01*
X180955819Y-99433638D02*
X181003438Y-99481257D01*
X181003438Y-99481257D02*
X181051057Y-99576495D01*
X181051057Y-99576495D02*
X181051057Y-99624114D01*
X181051057Y-99624114D02*
X181003438Y-99719352D01*
X181003438Y-99719352D02*
X180955819Y-99766971D01*
X180955819Y-99766971D02*
X180860581Y-99814590D01*
X180860581Y-99814590D02*
X180670105Y-99814590D01*
X180670105Y-99814590D02*
X180574867Y-99862209D01*
X180574867Y-99862209D02*
X180527248Y-99909828D01*
X180527248Y-99909828D02*
X180479629Y-100005066D01*
X180479629Y-100005066D02*
X180479629Y-100195542D01*
X180479629Y-100195542D02*
X180527248Y-100290780D01*
X180527248Y-100290780D02*
X180574867Y-100338400D01*
X180574867Y-100338400D02*
X180670105Y-100386019D01*
X180670105Y-100386019D02*
X180860581Y-100386019D01*
X180860581Y-100386019D02*
X180955819Y-100338400D01*
X180955819Y-100338400D02*
X181003438Y-100290780D01*
X181003438Y-100290780D02*
X181051057Y-100195542D01*
X181051057Y-100195542D02*
X181051057Y-100005066D01*
X181051057Y-100005066D02*
X181003438Y-99909828D01*
X181003438Y-99909828D02*
X180955819Y-99862209D01*
X180955819Y-99862209D02*
X180860581Y-99814590D01*
X169213619Y-101811057D02*
X168737428Y-102144390D01*
X169213619Y-102382485D02*
X168213619Y-102382485D01*
X168213619Y-102382485D02*
X168213619Y-102001533D01*
X168213619Y-102001533D02*
X168261238Y-101906295D01*
X168261238Y-101906295D02*
X168308857Y-101858676D01*
X168308857Y-101858676D02*
X168404095Y-101811057D01*
X168404095Y-101811057D02*
X168546952Y-101811057D01*
X168546952Y-101811057D02*
X168642190Y-101858676D01*
X168642190Y-101858676D02*
X168689809Y-101906295D01*
X168689809Y-101906295D02*
X168737428Y-102001533D01*
X168737428Y-102001533D02*
X168737428Y-102382485D01*
X168308857Y-101430104D02*
X168261238Y-101382485D01*
X168261238Y-101382485D02*
X168213619Y-101287247D01*
X168213619Y-101287247D02*
X168213619Y-101049152D01*
X168213619Y-101049152D02*
X168261238Y-100953914D01*
X168261238Y-100953914D02*
X168308857Y-100906295D01*
X168308857Y-100906295D02*
X168404095Y-100858676D01*
X168404095Y-100858676D02*
X168499333Y-100858676D01*
X168499333Y-100858676D02*
X168642190Y-100906295D01*
X168642190Y-100906295D02*
X169213619Y-101477723D01*
X169213619Y-101477723D02*
X169213619Y-100858676D01*
X169213619Y-100382485D02*
X169213619Y-100192009D01*
X169213619Y-100192009D02*
X169166000Y-100096771D01*
X169166000Y-100096771D02*
X169118380Y-100049152D01*
X169118380Y-100049152D02*
X168975523Y-99953914D01*
X168975523Y-99953914D02*
X168785047Y-99906295D01*
X168785047Y-99906295D02*
X168404095Y-99906295D01*
X168404095Y-99906295D02*
X168308857Y-99953914D01*
X168308857Y-99953914D02*
X168261238Y-100001533D01*
X168261238Y-100001533D02*
X168213619Y-100096771D01*
X168213619Y-100096771D02*
X168213619Y-100287247D01*
X168213619Y-100287247D02*
X168261238Y-100382485D01*
X168261238Y-100382485D02*
X168308857Y-100430104D01*
X168308857Y-100430104D02*
X168404095Y-100477723D01*
X168404095Y-100477723D02*
X168642190Y-100477723D01*
X168642190Y-100477723D02*
X168737428Y-100430104D01*
X168737428Y-100430104D02*
X168785047Y-100382485D01*
X168785047Y-100382485D02*
X168832666Y-100287247D01*
X168832666Y-100287247D02*
X168832666Y-100096771D01*
X168832666Y-100096771D02*
X168785047Y-100001533D01*
X168785047Y-100001533D02*
X168737428Y-99953914D01*
X168737428Y-99953914D02*
X168642190Y-99906295D01*
X188174333Y-147709419D02*
X187841000Y-147233228D01*
X187602905Y-147709419D02*
X187602905Y-146709419D01*
X187602905Y-146709419D02*
X187983857Y-146709419D01*
X187983857Y-146709419D02*
X188079095Y-146757038D01*
X188079095Y-146757038D02*
X188126714Y-146804657D01*
X188126714Y-146804657D02*
X188174333Y-146899895D01*
X188174333Y-146899895D02*
X188174333Y-147042752D01*
X188174333Y-147042752D02*
X188126714Y-147137990D01*
X188126714Y-147137990D02*
X188079095Y-147185609D01*
X188079095Y-147185609D02*
X187983857Y-147233228D01*
X187983857Y-147233228D02*
X187602905Y-147233228D01*
X188507667Y-146709419D02*
X189126714Y-146709419D01*
X189126714Y-146709419D02*
X188793381Y-147090371D01*
X188793381Y-147090371D02*
X188936238Y-147090371D01*
X188936238Y-147090371D02*
X189031476Y-147137990D01*
X189031476Y-147137990D02*
X189079095Y-147185609D01*
X189079095Y-147185609D02*
X189126714Y-147280847D01*
X189126714Y-147280847D02*
X189126714Y-147518942D01*
X189126714Y-147518942D02*
X189079095Y-147614180D01*
X189079095Y-147614180D02*
X189031476Y-147661800D01*
X189031476Y-147661800D02*
X188936238Y-147709419D01*
X188936238Y-147709419D02*
X188650524Y-147709419D01*
X188650524Y-147709419D02*
X188555286Y-147661800D01*
X188555286Y-147661800D02*
X188507667Y-147614180D01*
D13*
%TO.C,R2*%
X195000200Y-140964936D02*
X195000200Y-142419064D01*
X196820200Y-140964936D02*
X196820200Y-142419064D01*
%TO.C,J12*%
X148230700Y-78644800D02*
X148230700Y-82664800D01*
X148230700Y-80144800D02*
X149230700Y-80144800D01*
X148230700Y-82664800D02*
X158450700Y-82664800D01*
X148730700Y-80954800D02*
X148230700Y-80954800D01*
X148730700Y-82164800D02*
X148730700Y-80954800D01*
X149230700Y-80144800D02*
X149230700Y-78644800D01*
X157450700Y-80144800D02*
X157450700Y-78644800D01*
X157950700Y-80954800D02*
X157950700Y-82164800D01*
X157950700Y-82164800D02*
X148730700Y-82164800D01*
X158450700Y-78644800D02*
X148230700Y-78644800D01*
X158450700Y-80144800D02*
X157450700Y-80144800D01*
X158450700Y-80954800D02*
X157950700Y-80954800D01*
X158450700Y-82664800D02*
X158450700Y-78644800D01*
X158750700Y-78344800D02*
X156250700Y-78344800D01*
X158750700Y-80844800D02*
X158750700Y-78344800D01*
%TO.C,J13*%
X111417600Y-98168000D02*
X111417600Y-100668000D01*
X111717600Y-98468000D02*
X111717600Y-123688000D01*
X111717600Y-123688000D02*
X115737600Y-123688000D01*
X113217600Y-98468000D02*
X113217600Y-99468000D01*
X113217600Y-99468000D02*
X111717600Y-99468000D01*
X113217600Y-122688000D02*
X111717600Y-122688000D01*
X113217600Y-123688000D02*
X113217600Y-122688000D01*
X113917600Y-98168000D02*
X111417600Y-98168000D01*
X114027600Y-98468000D02*
X114027600Y-98968000D01*
X114027600Y-98968000D02*
X115237600Y-98968000D01*
X114027600Y-123188000D02*
X114027600Y-123688000D01*
X115237600Y-98968000D02*
X115237600Y-123188000D01*
X115237600Y-123188000D02*
X114027600Y-123188000D01*
X115737600Y-98468000D02*
X111717600Y-98468000D01*
X115737600Y-123688000D02*
X115737600Y-98468000D01*
%TO.C,U2*%
X191465880Y-64796200D02*
X191465880Y-75076200D01*
X191465880Y-75076200D02*
X195965880Y-75076200D01*
X192715880Y-64796200D02*
X191465880Y-64796200D01*
X195965880Y-64796200D02*
X194715880Y-64796200D01*
X195965880Y-75076200D02*
X195965880Y-64796200D01*
X194715880Y-64796200D02*
G75*
G02*
X192715880Y-64796200I-1000000J0D01*
G01*
%TO.C,C2*%
X127478950Y-74574348D02*
X127478950Y-75996852D01*
X129298950Y-74574348D02*
X129298950Y-75996852D01*
%TO.C,J4*%
X146532800Y-95233000D02*
X146532800Y-97733000D01*
X146532800Y-97733000D02*
X149032800Y-97733000D01*
X146832800Y-93413000D02*
X146832800Y-97433000D01*
X146832800Y-95123000D02*
X147332800Y-95123000D01*
X146832800Y-95933000D02*
X147832800Y-95933000D01*
X146832800Y-97433000D02*
X159552800Y-97433000D01*
X147332800Y-93913000D02*
X159052800Y-93913000D01*
X147332800Y-95123000D02*
X147332800Y-93913000D01*
X147832800Y-95933000D02*
X147832800Y-97433000D01*
X158552800Y-95933000D02*
X158552800Y-97433000D01*
X159052800Y-93913000D02*
X159052800Y-95123000D01*
X159052800Y-95123000D02*
X159552800Y-95123000D01*
X159552800Y-93413000D02*
X146832800Y-93413000D01*
X159552800Y-95933000D02*
X158552800Y-95933000D01*
X159552800Y-97433000D02*
X159552800Y-93413000D01*
%TO.C,J11*%
X146471200Y-88883000D02*
X146471200Y-91383000D01*
X146471200Y-91383000D02*
X148971200Y-91383000D01*
X146771200Y-87063000D02*
X146771200Y-91083000D01*
X146771200Y-88773000D02*
X147271200Y-88773000D01*
X146771200Y-89583000D02*
X147771200Y-89583000D01*
X146771200Y-91083000D02*
X159491200Y-91083000D01*
X147271200Y-87563000D02*
X158991200Y-87563000D01*
X147271200Y-88773000D02*
X147271200Y-87563000D01*
X147771200Y-89583000D02*
X147771200Y-91083000D01*
X158491200Y-89583000D02*
X158491200Y-91083000D01*
X158991200Y-87563000D02*
X158991200Y-88773000D01*
X158991200Y-88773000D02*
X159491200Y-88773000D01*
X159491200Y-87063000D02*
X146771200Y-87063000D01*
X159491200Y-89583000D02*
X158491200Y-89583000D01*
X159491200Y-91083000D02*
X159491200Y-87063000D01*
%TO.C,R21*%
X119706550Y-63585736D02*
X119706550Y-65039864D01*
X121526550Y-63585736D02*
X121526550Y-65039864D01*
%TO.C,C1*%
X117216750Y-74777548D02*
X117216750Y-76200052D01*
X119036750Y-74777548D02*
X119036750Y-76200052D01*
%TO.C,C5*%
X181889348Y-122432400D02*
X183311852Y-122432400D01*
X181889348Y-124252400D02*
X183311852Y-124252400D01*
%TO.C,R19*%
X198598144Y-75823400D02*
X197144016Y-75823400D01*
X198598144Y-77643400D02*
X197144016Y-77643400D01*
%TO.C,J9*%
X122775200Y-94301800D02*
X122775200Y-99601800D01*
X133045200Y-94301800D02*
X122775200Y-94301800D01*
X133045200Y-94301800D02*
X133045200Y-96951800D01*
X133045200Y-96951800D02*
X135695200Y-96951800D01*
X134315200Y-94301800D02*
X135695200Y-94301800D01*
X135695200Y-94301800D02*
X135695200Y-95681800D01*
X135695200Y-96951800D02*
X135695200Y-99601800D01*
X135695200Y-99601800D02*
X122775200Y-99601800D01*
%TO.C,R1*%
X190941336Y-148960800D02*
X192395464Y-148960800D01*
X190941336Y-150780800D02*
X192395464Y-150780800D01*
%TO.C,R25*%
X135702664Y-70540200D02*
X134248536Y-70540200D01*
X135702664Y-72360200D02*
X134248536Y-72360200D01*
%TO.C,R28*%
X119580664Y-105248000D02*
X118126536Y-105248000D01*
X119580664Y-107068000D02*
X118126536Y-107068000D01*
%TO.C,R27*%
X118304336Y-107915000D02*
X119758464Y-107915000D01*
X118304336Y-109735000D02*
X119758464Y-109735000D01*
%TO.C,C6*%
X127504350Y-68630852D02*
X127504350Y-67208348D01*
X129324350Y-68630852D02*
X129324350Y-67208348D01*
D10*
%TO.C,J1*%
X187794255Y-117051432D02*
X187794255Y-119801432D01*
X196544255Y-115551432D02*
X189294255Y-115551432D01*
X196544255Y-130301432D02*
X189294255Y-130301432D01*
X199772400Y-115551432D02*
X199294255Y-115551432D01*
X199772400Y-116951432D02*
X199772400Y-115551432D01*
X199772400Y-129036400D02*
X199772400Y-130301432D01*
X199783328Y-130301432D02*
X199305183Y-130301432D01*
X201072400Y-123786400D02*
X202272400Y-123786400D01*
X202272400Y-115551432D02*
X199772400Y-115551432D01*
X202272400Y-118351432D02*
X202272400Y-115551432D01*
X202272400Y-123786400D02*
X202272400Y-118286400D01*
X202272400Y-129286400D02*
X202272400Y-123786400D01*
X202272400Y-130301432D02*
X199772400Y-130301432D01*
X202272400Y-130301432D02*
X202272400Y-129286400D01*
D13*
%TO.C,D1*%
X190960880Y-61518800D02*
X191610880Y-61518800D01*
X191610880Y-60398800D02*
X191610880Y-62638800D01*
X191610880Y-62638800D02*
X195850880Y-62638800D01*
X192210880Y-60398800D02*
X192210880Y-62638800D01*
X192330880Y-60398800D02*
X192330880Y-62638800D01*
X192450880Y-60398800D02*
X192450880Y-62638800D01*
X195850880Y-60398800D02*
X191610880Y-60398800D01*
X195850880Y-62638800D02*
X195850880Y-60398800D01*
X196500880Y-61518800D02*
X195850880Y-61518800D01*
%TO.C,J10*%
X122673600Y-85538800D02*
X122673600Y-90838800D01*
X132943600Y-85538800D02*
X122673600Y-85538800D01*
X132943600Y-85538800D02*
X132943600Y-88188800D01*
X132943600Y-88188800D02*
X135593600Y-88188800D01*
X134213600Y-85538800D02*
X135593600Y-85538800D01*
X135593600Y-85538800D02*
X135593600Y-86918800D01*
X135593600Y-88188800D02*
X135593600Y-90838800D01*
X135593600Y-90838800D02*
X122673600Y-90838800D01*
D12*
%TO.C,J8*%
X166540180Y-59720480D02*
X168041320Y-59720480D01*
X166540180Y-60220860D02*
X166540180Y-59720480D01*
X168041320Y-59220100D02*
X187540900Y-59220100D01*
X168041320Y-59720480D02*
X168041320Y-59220100D01*
X168041320Y-59720480D02*
X186039760Y-59720480D01*
X168041320Y-60718700D02*
X168541700Y-60718700D01*
X168041320Y-77718920D02*
X168041320Y-60718700D01*
X168041320Y-77718920D02*
X168541700Y-78219300D01*
X168541700Y-60220860D02*
X168541700Y-60718700D01*
X168541700Y-78219300D02*
X170540680Y-78219300D01*
X170540680Y-78219300D02*
X171041060Y-78219300D01*
X171041060Y-78219300D02*
X171541440Y-77718920D01*
X171541440Y-75719940D02*
X175041560Y-75719940D01*
X171541440Y-77718920D02*
X171541440Y-75719940D01*
X175041560Y-77718920D02*
X175041560Y-75719940D01*
X175539400Y-78219300D02*
X175041560Y-77718920D01*
X178541680Y-78219300D02*
X175539400Y-78219300D01*
X178541680Y-78219300D02*
X179039520Y-77718920D01*
X179039520Y-77718920D02*
X179039520Y-75719940D01*
X182539640Y-75719940D02*
X179039520Y-75719940D01*
X182539640Y-77718920D02*
X182539640Y-75719940D01*
X183040020Y-78219300D02*
X182539640Y-77718920D01*
X185539380Y-60718700D02*
X185539380Y-60220860D01*
X185539380Y-78219300D02*
X183040020Y-78219300D01*
X186039760Y-59720480D02*
X186039760Y-60220860D01*
X186039760Y-59969400D02*
X166540180Y-59969400D01*
X186039760Y-60220860D02*
X166540180Y-60220860D01*
X186039760Y-60718700D02*
X185539380Y-60718700D01*
X186039760Y-77718920D02*
X185539380Y-78219300D01*
X186039760Y-77718920D02*
X186039760Y-60718700D01*
X187540900Y-59220100D02*
X187540900Y-59720480D01*
X187540900Y-59469020D02*
X168041320Y-59469020D01*
X187540900Y-59720480D02*
X186039760Y-59720480D01*
D13*
%TO.C,R20*%
X195366016Y-80243000D02*
X196820144Y-80243000D01*
X195366016Y-82063000D02*
X196820144Y-82063000D01*
%TO.C,J3*%
X137431000Y-106392200D02*
X138811000Y-106392200D01*
X137431000Y-107772200D02*
X137431000Y-106392200D01*
X137431000Y-109042200D02*
X137431000Y-121852200D01*
X137431000Y-109042200D02*
X140191000Y-109042200D01*
X137431000Y-121852200D02*
X140191000Y-121852200D01*
X140191000Y-109042200D02*
X140191000Y-121852200D01*
%TO.C,J16*%
X166792600Y-134391400D02*
X166792600Y-121631400D01*
X166792600Y-136991400D02*
X166792600Y-135661400D01*
X168122600Y-136991400D02*
X166792600Y-136991400D01*
X169452600Y-121631400D02*
X166792600Y-121631400D01*
X169452600Y-134391400D02*
X166792600Y-134391400D01*
X169452600Y-134391400D02*
X169452600Y-121631400D01*
D14*
%TO.C,A1*%
X142890600Y-101246000D02*
X142890600Y-101496000D01*
X142890600Y-101246000D02*
X149730600Y-101246000D01*
X142890600Y-152246000D02*
X142890600Y-151996000D01*
X149390600Y-152246000D02*
X142890600Y-152246000D01*
X149390600Y-153546000D02*
X149390600Y-152246000D01*
X157050600Y-101246000D02*
X163890600Y-101246000D01*
X157390600Y-152246000D02*
X157390600Y-153546000D01*
X157390600Y-153546000D02*
X149390600Y-153546000D01*
X163890600Y-101246000D02*
X163890600Y-101496000D01*
X163890600Y-151996000D02*
X163890600Y-152246000D01*
X163890600Y-152246000D02*
X157390600Y-152246000D01*
D15*
X165730600Y-150876000D02*
G75*
G02*
X165430600Y-150876000I-150000J0D01*
G01*
X165430600Y-150876000D02*
G75*
G02*
X165730600Y-150876000I150000J0D01*
G01*
D13*
%TO.C,J15*%
X164058800Y-95461600D02*
X164058800Y-97961600D01*
X164058800Y-97961600D02*
X166558800Y-97961600D01*
X164358800Y-93641600D02*
X164358800Y-97661600D01*
X164358800Y-95351600D02*
X164858800Y-95351600D01*
X164358800Y-96161600D02*
X165358800Y-96161600D01*
X164358800Y-97661600D02*
X177078800Y-97661600D01*
X164858800Y-94141600D02*
X176578800Y-94141600D01*
X164858800Y-95351600D02*
X164858800Y-94141600D01*
X165358800Y-96161600D02*
X165358800Y-97661600D01*
X176078800Y-96161600D02*
X176078800Y-97661600D01*
X176578800Y-94141600D02*
X176578800Y-95351600D01*
X176578800Y-95351600D02*
X177078800Y-95351600D01*
X177078800Y-93641600D02*
X164358800Y-93641600D01*
X177078800Y-96161600D02*
X176078800Y-96161600D01*
X177078800Y-97661600D02*
X177078800Y-93641600D01*
%TO.C,R23*%
X110694686Y-70768800D02*
X112148814Y-70768800D01*
X110694686Y-72588800D02*
X112148814Y-72588800D01*
%TO.C,J7*%
X113707400Y-144822400D02*
X126627400Y-144822400D01*
X113707400Y-147472400D02*
X113707400Y-144822400D01*
X113707400Y-150122400D02*
X113707400Y-148742400D01*
X115087400Y-150122400D02*
X113707400Y-150122400D01*
X116357400Y-147472400D02*
X113707400Y-147472400D01*
X116357400Y-150122400D02*
X116357400Y-147472400D01*
X116357400Y-150122400D02*
X126627400Y-150122400D01*
X126627400Y-150122400D02*
X126627400Y-144822400D01*
%TO.C,R22*%
X112010350Y-76215864D02*
X112010350Y-74761736D01*
X113830350Y-76215864D02*
X113830350Y-74761736D01*
%TO.C,C4*%
X128987298Y-70641800D02*
X130409802Y-70641800D01*
X128987298Y-72461800D02*
X130409802Y-72461800D01*
%TO.C,R10*%
X114702750Y-74787736D02*
X114702750Y-76241864D01*
X116522750Y-74787736D02*
X116522750Y-76241864D01*
%TO.C,C7*%
X117191950Y-68478452D02*
X117191950Y-67055948D01*
X119011950Y-68478452D02*
X119011950Y-67055948D01*
%TO.C,D2*%
X197209266Y-148258150D02*
G75*
G02*
X195340400Y-148198761I-968866J-1053850D01*
G01*
%TO.C,J14*%
X173137400Y-83193400D02*
X173137400Y-85693400D01*
X173137400Y-85693400D02*
X175637400Y-85693400D01*
X173437400Y-81373400D02*
X173437400Y-85393400D01*
X173437400Y-83083400D02*
X173937400Y-83083400D01*
X173437400Y-83893400D02*
X174437400Y-83893400D01*
X173437400Y-85393400D02*
X181157400Y-85393400D01*
X173937400Y-81873400D02*
X180657400Y-81873400D01*
X173937400Y-83083400D02*
X173937400Y-81873400D01*
X174437400Y-83893400D02*
X174437400Y-85393400D01*
X180157400Y-83893400D02*
X180157400Y-85393400D01*
X180657400Y-81873400D02*
X180657400Y-83083400D01*
X180657400Y-83083400D02*
X181157400Y-83083400D01*
X181157400Y-81373400D02*
X173437400Y-81373400D01*
X181157400Y-83893400D02*
X180157400Y-83893400D01*
X181157400Y-85393400D02*
X181157400Y-81373400D01*
%TO.C,U3*%
X123272350Y-67066000D02*
X119822350Y-67066000D01*
X123272350Y-67066000D02*
X125222350Y-67066000D01*
X123272350Y-75936000D02*
X121322350Y-75936000D01*
X123272350Y-75936000D02*
X125222350Y-75936000D01*
%TO.C,R26*%
X124938950Y-63636536D02*
X124938950Y-65090664D01*
X126758950Y-63636536D02*
X126758950Y-65090664D01*
%TO.C,R18*%
X189270016Y-77195000D02*
X190724144Y-77195000D01*
X189270016Y-79015000D02*
X190724144Y-79015000D01*
%TO.C,R9*%
X129891950Y-74533136D02*
X129891950Y-75987264D01*
X131711950Y-74533136D02*
X131711950Y-75987264D01*
%TO.C,R24*%
X132431950Y-76012664D02*
X132431950Y-74558536D01*
X134251950Y-76012664D02*
X134251950Y-74558536D01*
%TO.C,J2*%
X135413600Y-125273000D02*
X135413600Y-127773000D01*
X135713600Y-125573000D02*
X135713600Y-138293000D01*
X135713600Y-138293000D02*
X139733600Y-138293000D01*
X137213600Y-125573000D02*
X137213600Y-126573000D01*
X137213600Y-126573000D02*
X135713600Y-126573000D01*
X137213600Y-137293000D02*
X135713600Y-137293000D01*
X137213600Y-138293000D02*
X137213600Y-137293000D01*
X137913600Y-125273000D02*
X135413600Y-125273000D01*
X138023600Y-125573000D02*
X138023600Y-126073000D01*
X138023600Y-126073000D02*
X139233600Y-126073000D01*
X138023600Y-137793000D02*
X138023600Y-138293000D01*
X139233600Y-126073000D02*
X139233600Y-137793000D01*
X139233600Y-137793000D02*
X138023600Y-137793000D01*
X139733600Y-125573000D02*
X135713600Y-125573000D01*
X139733600Y-138293000D02*
X139733600Y-125573000D01*
%TO.C,J5*%
X187570800Y-135479000D02*
X187570800Y-143199000D01*
X187570800Y-143199000D02*
X191590800Y-143199000D01*
X188070800Y-135979000D02*
X189280800Y-135979000D01*
X188070800Y-142699000D02*
X188070800Y-135979000D01*
X189280800Y-135979000D02*
X189280800Y-135479000D01*
X189280800Y-142699000D02*
X188070800Y-142699000D01*
X189280800Y-143199000D02*
X189280800Y-142699000D01*
X189390800Y-143499000D02*
X191890800Y-143499000D01*
X190090800Y-135479000D02*
X190090800Y-136479000D01*
X190090800Y-136479000D02*
X191590800Y-136479000D01*
X190090800Y-142199000D02*
X191590800Y-142199000D01*
X190090800Y-143199000D02*
X190090800Y-142199000D01*
X191590800Y-135479000D02*
X187570800Y-135479000D01*
X191590800Y-143199000D02*
X191590800Y-135479000D01*
X191890800Y-143499000D02*
X191890800Y-140999000D01*
%TO.C,J17*%
X166793400Y-138878800D02*
X168173400Y-138878800D01*
X166793400Y-140258800D02*
X166793400Y-138878800D01*
X166793400Y-141528800D02*
X166793400Y-146718800D01*
X166793400Y-141528800D02*
X169553400Y-141528800D01*
X166793400Y-146718800D02*
X169553400Y-146718800D01*
X169553400Y-141528800D02*
X169553400Y-146718800D01*
%TO.C,R30*%
X165917200Y-88807936D02*
X165917200Y-90262064D01*
X167737200Y-88807936D02*
X167737200Y-90262064D01*
%TO.C,C3*%
X117481202Y-70667200D02*
X116058698Y-70667200D01*
X117481202Y-72487200D02*
X116058698Y-72487200D01*
%TO.C,J6*%
X145978600Y-65452200D02*
X145978600Y-66452200D01*
X145978600Y-66452200D02*
X146528600Y-65952200D01*
X146528600Y-65952200D02*
X145978600Y-65452200D01*
D10*
X147028600Y-60152200D02*
X158828600Y-60152200D01*
X147028600Y-63702200D02*
X147028600Y-60152200D01*
X147028600Y-71952200D02*
X147028600Y-68202200D01*
X147028600Y-74652200D02*
X147028600Y-74552200D01*
X149528600Y-56552200D02*
X149528600Y-60152200D01*
X155728600Y-56552200D02*
X149528600Y-56552200D01*
X155728600Y-60152200D02*
X155728600Y-56552200D01*
X158828600Y-60152200D02*
X158828600Y-67902200D01*
X158828600Y-72252200D02*
X158828600Y-74652200D01*
X158828600Y-74652200D02*
X147028600Y-74652200D01*
D13*
%TO.C,D3*%
X136553600Y-144117400D02*
X136553600Y-149557400D01*
X136553600Y-148537400D02*
X139493600Y-148537400D01*
X136553600Y-148657400D02*
X139493600Y-148657400D01*
X136553600Y-148777400D02*
X139493600Y-148777400D01*
X136553600Y-149557400D02*
X139493600Y-149557400D01*
X138023600Y-143097400D02*
X138023600Y-144117400D01*
X138023600Y-150577400D02*
X138023600Y-149557400D01*
X139493600Y-144117400D02*
X136553600Y-144117400D01*
X139493600Y-149557400D02*
X139493600Y-144117400D01*
%TO.C,J18*%
X178528200Y-100931200D02*
X179908200Y-100931200D01*
X178528200Y-102311200D02*
X178528200Y-100931200D01*
X178528200Y-103581200D02*
X178528200Y-108771200D01*
X178528200Y-103581200D02*
X181288200Y-103581200D01*
X178528200Y-108771200D02*
X181288200Y-108771200D01*
X181288200Y-103581200D02*
X181288200Y-108771200D01*
%TO.C,R29*%
X166018800Y-100441136D02*
X166018800Y-101895264D01*
X167838800Y-100441136D02*
X167838800Y-101895264D01*
%TO.C,R3*%
X191043536Y-146370000D02*
X192497664Y-146370000D01*
X191043536Y-148190000D02*
X192497664Y-148190000D01*
%TD*%
D16*
%TO.C,J8*%
X182041800Y-61722000D03*
X172039280Y-61722000D03*
X169542460Y-71716900D03*
X177040540Y-71719440D03*
X184538620Y-71716900D03*
X172044360Y-74218800D03*
X182036720Y-74218800D03*
%TD*%
M02*
