%TF.GenerationSoftware,KiCad,Pcbnew,9.0.0*%
%TF.CreationDate,2026-01-16T11:45:50+01:00*%
%TF.ProjectId,AS3397-Conductor,41533333-3937-42d4-936f-6e647563746f,rev?*%
%TF.SameCoordinates,Original*%
%TF.FileFunction,Soldermask,Top*%
%TF.FilePolarity,Negative*%
%FSLAX46Y46*%
G04 Gerber Fmt 4.6, Leading zero omitted, Abs format (unit mm)*
G04 Created by KiCad (PCBNEW 9.0.0) date 2026-01-16 11:45:50*
%MOMM*%
%LPD*%
G01*
G04 APERTURE LIST*
G04 Aperture macros list*
%AMRoundRect*
0 Rectangle with rounded corners*
0 $1 Rounding radius*
0 $2 $3 $4 $5 $6 $7 $8 $9 X,Y pos of 4 corners*
0 Add a 4 corners polygon primitive as box body*
4,1,4,$2,$3,$4,$5,$6,$7,$8,$9,$2,$3,0*
0 Add four circle primitives for the rounded corners*
1,1,$1+$1,$2,$3*
1,1,$1+$1,$4,$5*
1,1,$1+$1,$6,$7*
1,1,$1+$1,$8,$9*
0 Add four rect primitives between the rounded corners*
20,1,$1+$1,$2,$3,$4,$5,0*
20,1,$1+$1,$4,$5,$6,$7,0*
20,1,$1+$1,$6,$7,$8,$9,0*
20,1,$1+$1,$8,$9,$2,$3,0*%
G04 Aperture macros list end*
%ADD10RoundRect,0.250000X-0.625000X0.400000X-0.625000X-0.400000X0.625000X-0.400000X0.625000X0.400000X0*%
%ADD11RoundRect,0.250000X0.600000X0.725000X-0.600000X0.725000X-0.600000X-0.725000X0.600000X-0.725000X0*%
%ADD12O,1.700000X1.950000*%
%ADD13RoundRect,0.250000X-0.725000X0.600000X-0.725000X-0.600000X0.725000X-0.600000X0.725000X0.600000X0*%
%ADD14O,1.950000X1.700000*%
%ADD15R,2.400000X1.600000*%
%ADD16O,2.400000X1.600000*%
%ADD17RoundRect,0.250000X-0.650000X0.412500X-0.650000X-0.412500X0.650000X-0.412500X0.650000X0.412500X0*%
%ADD18RoundRect,0.250000X-0.600000X-0.725000X0.600000X-0.725000X0.600000X0.725000X-0.600000X0.725000X0*%
%ADD19RoundRect,0.250000X-0.412500X-0.650000X0.412500X-0.650000X0.412500X0.650000X-0.412500X0.650000X0*%
%ADD20RoundRect,0.250000X0.400000X0.625000X-0.400000X0.625000X-0.400000X-0.625000X0.400000X-0.625000X0*%
%ADD21R,1.700000X1.700000*%
%ADD22C,1.700000*%
%ADD23RoundRect,0.250000X-0.400000X-0.625000X0.400000X-0.625000X0.400000X0.625000X-0.400000X0.625000X0*%
%ADD24RoundRect,0.250000X0.650000X-0.412500X0.650000X0.412500X-0.650000X0.412500X-0.650000X-0.412500X0*%
%ADD25C,0.900000*%
%ADD26R,1.600000X0.700000*%
%ADD27R,2.200000X1.200000*%
%ADD28R,1.400000X1.600000*%
%ADD29R,1.400000X1.200000*%
%ADD30R,1.600000X1.600000*%
%ADD31O,1.600000X1.600000*%
%ADD32C,2.499360*%
%ADD33C,1.600000*%
%ADD34RoundRect,0.200000X0.600000X0.600000X-0.600000X0.600000X-0.600000X-0.600000X0.600000X-0.600000X0*%
%ADD35RoundRect,0.250000X0.625000X-0.400000X0.625000X0.400000X-0.625000X0.400000X-0.625000X-0.400000X0*%
%ADD36R,1.800000X1.800000*%
%ADD37O,1.800000X1.800000*%
%ADD38RoundRect,0.250000X-0.600000X-0.750000X0.600000X-0.750000X0.600000X0.750000X-0.600000X0.750000X0*%
%ADD39O,1.700000X2.000000*%
%ADD40RoundRect,0.150000X-0.825000X-0.150000X0.825000X-0.150000X0.825000X0.150000X-0.825000X0.150000X0*%
%ADD41RoundRect,0.250000X0.750000X-0.600000X0.750000X0.600000X-0.750000X0.600000X-0.750000X-0.600000X0*%
%ADD42O,2.000000X1.700000*%
%ADD43RoundRect,0.250000X0.412500X0.650000X-0.412500X0.650000X-0.412500X-0.650000X0.412500X-0.650000X0*%
%ADD44O,2.200000X4.000000*%
%ADD45O,4.000000X2.200000*%
%ADD46R,2.200000X4.000000*%
%ADD47R,2.200000X2.200000*%
%ADD48O,2.200000X2.200000*%
G04 APERTURE END LIST*
D10*
%TO.C,R2*%
X195910200Y-140142000D03*
X195910200Y-143242000D03*
%TD*%
D11*
%TO.C,J12*%
X155840700Y-80954800D03*
D12*
X153340700Y-80954800D03*
X150840700Y-80954800D03*
%TD*%
D13*
%TO.C,J13*%
X114027600Y-101078000D03*
D14*
X114027600Y-103578000D03*
X114027600Y-106078000D03*
X114027600Y-108578000D03*
X114027600Y-111078000D03*
X114027600Y-113578000D03*
X114027600Y-116078000D03*
X114027600Y-118578000D03*
X114027600Y-121078000D03*
%TD*%
D15*
%TO.C,U2*%
X189905880Y-66126200D03*
D16*
X189905880Y-68666200D03*
X189905880Y-71206200D03*
X189905880Y-73746200D03*
X197525880Y-73746200D03*
X197525880Y-71206200D03*
X197525880Y-68666200D03*
X197525880Y-66126200D03*
%TD*%
D17*
%TO.C,C2*%
X128388950Y-73723100D03*
X128388950Y-76848100D03*
%TD*%
D18*
%TO.C,J4*%
X149442800Y-95123000D03*
D12*
X151942800Y-95123000D03*
X154442800Y-95123000D03*
X156942800Y-95123000D03*
%TD*%
D18*
%TO.C,J11*%
X149381200Y-88773000D03*
D12*
X151881200Y-88773000D03*
X154381200Y-88773000D03*
X156881200Y-88773000D03*
%TD*%
D10*
%TO.C,R21*%
X120616550Y-62762800D03*
X120616550Y-65862800D03*
%TD*%
D17*
%TO.C,C1*%
X118126750Y-73926300D03*
X118126750Y-77051300D03*
%TD*%
D19*
%TO.C,C5*%
X181038100Y-123342400D03*
X184163100Y-123342400D03*
%TD*%
D20*
%TO.C,R19*%
X199421080Y-76733400D03*
X196321080Y-76733400D03*
%TD*%
D21*
%TO.C,J9*%
X134315200Y-95681800D03*
D22*
X134315200Y-98221800D03*
X131775200Y-95681800D03*
X131775200Y-98221800D03*
X129235200Y-95681800D03*
X129235200Y-98221800D03*
X126695200Y-95681800D03*
X126695200Y-98221800D03*
X124155200Y-95681800D03*
X124155200Y-98221800D03*
%TD*%
D23*
%TO.C,R1*%
X190118400Y-149870800D03*
X193218400Y-149870800D03*
%TD*%
D20*
%TO.C,R25*%
X136525600Y-71450200D03*
X133425600Y-71450200D03*
%TD*%
%TO.C,R28*%
X120403600Y-106158000D03*
X117303600Y-106158000D03*
%TD*%
D23*
%TO.C,R27*%
X117481400Y-108825000D03*
X120581400Y-108825000D03*
%TD*%
D24*
%TO.C,C6*%
X128414350Y-69482100D03*
X128414350Y-66357100D03*
%TD*%
D25*
%TO.C,J1*%
X198272400Y-119786400D03*
X198272400Y-127786400D03*
D26*
X187772400Y-120586400D03*
X187772400Y-121686400D03*
X187772400Y-122786400D03*
X187772400Y-123886400D03*
X187772400Y-124986400D03*
X187772400Y-126086400D03*
X187772400Y-127186400D03*
X187772400Y-128286400D03*
X187772400Y-129386400D03*
D27*
X197872400Y-115086400D03*
D28*
X188272400Y-115986400D03*
D27*
X197872400Y-130586400D03*
D29*
X188272400Y-130586400D03*
%TD*%
D30*
%TO.C,D1*%
X189920880Y-61518800D03*
D31*
X197540880Y-61518800D03*
%TD*%
D21*
%TO.C,J10*%
X134213600Y-86918800D03*
D22*
X134213600Y-89458800D03*
X131673600Y-86918800D03*
X131673600Y-89458800D03*
X129133600Y-86918800D03*
X129133600Y-89458800D03*
X126593600Y-86918800D03*
X126593600Y-89458800D03*
X124053600Y-86918800D03*
X124053600Y-89458800D03*
%TD*%
D32*
%TO.C,J8*%
X182041800Y-61722000D03*
X172039280Y-61722000D03*
X169542460Y-71716900D03*
X177040540Y-71719440D03*
X184538620Y-71716900D03*
X172044360Y-74218800D03*
X182036720Y-74218800D03*
%TD*%
D23*
%TO.C,R20*%
X194543080Y-81153000D03*
X197643080Y-81153000D03*
%TD*%
D21*
%TO.C,J3*%
X138811000Y-107772200D03*
D22*
X138811000Y-110312200D03*
X138811000Y-112852200D03*
X138811000Y-115392200D03*
X138811000Y-117932200D03*
X138811000Y-120472200D03*
%TD*%
D21*
%TO.C,J16*%
X168122600Y-135661400D03*
D22*
X168122600Y-133121400D03*
X168122600Y-130581400D03*
X168122600Y-128041400D03*
X168122600Y-125501400D03*
X168122600Y-122961400D03*
%TD*%
D33*
%TO.C,A1*%
X162280600Y-150876000D03*
X162280600Y-148336000D03*
D34*
X162280600Y-145796000D03*
D33*
X162280600Y-143256000D03*
X162280600Y-140716000D03*
X162280600Y-138176000D03*
X162280600Y-135636000D03*
D34*
X162280600Y-133096000D03*
D33*
X162280600Y-130556000D03*
X162280600Y-128016000D03*
X162280600Y-125476000D03*
X162280600Y-122936000D03*
D34*
X162280600Y-120396000D03*
D33*
X162280600Y-117856000D03*
X162280600Y-115316000D03*
X162238719Y-112776000D03*
X162280600Y-110236000D03*
D34*
X162280600Y-107696000D03*
D33*
X162280600Y-105156000D03*
X162280600Y-102616000D03*
X144500600Y-102616000D03*
X144500600Y-105156000D03*
D34*
X144500600Y-107696000D03*
D33*
X144500600Y-110236000D03*
X144500600Y-112776000D03*
X144500600Y-115316000D03*
X144500600Y-117856000D03*
D34*
X144500600Y-120396000D03*
D33*
X144500600Y-122936000D03*
X144500600Y-125476000D03*
X144500600Y-128016000D03*
X144500600Y-130556000D03*
D34*
X144500600Y-133096000D03*
D33*
X144500600Y-135636000D03*
X144500600Y-138176000D03*
X144500600Y-140716000D03*
X144500600Y-143256000D03*
D34*
X144500600Y-145796000D03*
D33*
X144500600Y-148336000D03*
X144500600Y-150876000D03*
%TD*%
D18*
%TO.C,J15*%
X166968800Y-95351600D03*
D12*
X169468800Y-95351600D03*
X171968800Y-95351600D03*
X174468800Y-95351600D03*
%TD*%
D23*
%TO.C,R23*%
X109871750Y-71678800D03*
X112971750Y-71678800D03*
%TD*%
D21*
%TO.C,J7*%
X115087400Y-148742400D03*
D22*
X115087400Y-146202400D03*
X117627400Y-148742400D03*
X117627400Y-146202400D03*
X120167400Y-148742400D03*
X120167400Y-146202400D03*
X122707400Y-148742400D03*
X122707400Y-146202400D03*
X125247400Y-148742400D03*
X125247400Y-146202400D03*
%TD*%
D35*
%TO.C,R22*%
X112920350Y-77038800D03*
X112920350Y-73938800D03*
%TD*%
D19*
%TO.C,C4*%
X128136050Y-71551800D03*
X131261050Y-71551800D03*
%TD*%
D10*
%TO.C,R10*%
X115612750Y-73964800D03*
X115612750Y-77064800D03*
%TD*%
D24*
%TO.C,C7*%
X118101950Y-69329700D03*
X118101950Y-66204700D03*
%TD*%
D36*
%TO.C,D2*%
X196240400Y-149312000D03*
D37*
X196240400Y-146772000D03*
%TD*%
D38*
%TO.C,J14*%
X176047400Y-83083400D03*
D39*
X178547400Y-83083400D03*
%TD*%
D40*
%TO.C,U3*%
X120797350Y-67691000D03*
X120797350Y-68961000D03*
X120797350Y-70231000D03*
X120797350Y-71501000D03*
X120797350Y-72771000D03*
X120797350Y-74041000D03*
X120797350Y-75311000D03*
X125747350Y-75311000D03*
X125747350Y-74041000D03*
X125747350Y-72771000D03*
X125747350Y-71501000D03*
X125747350Y-70231000D03*
X125747350Y-68961000D03*
X125747350Y-67691000D03*
%TD*%
D10*
%TO.C,R26*%
X125848950Y-62813600D03*
X125848950Y-65913600D03*
%TD*%
D23*
%TO.C,R18*%
X188447080Y-78105000D03*
X191547080Y-78105000D03*
%TD*%
D10*
%TO.C,R9*%
X130801950Y-73710200D03*
X130801950Y-76810200D03*
%TD*%
D35*
%TO.C,R24*%
X133341950Y-76835600D03*
X133341950Y-73735600D03*
%TD*%
D13*
%TO.C,J2*%
X138023600Y-128183000D03*
D14*
X138023600Y-130683000D03*
X138023600Y-133183000D03*
X138023600Y-135683000D03*
%TD*%
D41*
%TO.C,J5*%
X189280800Y-140589000D03*
D42*
X189280800Y-138089000D03*
%TD*%
D21*
%TO.C,J17*%
X168173400Y-140258800D03*
D22*
X168173400Y-142798800D03*
X168173400Y-145338800D03*
%TD*%
D10*
%TO.C,R30*%
X166827200Y-87985000D03*
X166827200Y-91085000D03*
%TD*%
D43*
%TO.C,C3*%
X118332450Y-71577200D03*
X115207450Y-71577200D03*
%TD*%
D44*
%TO.C,J6*%
X157828600Y-70052200D03*
X155128600Y-68852200D03*
D45*
X152628600Y-62052200D03*
D46*
X148028600Y-65952200D03*
D45*
X148528600Y-73252200D03*
%TD*%
D47*
%TO.C,D3*%
X138023600Y-151917400D03*
D48*
X138023600Y-141757400D03*
%TD*%
D21*
%TO.C,J18*%
X179908200Y-102311200D03*
D22*
X179908200Y-104851200D03*
X179908200Y-107391200D03*
%TD*%
D10*
%TO.C,R29*%
X166928800Y-99618200D03*
X166928800Y-102718200D03*
%TD*%
D23*
%TO.C,R3*%
X190220600Y-147280000D03*
X193320600Y-147280000D03*
%TD*%
M02*
