%TF.GenerationSoftware,KiCad,Pcbnew,7.0.7*%
%TF.CreationDate,2024-06-11T21:08:23+02:00*%
%TF.ProjectId,Carte Orchestre,43617274-6520-44f7-9263-686573747265,rev?*%
%TF.SameCoordinates,Original*%
%TF.FileFunction,Drillmap*%
%TF.FilePolarity,Positive*%
%FSLAX45Y45*%
G04 Gerber Fmt 4.5, Leading zero omitted, Abs format (unit mm)*
G04 Created by KiCad (PCBNEW 7.0.7) date 2024-06-11 21:08:23*
%MOMM*%
%LPD*%
G01*
G04 APERTURE LIST*
%ADD10C,0.100000*%
%ADD11C,0.200000*%
%ADD12C,0.090000*%
%ADD13C,0.139700*%
G04 APERTURE END LIST*
D10*
X9203690Y-5118100D02*
X17293590Y-5118100D01*
X17293590Y-13944600D01*
X9203690Y-13944600D01*
X9203690Y-5118100D01*
D11*
D12*
X16853620Y-10653480D02*
X16943620Y-10743480D01*
X16943620Y-10653480D02*
X16853620Y-10743480D01*
X16853620Y-11453480D02*
X16943620Y-11543480D01*
X16943620Y-11453480D02*
X16853620Y-11543480D01*
D13*
X14357350Y-5377180D02*
G75*
G03*
X14357350Y-5377180I-69850J0D01*
G01*
X15357602Y-5377180D02*
G75*
G03*
X15357602Y-5377180I-69850J0D01*
G01*
D11*
X9459467Y-14261084D02*
X9459467Y-14061084D01*
X9459467Y-14061084D02*
X9507086Y-14061084D01*
X9507086Y-14061084D02*
X9535657Y-14070608D01*
X9535657Y-14070608D02*
X9554705Y-14089655D01*
X9554705Y-14089655D02*
X9564229Y-14108703D01*
X9564229Y-14108703D02*
X9573753Y-14146798D01*
X9573753Y-14146798D02*
X9573753Y-14175369D01*
X9573753Y-14175369D02*
X9564229Y-14213465D01*
X9564229Y-14213465D02*
X9554705Y-14232512D01*
X9554705Y-14232512D02*
X9535657Y-14251560D01*
X9535657Y-14251560D02*
X9507086Y-14261084D01*
X9507086Y-14261084D02*
X9459467Y-14261084D01*
X9659467Y-14261084D02*
X9659467Y-14127750D01*
X9659467Y-14165846D02*
X9668991Y-14146798D01*
X9668991Y-14146798D02*
X9678514Y-14137274D01*
X9678514Y-14137274D02*
X9697562Y-14127750D01*
X9697562Y-14127750D02*
X9716610Y-14127750D01*
X9783276Y-14261084D02*
X9783276Y-14127750D01*
X9783276Y-14061084D02*
X9773753Y-14070608D01*
X9773753Y-14070608D02*
X9783276Y-14080131D01*
X9783276Y-14080131D02*
X9792800Y-14070608D01*
X9792800Y-14070608D02*
X9783276Y-14061084D01*
X9783276Y-14061084D02*
X9783276Y-14080131D01*
X9907086Y-14261084D02*
X9888038Y-14251560D01*
X9888038Y-14251560D02*
X9878514Y-14232512D01*
X9878514Y-14232512D02*
X9878514Y-14061084D01*
X10011848Y-14261084D02*
X9992800Y-14251560D01*
X9992800Y-14251560D02*
X9983276Y-14232512D01*
X9983276Y-14232512D02*
X9983276Y-14061084D01*
X10240419Y-14261084D02*
X10240419Y-14061084D01*
X10240419Y-14061084D02*
X10307086Y-14203941D01*
X10307086Y-14203941D02*
X10373753Y-14061084D01*
X10373753Y-14061084D02*
X10373753Y-14261084D01*
X10554705Y-14261084D02*
X10554705Y-14156322D01*
X10554705Y-14156322D02*
X10545181Y-14137274D01*
X10545181Y-14137274D02*
X10526134Y-14127750D01*
X10526134Y-14127750D02*
X10488038Y-14127750D01*
X10488038Y-14127750D02*
X10468991Y-14137274D01*
X10554705Y-14251560D02*
X10535657Y-14261084D01*
X10535657Y-14261084D02*
X10488038Y-14261084D01*
X10488038Y-14261084D02*
X10468991Y-14251560D01*
X10468991Y-14251560D02*
X10459467Y-14232512D01*
X10459467Y-14232512D02*
X10459467Y-14213465D01*
X10459467Y-14213465D02*
X10468991Y-14194417D01*
X10468991Y-14194417D02*
X10488038Y-14184893D01*
X10488038Y-14184893D02*
X10535657Y-14184893D01*
X10535657Y-14184893D02*
X10554705Y-14175369D01*
X10649943Y-14127750D02*
X10649943Y-14327750D01*
X10649943Y-14137274D02*
X10668991Y-14127750D01*
X10668991Y-14127750D02*
X10707086Y-14127750D01*
X10707086Y-14127750D02*
X10726134Y-14137274D01*
X10726134Y-14137274D02*
X10735657Y-14146798D01*
X10735657Y-14146798D02*
X10745181Y-14165846D01*
X10745181Y-14165846D02*
X10745181Y-14222988D01*
X10745181Y-14222988D02*
X10735657Y-14242036D01*
X10735657Y-14242036D02*
X10726134Y-14251560D01*
X10726134Y-14251560D02*
X10707086Y-14261084D01*
X10707086Y-14261084D02*
X10668991Y-14261084D01*
X10668991Y-14261084D02*
X10649943Y-14251560D01*
X10830895Y-14242036D02*
X10840419Y-14251560D01*
X10840419Y-14251560D02*
X10830895Y-14261084D01*
X10830895Y-14261084D02*
X10821372Y-14251560D01*
X10821372Y-14251560D02*
X10830895Y-14242036D01*
X10830895Y-14242036D02*
X10830895Y-14261084D01*
X10830895Y-14137274D02*
X10840419Y-14146798D01*
X10840419Y-14146798D02*
X10830895Y-14156322D01*
X10830895Y-14156322D02*
X10821372Y-14146798D01*
X10821372Y-14146798D02*
X10830895Y-14137274D01*
X10830895Y-14137274D02*
X10830895Y-14156322D01*
D12*
X9108690Y-14544600D02*
X9198690Y-14634600D01*
X9198690Y-14544600D02*
X9108690Y-14634600D01*
D11*
X9497562Y-14481084D02*
X9516610Y-14481084D01*
X9516610Y-14481084D02*
X9535657Y-14490608D01*
X9535657Y-14490608D02*
X9545181Y-14500131D01*
X9545181Y-14500131D02*
X9554705Y-14519179D01*
X9554705Y-14519179D02*
X9564229Y-14557274D01*
X9564229Y-14557274D02*
X9564229Y-14604893D01*
X9564229Y-14604893D02*
X9554705Y-14642988D01*
X9554705Y-14642988D02*
X9545181Y-14662036D01*
X9545181Y-14662036D02*
X9535657Y-14671560D01*
X9535657Y-14671560D02*
X9516610Y-14681084D01*
X9516610Y-14681084D02*
X9497562Y-14681084D01*
X9497562Y-14681084D02*
X9478514Y-14671560D01*
X9478514Y-14671560D02*
X9468991Y-14662036D01*
X9468991Y-14662036D02*
X9459467Y-14642988D01*
X9459467Y-14642988D02*
X9449943Y-14604893D01*
X9449943Y-14604893D02*
X9449943Y-14557274D01*
X9449943Y-14557274D02*
X9459467Y-14519179D01*
X9459467Y-14519179D02*
X9468991Y-14500131D01*
X9468991Y-14500131D02*
X9478514Y-14490608D01*
X9478514Y-14490608D02*
X9497562Y-14481084D01*
X9649943Y-14662036D02*
X9659467Y-14671560D01*
X9659467Y-14671560D02*
X9649943Y-14681084D01*
X9649943Y-14681084D02*
X9640419Y-14671560D01*
X9640419Y-14671560D02*
X9649943Y-14662036D01*
X9649943Y-14662036D02*
X9649943Y-14681084D01*
X9754705Y-14681084D02*
X9792800Y-14681084D01*
X9792800Y-14681084D02*
X9811848Y-14671560D01*
X9811848Y-14671560D02*
X9821372Y-14662036D01*
X9821372Y-14662036D02*
X9840419Y-14633465D01*
X9840419Y-14633465D02*
X9849943Y-14595369D01*
X9849943Y-14595369D02*
X9849943Y-14519179D01*
X9849943Y-14519179D02*
X9840419Y-14500131D01*
X9840419Y-14500131D02*
X9830895Y-14490608D01*
X9830895Y-14490608D02*
X9811848Y-14481084D01*
X9811848Y-14481084D02*
X9773753Y-14481084D01*
X9773753Y-14481084D02*
X9754705Y-14490608D01*
X9754705Y-14490608D02*
X9745181Y-14500131D01*
X9745181Y-14500131D02*
X9735657Y-14519179D01*
X9735657Y-14519179D02*
X9735657Y-14566798D01*
X9735657Y-14566798D02*
X9745181Y-14585846D01*
X9745181Y-14585846D02*
X9754705Y-14595369D01*
X9754705Y-14595369D02*
X9773753Y-14604893D01*
X9773753Y-14604893D02*
X9811848Y-14604893D01*
X9811848Y-14604893D02*
X9830895Y-14595369D01*
X9830895Y-14595369D02*
X9840419Y-14585846D01*
X9840419Y-14585846D02*
X9849943Y-14566798D01*
X9973753Y-14481084D02*
X9992800Y-14481084D01*
X9992800Y-14481084D02*
X10011848Y-14490608D01*
X10011848Y-14490608D02*
X10021372Y-14500131D01*
X10021372Y-14500131D02*
X10030895Y-14519179D01*
X10030895Y-14519179D02*
X10040419Y-14557274D01*
X10040419Y-14557274D02*
X10040419Y-14604893D01*
X10040419Y-14604893D02*
X10030895Y-14642988D01*
X10030895Y-14642988D02*
X10021372Y-14662036D01*
X10021372Y-14662036D02*
X10011848Y-14671560D01*
X10011848Y-14671560D02*
X9992800Y-14681084D01*
X9992800Y-14681084D02*
X9973753Y-14681084D01*
X9973753Y-14681084D02*
X9954705Y-14671560D01*
X9954705Y-14671560D02*
X9945181Y-14662036D01*
X9945181Y-14662036D02*
X9935657Y-14642988D01*
X9935657Y-14642988D02*
X9926134Y-14604893D01*
X9926134Y-14604893D02*
X9926134Y-14557274D01*
X9926134Y-14557274D02*
X9935657Y-14519179D01*
X9935657Y-14519179D02*
X9945181Y-14500131D01*
X9945181Y-14500131D02*
X9954705Y-14490608D01*
X9954705Y-14490608D02*
X9973753Y-14481084D01*
X10164229Y-14481084D02*
X10183276Y-14481084D01*
X10183276Y-14481084D02*
X10202324Y-14490608D01*
X10202324Y-14490608D02*
X10211848Y-14500131D01*
X10211848Y-14500131D02*
X10221372Y-14519179D01*
X10221372Y-14519179D02*
X10230895Y-14557274D01*
X10230895Y-14557274D02*
X10230895Y-14604893D01*
X10230895Y-14604893D02*
X10221372Y-14642988D01*
X10221372Y-14642988D02*
X10211848Y-14662036D01*
X10211848Y-14662036D02*
X10202324Y-14671560D01*
X10202324Y-14671560D02*
X10183276Y-14681084D01*
X10183276Y-14681084D02*
X10164229Y-14681084D01*
X10164229Y-14681084D02*
X10145181Y-14671560D01*
X10145181Y-14671560D02*
X10135657Y-14662036D01*
X10135657Y-14662036D02*
X10126134Y-14642988D01*
X10126134Y-14642988D02*
X10116610Y-14604893D01*
X10116610Y-14604893D02*
X10116610Y-14557274D01*
X10116610Y-14557274D02*
X10126134Y-14519179D01*
X10126134Y-14519179D02*
X10135657Y-14500131D01*
X10135657Y-14500131D02*
X10145181Y-14490608D01*
X10145181Y-14490608D02*
X10164229Y-14481084D01*
X10316610Y-14681084D02*
X10316610Y-14547750D01*
X10316610Y-14566798D02*
X10326134Y-14557274D01*
X10326134Y-14557274D02*
X10345181Y-14547750D01*
X10345181Y-14547750D02*
X10373753Y-14547750D01*
X10373753Y-14547750D02*
X10392800Y-14557274D01*
X10392800Y-14557274D02*
X10402324Y-14576322D01*
X10402324Y-14576322D02*
X10402324Y-14681084D01*
X10402324Y-14576322D02*
X10411848Y-14557274D01*
X10411848Y-14557274D02*
X10430895Y-14547750D01*
X10430895Y-14547750D02*
X10459467Y-14547750D01*
X10459467Y-14547750D02*
X10478515Y-14557274D01*
X10478515Y-14557274D02*
X10488038Y-14576322D01*
X10488038Y-14576322D02*
X10488038Y-14681084D01*
X10583276Y-14681084D02*
X10583276Y-14547750D01*
X10583276Y-14566798D02*
X10592800Y-14557274D01*
X10592800Y-14557274D02*
X10611848Y-14547750D01*
X10611848Y-14547750D02*
X10640419Y-14547750D01*
X10640419Y-14547750D02*
X10659467Y-14557274D01*
X10659467Y-14557274D02*
X10668991Y-14576322D01*
X10668991Y-14576322D02*
X10668991Y-14681084D01*
X10668991Y-14576322D02*
X10678515Y-14557274D01*
X10678515Y-14557274D02*
X10697562Y-14547750D01*
X10697562Y-14547750D02*
X10726134Y-14547750D01*
X10726134Y-14547750D02*
X10745181Y-14557274D01*
X10745181Y-14557274D02*
X10754705Y-14576322D01*
X10754705Y-14576322D02*
X10754705Y-14681084D01*
X11145181Y-14471560D02*
X10973753Y-14728703D01*
X11402324Y-14481084D02*
X11421372Y-14481084D01*
X11421372Y-14481084D02*
X11440419Y-14490608D01*
X11440419Y-14490608D02*
X11449943Y-14500131D01*
X11449943Y-14500131D02*
X11459467Y-14519179D01*
X11459467Y-14519179D02*
X11468991Y-14557274D01*
X11468991Y-14557274D02*
X11468991Y-14604893D01*
X11468991Y-14604893D02*
X11459467Y-14642988D01*
X11459467Y-14642988D02*
X11449943Y-14662036D01*
X11449943Y-14662036D02*
X11440419Y-14671560D01*
X11440419Y-14671560D02*
X11421372Y-14681084D01*
X11421372Y-14681084D02*
X11402324Y-14681084D01*
X11402324Y-14681084D02*
X11383276Y-14671560D01*
X11383276Y-14671560D02*
X11373753Y-14662036D01*
X11373753Y-14662036D02*
X11364229Y-14642988D01*
X11364229Y-14642988D02*
X11354705Y-14604893D01*
X11354705Y-14604893D02*
X11354705Y-14557274D01*
X11354705Y-14557274D02*
X11364229Y-14519179D01*
X11364229Y-14519179D02*
X11373753Y-14500131D01*
X11373753Y-14500131D02*
X11383276Y-14490608D01*
X11383276Y-14490608D02*
X11402324Y-14481084D01*
X11554705Y-14662036D02*
X11564229Y-14671560D01*
X11564229Y-14671560D02*
X11554705Y-14681084D01*
X11554705Y-14681084D02*
X11545181Y-14671560D01*
X11545181Y-14671560D02*
X11554705Y-14662036D01*
X11554705Y-14662036D02*
X11554705Y-14681084D01*
X11688038Y-14481084D02*
X11707086Y-14481084D01*
X11707086Y-14481084D02*
X11726134Y-14490608D01*
X11726134Y-14490608D02*
X11735657Y-14500131D01*
X11735657Y-14500131D02*
X11745181Y-14519179D01*
X11745181Y-14519179D02*
X11754705Y-14557274D01*
X11754705Y-14557274D02*
X11754705Y-14604893D01*
X11754705Y-14604893D02*
X11745181Y-14642988D01*
X11745181Y-14642988D02*
X11735657Y-14662036D01*
X11735657Y-14662036D02*
X11726134Y-14671560D01*
X11726134Y-14671560D02*
X11707086Y-14681084D01*
X11707086Y-14681084D02*
X11688038Y-14681084D01*
X11688038Y-14681084D02*
X11668991Y-14671560D01*
X11668991Y-14671560D02*
X11659467Y-14662036D01*
X11659467Y-14662036D02*
X11649943Y-14642988D01*
X11649943Y-14642988D02*
X11640419Y-14604893D01*
X11640419Y-14604893D02*
X11640419Y-14557274D01*
X11640419Y-14557274D02*
X11649943Y-14519179D01*
X11649943Y-14519179D02*
X11659467Y-14500131D01*
X11659467Y-14500131D02*
X11668991Y-14490608D01*
X11668991Y-14490608D02*
X11688038Y-14481084D01*
X11821372Y-14481084D02*
X11945181Y-14481084D01*
X11945181Y-14481084D02*
X11878515Y-14557274D01*
X11878515Y-14557274D02*
X11907086Y-14557274D01*
X11907086Y-14557274D02*
X11926134Y-14566798D01*
X11926134Y-14566798D02*
X11935657Y-14576322D01*
X11935657Y-14576322D02*
X11945181Y-14595369D01*
X11945181Y-14595369D02*
X11945181Y-14642988D01*
X11945181Y-14642988D02*
X11935657Y-14662036D01*
X11935657Y-14662036D02*
X11926134Y-14671560D01*
X11926134Y-14671560D02*
X11907086Y-14681084D01*
X11907086Y-14681084D02*
X11849943Y-14681084D01*
X11849943Y-14681084D02*
X11830896Y-14671560D01*
X11830896Y-14671560D02*
X11821372Y-14662036D01*
X12126134Y-14481084D02*
X12030896Y-14481084D01*
X12030896Y-14481084D02*
X12021372Y-14576322D01*
X12021372Y-14576322D02*
X12030896Y-14566798D01*
X12030896Y-14566798D02*
X12049943Y-14557274D01*
X12049943Y-14557274D02*
X12097562Y-14557274D01*
X12097562Y-14557274D02*
X12116610Y-14566798D01*
X12116610Y-14566798D02*
X12126134Y-14576322D01*
X12126134Y-14576322D02*
X12135657Y-14595369D01*
X12135657Y-14595369D02*
X12135657Y-14642988D01*
X12135657Y-14642988D02*
X12126134Y-14662036D01*
X12126134Y-14662036D02*
X12116610Y-14671560D01*
X12116610Y-14671560D02*
X12097562Y-14681084D01*
X12097562Y-14681084D02*
X12049943Y-14681084D01*
X12049943Y-14681084D02*
X12030896Y-14671560D01*
X12030896Y-14671560D02*
X12021372Y-14662036D01*
X12307086Y-14547750D02*
X12307086Y-14681084D01*
X12259467Y-14471560D02*
X12211848Y-14614417D01*
X12211848Y-14614417D02*
X12335657Y-14614417D01*
X12402324Y-14481084D02*
X12402324Y-14519179D01*
X12478515Y-14481084D02*
X12478515Y-14519179D01*
X12773753Y-14757274D02*
X12764229Y-14747750D01*
X12764229Y-14747750D02*
X12745181Y-14719179D01*
X12745181Y-14719179D02*
X12735658Y-14700131D01*
X12735658Y-14700131D02*
X12726134Y-14671560D01*
X12726134Y-14671560D02*
X12716610Y-14623941D01*
X12716610Y-14623941D02*
X12716610Y-14585846D01*
X12716610Y-14585846D02*
X12726134Y-14538227D01*
X12726134Y-14538227D02*
X12735658Y-14509655D01*
X12735658Y-14509655D02*
X12745181Y-14490608D01*
X12745181Y-14490608D02*
X12764229Y-14462036D01*
X12764229Y-14462036D02*
X12773753Y-14452512D01*
X12840419Y-14500131D02*
X12849943Y-14490608D01*
X12849943Y-14490608D02*
X12868991Y-14481084D01*
X12868991Y-14481084D02*
X12916610Y-14481084D01*
X12916610Y-14481084D02*
X12935658Y-14490608D01*
X12935658Y-14490608D02*
X12945181Y-14500131D01*
X12945181Y-14500131D02*
X12954705Y-14519179D01*
X12954705Y-14519179D02*
X12954705Y-14538227D01*
X12954705Y-14538227D02*
X12945181Y-14566798D01*
X12945181Y-14566798D02*
X12830896Y-14681084D01*
X12830896Y-14681084D02*
X12954705Y-14681084D01*
X13192800Y-14681084D02*
X13192800Y-14481084D01*
X13278515Y-14681084D02*
X13278515Y-14576322D01*
X13278515Y-14576322D02*
X13268991Y-14557274D01*
X13268991Y-14557274D02*
X13249943Y-14547750D01*
X13249943Y-14547750D02*
X13221372Y-14547750D01*
X13221372Y-14547750D02*
X13202324Y-14557274D01*
X13202324Y-14557274D02*
X13192800Y-14566798D01*
X13402324Y-14681084D02*
X13383277Y-14671560D01*
X13383277Y-14671560D02*
X13373753Y-14662036D01*
X13373753Y-14662036D02*
X13364229Y-14642988D01*
X13364229Y-14642988D02*
X13364229Y-14585846D01*
X13364229Y-14585846D02*
X13373753Y-14566798D01*
X13373753Y-14566798D02*
X13383277Y-14557274D01*
X13383277Y-14557274D02*
X13402324Y-14547750D01*
X13402324Y-14547750D02*
X13430896Y-14547750D01*
X13430896Y-14547750D02*
X13449943Y-14557274D01*
X13449943Y-14557274D02*
X13459467Y-14566798D01*
X13459467Y-14566798D02*
X13468991Y-14585846D01*
X13468991Y-14585846D02*
X13468991Y-14642988D01*
X13468991Y-14642988D02*
X13459467Y-14662036D01*
X13459467Y-14662036D02*
X13449943Y-14671560D01*
X13449943Y-14671560D02*
X13430896Y-14681084D01*
X13430896Y-14681084D02*
X13402324Y-14681084D01*
X13583277Y-14681084D02*
X13564229Y-14671560D01*
X13564229Y-14671560D02*
X13554705Y-14652512D01*
X13554705Y-14652512D02*
X13554705Y-14481084D01*
X13735658Y-14671560D02*
X13716610Y-14681084D01*
X13716610Y-14681084D02*
X13678515Y-14681084D01*
X13678515Y-14681084D02*
X13659467Y-14671560D01*
X13659467Y-14671560D02*
X13649943Y-14652512D01*
X13649943Y-14652512D02*
X13649943Y-14576322D01*
X13649943Y-14576322D02*
X13659467Y-14557274D01*
X13659467Y-14557274D02*
X13678515Y-14547750D01*
X13678515Y-14547750D02*
X13716610Y-14547750D01*
X13716610Y-14547750D02*
X13735658Y-14557274D01*
X13735658Y-14557274D02*
X13745181Y-14576322D01*
X13745181Y-14576322D02*
X13745181Y-14595369D01*
X13745181Y-14595369D02*
X13649943Y-14614417D01*
X13821372Y-14671560D02*
X13840420Y-14681084D01*
X13840420Y-14681084D02*
X13878515Y-14681084D01*
X13878515Y-14681084D02*
X13897562Y-14671560D01*
X13897562Y-14671560D02*
X13907086Y-14652512D01*
X13907086Y-14652512D02*
X13907086Y-14642988D01*
X13907086Y-14642988D02*
X13897562Y-14623941D01*
X13897562Y-14623941D02*
X13878515Y-14614417D01*
X13878515Y-14614417D02*
X13849943Y-14614417D01*
X13849943Y-14614417D02*
X13830896Y-14604893D01*
X13830896Y-14604893D02*
X13821372Y-14585846D01*
X13821372Y-14585846D02*
X13821372Y-14576322D01*
X13821372Y-14576322D02*
X13830896Y-14557274D01*
X13830896Y-14557274D02*
X13849943Y-14547750D01*
X13849943Y-14547750D02*
X13878515Y-14547750D01*
X13878515Y-14547750D02*
X13897562Y-14557274D01*
X13973753Y-14757274D02*
X13983277Y-14747750D01*
X13983277Y-14747750D02*
X14002324Y-14719179D01*
X14002324Y-14719179D02*
X14011848Y-14700131D01*
X14011848Y-14700131D02*
X14021372Y-14671560D01*
X14021372Y-14671560D02*
X14030896Y-14623941D01*
X14030896Y-14623941D02*
X14030896Y-14585846D01*
X14030896Y-14585846D02*
X14021372Y-14538227D01*
X14021372Y-14538227D02*
X14011848Y-14509655D01*
X14011848Y-14509655D02*
X14002324Y-14490608D01*
X14002324Y-14490608D02*
X13983277Y-14462036D01*
X13983277Y-14462036D02*
X13973753Y-14452512D01*
X14335658Y-14757274D02*
X14326134Y-14747750D01*
X14326134Y-14747750D02*
X14307086Y-14719179D01*
X14307086Y-14719179D02*
X14297562Y-14700131D01*
X14297562Y-14700131D02*
X14288039Y-14671560D01*
X14288039Y-14671560D02*
X14278515Y-14623941D01*
X14278515Y-14623941D02*
X14278515Y-14585846D01*
X14278515Y-14585846D02*
X14288039Y-14538227D01*
X14288039Y-14538227D02*
X14297562Y-14509655D01*
X14297562Y-14509655D02*
X14307086Y-14490608D01*
X14307086Y-14490608D02*
X14326134Y-14462036D01*
X14326134Y-14462036D02*
X14335658Y-14452512D01*
X14411848Y-14547750D02*
X14411848Y-14681084D01*
X14411848Y-14566798D02*
X14421372Y-14557274D01*
X14421372Y-14557274D02*
X14440420Y-14547750D01*
X14440420Y-14547750D02*
X14468991Y-14547750D01*
X14468991Y-14547750D02*
X14488039Y-14557274D01*
X14488039Y-14557274D02*
X14497562Y-14576322D01*
X14497562Y-14576322D02*
X14497562Y-14681084D01*
X14621372Y-14681084D02*
X14602324Y-14671560D01*
X14602324Y-14671560D02*
X14592801Y-14662036D01*
X14592801Y-14662036D02*
X14583277Y-14642988D01*
X14583277Y-14642988D02*
X14583277Y-14585846D01*
X14583277Y-14585846D02*
X14592801Y-14566798D01*
X14592801Y-14566798D02*
X14602324Y-14557274D01*
X14602324Y-14557274D02*
X14621372Y-14547750D01*
X14621372Y-14547750D02*
X14649943Y-14547750D01*
X14649943Y-14547750D02*
X14668991Y-14557274D01*
X14668991Y-14557274D02*
X14678515Y-14566798D01*
X14678515Y-14566798D02*
X14688039Y-14585846D01*
X14688039Y-14585846D02*
X14688039Y-14642988D01*
X14688039Y-14642988D02*
X14678515Y-14662036D01*
X14678515Y-14662036D02*
X14668991Y-14671560D01*
X14668991Y-14671560D02*
X14649943Y-14681084D01*
X14649943Y-14681084D02*
X14621372Y-14681084D01*
X14745182Y-14547750D02*
X14821372Y-14547750D01*
X14773753Y-14481084D02*
X14773753Y-14652512D01*
X14773753Y-14652512D02*
X14783277Y-14671560D01*
X14783277Y-14671560D02*
X14802324Y-14681084D01*
X14802324Y-14681084D02*
X14821372Y-14681084D01*
X15040420Y-14547750D02*
X15040420Y-14747750D01*
X15040420Y-14557274D02*
X15059467Y-14547750D01*
X15059467Y-14547750D02*
X15097563Y-14547750D01*
X15097563Y-14547750D02*
X15116610Y-14557274D01*
X15116610Y-14557274D02*
X15126134Y-14566798D01*
X15126134Y-14566798D02*
X15135658Y-14585846D01*
X15135658Y-14585846D02*
X15135658Y-14642988D01*
X15135658Y-14642988D02*
X15126134Y-14662036D01*
X15126134Y-14662036D02*
X15116610Y-14671560D01*
X15116610Y-14671560D02*
X15097563Y-14681084D01*
X15097563Y-14681084D02*
X15059467Y-14681084D01*
X15059467Y-14681084D02*
X15040420Y-14671560D01*
X15249943Y-14681084D02*
X15230896Y-14671560D01*
X15230896Y-14671560D02*
X15221372Y-14652512D01*
X15221372Y-14652512D02*
X15221372Y-14481084D01*
X15411848Y-14681084D02*
X15411848Y-14576322D01*
X15411848Y-14576322D02*
X15402324Y-14557274D01*
X15402324Y-14557274D02*
X15383277Y-14547750D01*
X15383277Y-14547750D02*
X15345182Y-14547750D01*
X15345182Y-14547750D02*
X15326134Y-14557274D01*
X15411848Y-14671560D02*
X15392801Y-14681084D01*
X15392801Y-14681084D02*
X15345182Y-14681084D01*
X15345182Y-14681084D02*
X15326134Y-14671560D01*
X15326134Y-14671560D02*
X15316610Y-14652512D01*
X15316610Y-14652512D02*
X15316610Y-14633465D01*
X15316610Y-14633465D02*
X15326134Y-14614417D01*
X15326134Y-14614417D02*
X15345182Y-14604893D01*
X15345182Y-14604893D02*
X15392801Y-14604893D01*
X15392801Y-14604893D02*
X15411848Y-14595369D01*
X15478515Y-14547750D02*
X15554705Y-14547750D01*
X15507086Y-14481084D02*
X15507086Y-14652512D01*
X15507086Y-14652512D02*
X15516610Y-14671560D01*
X15516610Y-14671560D02*
X15535658Y-14681084D01*
X15535658Y-14681084D02*
X15554705Y-14681084D01*
X15697563Y-14671560D02*
X15678515Y-14681084D01*
X15678515Y-14681084D02*
X15640420Y-14681084D01*
X15640420Y-14681084D02*
X15621372Y-14671560D01*
X15621372Y-14671560D02*
X15611848Y-14652512D01*
X15611848Y-14652512D02*
X15611848Y-14576322D01*
X15611848Y-14576322D02*
X15621372Y-14557274D01*
X15621372Y-14557274D02*
X15640420Y-14547750D01*
X15640420Y-14547750D02*
X15678515Y-14547750D01*
X15678515Y-14547750D02*
X15697563Y-14557274D01*
X15697563Y-14557274D02*
X15707086Y-14576322D01*
X15707086Y-14576322D02*
X15707086Y-14595369D01*
X15707086Y-14595369D02*
X15611848Y-14614417D01*
X15878515Y-14681084D02*
X15878515Y-14481084D01*
X15878515Y-14671560D02*
X15859467Y-14681084D01*
X15859467Y-14681084D02*
X15821372Y-14681084D01*
X15821372Y-14681084D02*
X15802324Y-14671560D01*
X15802324Y-14671560D02*
X15792801Y-14662036D01*
X15792801Y-14662036D02*
X15783277Y-14642988D01*
X15783277Y-14642988D02*
X15783277Y-14585846D01*
X15783277Y-14585846D02*
X15792801Y-14566798D01*
X15792801Y-14566798D02*
X15802324Y-14557274D01*
X15802324Y-14557274D02*
X15821372Y-14547750D01*
X15821372Y-14547750D02*
X15859467Y-14547750D01*
X15859467Y-14547750D02*
X15878515Y-14557274D01*
X15954705Y-14757274D02*
X15964229Y-14747750D01*
X15964229Y-14747750D02*
X15983277Y-14719179D01*
X15983277Y-14719179D02*
X15992801Y-14700131D01*
X15992801Y-14700131D02*
X16002324Y-14671560D01*
X16002324Y-14671560D02*
X16011848Y-14623941D01*
X16011848Y-14623941D02*
X16011848Y-14585846D01*
X16011848Y-14585846D02*
X16002324Y-14538227D01*
X16002324Y-14538227D02*
X15992801Y-14509655D01*
X15992801Y-14509655D02*
X15983277Y-14490608D01*
X15983277Y-14490608D02*
X15964229Y-14462036D01*
X15964229Y-14462036D02*
X15954705Y-14452512D01*
D13*
X9198690Y-14853600D02*
G75*
G03*
X9198690Y-14853600I-69850J0D01*
G01*
D11*
X9564229Y-14945084D02*
X9449943Y-14945084D01*
X9507086Y-14945084D02*
X9507086Y-14745084D01*
X9507086Y-14745084D02*
X9488038Y-14773655D01*
X9488038Y-14773655D02*
X9468991Y-14792703D01*
X9468991Y-14792703D02*
X9449943Y-14802227D01*
X9649943Y-14926036D02*
X9659467Y-14935560D01*
X9659467Y-14935560D02*
X9649943Y-14945084D01*
X9649943Y-14945084D02*
X9640419Y-14935560D01*
X9640419Y-14935560D02*
X9649943Y-14926036D01*
X9649943Y-14926036D02*
X9649943Y-14945084D01*
X9726134Y-14745084D02*
X9849943Y-14745084D01*
X9849943Y-14745084D02*
X9783276Y-14821274D01*
X9783276Y-14821274D02*
X9811848Y-14821274D01*
X9811848Y-14821274D02*
X9830895Y-14830798D01*
X9830895Y-14830798D02*
X9840419Y-14840322D01*
X9840419Y-14840322D02*
X9849943Y-14859369D01*
X9849943Y-14859369D02*
X9849943Y-14906988D01*
X9849943Y-14906988D02*
X9840419Y-14926036D01*
X9840419Y-14926036D02*
X9830895Y-14935560D01*
X9830895Y-14935560D02*
X9811848Y-14945084D01*
X9811848Y-14945084D02*
X9754705Y-14945084D01*
X9754705Y-14945084D02*
X9735657Y-14935560D01*
X9735657Y-14935560D02*
X9726134Y-14926036D01*
X9945181Y-14945084D02*
X9983276Y-14945084D01*
X9983276Y-14945084D02*
X10002324Y-14935560D01*
X10002324Y-14935560D02*
X10011848Y-14926036D01*
X10011848Y-14926036D02*
X10030895Y-14897465D01*
X10030895Y-14897465D02*
X10040419Y-14859369D01*
X10040419Y-14859369D02*
X10040419Y-14783179D01*
X10040419Y-14783179D02*
X10030895Y-14764131D01*
X10030895Y-14764131D02*
X10021372Y-14754608D01*
X10021372Y-14754608D02*
X10002324Y-14745084D01*
X10002324Y-14745084D02*
X9964229Y-14745084D01*
X9964229Y-14745084D02*
X9945181Y-14754608D01*
X9945181Y-14754608D02*
X9935657Y-14764131D01*
X9935657Y-14764131D02*
X9926134Y-14783179D01*
X9926134Y-14783179D02*
X9926134Y-14830798D01*
X9926134Y-14830798D02*
X9935657Y-14849846D01*
X9935657Y-14849846D02*
X9945181Y-14859369D01*
X9945181Y-14859369D02*
X9964229Y-14868893D01*
X9964229Y-14868893D02*
X10002324Y-14868893D01*
X10002324Y-14868893D02*
X10021372Y-14859369D01*
X10021372Y-14859369D02*
X10030895Y-14849846D01*
X10030895Y-14849846D02*
X10040419Y-14830798D01*
X10107086Y-14745084D02*
X10240419Y-14745084D01*
X10240419Y-14745084D02*
X10154705Y-14945084D01*
X10316610Y-14945084D02*
X10316610Y-14811750D01*
X10316610Y-14830798D02*
X10326134Y-14821274D01*
X10326134Y-14821274D02*
X10345181Y-14811750D01*
X10345181Y-14811750D02*
X10373753Y-14811750D01*
X10373753Y-14811750D02*
X10392800Y-14821274D01*
X10392800Y-14821274D02*
X10402324Y-14840322D01*
X10402324Y-14840322D02*
X10402324Y-14945084D01*
X10402324Y-14840322D02*
X10411848Y-14821274D01*
X10411848Y-14821274D02*
X10430895Y-14811750D01*
X10430895Y-14811750D02*
X10459467Y-14811750D01*
X10459467Y-14811750D02*
X10478515Y-14821274D01*
X10478515Y-14821274D02*
X10488038Y-14840322D01*
X10488038Y-14840322D02*
X10488038Y-14945084D01*
X10583276Y-14945084D02*
X10583276Y-14811750D01*
X10583276Y-14830798D02*
X10592800Y-14821274D01*
X10592800Y-14821274D02*
X10611848Y-14811750D01*
X10611848Y-14811750D02*
X10640419Y-14811750D01*
X10640419Y-14811750D02*
X10659467Y-14821274D01*
X10659467Y-14821274D02*
X10668991Y-14840322D01*
X10668991Y-14840322D02*
X10668991Y-14945084D01*
X10668991Y-14840322D02*
X10678515Y-14821274D01*
X10678515Y-14821274D02*
X10697562Y-14811750D01*
X10697562Y-14811750D02*
X10726134Y-14811750D01*
X10726134Y-14811750D02*
X10745181Y-14821274D01*
X10745181Y-14821274D02*
X10754705Y-14840322D01*
X10754705Y-14840322D02*
X10754705Y-14945084D01*
X11145181Y-14735560D02*
X10973753Y-14992703D01*
X11402324Y-14745084D02*
X11421372Y-14745084D01*
X11421372Y-14745084D02*
X11440419Y-14754608D01*
X11440419Y-14754608D02*
X11449943Y-14764131D01*
X11449943Y-14764131D02*
X11459467Y-14783179D01*
X11459467Y-14783179D02*
X11468991Y-14821274D01*
X11468991Y-14821274D02*
X11468991Y-14868893D01*
X11468991Y-14868893D02*
X11459467Y-14906988D01*
X11459467Y-14906988D02*
X11449943Y-14926036D01*
X11449943Y-14926036D02*
X11440419Y-14935560D01*
X11440419Y-14935560D02*
X11421372Y-14945084D01*
X11421372Y-14945084D02*
X11402324Y-14945084D01*
X11402324Y-14945084D02*
X11383276Y-14935560D01*
X11383276Y-14935560D02*
X11373753Y-14926036D01*
X11373753Y-14926036D02*
X11364229Y-14906988D01*
X11364229Y-14906988D02*
X11354705Y-14868893D01*
X11354705Y-14868893D02*
X11354705Y-14821274D01*
X11354705Y-14821274D02*
X11364229Y-14783179D01*
X11364229Y-14783179D02*
X11373753Y-14764131D01*
X11373753Y-14764131D02*
X11383276Y-14754608D01*
X11383276Y-14754608D02*
X11402324Y-14745084D01*
X11554705Y-14926036D02*
X11564229Y-14935560D01*
X11564229Y-14935560D02*
X11554705Y-14945084D01*
X11554705Y-14945084D02*
X11545181Y-14935560D01*
X11545181Y-14935560D02*
X11554705Y-14926036D01*
X11554705Y-14926036D02*
X11554705Y-14945084D01*
X11688038Y-14745084D02*
X11707086Y-14745084D01*
X11707086Y-14745084D02*
X11726134Y-14754608D01*
X11726134Y-14754608D02*
X11735657Y-14764131D01*
X11735657Y-14764131D02*
X11745181Y-14783179D01*
X11745181Y-14783179D02*
X11754705Y-14821274D01*
X11754705Y-14821274D02*
X11754705Y-14868893D01*
X11754705Y-14868893D02*
X11745181Y-14906988D01*
X11745181Y-14906988D02*
X11735657Y-14926036D01*
X11735657Y-14926036D02*
X11726134Y-14935560D01*
X11726134Y-14935560D02*
X11707086Y-14945084D01*
X11707086Y-14945084D02*
X11688038Y-14945084D01*
X11688038Y-14945084D02*
X11668991Y-14935560D01*
X11668991Y-14935560D02*
X11659467Y-14926036D01*
X11659467Y-14926036D02*
X11649943Y-14906988D01*
X11649943Y-14906988D02*
X11640419Y-14868893D01*
X11640419Y-14868893D02*
X11640419Y-14821274D01*
X11640419Y-14821274D02*
X11649943Y-14783179D01*
X11649943Y-14783179D02*
X11659467Y-14764131D01*
X11659467Y-14764131D02*
X11668991Y-14754608D01*
X11668991Y-14754608D02*
X11688038Y-14745084D01*
X11935657Y-14745084D02*
X11840419Y-14745084D01*
X11840419Y-14745084D02*
X11830896Y-14840322D01*
X11830896Y-14840322D02*
X11840419Y-14830798D01*
X11840419Y-14830798D02*
X11859467Y-14821274D01*
X11859467Y-14821274D02*
X11907086Y-14821274D01*
X11907086Y-14821274D02*
X11926134Y-14830798D01*
X11926134Y-14830798D02*
X11935657Y-14840322D01*
X11935657Y-14840322D02*
X11945181Y-14859369D01*
X11945181Y-14859369D02*
X11945181Y-14906988D01*
X11945181Y-14906988D02*
X11935657Y-14926036D01*
X11935657Y-14926036D02*
X11926134Y-14935560D01*
X11926134Y-14935560D02*
X11907086Y-14945084D01*
X11907086Y-14945084D02*
X11859467Y-14945084D01*
X11859467Y-14945084D02*
X11840419Y-14935560D01*
X11840419Y-14935560D02*
X11830896Y-14926036D01*
X12126134Y-14745084D02*
X12030896Y-14745084D01*
X12030896Y-14745084D02*
X12021372Y-14840322D01*
X12021372Y-14840322D02*
X12030896Y-14830798D01*
X12030896Y-14830798D02*
X12049943Y-14821274D01*
X12049943Y-14821274D02*
X12097562Y-14821274D01*
X12097562Y-14821274D02*
X12116610Y-14830798D01*
X12116610Y-14830798D02*
X12126134Y-14840322D01*
X12126134Y-14840322D02*
X12135657Y-14859369D01*
X12135657Y-14859369D02*
X12135657Y-14906988D01*
X12135657Y-14906988D02*
X12126134Y-14926036D01*
X12126134Y-14926036D02*
X12116610Y-14935560D01*
X12116610Y-14935560D02*
X12097562Y-14945084D01*
X12097562Y-14945084D02*
X12049943Y-14945084D01*
X12049943Y-14945084D02*
X12030896Y-14935560D01*
X12030896Y-14935560D02*
X12021372Y-14926036D01*
X12259467Y-14745084D02*
X12278515Y-14745084D01*
X12278515Y-14745084D02*
X12297562Y-14754608D01*
X12297562Y-14754608D02*
X12307086Y-14764131D01*
X12307086Y-14764131D02*
X12316610Y-14783179D01*
X12316610Y-14783179D02*
X12326134Y-14821274D01*
X12326134Y-14821274D02*
X12326134Y-14868893D01*
X12326134Y-14868893D02*
X12316610Y-14906988D01*
X12316610Y-14906988D02*
X12307086Y-14926036D01*
X12307086Y-14926036D02*
X12297562Y-14935560D01*
X12297562Y-14935560D02*
X12278515Y-14945084D01*
X12278515Y-14945084D02*
X12259467Y-14945084D01*
X12259467Y-14945084D02*
X12240419Y-14935560D01*
X12240419Y-14935560D02*
X12230896Y-14926036D01*
X12230896Y-14926036D02*
X12221372Y-14906988D01*
X12221372Y-14906988D02*
X12211848Y-14868893D01*
X12211848Y-14868893D02*
X12211848Y-14821274D01*
X12211848Y-14821274D02*
X12221372Y-14783179D01*
X12221372Y-14783179D02*
X12230896Y-14764131D01*
X12230896Y-14764131D02*
X12240419Y-14754608D01*
X12240419Y-14754608D02*
X12259467Y-14745084D01*
X12402324Y-14745084D02*
X12402324Y-14783179D01*
X12478515Y-14745084D02*
X12478515Y-14783179D01*
X12773753Y-15021274D02*
X12764229Y-15011750D01*
X12764229Y-15011750D02*
X12745181Y-14983179D01*
X12745181Y-14983179D02*
X12735658Y-14964131D01*
X12735658Y-14964131D02*
X12726134Y-14935560D01*
X12726134Y-14935560D02*
X12716610Y-14887941D01*
X12716610Y-14887941D02*
X12716610Y-14849846D01*
X12716610Y-14849846D02*
X12726134Y-14802227D01*
X12726134Y-14802227D02*
X12735658Y-14773655D01*
X12735658Y-14773655D02*
X12745181Y-14754608D01*
X12745181Y-14754608D02*
X12764229Y-14726036D01*
X12764229Y-14726036D02*
X12773753Y-14716512D01*
X12840419Y-14764131D02*
X12849943Y-14754608D01*
X12849943Y-14754608D02*
X12868991Y-14745084D01*
X12868991Y-14745084D02*
X12916610Y-14745084D01*
X12916610Y-14745084D02*
X12935658Y-14754608D01*
X12935658Y-14754608D02*
X12945181Y-14764131D01*
X12945181Y-14764131D02*
X12954705Y-14783179D01*
X12954705Y-14783179D02*
X12954705Y-14802227D01*
X12954705Y-14802227D02*
X12945181Y-14830798D01*
X12945181Y-14830798D02*
X12830896Y-14945084D01*
X12830896Y-14945084D02*
X12954705Y-14945084D01*
X13192800Y-14945084D02*
X13192800Y-14745084D01*
X13278515Y-14945084D02*
X13278515Y-14840322D01*
X13278515Y-14840322D02*
X13268991Y-14821274D01*
X13268991Y-14821274D02*
X13249943Y-14811750D01*
X13249943Y-14811750D02*
X13221372Y-14811750D01*
X13221372Y-14811750D02*
X13202324Y-14821274D01*
X13202324Y-14821274D02*
X13192800Y-14830798D01*
X13402324Y-14945084D02*
X13383277Y-14935560D01*
X13383277Y-14935560D02*
X13373753Y-14926036D01*
X13373753Y-14926036D02*
X13364229Y-14906988D01*
X13364229Y-14906988D02*
X13364229Y-14849846D01*
X13364229Y-14849846D02*
X13373753Y-14830798D01*
X13373753Y-14830798D02*
X13383277Y-14821274D01*
X13383277Y-14821274D02*
X13402324Y-14811750D01*
X13402324Y-14811750D02*
X13430896Y-14811750D01*
X13430896Y-14811750D02*
X13449943Y-14821274D01*
X13449943Y-14821274D02*
X13459467Y-14830798D01*
X13459467Y-14830798D02*
X13468991Y-14849846D01*
X13468991Y-14849846D02*
X13468991Y-14906988D01*
X13468991Y-14906988D02*
X13459467Y-14926036D01*
X13459467Y-14926036D02*
X13449943Y-14935560D01*
X13449943Y-14935560D02*
X13430896Y-14945084D01*
X13430896Y-14945084D02*
X13402324Y-14945084D01*
X13583277Y-14945084D02*
X13564229Y-14935560D01*
X13564229Y-14935560D02*
X13554705Y-14916512D01*
X13554705Y-14916512D02*
X13554705Y-14745084D01*
X13735658Y-14935560D02*
X13716610Y-14945084D01*
X13716610Y-14945084D02*
X13678515Y-14945084D01*
X13678515Y-14945084D02*
X13659467Y-14935560D01*
X13659467Y-14935560D02*
X13649943Y-14916512D01*
X13649943Y-14916512D02*
X13649943Y-14840322D01*
X13649943Y-14840322D02*
X13659467Y-14821274D01*
X13659467Y-14821274D02*
X13678515Y-14811750D01*
X13678515Y-14811750D02*
X13716610Y-14811750D01*
X13716610Y-14811750D02*
X13735658Y-14821274D01*
X13735658Y-14821274D02*
X13745181Y-14840322D01*
X13745181Y-14840322D02*
X13745181Y-14859369D01*
X13745181Y-14859369D02*
X13649943Y-14878417D01*
X13821372Y-14935560D02*
X13840420Y-14945084D01*
X13840420Y-14945084D02*
X13878515Y-14945084D01*
X13878515Y-14945084D02*
X13897562Y-14935560D01*
X13897562Y-14935560D02*
X13907086Y-14916512D01*
X13907086Y-14916512D02*
X13907086Y-14906988D01*
X13907086Y-14906988D02*
X13897562Y-14887941D01*
X13897562Y-14887941D02*
X13878515Y-14878417D01*
X13878515Y-14878417D02*
X13849943Y-14878417D01*
X13849943Y-14878417D02*
X13830896Y-14868893D01*
X13830896Y-14868893D02*
X13821372Y-14849846D01*
X13821372Y-14849846D02*
X13821372Y-14840322D01*
X13821372Y-14840322D02*
X13830896Y-14821274D01*
X13830896Y-14821274D02*
X13849943Y-14811750D01*
X13849943Y-14811750D02*
X13878515Y-14811750D01*
X13878515Y-14811750D02*
X13897562Y-14821274D01*
X13973753Y-15021274D02*
X13983277Y-15011750D01*
X13983277Y-15011750D02*
X14002324Y-14983179D01*
X14002324Y-14983179D02*
X14011848Y-14964131D01*
X14011848Y-14964131D02*
X14021372Y-14935560D01*
X14021372Y-14935560D02*
X14030896Y-14887941D01*
X14030896Y-14887941D02*
X14030896Y-14849846D01*
X14030896Y-14849846D02*
X14021372Y-14802227D01*
X14021372Y-14802227D02*
X14011848Y-14773655D01*
X14011848Y-14773655D02*
X14002324Y-14754608D01*
X14002324Y-14754608D02*
X13983277Y-14726036D01*
X13983277Y-14726036D02*
X13973753Y-14716512D01*
X14335658Y-15021274D02*
X14326134Y-15011750D01*
X14326134Y-15011750D02*
X14307086Y-14983179D01*
X14307086Y-14983179D02*
X14297562Y-14964131D01*
X14297562Y-14964131D02*
X14288039Y-14935560D01*
X14288039Y-14935560D02*
X14278515Y-14887941D01*
X14278515Y-14887941D02*
X14278515Y-14849846D01*
X14278515Y-14849846D02*
X14288039Y-14802227D01*
X14288039Y-14802227D02*
X14297562Y-14773655D01*
X14297562Y-14773655D02*
X14307086Y-14754608D01*
X14307086Y-14754608D02*
X14326134Y-14726036D01*
X14326134Y-14726036D02*
X14335658Y-14716512D01*
X14411848Y-14811750D02*
X14411848Y-14945084D01*
X14411848Y-14830798D02*
X14421372Y-14821274D01*
X14421372Y-14821274D02*
X14440420Y-14811750D01*
X14440420Y-14811750D02*
X14468991Y-14811750D01*
X14468991Y-14811750D02*
X14488039Y-14821274D01*
X14488039Y-14821274D02*
X14497562Y-14840322D01*
X14497562Y-14840322D02*
X14497562Y-14945084D01*
X14621372Y-14945084D02*
X14602324Y-14935560D01*
X14602324Y-14935560D02*
X14592801Y-14926036D01*
X14592801Y-14926036D02*
X14583277Y-14906988D01*
X14583277Y-14906988D02*
X14583277Y-14849846D01*
X14583277Y-14849846D02*
X14592801Y-14830798D01*
X14592801Y-14830798D02*
X14602324Y-14821274D01*
X14602324Y-14821274D02*
X14621372Y-14811750D01*
X14621372Y-14811750D02*
X14649943Y-14811750D01*
X14649943Y-14811750D02*
X14668991Y-14821274D01*
X14668991Y-14821274D02*
X14678515Y-14830798D01*
X14678515Y-14830798D02*
X14688039Y-14849846D01*
X14688039Y-14849846D02*
X14688039Y-14906988D01*
X14688039Y-14906988D02*
X14678515Y-14926036D01*
X14678515Y-14926036D02*
X14668991Y-14935560D01*
X14668991Y-14935560D02*
X14649943Y-14945084D01*
X14649943Y-14945084D02*
X14621372Y-14945084D01*
X14745182Y-14811750D02*
X14821372Y-14811750D01*
X14773753Y-14745084D02*
X14773753Y-14916512D01*
X14773753Y-14916512D02*
X14783277Y-14935560D01*
X14783277Y-14935560D02*
X14802324Y-14945084D01*
X14802324Y-14945084D02*
X14821372Y-14945084D01*
X15040420Y-14811750D02*
X15040420Y-15011750D01*
X15040420Y-14821274D02*
X15059467Y-14811750D01*
X15059467Y-14811750D02*
X15097563Y-14811750D01*
X15097563Y-14811750D02*
X15116610Y-14821274D01*
X15116610Y-14821274D02*
X15126134Y-14830798D01*
X15126134Y-14830798D02*
X15135658Y-14849846D01*
X15135658Y-14849846D02*
X15135658Y-14906988D01*
X15135658Y-14906988D02*
X15126134Y-14926036D01*
X15126134Y-14926036D02*
X15116610Y-14935560D01*
X15116610Y-14935560D02*
X15097563Y-14945084D01*
X15097563Y-14945084D02*
X15059467Y-14945084D01*
X15059467Y-14945084D02*
X15040420Y-14935560D01*
X15249943Y-14945084D02*
X15230896Y-14935560D01*
X15230896Y-14935560D02*
X15221372Y-14916512D01*
X15221372Y-14916512D02*
X15221372Y-14745084D01*
X15411848Y-14945084D02*
X15411848Y-14840322D01*
X15411848Y-14840322D02*
X15402324Y-14821274D01*
X15402324Y-14821274D02*
X15383277Y-14811750D01*
X15383277Y-14811750D02*
X15345182Y-14811750D01*
X15345182Y-14811750D02*
X15326134Y-14821274D01*
X15411848Y-14935560D02*
X15392801Y-14945084D01*
X15392801Y-14945084D02*
X15345182Y-14945084D01*
X15345182Y-14945084D02*
X15326134Y-14935560D01*
X15326134Y-14935560D02*
X15316610Y-14916512D01*
X15316610Y-14916512D02*
X15316610Y-14897465D01*
X15316610Y-14897465D02*
X15326134Y-14878417D01*
X15326134Y-14878417D02*
X15345182Y-14868893D01*
X15345182Y-14868893D02*
X15392801Y-14868893D01*
X15392801Y-14868893D02*
X15411848Y-14859369D01*
X15478515Y-14811750D02*
X15554705Y-14811750D01*
X15507086Y-14745084D02*
X15507086Y-14916512D01*
X15507086Y-14916512D02*
X15516610Y-14935560D01*
X15516610Y-14935560D02*
X15535658Y-14945084D01*
X15535658Y-14945084D02*
X15554705Y-14945084D01*
X15697563Y-14935560D02*
X15678515Y-14945084D01*
X15678515Y-14945084D02*
X15640420Y-14945084D01*
X15640420Y-14945084D02*
X15621372Y-14935560D01*
X15621372Y-14935560D02*
X15611848Y-14916512D01*
X15611848Y-14916512D02*
X15611848Y-14840322D01*
X15611848Y-14840322D02*
X15621372Y-14821274D01*
X15621372Y-14821274D02*
X15640420Y-14811750D01*
X15640420Y-14811750D02*
X15678515Y-14811750D01*
X15678515Y-14811750D02*
X15697563Y-14821274D01*
X15697563Y-14821274D02*
X15707086Y-14840322D01*
X15707086Y-14840322D02*
X15707086Y-14859369D01*
X15707086Y-14859369D02*
X15611848Y-14878417D01*
X15878515Y-14945084D02*
X15878515Y-14745084D01*
X15878515Y-14935560D02*
X15859467Y-14945084D01*
X15859467Y-14945084D02*
X15821372Y-14945084D01*
X15821372Y-14945084D02*
X15802324Y-14935560D01*
X15802324Y-14935560D02*
X15792801Y-14926036D01*
X15792801Y-14926036D02*
X15783277Y-14906988D01*
X15783277Y-14906988D02*
X15783277Y-14849846D01*
X15783277Y-14849846D02*
X15792801Y-14830798D01*
X15792801Y-14830798D02*
X15802324Y-14821274D01*
X15802324Y-14821274D02*
X15821372Y-14811750D01*
X15821372Y-14811750D02*
X15859467Y-14811750D01*
X15859467Y-14811750D02*
X15878515Y-14821274D01*
X15954705Y-15021274D02*
X15964229Y-15011750D01*
X15964229Y-15011750D02*
X15983277Y-14983179D01*
X15983277Y-14983179D02*
X15992801Y-14964131D01*
X15992801Y-14964131D02*
X16002324Y-14935560D01*
X16002324Y-14935560D02*
X16011848Y-14887941D01*
X16011848Y-14887941D02*
X16011848Y-14849846D01*
X16011848Y-14849846D02*
X16002324Y-14802227D01*
X16002324Y-14802227D02*
X15992801Y-14773655D01*
X15992801Y-14773655D02*
X15983277Y-14754608D01*
X15983277Y-14754608D02*
X15964229Y-14726036D01*
X15964229Y-14726036D02*
X15954705Y-14716512D01*
M02*
