G04 #@! TF.GenerationSoftware,KiCad,Pcbnew,7.0.2-6a45011f42~172~ubuntu22.04.1*
G04 #@! TF.CreationDate,2023-05-16T12:27:11+02:00*
G04 #@! TF.ProjectId,AS3397_proto_DIP,41533333-3937-45f7-9072-6f746f5f4449,rev?*
G04 #@! TF.SameCoordinates,Original*
G04 #@! TF.FileFunction,Copper,L1,Top*
G04 #@! TF.FilePolarity,Positive*
%FSLAX46Y46*%
G04 Gerber Fmt 4.6, Leading zero omitted, Abs format (unit mm)*
G04 Created by KiCad (PCBNEW 7.0.2-6a45011f42~172~ubuntu22.04.1) date 2023-05-16 12:27:11*
%MOMM*%
%LPD*%
G01*
G04 APERTURE LIST*
G04 Aperture macros list*
%AMRoundRect*
0 Rectangle with rounded corners*
0 $1 Rounding radius*
0 $2 $3 $4 $5 $6 $7 $8 $9 X,Y pos of 4 corners*
0 Add a 4 corners polygon primitive as box body*
4,1,4,$2,$3,$4,$5,$6,$7,$8,$9,$2,$3,0*
0 Add four circle primitives for the rounded corners*
1,1,$1+$1,$2,$3*
1,1,$1+$1,$4,$5*
1,1,$1+$1,$6,$7*
1,1,$1+$1,$8,$9*
0 Add four rect primitives between the rounded corners*
20,1,$1+$1,$2,$3,$4,$5,0*
20,1,$1+$1,$4,$5,$6,$7,0*
20,1,$1+$1,$6,$7,$8,$9,0*
20,1,$1+$1,$8,$9,$2,$3,0*%
G04 Aperture macros list end*
G04 #@! TA.AperFunction,ComponentPad*
%ADD10C,3.600000*%
G04 #@! TD*
G04 #@! TA.AperFunction,ConnectorPad*
%ADD11C,5.600000*%
G04 #@! TD*
G04 #@! TA.AperFunction,ComponentPad*
%ADD12O,1.700000X1.700000*%
G04 #@! TD*
G04 #@! TA.AperFunction,SMDPad,CuDef*
%ADD13R,3.500000X1.700000*%
G04 #@! TD*
G04 #@! TA.AperFunction,ComponentPad*
%ADD14R,1.700000X1.700000*%
G04 #@! TD*
G04 #@! TA.AperFunction,ComponentPad*
%ADD15O,2.500000X1.500000*%
G04 #@! TD*
G04 #@! TA.AperFunction,ComponentPad*
%ADD16R,1.500000X1.500000*%
G04 #@! TD*
G04 #@! TA.AperFunction,ComponentPad*
%ADD17C,1.500000*%
G04 #@! TD*
G04 #@! TA.AperFunction,ComponentPad*
%ADD18C,1.600000*%
G04 #@! TD*
G04 #@! TA.AperFunction,ComponentPad*
%ADD19R,1.600000X1.600000*%
G04 #@! TD*
G04 #@! TA.AperFunction,ComponentPad*
%ADD20C,1.400000*%
G04 #@! TD*
G04 #@! TA.AperFunction,ComponentPad*
%ADD21O,1.400000X1.400000*%
G04 #@! TD*
G04 #@! TA.AperFunction,ComponentPad*
%ADD22R,2.400000X1.600000*%
G04 #@! TD*
G04 #@! TA.AperFunction,ComponentPad*
%ADD23O,2.400000X1.600000*%
G04 #@! TD*
G04 #@! TA.AperFunction,ComponentPad*
%ADD24R,3.500000X3.500000*%
G04 #@! TD*
G04 #@! TA.AperFunction,ComponentPad*
%ADD25RoundRect,0.750000X-0.750000X-1.000000X0.750000X-1.000000X0.750000X1.000000X-0.750000X1.000000X0*%
G04 #@! TD*
G04 #@! TA.AperFunction,ComponentPad*
%ADD26RoundRect,0.875000X-0.875000X-0.875000X0.875000X-0.875000X0.875000X0.875000X-0.875000X0.875000X0*%
G04 #@! TD*
G04 #@! TA.AperFunction,ComponentPad*
%ADD27O,1.600000X1.600000*%
G04 #@! TD*
G04 #@! TA.AperFunction,ComponentPad*
%ADD28O,2.200000X4.000000*%
G04 #@! TD*
G04 #@! TA.AperFunction,ComponentPad*
%ADD29R,4.000000X2.200000*%
G04 #@! TD*
G04 #@! TA.AperFunction,ComponentPad*
%ADD30O,4.000000X2.200000*%
G04 #@! TD*
G04 #@! TA.AperFunction,ComponentPad*
%ADD31R,1.524000X1.524000*%
G04 #@! TD*
G04 #@! TA.AperFunction,ComponentPad*
%ADD32C,1.524000*%
G04 #@! TD*
G04 #@! TA.AperFunction,ComponentPad*
%ADD33R,2.000000X1.905000*%
G04 #@! TD*
G04 #@! TA.AperFunction,ComponentPad*
%ADD34O,2.000000X1.905000*%
G04 #@! TD*
G04 #@! TA.AperFunction,WasherPad*
%ADD35C,2.499360*%
G04 #@! TD*
G04 #@! TA.AperFunction,ComponentPad*
%ADD36C,2.499360*%
G04 #@! TD*
G04 #@! TA.AperFunction,ViaPad*
%ADD37C,1.200000*%
G04 #@! TD*
G04 #@! TA.AperFunction,Conductor*
%ADD38C,0.500000*%
G04 #@! TD*
G04 APERTURE END LIST*
D10*
X213360000Y-138430000D03*
D11*
X213360000Y-138430000D03*
D10*
X55880000Y-138430000D03*
D11*
X55880000Y-138430000D03*
D10*
X213360000Y-49530000D03*
D11*
X213360000Y-49530000D03*
D10*
X55880000Y-49530000D03*
D11*
X55880000Y-49530000D03*
D12*
X115555000Y-127000000D03*
D13*
X116455000Y-127000000D03*
D12*
X115555000Y-124460000D03*
D13*
X116455000Y-124460000D03*
D14*
X115555000Y-121920000D03*
D13*
X116455000Y-121920000D03*
D12*
X115555000Y-119380000D03*
D13*
X116455000Y-119380000D03*
D12*
X115555000Y-116840000D03*
D13*
X116455000Y-116840000D03*
D12*
X115555000Y-114300000D03*
D13*
X116455000Y-114300000D03*
D12*
X115555000Y-111760000D03*
D13*
X116455000Y-111760000D03*
D14*
X115555000Y-109220000D03*
D13*
X116455000Y-109220000D03*
D12*
X115555000Y-106680000D03*
D13*
X116455000Y-106680000D03*
D12*
X115555000Y-104140000D03*
D13*
X116455000Y-104140000D03*
D12*
X115555000Y-101600000D03*
D13*
X116455000Y-101600000D03*
D12*
X115555000Y-99060000D03*
D13*
X116455000Y-99060000D03*
D14*
X115555000Y-96520000D03*
D13*
X116455000Y-96520000D03*
D12*
X115555000Y-93980000D03*
D13*
X116455000Y-93980000D03*
D12*
X115555000Y-91440000D03*
D13*
X116455000Y-91440000D03*
D12*
X115555000Y-88900000D03*
D13*
X116455000Y-88900000D03*
D12*
X115555000Y-86360000D03*
D13*
X116455000Y-86360000D03*
D14*
X115555000Y-83820000D03*
D13*
X116455000Y-83820000D03*
D12*
X115555000Y-81280000D03*
D13*
X116455000Y-81280000D03*
D12*
X115555000Y-78740000D03*
D13*
X116455000Y-78740000D03*
D12*
X97775000Y-78740000D03*
D13*
X96875000Y-78740000D03*
D12*
X97775000Y-81280000D03*
D13*
X96875000Y-81280000D03*
D14*
X97775000Y-83820000D03*
D13*
X96875000Y-83820000D03*
D12*
X97775000Y-86360000D03*
D13*
X96875000Y-86360000D03*
D15*
X97775000Y-88900000D03*
D13*
X96875000Y-88900000D03*
D15*
X97775000Y-91440000D03*
D13*
X96875000Y-91440000D03*
D12*
X97775000Y-93980000D03*
D13*
X96875000Y-93980000D03*
D14*
X97775000Y-96520000D03*
D13*
X96875000Y-96520000D03*
D12*
X97775000Y-99060000D03*
D13*
X96875000Y-99060000D03*
D12*
X97775000Y-101600000D03*
D13*
X96875000Y-101600000D03*
D12*
X97775000Y-104140000D03*
D13*
X96875000Y-104140000D03*
D12*
X97775000Y-106680000D03*
D13*
X96875000Y-106680000D03*
D14*
X97775000Y-109220000D03*
D13*
X96875000Y-109220000D03*
D12*
X97775000Y-111760000D03*
D13*
X96875000Y-111760000D03*
D12*
X97775000Y-114300000D03*
D13*
X96875000Y-114300000D03*
D12*
X97775000Y-116840000D03*
D13*
X96875000Y-116840000D03*
D12*
X97775000Y-119380000D03*
D13*
X96875000Y-119380000D03*
D14*
X97775000Y-121920000D03*
D13*
X96875000Y-121920000D03*
D12*
X97775000Y-124460000D03*
D13*
X96875000Y-124460000D03*
D12*
X97775000Y-127000000D03*
D13*
X96875000Y-127000000D03*
D16*
X145796000Y-97028000D03*
D17*
X148336000Y-99568000D03*
X145796000Y-102108000D03*
D18*
X180928000Y-90170000D03*
X185928000Y-90170000D03*
X132588000Y-114260000D03*
X132588000Y-109260000D03*
X185913000Y-70184000D03*
X185913000Y-75184000D03*
D19*
X93980000Y-62205000D03*
D18*
X93980000Y-59705000D03*
D20*
X123175000Y-86360000D03*
D21*
X130795000Y-86360000D03*
D20*
X127254000Y-132080000D03*
D21*
X127254000Y-139700000D03*
D20*
X62738000Y-81280000D03*
D21*
X55118000Y-81280000D03*
D20*
X189245000Y-132080000D03*
D21*
X196865000Y-132080000D03*
D20*
X207518000Y-71882000D03*
D21*
X215138000Y-71882000D03*
D20*
X123952000Y-106680000D03*
D21*
X123952000Y-114300000D03*
D20*
X157734000Y-122936000D03*
D21*
X150114000Y-122936000D03*
D22*
X138684000Y-120396000D03*
D23*
X138684000Y-122936000D03*
X138684000Y-125476000D03*
X138684000Y-128016000D03*
X146304000Y-128016000D03*
X146304000Y-125476000D03*
X146304000Y-122936000D03*
X146304000Y-120396000D03*
D20*
X82535000Y-91440000D03*
D21*
X90155000Y-91440000D03*
D18*
X138335000Y-88900000D03*
X133335000Y-88900000D03*
D22*
X186705000Y-134620000D03*
D23*
X186705000Y-132080000D03*
X186705000Y-129540000D03*
X186705000Y-127000000D03*
X186705000Y-124460000D03*
X186705000Y-121920000D03*
X186705000Y-119380000D03*
X186705000Y-116840000D03*
X179085000Y-116840000D03*
X179085000Y-119380000D03*
X179085000Y-121920000D03*
X179085000Y-124460000D03*
X179085000Y-127000000D03*
X179085000Y-129540000D03*
X179085000Y-132080000D03*
X179085000Y-134620000D03*
D20*
X123175000Y-91440000D03*
D21*
X130795000Y-91440000D03*
D20*
X62738000Y-83820000D03*
D21*
X55118000Y-83820000D03*
D20*
X90155000Y-96520000D03*
D21*
X82535000Y-96520000D03*
D20*
X66802000Y-81280000D03*
D21*
X66802000Y-88900000D03*
D18*
X150368000Y-118578000D03*
X150368000Y-113578000D03*
X201088000Y-62738000D03*
X196088000Y-62738000D03*
D22*
X71374000Y-78740000D03*
D23*
X71374000Y-81280000D03*
X71374000Y-83820000D03*
X71374000Y-86360000D03*
X78994000Y-86360000D03*
X78994000Y-83820000D03*
X78994000Y-81280000D03*
X78994000Y-78740000D03*
D19*
X86360000Y-53380000D03*
D18*
X86360000Y-58380000D03*
X185928000Y-92725000D03*
X180928000Y-92725000D03*
X202264000Y-84836000D03*
X207264000Y-84836000D03*
X189753000Y-137668000D03*
X194753000Y-137668000D03*
D20*
X137160000Y-66548000D03*
D21*
X137160000Y-58928000D03*
D20*
X123175000Y-81280000D03*
D21*
X130795000Y-81280000D03*
D18*
X139700000Y-132080000D03*
X144700000Y-132080000D03*
D22*
X158735000Y-69865000D03*
D23*
X158735000Y-72405000D03*
X158735000Y-74945000D03*
X158735000Y-77485000D03*
X158735000Y-80025000D03*
X158735000Y-82565000D03*
X158735000Y-85105000D03*
X158735000Y-87645000D03*
X158735000Y-90185000D03*
X158735000Y-92725000D03*
X158735000Y-95265000D03*
X158735000Y-97805000D03*
X158735000Y-100345000D03*
X158735000Y-102885000D03*
X176515000Y-102885000D03*
X176515000Y-100345000D03*
X176515000Y-97805000D03*
X176515000Y-95265000D03*
X176515000Y-92725000D03*
X176515000Y-90185000D03*
X176515000Y-87645000D03*
X176515000Y-85105000D03*
X176515000Y-82565000D03*
X176515000Y-80025000D03*
X176515000Y-77485000D03*
X176515000Y-74945000D03*
X176515000Y-72405000D03*
X176515000Y-69865000D03*
D20*
X90155000Y-78740000D03*
D21*
X82535000Y-78740000D03*
D14*
X153670000Y-80010000D03*
D18*
X199485000Y-121920000D03*
X204485000Y-121920000D03*
D20*
X187452000Y-80010000D03*
D21*
X179832000Y-80010000D03*
D18*
X161544000Y-109728000D03*
X156544000Y-109728000D03*
D20*
X68580000Y-111760000D03*
D21*
X68580000Y-104140000D03*
D24*
X60912000Y-57530000D03*
D25*
X54912000Y-57530000D03*
D26*
X57912000Y-62230000D03*
D20*
X150114000Y-125476000D03*
D21*
X157734000Y-125476000D03*
D22*
X130810000Y-67310000D03*
D23*
X130810000Y-64770000D03*
X130810000Y-62230000D03*
X130810000Y-59690000D03*
X123190000Y-59690000D03*
X123190000Y-62230000D03*
X123190000Y-64770000D03*
X123190000Y-67310000D03*
D20*
X115824000Y-58928000D03*
D21*
X115824000Y-51308000D03*
D18*
X124968000Y-51388000D03*
X124968000Y-56388000D03*
D19*
X85090000Y-129500000D03*
D18*
X85090000Y-127000000D03*
D19*
X72390000Y-119380000D03*
D27*
X72390000Y-121920000D03*
X72390000Y-124460000D03*
X72390000Y-127000000D03*
X80010000Y-127000000D03*
X80010000Y-124460000D03*
X80010000Y-121920000D03*
X80010000Y-119380000D03*
D20*
X69596000Y-90932000D03*
D21*
X77216000Y-90932000D03*
D20*
X176545000Y-132080000D03*
D21*
X168925000Y-132080000D03*
D22*
X72375000Y-99060000D03*
D23*
X72375000Y-101600000D03*
X72375000Y-104140000D03*
X72375000Y-106680000D03*
X79995000Y-106680000D03*
X79995000Y-104140000D03*
X79995000Y-101600000D03*
X79995000Y-99060000D03*
D20*
X123175000Y-88900000D03*
D21*
X130795000Y-88900000D03*
D18*
X199405000Y-132080000D03*
X204405000Y-132080000D03*
D20*
X171958000Y-111506000D03*
D21*
X164338000Y-111506000D03*
D14*
X71628000Y-60960000D03*
D16*
X151130000Y-97028000D03*
D17*
X153670000Y-99568000D03*
X151130000Y-102108000D03*
D14*
X153416000Y-90170000D03*
D20*
X157734000Y-132080000D03*
D21*
X157734000Y-139700000D03*
D18*
X138335000Y-81280000D03*
X133335000Y-81280000D03*
X127000000Y-114260000D03*
X127000000Y-109260000D03*
X173990000Y-56388000D03*
X173990000Y-51388000D03*
D20*
X189723000Y-67659000D03*
D21*
X189723000Y-75279000D03*
D18*
X78994000Y-74168000D03*
X73994000Y-74168000D03*
D20*
X145796000Y-94742000D03*
D21*
X153416000Y-94742000D03*
D28*
X205716000Y-55630000D03*
D29*
X213016000Y-55130000D03*
D28*
X216916000Y-59730000D03*
D30*
X210116000Y-62230000D03*
X208916000Y-64930000D03*
D18*
X180928000Y-95265000D03*
X185928000Y-95265000D03*
D20*
X85075000Y-99060000D03*
D21*
X85075000Y-106680000D03*
D19*
X73660000Y-134620000D03*
D18*
X76160000Y-134620000D03*
D19*
X189992000Y-83820000D03*
D18*
X189992000Y-81320000D03*
D20*
X140970000Y-91440000D03*
D21*
X148590000Y-91440000D03*
D20*
X123175000Y-93980000D03*
D21*
X130795000Y-93980000D03*
D18*
X166330000Y-127254000D03*
X161330000Y-127254000D03*
X199405000Y-127000000D03*
X204405000Y-127000000D03*
D20*
X82535000Y-93980000D03*
D21*
X90155000Y-93980000D03*
D18*
X149780000Y-80025000D03*
X144780000Y-80025000D03*
D22*
X201168000Y-75184000D03*
D23*
X201168000Y-72644000D03*
X201168000Y-70104000D03*
X201168000Y-67564000D03*
X193548000Y-67564000D03*
X193548000Y-70104000D03*
X193548000Y-72644000D03*
X193548000Y-75184000D03*
D16*
X144780000Y-73152000D03*
D17*
X142240000Y-70612000D03*
X144780000Y-68072000D03*
D20*
X144780000Y-77485000D03*
D21*
X152400000Y-77485000D03*
D20*
X176545000Y-119380000D03*
D21*
X168925000Y-119380000D03*
D20*
X176545000Y-124460000D03*
D21*
X168925000Y-124460000D03*
D18*
X145970000Y-88900000D03*
X140970000Y-88900000D03*
X75104000Y-94996000D03*
X70104000Y-94996000D03*
D16*
X150114000Y-73152000D03*
D17*
X147574000Y-70612000D03*
X150114000Y-68072000D03*
D18*
X166385000Y-120650000D03*
X161385000Y-120650000D03*
D20*
X189245000Y-127000000D03*
D21*
X196865000Y-127000000D03*
D31*
X58166000Y-73152000D03*
D32*
X58166000Y-71152000D03*
X58166000Y-69152000D03*
X58166000Y-67152000D03*
D20*
X130048000Y-106680000D03*
D21*
X130048000Y-114300000D03*
D20*
X134366000Y-64770000D03*
D21*
X134366000Y-72390000D03*
D20*
X87615000Y-99060000D03*
D21*
X87615000Y-106680000D03*
D33*
X101600000Y-57165000D03*
D34*
X101600000Y-59705000D03*
X101600000Y-62245000D03*
D20*
X150114000Y-129286000D03*
D21*
X157734000Y-129286000D03*
D18*
X208026000Y-68834000D03*
X213026000Y-68834000D03*
D20*
X119888000Y-63500000D03*
D21*
X119888000Y-55880000D03*
D20*
X134874000Y-123952000D03*
D21*
X127254000Y-123952000D03*
D18*
X166305000Y-124460000D03*
X161305000Y-124460000D03*
D19*
X66040000Y-106680000D03*
D27*
X66040000Y-99060000D03*
D20*
X144780000Y-75438000D03*
D21*
X152400000Y-75438000D03*
D20*
X196865000Y-121920000D03*
D21*
X189245000Y-121920000D03*
D18*
X184150000Y-106092000D03*
X184150000Y-101092000D03*
D19*
X55118000Y-88900000D03*
D27*
X62738000Y-88900000D03*
D18*
X138335000Y-92456000D03*
X133335000Y-92456000D03*
D20*
X123175000Y-78740000D03*
D21*
X130795000Y-78740000D03*
D18*
X180928000Y-87645000D03*
X185928000Y-87645000D03*
D35*
X52946300Y-117040660D03*
X52946300Y-127043180D03*
D36*
X62941200Y-129540000D03*
X62943740Y-122041920D03*
X62941200Y-114543840D03*
X65443100Y-127038100D03*
X65443100Y-117045740D03*
D20*
X127254000Y-120396000D03*
D21*
X134874000Y-120396000D03*
D37*
X160274000Y-66040000D03*
X182880000Y-68326000D03*
X168656000Y-66040000D03*
X182880000Y-75946000D03*
X156210000Y-80025000D03*
X156210000Y-56388000D03*
X151130000Y-107950000D03*
X151130000Y-104902000D03*
X173736000Y-107950000D03*
X164338000Y-107950000D03*
X70104000Y-67818000D03*
X70104000Y-75946000D03*
X143510000Y-102870000D03*
X143510000Y-109728000D03*
X196850000Y-99314000D03*
X150114000Y-63500000D03*
X107696000Y-66040000D03*
X107696000Y-75438000D03*
X134620000Y-51308000D03*
X139446000Y-73152000D03*
X150114000Y-58928000D03*
X211836000Y-101600000D03*
X189992000Y-99314000D03*
X204470000Y-101600000D03*
X139446000Y-77978000D03*
X134620000Y-58674000D03*
X180086000Y-76962000D03*
X180086000Y-68326000D03*
X135890000Y-132080000D03*
X173736000Y-106172000D03*
X204724000Y-77470000D03*
X135890000Y-141656500D03*
X204724000Y-67564000D03*
X161544000Y-106172000D03*
X197104000Y-106172000D03*
X209550000Y-106172000D03*
X159766000Y-118364000D03*
X166370000Y-118364000D03*
X172212000Y-57912000D03*
X163576000Y-57912000D03*
X90170000Y-83820000D03*
X82804000Y-83820000D03*
X152908000Y-120396000D03*
X152908000Y-139700000D03*
X159781000Y-115316000D03*
X172212000Y-115316000D03*
X121158000Y-97536000D03*
X135382000Y-97536000D03*
X90424000Y-104648000D03*
X90424000Y-110744000D03*
X92710000Y-99822000D03*
X92710000Y-88138000D03*
X158242000Y-116840000D03*
X173228000Y-116840000D03*
X110490000Y-66040000D03*
X110490000Y-75438000D03*
X113284000Y-66040000D03*
X113284000Y-75438000D03*
X135382000Y-99568000D03*
X124206000Y-99568000D03*
X82804000Y-86360000D03*
X89154000Y-86360000D03*
D38*
X182880000Y-75946000D02*
X182880000Y-68326000D01*
X168656000Y-66040000D02*
X160274000Y-66040000D01*
X156210000Y-56388000D02*
X156210000Y-80025000D01*
X164338000Y-107950000D02*
X173736000Y-107950000D01*
X151130000Y-107950000D02*
X151130000Y-104902000D01*
X70104000Y-75946000D02*
X70104000Y-67818000D01*
X143510000Y-109728000D02*
X143510000Y-102870000D01*
X115555000Y-96520000D02*
X106172000Y-96520000D01*
X150114000Y-63500000D02*
X150114000Y-58928000D01*
X115555000Y-83820000D02*
X106172000Y-83820000D01*
X106172000Y-96520000D02*
X97775000Y-96520000D01*
X97775000Y-109220000D02*
X106172000Y-109220000D01*
X196850000Y-99314000D02*
X189992000Y-99314000D01*
X106172000Y-97028000D02*
X106172000Y-96520000D01*
X106172000Y-109220000D02*
X106172000Y-97028000D01*
X134620000Y-58674000D02*
X134620000Y-51308000D01*
X204470000Y-101600000D02*
X211836000Y-101600000D01*
X106172000Y-121920000D02*
X106172000Y-109220000D01*
X139446000Y-73152000D02*
X139446000Y-77978000D01*
X106172000Y-121920000D02*
X97775000Y-121920000D01*
X107696000Y-66040000D02*
X107696000Y-75438000D01*
X106172000Y-109220000D02*
X115555000Y-109220000D01*
X106172000Y-83820000D02*
X97775000Y-83820000D01*
X106172000Y-97028000D02*
X106172000Y-83820000D01*
X115555000Y-121920000D02*
X106172000Y-121920000D01*
X180086000Y-68326000D02*
X180086000Y-76962000D01*
X204724000Y-106172000D02*
X197104000Y-106172000D01*
X204724000Y-106172000D02*
X209550000Y-106172000D01*
X135890000Y-132080000D02*
X135890000Y-141656500D01*
X204724000Y-106172000D02*
X209042000Y-106172000D01*
X161544000Y-106172000D02*
X173736000Y-106172000D01*
X204724000Y-67564000D02*
X204724000Y-77470000D01*
X166370000Y-118364000D02*
X159766000Y-118364000D01*
X172212000Y-57912000D02*
X163576000Y-57912000D01*
X82804000Y-83820000D02*
X90170000Y-83820000D01*
X152908000Y-120396000D02*
X152908000Y-139700000D01*
X159781000Y-115316000D02*
X172212000Y-115316000D01*
X135382000Y-97536000D02*
X121158000Y-97536000D01*
X90424000Y-104648000D02*
X90424000Y-110744000D01*
X92710000Y-99822000D02*
X92710000Y-88138000D01*
X173228000Y-116840000D02*
X158242000Y-116840000D01*
X110490000Y-75438000D02*
X110490000Y-66040000D01*
X113284000Y-66040000D02*
X113284000Y-75438000D01*
X135382000Y-99568000D02*
X124206000Y-99568000D01*
X89154000Y-86360000D02*
X82804000Y-86360000D01*
M02*
