M48
; DRILL file {KiCad 7.0.2-6a45011f42~172~ubuntu22.04.1} date mar. 16 mai 2023 12:27:13
; FORMAT={-:-/ absolute / metric / decimal}
; #@! TF.CreationDate,2023-05-16T12:27:13+02:00
; #@! TF.GenerationSoftware,Kicad,Pcbnew,7.0.2-6a45011f42~172~ubuntu22.04.1
; #@! TF.FileFunction,Plated,1,2,PTH
FMAT,2
METRIC
; #@! TA.AperFunction,Plated,PTH,ComponentDrill
T1C0.700
; #@! TA.AperFunction,Plated,PTH,ComponentDrill
T2C0.762
; #@! TA.AperFunction,Plated,PTH,ViaDrill
T3C0.800
; #@! TA.AperFunction,Plated,PTH,ComponentDrill
T4C0.800
; #@! TA.AperFunction,Plated,PTH,ComponentDrill
T5C1.000
; #@! TA.AperFunction,Plated,PTH,ComponentDrill
T6C1.020
; #@! TA.AperFunction,Plated,PTH,ComponentDrill
T7C1.100
; #@! TA.AperFunction,Plated,PTH,ComponentDrill
T8C1.300
; #@! TA.AperFunction,Plated,PTH,ComponentDrill
T9C1.397
; #@! TA.AperFunction,Plated,PTH,ComponentDrill
T10C3.200
%
G90
G05
T1
X55.118Y-81.28
X55.118Y-83.82
X62.738Y-81.28
X62.738Y-83.82
X66.802Y-81.28
X66.802Y-88.9
X68.58Y-104.14
X68.58Y-111.76
X69.596Y-90.932
X77.216Y-90.932
X82.535Y-78.74
X82.535Y-91.44
X82.535Y-93.98
X82.535Y-96.52
X85.075Y-99.06
X85.075Y-106.68
X87.615Y-99.06
X87.615Y-106.68
X90.155Y-78.74
X90.155Y-91.44
X90.155Y-93.98
X90.155Y-96.52
X115.824Y-51.308
X115.824Y-58.928
X119.888Y-55.88
X119.888Y-63.5
X123.175Y-78.74
X123.175Y-81.28
X123.175Y-86.36
X123.175Y-88.9
X123.175Y-91.44
X123.175Y-93.98
X123.952Y-106.68
X123.952Y-114.3
X127.254Y-120.396
X127.254Y-123.952
X127.254Y-132.08
X127.254Y-139.7
X130.048Y-106.68
X130.048Y-114.3
X130.795Y-78.74
X130.795Y-81.28
X130.795Y-86.36
X130.795Y-88.9
X130.795Y-91.44
X130.795Y-93.98
X134.366Y-64.77
X134.366Y-72.39
X134.874Y-120.396
X134.874Y-123.952
X137.16Y-58.928
X137.16Y-66.548
X140.97Y-91.44
X144.78Y-75.438
X144.78Y-77.485
X145.796Y-94.742
X148.59Y-91.44
X150.114Y-122.936
X150.114Y-125.476
X150.114Y-129.286
X152.4Y-75.438
X152.4Y-77.485
X153.416Y-94.742
X157.734Y-122.936
X157.734Y-125.476
X157.734Y-129.286
X157.734Y-132.08
X157.734Y-139.7
X164.338Y-111.506
X168.925Y-119.38
X168.925Y-124.46
X168.925Y-132.08
X171.958Y-111.506
X176.545Y-119.38
X176.545Y-124.46
X176.545Y-132.08
X179.832Y-80.01
X187.452Y-80.01
X189.245Y-121.92
X189.245Y-127.0
X189.245Y-132.08
X189.723Y-67.659
X189.723Y-75.279
X196.865Y-121.92
X196.865Y-127.0
X196.865Y-132.08
X207.518Y-71.882
X215.138Y-71.882
T2
X58.166Y-67.152
X58.166Y-69.152
X58.166Y-71.152
X58.166Y-73.152
T3
X70.104Y-67.818
X70.104Y-75.946
X82.804Y-83.82
X82.804Y-86.36
X89.154Y-86.36
X90.17Y-83.82
X90.424Y-104.648
X90.424Y-110.744
X92.71Y-88.138
X92.71Y-99.822
X107.696Y-66.04
X107.696Y-75.438
X110.49Y-66.04
X110.49Y-75.438
X113.284Y-66.04
X113.284Y-75.438
X121.158Y-97.536
X124.206Y-99.568
X134.62Y-51.308
X134.62Y-58.674
X135.382Y-97.536
X135.382Y-99.568
X135.89Y-132.08
X135.89Y-141.656
X139.446Y-73.152
X139.446Y-77.978
X143.51Y-102.87
X143.51Y-109.728
X150.114Y-58.928
X150.114Y-63.5
X151.13Y-104.902
X151.13Y-107.95
X152.908Y-120.396
X152.908Y-139.7
X156.21Y-56.388
X156.21Y-80.025
X158.242Y-116.84
X159.766Y-118.364
X159.781Y-115.316
X160.274Y-66.04
X161.544Y-106.172
X163.576Y-57.912
X164.338Y-107.95
X166.37Y-118.364
X168.656Y-66.04
X172.212Y-57.912
X172.212Y-115.316
X173.228Y-116.84
X173.736Y-106.172
X173.736Y-107.95
X180.086Y-68.326
X180.086Y-76.962
X182.88Y-68.326
X182.88Y-75.946
X189.992Y-99.314
X196.85Y-99.314
X197.104Y-106.172
X204.47Y-101.6
X204.724Y-67.564
X204.724Y-77.47
X209.55Y-106.172
X211.836Y-101.6
T4
X55.118Y-88.9
X62.738Y-88.9
X66.04Y-99.06
X66.04Y-106.68
X70.104Y-94.996
X71.374Y-78.74
X71.374Y-81.28
X71.374Y-83.82
X71.374Y-86.36
X72.375Y-99.06
X72.375Y-101.6
X72.375Y-104.14
X72.375Y-106.68
X72.39Y-119.38
X72.39Y-121.92
X72.39Y-124.46
X72.39Y-127.0
X73.66Y-134.62
X73.994Y-74.168
X75.104Y-94.996
X76.16Y-134.62
X78.994Y-74.168
X78.994Y-78.74
X78.994Y-81.28
X78.994Y-83.82
X78.994Y-86.36
X79.995Y-99.06
X79.995Y-101.6
X79.995Y-104.14
X79.995Y-106.68
X80.01Y-119.38
X80.01Y-121.92
X80.01Y-124.46
X80.01Y-127.0
X85.09Y-127.0
X85.09Y-129.5
X86.36Y-53.38
X86.36Y-58.38
X93.98Y-59.705
X93.98Y-62.205
X123.19Y-59.69
X123.19Y-62.23
X123.19Y-64.77
X123.19Y-67.31
X124.968Y-51.388
X124.968Y-56.388
X127.0Y-109.26
X127.0Y-114.26
X130.81Y-59.69
X130.81Y-62.23
X130.81Y-64.77
X130.81Y-67.31
X132.588Y-109.26
X132.588Y-114.26
X133.335Y-81.28
X133.335Y-88.9
X133.335Y-92.456
X138.335Y-81.28
X138.335Y-88.9
X138.335Y-92.456
X138.684Y-120.396
X138.684Y-122.936
X138.684Y-125.476
X138.684Y-128.016
X139.7Y-132.08
X140.97Y-88.9
X142.24Y-70.612
X144.7Y-132.08
X144.78Y-68.072
X144.78Y-73.152
X144.78Y-80.025
X145.796Y-97.028
X145.796Y-102.108
X145.97Y-88.9
X146.304Y-120.396
X146.304Y-122.936
X146.304Y-125.476
X146.304Y-128.016
X147.574Y-70.612
X148.336Y-99.568
X149.78Y-80.025
X150.114Y-68.072
X150.114Y-73.152
X150.368Y-113.578
X150.368Y-118.578
X151.13Y-97.028
X151.13Y-102.108
X153.67Y-99.568
X156.544Y-109.728
X158.735Y-69.865
X158.735Y-72.405
X158.735Y-74.945
X158.735Y-77.485
X158.735Y-80.025
X158.735Y-82.565
X158.735Y-85.105
X158.735Y-87.645
X158.735Y-90.185
X158.735Y-92.725
X158.735Y-95.265
X158.735Y-97.805
X158.735Y-100.345
X158.735Y-102.885
X161.305Y-124.46
X161.33Y-127.254
X161.385Y-120.65
X161.544Y-109.728
X166.305Y-124.46
X166.33Y-127.254
X166.385Y-120.65
X173.99Y-51.388
X173.99Y-56.388
X176.515Y-69.865
X176.515Y-72.405
X176.515Y-74.945
X176.515Y-77.485
X176.515Y-80.025
X176.515Y-82.565
X176.515Y-85.105
X176.515Y-87.645
X176.515Y-90.185
X176.515Y-92.725
X176.515Y-95.265
X176.515Y-97.805
X176.515Y-100.345
X176.515Y-102.885
X179.085Y-116.84
X179.085Y-119.38
X179.085Y-121.92
X179.085Y-124.46
X179.085Y-127.0
X179.085Y-129.54
X179.085Y-132.08
X179.085Y-134.62
X180.928Y-87.645
X180.928Y-90.17
X180.928Y-92.725
X180.928Y-95.265
X184.15Y-101.092
X184.15Y-106.092
X185.913Y-70.184
X185.913Y-75.184
X185.928Y-87.645
X185.928Y-90.17
X185.928Y-92.725
X185.928Y-95.265
X186.705Y-116.84
X186.705Y-119.38
X186.705Y-121.92
X186.705Y-124.46
X186.705Y-127.0
X186.705Y-129.54
X186.705Y-132.08
X186.705Y-134.62
X189.753Y-137.668
X189.992Y-81.32
X189.992Y-83.82
X193.548Y-67.564
X193.548Y-70.104
X193.548Y-72.644
X193.548Y-75.184
X194.753Y-137.668
X196.088Y-62.738
X199.405Y-127.0
X199.405Y-132.08
X199.485Y-121.92
X201.088Y-62.738
X201.168Y-67.564
X201.168Y-70.104
X201.168Y-72.644
X201.168Y-75.184
X202.264Y-84.836
X204.405Y-127.0
X204.405Y-132.08
X204.485Y-121.92
X207.264Y-84.836
X208.026Y-68.834
X213.026Y-68.834
T5
X71.628Y-60.96
X153.416Y-90.17
X153.67Y-80.01
T6
X97.775Y-78.74
X97.775Y-81.28
X97.775Y-83.82
X97.775Y-86.36
X97.775Y-88.9
X97.775Y-91.44
X97.775Y-93.98
X97.775Y-96.52
X97.775Y-99.06
X97.775Y-101.6
X97.775Y-104.14
X97.775Y-106.68
X97.775Y-109.22
X97.775Y-111.76
X97.775Y-114.3
X97.775Y-116.84
X97.775Y-119.38
X97.775Y-121.92
X97.775Y-124.46
X97.775Y-127.0
X115.555Y-78.74
X115.555Y-81.28
X115.555Y-83.82
X115.555Y-86.36
X115.555Y-88.9
X115.555Y-91.44
X115.555Y-93.98
X115.555Y-96.52
X115.555Y-99.06
X115.555Y-101.6
X115.555Y-104.14
X115.555Y-106.68
X115.555Y-109.22
X115.555Y-111.76
X115.555Y-114.3
X115.555Y-116.84
X115.555Y-119.38
X115.555Y-121.92
X115.555Y-124.46
X115.555Y-127.0
T7
X101.6Y-57.165
X101.6Y-59.705
X101.6Y-62.245
T8
X205.716Y-55.63
X208.916Y-64.93
X210.116Y-62.23
X213.016Y-55.13
X216.916Y-59.73
T9
X62.941Y-114.544
X62.941Y-129.54
X62.944Y-122.042
X65.443Y-117.046
X65.443Y-127.038
T10
X55.88Y-49.53
X55.88Y-138.43
X213.36Y-49.53
X213.36Y-138.43
T5
X54.912Y-56.53G85X54.912Y-58.53
G05
X56.912Y-62.23G85X58.912Y-62.23
G05
X60.912Y-56.53G85X60.912Y-58.53
G05
T0
M30
