%TF.GenerationSoftware,KiCad,Pcbnew,7.0.7*%
%TF.CreationDate,2024-03-19T10:01:58+01:00*%
%TF.ProjectId,Poly_UA_controller_5enc_5sw,506f6c79-5f55-4415-9f63-6f6e74726f6c,rev?*%
%TF.SameCoordinates,Original*%
%TF.FileFunction,Copper,L2,Bot*%
%TF.FilePolarity,Positive*%
%FSLAX46Y46*%
G04 Gerber Fmt 4.6, Leading zero omitted, Abs format (unit mm)*
G04 Created by KiCad (PCBNEW 7.0.7) date 2024-03-19 10:01:58*
%MOMM*%
%LPD*%
G01*
G04 APERTURE LIST*
G04 Aperture macros list*
%AMRoundRect*
0 Rectangle with rounded corners*
0 $1 Rounding radius*
0 $2 $3 $4 $5 $6 $7 $8 $9 X,Y pos of 4 corners*
0 Add a 4 corners polygon primitive as box body*
4,1,4,$2,$3,$4,$5,$6,$7,$8,$9,$2,$3,0*
0 Add four circle primitives for the rounded corners*
1,1,$1+$1,$2,$3*
1,1,$1+$1,$4,$5*
1,1,$1+$1,$6,$7*
1,1,$1+$1,$8,$9*
0 Add four rect primitives between the rounded corners*
20,1,$1+$1,$2,$3,$4,$5,0*
20,1,$1+$1,$4,$5,$6,$7,0*
20,1,$1+$1,$6,$7,$8,$9,0*
20,1,$1+$1,$8,$9,$2,$3,0*%
G04 Aperture macros list end*
%TA.AperFunction,SMDPad,CuDef*%
%ADD10RoundRect,0.250000X-0.625000X0.400000X-0.625000X-0.400000X0.625000X-0.400000X0.625000X0.400000X0*%
%TD*%
%TA.AperFunction,SMDPad,CuDef*%
%ADD11RoundRect,0.250000X0.625000X-0.400000X0.625000X0.400000X-0.625000X0.400000X-0.625000X-0.400000X0*%
%TD*%
%TA.AperFunction,ComponentPad*%
%ADD12R,1.700000X1.700000*%
%TD*%
%TA.AperFunction,ComponentPad*%
%ADD13O,1.700000X1.700000*%
%TD*%
%TA.AperFunction,ComponentPad*%
%ADD14R,2.000000X2.000000*%
%TD*%
%TA.AperFunction,ComponentPad*%
%ADD15C,2.000000*%
%TD*%
%TA.AperFunction,ComponentPad*%
%ADD16R,3.200000X2.000000*%
%TD*%
%TA.AperFunction,SMDPad,CuDef*%
%ADD17RoundRect,0.150000X0.150000X-0.875000X0.150000X0.875000X-0.150000X0.875000X-0.150000X-0.875000X0*%
%TD*%
%TA.AperFunction,SMDPad,CuDef*%
%ADD18RoundRect,0.250000X-0.412500X-0.650000X0.412500X-0.650000X0.412500X0.650000X-0.412500X0.650000X0*%
%TD*%
%TA.AperFunction,ViaPad*%
%ADD19C,0.800000*%
%TD*%
%TA.AperFunction,Conductor*%
%ADD20C,0.250000*%
%TD*%
%TA.AperFunction,Conductor*%
%ADD21C,0.350000*%
%TD*%
G04 APERTURE END LIST*
D10*
%TO.P,R5,1*%
%TO.N,VCC*%
X164171200Y-17653000D03*
%TO.P,R5,2*%
%TO.N,Net-(U1-A2)*%
X164171200Y-20753000D03*
%TD*%
D11*
%TO.P,R8,1*%
%TO.N,Net-(U1-A0)*%
X151369600Y-20702200D03*
%TO.P,R8,2*%
%TO.N,GND*%
X151369600Y-17602200D03*
%TD*%
%TO.P,R7,2*%
%TO.N,GND*%
X166558800Y-17627600D03*
%TO.P,R7,1*%
%TO.N,Net-(U1-A2)*%
X166558800Y-20727600D03*
%TD*%
D10*
%TO.P,R6,1*%
%TO.N,VCC*%
X153858800Y-17703800D03*
%TO.P,R6,2*%
%TO.N,Net-(U1-A0)*%
X153858800Y-20803800D03*
%TD*%
D11*
%TO.P,R4,1*%
%TO.N,Net-(U1-A1)*%
X158151400Y-20702200D03*
%TO.P,R4,2*%
%TO.N,GND*%
X158151400Y-17602200D03*
%TD*%
D10*
%TO.P,R3,1*%
%TO.N,VCC*%
X160920000Y-17805400D03*
%TO.P,R3,2*%
%TO.N,Net-(U1-A1)*%
X160920000Y-20905400D03*
%TD*%
D12*
%TO.P,J8_POLY1,1,Pin_1*%
%TO.N,MCP23017_IRQ*%
X126381000Y-18902600D03*
D13*
%TO.P,J8_POLY1,2,Pin_2*%
%TO.N,LED_DATA_IN*%
X123841000Y-18902600D03*
%TO.P,J8_POLY1,3,Pin_3*%
%TO.N,unconnected-(J8_POLY1-Pin_3-Pad3)*%
X126381000Y-21442600D03*
%TO.P,J8_POLY1,4,Pin_4*%
%TO.N,unconnected-(J8_POLY1-Pin_4-Pad4)*%
X123841000Y-21442600D03*
%TO.P,J8_POLY1,5,Pin_5*%
%TO.N,unconnected-(J8_POLY1-Pin_5-Pad5)*%
X126381000Y-23982600D03*
%TO.P,J8_POLY1,6,Pin_6*%
%TO.N,VCC*%
X123841000Y-23982600D03*
%TO.P,J8_POLY1,7,Pin_7*%
%TO.N,GND*%
X126381000Y-26522600D03*
%TO.P,J8_POLY1,8,Pin_8*%
%TO.N,LED_POWER*%
X123841000Y-26522600D03*
%TO.P,J8_POLY1,9,Pin_9*%
%TO.N,SCK*%
X126381000Y-29062600D03*
%TO.P,J8_POLY1,10,Pin_10*%
%TO.N,SDA*%
X123841000Y-29062600D03*
%TD*%
D14*
%TO.P,SW3,A,A*%
%TO.N,R3_A*%
X176097900Y-40400600D03*
D15*
%TO.P,SW3,B,B*%
%TO.N,R3_B*%
X176097900Y-45400600D03*
%TO.P,SW3,C,C*%
%TO.N,GND*%
X176097900Y-42900600D03*
D16*
%TO.P,SW3,MP*%
%TO.N,N/C*%
X183597900Y-37300600D03*
X183597900Y-48500600D03*
D15*
%TO.P,SW3,S1,S1*%
%TO.N,SW_3*%
X190597900Y-45400600D03*
%TO.P,SW3,S2,S2*%
%TO.N,GND*%
X190597900Y-40400600D03*
%TD*%
D14*
%TO.P,SW2,A,A*%
%TO.N,R2_A*%
X146576750Y-40400600D03*
D15*
%TO.P,SW2,B,B*%
%TO.N,R2_B*%
X146576750Y-45400600D03*
%TO.P,SW2,C,C*%
%TO.N,GND*%
X146576750Y-42900600D03*
D16*
%TO.P,SW2,MP*%
%TO.N,N/C*%
X154076750Y-37300600D03*
X154076750Y-48500600D03*
D15*
%TO.P,SW2,S1,S1*%
%TO.N,SW_2*%
X161076750Y-45400600D03*
%TO.P,SW2,S2,S2*%
%TO.N,GND*%
X161076750Y-40400600D03*
%TD*%
D14*
%TO.P,SW5,A,A*%
%TO.N,R5_A*%
X235140200Y-40400600D03*
D15*
%TO.P,SW5,B,B*%
%TO.N,R5_B*%
X235140200Y-45400600D03*
%TO.P,SW5,C,C*%
%TO.N,GND*%
X235140200Y-42900600D03*
D16*
%TO.P,SW5,MP*%
%TO.N,N/C*%
X242640200Y-37300600D03*
X242640200Y-48500600D03*
D15*
%TO.P,SW5,S1,S1*%
%TO.N,GND*%
X249640200Y-45400600D03*
%TO.P,SW5,S2,S2*%
%TO.N,SW_5*%
X249640200Y-40400600D03*
%TD*%
D14*
%TO.P,SW1,A,A*%
%TO.N,R1_A*%
X117055600Y-40400600D03*
D15*
%TO.P,SW1,B,B*%
%TO.N,R1_B*%
X117055600Y-45400600D03*
%TO.P,SW1,C,C*%
%TO.N,GND*%
X117055600Y-42900600D03*
D16*
%TO.P,SW1,MP*%
%TO.N,N/C*%
X124555600Y-37300600D03*
X124555600Y-48500600D03*
D15*
%TO.P,SW1,S1,S1*%
%TO.N,SW_1*%
X131555600Y-45400600D03*
%TO.P,SW1,S2,S2*%
%TO.N,GND*%
X131555600Y-40400600D03*
%TD*%
D14*
%TO.P,SW4,A,A*%
%TO.N,R4_A*%
X205619050Y-40400600D03*
D15*
%TO.P,SW4,B,B*%
%TO.N,R4_B*%
X205619050Y-45400600D03*
%TO.P,SW4,C,C*%
%TO.N,GND*%
X205619050Y-42900600D03*
D16*
%TO.P,SW4,MP*%
%TO.N,N/C*%
X213119050Y-37300600D03*
X213119050Y-48500600D03*
D15*
%TO.P,SW4,S1,S1*%
%TO.N,SW_4*%
X220119050Y-45400600D03*
%TO.P,SW4,S2,S2*%
%TO.N,GND*%
X220119050Y-40400600D03*
%TD*%
D17*
%TO.P,U1,28,GPA7*%
%TO.N,SW_5*%
X192201800Y-22096200D03*
%TO.P,U1,27,GPA6*%
%TO.N,unconnected-(U1-GPA6-Pad27)*%
X190931800Y-22096200D03*
%TO.P,U1,26,GPA5*%
%TO.N,SW_2*%
X189661800Y-22096200D03*
%TO.P,U1,25,GPA4*%
%TO.N,R2_B*%
X188391800Y-22096200D03*
%TO.P,U1,24,GPA3*%
%TO.N,R2_A*%
X187121800Y-22096200D03*
%TO.P,U1,23,GPA2*%
%TO.N,SW_1*%
X185851800Y-22096200D03*
%TO.P,U1,22,GPA1*%
%TO.N,R1_B*%
X184581800Y-22096200D03*
%TO.P,U1,21,GPA0*%
%TO.N,R1_A*%
X183311800Y-22096200D03*
%TO.P,U1,20,INTA*%
%TO.N,unconnected-(U1-INTA-Pad20)*%
X182041800Y-22096200D03*
%TO.P,U1,19,INTB*%
%TO.N,MCP23017_IRQ*%
X180771800Y-22096200D03*
%TO.P,U1,18,~{RESET}*%
%TO.N,VCC*%
X179501800Y-22096200D03*
%TO.P,U1,17,A2*%
%TO.N,Net-(U1-A2)*%
X178231800Y-22096200D03*
%TO.P,U1,16,A1*%
%TO.N,Net-(U1-A1)*%
X176961800Y-22096200D03*
%TO.P,U1,15,A0*%
%TO.N,Net-(U1-A0)*%
X175691800Y-22096200D03*
%TO.P,U1,14,NC*%
%TO.N,unconnected-(U1-NC-Pad14)*%
X175691800Y-31396200D03*
%TO.P,U1,13,SDA*%
%TO.N,SDA*%
X176961800Y-31396200D03*
%TO.P,U1,12,SCK*%
%TO.N,SCK*%
X178231800Y-31396200D03*
%TO.P,U1,11,NC*%
%TO.N,unconnected-(U1-NC-Pad11)*%
X179501800Y-31396200D03*
%TO.P,U1,10,VSS*%
%TO.N,GND*%
X180771800Y-31396200D03*
%TO.P,U1,9,VDD*%
%TO.N,VCC*%
X182041800Y-31396200D03*
%TO.P,U1,8,GPB7*%
%TO.N,R3_A*%
X183311800Y-31396200D03*
%TO.P,U1,7,GPB6*%
%TO.N,R3_B*%
X184581800Y-31396200D03*
%TO.P,U1,6,GPB5*%
%TO.N,SW_3*%
X185851800Y-31396200D03*
%TO.P,U1,5,GPB4*%
%TO.N,R4_B*%
X187121800Y-31396200D03*
%TO.P,U1,4,GPB3*%
%TO.N,R4_A*%
X188391800Y-31396200D03*
%TO.P,U1,3,GPB2*%
%TO.N,SW_4*%
X189661800Y-31396200D03*
%TO.P,U1,2,GPB1*%
%TO.N,R5_B*%
X190931800Y-31396200D03*
%TO.P,U1,1,GPB0*%
%TO.N,R5_A*%
X192201800Y-31396200D03*
%TD*%
D18*
%TO.P,C3,1*%
%TO.N,GND*%
X175498800Y-35306000D03*
%TO.P,C3,2*%
%TO.N,VCC*%
X178623800Y-35306000D03*
%TD*%
D11*
%TO.P,R1,1*%
%TO.N,VCC*%
X169200400Y-34418200D03*
%TO.P,R1,2*%
%TO.N,SDA*%
X169200400Y-31318200D03*
%TD*%
D10*
%TO.P,R2,1*%
%TO.N,SCK*%
X171994400Y-31267400D03*
%TO.P,R2,2*%
%TO.N,VCC*%
X171994400Y-34367400D03*
%TD*%
D19*
%TO.N,GND*%
X143673400Y-26416000D03*
X147889800Y-26670000D03*
X153757200Y-27355800D03*
X217460400Y-17475200D03*
X230744600Y-26162000D03*
X203084000Y-36753800D03*
X200544000Y-43586400D03*
X194981400Y-49936400D03*
X134707200Y-35077400D03*
X140320600Y-34086800D03*
X140041200Y-47447200D03*
X118298800Y-27127200D03*
X117155800Y-17805400D03*
X139177600Y-17373600D03*
X168895600Y-17272000D03*
X148397800Y-18567400D03*
%TO.N,LED_DATA_IN*%
X119416400Y-57988200D03*
%TO.N,VCC*%
X179335000Y-19278600D03*
X156221000Y-19253200D03*
X180797200Y-33680400D03*
%TO.N,SDA*%
X176961800Y-29946600D03*
X169200400Y-29616400D03*
%TO.N,SCK*%
X171958000Y-29159200D03*
%TD*%
D20*
%TO.N,GND*%
X159319800Y-16433800D02*
X165365000Y-16433800D01*
X165365000Y-16433800D02*
X166558800Y-17627600D01*
X158151400Y-17602200D02*
X159319800Y-16433800D01*
%TO.N,SDA*%
X176961800Y-29946600D02*
X176961800Y-31396200D01*
%TO.N,MCP23017_IRQ*%
X177785600Y-15875000D02*
X145705400Y-15875000D01*
X142677800Y-18902600D02*
X126381000Y-18902600D01*
X180757400Y-18846800D02*
X177785600Y-15875000D01*
X180757400Y-19126200D02*
X180757400Y-18846800D01*
X145705400Y-15875000D02*
X142677800Y-18902600D01*
X180757400Y-19126200D02*
X180757400Y-18897600D01*
X180757400Y-21655049D02*
X180757400Y-19126200D01*
%TO.N,LED_DATA_IN*%
X115250800Y-58013600D02*
X119365600Y-58013600D01*
X115098400Y-57861200D02*
X115250800Y-58013600D01*
X115098400Y-23495000D02*
X115098400Y-57861200D01*
X119690800Y-18902600D02*
X115098400Y-23495000D01*
X123841000Y-18902600D02*
X119690800Y-18902600D01*
%TO.N,R1_A*%
X117055600Y-33375600D02*
X117055600Y-40400600D01*
X134707200Y-33375600D02*
X117055600Y-33375600D01*
X144225000Y-23857800D02*
X134707200Y-33375600D01*
X182669600Y-23857800D02*
X144225000Y-23857800D01*
%TO.N,R5_A*%
X228865000Y-29743400D02*
X235140200Y-36018600D01*
X235140200Y-36018600D02*
X235140200Y-40400600D01*
X228636400Y-29743400D02*
X228865000Y-29743400D01*
X228611000Y-29718000D02*
X228636400Y-29743400D01*
X193880000Y-29718000D02*
X228611000Y-29718000D01*
X192201800Y-31396200D02*
X193880000Y-29718000D01*
%TO.N,SW_5*%
X192432200Y-22326600D02*
X192201800Y-22096200D01*
X238364600Y-22326600D02*
X192432200Y-22326600D01*
X249640200Y-33602200D02*
X238364600Y-22326600D01*
X249640200Y-40400600D02*
X249640200Y-33602200D01*
%TO.N,R4_B*%
X198091000Y-45400600D02*
X205619050Y-45400600D01*
X187121800Y-34431400D02*
X198091000Y-45400600D01*
X187121800Y-34391600D02*
X187121800Y-34431400D01*
X187121800Y-31396200D02*
X187121800Y-34391600D01*
%TO.N,R4_A*%
X188391800Y-34177400D02*
X194615000Y-40400600D01*
X188391800Y-33959800D02*
X188391800Y-34177400D01*
X188391800Y-33959800D02*
X188391800Y-34315400D01*
X188391800Y-31396200D02*
X188391800Y-33959800D01*
X194615000Y-40400600D02*
X205619050Y-40400600D01*
%TO.N,SW_4*%
X208214800Y-38328600D02*
X215286800Y-45400600D01*
X215286800Y-45400600D02*
X220119050Y-45400600D01*
X189661800Y-33985200D02*
X194005200Y-38328600D01*
X194005200Y-38328600D02*
X208214800Y-38328600D01*
X189661800Y-31396200D02*
X189661800Y-33985200D01*
%TO.N,R5_B*%
X226985400Y-37245800D02*
X235140200Y-45400600D01*
X204608000Y-31978600D02*
X226985400Y-31978600D01*
X192379600Y-35102800D02*
X201483800Y-35102800D01*
X190982600Y-33705800D02*
X192379600Y-35102800D01*
X190982600Y-31873751D02*
X190982600Y-33705800D01*
X201483800Y-35102800D02*
X204608000Y-31978600D01*
X190931800Y-31396200D02*
X190931800Y-31822951D01*
X190931800Y-31822951D02*
X190982600Y-31873751D01*
X226985400Y-31978600D02*
X226985400Y-37245800D01*
%TO.N,R1_B*%
X121488400Y-45400600D02*
X117055600Y-45400600D01*
X129601800Y-37287200D02*
X121488400Y-45400600D01*
X134732600Y-37287200D02*
X129601800Y-37287200D01*
X183037900Y-24759500D02*
X147260300Y-24759500D01*
X184581800Y-23215600D02*
X183037900Y-24759500D01*
X147260300Y-24759500D02*
X134732600Y-37287200D01*
%TO.N,R1_A*%
X183311800Y-23215600D02*
X182669600Y-23857800D01*
%TO.N,SW_1*%
X151327600Y-25628600D02*
X131555600Y-45400600D01*
X183464200Y-25628600D02*
X151327600Y-25628600D01*
X185851800Y-23241000D02*
X183464200Y-25628600D01*
X185851800Y-22096200D02*
X185851800Y-23241000D01*
%TO.N,GND*%
X179055600Y-33604200D02*
X180771800Y-31888000D01*
X175498800Y-35306000D02*
X175498800Y-34900400D01*
X180771800Y-31888000D02*
X180771800Y-31396200D01*
X176795000Y-33604200D02*
X179055600Y-33604200D01*
X175498800Y-34900400D02*
X176795000Y-33604200D01*
D21*
%TO.N,VCC*%
X181152800Y-33629600D02*
X182041800Y-32740600D01*
X174534400Y-36907400D02*
X171994400Y-34367400D01*
D20*
X171994400Y-34367400D02*
X169251200Y-34367400D01*
D21*
X176871200Y-37058600D02*
X174534400Y-37058600D01*
D20*
X161047000Y-19151600D02*
X161047000Y-18034000D01*
X164095000Y-19227800D02*
X164095000Y-17653000D01*
X155254600Y-19151600D02*
X161047000Y-19151600D01*
D21*
X180848000Y-33629600D02*
X181152800Y-33629600D01*
X179487400Y-19431000D02*
X179487400Y-22081800D01*
X180746400Y-33629600D02*
X180797200Y-33680400D01*
D20*
X164095000Y-17653000D02*
X164145800Y-17602200D01*
D21*
X180797200Y-33680400D02*
X180249400Y-33680400D01*
D20*
X169251200Y-34367400D02*
X169200400Y-34418200D01*
D21*
X178623800Y-35306000D02*
X176871200Y-37058600D01*
D20*
X162240800Y-19227800D02*
X164095000Y-19227800D01*
X160666000Y-17653000D02*
X162240800Y-19227800D01*
D21*
X179487400Y-22081800D02*
X179501800Y-22096200D01*
X174534400Y-37058600D02*
X174534400Y-36907400D01*
X180797200Y-33680400D02*
X180848000Y-33629600D01*
D20*
X161047000Y-18034000D02*
X160666000Y-17653000D01*
D21*
X179335000Y-19278600D02*
X179487400Y-19431000D01*
X182041800Y-32740600D02*
X182041800Y-31396200D01*
X180249400Y-33680400D02*
X178623800Y-35306000D01*
D20*
X153808000Y-17705000D02*
X155254600Y-19151600D01*
%TO.N,MCP23017_IRQ*%
X180771800Y-21669449D02*
X180757400Y-21655049D01*
X180771800Y-21463000D02*
X180797200Y-21437600D01*
X180771800Y-22096200D02*
X180771800Y-21669449D01*
%TO.N,SDA*%
X176834800Y-31269200D02*
X176961800Y-31396200D01*
X169200400Y-29616400D02*
X169200400Y-31318200D01*
%TO.N,SCK*%
X177774600Y-29159200D02*
X178231800Y-29616400D01*
X171958000Y-29159200D02*
X177571400Y-29159200D01*
X177571400Y-29159200D02*
X177774600Y-29159200D01*
X178231800Y-29616400D02*
X178231800Y-31396200D01*
X171958000Y-29159200D02*
X171958000Y-31231000D01*
X171958000Y-31231000D02*
X171994400Y-31267400D01*
%TO.N,Net-(U1-A1)*%
X173823200Y-20345400D02*
X176490200Y-20345400D01*
X162087200Y-22174200D02*
X171994400Y-22174200D01*
X176490200Y-20345400D02*
X176961800Y-20817000D01*
X171994400Y-22174200D02*
X173823200Y-20345400D01*
X160539000Y-20880000D02*
X160666000Y-20753000D01*
X160666000Y-20753000D02*
X162087200Y-22174200D01*
X176961800Y-20817000D02*
X176961800Y-22096200D01*
X160666000Y-20753000D02*
X158176800Y-20753000D01*
%TO.N,Net-(U1-A2)*%
X178231800Y-19470800D02*
X177353800Y-18592800D01*
X178231800Y-22096200D02*
X178231800Y-19470800D01*
X168538800Y-20727600D02*
X166533400Y-20727600D01*
X164171200Y-20727600D02*
X164145800Y-20702200D01*
X166979600Y-21173800D02*
X166533400Y-20727600D01*
X166533400Y-20727600D02*
X164171200Y-20727600D01*
X177353800Y-18592800D02*
X170673600Y-18592800D01*
X170673600Y-18592800D02*
X168538800Y-20727600D01*
%TO.N,Net-(U1-A0)*%
X173188200Y-22936200D02*
X154417600Y-22936200D01*
X153833400Y-20830400D02*
X153808000Y-20805000D01*
X151472400Y-20805000D02*
X151471200Y-20803800D01*
X174028200Y-22096200D02*
X173188200Y-22936200D01*
X153808000Y-20805000D02*
X153808000Y-22326600D01*
X153808000Y-22326600D02*
X154417600Y-22936200D01*
X153808000Y-20805000D02*
X151472400Y-20805000D01*
X175691800Y-22096200D02*
X174028200Y-22096200D01*
%TO.N,R1_A*%
X183311800Y-22096200D02*
X183311800Y-23215600D01*
%TO.N,R1_B*%
X184581800Y-22096200D02*
X184581800Y-23215600D01*
%TO.N,R2_A*%
X187121800Y-23317200D02*
X183972200Y-26466800D01*
X183972200Y-26466800D02*
X160510550Y-26466800D01*
X160510550Y-26466800D02*
X146576750Y-40400600D01*
X187121800Y-22096200D02*
X187121800Y-23317200D01*
%TO.N,R2_B*%
X161112200Y-33515150D02*
X149226750Y-45400600D01*
X188391800Y-23393400D02*
X184226200Y-27559000D01*
X188391800Y-22096200D02*
X188391800Y-23393400D01*
X161112200Y-27559000D02*
X161112200Y-33515150D01*
X149226750Y-45400600D02*
X146576750Y-45400600D01*
X184226200Y-27559000D02*
X161112200Y-27559000D01*
%TO.N,R3_A*%
X176097900Y-40360900D02*
X176097900Y-40400600D01*
X183311800Y-31396200D02*
X183311800Y-33147000D01*
X183311800Y-33147000D02*
X176097900Y-40360900D01*
%TO.N,R3_B*%
X184581800Y-33066700D02*
X179425600Y-38222900D01*
X179425600Y-42072900D02*
X176097900Y-45400600D01*
X179425600Y-38222900D02*
X179425600Y-42072900D01*
X184581800Y-31396200D02*
X184581800Y-33066700D01*
%TO.N,SW_2*%
X184785000Y-28244800D02*
X163804600Y-28244800D01*
X189661800Y-22096200D02*
X189661800Y-23368000D01*
X189661800Y-23368000D02*
X184785000Y-28244800D01*
X163804600Y-42672750D02*
X161076750Y-45400600D01*
X163804600Y-28244800D02*
X163804600Y-42672750D01*
%TO.N,SW_3*%
X185902600Y-31447000D02*
X185902600Y-37693600D01*
X185851800Y-31396200D02*
X185902600Y-31447000D01*
X188772800Y-40563800D02*
X188772800Y-43575500D01*
X188772800Y-43575500D02*
X190597900Y-45400600D01*
X185902600Y-37693600D02*
X188772800Y-40563800D01*
%TD*%
%TA.AperFunction,Conductor*%
%TO.N,GND*%
G36*
X146419586Y-24502985D02*
G01*
X146465341Y-24555789D01*
X146475285Y-24624947D01*
X146446260Y-24688503D01*
X146440228Y-24694981D01*
X134509828Y-36625381D01*
X134448505Y-36658866D01*
X134422147Y-36661700D01*
X129684537Y-36661700D01*
X129668920Y-36659976D01*
X129668893Y-36660262D01*
X129661131Y-36659527D01*
X129592003Y-36661700D01*
X129562450Y-36661700D01*
X129561729Y-36661790D01*
X129555557Y-36662569D01*
X129549745Y-36663026D01*
X129503178Y-36664490D01*
X129503167Y-36664492D01*
X129483934Y-36670079D01*
X129464894Y-36674022D01*
X129445017Y-36676534D01*
X129445010Y-36676535D01*
X129445008Y-36676536D01*
X129445006Y-36676536D01*
X129445005Y-36676537D01*
X129401668Y-36693694D01*
X129396142Y-36695586D01*
X129351411Y-36708582D01*
X129351408Y-36708583D01*
X129334163Y-36718781D01*
X129316701Y-36727335D01*
X129298072Y-36734711D01*
X129298067Y-36734713D01*
X129260364Y-36762106D01*
X129255482Y-36765312D01*
X129215380Y-36789028D01*
X129201208Y-36803200D01*
X129186423Y-36815828D01*
X129170212Y-36827607D01*
X129140509Y-36863510D01*
X129136577Y-36867831D01*
X121265628Y-44738781D01*
X121204305Y-44772266D01*
X121177947Y-44775100D01*
X118500750Y-44775100D01*
X118433711Y-44755415D01*
X118387956Y-44702611D01*
X118387195Y-44700911D01*
X118379775Y-44683996D01*
X118243766Y-44475817D01*
X118223460Y-44453759D01*
X118075344Y-44292862D01*
X117974223Y-44214156D01*
X117933410Y-44157446D01*
X117929297Y-44127849D01*
X117314716Y-43513269D01*
X117281231Y-43451946D01*
X117286215Y-43382255D01*
X117323240Y-43332793D01*
X117321998Y-43331359D01*
X117328700Y-43325552D01*
X117437361Y-43231398D01*
X117472554Y-43176637D01*
X117525355Y-43130883D01*
X117594514Y-43120939D01*
X117658070Y-43149963D01*
X117664549Y-43155996D01*
X118279034Y-43770482D01*
X118379331Y-43616969D01*
X118479187Y-43389317D01*
X118540212Y-43148338D01*
X118540214Y-43148329D01*
X118560741Y-42900605D01*
X118560741Y-42900594D01*
X118540214Y-42652870D01*
X118540212Y-42652861D01*
X118479187Y-42411882D01*
X118379332Y-42184232D01*
X118267115Y-42012470D01*
X118246928Y-41945581D01*
X118266108Y-41878395D01*
X118296613Y-41845382D01*
X118297929Y-41844396D01*
X118297931Y-41844396D01*
X118413146Y-41758146D01*
X118499396Y-41642931D01*
X118549691Y-41508083D01*
X118556100Y-41448473D01*
X118556099Y-39352728D01*
X118549691Y-39293117D01*
X118506378Y-39176990D01*
X118499397Y-39158271D01*
X118499393Y-39158264D01*
X118413147Y-39043055D01*
X118413144Y-39043052D01*
X118297935Y-38956806D01*
X118297928Y-38956802D01*
X118163082Y-38906508D01*
X118163083Y-38906508D01*
X118103483Y-38900101D01*
X118103481Y-38900100D01*
X118103473Y-38900100D01*
X118103465Y-38900100D01*
X117805100Y-38900100D01*
X117738061Y-38880415D01*
X117692306Y-38827611D01*
X117681100Y-38776100D01*
X117681100Y-38348470D01*
X122455100Y-38348470D01*
X122455101Y-38348476D01*
X122461508Y-38408083D01*
X122511802Y-38542928D01*
X122511806Y-38542935D01*
X122598052Y-38658144D01*
X122598055Y-38658147D01*
X122713264Y-38744393D01*
X122713271Y-38744397D01*
X122848117Y-38794691D01*
X122848116Y-38794691D01*
X122855044Y-38795435D01*
X122907727Y-38801100D01*
X126203472Y-38801099D01*
X126263083Y-38794691D01*
X126397931Y-38744396D01*
X126513146Y-38658146D01*
X126599396Y-38542931D01*
X126649691Y-38408083D01*
X126656100Y-38348473D01*
X126656099Y-36252728D01*
X126649691Y-36193117D01*
X126616224Y-36103388D01*
X126599397Y-36058271D01*
X126599393Y-36058264D01*
X126513147Y-35943055D01*
X126513144Y-35943052D01*
X126397935Y-35856806D01*
X126397928Y-35856802D01*
X126263082Y-35806508D01*
X126263083Y-35806508D01*
X126203483Y-35800101D01*
X126203481Y-35800100D01*
X126203473Y-35800100D01*
X126203464Y-35800100D01*
X122907729Y-35800100D01*
X122907723Y-35800101D01*
X122848116Y-35806508D01*
X122713271Y-35856802D01*
X122713264Y-35856806D01*
X122598055Y-35943052D01*
X122598052Y-35943055D01*
X122511806Y-36058264D01*
X122511802Y-36058271D01*
X122461508Y-36193117D01*
X122456321Y-36241370D01*
X122455101Y-36252723D01*
X122455100Y-36252735D01*
X122455100Y-38348470D01*
X117681100Y-38348470D01*
X117681100Y-34125100D01*
X117700785Y-34058061D01*
X117753589Y-34012306D01*
X117805100Y-34001100D01*
X134624457Y-34001100D01*
X134640077Y-34002824D01*
X134640104Y-34002539D01*
X134647860Y-34003271D01*
X134647867Y-34003273D01*
X134717014Y-34001100D01*
X134746550Y-34001100D01*
X134753428Y-34000230D01*
X134759241Y-33999772D01*
X134805827Y-33998309D01*
X134825069Y-33992717D01*
X134844112Y-33988774D01*
X134863992Y-33986264D01*
X134907322Y-33969107D01*
X134912846Y-33967217D01*
X134916596Y-33966127D01*
X134957590Y-33954218D01*
X134974829Y-33944022D01*
X134992303Y-33935462D01*
X135010927Y-33928088D01*
X135010927Y-33928087D01*
X135010932Y-33928086D01*
X135048649Y-33900682D01*
X135053505Y-33897492D01*
X135093620Y-33873770D01*
X135107789Y-33859599D01*
X135122579Y-33846968D01*
X135138787Y-33835194D01*
X135168499Y-33799276D01*
X135172412Y-33794976D01*
X144447771Y-24519619D01*
X144509095Y-24486134D01*
X144535453Y-24483300D01*
X146352547Y-24483300D01*
X146419586Y-24502985D01*
G37*
%TD.AperFunction*%
%TA.AperFunction,Conductor*%
G36*
X151902936Y-36061516D02*
G01*
X151958869Y-36103388D01*
X151983286Y-36168852D01*
X151982892Y-36190952D01*
X151982659Y-36193116D01*
X151982659Y-36193117D01*
X151976250Y-36252727D01*
X151976250Y-36252728D01*
X151976250Y-36252732D01*
X151976250Y-38348470D01*
X151976251Y-38348476D01*
X151982658Y-38408083D01*
X152032952Y-38542928D01*
X152032956Y-38542935D01*
X152119202Y-38658144D01*
X152119205Y-38658147D01*
X152234414Y-38744393D01*
X152234421Y-38744397D01*
X152369267Y-38794691D01*
X152369266Y-38794691D01*
X152376194Y-38795435D01*
X152428877Y-38801100D01*
X154642297Y-38801099D01*
X154709336Y-38820784D01*
X154755091Y-38873587D01*
X154765035Y-38942746D01*
X154736010Y-39006302D01*
X154729978Y-39012780D01*
X149003978Y-44738781D01*
X148942655Y-44772266D01*
X148916297Y-44775100D01*
X148021900Y-44775100D01*
X147954861Y-44755415D01*
X147909106Y-44702611D01*
X147908345Y-44700911D01*
X147900925Y-44683996D01*
X147764916Y-44475817D01*
X147744610Y-44453759D01*
X147596494Y-44292862D01*
X147495373Y-44214156D01*
X147454560Y-44157446D01*
X147450447Y-44127849D01*
X146835866Y-43513269D01*
X146802381Y-43451946D01*
X146807365Y-43382255D01*
X146844390Y-43332793D01*
X146843148Y-43331359D01*
X146849850Y-43325552D01*
X146958511Y-43231398D01*
X146993704Y-43176637D01*
X147046505Y-43130883D01*
X147115664Y-43120939D01*
X147179220Y-43149963D01*
X147185699Y-43155996D01*
X147800184Y-43770482D01*
X147900481Y-43616969D01*
X148000337Y-43389317D01*
X148061362Y-43148338D01*
X148061364Y-43148329D01*
X148081891Y-42900605D01*
X148081891Y-42900594D01*
X148061364Y-42652870D01*
X148061362Y-42652861D01*
X148000337Y-42411882D01*
X147900482Y-42184232D01*
X147788265Y-42012470D01*
X147768078Y-41945581D01*
X147787258Y-41878395D01*
X147817763Y-41845382D01*
X147819079Y-41844396D01*
X147819081Y-41844396D01*
X147934296Y-41758146D01*
X148020546Y-41642931D01*
X148070841Y-41508083D01*
X148077250Y-41448473D01*
X148077249Y-39836050D01*
X148096934Y-39769012D01*
X148113563Y-39748375D01*
X151771923Y-36090015D01*
X151833244Y-36056532D01*
X151902936Y-36061516D01*
G37*
%TD.AperFunction*%
%TA.AperFunction,Conductor*%
G36*
X204061590Y-41045785D02*
G01*
X204107345Y-41098589D01*
X204118551Y-41150100D01*
X204118551Y-41448476D01*
X204124958Y-41508083D01*
X204175252Y-41642928D01*
X204175256Y-41642935D01*
X204261502Y-41758144D01*
X204261505Y-41758147D01*
X204378036Y-41845383D01*
X204419907Y-41901317D01*
X204424891Y-41971008D01*
X204407534Y-42012470D01*
X204295317Y-42184231D01*
X204195462Y-42411882D01*
X204134437Y-42652861D01*
X204134435Y-42652870D01*
X204113909Y-42900594D01*
X204113909Y-42900605D01*
X204134435Y-43148329D01*
X204134437Y-43148338D01*
X204195462Y-43389317D01*
X204295316Y-43616964D01*
X204395614Y-43770482D01*
X205010100Y-43155995D01*
X205071423Y-43122510D01*
X205141114Y-43127494D01*
X205197048Y-43169365D01*
X205202089Y-43176625D01*
X205237289Y-43231398D01*
X205335398Y-43316409D01*
X205352652Y-43331359D01*
X205350343Y-43334022D01*
X205385056Y-43374099D01*
X205394985Y-43443260D01*
X205365948Y-43506810D01*
X205359932Y-43513269D01*
X204743150Y-44130050D01*
X204732532Y-44176748D01*
X204700426Y-44214156D01*
X204599305Y-44292862D01*
X204430883Y-44475817D01*
X204294874Y-44683996D01*
X204287455Y-44700911D01*
X204242499Y-44754397D01*
X204175763Y-44775086D01*
X204173900Y-44775100D01*
X198401453Y-44775100D01*
X198334414Y-44755415D01*
X198313772Y-44738781D01*
X194812772Y-41237781D01*
X194779287Y-41176458D01*
X194784271Y-41106766D01*
X194826143Y-41050833D01*
X194891607Y-41026416D01*
X194900453Y-41026100D01*
X203994551Y-41026100D01*
X204061590Y-41045785D01*
G37*
%TD.AperFunction*%
%TA.AperFunction,Conductor*%
G36*
X116577664Y-43127494D02*
G01*
X116633598Y-43169365D01*
X116638639Y-43176625D01*
X116673839Y-43231398D01*
X116771948Y-43316409D01*
X116789202Y-43331359D01*
X116786893Y-43334022D01*
X116821606Y-43374099D01*
X116831535Y-43443260D01*
X116802498Y-43506810D01*
X116796482Y-43513269D01*
X116179700Y-44130050D01*
X116169082Y-44176748D01*
X116136976Y-44214156D01*
X116035855Y-44292862D01*
X115939130Y-44397935D01*
X115879243Y-44433925D01*
X115809405Y-44431825D01*
X115751788Y-44392301D01*
X115724687Y-44327902D01*
X115723900Y-44313952D01*
X115723900Y-43896779D01*
X115743585Y-43829740D01*
X115796389Y-43783985D01*
X115823030Y-43779616D01*
X116446650Y-43155995D01*
X116507973Y-43122510D01*
X116577664Y-43127494D01*
G37*
%TD.AperFunction*%
%TA.AperFunction,Conductor*%
G36*
X186733303Y-34927938D02*
G01*
X186739766Y-34933956D01*
X188621638Y-36815828D01*
X190502777Y-38696967D01*
X190536262Y-38758290D01*
X190531278Y-38827982D01*
X190489406Y-38883915D01*
X190435506Y-38906957D01*
X190228406Y-38941516D01*
X189993296Y-39022230D01*
X189993290Y-39022232D01*
X189774661Y-39140549D01*
X189727842Y-39176988D01*
X189727842Y-39176990D01*
X190338783Y-39787930D01*
X190372268Y-39849253D01*
X190367284Y-39918944D01*
X190330258Y-39968405D01*
X190331502Y-39969841D01*
X190216138Y-40069802D01*
X190180946Y-40124562D01*
X190128142Y-40170317D01*
X190058983Y-40180260D01*
X189995428Y-40151234D01*
X189988950Y-40145203D01*
X189374464Y-39530716D01*
X189274167Y-39684232D01*
X189195736Y-39863038D01*
X189150780Y-39916524D01*
X189084044Y-39937214D01*
X189016716Y-39918539D01*
X188994499Y-39900909D01*
X187851880Y-38758290D01*
X186564419Y-37470828D01*
X186530934Y-37409505D01*
X186528100Y-37383147D01*
X186528100Y-35021651D01*
X186547785Y-34954612D01*
X186600589Y-34908857D01*
X186669747Y-34898913D01*
X186733303Y-34927938D01*
G37*
%TD.AperFunction*%
%TA.AperFunction,Conductor*%
G36*
X150153316Y-16520185D02*
G01*
X150199071Y-16572989D01*
X150209015Y-16642147D01*
X150179990Y-16705703D01*
X150173958Y-16712181D01*
X150152284Y-16733854D01*
X150060243Y-16883075D01*
X150060241Y-16883080D01*
X150005094Y-17049502D01*
X150005093Y-17049509D01*
X149994600Y-17152213D01*
X149994600Y-17352200D01*
X151495600Y-17352200D01*
X151562639Y-17371885D01*
X151608394Y-17424689D01*
X151619600Y-17476200D01*
X151619600Y-18752199D01*
X152044572Y-18752199D01*
X152044586Y-18752198D01*
X152147297Y-18741705D01*
X152313719Y-18686558D01*
X152313724Y-18686556D01*
X152462946Y-18594515D01*
X152475360Y-18582100D01*
X152536681Y-18548611D01*
X152606373Y-18553592D01*
X152650727Y-18582095D01*
X152765144Y-18696512D01*
X152914466Y-18788614D01*
X153081003Y-18843799D01*
X153183791Y-18854300D01*
X154021346Y-18854299D01*
X154088385Y-18873983D01*
X154109027Y-18890618D01*
X154663694Y-19445285D01*
X154697179Y-19506608D01*
X154692195Y-19576300D01*
X154650323Y-19632233D01*
X154584859Y-19656650D01*
X154563410Y-19656324D01*
X154533810Y-19653300D01*
X153183798Y-19653300D01*
X153183781Y-19653301D01*
X153081003Y-19663800D01*
X153081000Y-19663801D01*
X152914468Y-19718985D01*
X152914463Y-19718987D01*
X152765139Y-19811091D01*
X152752675Y-19823555D01*
X152691350Y-19857037D01*
X152621659Y-19852048D01*
X152577318Y-19823550D01*
X152463257Y-19709489D01*
X152463257Y-19709488D01*
X152463256Y-19709488D01*
X152355113Y-19642785D01*
X152313936Y-19617387D01*
X152313931Y-19617385D01*
X152263959Y-19600826D01*
X152147397Y-19562201D01*
X152147395Y-19562200D01*
X152044610Y-19551700D01*
X150694598Y-19551700D01*
X150694581Y-19551701D01*
X150591803Y-19562200D01*
X150591800Y-19562201D01*
X150425268Y-19617385D01*
X150425263Y-19617387D01*
X150275942Y-19709489D01*
X150151889Y-19833542D01*
X150059787Y-19982863D01*
X150059785Y-19982868D01*
X150041732Y-20037348D01*
X150004601Y-20149403D01*
X150004601Y-20149404D01*
X150004600Y-20149404D01*
X149994100Y-20252183D01*
X149994100Y-21152201D01*
X149994101Y-21152219D01*
X150004600Y-21254996D01*
X150004601Y-21254999D01*
X150059785Y-21421531D01*
X150059787Y-21421536D01*
X150091494Y-21472941D01*
X150151888Y-21570856D01*
X150275944Y-21694912D01*
X150425266Y-21787014D01*
X150591803Y-21842199D01*
X150694591Y-21852700D01*
X152044608Y-21852699D01*
X152147397Y-21842199D01*
X152313934Y-21787014D01*
X152463256Y-21694912D01*
X152475717Y-21682449D01*
X152537038Y-21648965D01*
X152606730Y-21653947D01*
X152651081Y-21682448D01*
X152765144Y-21796512D01*
X152914466Y-21888614D01*
X153081003Y-21943799D01*
X153081008Y-21943799D01*
X153084459Y-21944539D01*
X153086383Y-21945581D01*
X153087429Y-21945928D01*
X153087367Y-21946114D01*
X153145892Y-21977822D01*
X153179579Y-22039035D01*
X153182500Y-22065791D01*
X153182500Y-22243855D01*
X153180775Y-22259472D01*
X153181061Y-22259499D01*
X153180326Y-22267265D01*
X153182500Y-22336414D01*
X153182500Y-22365943D01*
X153182501Y-22365960D01*
X153183368Y-22372831D01*
X153183826Y-22378650D01*
X153185290Y-22425224D01*
X153185291Y-22425227D01*
X153190880Y-22444467D01*
X153194824Y-22463511D01*
X153197046Y-22481093D01*
X153197336Y-22483391D01*
X153214490Y-22526719D01*
X153216382Y-22532247D01*
X153229381Y-22576988D01*
X153239580Y-22594234D01*
X153248138Y-22611703D01*
X153255514Y-22630332D01*
X153282898Y-22668023D01*
X153286106Y-22672907D01*
X153309827Y-22713016D01*
X153309833Y-22713024D01*
X153323990Y-22727180D01*
X153336628Y-22741976D01*
X153348405Y-22758186D01*
X153348406Y-22758187D01*
X153384309Y-22787888D01*
X153388620Y-22791810D01*
X153540911Y-22944101D01*
X153617429Y-23020619D01*
X153650914Y-23081942D01*
X153645930Y-23151634D01*
X153604058Y-23207567D01*
X153538594Y-23231984D01*
X153529748Y-23232300D01*
X144307743Y-23232300D01*
X144292122Y-23230575D01*
X144292096Y-23230861D01*
X144284334Y-23230127D01*
X144284333Y-23230127D01*
X144215186Y-23232300D01*
X144185649Y-23232300D01*
X144178766Y-23233169D01*
X144172949Y-23233626D01*
X144126373Y-23235090D01*
X144107129Y-23240681D01*
X144088079Y-23244625D01*
X144068211Y-23247134D01*
X144024884Y-23264288D01*
X144019358Y-23266179D01*
X143974614Y-23279179D01*
X143974610Y-23279181D01*
X143957366Y-23289379D01*
X143939905Y-23297933D01*
X143921274Y-23305310D01*
X143921262Y-23305317D01*
X143883570Y-23332702D01*
X143878687Y-23335909D01*
X143838580Y-23359629D01*
X143824414Y-23373795D01*
X143809624Y-23386427D01*
X143793414Y-23398204D01*
X143793411Y-23398207D01*
X143763710Y-23434109D01*
X143759777Y-23438431D01*
X134484428Y-32713781D01*
X134423105Y-32747266D01*
X134396747Y-32750100D01*
X117126447Y-32750100D01*
X117103215Y-32747904D01*
X117095188Y-32746373D01*
X117095186Y-32746373D01*
X117086233Y-32746936D01*
X117037875Y-32749978D01*
X117034003Y-32750100D01*
X117016243Y-32750100D01*
X116998632Y-32752325D01*
X116994764Y-32752690D01*
X116962975Y-32754690D01*
X116937459Y-32756296D01*
X116929685Y-32758822D01*
X116906920Y-32763910D01*
X116898818Y-32764933D01*
X116898805Y-32764937D01*
X116845410Y-32786077D01*
X116841754Y-32787392D01*
X116787159Y-32805133D01*
X116787156Y-32805134D01*
X116780252Y-32809515D01*
X116759480Y-32820099D01*
X116751873Y-32823111D01*
X116751862Y-32823117D01*
X116705414Y-32856863D01*
X116702195Y-32859051D01*
X116653723Y-32889813D01*
X116653720Y-32889816D01*
X116648129Y-32895770D01*
X116630629Y-32911199D01*
X116624013Y-32916005D01*
X116624012Y-32916006D01*
X116587412Y-32960246D01*
X116584838Y-32963165D01*
X116545537Y-33005017D01*
X116545535Y-33005020D01*
X116541594Y-33012189D01*
X116528489Y-33031473D01*
X116523277Y-33037773D01*
X116523274Y-33037778D01*
X116498831Y-33089721D01*
X116497064Y-33093189D01*
X116469404Y-33143503D01*
X116469403Y-33143508D01*
X116467369Y-33151428D01*
X116459470Y-33173368D01*
X116455986Y-33180772D01*
X116455984Y-33180778D01*
X116445229Y-33237161D01*
X116444379Y-33240961D01*
X116430100Y-33296576D01*
X116430100Y-33304752D01*
X116427905Y-33327979D01*
X116426373Y-33336012D01*
X116429978Y-33393324D01*
X116430100Y-33397195D01*
X116430100Y-38776100D01*
X116410415Y-38843139D01*
X116357611Y-38888894D01*
X116306100Y-38900100D01*
X116007730Y-38900100D01*
X116007723Y-38900101D01*
X115948116Y-38906508D01*
X115891233Y-38927725D01*
X115821541Y-38932709D01*
X115760218Y-38899224D01*
X115726734Y-38837900D01*
X115723900Y-38811543D01*
X115723900Y-23805452D01*
X115743585Y-23738413D01*
X115760219Y-23717771D01*
X119913572Y-19564419D01*
X119974895Y-19530934D01*
X120001253Y-19528100D01*
X122565773Y-19528100D01*
X122632812Y-19547785D01*
X122667348Y-19580977D01*
X122802501Y-19773996D01*
X122802506Y-19774002D01*
X122969597Y-19941093D01*
X122969603Y-19941098D01*
X123155158Y-20071025D01*
X123198783Y-20125602D01*
X123205977Y-20195100D01*
X123174454Y-20257455D01*
X123155158Y-20274175D01*
X122969597Y-20404105D01*
X122802505Y-20571197D01*
X122666965Y-20764769D01*
X122666964Y-20764771D01*
X122567098Y-20978935D01*
X122567094Y-20978944D01*
X122505938Y-21207186D01*
X122505936Y-21207196D01*
X122485341Y-21442599D01*
X122485341Y-21442600D01*
X122505936Y-21678003D01*
X122505938Y-21678013D01*
X122567094Y-21906255D01*
X122567096Y-21906259D01*
X122567097Y-21906263D01*
X122656173Y-22097286D01*
X122666965Y-22120430D01*
X122666967Y-22120434D01*
X122753388Y-22243855D01*
X122802501Y-22313996D01*
X122802506Y-22314002D01*
X122969597Y-22481093D01*
X122969603Y-22481098D01*
X123155158Y-22611025D01*
X123198783Y-22665602D01*
X123205977Y-22735100D01*
X123174454Y-22797455D01*
X123155158Y-22814175D01*
X122969597Y-22944105D01*
X122802505Y-23111197D01*
X122666965Y-23304769D01*
X122666964Y-23304771D01*
X122567098Y-23518935D01*
X122567094Y-23518944D01*
X122505938Y-23747186D01*
X122505936Y-23747196D01*
X122485341Y-23982599D01*
X122485341Y-23982600D01*
X122505936Y-24218003D01*
X122505938Y-24218013D01*
X122567094Y-24446255D01*
X122567096Y-24446259D01*
X122567097Y-24446263D01*
X122593547Y-24502985D01*
X122666965Y-24660430D01*
X122666967Y-24660434D01*
X122775281Y-24815121D01*
X122802501Y-24853996D01*
X122802506Y-24854002D01*
X122969597Y-25021093D01*
X122969603Y-25021098D01*
X123155158Y-25151025D01*
X123198783Y-25205602D01*
X123205977Y-25275100D01*
X123174454Y-25337455D01*
X123155158Y-25354175D01*
X122969597Y-25484105D01*
X122802505Y-25651197D01*
X122666965Y-25844769D01*
X122666964Y-25844771D01*
X122567098Y-26058935D01*
X122567094Y-26058944D01*
X122505938Y-26287186D01*
X122505936Y-26287196D01*
X122485341Y-26522599D01*
X122485341Y-26522600D01*
X122505936Y-26758003D01*
X122505938Y-26758013D01*
X122567094Y-26986255D01*
X122567096Y-26986259D01*
X122567097Y-26986263D01*
X122650155Y-27164381D01*
X122666965Y-27200430D01*
X122666967Y-27200434D01*
X122764033Y-27339057D01*
X122802501Y-27393996D01*
X122802506Y-27394002D01*
X122969597Y-27561093D01*
X122969603Y-27561098D01*
X123155158Y-27691025D01*
X123198783Y-27745602D01*
X123205977Y-27815100D01*
X123174454Y-27877455D01*
X123155158Y-27894175D01*
X122969597Y-28024105D01*
X122802505Y-28191197D01*
X122666965Y-28384769D01*
X122666964Y-28384771D01*
X122567098Y-28598935D01*
X122567094Y-28598944D01*
X122505938Y-28827186D01*
X122505936Y-28827196D01*
X122485341Y-29062599D01*
X122485341Y-29062600D01*
X122505936Y-29298003D01*
X122505938Y-29298013D01*
X122567094Y-29526255D01*
X122567096Y-29526259D01*
X122567097Y-29526263D01*
X122644109Y-29691416D01*
X122666965Y-29740430D01*
X122666967Y-29740434D01*
X122749209Y-29857887D01*
X122802505Y-29934001D01*
X122969599Y-30101095D01*
X123007168Y-30127401D01*
X123163165Y-30236632D01*
X123163167Y-30236633D01*
X123163170Y-30236635D01*
X123377337Y-30336503D01*
X123377343Y-30336504D01*
X123377344Y-30336505D01*
X123423365Y-30348836D01*
X123605592Y-30397663D01*
X123793918Y-30414139D01*
X123840999Y-30418259D01*
X123841000Y-30418259D01*
X123841001Y-30418259D01*
X123880234Y-30414826D01*
X124076408Y-30397663D01*
X124304663Y-30336503D01*
X124518830Y-30236635D01*
X124712401Y-30101095D01*
X124879495Y-29934001D01*
X125009424Y-29748442D01*
X125064002Y-29704817D01*
X125133500Y-29697623D01*
X125195855Y-29729146D01*
X125212575Y-29748442D01*
X125342500Y-29933995D01*
X125342505Y-29934001D01*
X125509599Y-30101095D01*
X125547168Y-30127401D01*
X125703165Y-30236632D01*
X125703167Y-30236633D01*
X125703170Y-30236635D01*
X125917337Y-30336503D01*
X125917343Y-30336504D01*
X125917344Y-30336505D01*
X125963365Y-30348836D01*
X126145592Y-30397663D01*
X126333918Y-30414139D01*
X126380999Y-30418259D01*
X126381000Y-30418259D01*
X126381001Y-30418259D01*
X126420234Y-30414826D01*
X126616408Y-30397663D01*
X126844663Y-30336503D01*
X127058830Y-30236635D01*
X127252401Y-30101095D01*
X127419495Y-29934001D01*
X127555035Y-29740430D01*
X127654903Y-29526263D01*
X127716063Y-29298008D01*
X127736659Y-29062600D01*
X127716063Y-28827192D01*
X127654903Y-28598937D01*
X127555035Y-28384771D01*
X127549425Y-28376758D01*
X127419494Y-28191197D01*
X127252402Y-28024106D01*
X127252401Y-28024105D01*
X127066405Y-27893869D01*
X127022781Y-27839292D01*
X127015588Y-27769793D01*
X127047110Y-27707439D01*
X127066405Y-27690719D01*
X127252082Y-27560705D01*
X127419105Y-27393682D01*
X127554600Y-27200178D01*
X127654429Y-26986092D01*
X127654432Y-26986086D01*
X127711636Y-26772600D01*
X126994347Y-26772600D01*
X126927308Y-26752915D01*
X126881553Y-26700111D01*
X126871609Y-26630953D01*
X126875369Y-26613667D01*
X126881000Y-26594488D01*
X126881000Y-26450711D01*
X126875369Y-26431533D01*
X126875370Y-26361664D01*
X126913145Y-26302886D01*
X126976701Y-26273862D01*
X126994347Y-26272600D01*
X127711636Y-26272600D01*
X127711635Y-26272599D01*
X127654432Y-26059113D01*
X127654429Y-26059107D01*
X127554600Y-25845022D01*
X127554599Y-25845020D01*
X127419113Y-25651526D01*
X127419108Y-25651520D01*
X127252078Y-25484490D01*
X127066405Y-25354479D01*
X127022780Y-25299902D01*
X127015588Y-25230404D01*
X127047110Y-25168049D01*
X127066406Y-25151330D01*
X127066842Y-25151025D01*
X127252401Y-25021095D01*
X127419495Y-24854001D01*
X127555035Y-24660430D01*
X127654903Y-24446263D01*
X127716063Y-24218008D01*
X127736659Y-23982600D01*
X127716063Y-23747192D01*
X127657176Y-23527421D01*
X127654905Y-23518944D01*
X127654904Y-23518943D01*
X127654903Y-23518937D01*
X127555035Y-23304771D01*
X127552192Y-23300710D01*
X127419494Y-23111197D01*
X127252402Y-22944106D01*
X127252396Y-22944101D01*
X127066842Y-22814175D01*
X127023217Y-22759598D01*
X127016023Y-22690100D01*
X127047546Y-22627745D01*
X127066842Y-22611025D01*
X127179348Y-22532247D01*
X127252401Y-22481095D01*
X127419495Y-22314001D01*
X127555035Y-22120430D01*
X127654903Y-21906263D01*
X127716063Y-21678008D01*
X127736659Y-21442600D01*
X127716063Y-21207192D01*
X127654903Y-20978937D01*
X127555035Y-20764771D01*
X127549424Y-20756758D01*
X127419496Y-20571200D01*
X127361564Y-20513268D01*
X127297567Y-20449271D01*
X127264084Y-20387951D01*
X127269068Y-20318259D01*
X127310939Y-20262325D01*
X127341915Y-20245410D01*
X127473331Y-20196396D01*
X127588546Y-20110146D01*
X127674796Y-19994931D01*
X127725091Y-19860083D01*
X127731500Y-19800473D01*
X127731500Y-19652099D01*
X127751185Y-19585061D01*
X127803989Y-19539306D01*
X127855500Y-19528100D01*
X142595057Y-19528100D01*
X142610677Y-19529824D01*
X142610704Y-19529539D01*
X142618460Y-19530271D01*
X142618467Y-19530273D01*
X142687614Y-19528100D01*
X142717150Y-19528100D01*
X142724028Y-19527230D01*
X142729841Y-19526772D01*
X142776427Y-19525309D01*
X142795669Y-19519717D01*
X142814712Y-19515774D01*
X142834592Y-19513264D01*
X142877922Y-19496107D01*
X142883446Y-19494217D01*
X142899947Y-19489423D01*
X142928190Y-19481218D01*
X142945429Y-19471022D01*
X142962903Y-19462462D01*
X142981527Y-19455088D01*
X142981527Y-19455087D01*
X142981532Y-19455086D01*
X143019249Y-19427682D01*
X143024105Y-19424492D01*
X143064220Y-19400770D01*
X143078389Y-19386599D01*
X143093179Y-19373968D01*
X143109387Y-19362194D01*
X143139099Y-19326276D01*
X143143012Y-19321976D01*
X144612789Y-17852200D01*
X149994601Y-17852200D01*
X149994601Y-18052186D01*
X150005094Y-18154897D01*
X150060241Y-18321319D01*
X150060243Y-18321324D01*
X150152284Y-18470545D01*
X150276254Y-18594515D01*
X150425475Y-18686556D01*
X150425480Y-18686558D01*
X150591902Y-18741705D01*
X150591909Y-18741706D01*
X150694619Y-18752199D01*
X151119599Y-18752199D01*
X151119600Y-18752198D01*
X151119600Y-17852200D01*
X149994601Y-17852200D01*
X144612789Y-17852200D01*
X145928171Y-16536819D01*
X145989495Y-16503334D01*
X146015853Y-16500500D01*
X150086277Y-16500500D01*
X150153316Y-16520185D01*
G37*
%TD.AperFunction*%
%TA.AperFunction,Conductor*%
G36*
X177542187Y-16520185D02*
G01*
X177562829Y-16536819D01*
X179213914Y-18187905D01*
X179247399Y-18249228D01*
X179242415Y-18318920D01*
X179200543Y-18374853D01*
X179152015Y-18396876D01*
X179055196Y-18417456D01*
X179055192Y-18417457D01*
X178882270Y-18494448D01*
X178882265Y-18494451D01*
X178729129Y-18605711D01*
X178602461Y-18746390D01*
X178599219Y-18750852D01*
X178543884Y-18793512D01*
X178474270Y-18799484D01*
X178412479Y-18766871D01*
X178411228Y-18765637D01*
X177854603Y-18209012D01*
X177844780Y-18196750D01*
X177844559Y-18196934D01*
X177839586Y-18190923D01*
X177836372Y-18187905D01*
X177789164Y-18143573D01*
X177778719Y-18133128D01*
X177768275Y-18122683D01*
X177762786Y-18118425D01*
X177758361Y-18114647D01*
X177724382Y-18082738D01*
X177724380Y-18082736D01*
X177724377Y-18082735D01*
X177706829Y-18073088D01*
X177690563Y-18062404D01*
X177674733Y-18050125D01*
X177631968Y-18031618D01*
X177626722Y-18029048D01*
X177585893Y-18006603D01*
X177585892Y-18006602D01*
X177566493Y-18001622D01*
X177548081Y-17995318D01*
X177529698Y-17987362D01*
X177529692Y-17987360D01*
X177483674Y-17980072D01*
X177477952Y-17978887D01*
X177432821Y-17967300D01*
X177432819Y-17967300D01*
X177412784Y-17967300D01*
X177393386Y-17965773D01*
X177385962Y-17964597D01*
X177373605Y-17962640D01*
X177373604Y-17962640D01*
X177327216Y-17967025D01*
X177321378Y-17967300D01*
X170756338Y-17967300D01*
X170740721Y-17965576D01*
X170740694Y-17965862D01*
X170732932Y-17965127D01*
X170663804Y-17967300D01*
X170634250Y-17967300D01*
X170633529Y-17967390D01*
X170627357Y-17968169D01*
X170621545Y-17968626D01*
X170574973Y-17970090D01*
X170574972Y-17970090D01*
X170555729Y-17975681D01*
X170536679Y-17979625D01*
X170516811Y-17982134D01*
X170516809Y-17982135D01*
X170473484Y-17999288D01*
X170467957Y-18001180D01*
X170423210Y-18014181D01*
X170423209Y-18014182D01*
X170405967Y-18024379D01*
X170388499Y-18032937D01*
X170369869Y-18040313D01*
X170369867Y-18040314D01*
X170332176Y-18067698D01*
X170327294Y-18070905D01*
X170287179Y-18094630D01*
X170273008Y-18108800D01*
X170258223Y-18121428D01*
X170242012Y-18133207D01*
X170212309Y-18169110D01*
X170208377Y-18173431D01*
X168316028Y-20065781D01*
X168254705Y-20099266D01*
X168228347Y-20102100D01*
X167989249Y-20102100D01*
X167922210Y-20082415D01*
X167876455Y-20029611D01*
X167871544Y-20017107D01*
X167868614Y-20008267D01*
X167868614Y-20008266D01*
X167776512Y-19858944D01*
X167652456Y-19734888D01*
X167558671Y-19677041D01*
X167503136Y-19642787D01*
X167503131Y-19642785D01*
X167471287Y-19632233D01*
X167336597Y-19587601D01*
X167336595Y-19587600D01*
X167233810Y-19577100D01*
X165883798Y-19577100D01*
X165883781Y-19577101D01*
X165781003Y-19587600D01*
X165781000Y-19587601D01*
X165614468Y-19642785D01*
X165614463Y-19642787D01*
X165465144Y-19734888D01*
X165439980Y-19760052D01*
X165378656Y-19793536D01*
X165308965Y-19788550D01*
X165271002Y-19764155D01*
X165270519Y-19764766D01*
X165264858Y-19760290D01*
X165264856Y-19760288D01*
X165150418Y-19689702D01*
X165115536Y-19668187D01*
X165115531Y-19668185D01*
X165095846Y-19661662D01*
X164948997Y-19613001D01*
X164948995Y-19613000D01*
X164846216Y-19602500D01*
X164846209Y-19602500D01*
X164805365Y-19602500D01*
X164738326Y-19582815D01*
X164692571Y-19530011D01*
X164682627Y-19460853D01*
X164693165Y-19425705D01*
X164693176Y-19425680D01*
X164694614Y-19422626D01*
X164705377Y-19366201D01*
X164706210Y-19362470D01*
X164720500Y-19306819D01*
X164720500Y-19298643D01*
X164722697Y-19275406D01*
X164724227Y-19267388D01*
X164720621Y-19210075D01*
X164720500Y-19206203D01*
X164720500Y-18927499D01*
X164740185Y-18860460D01*
X164792989Y-18814705D01*
X164843066Y-18803810D01*
X164843059Y-18803659D01*
X164843980Y-18803612D01*
X164844500Y-18803499D01*
X164846202Y-18803499D01*
X164846208Y-18803499D01*
X164948997Y-18792999D01*
X165115534Y-18737814D01*
X165264856Y-18645712D01*
X165290371Y-18620196D01*
X165351691Y-18586711D01*
X165421383Y-18591693D01*
X165459301Y-18616060D01*
X165459793Y-18615439D01*
X165465453Y-18619915D01*
X165614675Y-18711956D01*
X165614680Y-18711958D01*
X165781102Y-18767105D01*
X165781109Y-18767106D01*
X165883819Y-18777599D01*
X166308799Y-18777599D01*
X166308800Y-18777598D01*
X166308800Y-17877600D01*
X166808800Y-17877600D01*
X166808800Y-18777599D01*
X167233772Y-18777599D01*
X167233786Y-18777598D01*
X167336497Y-18767105D01*
X167502919Y-18711958D01*
X167502924Y-18711956D01*
X167652145Y-18619915D01*
X167776115Y-18495945D01*
X167868156Y-18346724D01*
X167868158Y-18346719D01*
X167923305Y-18180297D01*
X167923306Y-18180290D01*
X167933799Y-18077586D01*
X167933800Y-18077573D01*
X167933800Y-17877600D01*
X166808800Y-17877600D01*
X166308800Y-17877600D01*
X166308800Y-17501600D01*
X166328485Y-17434561D01*
X166381289Y-17388806D01*
X166432800Y-17377600D01*
X167933799Y-17377600D01*
X167933799Y-17177628D01*
X167933798Y-17177613D01*
X167923305Y-17074902D01*
X167868158Y-16908480D01*
X167868156Y-16908475D01*
X167776115Y-16759254D01*
X167729042Y-16712181D01*
X167695557Y-16650858D01*
X167700541Y-16581166D01*
X167742413Y-16525233D01*
X167807877Y-16500816D01*
X167816723Y-16500500D01*
X177475148Y-16500500D01*
X177542187Y-16520185D01*
G37*
%TD.AperFunction*%
%TA.AperFunction,Conductor*%
G36*
X163005009Y-16520185D02*
G01*
X163050764Y-16572989D01*
X163060708Y-16642147D01*
X163031683Y-16705703D01*
X163025651Y-16712181D01*
X162953489Y-16784342D01*
X162861387Y-16933663D01*
X162861385Y-16933668D01*
X162844552Y-16984468D01*
X162806201Y-17100203D01*
X162806201Y-17100204D01*
X162806200Y-17100204D01*
X162795700Y-17202983D01*
X162795700Y-18103001D01*
X162795701Y-18103019D01*
X162806200Y-18205796D01*
X162806201Y-18205799D01*
X162861385Y-18372331D01*
X162861390Y-18372342D01*
X162886594Y-18413203D01*
X162905035Y-18480595D01*
X162884113Y-18547259D01*
X162830471Y-18592028D01*
X162781056Y-18602300D01*
X162551253Y-18602300D01*
X162484214Y-18582615D01*
X162463572Y-18565981D01*
X162323957Y-18426366D01*
X162290472Y-18365043D01*
X162288280Y-18326082D01*
X162293012Y-18279763D01*
X162295500Y-18255409D01*
X162295499Y-17355392D01*
X162284999Y-17252603D01*
X162229814Y-17086066D01*
X162137712Y-16936744D01*
X162013656Y-16812688D01*
X161879660Y-16730039D01*
X161832935Y-16678091D01*
X161821712Y-16609129D01*
X161849556Y-16545046D01*
X161907624Y-16506190D01*
X161944756Y-16500500D01*
X162937970Y-16500500D01*
X163005009Y-16520185D01*
G37*
%TD.AperFunction*%
%TA.AperFunction,Conductor*%
G36*
X156935116Y-16520185D02*
G01*
X156980871Y-16572989D01*
X156990815Y-16642147D01*
X156961790Y-16705703D01*
X156955758Y-16712181D01*
X156934084Y-16733854D01*
X156842043Y-16883075D01*
X156842041Y-16883080D01*
X156786894Y-17049502D01*
X156786893Y-17049509D01*
X156776400Y-17152213D01*
X156776400Y-17352200D01*
X158277400Y-17352200D01*
X158344439Y-17371885D01*
X158390194Y-17424689D01*
X158401400Y-17476200D01*
X158401400Y-17728200D01*
X158381715Y-17795239D01*
X158328911Y-17840994D01*
X158277400Y-17852200D01*
X156776401Y-17852200D01*
X156776401Y-18052186D01*
X156786894Y-18154897D01*
X156840300Y-18316066D01*
X156842702Y-18385895D01*
X156806970Y-18445936D01*
X156744449Y-18477129D01*
X156674990Y-18469568D01*
X156672158Y-18468349D01*
X156500807Y-18392057D01*
X156500802Y-18392055D01*
X156355000Y-18361065D01*
X156315646Y-18352700D01*
X156126354Y-18352700D01*
X156093897Y-18359598D01*
X155941197Y-18392055D01*
X155941192Y-18392057D01*
X155768270Y-18469048D01*
X155748750Y-18483231D01*
X155722341Y-18502418D01*
X155656535Y-18525898D01*
X155649456Y-18526100D01*
X155565053Y-18526100D01*
X155498014Y-18506415D01*
X155477372Y-18489781D01*
X155267354Y-18279763D01*
X155233869Y-18218440D01*
X155231677Y-18179479D01*
X155234300Y-18153809D01*
X155234299Y-17253792D01*
X155223799Y-17151003D01*
X155168614Y-16984466D01*
X155076512Y-16835144D01*
X154953549Y-16712180D01*
X154920064Y-16650858D01*
X154925048Y-16581166D01*
X154966920Y-16525233D01*
X155032384Y-16500816D01*
X155041230Y-16500500D01*
X156868077Y-16500500D01*
X156935116Y-16520185D01*
G37*
%TD.AperFunction*%
%TA.AperFunction,Conductor*%
G36*
X159962283Y-16520185D02*
G01*
X160008038Y-16572989D01*
X160017982Y-16642147D01*
X159988957Y-16705703D01*
X159960340Y-16730039D01*
X159826345Y-16812687D01*
X159826343Y-16812688D01*
X159702285Y-16936746D01*
X159696333Y-16946397D01*
X159644383Y-16993120D01*
X159575420Y-17004339D01*
X159511339Y-16976493D01*
X159473090Y-16920298D01*
X159460756Y-16883077D01*
X159460756Y-16883075D01*
X159368715Y-16733854D01*
X159347042Y-16712181D01*
X159313557Y-16650858D01*
X159318541Y-16581166D01*
X159360413Y-16525233D01*
X159425877Y-16500816D01*
X159434723Y-16500500D01*
X159895244Y-16500500D01*
X159962283Y-16520185D01*
G37*
%TD.AperFunction*%
%TA.AperFunction,Conductor*%
G36*
X253166139Y-14955385D02*
G01*
X253211894Y-15008189D01*
X253223100Y-15059700D01*
X253223100Y-64061300D01*
X253203415Y-64128339D01*
X253150611Y-64174094D01*
X253099100Y-64185300D01*
X251853600Y-64185300D01*
X114156055Y-64135045D01*
X114089022Y-64115336D01*
X114043287Y-64062515D01*
X114032100Y-64011045D01*
X114032100Y-63650502D01*
X114037454Y-58462828D01*
X114073560Y-23475196D01*
X114468240Y-23475196D01*
X114469572Y-23489282D01*
X114472625Y-23521583D01*
X114472900Y-23527421D01*
X114472900Y-57778454D01*
X114471175Y-57794072D01*
X114471461Y-57794099D01*
X114470726Y-57801866D01*
X114472899Y-57871014D01*
X114472899Y-57900551D01*
X114473768Y-57907432D01*
X114474226Y-57913251D01*
X114475690Y-57959824D01*
X114475691Y-57959827D01*
X114481280Y-57979067D01*
X114485224Y-57998111D01*
X114487736Y-58017991D01*
X114504890Y-58061319D01*
X114506782Y-58066847D01*
X114519781Y-58111588D01*
X114529980Y-58128834D01*
X114538538Y-58146303D01*
X114545914Y-58164932D01*
X114573298Y-58202623D01*
X114576506Y-58207507D01*
X114600227Y-58247616D01*
X114600233Y-58247624D01*
X114614390Y-58261780D01*
X114627028Y-58276576D01*
X114638805Y-58292786D01*
X114638806Y-58292787D01*
X114674702Y-58322482D01*
X114679025Y-58326415D01*
X114750000Y-58397391D01*
X114759821Y-58409651D01*
X114760043Y-58409468D01*
X114765013Y-58415476D01*
X114815437Y-58462828D01*
X114836323Y-58483715D01*
X114836327Y-58483718D01*
X114836329Y-58483720D01*
X114841811Y-58487973D01*
X114846243Y-58491757D01*
X114880218Y-58523662D01*
X114897776Y-58533314D01*
X114914035Y-58543995D01*
X114929864Y-58556273D01*
X114972638Y-58574782D01*
X114977856Y-58577338D01*
X115018708Y-58599797D01*
X115038116Y-58604780D01*
X115056517Y-58611080D01*
X115074904Y-58619037D01*
X115118288Y-58625908D01*
X115120919Y-58626325D01*
X115126639Y-58627509D01*
X115171781Y-58639100D01*
X115191816Y-58639100D01*
X115211214Y-58640626D01*
X115230994Y-58643759D01*
X115230995Y-58643760D01*
X115230995Y-58643759D01*
X115230996Y-58643760D01*
X115277383Y-58639375D01*
X115283222Y-58639100D01*
X118739975Y-58639100D01*
X118807014Y-58658785D01*
X118812860Y-58662782D01*
X118963665Y-58772348D01*
X118963670Y-58772351D01*
X119136592Y-58849342D01*
X119136597Y-58849344D01*
X119321754Y-58888700D01*
X119321755Y-58888700D01*
X119511044Y-58888700D01*
X119511046Y-58888700D01*
X119696203Y-58849344D01*
X119869130Y-58772351D01*
X120022271Y-58661088D01*
X120148933Y-58520416D01*
X120243579Y-58356484D01*
X120302074Y-58176456D01*
X120321860Y-57988200D01*
X120302074Y-57799944D01*
X120243579Y-57619916D01*
X120148933Y-57455984D01*
X120022271Y-57315312D01*
X120022263Y-57315306D01*
X119869134Y-57204051D01*
X119869129Y-57204048D01*
X119696207Y-57127057D01*
X119696202Y-57127055D01*
X119550400Y-57096065D01*
X119511046Y-57087700D01*
X119321754Y-57087700D01*
X119289297Y-57094598D01*
X119136597Y-57127055D01*
X119136592Y-57127057D01*
X118963670Y-57204048D01*
X118963665Y-57204051D01*
X118810535Y-57315306D01*
X118810529Y-57315311D01*
X118781932Y-57347072D01*
X118722445Y-57383721D01*
X118689782Y-57388100D01*
X115847900Y-57388100D01*
X115780861Y-57368415D01*
X115735106Y-57315611D01*
X115723900Y-57264100D01*
X115723900Y-49548470D01*
X122455100Y-49548470D01*
X122455101Y-49548476D01*
X122461508Y-49608083D01*
X122511802Y-49742928D01*
X122511806Y-49742935D01*
X122598052Y-49858144D01*
X122598055Y-49858147D01*
X122713264Y-49944393D01*
X122713271Y-49944397D01*
X122848117Y-49994691D01*
X122848116Y-49994691D01*
X122855044Y-49995435D01*
X122907727Y-50001100D01*
X126203472Y-50001099D01*
X126263083Y-49994691D01*
X126397931Y-49944396D01*
X126513146Y-49858146D01*
X126599396Y-49742931D01*
X126649691Y-49608083D01*
X126656100Y-49548473D01*
X126656100Y-49548470D01*
X151976250Y-49548470D01*
X151976251Y-49548476D01*
X151982658Y-49608083D01*
X152032952Y-49742928D01*
X152032956Y-49742935D01*
X152119202Y-49858144D01*
X152119205Y-49858147D01*
X152234414Y-49944393D01*
X152234421Y-49944397D01*
X152369267Y-49994691D01*
X152369266Y-49994691D01*
X152376194Y-49995435D01*
X152428877Y-50001100D01*
X155724622Y-50001099D01*
X155784233Y-49994691D01*
X155919081Y-49944396D01*
X156034296Y-49858146D01*
X156120546Y-49742931D01*
X156170841Y-49608083D01*
X156177250Y-49548473D01*
X156177250Y-49548470D01*
X181497400Y-49548470D01*
X181497401Y-49548476D01*
X181503808Y-49608083D01*
X181554102Y-49742928D01*
X181554106Y-49742935D01*
X181640352Y-49858144D01*
X181640355Y-49858147D01*
X181755564Y-49944393D01*
X181755571Y-49944397D01*
X181890417Y-49994691D01*
X181890416Y-49994691D01*
X181897344Y-49995435D01*
X181950027Y-50001100D01*
X185245772Y-50001099D01*
X185305383Y-49994691D01*
X185440231Y-49944396D01*
X185555446Y-49858146D01*
X185641696Y-49742931D01*
X185691991Y-49608083D01*
X185698400Y-49548473D01*
X185698400Y-49548470D01*
X211018550Y-49548470D01*
X211018551Y-49548476D01*
X211024958Y-49608083D01*
X211075252Y-49742928D01*
X211075256Y-49742935D01*
X211161502Y-49858144D01*
X211161505Y-49858147D01*
X211276714Y-49944393D01*
X211276721Y-49944397D01*
X211411567Y-49994691D01*
X211411566Y-49994691D01*
X211418494Y-49995435D01*
X211471177Y-50001100D01*
X214766922Y-50001099D01*
X214826533Y-49994691D01*
X214961381Y-49944396D01*
X215076596Y-49858146D01*
X215162846Y-49742931D01*
X215213141Y-49608083D01*
X215219550Y-49548473D01*
X215219550Y-49548470D01*
X240539700Y-49548470D01*
X240539701Y-49548476D01*
X240546108Y-49608083D01*
X240596402Y-49742928D01*
X240596406Y-49742935D01*
X240682652Y-49858144D01*
X240682655Y-49858147D01*
X240797864Y-49944393D01*
X240797871Y-49944397D01*
X240932717Y-49994691D01*
X240932716Y-49994691D01*
X240939644Y-49995435D01*
X240992327Y-50001100D01*
X244288072Y-50001099D01*
X244347683Y-49994691D01*
X244482531Y-49944396D01*
X244597746Y-49858146D01*
X244683996Y-49742931D01*
X244734291Y-49608083D01*
X244740700Y-49548473D01*
X244740699Y-47452728D01*
X244734291Y-47393117D01*
X244683996Y-47258269D01*
X244683995Y-47258268D01*
X244683993Y-47258264D01*
X244597747Y-47143055D01*
X244597744Y-47143052D01*
X244482535Y-47056806D01*
X244482528Y-47056802D01*
X244347682Y-47006508D01*
X244347683Y-47006508D01*
X244288083Y-47000101D01*
X244288081Y-47000100D01*
X244288073Y-47000100D01*
X244288064Y-47000100D01*
X240992329Y-47000100D01*
X240992323Y-47000101D01*
X240932716Y-47006508D01*
X240797871Y-47056802D01*
X240797864Y-47056806D01*
X240682655Y-47143052D01*
X240682652Y-47143055D01*
X240596406Y-47258264D01*
X240596402Y-47258271D01*
X240546108Y-47393117D01*
X240539701Y-47452716D01*
X240539701Y-47452723D01*
X240539700Y-47452735D01*
X240539700Y-49548470D01*
X215219550Y-49548470D01*
X215219549Y-47452728D01*
X215213141Y-47393117D01*
X215162846Y-47258269D01*
X215162845Y-47258268D01*
X215162843Y-47258264D01*
X215076597Y-47143055D01*
X215076594Y-47143052D01*
X214961385Y-47056806D01*
X214961378Y-47056802D01*
X214826532Y-47006508D01*
X214826533Y-47006508D01*
X214766933Y-47000101D01*
X214766931Y-47000100D01*
X214766923Y-47000100D01*
X214766914Y-47000100D01*
X211471179Y-47000100D01*
X211471173Y-47000101D01*
X211411566Y-47006508D01*
X211276721Y-47056802D01*
X211276714Y-47056806D01*
X211161505Y-47143052D01*
X211161502Y-47143055D01*
X211075256Y-47258264D01*
X211075252Y-47258271D01*
X211024958Y-47393117D01*
X211018551Y-47452716D01*
X211018551Y-47452723D01*
X211018550Y-47452735D01*
X211018550Y-49548470D01*
X185698400Y-49548470D01*
X185698399Y-47452728D01*
X185691991Y-47393117D01*
X185641696Y-47258269D01*
X185641695Y-47258268D01*
X185641693Y-47258264D01*
X185555447Y-47143055D01*
X185555444Y-47143052D01*
X185440235Y-47056806D01*
X185440228Y-47056802D01*
X185305382Y-47006508D01*
X185305383Y-47006508D01*
X185245783Y-47000101D01*
X185245781Y-47000100D01*
X185245773Y-47000100D01*
X185245764Y-47000100D01*
X181950029Y-47000100D01*
X181950023Y-47000101D01*
X181890416Y-47006508D01*
X181755571Y-47056802D01*
X181755564Y-47056806D01*
X181640355Y-47143052D01*
X181640352Y-47143055D01*
X181554106Y-47258264D01*
X181554102Y-47258271D01*
X181503808Y-47393117D01*
X181497401Y-47452716D01*
X181497401Y-47452723D01*
X181497400Y-47452735D01*
X181497400Y-49548470D01*
X156177250Y-49548470D01*
X156177249Y-47452728D01*
X156170841Y-47393117D01*
X156120546Y-47258269D01*
X156120545Y-47258268D01*
X156120543Y-47258264D01*
X156034297Y-47143055D01*
X156034294Y-47143052D01*
X155919085Y-47056806D01*
X155919078Y-47056802D01*
X155784232Y-47006508D01*
X155784233Y-47006508D01*
X155724633Y-47000101D01*
X155724631Y-47000100D01*
X155724623Y-47000100D01*
X155724614Y-47000100D01*
X152428879Y-47000100D01*
X152428873Y-47000101D01*
X152369266Y-47006508D01*
X152234421Y-47056802D01*
X152234414Y-47056806D01*
X152119205Y-47143052D01*
X152119202Y-47143055D01*
X152032956Y-47258264D01*
X152032952Y-47258271D01*
X151982658Y-47393117D01*
X151976251Y-47452716D01*
X151976251Y-47452723D01*
X151976250Y-47452735D01*
X151976250Y-49548470D01*
X126656100Y-49548470D01*
X126656099Y-47452728D01*
X126649691Y-47393117D01*
X126599396Y-47258269D01*
X126599395Y-47258268D01*
X126599393Y-47258264D01*
X126513147Y-47143055D01*
X126513144Y-47143052D01*
X126397935Y-47056806D01*
X126397928Y-47056802D01*
X126263082Y-47006508D01*
X126263083Y-47006508D01*
X126203483Y-47000101D01*
X126203481Y-47000100D01*
X126203473Y-47000100D01*
X126203464Y-47000100D01*
X122907729Y-47000100D01*
X122907723Y-47000101D01*
X122848116Y-47006508D01*
X122713271Y-47056802D01*
X122713264Y-47056806D01*
X122598055Y-47143052D01*
X122598052Y-47143055D01*
X122511806Y-47258264D01*
X122511802Y-47258271D01*
X122461508Y-47393117D01*
X122455101Y-47452716D01*
X122455101Y-47452723D01*
X122455100Y-47452735D01*
X122455100Y-49548470D01*
X115723900Y-49548470D01*
X115723900Y-46487247D01*
X115743585Y-46420208D01*
X115796389Y-46374453D01*
X115865547Y-46364509D01*
X115929103Y-46393534D01*
X115939117Y-46403251D01*
X116035856Y-46508338D01*
X116232091Y-46661074D01*
X116232093Y-46661075D01*
X116449932Y-46778964D01*
X116450790Y-46779428D01*
X116669741Y-46854594D01*
X116684564Y-46859683D01*
X116685986Y-46860171D01*
X116931265Y-46901100D01*
X117179935Y-46901100D01*
X117425214Y-46860171D01*
X117660410Y-46779428D01*
X117879109Y-46661074D01*
X118075344Y-46508338D01*
X118243764Y-46325385D01*
X118379773Y-46117207D01*
X118379775Y-46117203D01*
X118387195Y-46100289D01*
X118432151Y-46046803D01*
X118498887Y-46026114D01*
X118500750Y-46026100D01*
X121405657Y-46026100D01*
X121421277Y-46027824D01*
X121421304Y-46027539D01*
X121429060Y-46028271D01*
X121429067Y-46028273D01*
X121498214Y-46026100D01*
X121527750Y-46026100D01*
X121534628Y-46025230D01*
X121540441Y-46024772D01*
X121587027Y-46023309D01*
X121606269Y-46017717D01*
X121625312Y-46013774D01*
X121645192Y-46011264D01*
X121688522Y-45994107D01*
X121694046Y-45992217D01*
X121697796Y-45991127D01*
X121738790Y-45979218D01*
X121756029Y-45969022D01*
X121773503Y-45960462D01*
X121792127Y-45953088D01*
X121792127Y-45953087D01*
X121792132Y-45953086D01*
X121829849Y-45925682D01*
X121834705Y-45922492D01*
X121874820Y-45898770D01*
X121888989Y-45884599D01*
X121903779Y-45871968D01*
X121919987Y-45860194D01*
X121949699Y-45824276D01*
X121953612Y-45819976D01*
X127372984Y-40400605D01*
X130050458Y-40400605D01*
X130070985Y-40648329D01*
X130070987Y-40648338D01*
X130132012Y-40889317D01*
X130231866Y-41116964D01*
X130332164Y-41270482D01*
X130946650Y-40655995D01*
X131007973Y-40622510D01*
X131077664Y-40627494D01*
X131133598Y-40669365D01*
X131138639Y-40676625D01*
X131138648Y-40676639D01*
X131173839Y-40731398D01*
X131289202Y-40831359D01*
X131286893Y-40834022D01*
X131321606Y-40874099D01*
X131331535Y-40943260D01*
X131302498Y-41006810D01*
X131296482Y-41013269D01*
X130685542Y-41624209D01*
X130732368Y-41660655D01*
X130732370Y-41660656D01*
X130950985Y-41778964D01*
X130950996Y-41778969D01*
X131186106Y-41859683D01*
X131431307Y-41900600D01*
X131679893Y-41900600D01*
X131925093Y-41859683D01*
X132160203Y-41778969D01*
X132160214Y-41778964D01*
X132378828Y-41660657D01*
X132378831Y-41660655D01*
X132425656Y-41624209D01*
X131814716Y-41013269D01*
X131781231Y-40951946D01*
X131786215Y-40882254D01*
X131823241Y-40832793D01*
X131821998Y-40831359D01*
X131831772Y-40822890D01*
X131937361Y-40731398D01*
X131972554Y-40676637D01*
X132025355Y-40630883D01*
X132094514Y-40620939D01*
X132158070Y-40649963D01*
X132164549Y-40655996D01*
X132779034Y-41270482D01*
X132879331Y-41116969D01*
X132979187Y-40889317D01*
X133040212Y-40648338D01*
X133040214Y-40648329D01*
X133060741Y-40400605D01*
X133060741Y-40400594D01*
X133040214Y-40152870D01*
X133040212Y-40152861D01*
X132979187Y-39911882D01*
X132879331Y-39684230D01*
X132779034Y-39530716D01*
X132164549Y-40145202D01*
X132103226Y-40178687D01*
X132033534Y-40173703D01*
X131977601Y-40131831D01*
X131972553Y-40124561D01*
X131937361Y-40069802D01*
X131821998Y-39969841D01*
X131824298Y-39967185D01*
X131789560Y-39927028D01*
X131779674Y-39857861D01*
X131808752Y-39794329D01*
X131814716Y-39787929D01*
X132425656Y-39176989D01*
X132378829Y-39140543D01*
X132160214Y-39022235D01*
X132160203Y-39022230D01*
X131925093Y-38941516D01*
X131679893Y-38900600D01*
X131431307Y-38900600D01*
X131186106Y-38941516D01*
X130950996Y-39022230D01*
X130950990Y-39022232D01*
X130732361Y-39140549D01*
X130685542Y-39176988D01*
X130685542Y-39176990D01*
X131296483Y-39787930D01*
X131329968Y-39849253D01*
X131324984Y-39918944D01*
X131287958Y-39968405D01*
X131289202Y-39969841D01*
X131173838Y-40069802D01*
X131138646Y-40124562D01*
X131085842Y-40170317D01*
X131016683Y-40180260D01*
X130953128Y-40151234D01*
X130946650Y-40145203D01*
X130332164Y-39530716D01*
X130231867Y-39684232D01*
X130132012Y-39911882D01*
X130070987Y-40152861D01*
X130070985Y-40152870D01*
X130050458Y-40400594D01*
X130050458Y-40400605D01*
X127372984Y-40400605D01*
X129824571Y-37949019D01*
X129885895Y-37915534D01*
X129912253Y-37912700D01*
X134649857Y-37912700D01*
X134665477Y-37914424D01*
X134665504Y-37914139D01*
X134673260Y-37914871D01*
X134673267Y-37914873D01*
X134742414Y-37912700D01*
X134771950Y-37912700D01*
X134778828Y-37911830D01*
X134784641Y-37911372D01*
X134831227Y-37909909D01*
X134850469Y-37904317D01*
X134869512Y-37900374D01*
X134889392Y-37897864D01*
X134932722Y-37880707D01*
X134938246Y-37878817D01*
X134941996Y-37877727D01*
X134982990Y-37865818D01*
X135000229Y-37855622D01*
X135017703Y-37847062D01*
X135036327Y-37839688D01*
X135036327Y-37839687D01*
X135036332Y-37839686D01*
X135074049Y-37812282D01*
X135078905Y-37809092D01*
X135119020Y-37785370D01*
X135133189Y-37771199D01*
X135147979Y-37758568D01*
X135164187Y-37746794D01*
X135193899Y-37710876D01*
X135197812Y-37706576D01*
X147483071Y-25421319D01*
X147544395Y-25387834D01*
X147570753Y-25385000D01*
X150387248Y-25385000D01*
X150454287Y-25404685D01*
X150500042Y-25457489D01*
X150509986Y-25526647D01*
X150480961Y-25590203D01*
X150474929Y-25596681D01*
X132132828Y-43938779D01*
X132071505Y-43972264D01*
X132004884Y-43968379D01*
X131925216Y-43941029D01*
X131679935Y-43900100D01*
X131431265Y-43900100D01*
X131185983Y-43941029D01*
X130950797Y-44021769D01*
X130950788Y-44021772D01*
X130732093Y-44140124D01*
X130535857Y-44292861D01*
X130367433Y-44475817D01*
X130231426Y-44683993D01*
X130131536Y-44911718D01*
X130070492Y-45152775D01*
X130070490Y-45152787D01*
X130049957Y-45400594D01*
X130049957Y-45400605D01*
X130070490Y-45648412D01*
X130070492Y-45648424D01*
X130131536Y-45889481D01*
X130231426Y-46117206D01*
X130367433Y-46325382D01*
X130367436Y-46325385D01*
X130535856Y-46508338D01*
X130732091Y-46661074D01*
X130732093Y-46661075D01*
X130949932Y-46778964D01*
X130950790Y-46779428D01*
X131169741Y-46854594D01*
X131184564Y-46859683D01*
X131185986Y-46860171D01*
X131431265Y-46901100D01*
X131679935Y-46901100D01*
X131925214Y-46860171D01*
X132160410Y-46779428D01*
X132379109Y-46661074D01*
X132575344Y-46508338D01*
X132743764Y-46325385D01*
X132879773Y-46117207D01*
X132979663Y-45889481D01*
X133040708Y-45648421D01*
X133040716Y-45648329D01*
X133061243Y-45400605D01*
X133061243Y-45400594D01*
X133040709Y-45152787D01*
X133040708Y-45152783D01*
X133040708Y-45152779D01*
X133038789Y-45145203D01*
X132995852Y-44975648D01*
X132986736Y-44939649D01*
X132989360Y-44869830D01*
X133019258Y-44821530D01*
X151550370Y-26290419D01*
X151611694Y-26256934D01*
X151638052Y-26254100D01*
X159539298Y-26254100D01*
X159606337Y-26273785D01*
X159652092Y-26326589D01*
X159662036Y-26395747D01*
X159633011Y-26459303D01*
X159626979Y-26465781D01*
X147228976Y-38863781D01*
X147167653Y-38897266D01*
X147141295Y-38900100D01*
X145528879Y-38900100D01*
X145528873Y-38900101D01*
X145469266Y-38906508D01*
X145334421Y-38956802D01*
X145334414Y-38956806D01*
X145219205Y-39043052D01*
X145219202Y-39043055D01*
X145132956Y-39158264D01*
X145132952Y-39158271D01*
X145082658Y-39293117D01*
X145076251Y-39352716D01*
X145076251Y-39352723D01*
X145076250Y-39352735D01*
X145076250Y-41448470D01*
X145076251Y-41448476D01*
X145082658Y-41508083D01*
X145132952Y-41642928D01*
X145132956Y-41642935D01*
X145219202Y-41758144D01*
X145219205Y-41758147D01*
X145335736Y-41845383D01*
X145377607Y-41901317D01*
X145382591Y-41971008D01*
X145365234Y-42012470D01*
X145253017Y-42184231D01*
X145153162Y-42411882D01*
X145092137Y-42652861D01*
X145092135Y-42652870D01*
X145071609Y-42900594D01*
X145071609Y-42900605D01*
X145092135Y-43148329D01*
X145092137Y-43148338D01*
X145153162Y-43389317D01*
X145253016Y-43616964D01*
X145353314Y-43770482D01*
X145967800Y-43155995D01*
X146029123Y-43122510D01*
X146098814Y-43127494D01*
X146154748Y-43169365D01*
X146159789Y-43176625D01*
X146194989Y-43231398D01*
X146293098Y-43316409D01*
X146310352Y-43331359D01*
X146308043Y-43334022D01*
X146342756Y-43374099D01*
X146352685Y-43443260D01*
X146323648Y-43506810D01*
X146317632Y-43513269D01*
X145700850Y-44130050D01*
X145690232Y-44176748D01*
X145658126Y-44214156D01*
X145557005Y-44292862D01*
X145388583Y-44475817D01*
X145252576Y-44683993D01*
X145152686Y-44911718D01*
X145091642Y-45152775D01*
X145091640Y-45152787D01*
X145071107Y-45400594D01*
X145071107Y-45400605D01*
X145091640Y-45648412D01*
X145091642Y-45648424D01*
X145152686Y-45889481D01*
X145252576Y-46117206D01*
X145388583Y-46325382D01*
X145388586Y-46325385D01*
X145557006Y-46508338D01*
X145753241Y-46661074D01*
X145753243Y-46661075D01*
X145971082Y-46778964D01*
X145971940Y-46779428D01*
X146190891Y-46854594D01*
X146205714Y-46859683D01*
X146207136Y-46860171D01*
X146452415Y-46901100D01*
X146701085Y-46901100D01*
X146946364Y-46860171D01*
X147181560Y-46779428D01*
X147400259Y-46661074D01*
X147596494Y-46508338D01*
X147764914Y-46325385D01*
X147900923Y-46117207D01*
X147900925Y-46117203D01*
X147908345Y-46100289D01*
X147953301Y-46046803D01*
X148020037Y-46026114D01*
X148021900Y-46026100D01*
X149144007Y-46026100D01*
X149159627Y-46027824D01*
X149159654Y-46027539D01*
X149167410Y-46028271D01*
X149167417Y-46028273D01*
X149236564Y-46026100D01*
X149266100Y-46026100D01*
X149272978Y-46025230D01*
X149278791Y-46024772D01*
X149325377Y-46023309D01*
X149344619Y-46017717D01*
X149363662Y-46013774D01*
X149383542Y-46011264D01*
X149426872Y-45994107D01*
X149432396Y-45992217D01*
X149436146Y-45991127D01*
X149477140Y-45979218D01*
X149494379Y-45969022D01*
X149511853Y-45960462D01*
X149530477Y-45953088D01*
X149530477Y-45953087D01*
X149530482Y-45953086D01*
X149568199Y-45925682D01*
X149573055Y-45922492D01*
X149613170Y-45898770D01*
X149627339Y-45884599D01*
X149642129Y-45871968D01*
X149658337Y-45860194D01*
X149688049Y-45824276D01*
X149691962Y-45819976D01*
X155111333Y-40400605D01*
X159571609Y-40400605D01*
X159592135Y-40648329D01*
X159592137Y-40648338D01*
X159653162Y-40889317D01*
X159753016Y-41116964D01*
X159853314Y-41270482D01*
X160467800Y-40655995D01*
X160529123Y-40622510D01*
X160598814Y-40627494D01*
X160654748Y-40669365D01*
X160659789Y-40676625D01*
X160659798Y-40676639D01*
X160694989Y-40731398D01*
X160810352Y-40831359D01*
X160808043Y-40834022D01*
X160842756Y-40874099D01*
X160852685Y-40943260D01*
X160823648Y-41006810D01*
X160817632Y-41013269D01*
X160206692Y-41624209D01*
X160253518Y-41660655D01*
X160253520Y-41660656D01*
X160472135Y-41778964D01*
X160472146Y-41778969D01*
X160707256Y-41859683D01*
X160952457Y-41900600D01*
X161201043Y-41900600D01*
X161446243Y-41859683D01*
X161681353Y-41778969D01*
X161681364Y-41778964D01*
X161899978Y-41660657D01*
X161899981Y-41660655D01*
X161946806Y-41624209D01*
X161335866Y-41013269D01*
X161302381Y-40951946D01*
X161307365Y-40882254D01*
X161344391Y-40832793D01*
X161343148Y-40831359D01*
X161352922Y-40822890D01*
X161458511Y-40731398D01*
X161493704Y-40676637D01*
X161546505Y-40630883D01*
X161615664Y-40620939D01*
X161679220Y-40649963D01*
X161685699Y-40655996D01*
X162300184Y-41270482D01*
X162400481Y-41116969D01*
X162500337Y-40889317D01*
X162561362Y-40648338D01*
X162561364Y-40648329D01*
X162581891Y-40400605D01*
X162581891Y-40400594D01*
X162561364Y-40152870D01*
X162561362Y-40152861D01*
X162500337Y-39911882D01*
X162400481Y-39684230D01*
X162300184Y-39530716D01*
X161685699Y-40145202D01*
X161624376Y-40178687D01*
X161554684Y-40173703D01*
X161498751Y-40131831D01*
X161493703Y-40124561D01*
X161458511Y-40069802D01*
X161343148Y-39969841D01*
X161345448Y-39967185D01*
X161310710Y-39927028D01*
X161300824Y-39857861D01*
X161329902Y-39794329D01*
X161335866Y-39787929D01*
X161946806Y-39176989D01*
X161899979Y-39140543D01*
X161681364Y-39022235D01*
X161681353Y-39022230D01*
X161446243Y-38941516D01*
X161201043Y-38900600D01*
X160952457Y-38900600D01*
X160707256Y-38941516D01*
X160472146Y-39022230D01*
X160472140Y-39022232D01*
X160253511Y-39140549D01*
X160206692Y-39176988D01*
X160206692Y-39176990D01*
X160817633Y-39787930D01*
X160851118Y-39849253D01*
X160846134Y-39918944D01*
X160809108Y-39968405D01*
X160810352Y-39969841D01*
X160694988Y-40069802D01*
X160659796Y-40124562D01*
X160606992Y-40170317D01*
X160537833Y-40180260D01*
X160474278Y-40151234D01*
X160467800Y-40145203D01*
X159853314Y-39530716D01*
X159753017Y-39684232D01*
X159653162Y-39911882D01*
X159592137Y-40152861D01*
X159592135Y-40152870D01*
X159571609Y-40400594D01*
X159571609Y-40400605D01*
X155111333Y-40400605D01*
X161495986Y-34015952D01*
X161508248Y-34006130D01*
X161508065Y-34005909D01*
X161514067Y-34000942D01*
X161514077Y-34000936D01*
X161561441Y-33950498D01*
X161582320Y-33929620D01*
X161586573Y-33924136D01*
X161590350Y-33919713D01*
X161622262Y-33885732D01*
X161631914Y-33868173D01*
X161642589Y-33851922D01*
X161654874Y-33836086D01*
X161673386Y-33793302D01*
X161675942Y-33788085D01*
X161698397Y-33747242D01*
X161703380Y-33727830D01*
X161709677Y-33709441D01*
X161717638Y-33691045D01*
X161724929Y-33645003D01*
X161726108Y-33639312D01*
X161737700Y-33594169D01*
X161737700Y-33574132D01*
X161739227Y-33554732D01*
X161739583Y-33552486D01*
X161742360Y-33534954D01*
X161737975Y-33488565D01*
X161737700Y-33482727D01*
X161737700Y-28308500D01*
X161757385Y-28241461D01*
X161810189Y-28195706D01*
X161861700Y-28184500D01*
X163055100Y-28184500D01*
X163122139Y-28204185D01*
X163167894Y-28256989D01*
X163179100Y-28308500D01*
X163179100Y-42362296D01*
X163159415Y-42429335D01*
X163142781Y-42449977D01*
X161653978Y-43938779D01*
X161592655Y-43972264D01*
X161526034Y-43968379D01*
X161446366Y-43941029D01*
X161201085Y-43900100D01*
X160952415Y-43900100D01*
X160707133Y-43941029D01*
X160471947Y-44021769D01*
X160471938Y-44021772D01*
X160253243Y-44140124D01*
X160057007Y-44292861D01*
X159888583Y-44475817D01*
X159752576Y-44683993D01*
X159652686Y-44911718D01*
X159591642Y-45152775D01*
X159591640Y-45152787D01*
X159571107Y-45400594D01*
X159571107Y-45400605D01*
X159591640Y-45648412D01*
X159591642Y-45648424D01*
X159652686Y-45889481D01*
X159752576Y-46117206D01*
X159888583Y-46325382D01*
X159888586Y-46325385D01*
X160057006Y-46508338D01*
X160253241Y-46661074D01*
X160253243Y-46661075D01*
X160471082Y-46778964D01*
X160471940Y-46779428D01*
X160690891Y-46854594D01*
X160705714Y-46859683D01*
X160707136Y-46860171D01*
X160952415Y-46901100D01*
X161201085Y-46901100D01*
X161446364Y-46860171D01*
X161681560Y-46779428D01*
X161900259Y-46661074D01*
X162096494Y-46508338D01*
X162264914Y-46325385D01*
X162400923Y-46117207D01*
X162500813Y-45889481D01*
X162561858Y-45648421D01*
X162561866Y-45648329D01*
X162582393Y-45400605D01*
X162582393Y-45400594D01*
X162561859Y-45152787D01*
X162561858Y-45152783D01*
X162561858Y-45152779D01*
X162559939Y-45145203D01*
X162517002Y-44975648D01*
X162507886Y-44939649D01*
X162510510Y-44869830D01*
X162540408Y-44821530D01*
X164188387Y-43173551D01*
X164200642Y-43163736D01*
X164200459Y-43163514D01*
X164206466Y-43158542D01*
X164206477Y-43158536D01*
X164237375Y-43125632D01*
X164253827Y-43108114D01*
X164264271Y-43097668D01*
X164274720Y-43087221D01*
X164278979Y-43081728D01*
X164282752Y-43077311D01*
X164314662Y-43043332D01*
X164324313Y-43025774D01*
X164334996Y-43009511D01*
X164347273Y-42993686D01*
X164365785Y-42950903D01*
X164368338Y-42945691D01*
X164390797Y-42904842D01*
X164395780Y-42885430D01*
X164402081Y-42867030D01*
X164410037Y-42848646D01*
X164417329Y-42802602D01*
X164418506Y-42796921D01*
X164430100Y-42751769D01*
X164430100Y-42731733D01*
X164431627Y-42712332D01*
X164434760Y-42692554D01*
X164430375Y-42646165D01*
X164430100Y-42640327D01*
X164430100Y-28994300D01*
X164449785Y-28927261D01*
X164502589Y-28881506D01*
X164554100Y-28870300D01*
X168381941Y-28870300D01*
X168448980Y-28889985D01*
X168494735Y-28942789D01*
X168504679Y-29011947D01*
X168475654Y-29075503D01*
X168474150Y-29077205D01*
X168467867Y-29084184D01*
X168467865Y-29084185D01*
X168467864Y-29084188D01*
X168373221Y-29248115D01*
X168373218Y-29248122D01*
X168314727Y-29428140D01*
X168314726Y-29428144D01*
X168294940Y-29616400D01*
X168314726Y-29804656D01*
X168314727Y-29804659D01*
X168373218Y-29984677D01*
X168373220Y-29984681D01*
X168373221Y-29984684D01*
X168386626Y-30007902D01*
X168398827Y-30029035D01*
X168415298Y-30096936D01*
X168392446Y-30162962D01*
X168337524Y-30206152D01*
X168330443Y-30208740D01*
X168256068Y-30233385D01*
X168256063Y-30233387D01*
X168106742Y-30325489D01*
X167982689Y-30449542D01*
X167890587Y-30598863D01*
X167890585Y-30598868D01*
X167862749Y-30682870D01*
X167835401Y-30765403D01*
X167835401Y-30765404D01*
X167835400Y-30765404D01*
X167824900Y-30868183D01*
X167824900Y-31768201D01*
X167824901Y-31768219D01*
X167835400Y-31870996D01*
X167835401Y-31870999D01*
X167890585Y-32037531D01*
X167890587Y-32037536D01*
X167893272Y-32041889D01*
X167982688Y-32186856D01*
X168106744Y-32310912D01*
X168256066Y-32403014D01*
X168422603Y-32458199D01*
X168525391Y-32468700D01*
X169875408Y-32468699D01*
X169978197Y-32458199D01*
X170144734Y-32403014D01*
X170294056Y-32310912D01*
X170418112Y-32186856D01*
X170507528Y-32041887D01*
X170559474Y-31995164D01*
X170628437Y-31983941D01*
X170692519Y-32011784D01*
X170718605Y-32041888D01*
X170776688Y-32136056D01*
X170900744Y-32260112D01*
X171050066Y-32352214D01*
X171216603Y-32407399D01*
X171319391Y-32417900D01*
X172669408Y-32417899D01*
X172772197Y-32407399D01*
X172938734Y-32352214D01*
X173088056Y-32260112D01*
X173212112Y-32136056D01*
X173304214Y-31986734D01*
X173359399Y-31820197D01*
X173369900Y-31717409D01*
X173369899Y-30817392D01*
X173359399Y-30714603D01*
X173304214Y-30548066D01*
X173212112Y-30398744D01*
X173088056Y-30274688D01*
X172938734Y-30182586D01*
X172772197Y-30127401D01*
X172772195Y-30127400D01*
X172694896Y-30119503D01*
X172630205Y-30093106D01*
X172590054Y-30035925D01*
X172583500Y-29996145D01*
X172583500Y-29908700D01*
X172603185Y-29841661D01*
X172655989Y-29795906D01*
X172707500Y-29784700D01*
X175059344Y-29784700D01*
X175126383Y-29804385D01*
X175172138Y-29857189D01*
X175182082Y-29926347D01*
X175153057Y-29989903D01*
X175145197Y-29997348D01*
X175145451Y-29997602D01*
X175023723Y-30119329D01*
X175023717Y-30119337D01*
X174940055Y-30260803D01*
X174940054Y-30260806D01*
X174894202Y-30418626D01*
X174894201Y-30418632D01*
X174891300Y-30455504D01*
X174891300Y-32336896D01*
X174894201Y-32373767D01*
X174894202Y-32373773D01*
X174940054Y-32531593D01*
X174940055Y-32531596D01*
X175023717Y-32673062D01*
X175023723Y-32673070D01*
X175139929Y-32789276D01*
X175139933Y-32789279D01*
X175139935Y-32789281D01*
X175281402Y-32872944D01*
X175323024Y-32885036D01*
X175439226Y-32918797D01*
X175439229Y-32918797D01*
X175439231Y-32918798D01*
X175451522Y-32919765D01*
X175476104Y-32921700D01*
X175476106Y-32921700D01*
X175907496Y-32921700D01*
X175925931Y-32920249D01*
X175944369Y-32918798D01*
X175944371Y-32918797D01*
X175944373Y-32918797D01*
X176023631Y-32895770D01*
X176102198Y-32872944D01*
X176243665Y-32789281D01*
X176243670Y-32789276D01*
X176249826Y-32784501D01*
X176251727Y-32786952D01*
X176300379Y-32760354D01*
X176370074Y-32765303D01*
X176402500Y-32786142D01*
X176403774Y-32784501D01*
X176409939Y-32789284D01*
X176467149Y-32823117D01*
X176551402Y-32872944D01*
X176593024Y-32885036D01*
X176709226Y-32918797D01*
X176709229Y-32918797D01*
X176709231Y-32918798D01*
X176721522Y-32919765D01*
X176746104Y-32921700D01*
X176746106Y-32921700D01*
X177177496Y-32921700D01*
X177195931Y-32920249D01*
X177214369Y-32918798D01*
X177214371Y-32918797D01*
X177214373Y-32918797D01*
X177293631Y-32895770D01*
X177372198Y-32872944D01*
X177513665Y-32789281D01*
X177513670Y-32789276D01*
X177519826Y-32784501D01*
X177521727Y-32786952D01*
X177570379Y-32760354D01*
X177640074Y-32765303D01*
X177672500Y-32786142D01*
X177673774Y-32784501D01*
X177679939Y-32789284D01*
X177737149Y-32823117D01*
X177821402Y-32872944D01*
X177863024Y-32885036D01*
X177979226Y-32918797D01*
X177979229Y-32918797D01*
X177979231Y-32918798D01*
X177991522Y-32919765D01*
X178016104Y-32921700D01*
X178016106Y-32921700D01*
X178447496Y-32921700D01*
X178465931Y-32920249D01*
X178484369Y-32918798D01*
X178484371Y-32918797D01*
X178484373Y-32918797D01*
X178563631Y-32895770D01*
X178642198Y-32872944D01*
X178783665Y-32789281D01*
X178783670Y-32789276D01*
X178789826Y-32784501D01*
X178791727Y-32786952D01*
X178840379Y-32760354D01*
X178910074Y-32765303D01*
X178942500Y-32786142D01*
X178943774Y-32784501D01*
X178949939Y-32789284D01*
X179007149Y-32823117D01*
X179091402Y-32872944D01*
X179133024Y-32885036D01*
X179249226Y-32918797D01*
X179249229Y-32918797D01*
X179249231Y-32918798D01*
X179261522Y-32919765D01*
X179286104Y-32921700D01*
X179286106Y-32921700D01*
X179717496Y-32921700D01*
X179740603Y-32919881D01*
X179754369Y-32918798D01*
X179754369Y-32918797D01*
X179756820Y-32918605D01*
X179825198Y-32932969D01*
X179874954Y-32982021D01*
X179890293Y-33050186D01*
X179866344Y-33115823D01*
X179836990Y-33144272D01*
X179798175Y-33171064D01*
X179798169Y-33171070D01*
X179758564Y-33215773D01*
X179755997Y-33218500D01*
X179105316Y-33869181D01*
X179043993Y-33902666D01*
X179017635Y-33905500D01*
X178161298Y-33905500D01*
X178161280Y-33905501D01*
X178058503Y-33916000D01*
X178058500Y-33916001D01*
X177891968Y-33971185D01*
X177891963Y-33971187D01*
X177742642Y-34063289D01*
X177618589Y-34187342D01*
X177526487Y-34336663D01*
X177526485Y-34336668D01*
X177526415Y-34336880D01*
X177471301Y-34503203D01*
X177471301Y-34503204D01*
X177471300Y-34503204D01*
X177460800Y-34605983D01*
X177460800Y-35462336D01*
X177441115Y-35529375D01*
X177424481Y-35550017D01*
X176872728Y-36101769D01*
X176811405Y-36135254D01*
X176741713Y-36130270D01*
X176685780Y-36088398D01*
X176661363Y-36022934D01*
X176661209Y-36007761D01*
X176661300Y-36005979D01*
X176661300Y-35556000D01*
X174336299Y-35556000D01*
X174324979Y-35567320D01*
X174263656Y-35600804D01*
X174193964Y-35595818D01*
X174149619Y-35567318D01*
X173638301Y-35056000D01*
X174336300Y-35056000D01*
X175248800Y-35056000D01*
X175248800Y-33906000D01*
X175748800Y-33906000D01*
X175748800Y-35056000D01*
X176661299Y-35056000D01*
X176661299Y-34606028D01*
X176661298Y-34606013D01*
X176650805Y-34503302D01*
X176595658Y-34336880D01*
X176595656Y-34336875D01*
X176503615Y-34187654D01*
X176379645Y-34063684D01*
X176230424Y-33971643D01*
X176230419Y-33971641D01*
X176063997Y-33916494D01*
X176063990Y-33916493D01*
X175961286Y-33906000D01*
X175748800Y-33906000D01*
X175248800Y-33906000D01*
X175036329Y-33906000D01*
X175036312Y-33906001D01*
X174933602Y-33916494D01*
X174767180Y-33971641D01*
X174767175Y-33971643D01*
X174617954Y-34063684D01*
X174493984Y-34187654D01*
X174401943Y-34336875D01*
X174401941Y-34336880D01*
X174346794Y-34503302D01*
X174346793Y-34503309D01*
X174336300Y-34606013D01*
X174336300Y-35056000D01*
X173638301Y-35056000D01*
X173406218Y-34823917D01*
X173372733Y-34762594D01*
X173369899Y-34736236D01*
X173369899Y-33917398D01*
X173369898Y-33917381D01*
X173359399Y-33814603D01*
X173359398Y-33814600D01*
X173339625Y-33754930D01*
X173304214Y-33648066D01*
X173212112Y-33498744D01*
X173088056Y-33374688D01*
X172964483Y-33298468D01*
X172938736Y-33282587D01*
X172938731Y-33282585D01*
X172893811Y-33267700D01*
X172772197Y-33227401D01*
X172772195Y-33227400D01*
X172669410Y-33216900D01*
X171319398Y-33216900D01*
X171319381Y-33216901D01*
X171216603Y-33227400D01*
X171216600Y-33227401D01*
X171050068Y-33282585D01*
X171050063Y-33282587D01*
X170900742Y-33374689D01*
X170776689Y-33498742D01*
X170687272Y-33643711D01*
X170635324Y-33690435D01*
X170566361Y-33701658D01*
X170502279Y-33673814D01*
X170476194Y-33643711D01*
X170473472Y-33639298D01*
X170418112Y-33549544D01*
X170294056Y-33425488D01*
X170148995Y-33336014D01*
X170144736Y-33333387D01*
X170144731Y-33333385D01*
X170128426Y-33327982D01*
X169978197Y-33278201D01*
X169978195Y-33278200D01*
X169875410Y-33267700D01*
X168525398Y-33267700D01*
X168525381Y-33267701D01*
X168422603Y-33278200D01*
X168422600Y-33278201D01*
X168256068Y-33333385D01*
X168256063Y-33333387D01*
X168106742Y-33425489D01*
X167982689Y-33549542D01*
X167890587Y-33698863D01*
X167890585Y-33698868D01*
X167880985Y-33727839D01*
X167835401Y-33865403D01*
X167835401Y-33865404D01*
X167835400Y-33865404D01*
X167824900Y-33968183D01*
X167824900Y-34868201D01*
X167824901Y-34868219D01*
X167835400Y-34970996D01*
X167835401Y-34970999D01*
X167890585Y-35137531D01*
X167890587Y-35137536D01*
X167893272Y-35141889D01*
X167982688Y-35286856D01*
X168106744Y-35410912D01*
X168256066Y-35503014D01*
X168422603Y-35558199D01*
X168525391Y-35568700D01*
X169875408Y-35568699D01*
X169978197Y-35558199D01*
X170144734Y-35503014D01*
X170294056Y-35410912D01*
X170418112Y-35286856D01*
X170507528Y-35141887D01*
X170559474Y-35095164D01*
X170628437Y-35083941D01*
X170692519Y-35111784D01*
X170718605Y-35141888D01*
X170776688Y-35236056D01*
X170900744Y-35360112D01*
X171050066Y-35452214D01*
X171216603Y-35507399D01*
X171319391Y-35517900D01*
X172138236Y-35517899D01*
X172205275Y-35537583D01*
X172225917Y-35554218D01*
X173843017Y-37171319D01*
X173871278Y-37215028D01*
X173886974Y-37256415D01*
X173889204Y-37263569D01*
X173898156Y-37299891D01*
X173898158Y-37299895D01*
X173915544Y-37333023D01*
X173918618Y-37339854D01*
X173931879Y-37374821D01*
X173931882Y-37374827D01*
X173953131Y-37405611D01*
X173957002Y-37412012D01*
X173968353Y-37433639D01*
X173974391Y-37445145D01*
X173999200Y-37473149D01*
X174003820Y-37479047D01*
X174025064Y-37509824D01*
X174025069Y-37509830D01*
X174053071Y-37534638D01*
X174058361Y-37539928D01*
X174083171Y-37567932D01*
X174113959Y-37589184D01*
X174119851Y-37593799D01*
X174147854Y-37618608D01*
X174173790Y-37632220D01*
X174180977Y-37635992D01*
X174187376Y-37639859D01*
X174218174Y-37661118D01*
X174253166Y-37674388D01*
X174259975Y-37677454D01*
X174293105Y-37694842D01*
X174293109Y-37694843D01*
X174293107Y-37694843D01*
X174320415Y-37701573D01*
X174329428Y-37703794D01*
X174336568Y-37706018D01*
X174362548Y-37715872D01*
X174371549Y-37719286D01*
X174371550Y-37719286D01*
X174371555Y-37719288D01*
X174408701Y-37723797D01*
X174416049Y-37725144D01*
X174452379Y-37734100D01*
X174493543Y-37734100D01*
X176848922Y-37734100D01*
X176852666Y-37734213D01*
X176912282Y-37737819D01*
X176912282Y-37737818D01*
X176912285Y-37737819D01*
X176948851Y-37731118D01*
X176971036Y-37727053D01*
X176974740Y-37726489D01*
X177002139Y-37723162D01*
X177034045Y-37719288D01*
X177042805Y-37715965D01*
X177064421Y-37709938D01*
X177073639Y-37708250D01*
X177103431Y-37694842D01*
X177128116Y-37683732D01*
X177131558Y-37682305D01*
X177187426Y-37661118D01*
X177195133Y-37655797D01*
X177214680Y-37644772D01*
X177223228Y-37640926D01*
X177270266Y-37604072D01*
X177273259Y-37601869D01*
X177322429Y-37567932D01*
X177362052Y-37523205D01*
X177364586Y-37520513D01*
X178142282Y-36742818D01*
X178203605Y-36709333D01*
X178229963Y-36706499D01*
X178568347Y-36706499D01*
X178635386Y-36726184D01*
X178681141Y-36778988D01*
X178691085Y-36848146D01*
X178662060Y-36911702D01*
X178656028Y-36918180D01*
X176710426Y-38863781D01*
X176649103Y-38897266D01*
X176622745Y-38900100D01*
X175050029Y-38900100D01*
X175050023Y-38900101D01*
X174990416Y-38906508D01*
X174855571Y-38956802D01*
X174855564Y-38956806D01*
X174740355Y-39043052D01*
X174740352Y-39043055D01*
X174654106Y-39158264D01*
X174654102Y-39158271D01*
X174603808Y-39293117D01*
X174597401Y-39352716D01*
X174597401Y-39352723D01*
X174597400Y-39352735D01*
X174597400Y-41448470D01*
X174597401Y-41448476D01*
X174603808Y-41508083D01*
X174654102Y-41642928D01*
X174654106Y-41642935D01*
X174740352Y-41758144D01*
X174740355Y-41758147D01*
X174856886Y-41845383D01*
X174898757Y-41901317D01*
X174903741Y-41971008D01*
X174886384Y-42012470D01*
X174774167Y-42184231D01*
X174674312Y-42411882D01*
X174613287Y-42652861D01*
X174613285Y-42652870D01*
X174592759Y-42900594D01*
X174592759Y-42900605D01*
X174613285Y-43148329D01*
X174613287Y-43148338D01*
X174674312Y-43389317D01*
X174774166Y-43616964D01*
X174874464Y-43770482D01*
X175488950Y-43155995D01*
X175550273Y-43122510D01*
X175619964Y-43127494D01*
X175675898Y-43169365D01*
X175680939Y-43176625D01*
X175716139Y-43231398D01*
X175814248Y-43316409D01*
X175831502Y-43331359D01*
X175829193Y-43334022D01*
X175863906Y-43374099D01*
X175873835Y-43443260D01*
X175844798Y-43506810D01*
X175838782Y-43513269D01*
X175222000Y-44130050D01*
X175211382Y-44176748D01*
X175179276Y-44214156D01*
X175078155Y-44292862D01*
X174909733Y-44475817D01*
X174773726Y-44683993D01*
X174673836Y-44911718D01*
X174612792Y-45152775D01*
X174612790Y-45152787D01*
X174592257Y-45400594D01*
X174592257Y-45400605D01*
X174612790Y-45648412D01*
X174612792Y-45648424D01*
X174673836Y-45889481D01*
X174773726Y-46117206D01*
X174909733Y-46325382D01*
X174909736Y-46325385D01*
X175078156Y-46508338D01*
X175274391Y-46661074D01*
X175274393Y-46661075D01*
X175492232Y-46778964D01*
X175493090Y-46779428D01*
X175712041Y-46854594D01*
X175726864Y-46859683D01*
X175728286Y-46860171D01*
X175973565Y-46901100D01*
X176222235Y-46901100D01*
X176467514Y-46860171D01*
X176702710Y-46779428D01*
X176921409Y-46661074D01*
X177117644Y-46508338D01*
X177286064Y-46325385D01*
X177422073Y-46117207D01*
X177521963Y-45889481D01*
X177583008Y-45648421D01*
X177603543Y-45400600D01*
X177584742Y-45173703D01*
X177583009Y-45152787D01*
X177583008Y-45152783D01*
X177583008Y-45152779D01*
X177581089Y-45145203D01*
X177538152Y-44975648D01*
X177529036Y-44939649D01*
X177531660Y-44869830D01*
X177561558Y-44821530D01*
X179809388Y-42573701D01*
X179821642Y-42563886D01*
X179821459Y-42563664D01*
X179827466Y-42558692D01*
X179827477Y-42558686D01*
X179858375Y-42525782D01*
X179874827Y-42508264D01*
X179885271Y-42497818D01*
X179895720Y-42487371D01*
X179899979Y-42481878D01*
X179903752Y-42477461D01*
X179935662Y-42443482D01*
X179945313Y-42425924D01*
X179955996Y-42409661D01*
X179968273Y-42393836D01*
X179986785Y-42351053D01*
X179989338Y-42345841D01*
X180011797Y-42304992D01*
X180016780Y-42285580D01*
X180023081Y-42267180D01*
X180031037Y-42248796D01*
X180038329Y-42202752D01*
X180039506Y-42197071D01*
X180051100Y-42151919D01*
X180051100Y-42131882D01*
X180052627Y-42112482D01*
X180055760Y-42092704D01*
X180051375Y-42046315D01*
X180051100Y-42040477D01*
X180051100Y-38533351D01*
X180070785Y-38466312D01*
X180087414Y-38445675D01*
X181285721Y-37247367D01*
X181347042Y-37213884D01*
X181416734Y-37218868D01*
X181472667Y-37260740D01*
X181497084Y-37326204D01*
X181497400Y-37335050D01*
X181497400Y-38348470D01*
X181497401Y-38348476D01*
X181503808Y-38408083D01*
X181554102Y-38542928D01*
X181554106Y-38542935D01*
X181640352Y-38658144D01*
X181640355Y-38658147D01*
X181755564Y-38744393D01*
X181755571Y-38744397D01*
X181890417Y-38794691D01*
X181890416Y-38794691D01*
X181897344Y-38795435D01*
X181950027Y-38801100D01*
X185245772Y-38801099D01*
X185305383Y-38794691D01*
X185440231Y-38744396D01*
X185555446Y-38658146D01*
X185641696Y-38542931D01*
X185641696Y-38542928D01*
X185642003Y-38542369D01*
X185642459Y-38541912D01*
X185647012Y-38535831D01*
X185647886Y-38536485D01*
X185691406Y-38492961D01*
X185759678Y-38478105D01*
X185825144Y-38502519D01*
X185838519Y-38514109D01*
X188110981Y-40786571D01*
X188144466Y-40847894D01*
X188147300Y-40874252D01*
X188147300Y-43492755D01*
X188145575Y-43508372D01*
X188145861Y-43508399D01*
X188145126Y-43516165D01*
X188147300Y-43585314D01*
X188147300Y-43614843D01*
X188147301Y-43614860D01*
X188148168Y-43621731D01*
X188148626Y-43627550D01*
X188150090Y-43674124D01*
X188150091Y-43674127D01*
X188155680Y-43693367D01*
X188159624Y-43712411D01*
X188162136Y-43732291D01*
X188179290Y-43775619D01*
X188181182Y-43781147D01*
X188194181Y-43825888D01*
X188204380Y-43843134D01*
X188212938Y-43860603D01*
X188220314Y-43879232D01*
X188247698Y-43916923D01*
X188250906Y-43921807D01*
X188274627Y-43961916D01*
X188274633Y-43961924D01*
X188288790Y-43976080D01*
X188301428Y-43990876D01*
X188313205Y-44007086D01*
X188313206Y-44007087D01*
X188349109Y-44036788D01*
X188353420Y-44040710D01*
X188744535Y-44431825D01*
X189134238Y-44821528D01*
X189167723Y-44882851D01*
X189166763Y-44939649D01*
X189112792Y-45152774D01*
X189112790Y-45152787D01*
X189092257Y-45400594D01*
X189092257Y-45400605D01*
X189112790Y-45648412D01*
X189112792Y-45648424D01*
X189173836Y-45889481D01*
X189273726Y-46117206D01*
X189409733Y-46325382D01*
X189409736Y-46325385D01*
X189578156Y-46508338D01*
X189774391Y-46661074D01*
X189774393Y-46661075D01*
X189992232Y-46778964D01*
X189993090Y-46779428D01*
X190212041Y-46854594D01*
X190226864Y-46859683D01*
X190228286Y-46860171D01*
X190473565Y-46901100D01*
X190722235Y-46901100D01*
X190967514Y-46860171D01*
X191202710Y-46779428D01*
X191421409Y-46661074D01*
X191617644Y-46508338D01*
X191786064Y-46325385D01*
X191922073Y-46117207D01*
X192021963Y-45889481D01*
X192083008Y-45648421D01*
X192103543Y-45400600D01*
X192084742Y-45173703D01*
X192083009Y-45152787D01*
X192083007Y-45152775D01*
X192021963Y-44911718D01*
X191922073Y-44683993D01*
X191786066Y-44475817D01*
X191764457Y-44452344D01*
X191617644Y-44292862D01*
X191421409Y-44140126D01*
X191421407Y-44140125D01*
X191421406Y-44140124D01*
X191202711Y-44021772D01*
X191202702Y-44021769D01*
X190967516Y-43941029D01*
X190722235Y-43900100D01*
X190473565Y-43900100D01*
X190228286Y-43941028D01*
X190148613Y-43968380D01*
X190078814Y-43971529D01*
X190020670Y-43938779D01*
X189434619Y-43352727D01*
X189401134Y-43291404D01*
X189398300Y-43265046D01*
X189398300Y-41621361D01*
X189417985Y-41554322D01*
X189470789Y-41508567D01*
X189539947Y-41498623D01*
X189598463Y-41523508D01*
X189774668Y-41660655D01*
X189774671Y-41660657D01*
X189993285Y-41778964D01*
X189993296Y-41778969D01*
X190228406Y-41859683D01*
X190473607Y-41900600D01*
X190722193Y-41900600D01*
X190967393Y-41859683D01*
X191202503Y-41778969D01*
X191202514Y-41778964D01*
X191421128Y-41660657D01*
X191421131Y-41660655D01*
X191467956Y-41624209D01*
X190857016Y-41013269D01*
X190823531Y-40951946D01*
X190828515Y-40882254D01*
X190865541Y-40832793D01*
X190864298Y-40831359D01*
X190874072Y-40822890D01*
X190979661Y-40731398D01*
X191014854Y-40676637D01*
X191067655Y-40630883D01*
X191136814Y-40620939D01*
X191200370Y-40649963D01*
X191206849Y-40655996D01*
X191821334Y-41270482D01*
X191921631Y-41116969D01*
X192021487Y-40889317D01*
X192082512Y-40648339D01*
X192088858Y-40571750D01*
X192114011Y-40506564D01*
X192170413Y-40465326D01*
X192240156Y-40461126D01*
X192300116Y-40494307D01*
X197590197Y-45784388D01*
X197600022Y-45796651D01*
X197600243Y-45796469D01*
X197605214Y-45802478D01*
X197626043Y-45822037D01*
X197655635Y-45849826D01*
X197676529Y-45870720D01*
X197682011Y-45874973D01*
X197686443Y-45878757D01*
X197720418Y-45910662D01*
X197737976Y-45920314D01*
X197754235Y-45930995D01*
X197770064Y-45943273D01*
X197812838Y-45961782D01*
X197818056Y-45964338D01*
X197858908Y-45986797D01*
X197878316Y-45991780D01*
X197896717Y-45998080D01*
X197915104Y-46006037D01*
X197958488Y-46012908D01*
X197961119Y-46013325D01*
X197966839Y-46014509D01*
X198011981Y-46026100D01*
X198032016Y-46026100D01*
X198051414Y-46027626D01*
X198071194Y-46030759D01*
X198071195Y-46030760D01*
X198071195Y-46030759D01*
X198071196Y-46030760D01*
X198117583Y-46026375D01*
X198123422Y-46026100D01*
X204173900Y-46026100D01*
X204240939Y-46045785D01*
X204286694Y-46098589D01*
X204287455Y-46100289D01*
X204294874Y-46117203D01*
X204430883Y-46325382D01*
X204430886Y-46325385D01*
X204599306Y-46508338D01*
X204795541Y-46661074D01*
X204795543Y-46661075D01*
X205013382Y-46778964D01*
X205014240Y-46779428D01*
X205233191Y-46854594D01*
X205248014Y-46859683D01*
X205249436Y-46860171D01*
X205494715Y-46901100D01*
X205743385Y-46901100D01*
X205988664Y-46860171D01*
X206223860Y-46779428D01*
X206442559Y-46661074D01*
X206638794Y-46508338D01*
X206807214Y-46325385D01*
X206943223Y-46117207D01*
X207043113Y-45889481D01*
X207104158Y-45648421D01*
X207104166Y-45648329D01*
X207124693Y-45400605D01*
X207124693Y-45400594D01*
X207104159Y-45152787D01*
X207104157Y-45152775D01*
X207043113Y-44911718D01*
X206943223Y-44683993D01*
X206807216Y-44475817D01*
X206786910Y-44453759D01*
X206638794Y-44292862D01*
X206537673Y-44214156D01*
X206496860Y-44157446D01*
X206492747Y-44127849D01*
X205878166Y-43513269D01*
X205844681Y-43451946D01*
X205849665Y-43382255D01*
X205886690Y-43332793D01*
X205885448Y-43331359D01*
X205892150Y-43325552D01*
X206000811Y-43231398D01*
X206036004Y-43176637D01*
X206088805Y-43130883D01*
X206157964Y-43120939D01*
X206221520Y-43149963D01*
X206227999Y-43155996D01*
X206842484Y-43770482D01*
X206942781Y-43616969D01*
X207042637Y-43389317D01*
X207103662Y-43148338D01*
X207103664Y-43148329D01*
X207124191Y-42900605D01*
X207124191Y-42900594D01*
X207103664Y-42652870D01*
X207103662Y-42652861D01*
X207042637Y-42411882D01*
X206942782Y-42184232D01*
X206830565Y-42012470D01*
X206810378Y-41945581D01*
X206829558Y-41878395D01*
X206860063Y-41845382D01*
X206861379Y-41844396D01*
X206861381Y-41844396D01*
X206976596Y-41758146D01*
X207062846Y-41642931D01*
X207113141Y-41508083D01*
X207119550Y-41448473D01*
X207119549Y-39352728D01*
X207113141Y-39293117D01*
X207069828Y-39176990D01*
X207062847Y-39158271D01*
X207062844Y-39158265D01*
X207058460Y-39152409D01*
X207034044Y-39086945D01*
X207048897Y-39018672D01*
X207098302Y-38969267D01*
X207157728Y-38954100D01*
X207904348Y-38954100D01*
X207971387Y-38973785D01*
X207992029Y-38990419D01*
X214785997Y-45784388D01*
X214795822Y-45796651D01*
X214796043Y-45796469D01*
X214801014Y-45802478D01*
X214821843Y-45822037D01*
X214851435Y-45849826D01*
X214872329Y-45870720D01*
X214877811Y-45874973D01*
X214882243Y-45878757D01*
X214916218Y-45910662D01*
X214933776Y-45920314D01*
X214950035Y-45930995D01*
X214965864Y-45943273D01*
X215008638Y-45961782D01*
X215013856Y-45964338D01*
X215054708Y-45986797D01*
X215074116Y-45991780D01*
X215092517Y-45998080D01*
X215110904Y-46006037D01*
X215154288Y-46012908D01*
X215156919Y-46013325D01*
X215162639Y-46014509D01*
X215207781Y-46026100D01*
X215227816Y-46026100D01*
X215247214Y-46027626D01*
X215266994Y-46030759D01*
X215266995Y-46030760D01*
X215266995Y-46030759D01*
X215266996Y-46030760D01*
X215313383Y-46026375D01*
X215319222Y-46026100D01*
X218673900Y-46026100D01*
X218740939Y-46045785D01*
X218786694Y-46098589D01*
X218787455Y-46100289D01*
X218794874Y-46117203D01*
X218930883Y-46325382D01*
X218930886Y-46325385D01*
X219099306Y-46508338D01*
X219295541Y-46661074D01*
X219295543Y-46661075D01*
X219513382Y-46778964D01*
X219514240Y-46779428D01*
X219733191Y-46854594D01*
X219748014Y-46859683D01*
X219749436Y-46860171D01*
X219994715Y-46901100D01*
X220243385Y-46901100D01*
X220488664Y-46860171D01*
X220723860Y-46779428D01*
X220942559Y-46661074D01*
X221138794Y-46508338D01*
X221307214Y-46325385D01*
X221443223Y-46117207D01*
X221543113Y-45889481D01*
X221604158Y-45648421D01*
X221604166Y-45648329D01*
X221624693Y-45400605D01*
X221624693Y-45400594D01*
X221604159Y-45152787D01*
X221604157Y-45152775D01*
X221543113Y-44911718D01*
X221443223Y-44683993D01*
X221307216Y-44475817D01*
X221285607Y-44452344D01*
X221138794Y-44292862D01*
X220942559Y-44140126D01*
X220942557Y-44140125D01*
X220942556Y-44140124D01*
X220723861Y-44021772D01*
X220723852Y-44021769D01*
X220488666Y-43941029D01*
X220243385Y-43900100D01*
X219994715Y-43900100D01*
X219749433Y-43941029D01*
X219514247Y-44021769D01*
X219514238Y-44021772D01*
X219295543Y-44140124D01*
X219099307Y-44292861D01*
X218930883Y-44475817D01*
X218794874Y-44683996D01*
X218787455Y-44700911D01*
X218742499Y-44754397D01*
X218675763Y-44775086D01*
X218673900Y-44775100D01*
X215597253Y-44775100D01*
X215530214Y-44755415D01*
X215509572Y-44738781D01*
X211171396Y-40400605D01*
X218613909Y-40400605D01*
X218634435Y-40648329D01*
X218634437Y-40648338D01*
X218695462Y-40889317D01*
X218795316Y-41116964D01*
X218895614Y-41270482D01*
X219510100Y-40655995D01*
X219571423Y-40622510D01*
X219641114Y-40627494D01*
X219697048Y-40669365D01*
X219702089Y-40676625D01*
X219702098Y-40676639D01*
X219737289Y-40731398D01*
X219852652Y-40831359D01*
X219850343Y-40834022D01*
X219885056Y-40874099D01*
X219894985Y-40943260D01*
X219865948Y-41006810D01*
X219859932Y-41013269D01*
X219248992Y-41624209D01*
X219295818Y-41660655D01*
X219295820Y-41660656D01*
X219514435Y-41778964D01*
X219514446Y-41778969D01*
X219749556Y-41859683D01*
X219994757Y-41900600D01*
X220243343Y-41900600D01*
X220488543Y-41859683D01*
X220723653Y-41778969D01*
X220723664Y-41778964D01*
X220942278Y-41660657D01*
X220942281Y-41660655D01*
X220989106Y-41624209D01*
X220378166Y-41013269D01*
X220344681Y-40951946D01*
X220349665Y-40882254D01*
X220386691Y-40832793D01*
X220385448Y-40831359D01*
X220395222Y-40822890D01*
X220500811Y-40731398D01*
X220536004Y-40676637D01*
X220588805Y-40630883D01*
X220657964Y-40620939D01*
X220721520Y-40649963D01*
X220727999Y-40655996D01*
X221342484Y-41270482D01*
X221442781Y-41116969D01*
X221542637Y-40889317D01*
X221603662Y-40648338D01*
X221603664Y-40648329D01*
X221624191Y-40400605D01*
X221624191Y-40400594D01*
X221603664Y-40152870D01*
X221603662Y-40152861D01*
X221542637Y-39911882D01*
X221442781Y-39684230D01*
X221342484Y-39530716D01*
X220727999Y-40145202D01*
X220666676Y-40178687D01*
X220596984Y-40173703D01*
X220541051Y-40131831D01*
X220536003Y-40124561D01*
X220500811Y-40069802D01*
X220385448Y-39969841D01*
X220387748Y-39967185D01*
X220353010Y-39927028D01*
X220343124Y-39857861D01*
X220372202Y-39794329D01*
X220378166Y-39787929D01*
X220989106Y-39176989D01*
X220942279Y-39140543D01*
X220723664Y-39022235D01*
X220723653Y-39022230D01*
X220488543Y-38941516D01*
X220243343Y-38900600D01*
X219994757Y-38900600D01*
X219749556Y-38941516D01*
X219514446Y-39022230D01*
X219514440Y-39022232D01*
X219295811Y-39140549D01*
X219248992Y-39176988D01*
X219248992Y-39176990D01*
X219859933Y-39787930D01*
X219893418Y-39849253D01*
X219888434Y-39918944D01*
X219851408Y-39968405D01*
X219852652Y-39969841D01*
X219737288Y-40069802D01*
X219702096Y-40124562D01*
X219649292Y-40170317D01*
X219580133Y-40180260D01*
X219516578Y-40151234D01*
X219510100Y-40145203D01*
X218895614Y-39530716D01*
X218795317Y-39684232D01*
X218695462Y-39911882D01*
X218634437Y-40152861D01*
X218634435Y-40152870D01*
X218613909Y-40400594D01*
X218613909Y-40400605D01*
X211171396Y-40400605D01*
X209119261Y-38348470D01*
X211018550Y-38348470D01*
X211018551Y-38348476D01*
X211024958Y-38408083D01*
X211075252Y-38542928D01*
X211075256Y-38542935D01*
X211161502Y-38658144D01*
X211161505Y-38658147D01*
X211276714Y-38744393D01*
X211276721Y-38744397D01*
X211411567Y-38794691D01*
X211411566Y-38794691D01*
X211418494Y-38795435D01*
X211471177Y-38801100D01*
X214766922Y-38801099D01*
X214826533Y-38794691D01*
X214961381Y-38744396D01*
X215076596Y-38658146D01*
X215162846Y-38542931D01*
X215213141Y-38408083D01*
X215219550Y-38348473D01*
X215219549Y-36252728D01*
X215213141Y-36193117D01*
X215179674Y-36103388D01*
X215162847Y-36058271D01*
X215162843Y-36058264D01*
X215076597Y-35943055D01*
X215076594Y-35943052D01*
X214961385Y-35856806D01*
X214961378Y-35856802D01*
X214826532Y-35806508D01*
X214826533Y-35806508D01*
X214766933Y-35800101D01*
X214766931Y-35800100D01*
X214766923Y-35800100D01*
X214766914Y-35800100D01*
X211471179Y-35800100D01*
X211471173Y-35800101D01*
X211411566Y-35806508D01*
X211276721Y-35856802D01*
X211276714Y-35856806D01*
X211161505Y-35943052D01*
X211161502Y-35943055D01*
X211075256Y-36058264D01*
X211075252Y-36058271D01*
X211024958Y-36193117D01*
X211019771Y-36241370D01*
X211018551Y-36252723D01*
X211018550Y-36252735D01*
X211018550Y-38348470D01*
X209119261Y-38348470D01*
X208715603Y-37944812D01*
X208705780Y-37932550D01*
X208705559Y-37932734D01*
X208700586Y-37926723D01*
X208687489Y-37914424D01*
X208650164Y-37879373D01*
X208636608Y-37865817D01*
X208629275Y-37858483D01*
X208623786Y-37854225D01*
X208619361Y-37850447D01*
X208585382Y-37818538D01*
X208585380Y-37818536D01*
X208585377Y-37818535D01*
X208567829Y-37808888D01*
X208551563Y-37798204D01*
X208535733Y-37785925D01*
X208492968Y-37767418D01*
X208487722Y-37764848D01*
X208446893Y-37742403D01*
X208446892Y-37742402D01*
X208427493Y-37737422D01*
X208409081Y-37731118D01*
X208390698Y-37723162D01*
X208390692Y-37723160D01*
X208344674Y-37715872D01*
X208338952Y-37714687D01*
X208293821Y-37703100D01*
X208293819Y-37703100D01*
X208273784Y-37703100D01*
X208254386Y-37701573D01*
X208246962Y-37700397D01*
X208234605Y-37698440D01*
X208234604Y-37698440D01*
X208188216Y-37702825D01*
X208182378Y-37703100D01*
X194315653Y-37703100D01*
X194248614Y-37683415D01*
X194227972Y-37666781D01*
X192501172Y-35939981D01*
X192467687Y-35878658D01*
X192472671Y-35808966D01*
X192514543Y-35753033D01*
X192580007Y-35728616D01*
X192588853Y-35728300D01*
X201401057Y-35728300D01*
X201416677Y-35730024D01*
X201416704Y-35729739D01*
X201424460Y-35730471D01*
X201424467Y-35730473D01*
X201493614Y-35728300D01*
X201523150Y-35728300D01*
X201530028Y-35727430D01*
X201535841Y-35726972D01*
X201582427Y-35725509D01*
X201601669Y-35719917D01*
X201620712Y-35715974D01*
X201640592Y-35713464D01*
X201683922Y-35696307D01*
X201689446Y-35694417D01*
X201693196Y-35693327D01*
X201734190Y-35681418D01*
X201751429Y-35671222D01*
X201768903Y-35662662D01*
X201787527Y-35655288D01*
X201787527Y-35655287D01*
X201787532Y-35655286D01*
X201825249Y-35627882D01*
X201830105Y-35624692D01*
X201870220Y-35600970D01*
X201884389Y-35586799D01*
X201899179Y-35574168D01*
X201915387Y-35562394D01*
X201945099Y-35526476D01*
X201949012Y-35522176D01*
X204830771Y-32640419D01*
X204892095Y-32606934D01*
X204918453Y-32604100D01*
X226235900Y-32604100D01*
X226302939Y-32623785D01*
X226348694Y-32676589D01*
X226359900Y-32728100D01*
X226359900Y-37163054D01*
X226358175Y-37178672D01*
X226358461Y-37178699D01*
X226357726Y-37186466D01*
X226359899Y-37255614D01*
X226359899Y-37285151D01*
X226360768Y-37292032D01*
X226361226Y-37297851D01*
X226362690Y-37344424D01*
X226362691Y-37344427D01*
X226368280Y-37363667D01*
X226372224Y-37382711D01*
X226374736Y-37402592D01*
X226391584Y-37445146D01*
X226391890Y-37445919D01*
X226393782Y-37451447D01*
X226400087Y-37473149D01*
X226406782Y-37496190D01*
X226414848Y-37509830D01*
X226416980Y-37513434D01*
X226425536Y-37530900D01*
X226432914Y-37549532D01*
X226460298Y-37587223D01*
X226463506Y-37592107D01*
X226487227Y-37632216D01*
X226487233Y-37632224D01*
X226501390Y-37646380D01*
X226514027Y-37661175D01*
X226525806Y-37677387D01*
X226558812Y-37704692D01*
X226561709Y-37707088D01*
X226566020Y-37711010D01*
X230125492Y-41270482D01*
X233676538Y-44821528D01*
X233710023Y-44882851D01*
X233709063Y-44939649D01*
X233655092Y-45152774D01*
X233655090Y-45152787D01*
X233634557Y-45400594D01*
X233634557Y-45400605D01*
X233655090Y-45648412D01*
X233655092Y-45648424D01*
X233716136Y-45889481D01*
X233816026Y-46117206D01*
X233952033Y-46325382D01*
X233952036Y-46325385D01*
X234120456Y-46508338D01*
X234316691Y-46661074D01*
X234316693Y-46661075D01*
X234534532Y-46778964D01*
X234535390Y-46779428D01*
X234754341Y-46854594D01*
X234769164Y-46859683D01*
X234770586Y-46860171D01*
X235015865Y-46901100D01*
X235264535Y-46901100D01*
X235509814Y-46860171D01*
X235745010Y-46779428D01*
X235963709Y-46661074D01*
X236159944Y-46508338D01*
X236328364Y-46325385D01*
X236464373Y-46117207D01*
X236564263Y-45889481D01*
X236625308Y-45648421D01*
X236645843Y-45400605D01*
X248135059Y-45400605D01*
X248155585Y-45648329D01*
X248155587Y-45648338D01*
X248216612Y-45889317D01*
X248316466Y-46116964D01*
X248416764Y-46270482D01*
X249031250Y-45655995D01*
X249092573Y-45622510D01*
X249162264Y-45627494D01*
X249218198Y-45669365D01*
X249223239Y-45676625D01*
X249258439Y-45731398D01*
X249365642Y-45824289D01*
X249373802Y-45831359D01*
X249371493Y-45834022D01*
X249406206Y-45874099D01*
X249416135Y-45943260D01*
X249387098Y-46006810D01*
X249381082Y-46013269D01*
X248770142Y-46624209D01*
X248816968Y-46660655D01*
X248816970Y-46660656D01*
X249035585Y-46778964D01*
X249035596Y-46778969D01*
X249270706Y-46859683D01*
X249515907Y-46900600D01*
X249764493Y-46900600D01*
X250009693Y-46859683D01*
X250244803Y-46778969D01*
X250244814Y-46778964D01*
X250463428Y-46660657D01*
X250463431Y-46660655D01*
X250510256Y-46624209D01*
X249899316Y-46013269D01*
X249865831Y-45951946D01*
X249870815Y-45882254D01*
X249907841Y-45832793D01*
X249906598Y-45831359D01*
X249913300Y-45825552D01*
X250021961Y-45731398D01*
X250057154Y-45676637D01*
X250109955Y-45630883D01*
X250179114Y-45620939D01*
X250242670Y-45649963D01*
X250249149Y-45655996D01*
X250863634Y-46270482D01*
X250963931Y-46116969D01*
X251063787Y-45889317D01*
X251124812Y-45648338D01*
X251124814Y-45648329D01*
X251145341Y-45400605D01*
X251145341Y-45400594D01*
X251124814Y-45152870D01*
X251124812Y-45152861D01*
X251063787Y-44911882D01*
X250963931Y-44684230D01*
X250863634Y-44530716D01*
X250249149Y-45145202D01*
X250187826Y-45178687D01*
X250118134Y-45173703D01*
X250062201Y-45131831D01*
X250057153Y-45124561D01*
X250021961Y-45069802D01*
X249906598Y-44969841D01*
X249908898Y-44967185D01*
X249874160Y-44927028D01*
X249864274Y-44857861D01*
X249893352Y-44794329D01*
X249899316Y-44787929D01*
X250510256Y-44176989D01*
X250463429Y-44140543D01*
X250244814Y-44022235D01*
X250244803Y-44022230D01*
X250009693Y-43941516D01*
X249764493Y-43900600D01*
X249515907Y-43900600D01*
X249270706Y-43941516D01*
X249035596Y-44022230D01*
X249035590Y-44022232D01*
X248816961Y-44140549D01*
X248770142Y-44176988D01*
X248770142Y-44176990D01*
X249381083Y-44787930D01*
X249414568Y-44849253D01*
X249409584Y-44918944D01*
X249372558Y-44968405D01*
X249373802Y-44969841D01*
X249258438Y-45069802D01*
X249223246Y-45124562D01*
X249170442Y-45170317D01*
X249101283Y-45180260D01*
X249037728Y-45151234D01*
X249031250Y-45145203D01*
X248416764Y-44530716D01*
X248316467Y-44684232D01*
X248216612Y-44911882D01*
X248155587Y-45152861D01*
X248155585Y-45152870D01*
X248135059Y-45400594D01*
X248135059Y-45400605D01*
X236645843Y-45400605D01*
X236645843Y-45400600D01*
X236627042Y-45173703D01*
X236625309Y-45152787D01*
X236625307Y-45152775D01*
X236564263Y-44911718D01*
X236464373Y-44683993D01*
X236328366Y-44475817D01*
X236308060Y-44453759D01*
X236159944Y-44292862D01*
X236058823Y-44214156D01*
X236018010Y-44157446D01*
X236013897Y-44127849D01*
X235399316Y-43513269D01*
X235365831Y-43451946D01*
X235370815Y-43382255D01*
X235407840Y-43332793D01*
X235406598Y-43331359D01*
X235413300Y-43325552D01*
X235521961Y-43231398D01*
X235557154Y-43176637D01*
X235609955Y-43130883D01*
X235679114Y-43120939D01*
X235742670Y-43149963D01*
X235749149Y-43155996D01*
X236363634Y-43770482D01*
X236463931Y-43616969D01*
X236563787Y-43389317D01*
X236624812Y-43148338D01*
X236624814Y-43148329D01*
X236645341Y-42900605D01*
X236645341Y-42900594D01*
X236624814Y-42652870D01*
X236624812Y-42652861D01*
X236563787Y-42411882D01*
X236463932Y-42184232D01*
X236351715Y-42012470D01*
X236331528Y-41945581D01*
X236350708Y-41878395D01*
X236381213Y-41845382D01*
X236382529Y-41844396D01*
X236382531Y-41844396D01*
X236497746Y-41758146D01*
X236583996Y-41642931D01*
X236634291Y-41508083D01*
X236640700Y-41448473D01*
X236640699Y-39352728D01*
X236634291Y-39293117D01*
X236590978Y-39176990D01*
X236583997Y-39158271D01*
X236583993Y-39158264D01*
X236497747Y-39043055D01*
X236497744Y-39043052D01*
X236382535Y-38956806D01*
X236382528Y-38956802D01*
X236247682Y-38906508D01*
X236247683Y-38906508D01*
X236188083Y-38900101D01*
X236188081Y-38900100D01*
X236188073Y-38900100D01*
X236188065Y-38900100D01*
X235889700Y-38900100D01*
X235822661Y-38880415D01*
X235776906Y-38827611D01*
X235765700Y-38776100D01*
X235765700Y-38348470D01*
X240539700Y-38348470D01*
X240539701Y-38348476D01*
X240546108Y-38408083D01*
X240596402Y-38542928D01*
X240596406Y-38542935D01*
X240682652Y-38658144D01*
X240682655Y-38658147D01*
X240797864Y-38744393D01*
X240797871Y-38744397D01*
X240932717Y-38794691D01*
X240932716Y-38794691D01*
X240939644Y-38795435D01*
X240992327Y-38801100D01*
X244288072Y-38801099D01*
X244347683Y-38794691D01*
X244482531Y-38744396D01*
X244597746Y-38658146D01*
X244683996Y-38542931D01*
X244734291Y-38408083D01*
X244740700Y-38348473D01*
X244740699Y-36252728D01*
X244734291Y-36193117D01*
X244700824Y-36103388D01*
X244683997Y-36058271D01*
X244683993Y-36058264D01*
X244597747Y-35943055D01*
X244597744Y-35943052D01*
X244482535Y-35856806D01*
X244482528Y-35856802D01*
X244347682Y-35806508D01*
X244347683Y-35806508D01*
X244288083Y-35800101D01*
X244288081Y-35800100D01*
X244288073Y-35800100D01*
X244288064Y-35800100D01*
X240992329Y-35800100D01*
X240992323Y-35800101D01*
X240932716Y-35806508D01*
X240797871Y-35856802D01*
X240797864Y-35856806D01*
X240682655Y-35943052D01*
X240682652Y-35943055D01*
X240596406Y-36058264D01*
X240596402Y-36058271D01*
X240546108Y-36193117D01*
X240540921Y-36241370D01*
X240539701Y-36252723D01*
X240539700Y-36252735D01*
X240539700Y-38348470D01*
X235765700Y-38348470D01*
X235765700Y-36101342D01*
X235767424Y-36085723D01*
X235767139Y-36085697D01*
X235767871Y-36077939D01*
X235767873Y-36077933D01*
X235765699Y-36008785D01*
X235765700Y-35979250D01*
X235764831Y-35972370D01*
X235764372Y-35966543D01*
X235762909Y-35919972D01*
X235757322Y-35900744D01*
X235753374Y-35881684D01*
X235750863Y-35861804D01*
X235733712Y-35818487D01*
X235731819Y-35812958D01*
X235718818Y-35768209D01*
X235718816Y-35768206D01*
X235708623Y-35750971D01*
X235700061Y-35733494D01*
X235692687Y-35714870D01*
X235692686Y-35714868D01*
X235665279Y-35677145D01*
X235662088Y-35672286D01*
X235661461Y-35671226D01*
X235638370Y-35632180D01*
X235638368Y-35632178D01*
X235638365Y-35632174D01*
X235624206Y-35618015D01*
X235611568Y-35603219D01*
X235609934Y-35600970D01*
X235599794Y-35587013D01*
X235599552Y-35586813D01*
X235563888Y-35557309D01*
X235559576Y-35553386D01*
X229365803Y-29359612D01*
X229355980Y-29347350D01*
X229355759Y-29347534D01*
X229350786Y-29341523D01*
X229339892Y-29331293D01*
X229300364Y-29294173D01*
X229289919Y-29283728D01*
X229279475Y-29273283D01*
X229273986Y-29269025D01*
X229269561Y-29265247D01*
X229235582Y-29233338D01*
X229235580Y-29233336D01*
X229235577Y-29233335D01*
X229218029Y-29223688D01*
X229201763Y-29213004D01*
X229185936Y-29200727D01*
X229185935Y-29200726D01*
X229185933Y-29200725D01*
X229143168Y-29182218D01*
X229137922Y-29179648D01*
X229097093Y-29157203D01*
X229097092Y-29157202D01*
X229077693Y-29152222D01*
X229059281Y-29145918D01*
X229040898Y-29137962D01*
X229040892Y-29137960D01*
X228994874Y-29130672D01*
X228989152Y-29129487D01*
X228944021Y-29117900D01*
X228944019Y-29117900D01*
X228923984Y-29117900D01*
X228904586Y-29116373D01*
X228897162Y-29115197D01*
X228884805Y-29113240D01*
X228884804Y-29113240D01*
X228838416Y-29117625D01*
X228832578Y-29117900D01*
X228822917Y-29117900D01*
X228788314Y-29112974D01*
X228786891Y-29112560D01*
X228740874Y-29105272D01*
X228735152Y-29104087D01*
X228690021Y-29092500D01*
X228690019Y-29092500D01*
X228669984Y-29092500D01*
X228650586Y-29090973D01*
X228643162Y-29089797D01*
X228630805Y-29087840D01*
X228630804Y-29087840D01*
X228584416Y-29092225D01*
X228578578Y-29092500D01*
X193962737Y-29092500D01*
X193947120Y-29090776D01*
X193947093Y-29091062D01*
X193939331Y-29090327D01*
X193870203Y-29092500D01*
X193840650Y-29092500D01*
X193839929Y-29092590D01*
X193833757Y-29093369D01*
X193827945Y-29093826D01*
X193781373Y-29095290D01*
X193781372Y-29095290D01*
X193762129Y-29100881D01*
X193743079Y-29104825D01*
X193723211Y-29107334D01*
X193723209Y-29107335D01*
X193679884Y-29124488D01*
X193674357Y-29126380D01*
X193629610Y-29139381D01*
X193629609Y-29139382D01*
X193612367Y-29149579D01*
X193594899Y-29158137D01*
X193576269Y-29165513D01*
X193576267Y-29165514D01*
X193538576Y-29192898D01*
X193533694Y-29196105D01*
X193493579Y-29219830D01*
X193479408Y-29234000D01*
X193464623Y-29246628D01*
X193448412Y-29258407D01*
X193418709Y-29294310D01*
X193414777Y-29298631D01*
X192794421Y-29918986D01*
X192733098Y-29952471D01*
X192663406Y-29947487D01*
X192643620Y-29938038D01*
X192612200Y-29919456D01*
X192612194Y-29919454D01*
X192454373Y-29873602D01*
X192454367Y-29873601D01*
X192417496Y-29870700D01*
X192417494Y-29870700D01*
X191986106Y-29870700D01*
X191986104Y-29870700D01*
X191949232Y-29873601D01*
X191949226Y-29873602D01*
X191791406Y-29919454D01*
X191791403Y-29919455D01*
X191649937Y-30003117D01*
X191643769Y-30007902D01*
X191641872Y-30005456D01*
X191593158Y-30032057D01*
X191523466Y-30027073D01*
X191491096Y-30006269D01*
X191489831Y-30007902D01*
X191483662Y-30003117D01*
X191380761Y-29942262D01*
X191342198Y-29919456D01*
X191342197Y-29919455D01*
X191342196Y-29919455D01*
X191342193Y-29919454D01*
X191184373Y-29873602D01*
X191184367Y-29873601D01*
X191147496Y-29870700D01*
X191147494Y-29870700D01*
X190716106Y-29870700D01*
X190716104Y-29870700D01*
X190679232Y-29873601D01*
X190679226Y-29873602D01*
X190521406Y-29919454D01*
X190521403Y-29919455D01*
X190379937Y-30003117D01*
X190373769Y-30007902D01*
X190371872Y-30005456D01*
X190323158Y-30032057D01*
X190253466Y-30027073D01*
X190221096Y-30006269D01*
X190219831Y-30007902D01*
X190213662Y-30003117D01*
X190110761Y-29942262D01*
X190072198Y-29919456D01*
X190072197Y-29919455D01*
X190072196Y-29919455D01*
X190072193Y-29919454D01*
X189914373Y-29873602D01*
X189914367Y-29873601D01*
X189877496Y-29870700D01*
X189877494Y-29870700D01*
X189446106Y-29870700D01*
X189446104Y-29870700D01*
X189409232Y-29873601D01*
X189409226Y-29873602D01*
X189251406Y-29919454D01*
X189251403Y-29919455D01*
X189109937Y-30003117D01*
X189103769Y-30007902D01*
X189101872Y-30005456D01*
X189053158Y-30032057D01*
X188983466Y-30027073D01*
X188951096Y-30006269D01*
X188949831Y-30007902D01*
X188943662Y-30003117D01*
X188840761Y-29942262D01*
X188802198Y-29919456D01*
X188802197Y-29919455D01*
X188802196Y-29919455D01*
X188802193Y-29919454D01*
X188644373Y-29873602D01*
X188644367Y-29873601D01*
X188607496Y-29870700D01*
X188607494Y-29870700D01*
X188176106Y-29870700D01*
X188176104Y-29870700D01*
X188139232Y-29873601D01*
X188139226Y-29873602D01*
X187981406Y-29919454D01*
X187981403Y-29919455D01*
X187839937Y-30003117D01*
X187833769Y-30007902D01*
X187831872Y-30005456D01*
X187783158Y-30032057D01*
X187713466Y-30027073D01*
X187681096Y-30006269D01*
X187679831Y-30007902D01*
X187673662Y-30003117D01*
X187570761Y-29942262D01*
X187532198Y-29919456D01*
X187532197Y-29919455D01*
X187532196Y-29919455D01*
X187532193Y-29919454D01*
X187374373Y-29873602D01*
X187374367Y-29873601D01*
X187337496Y-29870700D01*
X187337494Y-29870700D01*
X186906106Y-29870700D01*
X186906104Y-29870700D01*
X186869232Y-29873601D01*
X186869226Y-29873602D01*
X186711406Y-29919454D01*
X186711403Y-29919455D01*
X186569937Y-30003117D01*
X186563769Y-30007902D01*
X186561872Y-30005456D01*
X186513158Y-30032057D01*
X186443466Y-30027073D01*
X186411096Y-30006269D01*
X186409831Y-30007902D01*
X186403662Y-30003117D01*
X186300761Y-29942262D01*
X186262198Y-29919456D01*
X186262197Y-29919455D01*
X186262196Y-29919455D01*
X186262193Y-29919454D01*
X186104373Y-29873602D01*
X186104367Y-29873601D01*
X186067496Y-29870700D01*
X186067494Y-29870700D01*
X185636106Y-29870700D01*
X185636104Y-29870700D01*
X185599232Y-29873601D01*
X185599226Y-29873602D01*
X185441406Y-29919454D01*
X185441403Y-29919455D01*
X185299937Y-30003117D01*
X185293769Y-30007902D01*
X185291878Y-30005465D01*
X185243095Y-30032071D01*
X185173406Y-30027050D01*
X185141100Y-30006265D01*
X185139831Y-30007902D01*
X185133662Y-30003117D01*
X185030761Y-29942262D01*
X184992198Y-29919456D01*
X184992197Y-29919455D01*
X184992196Y-29919455D01*
X184992193Y-29919454D01*
X184834373Y-29873602D01*
X184834367Y-29873601D01*
X184797496Y-29870700D01*
X184797494Y-29870700D01*
X184366106Y-29870700D01*
X184366104Y-29870700D01*
X184329232Y-29873601D01*
X184329226Y-29873602D01*
X184171406Y-29919454D01*
X184171403Y-29919455D01*
X184029937Y-30003117D01*
X184023769Y-30007902D01*
X184021878Y-30005465D01*
X183973095Y-30032071D01*
X183903406Y-30027050D01*
X183871100Y-30006265D01*
X183869831Y-30007902D01*
X183863662Y-30003117D01*
X183760761Y-29942262D01*
X183722198Y-29919456D01*
X183722197Y-29919455D01*
X183722196Y-29919455D01*
X183722193Y-29919454D01*
X183564373Y-29873602D01*
X183564367Y-29873601D01*
X183527496Y-29870700D01*
X183527494Y-29870700D01*
X183096106Y-29870700D01*
X183096104Y-29870700D01*
X183059232Y-29873601D01*
X183059226Y-29873602D01*
X182901406Y-29919454D01*
X182901403Y-29919455D01*
X182759937Y-30003117D01*
X182753769Y-30007902D01*
X182751872Y-30005456D01*
X182703158Y-30032057D01*
X182633466Y-30027073D01*
X182601096Y-30006269D01*
X182599831Y-30007902D01*
X182593662Y-30003117D01*
X182490761Y-29942262D01*
X182452198Y-29919456D01*
X182452197Y-29919455D01*
X182452196Y-29919455D01*
X182452193Y-29919454D01*
X182294373Y-29873602D01*
X182294367Y-29873601D01*
X182257496Y-29870700D01*
X182257494Y-29870700D01*
X181826106Y-29870700D01*
X181826104Y-29870700D01*
X181789232Y-29873601D01*
X181789226Y-29873602D01*
X181631406Y-29919454D01*
X181631403Y-29919455D01*
X181489940Y-30003115D01*
X181483774Y-30007899D01*
X181481974Y-30005579D01*
X181432713Y-30032430D01*
X181363025Y-30027393D01*
X181330792Y-30006661D01*
X181329522Y-30008300D01*
X181323352Y-30003514D01*
X181181996Y-29919917D01*
X181181993Y-29919916D01*
X181024294Y-29874100D01*
X181024297Y-29874100D01*
X181021800Y-29873903D01*
X181021800Y-31522200D01*
X181002115Y-31589239D01*
X180949311Y-31634994D01*
X180897800Y-31646200D01*
X180645800Y-31646200D01*
X180578761Y-31626515D01*
X180533006Y-31573711D01*
X180521800Y-31522200D01*
X180521800Y-29873903D01*
X180519303Y-29874100D01*
X180361606Y-29919916D01*
X180361603Y-29919917D01*
X180220249Y-30003513D01*
X180214083Y-30008297D01*
X180212189Y-30005855D01*
X180163380Y-30032439D01*
X180093694Y-30027379D01*
X180061027Y-30006359D01*
X180059831Y-30007902D01*
X180053662Y-30003117D01*
X179950761Y-29942262D01*
X179912198Y-29919456D01*
X179912197Y-29919455D01*
X179912196Y-29919455D01*
X179912193Y-29919454D01*
X179754373Y-29873602D01*
X179754367Y-29873601D01*
X179717496Y-29870700D01*
X179717494Y-29870700D01*
X179286106Y-29870700D01*
X179286104Y-29870700D01*
X179249232Y-29873601D01*
X179249226Y-29873602D01*
X179091406Y-29919454D01*
X179091405Y-29919454D01*
X179044420Y-29947241D01*
X178976696Y-29964422D01*
X178910434Y-29942262D01*
X178866671Y-29887796D01*
X178857300Y-29840508D01*
X178857300Y-29699137D01*
X178859024Y-29683523D01*
X178858738Y-29683496D01*
X178859472Y-29675733D01*
X178857300Y-29606602D01*
X178857300Y-29577051D01*
X178857300Y-29577050D01*
X178856429Y-29570159D01*
X178855972Y-29564345D01*
X178854775Y-29526255D01*
X178854509Y-29517772D01*
X178848920Y-29498537D01*
X178844974Y-29479484D01*
X178842464Y-29459608D01*
X178825301Y-29416259D01*
X178823414Y-29410746D01*
X178810417Y-29366010D01*
X178810416Y-29366008D01*
X178800221Y-29348769D01*
X178791660Y-29331293D01*
X178784286Y-29312669D01*
X178784286Y-29312667D01*
X178770948Y-29294310D01*
X178756883Y-29274950D01*
X178753700Y-29270105D01*
X178729970Y-29229979D01*
X178729965Y-29229973D01*
X178715805Y-29215813D01*
X178703170Y-29201020D01*
X178691393Y-29184812D01*
X178655493Y-29155113D01*
X178651181Y-29151190D01*
X178581972Y-29081980D01*
X178548487Y-29020658D01*
X178553471Y-28950966D01*
X178595343Y-28895033D01*
X178660807Y-28870616D01*
X178669653Y-28870300D01*
X184702257Y-28870300D01*
X184717877Y-28872024D01*
X184717904Y-28871739D01*
X184725660Y-28872471D01*
X184725667Y-28872473D01*
X184794814Y-28870300D01*
X184824350Y-28870300D01*
X184831228Y-28869430D01*
X184837041Y-28868972D01*
X184883627Y-28867509D01*
X184902869Y-28861917D01*
X184921912Y-28857974D01*
X184941792Y-28855464D01*
X184985122Y-28838307D01*
X184990646Y-28836417D01*
X184994396Y-28835327D01*
X185035390Y-28823418D01*
X185052629Y-28813222D01*
X185070103Y-28804662D01*
X185088727Y-28797288D01*
X185088727Y-28797287D01*
X185088732Y-28797286D01*
X185126449Y-28769882D01*
X185131305Y-28766692D01*
X185171420Y-28742970D01*
X185185589Y-28728799D01*
X185200379Y-28716168D01*
X185216587Y-28704394D01*
X185246299Y-28668476D01*
X185250212Y-28664176D01*
X190045586Y-23868802D01*
X190057848Y-23858980D01*
X190057665Y-23858759D01*
X190063667Y-23853792D01*
X190063677Y-23853786D01*
X190111041Y-23803348D01*
X190131920Y-23782470D01*
X190136173Y-23776986D01*
X190139950Y-23772563D01*
X190171862Y-23738582D01*
X190181514Y-23721023D01*
X190192189Y-23704772D01*
X190204474Y-23688936D01*
X190222986Y-23646152D01*
X190225542Y-23640935D01*
X190247997Y-23600092D01*
X190249018Y-23596114D01*
X190250670Y-23593339D01*
X190250867Y-23592842D01*
X190250947Y-23592873D01*
X190284753Y-23536076D01*
X190347276Y-23504888D01*
X190416735Y-23512453D01*
X190432240Y-23520214D01*
X190521402Y-23572944D01*
X190563024Y-23585036D01*
X190679226Y-23618797D01*
X190679229Y-23618797D01*
X190679231Y-23618798D01*
X190691522Y-23619765D01*
X190716104Y-23621700D01*
X190716106Y-23621700D01*
X191147496Y-23621700D01*
X191165931Y-23620249D01*
X191184369Y-23618798D01*
X191184371Y-23618797D01*
X191184373Y-23618797D01*
X191248755Y-23600092D01*
X191342198Y-23572944D01*
X191483665Y-23489281D01*
X191483670Y-23489276D01*
X191489826Y-23484501D01*
X191491727Y-23486952D01*
X191540379Y-23460354D01*
X191610074Y-23465303D01*
X191642500Y-23486142D01*
X191643774Y-23484501D01*
X191649939Y-23489284D01*
X191702243Y-23520216D01*
X191791402Y-23572944D01*
X191833024Y-23585036D01*
X191949226Y-23618797D01*
X191949229Y-23618797D01*
X191949231Y-23618798D01*
X191961522Y-23619765D01*
X191986104Y-23621700D01*
X191986106Y-23621700D01*
X192417496Y-23621700D01*
X192435931Y-23620249D01*
X192454369Y-23618798D01*
X192454371Y-23618797D01*
X192454373Y-23618797D01*
X192518755Y-23600092D01*
X192612198Y-23572944D01*
X192753665Y-23489281D01*
X192869881Y-23373065D01*
X192953544Y-23231598D01*
X192999398Y-23073769D01*
X192999979Y-23066374D01*
X193024862Y-23001085D01*
X193081092Y-22959613D01*
X193123598Y-22952100D01*
X238054148Y-22952100D01*
X238121187Y-22971785D01*
X238141829Y-22988419D01*
X248978380Y-33824971D01*
X249011865Y-33886294D01*
X249014699Y-33912652D01*
X249014699Y-38959079D01*
X248995014Y-39026118D01*
X248949718Y-39068133D01*
X248816696Y-39140122D01*
X248816694Y-39140123D01*
X248620457Y-39292861D01*
X248452033Y-39475817D01*
X248316026Y-39683993D01*
X248216136Y-39911718D01*
X248155092Y-40152775D01*
X248155090Y-40152787D01*
X248134557Y-40400594D01*
X248134557Y-40400605D01*
X248155090Y-40648412D01*
X248155092Y-40648424D01*
X248216136Y-40889481D01*
X248316026Y-41117206D01*
X248452033Y-41325382D01*
X248452036Y-41325385D01*
X248620456Y-41508338D01*
X248816691Y-41661074D01*
X248816693Y-41661075D01*
X249034532Y-41778964D01*
X249035390Y-41779428D01*
X249181201Y-41829485D01*
X249269164Y-41859683D01*
X249270586Y-41860171D01*
X249515865Y-41901100D01*
X249764535Y-41901100D01*
X250009814Y-41860171D01*
X250245010Y-41779428D01*
X250463709Y-41661074D01*
X250659944Y-41508338D01*
X250828364Y-41325385D01*
X250964373Y-41117207D01*
X251064263Y-40889481D01*
X251125308Y-40648421D01*
X251127404Y-40623133D01*
X251133134Y-40553971D01*
X251145843Y-40400600D01*
X251127455Y-40178687D01*
X251125309Y-40152787D01*
X251125307Y-40152775D01*
X251064263Y-39911718D01*
X250964373Y-39683993D01*
X250828366Y-39475817D01*
X250806757Y-39452344D01*
X250659944Y-39292862D01*
X250463709Y-39140126D01*
X250463708Y-39140125D01*
X250463705Y-39140123D01*
X250463703Y-39140122D01*
X250330681Y-39068133D01*
X250281091Y-39018913D01*
X250265700Y-38959079D01*
X250265700Y-36329051D01*
X250265700Y-33684927D01*
X250267425Y-33669323D01*
X250267138Y-33669296D01*
X250267872Y-33661533D01*
X250265700Y-33592402D01*
X250265700Y-33562851D01*
X250265700Y-33562850D01*
X250264829Y-33555959D01*
X250264372Y-33550145D01*
X250264071Y-33540579D01*
X250262909Y-33503572D01*
X250257320Y-33484337D01*
X250253374Y-33465284D01*
X250250864Y-33445408D01*
X250233701Y-33402059D01*
X250231814Y-33396546D01*
X250231465Y-33395346D01*
X250218817Y-33351810D01*
X250213125Y-33342185D01*
X250208621Y-33334569D01*
X250200060Y-33317093D01*
X250192686Y-33298469D01*
X250192686Y-33298467D01*
X250177961Y-33278201D01*
X250165283Y-33260750D01*
X250162100Y-33255905D01*
X250138370Y-33215779D01*
X250138365Y-33215773D01*
X250124205Y-33201613D01*
X250111570Y-33186820D01*
X250100126Y-33171070D01*
X250099794Y-33170613D01*
X250063893Y-33140913D01*
X250059581Y-33136990D01*
X238865402Y-21942811D01*
X238855580Y-21930550D01*
X238855359Y-21930734D01*
X238850386Y-21924723D01*
X238830728Y-21906263D01*
X238799964Y-21877373D01*
X238789519Y-21866928D01*
X238779075Y-21856483D01*
X238773586Y-21852225D01*
X238769161Y-21848447D01*
X238735182Y-21816538D01*
X238735180Y-21816536D01*
X238735177Y-21816535D01*
X238717629Y-21806888D01*
X238701363Y-21796204D01*
X238685536Y-21783927D01*
X238685535Y-21783926D01*
X238685533Y-21783925D01*
X238642768Y-21765418D01*
X238637522Y-21762848D01*
X238596693Y-21740403D01*
X238596692Y-21740402D01*
X238577293Y-21735422D01*
X238558881Y-21729118D01*
X238540498Y-21721162D01*
X238540492Y-21721160D01*
X238494474Y-21713872D01*
X238488752Y-21712687D01*
X238443621Y-21701100D01*
X238443619Y-21701100D01*
X238423584Y-21701100D01*
X238404186Y-21699573D01*
X238396762Y-21698397D01*
X238384405Y-21696440D01*
X238384404Y-21696440D01*
X238338016Y-21700825D01*
X238332178Y-21701100D01*
X193126300Y-21701100D01*
X193059261Y-21681415D01*
X193013506Y-21628611D01*
X193002300Y-21577100D01*
X193002300Y-21155504D01*
X192999398Y-21118632D01*
X192999397Y-21118626D01*
X192953545Y-20960806D01*
X192953544Y-20960803D01*
X192953544Y-20960802D01*
X192869881Y-20819335D01*
X192869879Y-20819333D01*
X192869876Y-20819329D01*
X192753670Y-20703123D01*
X192753662Y-20703117D01*
X192612196Y-20619455D01*
X192612193Y-20619454D01*
X192454373Y-20573602D01*
X192454367Y-20573601D01*
X192417496Y-20570700D01*
X192417494Y-20570700D01*
X191986106Y-20570700D01*
X191986104Y-20570700D01*
X191949232Y-20573601D01*
X191949226Y-20573602D01*
X191791406Y-20619454D01*
X191791403Y-20619455D01*
X191649937Y-20703117D01*
X191643769Y-20707902D01*
X191641872Y-20705456D01*
X191593158Y-20732057D01*
X191523466Y-20727073D01*
X191491096Y-20706269D01*
X191489831Y-20707902D01*
X191483662Y-20703117D01*
X191342196Y-20619455D01*
X191342193Y-20619454D01*
X191184373Y-20573602D01*
X191184367Y-20573601D01*
X191147496Y-20570700D01*
X191147494Y-20570700D01*
X190716106Y-20570700D01*
X190716104Y-20570700D01*
X190679232Y-20573601D01*
X190679226Y-20573602D01*
X190521406Y-20619454D01*
X190521403Y-20619455D01*
X190379937Y-20703117D01*
X190373769Y-20707902D01*
X190371872Y-20705456D01*
X190323158Y-20732057D01*
X190253466Y-20727073D01*
X190221096Y-20706269D01*
X190219831Y-20707902D01*
X190213662Y-20703117D01*
X190072196Y-20619455D01*
X190072193Y-20619454D01*
X189914373Y-20573602D01*
X189914367Y-20573601D01*
X189877496Y-20570700D01*
X189877494Y-20570700D01*
X189446106Y-20570700D01*
X189446104Y-20570700D01*
X189409232Y-20573601D01*
X189409226Y-20573602D01*
X189251406Y-20619454D01*
X189251403Y-20619455D01*
X189109937Y-20703117D01*
X189103769Y-20707902D01*
X189101872Y-20705456D01*
X189053158Y-20732057D01*
X188983466Y-20727073D01*
X188951096Y-20706269D01*
X188949831Y-20707902D01*
X188943662Y-20703117D01*
X188802196Y-20619455D01*
X188802193Y-20619454D01*
X188644373Y-20573602D01*
X188644367Y-20573601D01*
X188607496Y-20570700D01*
X188607494Y-20570700D01*
X188176106Y-20570700D01*
X188176104Y-20570700D01*
X188139232Y-20573601D01*
X188139226Y-20573602D01*
X187981406Y-20619454D01*
X187981403Y-20619455D01*
X187839937Y-20703117D01*
X187833769Y-20707902D01*
X187831872Y-20705456D01*
X187783158Y-20732057D01*
X187713466Y-20727073D01*
X187681096Y-20706269D01*
X187679831Y-20707902D01*
X187673662Y-20703117D01*
X187532196Y-20619455D01*
X187532193Y-20619454D01*
X187374373Y-20573602D01*
X187374367Y-20573601D01*
X187337496Y-20570700D01*
X187337494Y-20570700D01*
X186906106Y-20570700D01*
X186906104Y-20570700D01*
X186869232Y-20573601D01*
X186869226Y-20573602D01*
X186711406Y-20619454D01*
X186711403Y-20619455D01*
X186569937Y-20703117D01*
X186563769Y-20707902D01*
X186561872Y-20705456D01*
X186513158Y-20732057D01*
X186443466Y-20727073D01*
X186411096Y-20706269D01*
X186409831Y-20707902D01*
X186403662Y-20703117D01*
X186262196Y-20619455D01*
X186262193Y-20619454D01*
X186104373Y-20573602D01*
X186104367Y-20573601D01*
X186067496Y-20570700D01*
X186067494Y-20570700D01*
X185636106Y-20570700D01*
X185636104Y-20570700D01*
X185599232Y-20573601D01*
X185599226Y-20573602D01*
X185441406Y-20619454D01*
X185441403Y-20619455D01*
X185299937Y-20703117D01*
X185293769Y-20707902D01*
X185291878Y-20705465D01*
X185243095Y-20732071D01*
X185173406Y-20727050D01*
X185141100Y-20706265D01*
X185139831Y-20707902D01*
X185133662Y-20703117D01*
X184992196Y-20619455D01*
X184992193Y-20619454D01*
X184834373Y-20573602D01*
X184834367Y-20573601D01*
X184797496Y-20570700D01*
X184797494Y-20570700D01*
X184366106Y-20570700D01*
X184366104Y-20570700D01*
X184329232Y-20573601D01*
X184329226Y-20573602D01*
X184171406Y-20619454D01*
X184171403Y-20619455D01*
X184029937Y-20703117D01*
X184023769Y-20707902D01*
X184021872Y-20705456D01*
X183973158Y-20732057D01*
X183903466Y-20727073D01*
X183871096Y-20706269D01*
X183869831Y-20707902D01*
X183863662Y-20703117D01*
X183722196Y-20619455D01*
X183722193Y-20619454D01*
X183564373Y-20573602D01*
X183564367Y-20573601D01*
X183527496Y-20570700D01*
X183527494Y-20570700D01*
X183096106Y-20570700D01*
X183096104Y-20570700D01*
X183059232Y-20573601D01*
X183059226Y-20573602D01*
X182901406Y-20619454D01*
X182901403Y-20619455D01*
X182759937Y-20703117D01*
X182753769Y-20707902D01*
X182751872Y-20705456D01*
X182703158Y-20732057D01*
X182633466Y-20727073D01*
X182601096Y-20706269D01*
X182599831Y-20707902D01*
X182593662Y-20703117D01*
X182452196Y-20619455D01*
X182452193Y-20619454D01*
X182294373Y-20573602D01*
X182294367Y-20573601D01*
X182257496Y-20570700D01*
X182257494Y-20570700D01*
X181826106Y-20570700D01*
X181826104Y-20570700D01*
X181789232Y-20573601D01*
X181789226Y-20573602D01*
X181631406Y-20619454D01*
X181631405Y-20619454D01*
X181570020Y-20655757D01*
X181502296Y-20672939D01*
X181436034Y-20650778D01*
X181392271Y-20596312D01*
X181382900Y-20549024D01*
X181382900Y-18929542D01*
X181384624Y-18913922D01*
X181384339Y-18913896D01*
X181385071Y-18906140D01*
X181385073Y-18906133D01*
X181382900Y-18836985D01*
X181382900Y-18807450D01*
X181382031Y-18800572D01*
X181381572Y-18794743D01*
X181381379Y-18788614D01*
X181380541Y-18761947D01*
X181380109Y-18748172D01*
X181374522Y-18728944D01*
X181370574Y-18709884D01*
X181368063Y-18690004D01*
X181350912Y-18646687D01*
X181349019Y-18641158D01*
X181336018Y-18596409D01*
X181336016Y-18596406D01*
X181325823Y-18579171D01*
X181317261Y-18561694D01*
X181309887Y-18543070D01*
X181309886Y-18543068D01*
X181282479Y-18505345D01*
X181279288Y-18500486D01*
X181275717Y-18494448D01*
X181255570Y-18460380D01*
X181255568Y-18460378D01*
X181255565Y-18460374D01*
X181241406Y-18446215D01*
X181228768Y-18431419D01*
X181225097Y-18426366D01*
X181216994Y-18415213D01*
X181214564Y-18413203D01*
X181181088Y-18385509D01*
X181176776Y-18381586D01*
X178286403Y-15491212D01*
X178276580Y-15478950D01*
X178276359Y-15479134D01*
X178271386Y-15473123D01*
X178252759Y-15455631D01*
X178220964Y-15425773D01*
X178210519Y-15415328D01*
X178200075Y-15404883D01*
X178194586Y-15400625D01*
X178190161Y-15396847D01*
X178156182Y-15364938D01*
X178156180Y-15364936D01*
X178156177Y-15364935D01*
X178138629Y-15355288D01*
X178122363Y-15344604D01*
X178106533Y-15332325D01*
X178063768Y-15313818D01*
X178058522Y-15311248D01*
X178017693Y-15288803D01*
X178017692Y-15288802D01*
X177998293Y-15283822D01*
X177979881Y-15277518D01*
X177961498Y-15269562D01*
X177961492Y-15269560D01*
X177915474Y-15262272D01*
X177909752Y-15261087D01*
X177864621Y-15249500D01*
X177864619Y-15249500D01*
X177844584Y-15249500D01*
X177825186Y-15247973D01*
X177817762Y-15246797D01*
X177805405Y-15244840D01*
X177805404Y-15244840D01*
X177759016Y-15249225D01*
X177753178Y-15249500D01*
X145788143Y-15249500D01*
X145772522Y-15247775D01*
X145772496Y-15248061D01*
X145764734Y-15247327D01*
X145764733Y-15247327D01*
X145695586Y-15249500D01*
X145666049Y-15249500D01*
X145659166Y-15250369D01*
X145653349Y-15250826D01*
X145606773Y-15252290D01*
X145587529Y-15257881D01*
X145568479Y-15261825D01*
X145548611Y-15264334D01*
X145505284Y-15281488D01*
X145499758Y-15283379D01*
X145455014Y-15296379D01*
X145455010Y-15296381D01*
X145437766Y-15306579D01*
X145420305Y-15315133D01*
X145401674Y-15322510D01*
X145401662Y-15322517D01*
X145363970Y-15349902D01*
X145359087Y-15353109D01*
X145318980Y-15376829D01*
X145304814Y-15390995D01*
X145290024Y-15403627D01*
X145273814Y-15415404D01*
X145273811Y-15415407D01*
X145244110Y-15451309D01*
X145240177Y-15455631D01*
X142455028Y-18240781D01*
X142393705Y-18274266D01*
X142367347Y-18277100D01*
X127855499Y-18277100D01*
X127788460Y-18257415D01*
X127742705Y-18204611D01*
X127731499Y-18153100D01*
X127731499Y-18004729D01*
X127731498Y-18004723D01*
X127731117Y-18001180D01*
X127725091Y-17945117D01*
X127723810Y-17941683D01*
X127674797Y-17810271D01*
X127674793Y-17810264D01*
X127588547Y-17695055D01*
X127588544Y-17695052D01*
X127473335Y-17608806D01*
X127473328Y-17608802D01*
X127338482Y-17558508D01*
X127338483Y-17558508D01*
X127278883Y-17552101D01*
X127278881Y-17552100D01*
X127278873Y-17552100D01*
X127278864Y-17552100D01*
X125483129Y-17552100D01*
X125483123Y-17552101D01*
X125423516Y-17558508D01*
X125288671Y-17608802D01*
X125288664Y-17608806D01*
X125173455Y-17695052D01*
X125173452Y-17695055D01*
X125087206Y-17810264D01*
X125087203Y-17810269D01*
X125038189Y-17941683D01*
X124996317Y-17997616D01*
X124930853Y-18022033D01*
X124862580Y-18007181D01*
X124834326Y-17986030D01*
X124712402Y-17864106D01*
X124712395Y-17864101D01*
X124518834Y-17728567D01*
X124518830Y-17728565D01*
X124518047Y-17728200D01*
X124304663Y-17628697D01*
X124304659Y-17628696D01*
X124304655Y-17628694D01*
X124076413Y-17567538D01*
X124076403Y-17567536D01*
X123841001Y-17546941D01*
X123840999Y-17546941D01*
X123605596Y-17567536D01*
X123605586Y-17567538D01*
X123377344Y-17628694D01*
X123377335Y-17628698D01*
X123163171Y-17728564D01*
X123163169Y-17728565D01*
X122969597Y-17864105D01*
X122802505Y-18031197D01*
X122667348Y-18224223D01*
X122612771Y-18267848D01*
X122565773Y-18277100D01*
X119773537Y-18277100D01*
X119757920Y-18275376D01*
X119757893Y-18275662D01*
X119750131Y-18274927D01*
X119681003Y-18277100D01*
X119651450Y-18277100D01*
X119650729Y-18277190D01*
X119644557Y-18277969D01*
X119638745Y-18278426D01*
X119592172Y-18279890D01*
X119592169Y-18279891D01*
X119572926Y-18285481D01*
X119553883Y-18289425D01*
X119534004Y-18291936D01*
X119534003Y-18291937D01*
X119490678Y-18309090D01*
X119485152Y-18310982D01*
X119440408Y-18323983D01*
X119440404Y-18323985D01*
X119423165Y-18334180D01*
X119405698Y-18342737D01*
X119387069Y-18350112D01*
X119387067Y-18350113D01*
X119349364Y-18377506D01*
X119344482Y-18380712D01*
X119304380Y-18404428D01*
X119290208Y-18418600D01*
X119275423Y-18431228D01*
X119259212Y-18443007D01*
X119229509Y-18478910D01*
X119225577Y-18483231D01*
X114714608Y-22994199D01*
X114702351Y-23004020D01*
X114702534Y-23004241D01*
X114696523Y-23009213D01*
X114649172Y-23059636D01*
X114628289Y-23080519D01*
X114628277Y-23080532D01*
X114624021Y-23086017D01*
X114620237Y-23090447D01*
X114588337Y-23124418D01*
X114588336Y-23124420D01*
X114578684Y-23141976D01*
X114568010Y-23158226D01*
X114555729Y-23174061D01*
X114555724Y-23174068D01*
X114537215Y-23216838D01*
X114534645Y-23222084D01*
X114512203Y-23262906D01*
X114507222Y-23282307D01*
X114500921Y-23300710D01*
X114492962Y-23319102D01*
X114492961Y-23319105D01*
X114485671Y-23365127D01*
X114484487Y-23370846D01*
X114472901Y-23415972D01*
X114472900Y-23415982D01*
X114472900Y-23436016D01*
X114471373Y-23455413D01*
X114468240Y-23475196D01*
X114073560Y-23475196D01*
X114082245Y-15059569D01*
X114101999Y-14992553D01*
X114154850Y-14946853D01*
X114206245Y-14935700D01*
X253099100Y-14935700D01*
X253166139Y-14955385D01*
G37*
%TD.AperFunction*%
%TD*%
M02*
