%TF.GenerationSoftware,KiCad,Pcbnew,7.0.7*%
%TF.CreationDate,2024-03-19T10:01:58+01:00*%
%TF.ProjectId,Poly_UA_controller_5enc_5sw,506f6c79-5f55-4415-9f63-6f6e74726f6c,rev?*%
%TF.SameCoordinates,Original*%
%TF.FileFunction,Copper,L1,Top*%
%TF.FilePolarity,Positive*%
%FSLAX46Y46*%
G04 Gerber Fmt 4.6, Leading zero omitted, Abs format (unit mm)*
G04 Created by KiCad (PCBNEW 7.0.7) date 2024-03-19 10:01:58*
%MOMM*%
%LPD*%
G01*
G04 APERTURE LIST*
G04 Aperture macros list*
%AMRoundRect*
0 Rectangle with rounded corners*
0 $1 Rounding radius*
0 $2 $3 $4 $5 $6 $7 $8 $9 X,Y pos of 4 corners*
0 Add a 4 corners polygon primitive as box body*
4,1,4,$2,$3,$4,$5,$6,$7,$8,$9,$2,$3,0*
0 Add four circle primitives for the rounded corners*
1,1,$1+$1,$2,$3*
1,1,$1+$1,$4,$5*
1,1,$1+$1,$6,$7*
1,1,$1+$1,$8,$9*
0 Add four rect primitives between the rounded corners*
20,1,$1+$1,$2,$3,$4,$5,0*
20,1,$1+$1,$4,$5,$6,$7,0*
20,1,$1+$1,$6,$7,$8,$9,0*
20,1,$1+$1,$8,$9,$2,$3,0*%
G04 Aperture macros list end*
%TA.AperFunction,ComponentPad*%
%ADD10R,1.700000X1.700000*%
%TD*%
%TA.AperFunction,ComponentPad*%
%ADD11O,1.700000X1.700000*%
%TD*%
%TA.AperFunction,SMDPad,CuDef*%
%ADD12R,1.500000X1.000000*%
%TD*%
%TA.AperFunction,ComponentPad*%
%ADD13R,2.000000X2.000000*%
%TD*%
%TA.AperFunction,ComponentPad*%
%ADD14C,2.000000*%
%TD*%
%TA.AperFunction,ComponentPad*%
%ADD15R,3.200000X2.000000*%
%TD*%
%TA.AperFunction,SMDPad,CuDef*%
%ADD16RoundRect,0.250000X0.412500X0.650000X-0.412500X0.650000X-0.412500X-0.650000X0.412500X-0.650000X0*%
%TD*%
%TA.AperFunction,ViaPad*%
%ADD17C,0.800000*%
%TD*%
%TA.AperFunction,Conductor*%
%ADD18C,0.250000*%
%TD*%
%TA.AperFunction,Conductor*%
%ADD19C,0.350000*%
%TD*%
%TA.AperFunction,Conductor*%
%ADD20C,0.500000*%
%TD*%
G04 APERTURE END LIST*
D10*
%TO.P,J8_POLY1,1,Pin_1*%
%TO.N,MCP23017_IRQ*%
X126381000Y-18902600D03*
D11*
%TO.P,J8_POLY1,2,Pin_2*%
%TO.N,LED_DATA_IN*%
X123841000Y-18902600D03*
%TO.P,J8_POLY1,3,Pin_3*%
%TO.N,unconnected-(J8_POLY1-Pin_3-Pad3)*%
X126381000Y-21442600D03*
%TO.P,J8_POLY1,4,Pin_4*%
%TO.N,unconnected-(J8_POLY1-Pin_4-Pad4)*%
X123841000Y-21442600D03*
%TO.P,J8_POLY1,5,Pin_5*%
%TO.N,unconnected-(J8_POLY1-Pin_5-Pad5)*%
X126381000Y-23982600D03*
%TO.P,J8_POLY1,6,Pin_6*%
%TO.N,VCC*%
X123841000Y-23982600D03*
%TO.P,J8_POLY1,7,Pin_7*%
%TO.N,GND*%
X126381000Y-26522600D03*
%TO.P,J8_POLY1,8,Pin_8*%
%TO.N,LED_POWER*%
X123841000Y-26522600D03*
%TO.P,J8_POLY1,9,Pin_9*%
%TO.N,SCK*%
X126381000Y-29062600D03*
%TO.P,J8_POLY1,10,Pin_10*%
%TO.N,SDA*%
X123841000Y-29062600D03*
%TD*%
D12*
%TO.P,D5,1,VSS*%
%TO.N,GND*%
X210294050Y-54686600D03*
%TO.P,D5,2,DIN*%
%TO.N,Net-(D4-DOUT)*%
X210294050Y-57886600D03*
%TO.P,D5,3,VDD*%
%TO.N,LED_POWER*%
X215194050Y-57886600D03*
%TO.P,D5,4,DOUT*%
%TO.N,Net-(D5-DOUT)*%
X215194050Y-54686600D03*
%TD*%
D13*
%TO.P,SW3,A,A*%
%TO.N,R3_A*%
X176097900Y-40400600D03*
D14*
%TO.P,SW3,B,B*%
%TO.N,R3_B*%
X176097900Y-45400600D03*
%TO.P,SW3,C,C*%
%TO.N,GND*%
X176097900Y-42900600D03*
D15*
%TO.P,SW3,MP*%
%TO.N,N/C*%
X183597900Y-37300600D03*
X183597900Y-48500600D03*
D14*
%TO.P,SW3,S1,S1*%
%TO.N,SW_3*%
X190597900Y-45400600D03*
%TO.P,SW3,S2,S2*%
%TO.N,GND*%
X190597900Y-40400600D03*
%TD*%
D12*
%TO.P,D6,1,VSS*%
%TO.N,GND*%
X239829000Y-54737000D03*
%TO.P,D6,2,DIN*%
%TO.N,Net-(D5-DOUT)*%
X239829000Y-57937000D03*
%TO.P,D6,3,VDD*%
%TO.N,LED_POWER*%
X244729000Y-57937000D03*
%TO.P,D6,4,DOUT*%
%TO.N,unconnected-(D6-DOUT-Pad4)*%
X244729000Y-54737000D03*
%TD*%
D13*
%TO.P,SW2,A,A*%
%TO.N,R2_A*%
X146576750Y-40400600D03*
D14*
%TO.P,SW2,B,B*%
%TO.N,R2_B*%
X146576750Y-45400600D03*
%TO.P,SW2,C,C*%
%TO.N,GND*%
X146576750Y-42900600D03*
D15*
%TO.P,SW2,MP*%
%TO.N,N/C*%
X154076750Y-37300600D03*
X154076750Y-48500600D03*
D14*
%TO.P,SW2,S1,S1*%
%TO.N,SW_2*%
X161076750Y-45400600D03*
%TO.P,SW2,S2,S2*%
%TO.N,GND*%
X161076750Y-40400600D03*
%TD*%
D16*
%TO.P,C4,1*%
%TO.N,GND*%
X132131600Y-57937400D03*
%TO.P,C4,2*%
%TO.N,LED_POWER*%
X129006600Y-57937400D03*
%TD*%
%TO.P,C2,1*%
%TO.N,GND*%
X250216200Y-58013600D03*
%TO.P,C2,2*%
%TO.N,LED_POWER*%
X247091200Y-58013600D03*
%TD*%
D12*
%TO.P,D4,1,VSS*%
%TO.N,GND*%
X180772900Y-54686600D03*
%TO.P,D4,2,DIN*%
%TO.N,Net-(D3-DOUT)*%
X180772900Y-57886600D03*
%TO.P,D4,3,VDD*%
%TO.N,LED_POWER*%
X185672900Y-57886600D03*
%TO.P,D4,4,DOUT*%
%TO.N,Net-(D4-DOUT)*%
X185672900Y-54686600D03*
%TD*%
D16*
%TO.P,C6,1*%
%TO.N,GND*%
X191339000Y-58013600D03*
%TO.P,C6,2*%
%TO.N,LED_POWER*%
X188214000Y-58013600D03*
%TD*%
%TO.P,C5,1*%
%TO.N,GND*%
X161823400Y-58140600D03*
%TO.P,C5,2*%
%TO.N,LED_POWER*%
X158698400Y-58140600D03*
%TD*%
D12*
%TO.P,D3,1,VSS*%
%TO.N,GND*%
X151251750Y-54762800D03*
%TO.P,D3,2,DIN*%
%TO.N,Net-(D1-DOUT)*%
X151251750Y-57962800D03*
%TO.P,D3,3,VDD*%
%TO.N,LED_POWER*%
X156151750Y-57962800D03*
%TO.P,D3,4,DOUT*%
%TO.N,Net-(D3-DOUT)*%
X156151750Y-54762800D03*
%TD*%
%TO.P,D1,1,VSS*%
%TO.N,GND*%
X121730600Y-54762800D03*
%TO.P,D1,2,DIN*%
%TO.N,LED_DATA_IN*%
X121730600Y-57962800D03*
%TO.P,D1,3,VDD*%
%TO.N,LED_POWER*%
X126630600Y-57962800D03*
%TO.P,D1,4,DOUT*%
%TO.N,Net-(D1-DOUT)*%
X126630600Y-54762800D03*
%TD*%
D16*
%TO.P,C1,1*%
%TO.N,GND*%
X220649800Y-57835800D03*
%TO.P,C1,2*%
%TO.N,LED_POWER*%
X217524800Y-57835800D03*
%TD*%
D13*
%TO.P,SW5,A,A*%
%TO.N,R5_A*%
X235140200Y-40400600D03*
D14*
%TO.P,SW5,B,B*%
%TO.N,R5_B*%
X235140200Y-45400600D03*
%TO.P,SW5,C,C*%
%TO.N,GND*%
X235140200Y-42900600D03*
D15*
%TO.P,SW5,MP*%
%TO.N,N/C*%
X242640200Y-37300600D03*
X242640200Y-48500600D03*
D14*
%TO.P,SW5,S1,S1*%
%TO.N,GND*%
X249640200Y-45400600D03*
%TO.P,SW5,S2,S2*%
%TO.N,SW_5*%
X249640200Y-40400600D03*
%TD*%
D13*
%TO.P,SW1,A,A*%
%TO.N,R1_A*%
X117055600Y-40400600D03*
D14*
%TO.P,SW1,B,B*%
%TO.N,R1_B*%
X117055600Y-45400600D03*
%TO.P,SW1,C,C*%
%TO.N,GND*%
X117055600Y-42900600D03*
D15*
%TO.P,SW1,MP*%
%TO.N,N/C*%
X124555600Y-37300600D03*
X124555600Y-48500600D03*
D14*
%TO.P,SW1,S1,S1*%
%TO.N,SW_1*%
X131555600Y-45400600D03*
%TO.P,SW1,S2,S2*%
%TO.N,GND*%
X131555600Y-40400600D03*
%TD*%
D13*
%TO.P,SW4,A,A*%
%TO.N,R4_A*%
X205619050Y-40400600D03*
D14*
%TO.P,SW4,B,B*%
%TO.N,R4_B*%
X205619050Y-45400600D03*
%TO.P,SW4,C,C*%
%TO.N,GND*%
X205619050Y-42900600D03*
D15*
%TO.P,SW4,MP*%
%TO.N,N/C*%
X213119050Y-37300600D03*
X213119050Y-48500600D03*
D14*
%TO.P,SW4,S1,S1*%
%TO.N,SW_4*%
X220119050Y-45400600D03*
%TO.P,SW4,S2,S2*%
%TO.N,GND*%
X220119050Y-40400600D03*
%TD*%
D17*
%TO.N,GND*%
X143673400Y-26416000D03*
X147889800Y-26670000D03*
X153757200Y-27355800D03*
X217460400Y-17475200D03*
X230744600Y-26162000D03*
X203084000Y-36753800D03*
X200544000Y-43586400D03*
X194981400Y-49936400D03*
X134707200Y-35077400D03*
X140320600Y-34086800D03*
X140041200Y-47447200D03*
X118298800Y-27127200D03*
X117155800Y-17805400D03*
X139177600Y-17373600D03*
X168895600Y-17272000D03*
X148397800Y-18567400D03*
%TO.N,LED_DATA_IN*%
X119416400Y-57988200D03*
%TO.N,VCC*%
X179335000Y-19278600D03*
X156221000Y-19253200D03*
X180797200Y-33680400D03*
%TO.N,SDA*%
X176961800Y-29946600D03*
X169200400Y-29616400D03*
%TO.N,SCK*%
X171958000Y-29159200D03*
%TD*%
D18*
%TO.N,SDA*%
X167244600Y-31572200D02*
X169200400Y-29616400D01*
X126350600Y-31572200D02*
X167244600Y-31572200D01*
X123841000Y-29062600D02*
X126350600Y-31572200D01*
%TO.N,SCK*%
X171958000Y-28437000D02*
X171958000Y-29159200D01*
X169937000Y-26416000D02*
X171958000Y-28437000D01*
X162845400Y-29062600D02*
X165492000Y-26416000D01*
X126381000Y-29062600D02*
X162845400Y-29062600D01*
X165492000Y-26416000D02*
X169937000Y-26416000D01*
D19*
%TO.N,VCC*%
X179512800Y-19456400D02*
X179335000Y-19278600D01*
X179512800Y-25614200D02*
X179512800Y-19456400D01*
X182016400Y-32461200D02*
X182016400Y-28117800D01*
X180797200Y-33680400D02*
X182016400Y-32461200D01*
X182016400Y-28117800D02*
X179512800Y-25614200D01*
X120661000Y-15925800D02*
X155916200Y-15925800D01*
X156119400Y-16129000D02*
X156119400Y-19151600D01*
X120153000Y-16433800D02*
X120661000Y-15925800D01*
X120153000Y-22961600D02*
X120153000Y-16433800D01*
X121174000Y-23982600D02*
X120153000Y-22961600D01*
X155916200Y-15925800D02*
X156119400Y-16129000D01*
X123841000Y-23982600D02*
X121174000Y-23982600D01*
X156119400Y-19151600D02*
X156221000Y-19253200D01*
D18*
%TO.N,LED_DATA_IN*%
X119391000Y-57962800D02*
X119289400Y-57962800D01*
X119416400Y-57988200D02*
X119391000Y-57962800D01*
X119441800Y-57962800D02*
X119416400Y-57988200D01*
D20*
%TO.N,LED_POWER*%
X127188800Y-60985400D02*
X127341200Y-60833000D01*
X116495400Y-60985400D02*
X127188800Y-60985400D01*
X116495400Y-53213000D02*
X116495400Y-60985400D01*
X119848200Y-49860200D02*
X116495400Y-53213000D01*
X119848200Y-30515400D02*
X119848200Y-49860200D01*
X123841000Y-26522600D02*
X119848200Y-30515400D01*
X127341200Y-60833000D02*
X156032200Y-60833000D01*
X126644400Y-60833000D02*
X127341200Y-60833000D01*
%TO.N,GND*%
X239662400Y-54610000D02*
X239815200Y-54762800D01*
X210115850Y-54584600D02*
X210294050Y-54762800D01*
%TO.N,LED_POWER*%
X128981200Y-57962800D02*
X129006600Y-57937400D01*
X244729000Y-60833000D02*
X244729000Y-57937000D01*
X244729000Y-57937000D02*
X247014600Y-57937000D01*
X217525600Y-60833000D02*
X244729000Y-60833000D01*
X215194050Y-57886600D02*
X217474000Y-57886600D01*
X185801000Y-60833000D02*
X185672900Y-60704900D01*
X185672900Y-57886600D02*
X188087000Y-57886600D01*
X217474000Y-57886600D02*
X217524800Y-57835800D01*
X156032200Y-60833000D02*
X156151750Y-60713450D01*
X247014600Y-57937000D02*
X247091200Y-58013600D01*
X156032200Y-60833000D02*
X185801000Y-60833000D01*
X126630600Y-60819200D02*
X126630600Y-57962800D01*
X185801000Y-60833000D02*
X215214200Y-60833000D01*
X188087000Y-57886600D02*
X188214000Y-58013600D01*
X215214200Y-60833000D02*
X217525600Y-60833000D01*
X126644400Y-60833000D02*
X126630600Y-60819200D01*
X156151750Y-57962800D02*
X158520600Y-57962800D01*
X215194050Y-60812850D02*
X215194050Y-57886600D01*
X126630600Y-57962800D02*
X128981200Y-57962800D01*
X158520600Y-57962800D02*
X158698400Y-58140600D01*
X156151750Y-60713450D02*
X156151750Y-57962800D01*
X185672900Y-60704900D02*
X185672900Y-57886600D01*
X215214200Y-60833000D02*
X215194050Y-60812850D01*
D19*
%TO.N,VCC*%
X156221000Y-19253200D02*
X167244600Y-19202400D01*
X167244600Y-19202400D02*
X179335000Y-19278600D01*
X179335000Y-19278600D02*
X179335000Y-19329400D01*
D18*
%TO.N,LED_DATA_IN*%
X121730600Y-57962800D02*
X119441800Y-57962800D01*
%TO.N,Net-(D1-DOUT)*%
X146659600Y-57962800D02*
X151251750Y-57962800D01*
X126630600Y-54762800D02*
X130832673Y-54762800D01*
X130857673Y-54787800D02*
X143484600Y-54787800D01*
X143484600Y-54787800D02*
X146659600Y-57962800D01*
X130832673Y-54762800D02*
X130857673Y-54787800D01*
%TO.N,Net-(D3-DOUT)*%
X156151750Y-54762800D02*
X177649100Y-54762800D01*
X177649100Y-54762800D02*
X180772900Y-57886600D01*
%TO.N,Net-(D4-DOUT)*%
X207094050Y-54686600D02*
X210294050Y-57886600D01*
X185672900Y-54686600D02*
X207094050Y-54686600D01*
%TO.N,Net-(D5-DOUT)*%
X215194050Y-54686600D02*
X236578600Y-54686600D01*
X236578600Y-54686600D02*
X239829000Y-57937000D01*
%TO.N,SDA*%
X171657695Y-29884200D02*
X176899400Y-29884200D01*
X176899400Y-29884200D02*
X176961800Y-29946600D01*
X170256200Y-29794200D02*
X171567695Y-29794200D01*
X169200400Y-29616400D02*
X170078400Y-29616400D01*
X170078400Y-29616400D02*
X170256200Y-29794200D01*
X171567695Y-29794200D02*
X171657695Y-29884200D01*
%TO.N,SCK*%
X171958000Y-29159200D02*
X171983400Y-29133800D01*
%TD*%
%TA.AperFunction,Conductor*%
%TO.N,GND*%
G36*
X253166139Y-14955385D02*
G01*
X253211894Y-15008189D01*
X253223100Y-15059700D01*
X253223100Y-64061300D01*
X253203415Y-64128339D01*
X253150611Y-64174094D01*
X253099100Y-64185300D01*
X205946966Y-64185300D01*
X114206204Y-64135067D01*
X114139175Y-64115346D01*
X114093449Y-64062517D01*
X114082272Y-64011195D01*
X114079917Y-61729529D01*
X114079194Y-61029335D01*
X115741069Y-61029335D01*
X115752195Y-61092438D01*
X115752718Y-61096005D01*
X115760158Y-61159649D01*
X115760161Y-61159664D01*
X115763994Y-61170195D01*
X115769586Y-61191064D01*
X115771533Y-61202108D01*
X115771534Y-61202110D01*
X115796910Y-61260938D01*
X115798242Y-61264290D01*
X115820162Y-61324516D01*
X115820163Y-61324517D01*
X115826086Y-61333523D01*
X115826324Y-61333884D01*
X115836579Y-61352904D01*
X115841020Y-61363199D01*
X115841024Y-61363206D01*
X115879291Y-61414607D01*
X115881360Y-61417562D01*
X115916570Y-61471096D01*
X115924730Y-61478795D01*
X115939090Y-61494931D01*
X115945790Y-61503930D01*
X115994884Y-61545125D01*
X115997579Y-61547524D01*
X116044179Y-61591490D01*
X116044180Y-61591490D01*
X116044182Y-61591492D01*
X116053889Y-61597096D01*
X116071595Y-61609494D01*
X116080186Y-61616702D01*
X116080187Y-61616702D01*
X116080189Y-61616704D01*
X116099859Y-61626582D01*
X116137476Y-61645473D01*
X116140612Y-61647165D01*
X116196119Y-61679212D01*
X116206863Y-61682428D01*
X116226944Y-61690406D01*
X116236967Y-61695440D01*
X116250397Y-61698623D01*
X116299329Y-61710221D01*
X116302787Y-61711146D01*
X116364190Y-61729530D01*
X116375378Y-61730181D01*
X116396772Y-61733314D01*
X116407679Y-61735900D01*
X116471759Y-61735900D01*
X116475359Y-61736004D01*
X116539335Y-61739731D01*
X116550376Y-61737784D01*
X116571909Y-61735900D01*
X127125095Y-61735900D01*
X127143065Y-61737209D01*
X127166823Y-61740689D01*
X127218868Y-61736135D01*
X127224270Y-61735900D01*
X127232504Y-61735900D01*
X127232509Y-61735900D01*
X127254622Y-61733315D01*
X127265076Y-61732093D01*
X127286943Y-61730180D01*
X127341597Y-61725399D01*
X127341605Y-61725396D01*
X127348666Y-61723939D01*
X127348678Y-61723998D01*
X127356043Y-61722365D01*
X127356029Y-61722306D01*
X127363046Y-61720641D01*
X127363055Y-61720641D01*
X127435223Y-61694374D01*
X127508134Y-61670214D01*
X127508143Y-61670207D01*
X127514682Y-61667160D01*
X127514708Y-61667216D01*
X127521490Y-61663932D01*
X127521463Y-61663878D01*
X127527906Y-61660640D01*
X127527917Y-61660637D01*
X127592083Y-61618434D01*
X127617881Y-61602522D01*
X127618791Y-61601961D01*
X127683887Y-61583500D01*
X155944479Y-61583500D01*
X155968495Y-61583500D01*
X155986465Y-61584809D01*
X156010223Y-61588289D01*
X156062268Y-61583735D01*
X156067670Y-61583500D01*
X185711655Y-61583500D01*
X185727944Y-61585164D01*
X185727950Y-61585105D01*
X185735139Y-61585734D01*
X185735143Y-61585733D01*
X185735144Y-61585734D01*
X185811917Y-61583500D01*
X215124861Y-61583500D01*
X215141146Y-61585163D01*
X215141152Y-61585104D01*
X215148340Y-61585733D01*
X215148343Y-61585732D01*
X215148344Y-61585733D01*
X215225098Y-61583500D01*
X217437879Y-61583500D01*
X244705359Y-61583500D01*
X244708959Y-61583604D01*
X244772935Y-61587331D01*
X244836064Y-61576198D01*
X244839606Y-61575679D01*
X244903255Y-61568241D01*
X244913782Y-61564408D01*
X244934672Y-61558811D01*
X244945711Y-61556865D01*
X245004555Y-61531482D01*
X245007876Y-61530161D01*
X245068117Y-61508237D01*
X245077488Y-61502072D01*
X245096506Y-61491818D01*
X245106804Y-61487377D01*
X245158233Y-61449087D01*
X245161128Y-61447060D01*
X245214696Y-61411830D01*
X245222391Y-61403672D01*
X245238534Y-61389306D01*
X245247530Y-61382610D01*
X245288751Y-61333482D01*
X245291090Y-61330855D01*
X245335092Y-61284218D01*
X245340700Y-61274502D01*
X245353093Y-61256803D01*
X245360302Y-61248214D01*
X245389080Y-61190909D01*
X245390741Y-61187826D01*
X245422812Y-61132281D01*
X245426029Y-61121533D01*
X245434006Y-61101455D01*
X245439040Y-61091433D01*
X245453822Y-61029059D01*
X245454744Y-61025617D01*
X245473130Y-60964210D01*
X245473781Y-60953018D01*
X245476917Y-60931617D01*
X245479499Y-60920725D01*
X245479500Y-60920721D01*
X245479500Y-60856640D01*
X245479605Y-60853034D01*
X245483331Y-60789065D01*
X245481384Y-60778021D01*
X245479500Y-60756490D01*
X245479500Y-59053976D01*
X245499185Y-58986937D01*
X245551989Y-58941182D01*
X245579135Y-58933736D01*
X245578932Y-58932876D01*
X245586479Y-58931092D01*
X245586481Y-58931091D01*
X245586483Y-58931091D01*
X245721331Y-58880796D01*
X245774743Y-58840811D01*
X245840206Y-58816394D01*
X245908479Y-58831245D01*
X245957885Y-58880650D01*
X245966759Y-58901072D01*
X245993816Y-58982724D01*
X245993886Y-58982933D01*
X245993887Y-58982936D01*
X246013537Y-59014793D01*
X246085988Y-59132256D01*
X246210044Y-59256312D01*
X246359366Y-59348414D01*
X246525903Y-59403599D01*
X246628691Y-59414100D01*
X247553708Y-59414099D01*
X247553716Y-59414098D01*
X247553719Y-59414098D01*
X247610002Y-59408348D01*
X247656497Y-59403599D01*
X247823034Y-59348414D01*
X247972356Y-59256312D01*
X248096412Y-59132256D01*
X248188514Y-58982934D01*
X248243699Y-58816397D01*
X248254200Y-58713609D01*
X248254200Y-58263600D01*
X249053701Y-58263600D01*
X249053701Y-58713586D01*
X249064194Y-58816297D01*
X249119341Y-58982719D01*
X249119343Y-58982724D01*
X249211384Y-59131945D01*
X249335354Y-59255915D01*
X249484575Y-59347956D01*
X249484580Y-59347958D01*
X249651002Y-59403105D01*
X249651009Y-59403106D01*
X249753719Y-59413599D01*
X249966199Y-59413599D01*
X249966200Y-59413598D01*
X249966200Y-58263600D01*
X250466200Y-58263600D01*
X250466200Y-59413599D01*
X250678672Y-59413599D01*
X250678686Y-59413598D01*
X250781397Y-59403105D01*
X250947819Y-59347958D01*
X250947824Y-59347956D01*
X251097045Y-59255915D01*
X251221015Y-59131945D01*
X251313056Y-58982724D01*
X251313058Y-58982719D01*
X251368205Y-58816297D01*
X251368206Y-58816290D01*
X251378699Y-58713586D01*
X251378700Y-58713573D01*
X251378700Y-58263600D01*
X250466200Y-58263600D01*
X249966200Y-58263600D01*
X249053701Y-58263600D01*
X248254200Y-58263600D01*
X248254199Y-57763600D01*
X249053700Y-57763600D01*
X249966200Y-57763600D01*
X249966200Y-57763599D01*
X250466199Y-57763599D01*
X250466200Y-57763600D01*
X251378699Y-57763600D01*
X251378699Y-57313628D01*
X251378698Y-57313613D01*
X251368205Y-57210902D01*
X251313058Y-57044480D01*
X251313056Y-57044475D01*
X251221015Y-56895254D01*
X251097045Y-56771284D01*
X250947824Y-56679243D01*
X250947819Y-56679241D01*
X250781397Y-56624094D01*
X250781390Y-56624093D01*
X250678686Y-56613600D01*
X250466200Y-56613600D01*
X250466199Y-57763599D01*
X249966200Y-57763599D01*
X249966200Y-56613600D01*
X249753729Y-56613600D01*
X249753712Y-56613601D01*
X249651002Y-56624094D01*
X249484580Y-56679241D01*
X249484575Y-56679243D01*
X249335354Y-56771284D01*
X249211384Y-56895254D01*
X249119343Y-57044475D01*
X249119341Y-57044480D01*
X249064194Y-57210902D01*
X249064193Y-57210909D01*
X249053700Y-57313613D01*
X249053700Y-57763600D01*
X248254199Y-57763600D01*
X248254199Y-57313592D01*
X248243699Y-57210803D01*
X248188514Y-57044266D01*
X248096412Y-56894944D01*
X247972356Y-56770888D01*
X247879588Y-56713668D01*
X247823036Y-56678787D01*
X247823031Y-56678785D01*
X247821562Y-56678298D01*
X247656497Y-56623601D01*
X247656495Y-56623600D01*
X247553710Y-56613100D01*
X246628698Y-56613100D01*
X246628680Y-56613101D01*
X246525903Y-56623600D01*
X246525900Y-56623601D01*
X246359368Y-56678785D01*
X246359363Y-56678787D01*
X246210042Y-56770889D01*
X246085989Y-56894942D01*
X246083928Y-56898284D01*
X246003269Y-57029055D01*
X246000567Y-57033435D01*
X245948619Y-57080159D01*
X245879657Y-57091382D01*
X245820717Y-57067604D01*
X245721335Y-56993206D01*
X245721328Y-56993202D01*
X245586482Y-56942908D01*
X245586483Y-56942908D01*
X245526883Y-56936501D01*
X245526881Y-56936500D01*
X245526873Y-56936500D01*
X245526864Y-56936500D01*
X243931129Y-56936500D01*
X243931123Y-56936501D01*
X243871516Y-56942908D01*
X243736671Y-56993202D01*
X243736664Y-56993206D01*
X243621455Y-57079452D01*
X243621452Y-57079455D01*
X243535206Y-57194664D01*
X243535202Y-57194671D01*
X243484908Y-57329517D01*
X243478501Y-57389116D01*
X243478501Y-57389123D01*
X243478500Y-57389135D01*
X243478500Y-58484870D01*
X243478501Y-58484876D01*
X243484908Y-58544483D01*
X243535202Y-58679328D01*
X243535206Y-58679335D01*
X243621452Y-58794544D01*
X243621455Y-58794547D01*
X243736664Y-58880793D01*
X243736671Y-58880797D01*
X243871517Y-58931091D01*
X243879062Y-58932874D01*
X243878523Y-58935151D01*
X243932287Y-58957408D01*
X243972147Y-59014793D01*
X243978500Y-59053975D01*
X243978500Y-59958500D01*
X243958815Y-60025539D01*
X243906011Y-60071294D01*
X243854500Y-60082500D01*
X216068550Y-60082500D01*
X216001511Y-60062815D01*
X215955756Y-60010011D01*
X215944550Y-59958500D01*
X215944550Y-59003576D01*
X215964235Y-58936537D01*
X216017039Y-58890782D01*
X216044185Y-58883336D01*
X216043982Y-58882476D01*
X216051529Y-58880692D01*
X216051531Y-58880691D01*
X216051533Y-58880691D01*
X216186381Y-58830396D01*
X216253365Y-58780251D01*
X216318828Y-58755834D01*
X216387102Y-58770685D01*
X216433214Y-58814421D01*
X216443066Y-58830393D01*
X216512766Y-58943397D01*
X216519588Y-58954456D01*
X216643644Y-59078512D01*
X216792966Y-59170614D01*
X216959503Y-59225799D01*
X217062291Y-59236300D01*
X217987308Y-59236299D01*
X217987316Y-59236298D01*
X217987319Y-59236298D01*
X218043602Y-59230548D01*
X218090097Y-59225799D01*
X218256634Y-59170614D01*
X218405956Y-59078512D01*
X218530012Y-58954456D01*
X218622114Y-58805134D01*
X218677299Y-58638597D01*
X218687800Y-58535809D01*
X218687800Y-58085800D01*
X219487301Y-58085800D01*
X219487301Y-58535786D01*
X219497794Y-58638497D01*
X219552941Y-58804919D01*
X219552943Y-58804924D01*
X219644984Y-58954145D01*
X219768954Y-59078115D01*
X219918175Y-59170156D01*
X219918180Y-59170158D01*
X220084602Y-59225305D01*
X220084609Y-59225306D01*
X220187319Y-59235799D01*
X220399799Y-59235799D01*
X220399800Y-59235798D01*
X220899799Y-59235798D01*
X220899800Y-59235799D01*
X221112272Y-59235799D01*
X221112286Y-59235798D01*
X221214997Y-59225305D01*
X221381419Y-59170158D01*
X221381424Y-59170156D01*
X221530645Y-59078115D01*
X221654615Y-58954145D01*
X221746656Y-58804924D01*
X221746658Y-58804919D01*
X221801805Y-58638497D01*
X221801806Y-58638490D01*
X221812299Y-58535786D01*
X221812300Y-58535773D01*
X221812300Y-58085800D01*
X220899800Y-58085800D01*
X220899799Y-59235798D01*
X220399800Y-59235798D01*
X220399800Y-58085800D01*
X219487301Y-58085800D01*
X218687800Y-58085800D01*
X218687799Y-57585800D01*
X219487300Y-57585800D01*
X220399800Y-57585800D01*
X220399800Y-56435800D01*
X220899800Y-56435800D01*
X220899800Y-57585800D01*
X221812299Y-57585800D01*
X221812299Y-57135828D01*
X221812298Y-57135813D01*
X221801805Y-57033102D01*
X221746658Y-56866680D01*
X221746656Y-56866675D01*
X221654615Y-56717454D01*
X221530645Y-56593484D01*
X221381424Y-56501443D01*
X221381419Y-56501441D01*
X221214997Y-56446294D01*
X221214990Y-56446293D01*
X221112286Y-56435800D01*
X220899800Y-56435800D01*
X220399800Y-56435800D01*
X220187329Y-56435800D01*
X220187312Y-56435801D01*
X220084602Y-56446294D01*
X219918180Y-56501441D01*
X219918175Y-56501443D01*
X219768954Y-56593484D01*
X219644984Y-56717454D01*
X219552943Y-56866675D01*
X219552941Y-56866680D01*
X219497794Y-57033102D01*
X219497793Y-57033109D01*
X219487300Y-57135813D01*
X219487300Y-57585800D01*
X218687799Y-57585800D01*
X218687799Y-57135792D01*
X218683262Y-57091382D01*
X218677299Y-57033003D01*
X218677298Y-57033000D01*
X218672660Y-57019004D01*
X218622114Y-56866466D01*
X218530012Y-56717144D01*
X218405956Y-56593088D01*
X218256634Y-56500986D01*
X218090097Y-56445801D01*
X218090095Y-56445800D01*
X217987310Y-56435300D01*
X217062298Y-56435300D01*
X217062280Y-56435301D01*
X216959503Y-56445800D01*
X216959500Y-56445801D01*
X216792968Y-56500985D01*
X216792963Y-56500987D01*
X216643642Y-56593089D01*
X216519589Y-56717142D01*
X216427487Y-56866463D01*
X216427483Y-56866472D01*
X216413460Y-56908791D01*
X216373687Y-56966235D01*
X216309170Y-56993057D01*
X216240395Y-56980741D01*
X216221444Y-56969052D01*
X216186381Y-56942804D01*
X216186378Y-56942802D01*
X216051532Y-56892508D01*
X216051533Y-56892508D01*
X215991933Y-56886101D01*
X215991931Y-56886100D01*
X215991923Y-56886100D01*
X215991914Y-56886100D01*
X214396179Y-56886100D01*
X214396173Y-56886101D01*
X214336566Y-56892508D01*
X214201721Y-56942802D01*
X214201714Y-56942806D01*
X214086505Y-57029052D01*
X214086502Y-57029055D01*
X214000256Y-57144264D01*
X214000252Y-57144271D01*
X213949958Y-57279117D01*
X213943649Y-57337803D01*
X213943551Y-57338723D01*
X213943550Y-57338735D01*
X213943550Y-58434470D01*
X213943551Y-58434476D01*
X213949958Y-58494083D01*
X214000252Y-58628928D01*
X214000256Y-58628935D01*
X214086502Y-58744144D01*
X214086505Y-58744147D01*
X214201714Y-58830393D01*
X214201721Y-58830397D01*
X214336567Y-58880691D01*
X214344112Y-58882474D01*
X214343573Y-58884751D01*
X214397337Y-58907008D01*
X214437197Y-58964393D01*
X214443550Y-59003575D01*
X214443550Y-59958500D01*
X214423865Y-60025539D01*
X214371061Y-60071294D01*
X214319550Y-60082500D01*
X186547400Y-60082500D01*
X186480361Y-60062815D01*
X186434606Y-60010011D01*
X186423400Y-59958500D01*
X186423400Y-59003576D01*
X186443085Y-58936537D01*
X186495889Y-58890782D01*
X186523035Y-58883336D01*
X186522832Y-58882476D01*
X186530379Y-58880692D01*
X186530381Y-58880691D01*
X186530383Y-58880691D01*
X186665231Y-58830396D01*
X186780446Y-58744146D01*
X186809655Y-58705128D01*
X186823385Y-58686788D01*
X186879319Y-58644918D01*
X186922651Y-58637100D01*
X186931207Y-58637100D01*
X186998246Y-58656785D01*
X187044001Y-58709589D01*
X187054565Y-58748499D01*
X187061501Y-58816398D01*
X187116685Y-58982931D01*
X187116687Y-58982936D01*
X187136337Y-59014793D01*
X187208788Y-59132256D01*
X187332844Y-59256312D01*
X187482166Y-59348414D01*
X187648703Y-59403599D01*
X187751491Y-59414100D01*
X188676508Y-59414099D01*
X188676516Y-59414098D01*
X188676519Y-59414098D01*
X188732802Y-59408348D01*
X188779297Y-59403599D01*
X188945834Y-59348414D01*
X189095156Y-59256312D01*
X189219212Y-59132256D01*
X189311314Y-58982934D01*
X189366499Y-58816397D01*
X189377000Y-58713609D01*
X189377000Y-58263600D01*
X190176501Y-58263600D01*
X190176501Y-58713586D01*
X190186994Y-58816297D01*
X190242141Y-58982719D01*
X190242143Y-58982724D01*
X190334184Y-59131945D01*
X190458154Y-59255915D01*
X190607375Y-59347956D01*
X190607380Y-59347958D01*
X190773802Y-59403105D01*
X190773809Y-59403106D01*
X190876519Y-59413599D01*
X191088999Y-59413599D01*
X191089000Y-59413598D01*
X191089000Y-58263600D01*
X191589000Y-58263600D01*
X191589000Y-59413599D01*
X191801472Y-59413599D01*
X191801486Y-59413598D01*
X191904197Y-59403105D01*
X192070619Y-59347958D01*
X192070624Y-59347956D01*
X192219845Y-59255915D01*
X192343815Y-59131945D01*
X192435856Y-58982724D01*
X192435858Y-58982719D01*
X192491005Y-58816297D01*
X192491006Y-58816290D01*
X192501499Y-58713586D01*
X192501500Y-58713573D01*
X192501500Y-58263600D01*
X191589000Y-58263600D01*
X191089000Y-58263600D01*
X190176501Y-58263600D01*
X189377000Y-58263600D01*
X189376999Y-57763600D01*
X190176500Y-57763600D01*
X191089000Y-57763600D01*
X191089000Y-56613600D01*
X191589000Y-56613600D01*
X191589000Y-57763600D01*
X192501499Y-57763600D01*
X192501499Y-57313628D01*
X192501498Y-57313613D01*
X192491005Y-57210902D01*
X192435858Y-57044480D01*
X192435856Y-57044475D01*
X192343815Y-56895254D01*
X192219845Y-56771284D01*
X192070624Y-56679243D01*
X192070619Y-56679241D01*
X191904197Y-56624094D01*
X191904190Y-56624093D01*
X191801486Y-56613600D01*
X191589000Y-56613600D01*
X191089000Y-56613600D01*
X190876529Y-56613600D01*
X190876512Y-56613601D01*
X190773802Y-56624094D01*
X190607380Y-56679241D01*
X190607375Y-56679243D01*
X190458154Y-56771284D01*
X190334184Y-56895254D01*
X190242143Y-57044475D01*
X190242141Y-57044480D01*
X190186994Y-57210902D01*
X190186993Y-57210909D01*
X190176500Y-57313613D01*
X190176500Y-57763600D01*
X189376999Y-57763600D01*
X189376999Y-57313592D01*
X189366499Y-57210803D01*
X189311314Y-57044266D01*
X189219212Y-56894944D01*
X189095156Y-56770888D01*
X189002388Y-56713669D01*
X188945836Y-56678787D01*
X188945831Y-56678785D01*
X188944362Y-56678298D01*
X188779297Y-56623601D01*
X188779295Y-56623600D01*
X188676510Y-56613100D01*
X187751498Y-56613100D01*
X187751480Y-56613101D01*
X187648703Y-56623600D01*
X187648700Y-56623601D01*
X187482168Y-56678785D01*
X187482163Y-56678787D01*
X187332842Y-56770889D01*
X187208789Y-56894942D01*
X187116687Y-57044263D01*
X187116682Y-57044275D01*
X187114418Y-57051108D01*
X187074644Y-57108552D01*
X187010127Y-57135372D01*
X186996714Y-57136100D01*
X186922651Y-57136100D01*
X186855612Y-57116415D01*
X186823385Y-57086412D01*
X186791834Y-57044266D01*
X186780446Y-57029054D01*
X186764586Y-57017181D01*
X186665235Y-56942806D01*
X186665228Y-56942802D01*
X186530382Y-56892508D01*
X186530383Y-56892508D01*
X186470783Y-56886101D01*
X186470781Y-56886100D01*
X186470773Y-56886100D01*
X186470764Y-56886100D01*
X184875029Y-56886100D01*
X184875023Y-56886101D01*
X184815416Y-56892508D01*
X184680571Y-56942802D01*
X184680564Y-56942806D01*
X184565355Y-57029052D01*
X184565352Y-57029055D01*
X184479106Y-57144264D01*
X184479102Y-57144271D01*
X184428808Y-57279117D01*
X184422499Y-57337803D01*
X184422401Y-57338723D01*
X184422400Y-57338735D01*
X184422400Y-58434470D01*
X184422401Y-58434476D01*
X184428808Y-58494083D01*
X184479102Y-58628928D01*
X184479106Y-58628935D01*
X184565352Y-58744144D01*
X184565355Y-58744147D01*
X184680564Y-58830393D01*
X184680571Y-58830397D01*
X184815417Y-58880691D01*
X184822962Y-58882474D01*
X184822423Y-58884751D01*
X184876187Y-58907008D01*
X184916047Y-58964393D01*
X184922400Y-59003575D01*
X184922400Y-59958500D01*
X184902715Y-60025539D01*
X184849911Y-60071294D01*
X184798400Y-60082500D01*
X157026250Y-60082500D01*
X156959211Y-60062815D01*
X156913456Y-60010011D01*
X156902250Y-59958500D01*
X156902250Y-59079776D01*
X156921935Y-59012737D01*
X156974739Y-58966982D01*
X157001885Y-58959536D01*
X157001682Y-58958676D01*
X157009229Y-58956892D01*
X157009231Y-58956891D01*
X157009233Y-58956891D01*
X157144081Y-58906596D01*
X157259296Y-58820346D01*
X157289311Y-58780252D01*
X157302235Y-58762988D01*
X157358169Y-58721118D01*
X157401501Y-58713300D01*
X157411401Y-58713300D01*
X157478440Y-58732985D01*
X157524195Y-58785789D01*
X157535401Y-58837300D01*
X157535401Y-58840618D01*
X157545900Y-58943396D01*
X157545901Y-58943399D01*
X157601015Y-59109719D01*
X157601086Y-59109934D01*
X157693188Y-59259256D01*
X157817244Y-59383312D01*
X157966566Y-59475414D01*
X158133103Y-59530599D01*
X158235891Y-59541100D01*
X159160908Y-59541099D01*
X159160916Y-59541098D01*
X159160919Y-59541098D01*
X159217202Y-59535348D01*
X159263697Y-59530599D01*
X159430234Y-59475414D01*
X159579556Y-59383312D01*
X159703612Y-59259256D01*
X159795714Y-59109934D01*
X159850899Y-58943397D01*
X159861400Y-58840609D01*
X159861400Y-58390600D01*
X160660901Y-58390600D01*
X160660901Y-58840586D01*
X160671394Y-58943297D01*
X160726541Y-59109719D01*
X160726543Y-59109724D01*
X160818584Y-59258945D01*
X160942554Y-59382915D01*
X161091775Y-59474956D01*
X161091780Y-59474958D01*
X161258202Y-59530105D01*
X161258209Y-59530106D01*
X161360919Y-59540599D01*
X161573399Y-59540599D01*
X161573400Y-59540598D01*
X161573400Y-58390600D01*
X162073400Y-58390600D01*
X162073400Y-59540599D01*
X162285872Y-59540599D01*
X162285886Y-59540598D01*
X162388597Y-59530105D01*
X162555019Y-59474958D01*
X162555024Y-59474956D01*
X162704245Y-59382915D01*
X162828215Y-59258945D01*
X162920256Y-59109724D01*
X162920258Y-59109719D01*
X162975405Y-58943297D01*
X162975406Y-58943290D01*
X162985899Y-58840586D01*
X162985900Y-58840573D01*
X162985900Y-58390600D01*
X162073400Y-58390600D01*
X161573400Y-58390600D01*
X160660901Y-58390600D01*
X159861400Y-58390600D01*
X159861399Y-57890600D01*
X160660900Y-57890600D01*
X161573400Y-57890600D01*
X161573400Y-56740600D01*
X162073400Y-56740600D01*
X162073400Y-57890600D01*
X162985899Y-57890600D01*
X162985899Y-57440628D01*
X162985898Y-57440613D01*
X162975405Y-57337902D01*
X162920258Y-57171480D01*
X162920256Y-57171475D01*
X162828215Y-57022254D01*
X162704245Y-56898284D01*
X162555024Y-56806243D01*
X162555019Y-56806241D01*
X162388597Y-56751094D01*
X162388590Y-56751093D01*
X162285886Y-56740600D01*
X162073400Y-56740600D01*
X161573400Y-56740600D01*
X161360929Y-56740600D01*
X161360912Y-56740601D01*
X161258202Y-56751094D01*
X161091780Y-56806241D01*
X161091775Y-56806243D01*
X160942554Y-56898284D01*
X160818584Y-57022254D01*
X160726543Y-57171475D01*
X160726541Y-57171480D01*
X160671394Y-57337902D01*
X160671393Y-57337909D01*
X160660900Y-57440613D01*
X160660900Y-57890600D01*
X159861399Y-57890600D01*
X159861399Y-57440592D01*
X159858777Y-57414929D01*
X159850899Y-57337803D01*
X159850898Y-57337800D01*
X159842873Y-57313581D01*
X159795714Y-57171266D01*
X159703612Y-57021944D01*
X159579556Y-56897888D01*
X159451745Y-56819054D01*
X159430236Y-56805787D01*
X159430231Y-56805785D01*
X159428762Y-56805298D01*
X159263697Y-56750601D01*
X159263695Y-56750600D01*
X159160910Y-56740100D01*
X158235898Y-56740100D01*
X158235880Y-56740101D01*
X158133103Y-56750600D01*
X158133100Y-56750601D01*
X157966568Y-56805785D01*
X157966563Y-56805787D01*
X157817242Y-56897889D01*
X157693189Y-57021942D01*
X157679414Y-57044275D01*
X157622777Y-57136100D01*
X157612108Y-57153397D01*
X157560160Y-57200121D01*
X157506569Y-57212300D01*
X157401501Y-57212300D01*
X157334462Y-57192615D01*
X157302235Y-57162612D01*
X157259298Y-57105257D01*
X157259296Y-57105254D01*
X157254211Y-57101447D01*
X157144085Y-57019006D01*
X157144078Y-57019002D01*
X157009232Y-56968708D01*
X157009233Y-56968708D01*
X156949633Y-56962301D01*
X156949631Y-56962300D01*
X156949623Y-56962300D01*
X156949614Y-56962300D01*
X155353879Y-56962300D01*
X155353873Y-56962301D01*
X155294266Y-56968708D01*
X155159421Y-57019002D01*
X155159414Y-57019006D01*
X155044205Y-57105252D01*
X155044202Y-57105255D01*
X154957956Y-57220464D01*
X154957952Y-57220471D01*
X154907658Y-57355317D01*
X154904023Y-57389135D01*
X154901251Y-57414923D01*
X154901250Y-57414935D01*
X154901250Y-58510670D01*
X154901251Y-58510676D01*
X154907658Y-58570283D01*
X154957952Y-58705128D01*
X154957956Y-58705135D01*
X155044202Y-58820344D01*
X155044205Y-58820347D01*
X155159414Y-58906593D01*
X155159421Y-58906597D01*
X155294267Y-58956891D01*
X155301812Y-58958674D01*
X155301273Y-58960951D01*
X155355037Y-58983208D01*
X155394897Y-59040593D01*
X155401250Y-59079775D01*
X155401250Y-59958500D01*
X155381565Y-60025539D01*
X155328761Y-60071294D01*
X155277250Y-60082500D01*
X127505100Y-60082500D01*
X127438061Y-60062815D01*
X127392306Y-60010011D01*
X127381100Y-59958500D01*
X127381100Y-59079776D01*
X127400785Y-59012737D01*
X127453589Y-58966982D01*
X127480735Y-58959536D01*
X127480532Y-58958676D01*
X127488079Y-58956892D01*
X127488081Y-58956891D01*
X127488083Y-58956891D01*
X127622931Y-58906596D01*
X127714482Y-58838060D01*
X127779946Y-58813643D01*
X127848219Y-58828494D01*
X127897625Y-58877899D01*
X127906498Y-58898321D01*
X127909283Y-58906727D01*
X127909287Y-58906736D01*
X127940542Y-58957408D01*
X128001388Y-59056056D01*
X128125444Y-59180112D01*
X128274766Y-59272214D01*
X128441303Y-59327399D01*
X128544091Y-59337900D01*
X129469108Y-59337899D01*
X129469116Y-59337898D01*
X129469119Y-59337898D01*
X129525402Y-59332148D01*
X129571897Y-59327399D01*
X129738434Y-59272214D01*
X129887756Y-59180112D01*
X130011812Y-59056056D01*
X130103914Y-58906734D01*
X130159099Y-58740197D01*
X130169600Y-58637409D01*
X130169600Y-58187400D01*
X130969101Y-58187400D01*
X130969101Y-58637386D01*
X130979594Y-58740097D01*
X131034741Y-58906519D01*
X131034743Y-58906524D01*
X131126784Y-59055745D01*
X131250754Y-59179715D01*
X131399975Y-59271756D01*
X131399980Y-59271758D01*
X131566402Y-59326905D01*
X131566409Y-59326906D01*
X131669119Y-59337399D01*
X131881599Y-59337399D01*
X131881600Y-59337398D01*
X131881600Y-58187400D01*
X132381600Y-58187400D01*
X132381600Y-59337399D01*
X132594072Y-59337399D01*
X132594086Y-59337398D01*
X132696797Y-59326905D01*
X132863219Y-59271758D01*
X132863224Y-59271756D01*
X133012445Y-59179715D01*
X133136415Y-59055745D01*
X133228456Y-58906524D01*
X133228458Y-58906519D01*
X133283605Y-58740097D01*
X133283606Y-58740090D01*
X133294099Y-58637386D01*
X133294100Y-58637373D01*
X133294100Y-58187400D01*
X132381600Y-58187400D01*
X131881600Y-58187400D01*
X130969101Y-58187400D01*
X130169600Y-58187400D01*
X130169599Y-57687399D01*
X130969099Y-57687399D01*
X130969100Y-57687400D01*
X131881600Y-57687400D01*
X131881600Y-56537400D01*
X132381600Y-56537400D01*
X132381600Y-57687400D01*
X133294098Y-57687400D01*
X133294099Y-57237428D01*
X133294098Y-57237413D01*
X133283605Y-57134702D01*
X133228458Y-56968280D01*
X133228456Y-56968275D01*
X133136415Y-56819054D01*
X133012445Y-56695084D01*
X132863224Y-56603043D01*
X132863219Y-56603041D01*
X132696797Y-56547894D01*
X132696790Y-56547893D01*
X132594086Y-56537400D01*
X132381600Y-56537400D01*
X131881600Y-56537400D01*
X131669129Y-56537400D01*
X131669112Y-56537401D01*
X131566402Y-56547894D01*
X131399980Y-56603041D01*
X131399975Y-56603043D01*
X131250754Y-56695084D01*
X131126784Y-56819054D01*
X131034743Y-56968275D01*
X131034741Y-56968280D01*
X130979594Y-57134702D01*
X130979593Y-57134709D01*
X130969100Y-57237413D01*
X130969100Y-57237426D01*
X130969099Y-57687399D01*
X130169599Y-57687399D01*
X130169599Y-57237392D01*
X130159099Y-57134603D01*
X130103914Y-56968066D01*
X130011812Y-56818744D01*
X129887756Y-56694688D01*
X129772503Y-56623600D01*
X129738436Y-56602587D01*
X129738431Y-56602585D01*
X129709771Y-56593088D01*
X129571897Y-56547401D01*
X129571895Y-56547400D01*
X129469110Y-56536900D01*
X128544098Y-56536900D01*
X128544080Y-56536901D01*
X128441303Y-56547400D01*
X128441300Y-56547401D01*
X128274768Y-56602585D01*
X128274763Y-56602587D01*
X128125442Y-56694689D01*
X128001389Y-56818742D01*
X127909287Y-56968063D01*
X127909283Y-56968072D01*
X127893010Y-57017181D01*
X127853237Y-57074625D01*
X127788721Y-57101447D01*
X127719945Y-57089131D01*
X127700994Y-57077442D01*
X127665816Y-57051108D01*
X127622931Y-57019004D01*
X127622929Y-57019003D01*
X127622928Y-57019002D01*
X127488082Y-56968708D01*
X127488083Y-56968708D01*
X127428483Y-56962301D01*
X127428481Y-56962300D01*
X127428473Y-56962300D01*
X127428464Y-56962300D01*
X125832729Y-56962300D01*
X125832723Y-56962301D01*
X125773116Y-56968708D01*
X125638271Y-57019002D01*
X125638264Y-57019006D01*
X125523055Y-57105252D01*
X125523052Y-57105255D01*
X125436806Y-57220464D01*
X125436802Y-57220471D01*
X125386508Y-57355317D01*
X125382873Y-57389135D01*
X125380101Y-57414923D01*
X125380100Y-57414935D01*
X125380100Y-58510670D01*
X125380101Y-58510676D01*
X125386508Y-58570283D01*
X125436802Y-58705128D01*
X125436806Y-58705135D01*
X125523052Y-58820344D01*
X125523055Y-58820347D01*
X125638264Y-58906593D01*
X125638271Y-58906597D01*
X125773117Y-58956891D01*
X125780662Y-58958674D01*
X125780124Y-58960950D01*
X125833889Y-58983210D01*
X125873747Y-59040596D01*
X125880099Y-59079775D01*
X125880100Y-60110900D01*
X125860416Y-60177939D01*
X125807612Y-60223694D01*
X125756100Y-60234900D01*
X117369900Y-60234900D01*
X117302861Y-60215215D01*
X117257106Y-60162411D01*
X117245900Y-60110900D01*
X117245900Y-57988200D01*
X118510940Y-57988200D01*
X118530726Y-58176456D01*
X118530727Y-58176459D01*
X118589218Y-58356477D01*
X118589221Y-58356484D01*
X118683867Y-58520416D01*
X118797205Y-58646290D01*
X118810529Y-58661088D01*
X118963665Y-58772348D01*
X118963670Y-58772351D01*
X119136592Y-58849342D01*
X119136597Y-58849344D01*
X119321754Y-58888700D01*
X119321755Y-58888700D01*
X119511044Y-58888700D01*
X119511046Y-58888700D01*
X119696203Y-58849344D01*
X119869130Y-58772351D01*
X120022271Y-58661088D01*
X120050868Y-58629327D01*
X120110355Y-58592679D01*
X120143018Y-58588300D01*
X120407133Y-58588300D01*
X120474172Y-58607985D01*
X120519927Y-58660789D01*
X120523315Y-58668966D01*
X120536803Y-58705130D01*
X120536806Y-58705135D01*
X120623052Y-58820344D01*
X120623055Y-58820347D01*
X120738264Y-58906593D01*
X120738271Y-58906597D01*
X120873117Y-58956891D01*
X120873116Y-58956891D01*
X120880044Y-58957635D01*
X120932727Y-58963300D01*
X122528472Y-58963299D01*
X122588083Y-58956891D01*
X122722931Y-58906596D01*
X122838146Y-58820346D01*
X122924396Y-58705131D01*
X122974691Y-58570283D01*
X122981100Y-58510673D01*
X122981099Y-57414928D01*
X122974691Y-57355317D01*
X122968506Y-57338735D01*
X122924397Y-57220471D01*
X122924393Y-57220464D01*
X122838147Y-57105255D01*
X122838144Y-57105252D01*
X122722935Y-57019006D01*
X122722928Y-57019002D01*
X122588082Y-56968708D01*
X122588083Y-56968708D01*
X122528483Y-56962301D01*
X122528481Y-56962300D01*
X122528473Y-56962300D01*
X122528464Y-56962300D01*
X120932729Y-56962300D01*
X120932723Y-56962301D01*
X120873116Y-56968708D01*
X120738271Y-57019002D01*
X120738264Y-57019006D01*
X120623055Y-57105252D01*
X120623052Y-57105255D01*
X120536806Y-57220464D01*
X120536803Y-57220469D01*
X120523315Y-57256634D01*
X120481443Y-57312567D01*
X120415979Y-57336984D01*
X120407133Y-57337300D01*
X120092825Y-57337300D01*
X120025786Y-57317615D01*
X120019940Y-57313618D01*
X119869134Y-57204051D01*
X119869129Y-57204048D01*
X119696207Y-57127057D01*
X119696202Y-57127055D01*
X119550400Y-57096065D01*
X119511046Y-57087700D01*
X119321754Y-57087700D01*
X119289297Y-57094598D01*
X119136597Y-57127055D01*
X119136592Y-57127057D01*
X118963670Y-57204048D01*
X118963665Y-57204051D01*
X118810529Y-57315311D01*
X118683866Y-57455985D01*
X118589221Y-57619915D01*
X118589218Y-57619922D01*
X118542535Y-57763599D01*
X118530726Y-57799944D01*
X118510940Y-57988200D01*
X117245900Y-57988200D01*
X117245899Y-55012800D01*
X120480600Y-55012800D01*
X120480600Y-55310644D01*
X120487001Y-55370172D01*
X120487003Y-55370179D01*
X120537245Y-55504886D01*
X120537249Y-55504893D01*
X120623409Y-55619987D01*
X120623412Y-55619990D01*
X120738506Y-55706150D01*
X120738513Y-55706154D01*
X120873220Y-55756396D01*
X120873227Y-55756398D01*
X120932755Y-55762799D01*
X120932772Y-55762800D01*
X121480600Y-55762800D01*
X121480600Y-55012800D01*
X121980600Y-55012800D01*
X121980600Y-55762800D01*
X122528428Y-55762800D01*
X122528444Y-55762799D01*
X122587972Y-55756398D01*
X122587979Y-55756396D01*
X122722686Y-55706154D01*
X122722693Y-55706150D01*
X122837787Y-55619990D01*
X122837790Y-55619987D01*
X122923950Y-55504893D01*
X122923954Y-55504886D01*
X122974196Y-55370179D01*
X122974198Y-55370172D01*
X122980596Y-55310670D01*
X125380100Y-55310670D01*
X125380101Y-55310676D01*
X125386508Y-55370283D01*
X125436802Y-55505128D01*
X125436806Y-55505135D01*
X125523052Y-55620344D01*
X125523055Y-55620347D01*
X125638264Y-55706593D01*
X125638271Y-55706597D01*
X125773117Y-55756891D01*
X125773116Y-55756891D01*
X125780044Y-55757635D01*
X125832727Y-55763300D01*
X127428472Y-55763299D01*
X127488083Y-55756891D01*
X127622931Y-55706596D01*
X127738146Y-55620346D01*
X127824396Y-55505131D01*
X127837884Y-55468966D01*
X127879757Y-55413033D01*
X127945221Y-55388616D01*
X127954067Y-55388300D01*
X130647136Y-55388300D01*
X130674052Y-55392131D01*
X130674071Y-55392016D01*
X130681401Y-55393177D01*
X130681731Y-55393224D01*
X130681771Y-55393235D01*
X130681773Y-55393235D01*
X130681777Y-55393237D01*
X130726044Y-55400248D01*
X130727792Y-55400525D01*
X130733512Y-55401709D01*
X130778654Y-55413300D01*
X130798689Y-55413300D01*
X130818087Y-55414826D01*
X130837867Y-55417959D01*
X130837868Y-55417960D01*
X130837868Y-55417959D01*
X130837869Y-55417960D01*
X130884256Y-55413575D01*
X130890095Y-55413300D01*
X143174148Y-55413300D01*
X143241187Y-55432985D01*
X143261828Y-55449618D01*
X144710493Y-56898284D01*
X146158797Y-58346588D01*
X146168622Y-58358851D01*
X146168843Y-58358669D01*
X146173814Y-58364678D01*
X146199817Y-58389095D01*
X146224235Y-58412026D01*
X146245129Y-58432920D01*
X146250611Y-58437173D01*
X146255043Y-58440957D01*
X146289018Y-58472862D01*
X146306576Y-58482514D01*
X146322833Y-58493193D01*
X146338664Y-58505473D01*
X146350704Y-58510683D01*
X146381433Y-58523982D01*
X146386677Y-58526550D01*
X146427508Y-58548997D01*
X146440123Y-58552235D01*
X146446905Y-58553977D01*
X146465319Y-58560281D01*
X146483704Y-58568238D01*
X146529757Y-58575532D01*
X146535426Y-58576706D01*
X146580581Y-58588300D01*
X146600616Y-58588300D01*
X146620013Y-58589826D01*
X146639796Y-58592960D01*
X146686183Y-58588575D01*
X146692022Y-58588300D01*
X149928283Y-58588300D01*
X149995322Y-58607985D01*
X150041077Y-58660789D01*
X150044465Y-58668966D01*
X150057953Y-58705130D01*
X150057956Y-58705135D01*
X150144202Y-58820344D01*
X150144205Y-58820347D01*
X150259414Y-58906593D01*
X150259421Y-58906597D01*
X150394267Y-58956891D01*
X150394266Y-58956891D01*
X150401194Y-58957635D01*
X150453877Y-58963300D01*
X152049622Y-58963299D01*
X152109233Y-58956891D01*
X152244081Y-58906596D01*
X152359296Y-58820346D01*
X152445546Y-58705131D01*
X152495841Y-58570283D01*
X152502250Y-58510673D01*
X152502249Y-57414928D01*
X152495841Y-57355317D01*
X152489656Y-57338735D01*
X152445547Y-57220471D01*
X152445543Y-57220464D01*
X152359297Y-57105255D01*
X152359294Y-57105252D01*
X152244085Y-57019006D01*
X152244078Y-57019002D01*
X152109232Y-56968708D01*
X152109233Y-56968708D01*
X152049633Y-56962301D01*
X152049631Y-56962300D01*
X152049623Y-56962300D01*
X152049614Y-56962300D01*
X150453879Y-56962300D01*
X150453873Y-56962301D01*
X150394266Y-56968708D01*
X150259421Y-57019002D01*
X150259414Y-57019006D01*
X150144205Y-57105252D01*
X150144202Y-57105255D01*
X150057956Y-57220464D01*
X150057953Y-57220469D01*
X150044465Y-57256634D01*
X150002593Y-57312567D01*
X149937129Y-57336984D01*
X149928283Y-57337300D01*
X146970052Y-57337300D01*
X146903013Y-57317615D01*
X146882371Y-57300981D01*
X144594191Y-55012800D01*
X150001750Y-55012800D01*
X150001750Y-55310644D01*
X150008151Y-55370172D01*
X150008153Y-55370179D01*
X150058395Y-55504886D01*
X150058399Y-55504893D01*
X150144559Y-55619987D01*
X150144562Y-55619990D01*
X150259656Y-55706150D01*
X150259663Y-55706154D01*
X150394370Y-55756396D01*
X150394377Y-55756398D01*
X150453905Y-55762799D01*
X150453922Y-55762800D01*
X151001750Y-55762800D01*
X151001750Y-55012800D01*
X151501750Y-55012800D01*
X151501750Y-55762800D01*
X152049578Y-55762800D01*
X152049594Y-55762799D01*
X152109122Y-55756398D01*
X152109129Y-55756396D01*
X152243836Y-55706154D01*
X152243843Y-55706150D01*
X152358937Y-55619990D01*
X152358940Y-55619987D01*
X152445100Y-55504893D01*
X152445104Y-55504886D01*
X152495346Y-55370179D01*
X152495348Y-55370172D01*
X152501746Y-55310670D01*
X154901250Y-55310670D01*
X154901251Y-55310676D01*
X154907658Y-55370283D01*
X154957952Y-55505128D01*
X154957956Y-55505135D01*
X155044202Y-55620344D01*
X155044205Y-55620347D01*
X155159414Y-55706593D01*
X155159421Y-55706597D01*
X155294267Y-55756891D01*
X155294266Y-55756891D01*
X155301194Y-55757635D01*
X155353877Y-55763300D01*
X156949622Y-55763299D01*
X157009233Y-55756891D01*
X157144081Y-55706596D01*
X157259296Y-55620346D01*
X157345546Y-55505131D01*
X157359034Y-55468966D01*
X157400907Y-55413033D01*
X157466371Y-55388616D01*
X157475217Y-55388300D01*
X177338648Y-55388300D01*
X177405687Y-55407985D01*
X177426329Y-55424619D01*
X179486081Y-57484371D01*
X179519566Y-57545694D01*
X179522400Y-57572052D01*
X179522400Y-58434470D01*
X179522401Y-58434476D01*
X179528808Y-58494083D01*
X179579102Y-58628928D01*
X179579106Y-58628935D01*
X179665352Y-58744144D01*
X179665355Y-58744147D01*
X179780564Y-58830393D01*
X179780571Y-58830397D01*
X179915417Y-58880691D01*
X179915416Y-58880691D01*
X179922344Y-58881435D01*
X179975027Y-58887100D01*
X181570772Y-58887099D01*
X181630383Y-58880691D01*
X181765231Y-58830396D01*
X181880446Y-58744146D01*
X181966696Y-58628931D01*
X182016991Y-58494083D01*
X182023400Y-58434473D01*
X182023399Y-57338728D01*
X182016991Y-57279117D01*
X182008605Y-57256634D01*
X181966697Y-57144271D01*
X181966693Y-57144264D01*
X181880447Y-57029055D01*
X181880444Y-57029052D01*
X181765235Y-56942806D01*
X181765228Y-56942802D01*
X181630382Y-56892508D01*
X181630383Y-56892508D01*
X181570783Y-56886101D01*
X181570781Y-56886100D01*
X181570773Y-56886100D01*
X181570765Y-56886100D01*
X180708353Y-56886100D01*
X180641314Y-56866415D01*
X180620672Y-56849781D01*
X178707491Y-54936600D01*
X179522900Y-54936600D01*
X179522900Y-55234444D01*
X179529301Y-55293972D01*
X179529303Y-55293979D01*
X179579545Y-55428686D01*
X179579549Y-55428693D01*
X179665709Y-55543787D01*
X179665712Y-55543790D01*
X179780806Y-55629950D01*
X179780813Y-55629954D01*
X179915520Y-55680196D01*
X179915527Y-55680198D01*
X179975055Y-55686599D01*
X179975072Y-55686600D01*
X180522900Y-55686600D01*
X180522900Y-54936600D01*
X181022900Y-54936600D01*
X181022900Y-55686600D01*
X181570728Y-55686600D01*
X181570744Y-55686599D01*
X181630272Y-55680198D01*
X181630279Y-55680196D01*
X181764986Y-55629954D01*
X181764993Y-55629950D01*
X181880087Y-55543790D01*
X181880090Y-55543787D01*
X181966250Y-55428693D01*
X181966254Y-55428686D01*
X182016496Y-55293979D01*
X182016498Y-55293972D01*
X182022896Y-55234470D01*
X184422400Y-55234470D01*
X184422401Y-55234476D01*
X184428808Y-55294083D01*
X184479102Y-55428928D01*
X184479106Y-55428935D01*
X184565352Y-55544144D01*
X184565355Y-55544147D01*
X184680564Y-55630393D01*
X184680571Y-55630397D01*
X184815417Y-55680691D01*
X184815416Y-55680691D01*
X184822344Y-55681435D01*
X184875027Y-55687100D01*
X186470772Y-55687099D01*
X186530383Y-55680691D01*
X186665231Y-55630396D01*
X186780446Y-55544146D01*
X186866696Y-55428931D01*
X186880014Y-55393224D01*
X186880185Y-55392766D01*
X186922057Y-55336833D01*
X186987521Y-55312416D01*
X186996367Y-55312100D01*
X206783598Y-55312100D01*
X206850637Y-55331785D01*
X206871279Y-55348419D01*
X209007231Y-57484371D01*
X209040716Y-57545694D01*
X209043550Y-57572052D01*
X209043550Y-58434470D01*
X209043551Y-58434476D01*
X209049958Y-58494083D01*
X209100252Y-58628928D01*
X209100256Y-58628935D01*
X209186502Y-58744144D01*
X209186505Y-58744147D01*
X209301714Y-58830393D01*
X209301721Y-58830397D01*
X209436567Y-58880691D01*
X209436566Y-58880691D01*
X209443494Y-58881435D01*
X209496177Y-58887100D01*
X211091922Y-58887099D01*
X211151533Y-58880691D01*
X211286381Y-58830396D01*
X211401596Y-58744146D01*
X211487846Y-58628931D01*
X211538141Y-58494083D01*
X211544550Y-58434473D01*
X211544549Y-57338728D01*
X211538141Y-57279117D01*
X211529755Y-57256634D01*
X211487847Y-57144271D01*
X211487843Y-57144264D01*
X211401597Y-57029055D01*
X211401594Y-57029052D01*
X211286385Y-56942806D01*
X211286378Y-56942802D01*
X211151532Y-56892508D01*
X211151533Y-56892508D01*
X211091933Y-56886101D01*
X211091931Y-56886100D01*
X211091923Y-56886100D01*
X211091915Y-56886100D01*
X210229503Y-56886100D01*
X210162464Y-56866415D01*
X210141822Y-56849781D01*
X208526468Y-55234427D01*
X209044049Y-55234427D01*
X209044050Y-55234444D01*
X209050451Y-55293972D01*
X209050453Y-55293979D01*
X209100695Y-55428686D01*
X209100699Y-55428693D01*
X209186859Y-55543787D01*
X209186862Y-55543790D01*
X209301956Y-55629950D01*
X209301963Y-55629954D01*
X209436670Y-55680196D01*
X209436677Y-55680198D01*
X209496205Y-55686599D01*
X209496222Y-55686600D01*
X210044050Y-55686600D01*
X210044050Y-54936600D01*
X210544050Y-54936600D01*
X210544050Y-55686600D01*
X211091878Y-55686600D01*
X211091894Y-55686599D01*
X211151422Y-55680198D01*
X211151429Y-55680196D01*
X211286136Y-55629954D01*
X211286143Y-55629950D01*
X211401237Y-55543790D01*
X211401240Y-55543787D01*
X211487400Y-55428693D01*
X211487404Y-55428686D01*
X211537646Y-55293979D01*
X211537648Y-55293972D01*
X211544046Y-55234470D01*
X213943550Y-55234470D01*
X213943551Y-55234476D01*
X213949958Y-55294083D01*
X214000252Y-55428928D01*
X214000256Y-55428935D01*
X214086502Y-55544144D01*
X214086505Y-55544147D01*
X214201714Y-55630393D01*
X214201721Y-55630397D01*
X214336567Y-55680691D01*
X214336566Y-55680691D01*
X214343494Y-55681435D01*
X214396177Y-55687100D01*
X215991922Y-55687099D01*
X216051533Y-55680691D01*
X216186381Y-55630396D01*
X216301596Y-55544146D01*
X216387846Y-55428931D01*
X216401164Y-55393224D01*
X216401335Y-55392766D01*
X216443207Y-55336833D01*
X216508671Y-55312416D01*
X216517517Y-55312100D01*
X236268148Y-55312100D01*
X236335187Y-55331785D01*
X236355829Y-55348419D01*
X238542181Y-57534771D01*
X238575666Y-57596094D01*
X238578500Y-57622452D01*
X238578500Y-58484870D01*
X238578501Y-58484876D01*
X238584908Y-58544483D01*
X238635202Y-58679328D01*
X238635206Y-58679335D01*
X238721452Y-58794544D01*
X238721455Y-58794547D01*
X238836664Y-58880793D01*
X238836671Y-58880797D01*
X238971517Y-58931091D01*
X238971516Y-58931091D01*
X238978444Y-58931835D01*
X239031127Y-58937500D01*
X240626872Y-58937499D01*
X240686483Y-58931091D01*
X240821331Y-58880796D01*
X240936546Y-58794546D01*
X241022796Y-58679331D01*
X241073091Y-58544483D01*
X241079500Y-58484873D01*
X241079499Y-57389128D01*
X241073091Y-57329517D01*
X241067159Y-57313613D01*
X241022797Y-57194671D01*
X241022793Y-57194664D01*
X240936547Y-57079455D01*
X240936544Y-57079452D01*
X240821335Y-56993206D01*
X240821328Y-56993202D01*
X240686482Y-56942908D01*
X240686483Y-56942908D01*
X240626883Y-56936501D01*
X240626881Y-56936500D01*
X240626873Y-56936500D01*
X240626865Y-56936500D01*
X239764452Y-56936500D01*
X239697413Y-56916815D01*
X239676771Y-56900181D01*
X237763591Y-54987000D01*
X238579000Y-54987000D01*
X238579000Y-55284844D01*
X238585401Y-55344372D01*
X238585403Y-55344379D01*
X238635645Y-55479086D01*
X238635649Y-55479093D01*
X238721809Y-55594187D01*
X238721812Y-55594190D01*
X238836906Y-55680350D01*
X238836913Y-55680354D01*
X238971620Y-55730596D01*
X238971627Y-55730598D01*
X239031155Y-55736999D01*
X239031172Y-55737000D01*
X239579000Y-55737000D01*
X239579000Y-54987000D01*
X240079000Y-54987000D01*
X240079000Y-55737000D01*
X240626828Y-55737000D01*
X240626844Y-55736999D01*
X240686372Y-55730598D01*
X240686379Y-55730596D01*
X240821086Y-55680354D01*
X240821093Y-55680350D01*
X240936187Y-55594190D01*
X240936190Y-55594187D01*
X241022350Y-55479093D01*
X241022354Y-55479086D01*
X241072596Y-55344379D01*
X241072598Y-55344372D01*
X241078996Y-55284870D01*
X243478500Y-55284870D01*
X243478501Y-55284876D01*
X243484908Y-55344483D01*
X243535202Y-55479328D01*
X243535206Y-55479335D01*
X243621452Y-55594544D01*
X243621455Y-55594547D01*
X243736664Y-55680793D01*
X243736671Y-55680797D01*
X243871517Y-55731091D01*
X243871516Y-55731091D01*
X243878444Y-55731835D01*
X243931127Y-55737500D01*
X245526872Y-55737499D01*
X245586483Y-55731091D01*
X245721331Y-55680796D01*
X245836546Y-55594546D01*
X245922796Y-55479331D01*
X245973091Y-55344483D01*
X245979500Y-55284873D01*
X245979499Y-54189128D01*
X245973091Y-54129517D01*
X245971562Y-54125418D01*
X245922797Y-53994671D01*
X245922793Y-53994664D01*
X245836547Y-53879455D01*
X245836544Y-53879452D01*
X245721335Y-53793206D01*
X245721328Y-53793202D01*
X245586482Y-53742908D01*
X245586483Y-53742908D01*
X245526883Y-53736501D01*
X245526881Y-53736500D01*
X245526873Y-53736500D01*
X245526864Y-53736500D01*
X243931129Y-53736500D01*
X243931123Y-53736501D01*
X243871516Y-53742908D01*
X243736671Y-53793202D01*
X243736664Y-53793206D01*
X243621455Y-53879452D01*
X243621452Y-53879455D01*
X243535206Y-53994664D01*
X243535202Y-53994671D01*
X243484908Y-54129517D01*
X243479227Y-54182362D01*
X243478501Y-54189123D01*
X243478500Y-54189135D01*
X243478500Y-55284870D01*
X241078996Y-55284870D01*
X241078999Y-55284844D01*
X241079000Y-55284827D01*
X241079000Y-54987000D01*
X240079000Y-54987000D01*
X239579000Y-54987000D01*
X238579000Y-54987000D01*
X237763591Y-54987000D01*
X237263591Y-54487000D01*
X238579000Y-54487000D01*
X239579000Y-54487000D01*
X239579000Y-53737000D01*
X240079000Y-53737000D01*
X240079000Y-54487000D01*
X241079000Y-54487000D01*
X241079000Y-54189172D01*
X241078999Y-54189155D01*
X241072598Y-54129627D01*
X241072596Y-54129620D01*
X241022354Y-53994913D01*
X241022350Y-53994906D01*
X240936190Y-53879812D01*
X240936187Y-53879809D01*
X240821093Y-53793649D01*
X240821086Y-53793645D01*
X240686379Y-53743403D01*
X240686372Y-53743401D01*
X240626844Y-53737000D01*
X240079000Y-53737000D01*
X239579000Y-53737000D01*
X239031155Y-53737000D01*
X238971627Y-53743401D01*
X238971620Y-53743403D01*
X238836913Y-53793645D01*
X238836906Y-53793649D01*
X238721812Y-53879809D01*
X238721809Y-53879812D01*
X238635649Y-53994906D01*
X238635645Y-53994913D01*
X238585403Y-54129620D01*
X238585401Y-54129627D01*
X238579000Y-54189155D01*
X238579000Y-54487000D01*
X237263591Y-54487000D01*
X237079403Y-54302812D01*
X237069580Y-54290550D01*
X237069359Y-54290734D01*
X237064386Y-54284723D01*
X237056946Y-54277736D01*
X237013964Y-54237373D01*
X237000639Y-54224048D01*
X236993075Y-54216483D01*
X236987586Y-54212225D01*
X236983161Y-54208447D01*
X236949182Y-54176538D01*
X236949180Y-54176536D01*
X236949177Y-54176535D01*
X236931629Y-54166888D01*
X236915363Y-54156204D01*
X236899536Y-54143927D01*
X236899535Y-54143926D01*
X236899533Y-54143925D01*
X236856768Y-54125418D01*
X236851522Y-54122848D01*
X236810693Y-54100403D01*
X236810692Y-54100402D01*
X236791293Y-54095422D01*
X236772881Y-54089118D01*
X236754498Y-54081162D01*
X236754492Y-54081160D01*
X236708474Y-54073872D01*
X236702752Y-54072687D01*
X236657621Y-54061100D01*
X236657619Y-54061100D01*
X236637584Y-54061100D01*
X236618186Y-54059573D01*
X236610762Y-54058397D01*
X236598405Y-54056440D01*
X236598404Y-54056440D01*
X236552016Y-54060825D01*
X236546178Y-54061100D01*
X216517517Y-54061100D01*
X216450478Y-54041415D01*
X216404723Y-53988611D01*
X216401335Y-53980434D01*
X216387846Y-53944269D01*
X216387843Y-53944264D01*
X216301597Y-53829055D01*
X216301594Y-53829052D01*
X216186385Y-53742806D01*
X216186378Y-53742802D01*
X216051532Y-53692508D01*
X216051533Y-53692508D01*
X215991933Y-53686101D01*
X215991931Y-53686100D01*
X215991923Y-53686100D01*
X215991914Y-53686100D01*
X214396179Y-53686100D01*
X214396173Y-53686101D01*
X214336566Y-53692508D01*
X214201721Y-53742802D01*
X214201714Y-53742806D01*
X214086505Y-53829052D01*
X214086502Y-53829055D01*
X214000256Y-53944264D01*
X214000252Y-53944271D01*
X213949958Y-54079117D01*
X213943551Y-54138716D01*
X213943550Y-54138735D01*
X213943550Y-55234470D01*
X211544046Y-55234470D01*
X211544049Y-55234444D01*
X211544049Y-55234427D01*
X211544050Y-54936600D01*
X210544050Y-54936600D01*
X210044050Y-54936600D01*
X209044050Y-54936600D01*
X209044049Y-55234427D01*
X208526468Y-55234427D01*
X207594853Y-54302812D01*
X207585030Y-54290550D01*
X207584809Y-54290734D01*
X207579836Y-54284723D01*
X207572396Y-54277736D01*
X207529414Y-54237373D01*
X207516089Y-54224048D01*
X207508525Y-54216483D01*
X207503036Y-54212225D01*
X207498611Y-54208447D01*
X207464632Y-54176538D01*
X207464630Y-54176536D01*
X207464627Y-54176535D01*
X207447079Y-54166888D01*
X207430813Y-54156204D01*
X207414986Y-54143927D01*
X207414985Y-54143926D01*
X207414983Y-54143925D01*
X207403076Y-54138772D01*
X209044049Y-54138772D01*
X209044050Y-54436599D01*
X209044050Y-54436600D01*
X210044050Y-54436600D01*
X210044050Y-53686600D01*
X210544050Y-53686600D01*
X210544050Y-54436600D01*
X211544050Y-54436600D01*
X211544049Y-54138772D01*
X211544049Y-54138755D01*
X211537648Y-54079227D01*
X211537646Y-54079220D01*
X211487404Y-53944513D01*
X211487400Y-53944506D01*
X211401240Y-53829412D01*
X211401237Y-53829409D01*
X211286143Y-53743249D01*
X211286136Y-53743245D01*
X211151429Y-53693003D01*
X211151422Y-53693001D01*
X211091894Y-53686600D01*
X210544050Y-53686600D01*
X210044050Y-53686600D01*
X209496205Y-53686600D01*
X209436677Y-53693001D01*
X209436670Y-53693003D01*
X209301963Y-53743245D01*
X209301956Y-53743249D01*
X209186862Y-53829409D01*
X209186859Y-53829412D01*
X209100699Y-53944506D01*
X209100695Y-53944513D01*
X209050453Y-54079220D01*
X209050451Y-54079227D01*
X209044050Y-54138755D01*
X209044049Y-54138772D01*
X207403076Y-54138772D01*
X207372218Y-54125418D01*
X207366972Y-54122848D01*
X207326143Y-54100403D01*
X207326142Y-54100402D01*
X207306743Y-54095422D01*
X207288331Y-54089118D01*
X207269948Y-54081162D01*
X207269942Y-54081160D01*
X207223924Y-54073872D01*
X207218202Y-54072687D01*
X207173071Y-54061100D01*
X207173069Y-54061100D01*
X207153034Y-54061100D01*
X207133636Y-54059573D01*
X207126212Y-54058397D01*
X207113855Y-54056440D01*
X207113854Y-54056440D01*
X207067466Y-54060825D01*
X207061628Y-54061100D01*
X186996367Y-54061100D01*
X186929328Y-54041415D01*
X186883573Y-53988611D01*
X186880185Y-53980434D01*
X186866696Y-53944269D01*
X186866693Y-53944264D01*
X186780447Y-53829055D01*
X186780444Y-53829052D01*
X186665235Y-53742806D01*
X186665228Y-53742802D01*
X186530382Y-53692508D01*
X186530383Y-53692508D01*
X186470783Y-53686101D01*
X186470781Y-53686100D01*
X186470773Y-53686100D01*
X186470764Y-53686100D01*
X184875029Y-53686100D01*
X184875023Y-53686101D01*
X184815416Y-53692508D01*
X184680571Y-53742802D01*
X184680564Y-53742806D01*
X184565355Y-53829052D01*
X184565352Y-53829055D01*
X184479106Y-53944264D01*
X184479102Y-53944271D01*
X184428808Y-54079117D01*
X184422401Y-54138716D01*
X184422400Y-54138735D01*
X184422400Y-55234470D01*
X182022896Y-55234470D01*
X182022899Y-55234444D01*
X182022900Y-55234427D01*
X182022900Y-54936600D01*
X181022900Y-54936600D01*
X180522900Y-54936600D01*
X179522900Y-54936600D01*
X178707491Y-54936600D01*
X178207491Y-54436600D01*
X179522900Y-54436600D01*
X180522900Y-54436600D01*
X180522900Y-53686600D01*
X181022900Y-53686600D01*
X181022900Y-54436600D01*
X182022900Y-54436600D01*
X182022900Y-54138772D01*
X182022899Y-54138755D01*
X182016498Y-54079227D01*
X182016496Y-54079220D01*
X181966254Y-53944513D01*
X181966250Y-53944506D01*
X181880090Y-53829412D01*
X181880087Y-53829409D01*
X181764993Y-53743249D01*
X181764986Y-53743245D01*
X181630279Y-53693003D01*
X181630272Y-53693001D01*
X181570744Y-53686600D01*
X181022900Y-53686600D01*
X180522900Y-53686600D01*
X179975055Y-53686600D01*
X179915527Y-53693001D01*
X179915520Y-53693003D01*
X179780813Y-53743245D01*
X179780806Y-53743249D01*
X179665712Y-53829409D01*
X179665709Y-53829412D01*
X179579549Y-53944506D01*
X179579545Y-53944513D01*
X179529303Y-54079220D01*
X179529301Y-54079227D01*
X179522900Y-54138755D01*
X179522900Y-54436600D01*
X178207491Y-54436600D01*
X178149903Y-54379012D01*
X178140080Y-54366750D01*
X178139859Y-54366934D01*
X178134886Y-54360923D01*
X178134885Y-54360922D01*
X178084464Y-54313573D01*
X178073703Y-54302812D01*
X178063575Y-54292683D01*
X178058086Y-54288425D01*
X178053661Y-54284647D01*
X178019682Y-54252738D01*
X178019680Y-54252736D01*
X178019677Y-54252735D01*
X178002129Y-54243088D01*
X177985863Y-54232404D01*
X177978404Y-54226618D01*
X177970036Y-54220127D01*
X177970035Y-54220126D01*
X177970033Y-54220125D01*
X177927268Y-54201618D01*
X177922022Y-54199048D01*
X177881193Y-54176603D01*
X177881192Y-54176602D01*
X177861793Y-54171622D01*
X177843381Y-54165318D01*
X177824998Y-54157362D01*
X177824992Y-54157360D01*
X177778974Y-54150072D01*
X177773252Y-54148887D01*
X177728121Y-54137300D01*
X177728119Y-54137300D01*
X177708084Y-54137300D01*
X177688686Y-54135773D01*
X177681262Y-54134597D01*
X177668905Y-54132640D01*
X177668904Y-54132640D01*
X177622516Y-54137025D01*
X177616678Y-54137300D01*
X157475217Y-54137300D01*
X157408178Y-54117615D01*
X157362423Y-54064811D01*
X157359035Y-54056634D01*
X157345546Y-54020469D01*
X157345543Y-54020464D01*
X157259297Y-53905255D01*
X157259294Y-53905252D01*
X157144085Y-53819006D01*
X157144078Y-53819002D01*
X157009232Y-53768708D01*
X157009233Y-53768708D01*
X156949633Y-53762301D01*
X156949631Y-53762300D01*
X156949623Y-53762300D01*
X156949614Y-53762300D01*
X155353879Y-53762300D01*
X155353873Y-53762301D01*
X155294266Y-53768708D01*
X155159421Y-53819002D01*
X155159414Y-53819006D01*
X155044205Y-53905252D01*
X155044202Y-53905255D01*
X154957956Y-54020464D01*
X154957952Y-54020471D01*
X154907658Y-54155317D01*
X154901251Y-54214916D01*
X154901250Y-54214935D01*
X154901250Y-55310670D01*
X152501746Y-55310670D01*
X152501749Y-55310644D01*
X152501750Y-55310627D01*
X152501750Y-55012800D01*
X151501750Y-55012800D01*
X151001750Y-55012800D01*
X150001750Y-55012800D01*
X144594191Y-55012800D01*
X144094191Y-54512800D01*
X150001750Y-54512800D01*
X151001750Y-54512800D01*
X151001750Y-53762800D01*
X151501750Y-53762800D01*
X151501750Y-54512800D01*
X152501750Y-54512800D01*
X152501750Y-54214972D01*
X152501749Y-54214955D01*
X152495348Y-54155427D01*
X152495346Y-54155420D01*
X152445104Y-54020713D01*
X152445100Y-54020706D01*
X152358940Y-53905612D01*
X152358937Y-53905609D01*
X152243843Y-53819449D01*
X152243836Y-53819445D01*
X152109129Y-53769203D01*
X152109122Y-53769201D01*
X152049594Y-53762800D01*
X151501750Y-53762800D01*
X151001750Y-53762800D01*
X150453905Y-53762800D01*
X150394377Y-53769201D01*
X150394370Y-53769203D01*
X150259663Y-53819445D01*
X150259656Y-53819449D01*
X150144562Y-53905609D01*
X150144559Y-53905612D01*
X150058399Y-54020706D01*
X150058395Y-54020713D01*
X150008153Y-54155420D01*
X150008151Y-54155427D01*
X150001750Y-54214955D01*
X150001750Y-54512800D01*
X144094191Y-54512800D01*
X143985403Y-54404012D01*
X143975580Y-54391750D01*
X143975359Y-54391934D01*
X143970386Y-54385923D01*
X143970385Y-54385922D01*
X143919964Y-54338573D01*
X143909519Y-54328128D01*
X143899075Y-54317683D01*
X143893586Y-54313425D01*
X143889161Y-54309647D01*
X143855182Y-54277738D01*
X143855180Y-54277736D01*
X143855177Y-54277735D01*
X143837629Y-54268088D01*
X143821363Y-54257404D01*
X143805533Y-54245125D01*
X143762768Y-54226618D01*
X143757522Y-54224048D01*
X143716693Y-54201603D01*
X143716692Y-54201602D01*
X143697293Y-54196622D01*
X143678881Y-54190318D01*
X143660498Y-54182362D01*
X143660492Y-54182360D01*
X143614474Y-54175072D01*
X143608752Y-54173887D01*
X143563621Y-54162300D01*
X143563619Y-54162300D01*
X143543584Y-54162300D01*
X143524186Y-54160773D01*
X143510352Y-54158582D01*
X143504405Y-54157640D01*
X143504404Y-54157640D01*
X143458016Y-54162025D01*
X143452178Y-54162300D01*
X131043214Y-54162300D01*
X131016292Y-54158468D01*
X131016274Y-54158582D01*
X131009041Y-54157436D01*
X131008617Y-54157376D01*
X131008570Y-54157362D01*
X131008569Y-54157362D01*
X131008567Y-54157361D01*
X131008565Y-54157361D01*
X130962547Y-54150072D01*
X130956825Y-54148887D01*
X130911694Y-54137300D01*
X130911692Y-54137300D01*
X130891657Y-54137300D01*
X130872259Y-54135773D01*
X130864835Y-54134597D01*
X130852478Y-54132640D01*
X130852477Y-54132640D01*
X130806089Y-54137025D01*
X130800251Y-54137300D01*
X127954067Y-54137300D01*
X127887028Y-54117615D01*
X127841273Y-54064811D01*
X127837885Y-54056634D01*
X127824396Y-54020469D01*
X127824393Y-54020464D01*
X127738147Y-53905255D01*
X127738144Y-53905252D01*
X127622935Y-53819006D01*
X127622928Y-53819002D01*
X127488082Y-53768708D01*
X127488083Y-53768708D01*
X127428483Y-53762301D01*
X127428481Y-53762300D01*
X127428473Y-53762300D01*
X127428464Y-53762300D01*
X125832729Y-53762300D01*
X125832723Y-53762301D01*
X125773116Y-53768708D01*
X125638271Y-53819002D01*
X125638264Y-53819006D01*
X125523055Y-53905252D01*
X125523052Y-53905255D01*
X125436806Y-54020464D01*
X125436802Y-54020471D01*
X125386508Y-54155317D01*
X125380101Y-54214916D01*
X125380100Y-54214935D01*
X125380100Y-55310670D01*
X122980596Y-55310670D01*
X122980599Y-55310644D01*
X122980600Y-55310627D01*
X122980600Y-55012800D01*
X121980600Y-55012800D01*
X121480600Y-55012800D01*
X120480600Y-55012800D01*
X117245899Y-55012800D01*
X117245899Y-54512800D01*
X120480600Y-54512800D01*
X121480600Y-54512800D01*
X121480600Y-53762800D01*
X121980600Y-53762800D01*
X121980600Y-54512800D01*
X122980600Y-54512800D01*
X122980600Y-54214972D01*
X122980599Y-54214955D01*
X122974198Y-54155427D01*
X122974196Y-54155420D01*
X122923954Y-54020713D01*
X122923950Y-54020706D01*
X122837790Y-53905612D01*
X122837787Y-53905609D01*
X122722693Y-53819449D01*
X122722686Y-53819445D01*
X122587979Y-53769203D01*
X122587972Y-53769201D01*
X122528444Y-53762800D01*
X121980600Y-53762800D01*
X121480600Y-53762800D01*
X120932755Y-53762800D01*
X120873227Y-53769201D01*
X120873220Y-53769203D01*
X120738513Y-53819445D01*
X120738506Y-53819449D01*
X120623412Y-53905609D01*
X120623409Y-53905612D01*
X120537249Y-54020706D01*
X120537245Y-54020713D01*
X120487003Y-54155420D01*
X120487001Y-54155427D01*
X120480600Y-54214955D01*
X120480600Y-54512800D01*
X117245899Y-54512800D01*
X117245899Y-53575228D01*
X117265584Y-53508189D01*
X117282213Y-53487552D01*
X120333838Y-50435927D01*
X120347467Y-50424150D01*
X120366730Y-50409810D01*
X120366732Y-50409806D01*
X120366734Y-50409806D01*
X120384863Y-50388199D01*
X120400313Y-50369785D01*
X120403967Y-50365799D01*
X120409789Y-50359978D01*
X120430128Y-50334254D01*
X120435362Y-50328015D01*
X120479502Y-50275414D01*
X120479504Y-50275409D01*
X120483472Y-50269379D01*
X120483523Y-50269412D01*
X120487569Y-50263060D01*
X120487517Y-50263028D01*
X120491309Y-50256879D01*
X120491311Y-50256877D01*
X120523769Y-50187269D01*
X120558240Y-50118633D01*
X120558243Y-50118617D01*
X120560710Y-50111844D01*
X120560768Y-50111865D01*
X120563243Y-50104746D01*
X120563185Y-50104727D01*
X120565456Y-50097872D01*
X120580984Y-50022667D01*
X120598700Y-49947920D01*
X120599539Y-49940748D01*
X120599597Y-49940754D01*
X120600364Y-49933256D01*
X120600304Y-49933251D01*
X120600933Y-49926060D01*
X120598700Y-49849303D01*
X120598700Y-49548470D01*
X122455100Y-49548470D01*
X122455101Y-49548476D01*
X122461508Y-49608083D01*
X122511802Y-49742928D01*
X122511806Y-49742935D01*
X122598052Y-49858144D01*
X122598055Y-49858147D01*
X122713264Y-49944393D01*
X122713271Y-49944397D01*
X122848117Y-49994691D01*
X122848116Y-49994691D01*
X122855044Y-49995435D01*
X122907727Y-50001100D01*
X126203472Y-50001099D01*
X126263083Y-49994691D01*
X126397931Y-49944396D01*
X126513146Y-49858146D01*
X126599396Y-49742931D01*
X126649691Y-49608083D01*
X126656100Y-49548473D01*
X126656100Y-49548470D01*
X151976250Y-49548470D01*
X151976251Y-49548476D01*
X151982658Y-49608083D01*
X152032952Y-49742928D01*
X152032956Y-49742935D01*
X152119202Y-49858144D01*
X152119205Y-49858147D01*
X152234414Y-49944393D01*
X152234421Y-49944397D01*
X152369267Y-49994691D01*
X152369266Y-49994691D01*
X152376194Y-49995435D01*
X152428877Y-50001100D01*
X155724622Y-50001099D01*
X155784233Y-49994691D01*
X155919081Y-49944396D01*
X156034296Y-49858146D01*
X156120546Y-49742931D01*
X156170841Y-49608083D01*
X156177250Y-49548473D01*
X156177250Y-49548470D01*
X181497400Y-49548470D01*
X181497401Y-49548476D01*
X181503808Y-49608083D01*
X181554102Y-49742928D01*
X181554106Y-49742935D01*
X181640352Y-49858144D01*
X181640355Y-49858147D01*
X181755564Y-49944393D01*
X181755571Y-49944397D01*
X181890417Y-49994691D01*
X181890416Y-49994691D01*
X181897344Y-49995435D01*
X181950027Y-50001100D01*
X185245772Y-50001099D01*
X185305383Y-49994691D01*
X185440231Y-49944396D01*
X185555446Y-49858146D01*
X185641696Y-49742931D01*
X185691991Y-49608083D01*
X185698400Y-49548473D01*
X185698400Y-49548470D01*
X211018550Y-49548470D01*
X211018551Y-49548476D01*
X211024958Y-49608083D01*
X211075252Y-49742928D01*
X211075256Y-49742935D01*
X211161502Y-49858144D01*
X211161505Y-49858147D01*
X211276714Y-49944393D01*
X211276721Y-49944397D01*
X211411567Y-49994691D01*
X211411566Y-49994691D01*
X211418494Y-49995435D01*
X211471177Y-50001100D01*
X214766922Y-50001099D01*
X214826533Y-49994691D01*
X214961381Y-49944396D01*
X215076596Y-49858146D01*
X215162846Y-49742931D01*
X215213141Y-49608083D01*
X215219550Y-49548473D01*
X215219550Y-49548470D01*
X240539700Y-49548470D01*
X240539701Y-49548476D01*
X240546108Y-49608083D01*
X240596402Y-49742928D01*
X240596406Y-49742935D01*
X240682652Y-49858144D01*
X240682655Y-49858147D01*
X240797864Y-49944393D01*
X240797871Y-49944397D01*
X240932717Y-49994691D01*
X240932716Y-49994691D01*
X240939644Y-49995435D01*
X240992327Y-50001100D01*
X244288072Y-50001099D01*
X244347683Y-49994691D01*
X244482531Y-49944396D01*
X244597746Y-49858146D01*
X244683996Y-49742931D01*
X244734291Y-49608083D01*
X244740700Y-49548473D01*
X244740699Y-47452728D01*
X244734291Y-47393117D01*
X244683996Y-47258269D01*
X244683995Y-47258268D01*
X244683993Y-47258264D01*
X244597747Y-47143055D01*
X244597744Y-47143052D01*
X244482535Y-47056806D01*
X244482528Y-47056802D01*
X244347682Y-47006508D01*
X244347683Y-47006508D01*
X244288083Y-47000101D01*
X244288081Y-47000100D01*
X244288073Y-47000100D01*
X244288064Y-47000100D01*
X240992329Y-47000100D01*
X240992323Y-47000101D01*
X240932716Y-47006508D01*
X240797871Y-47056802D01*
X240797864Y-47056806D01*
X240682655Y-47143052D01*
X240682652Y-47143055D01*
X240596406Y-47258264D01*
X240596402Y-47258271D01*
X240546108Y-47393117D01*
X240539701Y-47452716D01*
X240539701Y-47452723D01*
X240539700Y-47452735D01*
X240539700Y-49548470D01*
X215219550Y-49548470D01*
X215219549Y-47452728D01*
X215213141Y-47393117D01*
X215162846Y-47258269D01*
X215162845Y-47258268D01*
X215162843Y-47258264D01*
X215076597Y-47143055D01*
X215076594Y-47143052D01*
X214961385Y-47056806D01*
X214961378Y-47056802D01*
X214826532Y-47006508D01*
X214826533Y-47006508D01*
X214766933Y-47000101D01*
X214766931Y-47000100D01*
X214766923Y-47000100D01*
X214766914Y-47000100D01*
X211471179Y-47000100D01*
X211471173Y-47000101D01*
X211411566Y-47006508D01*
X211276721Y-47056802D01*
X211276714Y-47056806D01*
X211161505Y-47143052D01*
X211161502Y-47143055D01*
X211075256Y-47258264D01*
X211075252Y-47258271D01*
X211024958Y-47393117D01*
X211018551Y-47452716D01*
X211018551Y-47452723D01*
X211018550Y-47452735D01*
X211018550Y-49548470D01*
X185698400Y-49548470D01*
X185698399Y-47452728D01*
X185691991Y-47393117D01*
X185641696Y-47258269D01*
X185641695Y-47258268D01*
X185641693Y-47258264D01*
X185555447Y-47143055D01*
X185555444Y-47143052D01*
X185440235Y-47056806D01*
X185440228Y-47056802D01*
X185305382Y-47006508D01*
X185305383Y-47006508D01*
X185245783Y-47000101D01*
X185245781Y-47000100D01*
X185245773Y-47000100D01*
X185245764Y-47000100D01*
X181950029Y-47000100D01*
X181950023Y-47000101D01*
X181890416Y-47006508D01*
X181755571Y-47056802D01*
X181755564Y-47056806D01*
X181640355Y-47143052D01*
X181640352Y-47143055D01*
X181554106Y-47258264D01*
X181554102Y-47258271D01*
X181503808Y-47393117D01*
X181497401Y-47452716D01*
X181497401Y-47452723D01*
X181497400Y-47452735D01*
X181497400Y-49548470D01*
X156177250Y-49548470D01*
X156177249Y-47452728D01*
X156170841Y-47393117D01*
X156120546Y-47258269D01*
X156120545Y-47258268D01*
X156120543Y-47258264D01*
X156034297Y-47143055D01*
X156034294Y-47143052D01*
X155919085Y-47056806D01*
X155919078Y-47056802D01*
X155784232Y-47006508D01*
X155784233Y-47006508D01*
X155724633Y-47000101D01*
X155724631Y-47000100D01*
X155724623Y-47000100D01*
X155724614Y-47000100D01*
X152428879Y-47000100D01*
X152428873Y-47000101D01*
X152369266Y-47006508D01*
X152234421Y-47056802D01*
X152234414Y-47056806D01*
X152119205Y-47143052D01*
X152119202Y-47143055D01*
X152032956Y-47258264D01*
X152032952Y-47258271D01*
X151982658Y-47393117D01*
X151976251Y-47452716D01*
X151976251Y-47452723D01*
X151976250Y-47452735D01*
X151976250Y-49548470D01*
X126656100Y-49548470D01*
X126656099Y-47452728D01*
X126649691Y-47393117D01*
X126599396Y-47258269D01*
X126599395Y-47258268D01*
X126599393Y-47258264D01*
X126513147Y-47143055D01*
X126513144Y-47143052D01*
X126397935Y-47056806D01*
X126397928Y-47056802D01*
X126263082Y-47006508D01*
X126263083Y-47006508D01*
X126203483Y-47000101D01*
X126203481Y-47000100D01*
X126203473Y-47000100D01*
X126203464Y-47000100D01*
X122907729Y-47000100D01*
X122907723Y-47000101D01*
X122848116Y-47006508D01*
X122713271Y-47056802D01*
X122713264Y-47056806D01*
X122598055Y-47143052D01*
X122598052Y-47143055D01*
X122511806Y-47258264D01*
X122511802Y-47258271D01*
X122461508Y-47393117D01*
X122455101Y-47452716D01*
X122455101Y-47452723D01*
X122455100Y-47452735D01*
X122455100Y-49548470D01*
X120598700Y-49548470D01*
X120598700Y-45400605D01*
X130049957Y-45400605D01*
X130070490Y-45648412D01*
X130070492Y-45648424D01*
X130131536Y-45889481D01*
X130231426Y-46117206D01*
X130367433Y-46325382D01*
X130367436Y-46325385D01*
X130535856Y-46508338D01*
X130732091Y-46661074D01*
X130732093Y-46661075D01*
X130949932Y-46778964D01*
X130950790Y-46779428D01*
X131169741Y-46854594D01*
X131184564Y-46859683D01*
X131185986Y-46860171D01*
X131431265Y-46901100D01*
X131679935Y-46901100D01*
X131925214Y-46860171D01*
X132160410Y-46779428D01*
X132379109Y-46661074D01*
X132575344Y-46508338D01*
X132743764Y-46325385D01*
X132879773Y-46117207D01*
X132979663Y-45889481D01*
X133040708Y-45648421D01*
X133040716Y-45648329D01*
X133061243Y-45400605D01*
X145071107Y-45400605D01*
X145091640Y-45648412D01*
X145091642Y-45648424D01*
X145152686Y-45889481D01*
X145252576Y-46117206D01*
X145388583Y-46325382D01*
X145388586Y-46325385D01*
X145557006Y-46508338D01*
X145753241Y-46661074D01*
X145753243Y-46661075D01*
X145971082Y-46778964D01*
X145971940Y-46779428D01*
X146190891Y-46854594D01*
X146205714Y-46859683D01*
X146207136Y-46860171D01*
X146452415Y-46901100D01*
X146701085Y-46901100D01*
X146946364Y-46860171D01*
X147181560Y-46779428D01*
X147400259Y-46661074D01*
X147596494Y-46508338D01*
X147764914Y-46325385D01*
X147900923Y-46117207D01*
X148000813Y-45889481D01*
X148061858Y-45648421D01*
X148061866Y-45648329D01*
X148082393Y-45400605D01*
X159571107Y-45400605D01*
X159591640Y-45648412D01*
X159591642Y-45648424D01*
X159652686Y-45889481D01*
X159752576Y-46117206D01*
X159888583Y-46325382D01*
X159888586Y-46325385D01*
X160057006Y-46508338D01*
X160253241Y-46661074D01*
X160253243Y-46661075D01*
X160471082Y-46778964D01*
X160471940Y-46779428D01*
X160690891Y-46854594D01*
X160705714Y-46859683D01*
X160707136Y-46860171D01*
X160952415Y-46901100D01*
X161201085Y-46901100D01*
X161446364Y-46860171D01*
X161681560Y-46779428D01*
X161900259Y-46661074D01*
X162096494Y-46508338D01*
X162264914Y-46325385D01*
X162400923Y-46117207D01*
X162500813Y-45889481D01*
X162561858Y-45648421D01*
X162561866Y-45648329D01*
X162582393Y-45400605D01*
X174592257Y-45400605D01*
X174612790Y-45648412D01*
X174612792Y-45648424D01*
X174673836Y-45889481D01*
X174773726Y-46117206D01*
X174909733Y-46325382D01*
X174909736Y-46325385D01*
X175078156Y-46508338D01*
X175274391Y-46661074D01*
X175274393Y-46661075D01*
X175492232Y-46778964D01*
X175493090Y-46779428D01*
X175712041Y-46854594D01*
X175726864Y-46859683D01*
X175728286Y-46860171D01*
X175973565Y-46901100D01*
X176222235Y-46901100D01*
X176467514Y-46860171D01*
X176702710Y-46779428D01*
X176921409Y-46661074D01*
X177117644Y-46508338D01*
X177286064Y-46325385D01*
X177422073Y-46117207D01*
X177521963Y-45889481D01*
X177583008Y-45648421D01*
X177603543Y-45400605D01*
X189092257Y-45400605D01*
X189112790Y-45648412D01*
X189112792Y-45648424D01*
X189173836Y-45889481D01*
X189273726Y-46117206D01*
X189409733Y-46325382D01*
X189409736Y-46325385D01*
X189578156Y-46508338D01*
X189774391Y-46661074D01*
X189774393Y-46661075D01*
X189992232Y-46778964D01*
X189993090Y-46779428D01*
X190212041Y-46854594D01*
X190226864Y-46859683D01*
X190228286Y-46860171D01*
X190473565Y-46901100D01*
X190722235Y-46901100D01*
X190967514Y-46860171D01*
X191202710Y-46779428D01*
X191421409Y-46661074D01*
X191617644Y-46508338D01*
X191786064Y-46325385D01*
X191922073Y-46117207D01*
X192021963Y-45889481D01*
X192083008Y-45648421D01*
X192103543Y-45400605D01*
X204113406Y-45400605D01*
X204133940Y-45648412D01*
X204133942Y-45648424D01*
X204194986Y-45889481D01*
X204294876Y-46117206D01*
X204430883Y-46325382D01*
X204430886Y-46325385D01*
X204599306Y-46508338D01*
X204795541Y-46661074D01*
X204795543Y-46661075D01*
X205013382Y-46778964D01*
X205014240Y-46779428D01*
X205233191Y-46854594D01*
X205248014Y-46859683D01*
X205249436Y-46860171D01*
X205494715Y-46901100D01*
X205743385Y-46901100D01*
X205988664Y-46860171D01*
X206223860Y-46779428D01*
X206442559Y-46661074D01*
X206638794Y-46508338D01*
X206807214Y-46325385D01*
X206943223Y-46117207D01*
X207043113Y-45889481D01*
X207104158Y-45648421D01*
X207104166Y-45648329D01*
X207124693Y-45400605D01*
X218613406Y-45400605D01*
X218633940Y-45648412D01*
X218633942Y-45648424D01*
X218694986Y-45889481D01*
X218794876Y-46117206D01*
X218930883Y-46325382D01*
X218930886Y-46325385D01*
X219099306Y-46508338D01*
X219295541Y-46661074D01*
X219295543Y-46661075D01*
X219513382Y-46778964D01*
X219514240Y-46779428D01*
X219733191Y-46854594D01*
X219748014Y-46859683D01*
X219749436Y-46860171D01*
X219994715Y-46901100D01*
X220243385Y-46901100D01*
X220488664Y-46860171D01*
X220723860Y-46779428D01*
X220942559Y-46661074D01*
X221138794Y-46508338D01*
X221307214Y-46325385D01*
X221443223Y-46117207D01*
X221543113Y-45889481D01*
X221604158Y-45648421D01*
X221604166Y-45648329D01*
X221624693Y-45400605D01*
X233634557Y-45400605D01*
X233655090Y-45648412D01*
X233655092Y-45648424D01*
X233716136Y-45889481D01*
X233816026Y-46117206D01*
X233952033Y-46325382D01*
X233952036Y-46325385D01*
X234120456Y-46508338D01*
X234316691Y-46661074D01*
X234316693Y-46661075D01*
X234534532Y-46778964D01*
X234535390Y-46779428D01*
X234754341Y-46854594D01*
X234769164Y-46859683D01*
X234770586Y-46860171D01*
X235015865Y-46901100D01*
X235264535Y-46901100D01*
X235509814Y-46860171D01*
X235745010Y-46779428D01*
X235963709Y-46661074D01*
X236159944Y-46508338D01*
X236328364Y-46325385D01*
X236464373Y-46117207D01*
X236564263Y-45889481D01*
X236625308Y-45648421D01*
X236645843Y-45400605D01*
X248135059Y-45400605D01*
X248155585Y-45648329D01*
X248155587Y-45648338D01*
X248216612Y-45889317D01*
X248316466Y-46116964D01*
X248416764Y-46270482D01*
X249031250Y-45655995D01*
X249092573Y-45622510D01*
X249162264Y-45627494D01*
X249218198Y-45669365D01*
X249223239Y-45676625D01*
X249223248Y-45676639D01*
X249258439Y-45731398D01*
X249373802Y-45831359D01*
X249371493Y-45834022D01*
X249406206Y-45874099D01*
X249416135Y-45943260D01*
X249387098Y-46006810D01*
X249381082Y-46013269D01*
X248770142Y-46624209D01*
X248816968Y-46660655D01*
X248816970Y-46660656D01*
X249035585Y-46778964D01*
X249035596Y-46778969D01*
X249270706Y-46859683D01*
X249515907Y-46900600D01*
X249764493Y-46900600D01*
X250009693Y-46859683D01*
X250244803Y-46778969D01*
X250244814Y-46778964D01*
X250463428Y-46660657D01*
X250463431Y-46660655D01*
X250510256Y-46624209D01*
X249899316Y-46013269D01*
X249865831Y-45951946D01*
X249870815Y-45882254D01*
X249907841Y-45832793D01*
X249906598Y-45831359D01*
X249913300Y-45825552D01*
X250021961Y-45731398D01*
X250057154Y-45676637D01*
X250109955Y-45630883D01*
X250179114Y-45620939D01*
X250242670Y-45649963D01*
X250249149Y-45655996D01*
X250863634Y-46270482D01*
X250963931Y-46116969D01*
X251063787Y-45889317D01*
X251124812Y-45648338D01*
X251124814Y-45648329D01*
X251145341Y-45400605D01*
X251145341Y-45400594D01*
X251124814Y-45152870D01*
X251124812Y-45152861D01*
X251063787Y-44911882D01*
X250963931Y-44684230D01*
X250863634Y-44530716D01*
X250249149Y-45145202D01*
X250187826Y-45178687D01*
X250118134Y-45173703D01*
X250062201Y-45131831D01*
X250057153Y-45124561D01*
X250021961Y-45069802D01*
X249906598Y-44969841D01*
X249908898Y-44967185D01*
X249874160Y-44927028D01*
X249864274Y-44857861D01*
X249893352Y-44794329D01*
X249899316Y-44787929D01*
X250510256Y-44176989D01*
X250463429Y-44140543D01*
X250244814Y-44022235D01*
X250244803Y-44022230D01*
X250009693Y-43941516D01*
X249764493Y-43900600D01*
X249515907Y-43900600D01*
X249270706Y-43941516D01*
X249035596Y-44022230D01*
X249035590Y-44022232D01*
X248816961Y-44140549D01*
X248770142Y-44176988D01*
X248770142Y-44176990D01*
X249381083Y-44787930D01*
X249414568Y-44849253D01*
X249409584Y-44918944D01*
X249372558Y-44968405D01*
X249373802Y-44969841D01*
X249258438Y-45069802D01*
X249223246Y-45124562D01*
X249170442Y-45170317D01*
X249101283Y-45180260D01*
X249037728Y-45151234D01*
X249031250Y-45145203D01*
X248416764Y-44530716D01*
X248316467Y-44684232D01*
X248216612Y-44911882D01*
X248155587Y-45152861D01*
X248155585Y-45152870D01*
X248135059Y-45400594D01*
X248135059Y-45400605D01*
X236645843Y-45400605D01*
X236645843Y-45400600D01*
X236627042Y-45173703D01*
X236625309Y-45152787D01*
X236625307Y-45152775D01*
X236564263Y-44911718D01*
X236464373Y-44683993D01*
X236328366Y-44475817D01*
X236308060Y-44453759D01*
X236159944Y-44292862D01*
X236058823Y-44214156D01*
X236018010Y-44157446D01*
X236013897Y-44127849D01*
X235399316Y-43513269D01*
X235365831Y-43451946D01*
X235370815Y-43382255D01*
X235407840Y-43332793D01*
X235406598Y-43331359D01*
X235413300Y-43325552D01*
X235521961Y-43231398D01*
X235557154Y-43176637D01*
X235609955Y-43130883D01*
X235679114Y-43120939D01*
X235742670Y-43149963D01*
X235749149Y-43155996D01*
X236363634Y-43770482D01*
X236463931Y-43616969D01*
X236563787Y-43389317D01*
X236624812Y-43148338D01*
X236624814Y-43148329D01*
X236645341Y-42900605D01*
X236645341Y-42900594D01*
X236624814Y-42652870D01*
X236624812Y-42652861D01*
X236563787Y-42411882D01*
X236463932Y-42184232D01*
X236351715Y-42012470D01*
X236331528Y-41945581D01*
X236350708Y-41878395D01*
X236381213Y-41845382D01*
X236382529Y-41844396D01*
X236382531Y-41844396D01*
X236497746Y-41758146D01*
X236583996Y-41642931D01*
X236634291Y-41508083D01*
X236640700Y-41448473D01*
X236640700Y-40400605D01*
X248134557Y-40400605D01*
X248155090Y-40648412D01*
X248155092Y-40648424D01*
X248216136Y-40889481D01*
X248316026Y-41117206D01*
X248452033Y-41325382D01*
X248452036Y-41325385D01*
X248620456Y-41508338D01*
X248816691Y-41661074D01*
X248816693Y-41661075D01*
X249034532Y-41778964D01*
X249035390Y-41779428D01*
X249224635Y-41844396D01*
X249269164Y-41859683D01*
X249270586Y-41860171D01*
X249515865Y-41901100D01*
X249764535Y-41901100D01*
X250009814Y-41860171D01*
X250245010Y-41779428D01*
X250463709Y-41661074D01*
X250659944Y-41508338D01*
X250828364Y-41325385D01*
X250964373Y-41117207D01*
X251064263Y-40889481D01*
X251125308Y-40648421D01*
X251145843Y-40400600D01*
X251127042Y-40173703D01*
X251125309Y-40152787D01*
X251125307Y-40152775D01*
X251064263Y-39911718D01*
X250964373Y-39683993D01*
X250828366Y-39475817D01*
X250806757Y-39452344D01*
X250659944Y-39292862D01*
X250463709Y-39140126D01*
X250463707Y-39140125D01*
X250463706Y-39140124D01*
X250245011Y-39021772D01*
X250245002Y-39021769D01*
X250009816Y-38941029D01*
X249764535Y-38900100D01*
X249515865Y-38900100D01*
X249270583Y-38941029D01*
X249035397Y-39021769D01*
X249035388Y-39021772D01*
X248816693Y-39140124D01*
X248620457Y-39292861D01*
X248452033Y-39475817D01*
X248316026Y-39683993D01*
X248216136Y-39911718D01*
X248155092Y-40152775D01*
X248155090Y-40152787D01*
X248134557Y-40400594D01*
X248134557Y-40400605D01*
X236640700Y-40400605D01*
X236640699Y-39352728D01*
X236634291Y-39293117D01*
X236590978Y-39176990D01*
X236583997Y-39158271D01*
X236583993Y-39158264D01*
X236497747Y-39043055D01*
X236497744Y-39043052D01*
X236382535Y-38956806D01*
X236382528Y-38956802D01*
X236247682Y-38906508D01*
X236247683Y-38906508D01*
X236188083Y-38900101D01*
X236188081Y-38900100D01*
X236188073Y-38900100D01*
X236188064Y-38900100D01*
X234092329Y-38900100D01*
X234092323Y-38900101D01*
X234032716Y-38906508D01*
X233897871Y-38956802D01*
X233897864Y-38956806D01*
X233782655Y-39043052D01*
X233782652Y-39043055D01*
X233696406Y-39158264D01*
X233696402Y-39158271D01*
X233646108Y-39293117D01*
X233639701Y-39352716D01*
X233639701Y-39352723D01*
X233639700Y-39352735D01*
X233639700Y-41448470D01*
X233639701Y-41448476D01*
X233646108Y-41508083D01*
X233696402Y-41642928D01*
X233696406Y-41642935D01*
X233782652Y-41758144D01*
X233782655Y-41758147D01*
X233899186Y-41845383D01*
X233941057Y-41901317D01*
X233946041Y-41971008D01*
X233928684Y-42012470D01*
X233816467Y-42184231D01*
X233716612Y-42411882D01*
X233655587Y-42652861D01*
X233655585Y-42652870D01*
X233635059Y-42900594D01*
X233635059Y-42900605D01*
X233655585Y-43148329D01*
X233655587Y-43148338D01*
X233716612Y-43389317D01*
X233816466Y-43616964D01*
X233916764Y-43770482D01*
X234531250Y-43155995D01*
X234592573Y-43122510D01*
X234662264Y-43127494D01*
X234718198Y-43169365D01*
X234723239Y-43176625D01*
X234723248Y-43176639D01*
X234758439Y-43231398D01*
X234873802Y-43331359D01*
X234871493Y-43334022D01*
X234906206Y-43374099D01*
X234916135Y-43443260D01*
X234887098Y-43506810D01*
X234881082Y-43513269D01*
X234264300Y-44130050D01*
X234253682Y-44176748D01*
X234221576Y-44214156D01*
X234120455Y-44292862D01*
X233952033Y-44475817D01*
X233816026Y-44683993D01*
X233716136Y-44911718D01*
X233655092Y-45152775D01*
X233655090Y-45152787D01*
X233634557Y-45400594D01*
X233634557Y-45400605D01*
X221624693Y-45400605D01*
X221624693Y-45400594D01*
X221604159Y-45152787D01*
X221604157Y-45152775D01*
X221543113Y-44911718D01*
X221443223Y-44683993D01*
X221307216Y-44475817D01*
X221285607Y-44452344D01*
X221138794Y-44292862D01*
X220942559Y-44140126D01*
X220942557Y-44140125D01*
X220942556Y-44140124D01*
X220723861Y-44021772D01*
X220723852Y-44021769D01*
X220488666Y-43941029D01*
X220243385Y-43900100D01*
X219994715Y-43900100D01*
X219749433Y-43941029D01*
X219514247Y-44021769D01*
X219514238Y-44021772D01*
X219295543Y-44140124D01*
X219099307Y-44292861D01*
X218930883Y-44475817D01*
X218794876Y-44683993D01*
X218694986Y-44911718D01*
X218633942Y-45152775D01*
X218633940Y-45152787D01*
X218613406Y-45400594D01*
X218613406Y-45400605D01*
X207124693Y-45400605D01*
X207124693Y-45400594D01*
X207104159Y-45152787D01*
X207104157Y-45152775D01*
X207043113Y-44911718D01*
X206943223Y-44683993D01*
X206807216Y-44475817D01*
X206786910Y-44453759D01*
X206638794Y-44292862D01*
X206537673Y-44214156D01*
X206496860Y-44157446D01*
X206492747Y-44127849D01*
X205878166Y-43513269D01*
X205844681Y-43451946D01*
X205849665Y-43382255D01*
X205886690Y-43332793D01*
X205885448Y-43331359D01*
X205892150Y-43325552D01*
X206000811Y-43231398D01*
X206036004Y-43176637D01*
X206088805Y-43130883D01*
X206157964Y-43120939D01*
X206221520Y-43149963D01*
X206227999Y-43155996D01*
X206842484Y-43770482D01*
X206942781Y-43616969D01*
X207042637Y-43389317D01*
X207103662Y-43148338D01*
X207103664Y-43148329D01*
X207124191Y-42900605D01*
X207124191Y-42900594D01*
X207103664Y-42652870D01*
X207103662Y-42652861D01*
X207042637Y-42411882D01*
X206942782Y-42184232D01*
X206830565Y-42012470D01*
X206810378Y-41945581D01*
X206829558Y-41878395D01*
X206860063Y-41845382D01*
X206861379Y-41844396D01*
X206861381Y-41844396D01*
X206976596Y-41758146D01*
X207062846Y-41642931D01*
X207113141Y-41508083D01*
X207119550Y-41448473D01*
X207119550Y-40400605D01*
X218613909Y-40400605D01*
X218634435Y-40648329D01*
X218634437Y-40648338D01*
X218695462Y-40889317D01*
X218795316Y-41116964D01*
X218895614Y-41270482D01*
X219510100Y-40655995D01*
X219571423Y-40622510D01*
X219641114Y-40627494D01*
X219697048Y-40669365D01*
X219702089Y-40676625D01*
X219702098Y-40676639D01*
X219737289Y-40731398D01*
X219852652Y-40831359D01*
X219850343Y-40834022D01*
X219885056Y-40874099D01*
X219894985Y-40943260D01*
X219865948Y-41006810D01*
X219859932Y-41013269D01*
X219248992Y-41624209D01*
X219295818Y-41660655D01*
X219295820Y-41660656D01*
X219514435Y-41778964D01*
X219514446Y-41778969D01*
X219749556Y-41859683D01*
X219994757Y-41900600D01*
X220243343Y-41900600D01*
X220488543Y-41859683D01*
X220723653Y-41778969D01*
X220723664Y-41778964D01*
X220942278Y-41660657D01*
X220942281Y-41660655D01*
X220989106Y-41624209D01*
X220378166Y-41013269D01*
X220344681Y-40951946D01*
X220349665Y-40882254D01*
X220386691Y-40832793D01*
X220385448Y-40831359D01*
X220392150Y-40825552D01*
X220500811Y-40731398D01*
X220536004Y-40676637D01*
X220588805Y-40630883D01*
X220657964Y-40620939D01*
X220721520Y-40649963D01*
X220727999Y-40655996D01*
X221342484Y-41270482D01*
X221442781Y-41116969D01*
X221542637Y-40889317D01*
X221603662Y-40648338D01*
X221603664Y-40648329D01*
X221624191Y-40400605D01*
X221624191Y-40400594D01*
X221603664Y-40152870D01*
X221603662Y-40152861D01*
X221542637Y-39911882D01*
X221442781Y-39684230D01*
X221342484Y-39530716D01*
X220727999Y-40145202D01*
X220666676Y-40178687D01*
X220596984Y-40173703D01*
X220541051Y-40131831D01*
X220536003Y-40124561D01*
X220500811Y-40069802D01*
X220385448Y-39969841D01*
X220387748Y-39967185D01*
X220353010Y-39927028D01*
X220343124Y-39857861D01*
X220372202Y-39794329D01*
X220378166Y-39787929D01*
X220989106Y-39176989D01*
X220942279Y-39140543D01*
X220723664Y-39022235D01*
X220723653Y-39022230D01*
X220488543Y-38941516D01*
X220243343Y-38900600D01*
X219994757Y-38900600D01*
X219749556Y-38941516D01*
X219514446Y-39022230D01*
X219514440Y-39022232D01*
X219295811Y-39140549D01*
X219248992Y-39176988D01*
X219248992Y-39176990D01*
X219859933Y-39787930D01*
X219893418Y-39849253D01*
X219888434Y-39918944D01*
X219851408Y-39968405D01*
X219852652Y-39969841D01*
X219737288Y-40069802D01*
X219702096Y-40124562D01*
X219649292Y-40170317D01*
X219580133Y-40180260D01*
X219516578Y-40151234D01*
X219510100Y-40145203D01*
X218895614Y-39530716D01*
X218795317Y-39684232D01*
X218695462Y-39911882D01*
X218634437Y-40152861D01*
X218634435Y-40152870D01*
X218613909Y-40400594D01*
X218613909Y-40400605D01*
X207119550Y-40400605D01*
X207119549Y-39352728D01*
X207113141Y-39293117D01*
X207069828Y-39176990D01*
X207062847Y-39158271D01*
X207062843Y-39158264D01*
X206976597Y-39043055D01*
X206976594Y-39043052D01*
X206861385Y-38956806D01*
X206861378Y-38956802D01*
X206726532Y-38906508D01*
X206726533Y-38906508D01*
X206666933Y-38900101D01*
X206666931Y-38900100D01*
X206666923Y-38900100D01*
X206666914Y-38900100D01*
X204571179Y-38900100D01*
X204571173Y-38900101D01*
X204511566Y-38906508D01*
X204376721Y-38956802D01*
X204376714Y-38956806D01*
X204261505Y-39043052D01*
X204261502Y-39043055D01*
X204175256Y-39158264D01*
X204175252Y-39158271D01*
X204124958Y-39293117D01*
X204118551Y-39352716D01*
X204118551Y-39352723D01*
X204118550Y-39352735D01*
X204118550Y-41448470D01*
X204118551Y-41448476D01*
X204124958Y-41508083D01*
X204175252Y-41642928D01*
X204175256Y-41642935D01*
X204261502Y-41758144D01*
X204261505Y-41758147D01*
X204378036Y-41845383D01*
X204419907Y-41901317D01*
X204424891Y-41971008D01*
X204407534Y-42012470D01*
X204295317Y-42184231D01*
X204195462Y-42411882D01*
X204134437Y-42652861D01*
X204134435Y-42652870D01*
X204113909Y-42900594D01*
X204113909Y-42900605D01*
X204134435Y-43148329D01*
X204134437Y-43148338D01*
X204195462Y-43389317D01*
X204295316Y-43616964D01*
X204395614Y-43770482D01*
X205010100Y-43155995D01*
X205071423Y-43122510D01*
X205141114Y-43127494D01*
X205197048Y-43169365D01*
X205202089Y-43176625D01*
X205202098Y-43176639D01*
X205237289Y-43231398D01*
X205352652Y-43331359D01*
X205350343Y-43334022D01*
X205385056Y-43374099D01*
X205394985Y-43443260D01*
X205365948Y-43506810D01*
X205359932Y-43513269D01*
X204743150Y-44130050D01*
X204732532Y-44176748D01*
X204700426Y-44214156D01*
X204599305Y-44292862D01*
X204430883Y-44475817D01*
X204294876Y-44683993D01*
X204194986Y-44911718D01*
X204133942Y-45152775D01*
X204133940Y-45152787D01*
X204113406Y-45400594D01*
X204113406Y-45400605D01*
X192103543Y-45400605D01*
X192103543Y-45400600D01*
X192084742Y-45173703D01*
X192083009Y-45152787D01*
X192083007Y-45152775D01*
X192021963Y-44911718D01*
X191922073Y-44683993D01*
X191786066Y-44475817D01*
X191764457Y-44452344D01*
X191617644Y-44292862D01*
X191421409Y-44140126D01*
X191421407Y-44140125D01*
X191421406Y-44140124D01*
X191202711Y-44021772D01*
X191202702Y-44021769D01*
X190967516Y-43941029D01*
X190722235Y-43900100D01*
X190473565Y-43900100D01*
X190228283Y-43941029D01*
X189993097Y-44021769D01*
X189993088Y-44021772D01*
X189774393Y-44140124D01*
X189578157Y-44292861D01*
X189409733Y-44475817D01*
X189273726Y-44683993D01*
X189173836Y-44911718D01*
X189112792Y-45152775D01*
X189112790Y-45152787D01*
X189092257Y-45400594D01*
X189092257Y-45400605D01*
X177603543Y-45400605D01*
X177603543Y-45400600D01*
X177584742Y-45173703D01*
X177583009Y-45152787D01*
X177583007Y-45152775D01*
X177521963Y-44911718D01*
X177422073Y-44683993D01*
X177286066Y-44475817D01*
X177265760Y-44453759D01*
X177117644Y-44292862D01*
X177016523Y-44214156D01*
X176975710Y-44157446D01*
X176971597Y-44127849D01*
X176357016Y-43513269D01*
X176323531Y-43451946D01*
X176328515Y-43382255D01*
X176365540Y-43332793D01*
X176364298Y-43331359D01*
X176371000Y-43325552D01*
X176479661Y-43231398D01*
X176514854Y-43176637D01*
X176567655Y-43130883D01*
X176636814Y-43120939D01*
X176700370Y-43149963D01*
X176706849Y-43155996D01*
X177321334Y-43770482D01*
X177421631Y-43616969D01*
X177521487Y-43389317D01*
X177582512Y-43148338D01*
X177582514Y-43148329D01*
X177603041Y-42900605D01*
X177603041Y-42900594D01*
X177582514Y-42652870D01*
X177582512Y-42652861D01*
X177521487Y-42411882D01*
X177421632Y-42184232D01*
X177309415Y-42012470D01*
X177289228Y-41945581D01*
X177308408Y-41878395D01*
X177338913Y-41845382D01*
X177340229Y-41844396D01*
X177340231Y-41844396D01*
X177455446Y-41758146D01*
X177541696Y-41642931D01*
X177591991Y-41508083D01*
X177598400Y-41448473D01*
X177598400Y-40400605D01*
X189092759Y-40400605D01*
X189113285Y-40648329D01*
X189113287Y-40648338D01*
X189174312Y-40889317D01*
X189274166Y-41116964D01*
X189374464Y-41270482D01*
X189988950Y-40655995D01*
X190050273Y-40622510D01*
X190119964Y-40627494D01*
X190175898Y-40669365D01*
X190180939Y-40676625D01*
X190180948Y-40676639D01*
X190216139Y-40731398D01*
X190331502Y-40831359D01*
X190329193Y-40834022D01*
X190363906Y-40874099D01*
X190373835Y-40943260D01*
X190344798Y-41006810D01*
X190338782Y-41013269D01*
X189727842Y-41624209D01*
X189774668Y-41660655D01*
X189774670Y-41660656D01*
X189993285Y-41778964D01*
X189993296Y-41778969D01*
X190228406Y-41859683D01*
X190473607Y-41900600D01*
X190722193Y-41900600D01*
X190967393Y-41859683D01*
X191202503Y-41778969D01*
X191202514Y-41778964D01*
X191421128Y-41660657D01*
X191421131Y-41660655D01*
X191467956Y-41624209D01*
X190857016Y-41013269D01*
X190823531Y-40951946D01*
X190828515Y-40882254D01*
X190865541Y-40832793D01*
X190864298Y-40831359D01*
X190871000Y-40825552D01*
X190979661Y-40731398D01*
X191014854Y-40676637D01*
X191067655Y-40630883D01*
X191136814Y-40620939D01*
X191200370Y-40649963D01*
X191206849Y-40655996D01*
X191821334Y-41270482D01*
X191921631Y-41116969D01*
X192021487Y-40889317D01*
X192082512Y-40648338D01*
X192082514Y-40648329D01*
X192103041Y-40400605D01*
X192103041Y-40400594D01*
X192082514Y-40152870D01*
X192082512Y-40152861D01*
X192021487Y-39911882D01*
X191921631Y-39684230D01*
X191821334Y-39530716D01*
X191206849Y-40145202D01*
X191145526Y-40178687D01*
X191075834Y-40173703D01*
X191019901Y-40131831D01*
X191014853Y-40124561D01*
X190979661Y-40069802D01*
X190864298Y-39969841D01*
X190866598Y-39967185D01*
X190831860Y-39927028D01*
X190821974Y-39857861D01*
X190851052Y-39794329D01*
X190857016Y-39787929D01*
X191467956Y-39176989D01*
X191421129Y-39140543D01*
X191202514Y-39022235D01*
X191202503Y-39022230D01*
X190967393Y-38941516D01*
X190722193Y-38900600D01*
X190473607Y-38900600D01*
X190228406Y-38941516D01*
X189993296Y-39022230D01*
X189993290Y-39022232D01*
X189774661Y-39140549D01*
X189727842Y-39176988D01*
X189727842Y-39176990D01*
X190338783Y-39787930D01*
X190372268Y-39849253D01*
X190367284Y-39918944D01*
X190330258Y-39968405D01*
X190331502Y-39969841D01*
X190216138Y-40069802D01*
X190180946Y-40124562D01*
X190128142Y-40170317D01*
X190058983Y-40180260D01*
X189995428Y-40151234D01*
X189988950Y-40145203D01*
X189374464Y-39530716D01*
X189274167Y-39684232D01*
X189174312Y-39911882D01*
X189113287Y-40152861D01*
X189113285Y-40152870D01*
X189092759Y-40400594D01*
X189092759Y-40400605D01*
X177598400Y-40400605D01*
X177598399Y-39352728D01*
X177591991Y-39293117D01*
X177548678Y-39176990D01*
X177541697Y-39158271D01*
X177541693Y-39158264D01*
X177455447Y-39043055D01*
X177455444Y-39043052D01*
X177340235Y-38956806D01*
X177340228Y-38956802D01*
X177205382Y-38906508D01*
X177205383Y-38906508D01*
X177145783Y-38900101D01*
X177145781Y-38900100D01*
X177145773Y-38900100D01*
X177145764Y-38900100D01*
X175050029Y-38900100D01*
X175050023Y-38900101D01*
X174990416Y-38906508D01*
X174855571Y-38956802D01*
X174855564Y-38956806D01*
X174740355Y-39043052D01*
X174740352Y-39043055D01*
X174654106Y-39158264D01*
X174654102Y-39158271D01*
X174603808Y-39293117D01*
X174597401Y-39352716D01*
X174597401Y-39352723D01*
X174597400Y-39352735D01*
X174597400Y-41448470D01*
X174597401Y-41448476D01*
X174603808Y-41508083D01*
X174654102Y-41642928D01*
X174654106Y-41642935D01*
X174740352Y-41758144D01*
X174740355Y-41758147D01*
X174856886Y-41845383D01*
X174898757Y-41901317D01*
X174903741Y-41971008D01*
X174886384Y-42012470D01*
X174774167Y-42184231D01*
X174674312Y-42411882D01*
X174613287Y-42652861D01*
X174613285Y-42652870D01*
X174592759Y-42900594D01*
X174592759Y-42900605D01*
X174613285Y-43148329D01*
X174613287Y-43148338D01*
X174674312Y-43389317D01*
X174774166Y-43616964D01*
X174874464Y-43770482D01*
X175488950Y-43155995D01*
X175550273Y-43122510D01*
X175619964Y-43127494D01*
X175675898Y-43169365D01*
X175680939Y-43176625D01*
X175680948Y-43176639D01*
X175716139Y-43231398D01*
X175831502Y-43331359D01*
X175829193Y-43334022D01*
X175863906Y-43374099D01*
X175873835Y-43443260D01*
X175844798Y-43506810D01*
X175838782Y-43513269D01*
X175222000Y-44130050D01*
X175211382Y-44176748D01*
X175179276Y-44214156D01*
X175078155Y-44292862D01*
X174909733Y-44475817D01*
X174773726Y-44683993D01*
X174673836Y-44911718D01*
X174612792Y-45152775D01*
X174612790Y-45152787D01*
X174592257Y-45400594D01*
X174592257Y-45400605D01*
X162582393Y-45400605D01*
X162582393Y-45400594D01*
X162561859Y-45152787D01*
X162561857Y-45152775D01*
X162500813Y-44911718D01*
X162400923Y-44683993D01*
X162264916Y-44475817D01*
X162243307Y-44452344D01*
X162096494Y-44292862D01*
X161900259Y-44140126D01*
X161900257Y-44140125D01*
X161900256Y-44140124D01*
X161681561Y-44021772D01*
X161681552Y-44021769D01*
X161446366Y-43941029D01*
X161201085Y-43900100D01*
X160952415Y-43900100D01*
X160707133Y-43941029D01*
X160471947Y-44021769D01*
X160471938Y-44021772D01*
X160253243Y-44140124D01*
X160057007Y-44292861D01*
X159888583Y-44475817D01*
X159752576Y-44683993D01*
X159652686Y-44911718D01*
X159591642Y-45152775D01*
X159591640Y-45152787D01*
X159571107Y-45400594D01*
X159571107Y-45400605D01*
X148082393Y-45400605D01*
X148082393Y-45400594D01*
X148061859Y-45152787D01*
X148061857Y-45152775D01*
X148000813Y-44911718D01*
X147900923Y-44683993D01*
X147764916Y-44475817D01*
X147744610Y-44453759D01*
X147596494Y-44292862D01*
X147495373Y-44214156D01*
X147454560Y-44157446D01*
X147450447Y-44127849D01*
X146835866Y-43513269D01*
X146802381Y-43451946D01*
X146807365Y-43382255D01*
X146844390Y-43332793D01*
X146843148Y-43331359D01*
X146849850Y-43325552D01*
X146958511Y-43231398D01*
X146993704Y-43176637D01*
X147046505Y-43130883D01*
X147115664Y-43120939D01*
X147179220Y-43149963D01*
X147185699Y-43155996D01*
X147800184Y-43770482D01*
X147900481Y-43616969D01*
X148000337Y-43389317D01*
X148061362Y-43148338D01*
X148061364Y-43148329D01*
X148081891Y-42900605D01*
X148081891Y-42900594D01*
X148061364Y-42652870D01*
X148061362Y-42652861D01*
X148000337Y-42411882D01*
X147900482Y-42184232D01*
X147788265Y-42012470D01*
X147768078Y-41945581D01*
X147787258Y-41878395D01*
X147817763Y-41845382D01*
X147819079Y-41844396D01*
X147819081Y-41844396D01*
X147934296Y-41758146D01*
X148020546Y-41642931D01*
X148070841Y-41508083D01*
X148077250Y-41448473D01*
X148077250Y-40400605D01*
X159571609Y-40400605D01*
X159592135Y-40648329D01*
X159592137Y-40648338D01*
X159653162Y-40889317D01*
X159753016Y-41116964D01*
X159853314Y-41270482D01*
X160467800Y-40655995D01*
X160529123Y-40622510D01*
X160598814Y-40627494D01*
X160654748Y-40669365D01*
X160659789Y-40676625D01*
X160659798Y-40676639D01*
X160694989Y-40731398D01*
X160810352Y-40831359D01*
X160808043Y-40834022D01*
X160842756Y-40874099D01*
X160852685Y-40943260D01*
X160823648Y-41006810D01*
X160817632Y-41013269D01*
X160206692Y-41624209D01*
X160253518Y-41660655D01*
X160253520Y-41660656D01*
X160472135Y-41778964D01*
X160472146Y-41778969D01*
X160707256Y-41859683D01*
X160952457Y-41900600D01*
X161201043Y-41900600D01*
X161446243Y-41859683D01*
X161681353Y-41778969D01*
X161681364Y-41778964D01*
X161899978Y-41660657D01*
X161899981Y-41660655D01*
X161946806Y-41624209D01*
X161335866Y-41013269D01*
X161302381Y-40951946D01*
X161307365Y-40882254D01*
X161344391Y-40832793D01*
X161343148Y-40831359D01*
X161349850Y-40825552D01*
X161458511Y-40731398D01*
X161493704Y-40676637D01*
X161546505Y-40630883D01*
X161615664Y-40620939D01*
X161679220Y-40649963D01*
X161685699Y-40655996D01*
X162300184Y-41270482D01*
X162400481Y-41116969D01*
X162500337Y-40889317D01*
X162561362Y-40648338D01*
X162561364Y-40648329D01*
X162581891Y-40400605D01*
X162581891Y-40400594D01*
X162561364Y-40152870D01*
X162561362Y-40152861D01*
X162500337Y-39911882D01*
X162400481Y-39684230D01*
X162300184Y-39530716D01*
X161685699Y-40145202D01*
X161624376Y-40178687D01*
X161554684Y-40173703D01*
X161498751Y-40131831D01*
X161493703Y-40124561D01*
X161458511Y-40069802D01*
X161343148Y-39969841D01*
X161345448Y-39967185D01*
X161310710Y-39927028D01*
X161300824Y-39857861D01*
X161329902Y-39794329D01*
X161335866Y-39787929D01*
X161946806Y-39176989D01*
X161899979Y-39140543D01*
X161681364Y-39022235D01*
X161681353Y-39022230D01*
X161446243Y-38941516D01*
X161201043Y-38900600D01*
X160952457Y-38900600D01*
X160707256Y-38941516D01*
X160472146Y-39022230D01*
X160472140Y-39022232D01*
X160253511Y-39140549D01*
X160206692Y-39176988D01*
X160206692Y-39176990D01*
X160817633Y-39787930D01*
X160851118Y-39849253D01*
X160846134Y-39918944D01*
X160809108Y-39968405D01*
X160810352Y-39969841D01*
X160694988Y-40069802D01*
X160659796Y-40124562D01*
X160606992Y-40170317D01*
X160537833Y-40180260D01*
X160474278Y-40151234D01*
X160467800Y-40145203D01*
X159853314Y-39530716D01*
X159753017Y-39684232D01*
X159653162Y-39911882D01*
X159592137Y-40152861D01*
X159592135Y-40152870D01*
X159571609Y-40400594D01*
X159571609Y-40400605D01*
X148077250Y-40400605D01*
X148077249Y-39352728D01*
X148070841Y-39293117D01*
X148027528Y-39176990D01*
X148020547Y-39158271D01*
X148020543Y-39158264D01*
X147934297Y-39043055D01*
X147934294Y-39043052D01*
X147819085Y-38956806D01*
X147819078Y-38956802D01*
X147684232Y-38906508D01*
X147684233Y-38906508D01*
X147624633Y-38900101D01*
X147624631Y-38900100D01*
X147624623Y-38900100D01*
X147624614Y-38900100D01*
X145528879Y-38900100D01*
X145528873Y-38900101D01*
X145469266Y-38906508D01*
X145334421Y-38956802D01*
X145334414Y-38956806D01*
X145219205Y-39043052D01*
X145219202Y-39043055D01*
X145132956Y-39158264D01*
X145132952Y-39158271D01*
X145082658Y-39293117D01*
X145076251Y-39352716D01*
X145076251Y-39352723D01*
X145076250Y-39352735D01*
X145076250Y-41448470D01*
X145076251Y-41448476D01*
X145082658Y-41508083D01*
X145132952Y-41642928D01*
X145132956Y-41642935D01*
X145219202Y-41758144D01*
X145219205Y-41758147D01*
X145335736Y-41845383D01*
X145377607Y-41901317D01*
X145382591Y-41971008D01*
X145365234Y-42012470D01*
X145253017Y-42184231D01*
X145153162Y-42411882D01*
X145092137Y-42652861D01*
X145092135Y-42652870D01*
X145071609Y-42900594D01*
X145071609Y-42900605D01*
X145092135Y-43148329D01*
X145092137Y-43148338D01*
X145153162Y-43389317D01*
X145253016Y-43616964D01*
X145353314Y-43770482D01*
X145967800Y-43155995D01*
X146029123Y-43122510D01*
X146098814Y-43127494D01*
X146154748Y-43169365D01*
X146159789Y-43176625D01*
X146159798Y-43176639D01*
X146194989Y-43231398D01*
X146310352Y-43331359D01*
X146308043Y-43334022D01*
X146342756Y-43374099D01*
X146352685Y-43443260D01*
X146323648Y-43506810D01*
X146317632Y-43513269D01*
X145700850Y-44130050D01*
X145690232Y-44176748D01*
X145658126Y-44214156D01*
X145557005Y-44292862D01*
X145388583Y-44475817D01*
X145252576Y-44683993D01*
X145152686Y-44911718D01*
X145091642Y-45152775D01*
X145091640Y-45152787D01*
X145071107Y-45400594D01*
X145071107Y-45400605D01*
X133061243Y-45400605D01*
X133061243Y-45400594D01*
X133040709Y-45152787D01*
X133040707Y-45152775D01*
X132979663Y-44911718D01*
X132879773Y-44683993D01*
X132743766Y-44475817D01*
X132722157Y-44452344D01*
X132575344Y-44292862D01*
X132379109Y-44140126D01*
X132379107Y-44140125D01*
X132379106Y-44140124D01*
X132160411Y-44021772D01*
X132160402Y-44021769D01*
X131925216Y-43941029D01*
X131679935Y-43900100D01*
X131431265Y-43900100D01*
X131185983Y-43941029D01*
X130950797Y-44021769D01*
X130950788Y-44021772D01*
X130732093Y-44140124D01*
X130535857Y-44292861D01*
X130367433Y-44475817D01*
X130231426Y-44683993D01*
X130131536Y-44911718D01*
X130070492Y-45152775D01*
X130070490Y-45152787D01*
X130049957Y-45400594D01*
X130049957Y-45400605D01*
X120598700Y-45400605D01*
X120598700Y-40400605D01*
X130050458Y-40400605D01*
X130070985Y-40648329D01*
X130070987Y-40648338D01*
X130132012Y-40889317D01*
X130231866Y-41116964D01*
X130332164Y-41270482D01*
X130946650Y-40655995D01*
X131007973Y-40622510D01*
X131077664Y-40627494D01*
X131133598Y-40669365D01*
X131138639Y-40676625D01*
X131138648Y-40676639D01*
X131173839Y-40731398D01*
X131289202Y-40831359D01*
X131286893Y-40834022D01*
X131321606Y-40874099D01*
X131331535Y-40943260D01*
X131302498Y-41006810D01*
X131296482Y-41013269D01*
X130685542Y-41624209D01*
X130732368Y-41660655D01*
X130732370Y-41660656D01*
X130950985Y-41778964D01*
X130950996Y-41778969D01*
X131186106Y-41859683D01*
X131431307Y-41900600D01*
X131679893Y-41900600D01*
X131925093Y-41859683D01*
X132160203Y-41778969D01*
X132160214Y-41778964D01*
X132378828Y-41660657D01*
X132378831Y-41660655D01*
X132425656Y-41624209D01*
X131814716Y-41013269D01*
X131781231Y-40951946D01*
X131786215Y-40882254D01*
X131823241Y-40832793D01*
X131821998Y-40831359D01*
X131828700Y-40825552D01*
X131937361Y-40731398D01*
X131972554Y-40676637D01*
X132025355Y-40630883D01*
X132094514Y-40620939D01*
X132158070Y-40649963D01*
X132164549Y-40655996D01*
X132779034Y-41270482D01*
X132879331Y-41116969D01*
X132979187Y-40889317D01*
X133040212Y-40648338D01*
X133040214Y-40648329D01*
X133060741Y-40400605D01*
X133060741Y-40400594D01*
X133040214Y-40152870D01*
X133040212Y-40152861D01*
X132979187Y-39911882D01*
X132879331Y-39684230D01*
X132779034Y-39530716D01*
X132164549Y-40145202D01*
X132103226Y-40178687D01*
X132033534Y-40173703D01*
X131977601Y-40131831D01*
X131972553Y-40124561D01*
X131937361Y-40069802D01*
X131821998Y-39969841D01*
X131824298Y-39967185D01*
X131789560Y-39927028D01*
X131779674Y-39857861D01*
X131808752Y-39794329D01*
X131814716Y-39787929D01*
X132425656Y-39176989D01*
X132378829Y-39140543D01*
X132160214Y-39022235D01*
X132160203Y-39022230D01*
X131925093Y-38941516D01*
X131679893Y-38900600D01*
X131431307Y-38900600D01*
X131186106Y-38941516D01*
X130950996Y-39022230D01*
X130950990Y-39022232D01*
X130732361Y-39140549D01*
X130685542Y-39176988D01*
X130685542Y-39176990D01*
X131296483Y-39787930D01*
X131329968Y-39849253D01*
X131324984Y-39918944D01*
X131287958Y-39968405D01*
X131289202Y-39969841D01*
X131173838Y-40069802D01*
X131138646Y-40124562D01*
X131085842Y-40170317D01*
X131016683Y-40180260D01*
X130953128Y-40151234D01*
X130946650Y-40145203D01*
X130332164Y-39530716D01*
X130231867Y-39684232D01*
X130132012Y-39911882D01*
X130070987Y-40152861D01*
X130070985Y-40152870D01*
X130050458Y-40400594D01*
X130050458Y-40400605D01*
X120598700Y-40400605D01*
X120598700Y-38348470D01*
X122455100Y-38348470D01*
X122455101Y-38348476D01*
X122461508Y-38408083D01*
X122511802Y-38542928D01*
X122511806Y-38542935D01*
X122598052Y-38658144D01*
X122598055Y-38658147D01*
X122713264Y-38744393D01*
X122713271Y-38744397D01*
X122848117Y-38794691D01*
X122848116Y-38794691D01*
X122855044Y-38795435D01*
X122907727Y-38801100D01*
X126203472Y-38801099D01*
X126263083Y-38794691D01*
X126397931Y-38744396D01*
X126513146Y-38658146D01*
X126599396Y-38542931D01*
X126649691Y-38408083D01*
X126656100Y-38348473D01*
X126656100Y-38348470D01*
X151976250Y-38348470D01*
X151976251Y-38348476D01*
X151982658Y-38408083D01*
X152032952Y-38542928D01*
X152032956Y-38542935D01*
X152119202Y-38658144D01*
X152119205Y-38658147D01*
X152234414Y-38744393D01*
X152234421Y-38744397D01*
X152369267Y-38794691D01*
X152369266Y-38794691D01*
X152376194Y-38795435D01*
X152428877Y-38801100D01*
X155724622Y-38801099D01*
X155784233Y-38794691D01*
X155919081Y-38744396D01*
X156034296Y-38658146D01*
X156120546Y-38542931D01*
X156170841Y-38408083D01*
X156177250Y-38348473D01*
X156177250Y-38348470D01*
X181497400Y-38348470D01*
X181497401Y-38348476D01*
X181503808Y-38408083D01*
X181554102Y-38542928D01*
X181554106Y-38542935D01*
X181640352Y-38658144D01*
X181640355Y-38658147D01*
X181755564Y-38744393D01*
X181755571Y-38744397D01*
X181890417Y-38794691D01*
X181890416Y-38794691D01*
X181897344Y-38795435D01*
X181950027Y-38801100D01*
X185245772Y-38801099D01*
X185305383Y-38794691D01*
X185440231Y-38744396D01*
X185555446Y-38658146D01*
X185641696Y-38542931D01*
X185691991Y-38408083D01*
X185698400Y-38348473D01*
X185698400Y-38348470D01*
X211018550Y-38348470D01*
X211018551Y-38348476D01*
X211024958Y-38408083D01*
X211075252Y-38542928D01*
X211075256Y-38542935D01*
X211161502Y-38658144D01*
X211161505Y-38658147D01*
X211276714Y-38744393D01*
X211276721Y-38744397D01*
X211411567Y-38794691D01*
X211411566Y-38794691D01*
X211418494Y-38795435D01*
X211471177Y-38801100D01*
X214766922Y-38801099D01*
X214826533Y-38794691D01*
X214961381Y-38744396D01*
X215076596Y-38658146D01*
X215162846Y-38542931D01*
X215213141Y-38408083D01*
X215219550Y-38348473D01*
X215219550Y-38348470D01*
X240539700Y-38348470D01*
X240539701Y-38348476D01*
X240546108Y-38408083D01*
X240596402Y-38542928D01*
X240596406Y-38542935D01*
X240682652Y-38658144D01*
X240682655Y-38658147D01*
X240797864Y-38744393D01*
X240797871Y-38744397D01*
X240932717Y-38794691D01*
X240932716Y-38794691D01*
X240939644Y-38795435D01*
X240992327Y-38801100D01*
X244288072Y-38801099D01*
X244347683Y-38794691D01*
X244482531Y-38744396D01*
X244597746Y-38658146D01*
X244683996Y-38542931D01*
X244734291Y-38408083D01*
X244740700Y-38348473D01*
X244740699Y-36252728D01*
X244734291Y-36193117D01*
X244683996Y-36058269D01*
X244683995Y-36058268D01*
X244683993Y-36058264D01*
X244597747Y-35943055D01*
X244597744Y-35943052D01*
X244482535Y-35856806D01*
X244482528Y-35856802D01*
X244347682Y-35806508D01*
X244347683Y-35806508D01*
X244288083Y-35800101D01*
X244288081Y-35800100D01*
X244288073Y-35800100D01*
X244288064Y-35800100D01*
X240992329Y-35800100D01*
X240992323Y-35800101D01*
X240932716Y-35806508D01*
X240797871Y-35856802D01*
X240797864Y-35856806D01*
X240682655Y-35943052D01*
X240682652Y-35943055D01*
X240596406Y-36058264D01*
X240596402Y-36058271D01*
X240546108Y-36193117D01*
X240539701Y-36252716D01*
X240539701Y-36252723D01*
X240539700Y-36252735D01*
X240539700Y-38348470D01*
X215219550Y-38348470D01*
X215219549Y-36252728D01*
X215213141Y-36193117D01*
X215162846Y-36058269D01*
X215162845Y-36058268D01*
X215162843Y-36058264D01*
X215076597Y-35943055D01*
X215076594Y-35943052D01*
X214961385Y-35856806D01*
X214961378Y-35856802D01*
X214826532Y-35806508D01*
X214826533Y-35806508D01*
X214766933Y-35800101D01*
X214766931Y-35800100D01*
X214766923Y-35800100D01*
X214766914Y-35800100D01*
X211471179Y-35800100D01*
X211471173Y-35800101D01*
X211411566Y-35806508D01*
X211276721Y-35856802D01*
X211276714Y-35856806D01*
X211161505Y-35943052D01*
X211161502Y-35943055D01*
X211075256Y-36058264D01*
X211075252Y-36058271D01*
X211024958Y-36193117D01*
X211018551Y-36252716D01*
X211018551Y-36252723D01*
X211018550Y-36252735D01*
X211018550Y-38348470D01*
X185698400Y-38348470D01*
X185698399Y-36252728D01*
X185691991Y-36193117D01*
X185641696Y-36058269D01*
X185641695Y-36058268D01*
X185641693Y-36058264D01*
X185555447Y-35943055D01*
X185555444Y-35943052D01*
X185440235Y-35856806D01*
X185440228Y-35856802D01*
X185305382Y-35806508D01*
X185305383Y-35806508D01*
X185245783Y-35800101D01*
X185245781Y-35800100D01*
X185245773Y-35800100D01*
X185245764Y-35800100D01*
X181950029Y-35800100D01*
X181950023Y-35800101D01*
X181890416Y-35806508D01*
X181755571Y-35856802D01*
X181755564Y-35856806D01*
X181640355Y-35943052D01*
X181640352Y-35943055D01*
X181554106Y-36058264D01*
X181554102Y-36058271D01*
X181503808Y-36193117D01*
X181497401Y-36252716D01*
X181497401Y-36252723D01*
X181497400Y-36252735D01*
X181497400Y-38348470D01*
X156177250Y-38348470D01*
X156177249Y-36252728D01*
X156170841Y-36193117D01*
X156120546Y-36058269D01*
X156120545Y-36058268D01*
X156120543Y-36058264D01*
X156034297Y-35943055D01*
X156034294Y-35943052D01*
X155919085Y-35856806D01*
X155919078Y-35856802D01*
X155784232Y-35806508D01*
X155784233Y-35806508D01*
X155724633Y-35800101D01*
X155724631Y-35800100D01*
X155724623Y-35800100D01*
X155724614Y-35800100D01*
X152428879Y-35800100D01*
X152428873Y-35800101D01*
X152369266Y-35806508D01*
X152234421Y-35856802D01*
X152234414Y-35856806D01*
X152119205Y-35943052D01*
X152119202Y-35943055D01*
X152032956Y-36058264D01*
X152032952Y-36058271D01*
X151982658Y-36193117D01*
X151976251Y-36252716D01*
X151976251Y-36252723D01*
X151976250Y-36252735D01*
X151976250Y-38348470D01*
X126656100Y-38348470D01*
X126656099Y-36252728D01*
X126649691Y-36193117D01*
X126599396Y-36058269D01*
X126599395Y-36058268D01*
X126599393Y-36058264D01*
X126513147Y-35943055D01*
X126513144Y-35943052D01*
X126397935Y-35856806D01*
X126397928Y-35856802D01*
X126263082Y-35806508D01*
X126263083Y-35806508D01*
X126203483Y-35800101D01*
X126203481Y-35800100D01*
X126203473Y-35800100D01*
X126203464Y-35800100D01*
X122907729Y-35800100D01*
X122907723Y-35800101D01*
X122848116Y-35806508D01*
X122713271Y-35856802D01*
X122713264Y-35856806D01*
X122598055Y-35943052D01*
X122598052Y-35943055D01*
X122511806Y-36058264D01*
X122511802Y-36058271D01*
X122461508Y-36193117D01*
X122455101Y-36252716D01*
X122455101Y-36252723D01*
X122455100Y-36252735D01*
X122455100Y-38348470D01*
X120598700Y-38348470D01*
X120598700Y-30877629D01*
X120618385Y-30810590D01*
X120635014Y-30789953D01*
X122287417Y-29137549D01*
X122348738Y-29104066D01*
X122418430Y-29109050D01*
X122474363Y-29150922D01*
X122498624Y-29214424D01*
X122505936Y-29298003D01*
X122505938Y-29298013D01*
X122567094Y-29526255D01*
X122567096Y-29526259D01*
X122567097Y-29526263D01*
X122620701Y-29641217D01*
X122666965Y-29740430D01*
X122666967Y-29740434D01*
X122775281Y-29895121D01*
X122802505Y-29934001D01*
X122969599Y-30101095D01*
X123017815Y-30134856D01*
X123163165Y-30236632D01*
X123163167Y-30236633D01*
X123163170Y-30236635D01*
X123377337Y-30336503D01*
X123377343Y-30336504D01*
X123377344Y-30336505D01*
X123432285Y-30351226D01*
X123605592Y-30397663D01*
X123793918Y-30414139D01*
X123840999Y-30418259D01*
X123841000Y-30418259D01*
X123841001Y-30418259D01*
X123880234Y-30414826D01*
X124076408Y-30397663D01*
X124176873Y-30370743D01*
X124246722Y-30372406D01*
X124296647Y-30402837D01*
X125849797Y-31955988D01*
X125859622Y-31968251D01*
X125859843Y-31968069D01*
X125864814Y-31974078D01*
X125885643Y-31993637D01*
X125915235Y-32021426D01*
X125936129Y-32042320D01*
X125941611Y-32046573D01*
X125946043Y-32050357D01*
X125980018Y-32082262D01*
X125997576Y-32091914D01*
X126013835Y-32102595D01*
X126029664Y-32114873D01*
X126072438Y-32133382D01*
X126077656Y-32135938D01*
X126118508Y-32158397D01*
X126137916Y-32163380D01*
X126156317Y-32169680D01*
X126174704Y-32177637D01*
X126218088Y-32184508D01*
X126220719Y-32184925D01*
X126226439Y-32186109D01*
X126271581Y-32197700D01*
X126291616Y-32197700D01*
X126311014Y-32199226D01*
X126330794Y-32202359D01*
X126330795Y-32202360D01*
X126330795Y-32202359D01*
X126330796Y-32202360D01*
X126377183Y-32197975D01*
X126383022Y-32197700D01*
X167161857Y-32197700D01*
X167177477Y-32199424D01*
X167177504Y-32199139D01*
X167185260Y-32199871D01*
X167185267Y-32199873D01*
X167254414Y-32197700D01*
X167283950Y-32197700D01*
X167290828Y-32196830D01*
X167296641Y-32196372D01*
X167343227Y-32194909D01*
X167362469Y-32189317D01*
X167381512Y-32185374D01*
X167401392Y-32182864D01*
X167444722Y-32165707D01*
X167450246Y-32163817D01*
X167453996Y-32162727D01*
X167494990Y-32150818D01*
X167512229Y-32140622D01*
X167529703Y-32132062D01*
X167548327Y-32124688D01*
X167548327Y-32124687D01*
X167548332Y-32124686D01*
X167586049Y-32097282D01*
X167590905Y-32094092D01*
X167631020Y-32070370D01*
X167645189Y-32056199D01*
X167659979Y-32043568D01*
X167676187Y-32031794D01*
X167705899Y-31995876D01*
X167709812Y-31991576D01*
X169148171Y-30553219D01*
X169209495Y-30519734D01*
X169235853Y-30516900D01*
X169295044Y-30516900D01*
X169295046Y-30516900D01*
X169480203Y-30477544D01*
X169653130Y-30400551D01*
X169765055Y-30319232D01*
X169830858Y-30295754D01*
X169897675Y-30310890D01*
X169903172Y-30313912D01*
X169919435Y-30324595D01*
X169935264Y-30336873D01*
X169978038Y-30355382D01*
X169983256Y-30357938D01*
X170024108Y-30380397D01*
X170043516Y-30385380D01*
X170061917Y-30391680D01*
X170080304Y-30399637D01*
X170123688Y-30406508D01*
X170126319Y-30406925D01*
X170132039Y-30408109D01*
X170177181Y-30419700D01*
X170197216Y-30419700D01*
X170216614Y-30421226D01*
X170236394Y-30424359D01*
X170236395Y-30424360D01*
X170236395Y-30424359D01*
X170236396Y-30424360D01*
X170282783Y-30419975D01*
X170288622Y-30419700D01*
X171294503Y-30419700D01*
X171343746Y-30429897D01*
X171379516Y-30445375D01*
X171384766Y-30447947D01*
X171417471Y-30465926D01*
X171425603Y-30470397D01*
X171445011Y-30475380D01*
X171463412Y-30481680D01*
X171481799Y-30489637D01*
X171525183Y-30496508D01*
X171527814Y-30496925D01*
X171533534Y-30498109D01*
X171578676Y-30509700D01*
X171598711Y-30509700D01*
X171618109Y-30511226D01*
X171637889Y-30514359D01*
X171637890Y-30514360D01*
X171637890Y-30514359D01*
X171637891Y-30514360D01*
X171684278Y-30509975D01*
X171690117Y-30509700D01*
X176201867Y-30509700D01*
X176268906Y-30529385D01*
X176294017Y-30550728D01*
X176355929Y-30619488D01*
X176355935Y-30619493D01*
X176509065Y-30730748D01*
X176509070Y-30730751D01*
X176681992Y-30807742D01*
X176681997Y-30807744D01*
X176867154Y-30847100D01*
X176867155Y-30847100D01*
X177056444Y-30847100D01*
X177056446Y-30847100D01*
X177241603Y-30807744D01*
X177414530Y-30730751D01*
X177567671Y-30619488D01*
X177694333Y-30478816D01*
X177788979Y-30314884D01*
X177847474Y-30134856D01*
X177867260Y-29946600D01*
X177847474Y-29758344D01*
X177788979Y-29578316D01*
X177694333Y-29414384D01*
X177567671Y-29273712D01*
X177546731Y-29258498D01*
X177414534Y-29162451D01*
X177414529Y-29162448D01*
X177241607Y-29085457D01*
X177241602Y-29085455D01*
X177087252Y-29052648D01*
X177056446Y-29046100D01*
X176867154Y-29046100D01*
X176836348Y-29052648D01*
X176681997Y-29085455D01*
X176681992Y-29085457D01*
X176509070Y-29162448D01*
X176509065Y-29162451D01*
X176409186Y-29235018D01*
X176343380Y-29258498D01*
X176336301Y-29258700D01*
X172985568Y-29258700D01*
X172918529Y-29239015D01*
X172872774Y-29186211D01*
X172862247Y-29147662D01*
X172862102Y-29146280D01*
X172843674Y-28970944D01*
X172785179Y-28790916D01*
X172690533Y-28626984D01*
X172616497Y-28544759D01*
X172586268Y-28481769D01*
X172584710Y-28465692D01*
X172583500Y-28427171D01*
X172583500Y-28397650D01*
X172582631Y-28390779D01*
X172582173Y-28384952D01*
X172582150Y-28384223D01*
X172580710Y-28338373D01*
X172575119Y-28319130D01*
X172571173Y-28300078D01*
X172568664Y-28280208D01*
X172551504Y-28236867D01*
X172549624Y-28231379D01*
X172536618Y-28186610D01*
X172526422Y-28169370D01*
X172517861Y-28151894D01*
X172510487Y-28133270D01*
X172510486Y-28133268D01*
X172483079Y-28095545D01*
X172479888Y-28090686D01*
X172456172Y-28050583D01*
X172456165Y-28050574D01*
X172442006Y-28036415D01*
X172429368Y-28021619D01*
X172417594Y-28005413D01*
X172381688Y-27975709D01*
X172377376Y-27971786D01*
X170437803Y-26032212D01*
X170427980Y-26019950D01*
X170427759Y-26020134D01*
X170422786Y-26014123D01*
X170404159Y-25996631D01*
X170372364Y-25966773D01*
X170361919Y-25956328D01*
X170351475Y-25945883D01*
X170345986Y-25941625D01*
X170341561Y-25937847D01*
X170307582Y-25905938D01*
X170307580Y-25905936D01*
X170307577Y-25905935D01*
X170290029Y-25896288D01*
X170273763Y-25885604D01*
X170257936Y-25873327D01*
X170257935Y-25873326D01*
X170257933Y-25873325D01*
X170215168Y-25854818D01*
X170209922Y-25852248D01*
X170169093Y-25829803D01*
X170169092Y-25829802D01*
X170149693Y-25824822D01*
X170131281Y-25818518D01*
X170112898Y-25810562D01*
X170112892Y-25810560D01*
X170066874Y-25803272D01*
X170061152Y-25802087D01*
X170016021Y-25790500D01*
X170016019Y-25790500D01*
X169995984Y-25790500D01*
X169976586Y-25788973D01*
X169969162Y-25787797D01*
X169956805Y-25785840D01*
X169956804Y-25785840D01*
X169910416Y-25790225D01*
X169904578Y-25790500D01*
X165574743Y-25790500D01*
X165559122Y-25788775D01*
X165559095Y-25789061D01*
X165551333Y-25788326D01*
X165482172Y-25790500D01*
X165452649Y-25790500D01*
X165445778Y-25791367D01*
X165439959Y-25791825D01*
X165393374Y-25793289D01*
X165393368Y-25793290D01*
X165374126Y-25798880D01*
X165355087Y-25802823D01*
X165335217Y-25805334D01*
X165335203Y-25805337D01*
X165291883Y-25822488D01*
X165286358Y-25824380D01*
X165241613Y-25837380D01*
X165241610Y-25837381D01*
X165224366Y-25847579D01*
X165206905Y-25856133D01*
X165188274Y-25863510D01*
X165188262Y-25863517D01*
X165150570Y-25890902D01*
X165145687Y-25894109D01*
X165105580Y-25917829D01*
X165091414Y-25931995D01*
X165076624Y-25944627D01*
X165060414Y-25956404D01*
X165060411Y-25956407D01*
X165030710Y-25992309D01*
X165026777Y-25996631D01*
X162622628Y-28400781D01*
X162561305Y-28434266D01*
X162534947Y-28437100D01*
X127656227Y-28437100D01*
X127589188Y-28417415D01*
X127554652Y-28384223D01*
X127419494Y-28191197D01*
X127252402Y-28024106D01*
X127252401Y-28024105D01*
X127066405Y-27893869D01*
X127022781Y-27839292D01*
X127015588Y-27769793D01*
X127047110Y-27707439D01*
X127066405Y-27690719D01*
X127252082Y-27560705D01*
X127419105Y-27393682D01*
X127554600Y-27200178D01*
X127654429Y-26986092D01*
X127654432Y-26986086D01*
X127711636Y-26772600D01*
X126994347Y-26772600D01*
X126927308Y-26752915D01*
X126881553Y-26700111D01*
X126871609Y-26630953D01*
X126875369Y-26613667D01*
X126881000Y-26594488D01*
X126881000Y-26450711D01*
X126875369Y-26431533D01*
X126875370Y-26361664D01*
X126913145Y-26302886D01*
X126976701Y-26273862D01*
X126994347Y-26272600D01*
X127711636Y-26272600D01*
X127711635Y-26272599D01*
X127654432Y-26059113D01*
X127654429Y-26059107D01*
X127554600Y-25845022D01*
X127554599Y-25845020D01*
X127419113Y-25651526D01*
X127419108Y-25651520D01*
X127252078Y-25484490D01*
X127066405Y-25354479D01*
X127022780Y-25299902D01*
X127015588Y-25230404D01*
X127047110Y-25168049D01*
X127066406Y-25151330D01*
X127066842Y-25151025D01*
X127252401Y-25021095D01*
X127419495Y-24854001D01*
X127555035Y-24660430D01*
X127654903Y-24446263D01*
X127716063Y-24218008D01*
X127736659Y-23982600D01*
X127716063Y-23747192D01*
X127654903Y-23518937D01*
X127555035Y-23304771D01*
X127550188Y-23297848D01*
X127419494Y-23111197D01*
X127252402Y-22944106D01*
X127252396Y-22944101D01*
X127066842Y-22814175D01*
X127023217Y-22759598D01*
X127016023Y-22690100D01*
X127047546Y-22627745D01*
X127066842Y-22611025D01*
X127089026Y-22595491D01*
X127252401Y-22481095D01*
X127419495Y-22314001D01*
X127555035Y-22120430D01*
X127654903Y-21906263D01*
X127716063Y-21678008D01*
X127736659Y-21442600D01*
X127716063Y-21207192D01*
X127654903Y-20978937D01*
X127555035Y-20764771D01*
X127549424Y-20756758D01*
X127419496Y-20571200D01*
X127419493Y-20571197D01*
X127297567Y-20449271D01*
X127264084Y-20387951D01*
X127269068Y-20318259D01*
X127310939Y-20262325D01*
X127341915Y-20245410D01*
X127473331Y-20196396D01*
X127588546Y-20110146D01*
X127674796Y-19994931D01*
X127725091Y-19860083D01*
X127731500Y-19800473D01*
X127731499Y-18004728D01*
X127725091Y-17945117D01*
X127723810Y-17941683D01*
X127674797Y-17810271D01*
X127674793Y-17810264D01*
X127588547Y-17695055D01*
X127588544Y-17695052D01*
X127473335Y-17608806D01*
X127473328Y-17608802D01*
X127338482Y-17558508D01*
X127338483Y-17558508D01*
X127278883Y-17552101D01*
X127278881Y-17552100D01*
X127278873Y-17552100D01*
X127278864Y-17552100D01*
X125483129Y-17552100D01*
X125483123Y-17552101D01*
X125423516Y-17558508D01*
X125288671Y-17608802D01*
X125288664Y-17608806D01*
X125173455Y-17695052D01*
X125173452Y-17695055D01*
X125087206Y-17810264D01*
X125087203Y-17810269D01*
X125038189Y-17941683D01*
X124996317Y-17997616D01*
X124930853Y-18022033D01*
X124862580Y-18007181D01*
X124834326Y-17986030D01*
X124712402Y-17864106D01*
X124712395Y-17864101D01*
X124518834Y-17728567D01*
X124518830Y-17728565D01*
X124518828Y-17728564D01*
X124304663Y-17628697D01*
X124304659Y-17628696D01*
X124304655Y-17628694D01*
X124076413Y-17567538D01*
X124076403Y-17567536D01*
X123841001Y-17546941D01*
X123840999Y-17546941D01*
X123605596Y-17567536D01*
X123605586Y-17567538D01*
X123377344Y-17628694D01*
X123377335Y-17628698D01*
X123163171Y-17728564D01*
X123163169Y-17728565D01*
X122969597Y-17864105D01*
X122802505Y-18031197D01*
X122666965Y-18224769D01*
X122666964Y-18224771D01*
X122567098Y-18438935D01*
X122567094Y-18438944D01*
X122505938Y-18667186D01*
X122505936Y-18667196D01*
X122485341Y-18902599D01*
X122485341Y-18902600D01*
X122505936Y-19138003D01*
X122505938Y-19138013D01*
X122567094Y-19366255D01*
X122567096Y-19366259D01*
X122567097Y-19366263D01*
X122614005Y-19466857D01*
X122666965Y-19580430D01*
X122666967Y-19580434D01*
X122802501Y-19773995D01*
X122802506Y-19774002D01*
X122969597Y-19941093D01*
X122969603Y-19941098D01*
X123155158Y-20071025D01*
X123198783Y-20125602D01*
X123205977Y-20195100D01*
X123174454Y-20257455D01*
X123155158Y-20274175D01*
X122969597Y-20404105D01*
X122802505Y-20571197D01*
X122666965Y-20764769D01*
X122666964Y-20764771D01*
X122567098Y-20978935D01*
X122567094Y-20978944D01*
X122505938Y-21207186D01*
X122505936Y-21207196D01*
X122485341Y-21442599D01*
X122485341Y-21442600D01*
X122505936Y-21678003D01*
X122505938Y-21678013D01*
X122567094Y-21906255D01*
X122567096Y-21906259D01*
X122567097Y-21906263D01*
X122571000Y-21914632D01*
X122666965Y-22120430D01*
X122666967Y-22120434D01*
X122775281Y-22275121D01*
X122802501Y-22313996D01*
X122802506Y-22314002D01*
X122969597Y-22481093D01*
X122969603Y-22481098D01*
X123155158Y-22611025D01*
X123198783Y-22665602D01*
X123205977Y-22735100D01*
X123174454Y-22797455D01*
X123155158Y-22814175D01*
X122969597Y-22944105D01*
X122802506Y-23111196D01*
X122702359Y-23254223D01*
X122647782Y-23297848D01*
X122600784Y-23307100D01*
X121505163Y-23307100D01*
X121438124Y-23287415D01*
X121417482Y-23270781D01*
X120864819Y-22718117D01*
X120831334Y-22656794D01*
X120828500Y-22630436D01*
X120828500Y-19773995D01*
X120828499Y-16764960D01*
X120848184Y-16697925D01*
X120864820Y-16677281D01*
X120904486Y-16637617D01*
X120965810Y-16604133D01*
X120992165Y-16601300D01*
X155319900Y-16601300D01*
X155386939Y-16620985D01*
X155432694Y-16673789D01*
X155443900Y-16725300D01*
X155443900Y-18764950D01*
X155427287Y-18826950D01*
X155393821Y-18884914D01*
X155335327Y-19064940D01*
X155335326Y-19064944D01*
X155315540Y-19253200D01*
X155335326Y-19441456D01*
X155335327Y-19441459D01*
X155393818Y-19621477D01*
X155393821Y-19621484D01*
X155488467Y-19785416D01*
X155530897Y-19832539D01*
X155615129Y-19926088D01*
X155768265Y-20037348D01*
X155768270Y-20037351D01*
X155941192Y-20114342D01*
X155941197Y-20114344D01*
X156126354Y-20153700D01*
X156126355Y-20153700D01*
X156315644Y-20153700D01*
X156315646Y-20153700D01*
X156500803Y-20114344D01*
X156673730Y-20037351D01*
X156791911Y-19951488D01*
X156794771Y-19949410D01*
X156860577Y-19925930D01*
X156867069Y-19925729D01*
X167244077Y-19877910D01*
X178687614Y-19950033D01*
X178754529Y-19970140D01*
X178759715Y-19973710D01*
X178786183Y-19992940D01*
X178828850Y-20048267D01*
X178837300Y-20093259D01*
X178837300Y-25591922D01*
X178837187Y-25595666D01*
X178833581Y-25655282D01*
X178833581Y-25655285D01*
X178844345Y-25714028D01*
X178844908Y-25717729D01*
X178852111Y-25777045D01*
X178855437Y-25785814D01*
X178861461Y-25807423D01*
X178863150Y-25816640D01*
X178887663Y-25871107D01*
X178889096Y-25874566D01*
X178910281Y-25930424D01*
X178910281Y-25930425D01*
X178915605Y-25938138D01*
X178926624Y-25957676D01*
X178930471Y-25966223D01*
X178930472Y-25966225D01*
X178967315Y-26013251D01*
X178969530Y-26016261D01*
X179003468Y-26065429D01*
X179048192Y-26105051D01*
X179050884Y-26107585D01*
X180336978Y-27393678D01*
X181304581Y-28361281D01*
X181338066Y-28422604D01*
X181340900Y-28448962D01*
X181340900Y-32130036D01*
X181321215Y-32197075D01*
X181304581Y-32217717D01*
X180778128Y-32744170D01*
X180716805Y-32777655D01*
X180703424Y-32779808D01*
X180702559Y-32779898D01*
X180517397Y-32819255D01*
X180517392Y-32819257D01*
X180344470Y-32896248D01*
X180344465Y-32896251D01*
X180191329Y-33007511D01*
X180064666Y-33148185D01*
X179970021Y-33312115D01*
X179970018Y-33312122D01*
X179911527Y-33492140D01*
X179911526Y-33492144D01*
X179891740Y-33680400D01*
X179911526Y-33868656D01*
X179911527Y-33868659D01*
X179970018Y-34048677D01*
X179970021Y-34048684D01*
X180064667Y-34212616D01*
X180191328Y-34353288D01*
X180191329Y-34353288D01*
X180344465Y-34464548D01*
X180344470Y-34464551D01*
X180517392Y-34541542D01*
X180517397Y-34541544D01*
X180702554Y-34580900D01*
X180702555Y-34580900D01*
X180891844Y-34580900D01*
X180891846Y-34580900D01*
X181077003Y-34541544D01*
X181249930Y-34464551D01*
X181403071Y-34353288D01*
X181529733Y-34212616D01*
X181624379Y-34048684D01*
X181682874Y-33868656D01*
X181692216Y-33779762D01*
X181718799Y-33715149D01*
X181727847Y-33705052D01*
X182478313Y-32954586D01*
X182481005Y-32952052D01*
X182525732Y-32912429D01*
X182559669Y-32863259D01*
X182561872Y-32860266D01*
X182598726Y-32813228D01*
X182602572Y-32804680D01*
X182613597Y-32785135D01*
X182618917Y-32777427D01*
X182618916Y-32777427D01*
X182618918Y-32777426D01*
X182640105Y-32721558D01*
X182641532Y-32718116D01*
X182666047Y-32663646D01*
X182666047Y-32663645D01*
X182666050Y-32663639D01*
X182667738Y-32654421D01*
X182673766Y-32632803D01*
X182677088Y-32624045D01*
X182684289Y-32564740D01*
X182684853Y-32561036D01*
X182688977Y-32538527D01*
X182695619Y-32502285D01*
X182692013Y-32442666D01*
X182691900Y-32438922D01*
X182691900Y-28140077D01*
X182692013Y-28136333D01*
X182695619Y-28076715D01*
X182690830Y-28050583D01*
X182684851Y-28017958D01*
X182684289Y-28014263D01*
X182683214Y-28005413D01*
X182677088Y-27954955D01*
X182673763Y-27946189D01*
X182667738Y-27924576D01*
X182666050Y-27915361D01*
X182641526Y-27860870D01*
X182640103Y-27857434D01*
X182633339Y-27839598D01*
X182618918Y-27801574D01*
X182613598Y-27793866D01*
X182602571Y-27774315D01*
X182600674Y-27770100D01*
X182598726Y-27765772D01*
X182582684Y-27745296D01*
X182561886Y-27718749D01*
X182559665Y-27715732D01*
X182525733Y-27666572D01*
X182481024Y-27626963D01*
X182478312Y-27624411D01*
X180224619Y-25370717D01*
X180191134Y-25309394D01*
X180188300Y-25283036D01*
X180188300Y-19586131D01*
X180194368Y-19547815D01*
X180220674Y-19466856D01*
X180240460Y-19278600D01*
X180220674Y-19090344D01*
X180162179Y-18910316D01*
X180067533Y-18746384D01*
X179940871Y-18605712D01*
X179940870Y-18605711D01*
X179787734Y-18494451D01*
X179787729Y-18494448D01*
X179614807Y-18417457D01*
X179614802Y-18417455D01*
X179469000Y-18386465D01*
X179429646Y-18378100D01*
X179240354Y-18378100D01*
X179207897Y-18384998D01*
X179055197Y-18417455D01*
X179055192Y-18417457D01*
X178882270Y-18494448D01*
X178770865Y-18575387D01*
X178705058Y-18598866D01*
X178697199Y-18599066D01*
X167289465Y-18527167D01*
X167282764Y-18526762D01*
X167282427Y-18526723D01*
X167282353Y-18526719D01*
X167282344Y-18526719D01*
X167245174Y-18526890D01*
X167208001Y-18526656D01*
X167208000Y-18526656D01*
X167207990Y-18526656D01*
X167207952Y-18526658D01*
X167207650Y-18526693D01*
X167200899Y-18527093D01*
X156919471Y-18574473D01*
X156852342Y-18555097D01*
X156806344Y-18502505D01*
X156794900Y-18450474D01*
X156794900Y-16151277D01*
X156795013Y-16147533D01*
X156798619Y-16087915D01*
X156787853Y-16029168D01*
X156787289Y-16025463D01*
X156782080Y-15982565D01*
X156780088Y-15966155D01*
X156776763Y-15957389D01*
X156770738Y-15935776D01*
X156769050Y-15926561D01*
X156744526Y-15872070D01*
X156743103Y-15868634D01*
X156721918Y-15812774D01*
X156716598Y-15805066D01*
X156705571Y-15785515D01*
X156701727Y-15776974D01*
X156701726Y-15776973D01*
X156701726Y-15776972D01*
X156664865Y-15729923D01*
X156662658Y-15726922D01*
X156628732Y-15677771D01*
X156584031Y-15638170D01*
X156581319Y-15635618D01*
X156409592Y-15463890D01*
X156407041Y-15461180D01*
X156367429Y-15416468D01*
X156318269Y-15382535D01*
X156315251Y-15380315D01*
X156315242Y-15380308D01*
X156268228Y-15343474D01*
X156268224Y-15343472D01*
X156268223Y-15343471D01*
X156259676Y-15339624D01*
X156240138Y-15328605D01*
X156232426Y-15323282D01*
X156232424Y-15323281D01*
X156176566Y-15302096D01*
X156173107Y-15300663D01*
X156118640Y-15276150D01*
X156118641Y-15276150D01*
X156111287Y-15274802D01*
X156109422Y-15274460D01*
X156087814Y-15268437D01*
X156079045Y-15265111D01*
X156019729Y-15257908D01*
X156016028Y-15257345D01*
X155957289Y-15246581D01*
X155957282Y-15246581D01*
X155897666Y-15250187D01*
X155893922Y-15250300D01*
X120683272Y-15250300D01*
X120679527Y-15250187D01*
X120619917Y-15246581D01*
X120619909Y-15246581D01*
X120561171Y-15257345D01*
X120557470Y-15257908D01*
X120498153Y-15265112D01*
X120489375Y-15268440D01*
X120467783Y-15274459D01*
X120458562Y-15276149D01*
X120404093Y-15300663D01*
X120400635Y-15302095D01*
X120344774Y-15323281D01*
X120337055Y-15328609D01*
X120317521Y-15339626D01*
X120308976Y-15343472D01*
X120308965Y-15343478D01*
X120261956Y-15380308D01*
X120258941Y-15382527D01*
X120209772Y-15416467D01*
X120209769Y-15416470D01*
X120170171Y-15461165D01*
X120167604Y-15463892D01*
X119691099Y-15940398D01*
X119688372Y-15942965D01*
X119643673Y-15982565D01*
X119643667Y-15982572D01*
X119609736Y-16031728D01*
X119607517Y-16034743D01*
X119570674Y-16081770D01*
X119566824Y-16090325D01*
X119555808Y-16109856D01*
X119550484Y-16117570D01*
X119550482Y-16117574D01*
X119529301Y-16173419D01*
X119527869Y-16176876D01*
X119503352Y-16231354D01*
X119503350Y-16231359D01*
X119501662Y-16240574D01*
X119495635Y-16262192D01*
X119492311Y-16270954D01*
X119485108Y-16330270D01*
X119484545Y-16333971D01*
X119473781Y-16392709D01*
X119473781Y-16392715D01*
X119477387Y-16452333D01*
X119477500Y-16456077D01*
X119477500Y-22939322D01*
X119477387Y-22943066D01*
X119473781Y-23002682D01*
X119473781Y-23002685D01*
X119484545Y-23061428D01*
X119485108Y-23065129D01*
X119492311Y-23124445D01*
X119495637Y-23133214D01*
X119501661Y-23154823D01*
X119503350Y-23164040D01*
X119527863Y-23218507D01*
X119529296Y-23221966D01*
X119550481Y-23277824D01*
X119550481Y-23277825D01*
X119555805Y-23285538D01*
X119566824Y-23305076D01*
X119570671Y-23313623D01*
X119570672Y-23313625D01*
X119607515Y-23360651D01*
X119609730Y-23363661D01*
X119643668Y-23412829D01*
X119688392Y-23452451D01*
X119691084Y-23454985D01*
X120680611Y-24444512D01*
X120683163Y-24447224D01*
X120722772Y-24491933D01*
X120771932Y-24525865D01*
X120774949Y-24528086D01*
X120813827Y-24558544D01*
X120821972Y-24564926D01*
X120830515Y-24568771D01*
X120850067Y-24579798D01*
X120857774Y-24585118D01*
X120913639Y-24606305D01*
X120917070Y-24607726D01*
X120971561Y-24632250D01*
X120980776Y-24633938D01*
X121002389Y-24639963D01*
X121011155Y-24643288D01*
X121070471Y-24650490D01*
X121074158Y-24651051D01*
X121132915Y-24661819D01*
X121132916Y-24661818D01*
X121132917Y-24661819D01*
X121192534Y-24658213D01*
X121196278Y-24658100D01*
X122600783Y-24658100D01*
X122667822Y-24677785D01*
X122702358Y-24710976D01*
X122802505Y-24854001D01*
X122969597Y-25021093D01*
X122969603Y-25021098D01*
X123155158Y-25151025D01*
X123198783Y-25205602D01*
X123205977Y-25275100D01*
X123174454Y-25337455D01*
X123155158Y-25354175D01*
X122969597Y-25484105D01*
X122802505Y-25651197D01*
X122666965Y-25844769D01*
X122666964Y-25844771D01*
X122567098Y-26058935D01*
X122567094Y-26058944D01*
X122505938Y-26287186D01*
X122505936Y-26287196D01*
X122485341Y-26522599D01*
X122485341Y-26522601D01*
X122503977Y-26735613D01*
X122490210Y-26804113D01*
X122468130Y-26834101D01*
X119362558Y-29939672D01*
X119348929Y-29951451D01*
X119329668Y-29965790D01*
X119296098Y-30005797D01*
X119292453Y-30009776D01*
X119286609Y-30015622D01*
X119266259Y-30041359D01*
X119216895Y-30100189D01*
X119212929Y-30106219D01*
X119212882Y-30106188D01*
X119208830Y-30112547D01*
X119208879Y-30112577D01*
X119205089Y-30118721D01*
X119172624Y-30188341D01*
X119138160Y-30256966D01*
X119135688Y-30263757D01*
X119135632Y-30263736D01*
X119133160Y-30270850D01*
X119133215Y-30270869D01*
X119130942Y-30277727D01*
X119124095Y-30310890D01*
X119115407Y-30352965D01*
X119102619Y-30406925D01*
X119097698Y-30427686D01*
X119096861Y-30434854D01*
X119096801Y-30434847D01*
X119096035Y-30442345D01*
X119096095Y-30442351D01*
X119095465Y-30449540D01*
X119097700Y-30526316D01*
X119097700Y-49497969D01*
X119078015Y-49565008D01*
X119061381Y-49585650D01*
X116009758Y-52637272D01*
X115996129Y-52649051D01*
X115976868Y-52663390D01*
X115943298Y-52703397D01*
X115939653Y-52707376D01*
X115933809Y-52713222D01*
X115913459Y-52738959D01*
X115864095Y-52797789D01*
X115860129Y-52803819D01*
X115860082Y-52803788D01*
X115856030Y-52810147D01*
X115856079Y-52810177D01*
X115852289Y-52816321D01*
X115819824Y-52885941D01*
X115785360Y-52954566D01*
X115782888Y-52961357D01*
X115782832Y-52961336D01*
X115780360Y-52968450D01*
X115780415Y-52968469D01*
X115778142Y-52975327D01*
X115770375Y-53012945D01*
X115762607Y-53050565D01*
X115749401Y-53106284D01*
X115744898Y-53125286D01*
X115744061Y-53132454D01*
X115744001Y-53132447D01*
X115743235Y-53139945D01*
X115743295Y-53139951D01*
X115742665Y-53147140D01*
X115744900Y-53223916D01*
X115744900Y-60961758D01*
X115744795Y-60965363D01*
X115741069Y-61029334D01*
X115741069Y-61029335D01*
X114079194Y-61029335D01*
X114063066Y-45400605D01*
X115549957Y-45400605D01*
X115570490Y-45648412D01*
X115570492Y-45648424D01*
X115631536Y-45889481D01*
X115731426Y-46117206D01*
X115867433Y-46325382D01*
X115867436Y-46325385D01*
X116035856Y-46508338D01*
X116232091Y-46661074D01*
X116232093Y-46661075D01*
X116449932Y-46778964D01*
X116450790Y-46779428D01*
X116669741Y-46854594D01*
X116684564Y-46859683D01*
X116685986Y-46860171D01*
X116931265Y-46901100D01*
X117179935Y-46901100D01*
X117425214Y-46860171D01*
X117660410Y-46779428D01*
X117879109Y-46661074D01*
X118075344Y-46508338D01*
X118243764Y-46325385D01*
X118379773Y-46117207D01*
X118479663Y-45889481D01*
X118540708Y-45648421D01*
X118540716Y-45648329D01*
X118561243Y-45400605D01*
X118561243Y-45400594D01*
X118540709Y-45152787D01*
X118540707Y-45152775D01*
X118479663Y-44911718D01*
X118379773Y-44683993D01*
X118243766Y-44475817D01*
X118223460Y-44453759D01*
X118075344Y-44292862D01*
X117974223Y-44214156D01*
X117933410Y-44157446D01*
X117929297Y-44127849D01*
X117314716Y-43513269D01*
X117281231Y-43451946D01*
X117286215Y-43382255D01*
X117323240Y-43332793D01*
X117321998Y-43331359D01*
X117328700Y-43325552D01*
X117437361Y-43231398D01*
X117472554Y-43176637D01*
X117525355Y-43130883D01*
X117594514Y-43120939D01*
X117658070Y-43149963D01*
X117664549Y-43155996D01*
X118279034Y-43770482D01*
X118379331Y-43616969D01*
X118479187Y-43389317D01*
X118540212Y-43148338D01*
X118540214Y-43148329D01*
X118560741Y-42900605D01*
X118560741Y-42900594D01*
X118540214Y-42652870D01*
X118540212Y-42652861D01*
X118479187Y-42411882D01*
X118379332Y-42184232D01*
X118267115Y-42012470D01*
X118246928Y-41945581D01*
X118266108Y-41878395D01*
X118296613Y-41845382D01*
X118297929Y-41844396D01*
X118297931Y-41844396D01*
X118413146Y-41758146D01*
X118499396Y-41642931D01*
X118549691Y-41508083D01*
X118556100Y-41448473D01*
X118556099Y-39352728D01*
X118549691Y-39293117D01*
X118506378Y-39176990D01*
X118499397Y-39158271D01*
X118499393Y-39158264D01*
X118413147Y-39043055D01*
X118413144Y-39043052D01*
X118297935Y-38956806D01*
X118297928Y-38956802D01*
X118163082Y-38906508D01*
X118163083Y-38906508D01*
X118103483Y-38900101D01*
X118103481Y-38900100D01*
X118103473Y-38900100D01*
X118103464Y-38900100D01*
X116007729Y-38900100D01*
X116007723Y-38900101D01*
X115948116Y-38906508D01*
X115813271Y-38956802D01*
X115813264Y-38956806D01*
X115698055Y-39043052D01*
X115698052Y-39043055D01*
X115611806Y-39158264D01*
X115611802Y-39158271D01*
X115561508Y-39293117D01*
X115555101Y-39352716D01*
X115555101Y-39352723D01*
X115555100Y-39352735D01*
X115555100Y-41448470D01*
X115555101Y-41448476D01*
X115561508Y-41508083D01*
X115611802Y-41642928D01*
X115611806Y-41642935D01*
X115698052Y-41758144D01*
X115698055Y-41758147D01*
X115814586Y-41845383D01*
X115856457Y-41901317D01*
X115861441Y-41971008D01*
X115844084Y-42012470D01*
X115731867Y-42184231D01*
X115632012Y-42411882D01*
X115570987Y-42652861D01*
X115570985Y-42652870D01*
X115550458Y-42900594D01*
X115550458Y-42900605D01*
X115570985Y-43148329D01*
X115570987Y-43148338D01*
X115632012Y-43389317D01*
X115731866Y-43616964D01*
X115832164Y-43770482D01*
X116446650Y-43155995D01*
X116507973Y-43122510D01*
X116577664Y-43127494D01*
X116633598Y-43169365D01*
X116638639Y-43176625D01*
X116638648Y-43176639D01*
X116673839Y-43231398D01*
X116789202Y-43331359D01*
X116786893Y-43334022D01*
X116821606Y-43374099D01*
X116831535Y-43443260D01*
X116802498Y-43506810D01*
X116796482Y-43513269D01*
X116179700Y-44130050D01*
X116169082Y-44176748D01*
X116136976Y-44214156D01*
X116035855Y-44292862D01*
X115867433Y-44475817D01*
X115731426Y-44683993D01*
X115631536Y-44911718D01*
X115570492Y-45152775D01*
X115570490Y-45152787D01*
X115549957Y-45400594D01*
X115549957Y-45400605D01*
X114063066Y-45400605D01*
X114032100Y-15394504D01*
X114032100Y-15059700D01*
X114051785Y-14992661D01*
X114104589Y-14946906D01*
X114156100Y-14935700D01*
X253099100Y-14935700D01*
X253166139Y-14955385D01*
G37*
%TD.AperFunction*%
%TD*%
M02*
