G04 #@! TF.GenerationSoftware,KiCad,Pcbnew,7.0.7*
G04 #@! TF.CreationDate,2024-03-19T10:03:33+01:00*
G04 #@! TF.ProjectId,Poly_UA_controller_6enc_4sw,506f6c79-5f55-4415-9f63-6f6e74726f6c,rev?*
G04 #@! TF.SameCoordinates,Original*
G04 #@! TF.FileFunction,Soldermask,Top*
G04 #@! TF.FilePolarity,Negative*
%FSLAX46Y46*%
G04 Gerber Fmt 4.6, Leading zero omitted, Abs format (unit mm)*
G04 Created by KiCad (PCBNEW 7.0.7) date 2024-03-19 10:03:33*
%MOMM*%
%LPD*%
G01*
G04 APERTURE LIST*
G04 Aperture macros list*
%AMRoundRect*
0 Rectangle with rounded corners*
0 $1 Rounding radius*
0 $2 $3 $4 $5 $6 $7 $8 $9 X,Y pos of 4 corners*
0 Add a 4 corners polygon primitive as box body*
4,1,4,$2,$3,$4,$5,$6,$7,$8,$9,$2,$3,0*
0 Add four circle primitives for the rounded corners*
1,1,$1+$1,$2,$3*
1,1,$1+$1,$4,$5*
1,1,$1+$1,$6,$7*
1,1,$1+$1,$8,$9*
0 Add four rect primitives between the rounded corners*
20,1,$1+$1,$2,$3,$4,$5,0*
20,1,$1+$1,$4,$5,$6,$7,0*
20,1,$1+$1,$6,$7,$8,$9,0*
20,1,$1+$1,$8,$9,$2,$3,0*%
G04 Aperture macros list end*
%ADD10R,2.000000X2.000000*%
%ADD11C,2.000000*%
%ADD12R,3.200000X2.000000*%
%ADD13R,1.700000X1.700000*%
%ADD14O,1.700000X1.700000*%
%ADD15R,1.500000X1.000000*%
%ADD16RoundRect,0.250000X-0.412500X-0.650000X0.412500X-0.650000X0.412500X0.650000X-0.412500X0.650000X0*%
G04 APERTURE END LIST*
D10*
X166663800Y-89752800D03*
D11*
X166663800Y-94752800D03*
X166663800Y-92252800D03*
D12*
X174163800Y-97852800D03*
X174163800Y-86652800D03*
D11*
X181163800Y-94752800D03*
X181163800Y-89752800D03*
D10*
X107608800Y-89752800D03*
D11*
X107608800Y-94752800D03*
X107608800Y-92252800D03*
D12*
X115108800Y-97852800D03*
X115108800Y-86652800D03*
D11*
X122108800Y-94752800D03*
X122108800Y-89752800D03*
D10*
X181268800Y-64276600D03*
D11*
X181268800Y-69276600D03*
X181268800Y-66776600D03*
D12*
X188768800Y-72376600D03*
X188768800Y-61176600D03*
D11*
X195768800Y-69276600D03*
X195768800Y-64276600D03*
X166254000Y-64276600D03*
X166254000Y-69276600D03*
D12*
X159254000Y-61176600D03*
X159254000Y-72376600D03*
D11*
X151754000Y-66776600D03*
X151754000Y-69276600D03*
D10*
X151754000Y-64276600D03*
X122340800Y-64276600D03*
D11*
X122340800Y-69276600D03*
X122340800Y-66776600D03*
D12*
X129840800Y-72376600D03*
X129840800Y-61176600D03*
D11*
X136840800Y-69276600D03*
X136840800Y-64276600D03*
D10*
X92800600Y-64276600D03*
D11*
X92800600Y-69276600D03*
X92800600Y-66776600D03*
D12*
X100300600Y-72376600D03*
X100300600Y-61176600D03*
D11*
X107300600Y-69276600D03*
X107300600Y-64276600D03*
D13*
X102158800Y-48717200D03*
D14*
X102158800Y-51257200D03*
X104698800Y-48717200D03*
X104698800Y-51257200D03*
X107238800Y-48717200D03*
X107238800Y-51257200D03*
X109778800Y-48717200D03*
X109778800Y-51257200D03*
X112318800Y-48717200D03*
X112318800Y-51257200D03*
D15*
X176363800Y-107086400D03*
X176363800Y-103886400D03*
X171463800Y-103886400D03*
X171463800Y-107086400D03*
X117308800Y-107035400D03*
X117308800Y-103835400D03*
X112408800Y-103835400D03*
X112408800Y-107035400D03*
X190968800Y-81483000D03*
X190968800Y-78283000D03*
X186068800Y-78283000D03*
X186068800Y-81483000D03*
X161454000Y-81483000D03*
X161454000Y-78283000D03*
X156554000Y-78283000D03*
X156554000Y-81483000D03*
X132040800Y-81483000D03*
X132040800Y-78283000D03*
X127140800Y-78283000D03*
X127140800Y-81483000D03*
X102500600Y-81483000D03*
X102500600Y-78283000D03*
X97600600Y-78283000D03*
X97600600Y-81483000D03*
D16*
X166089800Y-103733600D03*
X169214800Y-103733600D03*
X106984000Y-103784400D03*
X110109000Y-103784400D03*
X180745600Y-78232000D03*
X183870600Y-78232000D03*
X151434000Y-78206600D03*
X154559000Y-78206600D03*
X121817600Y-78232000D03*
X124942600Y-78232000D03*
X92201200Y-78155800D03*
X95326200Y-78155800D03*
M02*
