M48
; DRILL file {KiCad 7.0.7} date Tue Mar 19 10:03:43 2024
; FORMAT={-:-/ absolute / metric / decimal}
; #@! TF.CreationDate,2024-03-19T10:03:43+01:00
; #@! TF.GenerationSoftware,Kicad,Pcbnew,7.0.7
; #@! TF.FileFunction,Plated,1,2,PTH
FMAT,2
METRIC
; #@! TA.AperFunction,Plated,PTH,ViaDrill
T1C0.400
; #@! TA.AperFunction,Plated,PTH,ComponentDrill
T2C1.000
; #@! TA.AperFunction,Plated,PTH,ComponentDrill
T3C1.500
%
G90
G05
T1
X90.881Y-37.998
X97.358Y-70.891
X100.889Y-90.907
X104.851Y-78.257
X105.283Y-80.797
X110.007Y-44.653
X111.531Y-73.635
X114.605Y-79.781
X116.357Y-60.02
X117.196Y-50.394
X121.691Y-43.459
X121.844Y-57.683
X128.219Y-43.536
X134.696Y-43.536
X139.141Y-50.089
X141.376Y-79.451
X142.291Y-45.568
X142.748Y-97.231
X145.872Y-103.708
X146.583Y-107.467
X148.412Y-49.53
X152.629Y-47.854
X153.721Y-46.076
X162.916Y-85.471
X166.827Y-80.086
X170.434Y-44.501
X173.939Y-71.145
X177.317Y-59.538
X178.029Y-89.687
X178.816Y-66.726
X180.035Y-104.343
X193.954Y-96.749
T2
X92.801Y-64.277
X92.801Y-66.777
X92.801Y-69.277
X102.159Y-48.717
X102.159Y-51.257
X104.699Y-48.717
X104.699Y-51.257
X107.239Y-48.717
X107.239Y-51.257
X107.301Y-64.277
X107.301Y-69.277
X107.609Y-89.753
X107.609Y-92.253
X107.609Y-94.753
X109.779Y-48.717
X109.779Y-51.257
X112.319Y-48.717
X112.319Y-51.257
X122.109Y-89.753
X122.109Y-94.753
X122.341Y-64.277
X122.341Y-66.777
X122.341Y-69.277
X136.841Y-64.277
X136.841Y-69.277
X151.754Y-64.277
X151.754Y-66.777
X151.754Y-69.277
X166.254Y-64.277
X166.254Y-69.277
X166.664Y-89.753
X166.664Y-92.253
X166.664Y-94.753
X181.164Y-89.753
X181.164Y-94.753
X181.269Y-64.277
X181.269Y-66.777
X181.269Y-69.277
X195.769Y-64.277
X195.769Y-69.277
T3
X99.651Y-61.177G85X100.951Y-61.177
G05
X99.651Y-72.377G85X100.951Y-72.377
G05
X114.459Y-86.653G85X115.759Y-86.653
G05
X114.459Y-97.853G85X115.759Y-97.853
G05
X129.191Y-61.177G85X130.491Y-61.177
G05
X129.191Y-72.377G85X130.491Y-72.377
G05
X158.604Y-61.177G85X159.904Y-61.177
G05
X158.604Y-72.377G85X159.904Y-72.377
G05
X173.514Y-86.653G85X174.814Y-86.653
G05
X173.514Y-97.853G85X174.814Y-97.853
G05
X188.119Y-61.177G85X189.419Y-61.177
G05
X188.119Y-72.377G85X189.419Y-72.377
G05
T0
M30
