M48
; DRILL file {KiCad 7.0.7} date Tue Mar 19 10:02:11 2024
; FORMAT={-:-/ absolute / metric / decimal}
; #@! TF.CreationDate,2024-03-19T10:02:11+01:00
; #@! TF.GenerationSoftware,Kicad,Pcbnew,7.0.7
; #@! TF.FileFunction,Plated,1,2,PTH
FMAT,2
METRIC
; #@! TA.AperFunction,Plated,PTH,ViaDrill
T1C0.400
; #@! TA.AperFunction,Plated,PTH,ComponentDrill
T2C1.000
; #@! TA.AperFunction,Plated,PTH,ComponentDrill
T3C1.500
%
G90
G05
T1
X117.156Y-17.805
X118.299Y-27.127
X119.416Y-57.988
X134.707Y-35.077
X139.178Y-17.374
X140.041Y-47.447
X140.321Y-34.087
X143.673Y-26.416
X147.89Y-26.67
X148.398Y-18.567
X153.757Y-27.356
X156.221Y-19.253
X168.896Y-17.272
X169.2Y-29.616
X171.958Y-29.159
X176.962Y-29.947
X179.335Y-19.279
X180.797Y-33.68
X194.981Y-49.936
X200.544Y-43.586
X203.084Y-36.754
X217.46Y-17.475
X230.745Y-26.162
T2
X117.056Y-40.401
X117.056Y-42.901
X117.056Y-45.401
X123.841Y-18.903
X123.841Y-21.443
X123.841Y-23.983
X123.841Y-26.523
X123.841Y-29.063
X126.381Y-18.903
X126.381Y-21.443
X126.381Y-23.983
X126.381Y-26.523
X126.381Y-29.063
X131.556Y-40.401
X131.556Y-45.401
X146.577Y-40.401
X146.577Y-42.901
X146.577Y-45.401
X161.077Y-40.401
X161.077Y-45.401
X176.098Y-40.401
X176.098Y-42.901
X176.098Y-45.401
X190.598Y-40.401
X190.598Y-45.401
X205.619Y-40.401
X205.619Y-42.901
X205.619Y-45.401
X220.119Y-40.401
X220.119Y-45.401
X235.14Y-40.401
X235.14Y-42.901
X235.14Y-45.401
X249.64Y-40.401
X249.64Y-45.401
T3
X123.906Y-37.301G85X125.206Y-37.301
G05
X123.906Y-48.501G85X125.206Y-48.501
G05
X153.427Y-37.301G85X154.727Y-37.301
G05
X153.427Y-48.501G85X154.727Y-48.501
G05
X182.948Y-37.301G85X184.248Y-37.301
G05
X182.948Y-48.501G85X184.248Y-48.501
G05
X212.469Y-37.301G85X213.769Y-37.301
G05
X212.469Y-48.501G85X213.769Y-48.501
G05
X241.99Y-37.301G85X243.29Y-37.301
G05
X241.99Y-48.501G85X243.29Y-48.501
G05
T0
M30
