%TF.GenerationSoftware,KiCad,Pcbnew,7.0.7*%
%TF.CreationDate,2024-03-19T10:01:58+01:00*%
%TF.ProjectId,Poly_UA_controller_5enc_5sw,506f6c79-5f55-4415-9f63-6f6e74726f6c,rev?*%
%TF.SameCoordinates,Original*%
%TF.FileFunction,Legend,Top*%
%TF.FilePolarity,Positive*%
%FSLAX46Y46*%
G04 Gerber Fmt 4.6, Leading zero omitted, Abs format (unit mm)*
G04 Created by KiCad (PCBNEW 7.0.7) date 2024-03-19 10:01:58*
%MOMM*%
%LPD*%
G01*
G04 APERTURE LIST*
G04 Aperture macros list*
%AMRoundRect*
0 Rectangle with rounded corners*
0 $1 Rounding radius*
0 $2 $3 $4 $5 $6 $7 $8 $9 X,Y pos of 4 corners*
0 Add a 4 corners polygon primitive as box body*
4,1,4,$2,$3,$4,$5,$6,$7,$8,$9,$2,$3,0*
0 Add four circle primitives for the rounded corners*
1,1,$1+$1,$2,$3*
1,1,$1+$1,$4,$5*
1,1,$1+$1,$6,$7*
1,1,$1+$1,$8,$9*
0 Add four rect primitives between the rounded corners*
20,1,$1+$1,$2,$3,$4,$5,0*
20,1,$1+$1,$4,$5,$6,$7,0*
20,1,$1+$1,$6,$7,$8,$9,0*
20,1,$1+$1,$8,$9,$2,$3,0*%
G04 Aperture macros list end*
%ADD10C,0.150000*%
%ADD11C,0.120000*%
%ADD12R,1.700000X1.700000*%
%ADD13O,1.700000X1.700000*%
%ADD14R,1.500000X1.000000*%
%ADD15R,2.000000X2.000000*%
%ADD16C,2.000000*%
%ADD17R,3.200000X2.000000*%
%ADD18RoundRect,0.250000X0.412500X0.650000X-0.412500X0.650000X-0.412500X-0.650000X0.412500X-0.650000X0*%
G04 APERTURE END LIST*
D10*
X212005955Y-60241419D02*
X212005955Y-59241419D01*
X212005955Y-59241419D02*
X212244050Y-59241419D01*
X212244050Y-59241419D02*
X212386907Y-59289038D01*
X212386907Y-59289038D02*
X212482145Y-59384276D01*
X212482145Y-59384276D02*
X212529764Y-59479514D01*
X212529764Y-59479514D02*
X212577383Y-59669990D01*
X212577383Y-59669990D02*
X212577383Y-59812847D01*
X212577383Y-59812847D02*
X212529764Y-60003323D01*
X212529764Y-60003323D02*
X212482145Y-60098561D01*
X212482145Y-60098561D02*
X212386907Y-60193800D01*
X212386907Y-60193800D02*
X212244050Y-60241419D01*
X212244050Y-60241419D02*
X212005955Y-60241419D01*
X213482145Y-59241419D02*
X213005955Y-59241419D01*
X213005955Y-59241419D02*
X212958336Y-59717609D01*
X212958336Y-59717609D02*
X213005955Y-59669990D01*
X213005955Y-59669990D02*
X213101193Y-59622371D01*
X213101193Y-59622371D02*
X213339288Y-59622371D01*
X213339288Y-59622371D02*
X213434526Y-59669990D01*
X213434526Y-59669990D02*
X213482145Y-59717609D01*
X213482145Y-59717609D02*
X213529764Y-59812847D01*
X213529764Y-59812847D02*
X213529764Y-60050942D01*
X213529764Y-60050942D02*
X213482145Y-60146180D01*
X213482145Y-60146180D02*
X213434526Y-60193800D01*
X213434526Y-60193800D02*
X213339288Y-60241419D01*
X213339288Y-60241419D02*
X213101193Y-60241419D01*
X213101193Y-60241419D02*
X213005955Y-60193800D01*
X213005955Y-60193800D02*
X212958336Y-60146180D01*
X177564567Y-36107800D02*
X177707424Y-36155419D01*
X177707424Y-36155419D02*
X177945519Y-36155419D01*
X177945519Y-36155419D02*
X178040757Y-36107800D01*
X178040757Y-36107800D02*
X178088376Y-36060180D01*
X178088376Y-36060180D02*
X178135995Y-35964942D01*
X178135995Y-35964942D02*
X178135995Y-35869704D01*
X178135995Y-35869704D02*
X178088376Y-35774466D01*
X178088376Y-35774466D02*
X178040757Y-35726847D01*
X178040757Y-35726847D02*
X177945519Y-35679228D01*
X177945519Y-35679228D02*
X177755043Y-35631609D01*
X177755043Y-35631609D02*
X177659805Y-35583990D01*
X177659805Y-35583990D02*
X177612186Y-35536371D01*
X177612186Y-35536371D02*
X177564567Y-35441133D01*
X177564567Y-35441133D02*
X177564567Y-35345895D01*
X177564567Y-35345895D02*
X177612186Y-35250657D01*
X177612186Y-35250657D02*
X177659805Y-35203038D01*
X177659805Y-35203038D02*
X177755043Y-35155419D01*
X177755043Y-35155419D02*
X177993138Y-35155419D01*
X177993138Y-35155419D02*
X178135995Y-35203038D01*
X178469329Y-35155419D02*
X178707424Y-36155419D01*
X178707424Y-36155419D02*
X178897900Y-35441133D01*
X178897900Y-35441133D02*
X179088376Y-36155419D01*
X179088376Y-36155419D02*
X179326472Y-35155419D01*
X179612186Y-35155419D02*
X180231233Y-35155419D01*
X180231233Y-35155419D02*
X179897900Y-35536371D01*
X179897900Y-35536371D02*
X180040757Y-35536371D01*
X180040757Y-35536371D02*
X180135995Y-35583990D01*
X180135995Y-35583990D02*
X180183614Y-35631609D01*
X180183614Y-35631609D02*
X180231233Y-35726847D01*
X180231233Y-35726847D02*
X180231233Y-35964942D01*
X180231233Y-35964942D02*
X180183614Y-36060180D01*
X180183614Y-36060180D02*
X180135995Y-36107800D01*
X180135995Y-36107800D02*
X180040757Y-36155419D01*
X180040757Y-36155419D02*
X179755043Y-36155419D01*
X179755043Y-36155419D02*
X179659805Y-36107800D01*
X179659805Y-36107800D02*
X179612186Y-36060180D01*
X241540905Y-60291819D02*
X241540905Y-59291819D01*
X241540905Y-59291819D02*
X241779000Y-59291819D01*
X241779000Y-59291819D02*
X241921857Y-59339438D01*
X241921857Y-59339438D02*
X242017095Y-59434676D01*
X242017095Y-59434676D02*
X242064714Y-59529914D01*
X242064714Y-59529914D02*
X242112333Y-59720390D01*
X242112333Y-59720390D02*
X242112333Y-59863247D01*
X242112333Y-59863247D02*
X242064714Y-60053723D01*
X242064714Y-60053723D02*
X242017095Y-60148961D01*
X242017095Y-60148961D02*
X241921857Y-60244200D01*
X241921857Y-60244200D02*
X241779000Y-60291819D01*
X241779000Y-60291819D02*
X241540905Y-60291819D01*
X242969476Y-59291819D02*
X242779000Y-59291819D01*
X242779000Y-59291819D02*
X242683762Y-59339438D01*
X242683762Y-59339438D02*
X242636143Y-59387057D01*
X242636143Y-59387057D02*
X242540905Y-59529914D01*
X242540905Y-59529914D02*
X242493286Y-59720390D01*
X242493286Y-59720390D02*
X242493286Y-60101342D01*
X242493286Y-60101342D02*
X242540905Y-60196580D01*
X242540905Y-60196580D02*
X242588524Y-60244200D01*
X242588524Y-60244200D02*
X242683762Y-60291819D01*
X242683762Y-60291819D02*
X242874238Y-60291819D01*
X242874238Y-60291819D02*
X242969476Y-60244200D01*
X242969476Y-60244200D02*
X243017095Y-60196580D01*
X243017095Y-60196580D02*
X243064714Y-60101342D01*
X243064714Y-60101342D02*
X243064714Y-59863247D01*
X243064714Y-59863247D02*
X243017095Y-59768009D01*
X243017095Y-59768009D02*
X242969476Y-59720390D01*
X242969476Y-59720390D02*
X242874238Y-59672771D01*
X242874238Y-59672771D02*
X242683762Y-59672771D01*
X242683762Y-59672771D02*
X242588524Y-59720390D01*
X242588524Y-59720390D02*
X242540905Y-59768009D01*
X242540905Y-59768009D02*
X242493286Y-59863247D01*
X148043417Y-36107800D02*
X148186274Y-36155419D01*
X148186274Y-36155419D02*
X148424369Y-36155419D01*
X148424369Y-36155419D02*
X148519607Y-36107800D01*
X148519607Y-36107800D02*
X148567226Y-36060180D01*
X148567226Y-36060180D02*
X148614845Y-35964942D01*
X148614845Y-35964942D02*
X148614845Y-35869704D01*
X148614845Y-35869704D02*
X148567226Y-35774466D01*
X148567226Y-35774466D02*
X148519607Y-35726847D01*
X148519607Y-35726847D02*
X148424369Y-35679228D01*
X148424369Y-35679228D02*
X148233893Y-35631609D01*
X148233893Y-35631609D02*
X148138655Y-35583990D01*
X148138655Y-35583990D02*
X148091036Y-35536371D01*
X148091036Y-35536371D02*
X148043417Y-35441133D01*
X148043417Y-35441133D02*
X148043417Y-35345895D01*
X148043417Y-35345895D02*
X148091036Y-35250657D01*
X148091036Y-35250657D02*
X148138655Y-35203038D01*
X148138655Y-35203038D02*
X148233893Y-35155419D01*
X148233893Y-35155419D02*
X148471988Y-35155419D01*
X148471988Y-35155419D02*
X148614845Y-35203038D01*
X148948179Y-35155419D02*
X149186274Y-36155419D01*
X149186274Y-36155419D02*
X149376750Y-35441133D01*
X149376750Y-35441133D02*
X149567226Y-36155419D01*
X149567226Y-36155419D02*
X149805322Y-35155419D01*
X150138655Y-35250657D02*
X150186274Y-35203038D01*
X150186274Y-35203038D02*
X150281512Y-35155419D01*
X150281512Y-35155419D02*
X150519607Y-35155419D01*
X150519607Y-35155419D02*
X150614845Y-35203038D01*
X150614845Y-35203038D02*
X150662464Y-35250657D01*
X150662464Y-35250657D02*
X150710083Y-35345895D01*
X150710083Y-35345895D02*
X150710083Y-35441133D01*
X150710083Y-35441133D02*
X150662464Y-35583990D01*
X150662464Y-35583990D02*
X150091036Y-36155419D01*
X150091036Y-36155419D02*
X150710083Y-36155419D01*
X130402433Y-60146980D02*
X130354814Y-60194600D01*
X130354814Y-60194600D02*
X130211957Y-60242219D01*
X130211957Y-60242219D02*
X130116719Y-60242219D01*
X130116719Y-60242219D02*
X129973862Y-60194600D01*
X129973862Y-60194600D02*
X129878624Y-60099361D01*
X129878624Y-60099361D02*
X129831005Y-60004123D01*
X129831005Y-60004123D02*
X129783386Y-59813647D01*
X129783386Y-59813647D02*
X129783386Y-59670790D01*
X129783386Y-59670790D02*
X129831005Y-59480314D01*
X129831005Y-59480314D02*
X129878624Y-59385076D01*
X129878624Y-59385076D02*
X129973862Y-59289838D01*
X129973862Y-59289838D02*
X130116719Y-59242219D01*
X130116719Y-59242219D02*
X130211957Y-59242219D01*
X130211957Y-59242219D02*
X130354814Y-59289838D01*
X130354814Y-59289838D02*
X130402433Y-59337457D01*
X131259576Y-59575552D02*
X131259576Y-60242219D01*
X131021481Y-59194600D02*
X130783386Y-59908885D01*
X130783386Y-59908885D02*
X131402433Y-59908885D01*
X248487033Y-60223180D02*
X248439414Y-60270800D01*
X248439414Y-60270800D02*
X248296557Y-60318419D01*
X248296557Y-60318419D02*
X248201319Y-60318419D01*
X248201319Y-60318419D02*
X248058462Y-60270800D01*
X248058462Y-60270800D02*
X247963224Y-60175561D01*
X247963224Y-60175561D02*
X247915605Y-60080323D01*
X247915605Y-60080323D02*
X247867986Y-59889847D01*
X247867986Y-59889847D02*
X247867986Y-59746990D01*
X247867986Y-59746990D02*
X247915605Y-59556514D01*
X247915605Y-59556514D02*
X247963224Y-59461276D01*
X247963224Y-59461276D02*
X248058462Y-59366038D01*
X248058462Y-59366038D02*
X248201319Y-59318419D01*
X248201319Y-59318419D02*
X248296557Y-59318419D01*
X248296557Y-59318419D02*
X248439414Y-59366038D01*
X248439414Y-59366038D02*
X248487033Y-59413657D01*
X248867986Y-59413657D02*
X248915605Y-59366038D01*
X248915605Y-59366038D02*
X249010843Y-59318419D01*
X249010843Y-59318419D02*
X249248938Y-59318419D01*
X249248938Y-59318419D02*
X249344176Y-59366038D01*
X249344176Y-59366038D02*
X249391795Y-59413657D01*
X249391795Y-59413657D02*
X249439414Y-59508895D01*
X249439414Y-59508895D02*
X249439414Y-59604133D01*
X249439414Y-59604133D02*
X249391795Y-59746990D01*
X249391795Y-59746990D02*
X248820367Y-60318419D01*
X248820367Y-60318419D02*
X249439414Y-60318419D01*
X182484805Y-60241419D02*
X182484805Y-59241419D01*
X182484805Y-59241419D02*
X182722900Y-59241419D01*
X182722900Y-59241419D02*
X182865757Y-59289038D01*
X182865757Y-59289038D02*
X182960995Y-59384276D01*
X182960995Y-59384276D02*
X183008614Y-59479514D01*
X183008614Y-59479514D02*
X183056233Y-59669990D01*
X183056233Y-59669990D02*
X183056233Y-59812847D01*
X183056233Y-59812847D02*
X183008614Y-60003323D01*
X183008614Y-60003323D02*
X182960995Y-60098561D01*
X182960995Y-60098561D02*
X182865757Y-60193800D01*
X182865757Y-60193800D02*
X182722900Y-60241419D01*
X182722900Y-60241419D02*
X182484805Y-60241419D01*
X183913376Y-59574752D02*
X183913376Y-60241419D01*
X183675281Y-59193800D02*
X183437186Y-59908085D01*
X183437186Y-59908085D02*
X184056233Y-59908085D01*
X189609833Y-60223180D02*
X189562214Y-60270800D01*
X189562214Y-60270800D02*
X189419357Y-60318419D01*
X189419357Y-60318419D02*
X189324119Y-60318419D01*
X189324119Y-60318419D02*
X189181262Y-60270800D01*
X189181262Y-60270800D02*
X189086024Y-60175561D01*
X189086024Y-60175561D02*
X189038405Y-60080323D01*
X189038405Y-60080323D02*
X188990786Y-59889847D01*
X188990786Y-59889847D02*
X188990786Y-59746990D01*
X188990786Y-59746990D02*
X189038405Y-59556514D01*
X189038405Y-59556514D02*
X189086024Y-59461276D01*
X189086024Y-59461276D02*
X189181262Y-59366038D01*
X189181262Y-59366038D02*
X189324119Y-59318419D01*
X189324119Y-59318419D02*
X189419357Y-59318419D01*
X189419357Y-59318419D02*
X189562214Y-59366038D01*
X189562214Y-59366038D02*
X189609833Y-59413657D01*
X190466976Y-59318419D02*
X190276500Y-59318419D01*
X190276500Y-59318419D02*
X190181262Y-59366038D01*
X190181262Y-59366038D02*
X190133643Y-59413657D01*
X190133643Y-59413657D02*
X190038405Y-59556514D01*
X190038405Y-59556514D02*
X189990786Y-59746990D01*
X189990786Y-59746990D02*
X189990786Y-60127942D01*
X189990786Y-60127942D02*
X190038405Y-60223180D01*
X190038405Y-60223180D02*
X190086024Y-60270800D01*
X190086024Y-60270800D02*
X190181262Y-60318419D01*
X190181262Y-60318419D02*
X190371738Y-60318419D01*
X190371738Y-60318419D02*
X190466976Y-60270800D01*
X190466976Y-60270800D02*
X190514595Y-60223180D01*
X190514595Y-60223180D02*
X190562214Y-60127942D01*
X190562214Y-60127942D02*
X190562214Y-59889847D01*
X190562214Y-59889847D02*
X190514595Y-59794609D01*
X190514595Y-59794609D02*
X190466976Y-59746990D01*
X190466976Y-59746990D02*
X190371738Y-59699371D01*
X190371738Y-59699371D02*
X190181262Y-59699371D01*
X190181262Y-59699371D02*
X190086024Y-59746990D01*
X190086024Y-59746990D02*
X190038405Y-59794609D01*
X190038405Y-59794609D02*
X189990786Y-59889847D01*
X160094233Y-60350180D02*
X160046614Y-60397800D01*
X160046614Y-60397800D02*
X159903757Y-60445419D01*
X159903757Y-60445419D02*
X159808519Y-60445419D01*
X159808519Y-60445419D02*
X159665662Y-60397800D01*
X159665662Y-60397800D02*
X159570424Y-60302561D01*
X159570424Y-60302561D02*
X159522805Y-60207323D01*
X159522805Y-60207323D02*
X159475186Y-60016847D01*
X159475186Y-60016847D02*
X159475186Y-59873990D01*
X159475186Y-59873990D02*
X159522805Y-59683514D01*
X159522805Y-59683514D02*
X159570424Y-59588276D01*
X159570424Y-59588276D02*
X159665662Y-59493038D01*
X159665662Y-59493038D02*
X159808519Y-59445419D01*
X159808519Y-59445419D02*
X159903757Y-59445419D01*
X159903757Y-59445419D02*
X160046614Y-59493038D01*
X160046614Y-59493038D02*
X160094233Y-59540657D01*
X160998995Y-59445419D02*
X160522805Y-59445419D01*
X160522805Y-59445419D02*
X160475186Y-59921609D01*
X160475186Y-59921609D02*
X160522805Y-59873990D01*
X160522805Y-59873990D02*
X160618043Y-59826371D01*
X160618043Y-59826371D02*
X160856138Y-59826371D01*
X160856138Y-59826371D02*
X160951376Y-59873990D01*
X160951376Y-59873990D02*
X160998995Y-59921609D01*
X160998995Y-59921609D02*
X161046614Y-60016847D01*
X161046614Y-60016847D02*
X161046614Y-60254942D01*
X161046614Y-60254942D02*
X160998995Y-60350180D01*
X160998995Y-60350180D02*
X160951376Y-60397800D01*
X160951376Y-60397800D02*
X160856138Y-60445419D01*
X160856138Y-60445419D02*
X160618043Y-60445419D01*
X160618043Y-60445419D02*
X160522805Y-60397800D01*
X160522805Y-60397800D02*
X160475186Y-60350180D01*
X152963655Y-60317619D02*
X152963655Y-59317619D01*
X152963655Y-59317619D02*
X153201750Y-59317619D01*
X153201750Y-59317619D02*
X153344607Y-59365238D01*
X153344607Y-59365238D02*
X153439845Y-59460476D01*
X153439845Y-59460476D02*
X153487464Y-59555714D01*
X153487464Y-59555714D02*
X153535083Y-59746190D01*
X153535083Y-59746190D02*
X153535083Y-59889047D01*
X153535083Y-59889047D02*
X153487464Y-60079523D01*
X153487464Y-60079523D02*
X153439845Y-60174761D01*
X153439845Y-60174761D02*
X153344607Y-60270000D01*
X153344607Y-60270000D02*
X153201750Y-60317619D01*
X153201750Y-60317619D02*
X152963655Y-60317619D01*
X153868417Y-59317619D02*
X154487464Y-59317619D01*
X154487464Y-59317619D02*
X154154131Y-59698571D01*
X154154131Y-59698571D02*
X154296988Y-59698571D01*
X154296988Y-59698571D02*
X154392226Y-59746190D01*
X154392226Y-59746190D02*
X154439845Y-59793809D01*
X154439845Y-59793809D02*
X154487464Y-59889047D01*
X154487464Y-59889047D02*
X154487464Y-60127142D01*
X154487464Y-60127142D02*
X154439845Y-60222380D01*
X154439845Y-60222380D02*
X154392226Y-60270000D01*
X154392226Y-60270000D02*
X154296988Y-60317619D01*
X154296988Y-60317619D02*
X154011274Y-60317619D01*
X154011274Y-60317619D02*
X153916036Y-60270000D01*
X153916036Y-60270000D02*
X153868417Y-60222380D01*
X123442505Y-60317619D02*
X123442505Y-59317619D01*
X123442505Y-59317619D02*
X123680600Y-59317619D01*
X123680600Y-59317619D02*
X123823457Y-59365238D01*
X123823457Y-59365238D02*
X123918695Y-59460476D01*
X123918695Y-59460476D02*
X123966314Y-59555714D01*
X123966314Y-59555714D02*
X124013933Y-59746190D01*
X124013933Y-59746190D02*
X124013933Y-59889047D01*
X124013933Y-59889047D02*
X123966314Y-60079523D01*
X123966314Y-60079523D02*
X123918695Y-60174761D01*
X123918695Y-60174761D02*
X123823457Y-60270000D01*
X123823457Y-60270000D02*
X123680600Y-60317619D01*
X123680600Y-60317619D02*
X123442505Y-60317619D01*
X124966314Y-60317619D02*
X124394886Y-60317619D01*
X124680600Y-60317619D02*
X124680600Y-59317619D01*
X124680600Y-59317619D02*
X124585362Y-59460476D01*
X124585362Y-59460476D02*
X124490124Y-59555714D01*
X124490124Y-59555714D02*
X124394886Y-59603333D01*
X218920633Y-60045380D02*
X218873014Y-60093000D01*
X218873014Y-60093000D02*
X218730157Y-60140619D01*
X218730157Y-60140619D02*
X218634919Y-60140619D01*
X218634919Y-60140619D02*
X218492062Y-60093000D01*
X218492062Y-60093000D02*
X218396824Y-59997761D01*
X218396824Y-59997761D02*
X218349205Y-59902523D01*
X218349205Y-59902523D02*
X218301586Y-59712047D01*
X218301586Y-59712047D02*
X218301586Y-59569190D01*
X218301586Y-59569190D02*
X218349205Y-59378714D01*
X218349205Y-59378714D02*
X218396824Y-59283476D01*
X218396824Y-59283476D02*
X218492062Y-59188238D01*
X218492062Y-59188238D02*
X218634919Y-59140619D01*
X218634919Y-59140619D02*
X218730157Y-59140619D01*
X218730157Y-59140619D02*
X218873014Y-59188238D01*
X218873014Y-59188238D02*
X218920633Y-59235857D01*
X219873014Y-60140619D02*
X219301586Y-60140619D01*
X219587300Y-60140619D02*
X219587300Y-59140619D01*
X219587300Y-59140619D02*
X219492062Y-59283476D01*
X219492062Y-59283476D02*
X219396824Y-59378714D01*
X219396824Y-59378714D02*
X219301586Y-59426333D01*
X236606867Y-36107800D02*
X236749724Y-36155419D01*
X236749724Y-36155419D02*
X236987819Y-36155419D01*
X236987819Y-36155419D02*
X237083057Y-36107800D01*
X237083057Y-36107800D02*
X237130676Y-36060180D01*
X237130676Y-36060180D02*
X237178295Y-35964942D01*
X237178295Y-35964942D02*
X237178295Y-35869704D01*
X237178295Y-35869704D02*
X237130676Y-35774466D01*
X237130676Y-35774466D02*
X237083057Y-35726847D01*
X237083057Y-35726847D02*
X236987819Y-35679228D01*
X236987819Y-35679228D02*
X236797343Y-35631609D01*
X236797343Y-35631609D02*
X236702105Y-35583990D01*
X236702105Y-35583990D02*
X236654486Y-35536371D01*
X236654486Y-35536371D02*
X236606867Y-35441133D01*
X236606867Y-35441133D02*
X236606867Y-35345895D01*
X236606867Y-35345895D02*
X236654486Y-35250657D01*
X236654486Y-35250657D02*
X236702105Y-35203038D01*
X236702105Y-35203038D02*
X236797343Y-35155419D01*
X236797343Y-35155419D02*
X237035438Y-35155419D01*
X237035438Y-35155419D02*
X237178295Y-35203038D01*
X237511629Y-35155419D02*
X237749724Y-36155419D01*
X237749724Y-36155419D02*
X237940200Y-35441133D01*
X237940200Y-35441133D02*
X238130676Y-36155419D01*
X238130676Y-36155419D02*
X238368772Y-35155419D01*
X239225914Y-35155419D02*
X238749724Y-35155419D01*
X238749724Y-35155419D02*
X238702105Y-35631609D01*
X238702105Y-35631609D02*
X238749724Y-35583990D01*
X238749724Y-35583990D02*
X238844962Y-35536371D01*
X238844962Y-35536371D02*
X239083057Y-35536371D01*
X239083057Y-35536371D02*
X239178295Y-35583990D01*
X239178295Y-35583990D02*
X239225914Y-35631609D01*
X239225914Y-35631609D02*
X239273533Y-35726847D01*
X239273533Y-35726847D02*
X239273533Y-35964942D01*
X239273533Y-35964942D02*
X239225914Y-36060180D01*
X239225914Y-36060180D02*
X239178295Y-36107800D01*
X239178295Y-36107800D02*
X239083057Y-36155419D01*
X239083057Y-36155419D02*
X238844962Y-36155419D01*
X238844962Y-36155419D02*
X238749724Y-36107800D01*
X238749724Y-36107800D02*
X238702105Y-36060180D01*
X118522267Y-36107800D02*
X118665124Y-36155419D01*
X118665124Y-36155419D02*
X118903219Y-36155419D01*
X118903219Y-36155419D02*
X118998457Y-36107800D01*
X118998457Y-36107800D02*
X119046076Y-36060180D01*
X119046076Y-36060180D02*
X119093695Y-35964942D01*
X119093695Y-35964942D02*
X119093695Y-35869704D01*
X119093695Y-35869704D02*
X119046076Y-35774466D01*
X119046076Y-35774466D02*
X118998457Y-35726847D01*
X118998457Y-35726847D02*
X118903219Y-35679228D01*
X118903219Y-35679228D02*
X118712743Y-35631609D01*
X118712743Y-35631609D02*
X118617505Y-35583990D01*
X118617505Y-35583990D02*
X118569886Y-35536371D01*
X118569886Y-35536371D02*
X118522267Y-35441133D01*
X118522267Y-35441133D02*
X118522267Y-35345895D01*
X118522267Y-35345895D02*
X118569886Y-35250657D01*
X118569886Y-35250657D02*
X118617505Y-35203038D01*
X118617505Y-35203038D02*
X118712743Y-35155419D01*
X118712743Y-35155419D02*
X118950838Y-35155419D01*
X118950838Y-35155419D02*
X119093695Y-35203038D01*
X119427029Y-35155419D02*
X119665124Y-36155419D01*
X119665124Y-36155419D02*
X119855600Y-35441133D01*
X119855600Y-35441133D02*
X120046076Y-36155419D01*
X120046076Y-36155419D02*
X120284172Y-35155419D01*
X121188933Y-36155419D02*
X120617505Y-36155419D01*
X120903219Y-36155419D02*
X120903219Y-35155419D01*
X120903219Y-35155419D02*
X120807981Y-35298276D01*
X120807981Y-35298276D02*
X120712743Y-35393514D01*
X120712743Y-35393514D02*
X120617505Y-35441133D01*
D11*
%TO.C,D5*%
X216394050Y-59036600D02*
X209094050Y-59036600D01*
X216394050Y-53536600D02*
X209094050Y-53536600D01*
X209094050Y-53536600D02*
X209094050Y-54686600D01*
%TO.C,SW3*%
X175797900Y-38800600D02*
X176397900Y-38800600D01*
X176097900Y-39100600D02*
X175797900Y-38800600D01*
X176397900Y-38800600D02*
X176097900Y-39100600D01*
X177497900Y-37000600D02*
X177497900Y-48800600D01*
X181597900Y-37000600D02*
X177497900Y-37000600D01*
X181597900Y-48800600D02*
X177497900Y-48800600D01*
X183097900Y-42900600D02*
X184097900Y-42900600D01*
X183597900Y-42400600D02*
X183597900Y-43400600D01*
X185597900Y-37000600D02*
X189697900Y-37000600D01*
X189697900Y-37000600D02*
X189697900Y-39400600D01*
X189697900Y-41600600D02*
X189697900Y-44200600D01*
X189697900Y-46400600D02*
X189697900Y-48800600D01*
X189697900Y-48800600D02*
X185597900Y-48800600D01*
X186597900Y-42900600D02*
G75*
G03*
X186597900Y-42900600I-3000000J0D01*
G01*
%TO.C,D6*%
X245929000Y-59087000D02*
X238629000Y-59087000D01*
X245929000Y-53587000D02*
X238629000Y-53587000D01*
X238629000Y-53587000D02*
X238629000Y-54737000D01*
%TO.C,SW2*%
X146276750Y-38800600D02*
X146876750Y-38800600D01*
X146576750Y-39100600D02*
X146276750Y-38800600D01*
X146876750Y-38800600D02*
X146576750Y-39100600D01*
X147976750Y-37000600D02*
X147976750Y-48800600D01*
X152076750Y-37000600D02*
X147976750Y-37000600D01*
X152076750Y-48800600D02*
X147976750Y-48800600D01*
X153576750Y-42900600D02*
X154576750Y-42900600D01*
X154076750Y-42400600D02*
X154076750Y-43400600D01*
X156076750Y-37000600D02*
X160176750Y-37000600D01*
X160176750Y-37000600D02*
X160176750Y-39400600D01*
X160176750Y-41600600D02*
X160176750Y-44200600D01*
X160176750Y-46400600D02*
X160176750Y-48800600D01*
X160176750Y-48800600D02*
X156076750Y-48800600D01*
X157076750Y-42900600D02*
G75*
G03*
X157076750Y-42900600I-3000000J0D01*
G01*
%TO.C,C4*%
X131280352Y-58847400D02*
X129857848Y-58847400D01*
X131280352Y-57027400D02*
X129857848Y-57027400D01*
%TO.C,C2*%
X249364952Y-58923600D02*
X247942448Y-58923600D01*
X249364952Y-57103600D02*
X247942448Y-57103600D01*
%TO.C,D4*%
X186872900Y-59036600D02*
X179572900Y-59036600D01*
X186872900Y-53536600D02*
X179572900Y-53536600D01*
X179572900Y-53536600D02*
X179572900Y-54686600D01*
%TO.C,C6*%
X190487752Y-58923600D02*
X189065248Y-58923600D01*
X190487752Y-57103600D02*
X189065248Y-57103600D01*
%TO.C,C5*%
X160972152Y-59050600D02*
X159549648Y-59050600D01*
X160972152Y-57230600D02*
X159549648Y-57230600D01*
%TO.C,D3*%
X157351750Y-59112800D02*
X150051750Y-59112800D01*
X157351750Y-53612800D02*
X150051750Y-53612800D01*
X150051750Y-53612800D02*
X150051750Y-54762800D01*
%TO.C,D1*%
X127830600Y-59112800D02*
X120530600Y-59112800D01*
X127830600Y-53612800D02*
X120530600Y-53612800D01*
X120530600Y-53612800D02*
X120530600Y-54762800D01*
%TO.C,C1*%
X219798552Y-58745800D02*
X218376048Y-58745800D01*
X219798552Y-56925800D02*
X218376048Y-56925800D01*
%TO.C,SW5*%
X234840200Y-38800600D02*
X235440200Y-38800600D01*
X235140200Y-39100600D02*
X234840200Y-38800600D01*
X235440200Y-38800600D02*
X235140200Y-39100600D01*
X236540200Y-37000600D02*
X236540200Y-48800600D01*
X240640200Y-37000600D02*
X236540200Y-37000600D01*
X240640200Y-48800600D02*
X236540200Y-48800600D01*
X242140200Y-42900600D02*
X243140200Y-42900600D01*
X242640200Y-42400600D02*
X242640200Y-43400600D01*
X244640200Y-37000600D02*
X248740200Y-37000600D01*
X248740200Y-37000600D02*
X248740200Y-39400600D01*
X248740200Y-41600600D02*
X248740200Y-44200600D01*
X248740200Y-46400600D02*
X248740200Y-48800600D01*
X248740200Y-48800600D02*
X244640200Y-48800600D01*
X245640200Y-42900600D02*
G75*
G03*
X245640200Y-42900600I-3000000J0D01*
G01*
%TO.C,SW1*%
X116755600Y-38800600D02*
X117355600Y-38800600D01*
X117055600Y-39100600D02*
X116755600Y-38800600D01*
X117355600Y-38800600D02*
X117055600Y-39100600D01*
X118455600Y-37000600D02*
X118455600Y-48800600D01*
X122555600Y-37000600D02*
X118455600Y-37000600D01*
X122555600Y-48800600D02*
X118455600Y-48800600D01*
X124055600Y-42900600D02*
X125055600Y-42900600D01*
X124555600Y-42400600D02*
X124555600Y-43400600D01*
X126555600Y-37000600D02*
X130655600Y-37000600D01*
X130655600Y-37000600D02*
X130655600Y-39400600D01*
X130655600Y-41600600D02*
X130655600Y-44200600D01*
X130655600Y-46400600D02*
X130655600Y-48800600D01*
X130655600Y-48800600D02*
X126555600Y-48800600D01*
X127555600Y-42900600D02*
G75*
G03*
X127555600Y-42900600I-3000000J0D01*
G01*
%TO.C,SW4*%
X205319050Y-38800600D02*
X205919050Y-38800600D01*
X205619050Y-39100600D02*
X205319050Y-38800600D01*
X205919050Y-38800600D02*
X205619050Y-39100600D01*
X207019050Y-37000600D02*
X207019050Y-48800600D01*
X211119050Y-37000600D02*
X207019050Y-37000600D01*
X211119050Y-48800600D02*
X207019050Y-48800600D01*
X212619050Y-42900600D02*
X213619050Y-42900600D01*
X213119050Y-42400600D02*
X213119050Y-43400600D01*
X215119050Y-37000600D02*
X219219050Y-37000600D01*
X219219050Y-37000600D02*
X219219050Y-39400600D01*
X219219050Y-41600600D02*
X219219050Y-44200600D01*
X219219050Y-46400600D02*
X219219050Y-48800600D01*
X219219050Y-48800600D02*
X215119050Y-48800600D01*
X216119050Y-42900600D02*
G75*
G03*
X216119050Y-42900600I-3000000J0D01*
G01*
%TD*%
%LPC*%
D12*
%TO.C,J8_POLY1*%
X126381000Y-18902600D03*
D13*
X123841000Y-18902600D03*
X126381000Y-21442600D03*
X123841000Y-21442600D03*
X126381000Y-23982600D03*
X123841000Y-23982600D03*
X126381000Y-26522600D03*
X123841000Y-26522600D03*
X126381000Y-29062600D03*
X123841000Y-29062600D03*
%TD*%
D14*
%TO.C,D5*%
X210294050Y-54686600D03*
X210294050Y-57886600D03*
X215194050Y-57886600D03*
X215194050Y-54686600D03*
%TD*%
D15*
%TO.C,SW3*%
X176097900Y-40400600D03*
D16*
X176097900Y-45400600D03*
X176097900Y-42900600D03*
D17*
X183597900Y-37300600D03*
X183597900Y-48500600D03*
D16*
X190597900Y-45400600D03*
X190597900Y-40400600D03*
%TD*%
D14*
%TO.C,D6*%
X239829000Y-54737000D03*
X239829000Y-57937000D03*
X244729000Y-57937000D03*
X244729000Y-54737000D03*
%TD*%
D15*
%TO.C,SW2*%
X146576750Y-40400600D03*
D16*
X146576750Y-45400600D03*
X146576750Y-42900600D03*
D17*
X154076750Y-37300600D03*
X154076750Y-48500600D03*
D16*
X161076750Y-45400600D03*
X161076750Y-40400600D03*
%TD*%
D18*
%TO.C,C4*%
X132131600Y-57937400D03*
X129006600Y-57937400D03*
%TD*%
%TO.C,C2*%
X250216200Y-58013600D03*
X247091200Y-58013600D03*
%TD*%
D14*
%TO.C,D4*%
X180772900Y-54686600D03*
X180772900Y-57886600D03*
X185672900Y-57886600D03*
X185672900Y-54686600D03*
%TD*%
D18*
%TO.C,C6*%
X191339000Y-58013600D03*
X188214000Y-58013600D03*
%TD*%
%TO.C,C5*%
X161823400Y-58140600D03*
X158698400Y-58140600D03*
%TD*%
D14*
%TO.C,D3*%
X151251750Y-54762800D03*
X151251750Y-57962800D03*
X156151750Y-57962800D03*
X156151750Y-54762800D03*
%TD*%
%TO.C,D1*%
X121730600Y-54762800D03*
X121730600Y-57962800D03*
X126630600Y-57962800D03*
X126630600Y-54762800D03*
%TD*%
D18*
%TO.C,C1*%
X220649800Y-57835800D03*
X217524800Y-57835800D03*
%TD*%
D15*
%TO.C,SW5*%
X235140200Y-40400600D03*
D16*
X235140200Y-45400600D03*
X235140200Y-42900600D03*
D17*
X242640200Y-37300600D03*
X242640200Y-48500600D03*
D16*
X249640200Y-45400600D03*
X249640200Y-40400600D03*
%TD*%
D15*
%TO.C,SW1*%
X117055600Y-40400600D03*
D16*
X117055600Y-45400600D03*
X117055600Y-42900600D03*
D17*
X124555600Y-37300600D03*
X124555600Y-48500600D03*
D16*
X131555600Y-45400600D03*
X131555600Y-40400600D03*
%TD*%
D15*
%TO.C,SW4*%
X205619050Y-40400600D03*
D16*
X205619050Y-45400600D03*
X205619050Y-42900600D03*
D17*
X213119050Y-37300600D03*
X213119050Y-48500600D03*
D16*
X220119050Y-45400600D03*
X220119050Y-40400600D03*
%TD*%
%LPD*%
M02*
