G04 #@! TF.GenerationSoftware,KiCad,Pcbnew,7.0.5-7.0.5~ubuntu22.04.1*
G04 #@! TF.CreationDate,2023-06-28T11:52:20+02:00*
G04 #@! TF.ProjectId,AS3397_proto_SMS,41533333-3937-45f7-9072-6f746f5f534d,rev?*
G04 #@! TF.SameCoordinates,Original*
G04 #@! TF.FileFunction,Soldermask,Bot*
G04 #@! TF.FilePolarity,Negative*
%FSLAX46Y46*%
G04 Gerber Fmt 4.6, Leading zero omitted, Abs format (unit mm)*
G04 Created by KiCad (PCBNEW 7.0.5-7.0.5~ubuntu22.04.1) date 2023-06-28 11:52:20*
%MOMM*%
%LPD*%
G01*
G04 APERTURE LIST*
%ADD10O,1.700000X1.700000*%
%ADD11R,1.700000X1.700000*%
%ADD12R,1.600000X1.600000*%
%ADD13O,1.600000X1.600000*%
G04 APERTURE END LIST*
D10*
X114554000Y-86233000D03*
X114554000Y-88773000D03*
D11*
X114554000Y-91313000D03*
D10*
X114554000Y-93853000D03*
X114554000Y-96393000D03*
X114554000Y-98933000D03*
X114554000Y-101473000D03*
D11*
X114554000Y-104013000D03*
D10*
X114554000Y-106553000D03*
X114554000Y-109093000D03*
X114554000Y-111633000D03*
X114554000Y-114173000D03*
D11*
X114554000Y-116713000D03*
D10*
X114554000Y-119253000D03*
X114554000Y-121793000D03*
X114554000Y-124333000D03*
X114554000Y-126873000D03*
D11*
X114554000Y-129413000D03*
D10*
X114554000Y-131953000D03*
X114554000Y-134493000D03*
X132334000Y-134493000D03*
X132334000Y-131953000D03*
D11*
X132334000Y-129413000D03*
D10*
X132334000Y-126873000D03*
X132334000Y-124333000D03*
X132334000Y-121793000D03*
X132334000Y-119253000D03*
D11*
X132334000Y-116713000D03*
D10*
X132334000Y-114173000D03*
X132334000Y-111633000D03*
X132334000Y-109093000D03*
X132334000Y-106553000D03*
D11*
X132334000Y-104013000D03*
D10*
X132334000Y-101473000D03*
X132334000Y-98933000D03*
X132334000Y-96393000D03*
X132334000Y-93853000D03*
D11*
X132334000Y-91313000D03*
D10*
X132334000Y-88773000D03*
X132334000Y-86233000D03*
D12*
X81280000Y-45720000D03*
D13*
X81280000Y-48260000D03*
X81280000Y-50800000D03*
X81280000Y-53340000D03*
X81280000Y-134620000D03*
X81280000Y-137160000D03*
X81280000Y-139700000D03*
X81280000Y-142240000D03*
X147320000Y-142240000D03*
X147320000Y-139700000D03*
X147320000Y-137160000D03*
X147320000Y-134620000D03*
X147320000Y-53340000D03*
X147320000Y-50800000D03*
X147320000Y-48260000D03*
X147320000Y-45720000D03*
D11*
X142113000Y-101346000D03*
X141986000Y-94869000D03*
X141986000Y-109220000D03*
M02*
