%TF.GenerationSoftware,KiCad,Pcbnew,7.0.5-7.0.5~ubuntu22.04.1*%
%TF.CreationDate,2023-06-28T11:52:23+02:00*%
%TF.ProjectId,AS3397_proto_SMS,41533333-3937-45f7-9072-6f746f5f534d,rev?*%
%TF.SameCoordinates,Original*%
%TF.FileFunction,Drillmap*%
%TF.FilePolarity,Positive*%
%FSLAX45Y45*%
G04 Gerber Fmt 4.5, Leading zero omitted, Abs format (unit mm)*
G04 Created by KiCad (PCBNEW 7.0.5-7.0.5~ubuntu22.04.1) date 2023-06-28 11:52:23*
%MOMM*%
%LPD*%
G01*
G04 APERTURE LIST*
%ADD10C,0.100000*%
%ADD11C,0.200000*%
%ADD12C,0.040000*%
%ADD13C,0.080000*%
%ADD14C,0.102000*%
G04 APERTURE END LIST*
D10*
X7874000Y-4318000D02*
X14986000Y-4318000D01*
X14986000Y-4318000D02*
X14986000Y-14732000D01*
X14986000Y-14732000D02*
X7874000Y-14732000D01*
X7874000Y-14732000D02*
X7874000Y-4318000D01*
D11*
D12*
X8438200Y-9606600D02*
X8478200Y-9646600D01*
X8478200Y-9606600D02*
X8438200Y-9646600D01*
X8438200Y-11156000D02*
X8478200Y-11196000D01*
X8478200Y-11156000D02*
X8438200Y-11196000D01*
X8450900Y-6203000D02*
X8490900Y-6243000D01*
X8490900Y-6203000D02*
X8450900Y-6243000D01*
X8450900Y-11918000D02*
X8490900Y-11958000D01*
X8490900Y-11918000D02*
X8450900Y-11958000D01*
X8473760Y-11399840D02*
X8513760Y-11439840D01*
X8513760Y-11399840D02*
X8473760Y-11439840D01*
X8870000Y-9606600D02*
X8910000Y-9646600D01*
X8910000Y-9606600D02*
X8870000Y-9646600D01*
X8895400Y-13289600D02*
X8935400Y-13329600D01*
X8935400Y-13289600D02*
X8895400Y-13329600D01*
X9022400Y-8285800D02*
X9062400Y-8325800D01*
X9062400Y-8285800D02*
X9022400Y-8325800D01*
X9200200Y-7536500D02*
X9240200Y-7576500D01*
X9240200Y-7536500D02*
X9200200Y-7576500D01*
X9352600Y-10622600D02*
X9392600Y-10662600D01*
X9392600Y-10622600D02*
X9352600Y-10662600D01*
X9428800Y-5517200D02*
X9468800Y-5557200D01*
X9468800Y-5517200D02*
X9428800Y-5557200D01*
X9441500Y-7536500D02*
X9481500Y-7576500D01*
X9481500Y-7536500D02*
X9441500Y-7576500D01*
X9517700Y-11181400D02*
X9557700Y-11221400D01*
X9557700Y-11181400D02*
X9517700Y-11221400D01*
X9530400Y-11867200D02*
X9570400Y-11907200D01*
X9570400Y-11867200D02*
X9530400Y-11907200D01*
X9614866Y-11937588D02*
X9654866Y-11977588D01*
X9654866Y-11937588D02*
X9614866Y-11977588D01*
X9708200Y-12349800D02*
X9748200Y-12389800D01*
X9748200Y-12349800D02*
X9708200Y-12389800D01*
X9759000Y-7752400D02*
X9799000Y-7792400D01*
X9799000Y-7752400D02*
X9759000Y-7792400D01*
X9809800Y-8362000D02*
X9849800Y-8402000D01*
X9849800Y-8362000D02*
X9809800Y-8402000D01*
X9809800Y-9276400D02*
X9849800Y-9316400D01*
X9849800Y-9276400D02*
X9809800Y-9316400D01*
X9860600Y-5517200D02*
X9900600Y-5557200D01*
X9900600Y-5517200D02*
X9860600Y-5557200D01*
X9860600Y-8082600D02*
X9900600Y-8122600D01*
X9900600Y-8082600D02*
X9860600Y-8122600D01*
X9873300Y-12476800D02*
X9913300Y-12516800D01*
X9913300Y-12476800D02*
X9873300Y-12516800D01*
X9924100Y-7752400D02*
X9964100Y-7792400D01*
X9964100Y-7752400D02*
X9924100Y-7792400D01*
X9987600Y-14204000D02*
X10027600Y-14244000D01*
X10027600Y-14204000D02*
X9987600Y-14244000D01*
X10013000Y-12984800D02*
X10053000Y-13024800D01*
X10053000Y-12984800D02*
X10013000Y-13024800D01*
X10038400Y-11765600D02*
X10078400Y-11805600D01*
X10078400Y-11765600D02*
X10038400Y-11805600D01*
X10063800Y-8768400D02*
X10103800Y-8808400D01*
X10103800Y-8768400D02*
X10063800Y-8808400D01*
X10165400Y-11740200D02*
X10205400Y-11780200D01*
X10205400Y-11740200D02*
X10165400Y-11780200D01*
X10165400Y-13416600D02*
X10205400Y-13456600D01*
X10205400Y-13416600D02*
X10165400Y-13456600D01*
X10203500Y-6380800D02*
X10243500Y-6420800D01*
X10243500Y-6380800D02*
X10203500Y-6420800D01*
X10267000Y-7295200D02*
X10307000Y-7335200D01*
X10307000Y-7295200D02*
X10267000Y-7335200D01*
X10444800Y-10254300D02*
X10484800Y-10294300D01*
X10484800Y-10254300D02*
X10444800Y-10294300D01*
X10444800Y-10673400D02*
X10484800Y-10713400D01*
X10484800Y-10673400D02*
X10444800Y-10713400D01*
X10444800Y-11181400D02*
X10484800Y-11221400D01*
X10484800Y-11181400D02*
X10444800Y-11221400D01*
X10470200Y-9720900D02*
X10510200Y-9760900D01*
X10510200Y-9720900D02*
X10470200Y-9760900D01*
X10482900Y-8247700D02*
X10522900Y-8287700D01*
X10522900Y-8247700D02*
X10482900Y-8287700D01*
X10508300Y-9243500D02*
X10548300Y-9283500D01*
X10548300Y-9243500D02*
X10508300Y-9283500D01*
X10508300Y-12756200D02*
X10548300Y-12796200D01*
X10548300Y-12756200D02*
X10508300Y-12796200D01*
X10521000Y-11689400D02*
X10561000Y-11729400D01*
X10561000Y-11689400D02*
X10521000Y-11729400D01*
X10698800Y-5745800D02*
X10738800Y-5785800D01*
X10738800Y-5745800D02*
X10698800Y-5785800D01*
X10800400Y-7384100D02*
X10840400Y-7424100D01*
X10840400Y-7384100D02*
X10800400Y-7424100D01*
X10800400Y-7981000D02*
X10840400Y-8021000D01*
X10840400Y-7981000D02*
X10800400Y-8021000D01*
X10825800Y-8971600D02*
X10865800Y-9011600D01*
X10865800Y-8971600D02*
X10825800Y-9011600D01*
X11537000Y-6355400D02*
X11577000Y-6395400D01*
X11577000Y-6355400D02*
X11537000Y-6395400D01*
X11537000Y-6507800D02*
X11577000Y-6547800D01*
X11577000Y-6507800D02*
X11537000Y-6547800D01*
X11562400Y-7777800D02*
X11602400Y-7817800D01*
X11602400Y-7777800D02*
X11562400Y-7817800D01*
X11562400Y-7942900D02*
X11602400Y-7982900D01*
X11602400Y-7942900D02*
X11562400Y-7982900D01*
X11727500Y-12654600D02*
X11767500Y-12694600D01*
X11767500Y-12654600D02*
X11727500Y-12694600D01*
X11727500Y-13010200D02*
X11767500Y-13050200D01*
X11767500Y-13010200D02*
X11727500Y-13050200D01*
X11867200Y-13696000D02*
X11907200Y-13736000D01*
X11907200Y-13696000D02*
X11867200Y-13736000D01*
X11918000Y-10292400D02*
X11958000Y-10332400D01*
X11958000Y-10292400D02*
X11918000Y-10332400D01*
X11943400Y-8108000D02*
X11983400Y-8148000D01*
X11983400Y-8108000D02*
X11943400Y-8148000D01*
X11994200Y-6888800D02*
X12034200Y-6928800D01*
X12034200Y-6888800D02*
X11994200Y-6928800D01*
X12019600Y-8209600D02*
X12059600Y-8249600D01*
X12059600Y-8209600D02*
X12019600Y-8249600D01*
X12070400Y-5314000D02*
X12110400Y-5354000D01*
X12110400Y-5314000D02*
X12070400Y-5354000D01*
X12070400Y-7244400D02*
X12110400Y-7284400D01*
X12110400Y-7244400D02*
X12070400Y-7284400D01*
X12222800Y-8209600D02*
X12262800Y-8249600D01*
X12262800Y-8209600D02*
X12222800Y-8249600D01*
X12324400Y-6215700D02*
X12364400Y-6255700D01*
X12364400Y-6215700D02*
X12324400Y-6255700D01*
X12413300Y-5733100D02*
X12453300Y-5773100D01*
X12453300Y-5733100D02*
X12413300Y-5773100D01*
X12451400Y-8311200D02*
X12491400Y-8351200D01*
X12491400Y-8311200D02*
X12451400Y-8351200D01*
X12464100Y-5872800D02*
X12504100Y-5912800D01*
X12504100Y-5872800D02*
X12464100Y-5912800D01*
X12527600Y-6736400D02*
X12567600Y-6776400D01*
X12567600Y-6736400D02*
X12527600Y-6776400D01*
X12527600Y-11664000D02*
X12567600Y-11704000D01*
X12567600Y-11664000D02*
X12527600Y-11704000D01*
X12553000Y-7015800D02*
X12593000Y-7055800D01*
X12593000Y-7015800D02*
X12553000Y-7055800D01*
X12553000Y-7142800D02*
X12593000Y-7182800D01*
X12593000Y-7142800D02*
X12553000Y-7182800D01*
X12553000Y-7269800D02*
X12593000Y-7309800D01*
X12593000Y-7269800D02*
X12553000Y-7309800D01*
X12553000Y-7396800D02*
X12593000Y-7436800D01*
X12593000Y-7396800D02*
X12553000Y-7436800D01*
X12781600Y-13391200D02*
X12821600Y-13431200D01*
X12821600Y-13391200D02*
X12781600Y-13431200D01*
X12781600Y-13950000D02*
X12821600Y-13990000D01*
X12821600Y-13950000D02*
X12781600Y-13990000D01*
X12959400Y-7777800D02*
X12999400Y-7817800D01*
X12999400Y-7777800D02*
X12959400Y-7817800D01*
X13061000Y-7650800D02*
X13101000Y-7690800D01*
X13101000Y-7650800D02*
X13061000Y-7690800D01*
X13454700Y-5517200D02*
X13494700Y-5557200D01*
X13494700Y-5517200D02*
X13454700Y-5557200D01*
X13556300Y-5847400D02*
X13596300Y-5887400D01*
X13596300Y-5847400D02*
X13556300Y-5887400D01*
X13848400Y-4806000D02*
X13888400Y-4846000D01*
X13888400Y-4806000D02*
X13848400Y-4846000D01*
X13848400Y-5491800D02*
X13888400Y-5531800D01*
X13888400Y-5491800D02*
X13848400Y-5531800D01*
X13962700Y-12260900D02*
X14002700Y-12300900D01*
X14002700Y-12260900D02*
X13962700Y-12300900D01*
X14026200Y-5060000D02*
X14066200Y-5100000D01*
X14066200Y-5060000D02*
X14026200Y-5100000D01*
X14026200Y-5491800D02*
X14066200Y-5531800D01*
X14066200Y-5491800D02*
X14026200Y-5531800D01*
X14318300Y-6355400D02*
X14358300Y-6395400D01*
X14358300Y-6355400D02*
X14318300Y-6395400D01*
X14445300Y-13124500D02*
X14485300Y-13164500D01*
X14485300Y-13124500D02*
X14445300Y-13164500D01*
X14673900Y-6901500D02*
X14713900Y-6941500D01*
X14713900Y-6901500D02*
X14673900Y-6941500D01*
X14712000Y-13099100D02*
X14752000Y-13139100D01*
X14752000Y-13099100D02*
X14712000Y-13139100D01*
D13*
X8168000Y-4572000D02*
G75*
G03*
X8168000Y-4572000I-40000J0D01*
G01*
X8168000Y-4826000D02*
G75*
G03*
X8168000Y-4826000I-40000J0D01*
G01*
X8168000Y-5080000D02*
G75*
G03*
X8168000Y-5080000I-40000J0D01*
G01*
X8168000Y-5334000D02*
G75*
G03*
X8168000Y-5334000I-40000J0D01*
G01*
X8168000Y-13462000D02*
G75*
G03*
X8168000Y-13462000I-40000J0D01*
G01*
X8168000Y-13716000D02*
G75*
G03*
X8168000Y-13716000I-40000J0D01*
G01*
X8168000Y-13970000D02*
G75*
G03*
X8168000Y-13970000I-40000J0D01*
G01*
X8168000Y-14224000D02*
G75*
G03*
X8168000Y-14224000I-40000J0D01*
G01*
X14772000Y-4572000D02*
G75*
G03*
X14772000Y-4572000I-40000J0D01*
G01*
X14772000Y-4826000D02*
G75*
G03*
X14772000Y-4826000I-40000J0D01*
G01*
X14772000Y-5080000D02*
G75*
G03*
X14772000Y-5080000I-40000J0D01*
G01*
X14772000Y-5334000D02*
G75*
G03*
X14772000Y-5334000I-40000J0D01*
G01*
X14772000Y-13462000D02*
G75*
G03*
X14772000Y-13462000I-40000J0D01*
G01*
X14772000Y-13716000D02*
G75*
G03*
X14772000Y-13716000I-40000J0D01*
G01*
X14772000Y-13970000D02*
G75*
G03*
X14772000Y-13970000I-40000J0D01*
G01*
X14772000Y-14224000D02*
G75*
G03*
X14772000Y-14224000I-40000J0D01*
G01*
D10*
X14198600Y-9436900D02*
X14198600Y-9536900D01*
X14148600Y-9486900D02*
X14248600Y-9486900D01*
X14198600Y-10872000D02*
X14198600Y-10972000D01*
X14148600Y-10922000D02*
X14248600Y-10922000D01*
X14211300Y-10084600D02*
X14211300Y-10184600D01*
X14161300Y-10134600D02*
X14261300Y-10134600D01*
D14*
X11491463Y-8659363D02*
X11491463Y-8587237D01*
X11419337Y-8587237D01*
X11419337Y-8659363D01*
X11491463Y-8659363D01*
X11491463Y-8913363D02*
X11491463Y-8841237D01*
X11419337Y-8841237D01*
X11419337Y-8913363D01*
X11491463Y-8913363D01*
X11491463Y-9167363D02*
X11491463Y-9095237D01*
X11419337Y-9095237D01*
X11419337Y-9167363D01*
X11491463Y-9167363D01*
X11491463Y-9421363D02*
X11491463Y-9349237D01*
X11419337Y-9349237D01*
X11419337Y-9421363D01*
X11491463Y-9421363D01*
X11491463Y-9675363D02*
X11491463Y-9603237D01*
X11419337Y-9603237D01*
X11419337Y-9675363D01*
X11491463Y-9675363D01*
X11491463Y-9929363D02*
X11491463Y-9857237D01*
X11419337Y-9857237D01*
X11419337Y-9929363D01*
X11491463Y-9929363D01*
X11491463Y-10183363D02*
X11491463Y-10111237D01*
X11419337Y-10111237D01*
X11419337Y-10183363D01*
X11491463Y-10183363D01*
X11491463Y-10437363D02*
X11491463Y-10365237D01*
X11419337Y-10365237D01*
X11419337Y-10437363D01*
X11491463Y-10437363D01*
X11491463Y-10691363D02*
X11491463Y-10619237D01*
X11419337Y-10619237D01*
X11419337Y-10691363D01*
X11491463Y-10691363D01*
X11491463Y-10945363D02*
X11491463Y-10873237D01*
X11419337Y-10873237D01*
X11419337Y-10945363D01*
X11491463Y-10945363D01*
X11491463Y-11199363D02*
X11491463Y-11127237D01*
X11419337Y-11127237D01*
X11419337Y-11199363D01*
X11491463Y-11199363D01*
X11491463Y-11453363D02*
X11491463Y-11381237D01*
X11419337Y-11381237D01*
X11419337Y-11453363D01*
X11491463Y-11453363D01*
X11491463Y-11707363D02*
X11491463Y-11635237D01*
X11419337Y-11635237D01*
X11419337Y-11707363D01*
X11491463Y-11707363D01*
X11491463Y-11961363D02*
X11491463Y-11889237D01*
X11419337Y-11889237D01*
X11419337Y-11961363D01*
X11491463Y-11961363D01*
X11491463Y-12215363D02*
X11491463Y-12143237D01*
X11419337Y-12143237D01*
X11419337Y-12215363D01*
X11491463Y-12215363D01*
X11491463Y-12469363D02*
X11491463Y-12397237D01*
X11419337Y-12397237D01*
X11419337Y-12469363D01*
X11491463Y-12469363D01*
X11491463Y-12723363D02*
X11491463Y-12651237D01*
X11419337Y-12651237D01*
X11419337Y-12723363D01*
X11491463Y-12723363D01*
X11491463Y-12977363D02*
X11491463Y-12905237D01*
X11419337Y-12905237D01*
X11419337Y-12977363D01*
X11491463Y-12977363D01*
X11491463Y-13231363D02*
X11491463Y-13159237D01*
X11419337Y-13159237D01*
X11419337Y-13231363D01*
X11491463Y-13231363D01*
X11491463Y-13485363D02*
X11491463Y-13413237D01*
X11419337Y-13413237D01*
X11419337Y-13485363D01*
X11491463Y-13485363D01*
X13269463Y-8659363D02*
X13269463Y-8587237D01*
X13197337Y-8587237D01*
X13197337Y-8659363D01*
X13269463Y-8659363D01*
X13269463Y-8913363D02*
X13269463Y-8841237D01*
X13197337Y-8841237D01*
X13197337Y-8913363D01*
X13269463Y-8913363D01*
X13269463Y-9167363D02*
X13269463Y-9095237D01*
X13197337Y-9095237D01*
X13197337Y-9167363D01*
X13269463Y-9167363D01*
X13269463Y-9421363D02*
X13269463Y-9349237D01*
X13197337Y-9349237D01*
X13197337Y-9421363D01*
X13269463Y-9421363D01*
X13269463Y-9675363D02*
X13269463Y-9603237D01*
X13197337Y-9603237D01*
X13197337Y-9675363D01*
X13269463Y-9675363D01*
X13269463Y-9929363D02*
X13269463Y-9857237D01*
X13197337Y-9857237D01*
X13197337Y-9929363D01*
X13269463Y-9929363D01*
X13269463Y-10183363D02*
X13269463Y-10111237D01*
X13197337Y-10111237D01*
X13197337Y-10183363D01*
X13269463Y-10183363D01*
X13269463Y-10437363D02*
X13269463Y-10365237D01*
X13197337Y-10365237D01*
X13197337Y-10437363D01*
X13269463Y-10437363D01*
X13269463Y-10691363D02*
X13269463Y-10619237D01*
X13197337Y-10619237D01*
X13197337Y-10691363D01*
X13269463Y-10691363D01*
X13269463Y-10945363D02*
X13269463Y-10873237D01*
X13197337Y-10873237D01*
X13197337Y-10945363D01*
X13269463Y-10945363D01*
X13269463Y-11199363D02*
X13269463Y-11127237D01*
X13197337Y-11127237D01*
X13197337Y-11199363D01*
X13269463Y-11199363D01*
X13269463Y-11453363D02*
X13269463Y-11381237D01*
X13197337Y-11381237D01*
X13197337Y-11453363D01*
X13269463Y-11453363D01*
X13269463Y-11707363D02*
X13269463Y-11635237D01*
X13197337Y-11635237D01*
X13197337Y-11707363D01*
X13269463Y-11707363D01*
X13269463Y-11961363D02*
X13269463Y-11889237D01*
X13197337Y-11889237D01*
X13197337Y-11961363D01*
X13269463Y-11961363D01*
X13269463Y-12215363D02*
X13269463Y-12143237D01*
X13197337Y-12143237D01*
X13197337Y-12215363D01*
X13269463Y-12215363D01*
X13269463Y-12469363D02*
X13269463Y-12397237D01*
X13197337Y-12397237D01*
X13197337Y-12469363D01*
X13269463Y-12469363D01*
X13269463Y-12723363D02*
X13269463Y-12651237D01*
X13197337Y-12651237D01*
X13197337Y-12723363D01*
X13269463Y-12723363D01*
X13269463Y-12977363D02*
X13269463Y-12905237D01*
X13197337Y-12905237D01*
X13197337Y-12977363D01*
X13269463Y-12977363D01*
X13269463Y-13231363D02*
X13269463Y-13159237D01*
X13197337Y-13159237D01*
X13197337Y-13231363D01*
X13269463Y-13231363D01*
X13269463Y-13485363D02*
X13269463Y-13413237D01*
X13197337Y-13413237D01*
X13197337Y-13485363D01*
X13269463Y-13485363D01*
D11*
X8129777Y-15048484D02*
X8129777Y-14848484D01*
X8129777Y-14848484D02*
X8177396Y-14848484D01*
X8177396Y-14848484D02*
X8205967Y-14858008D01*
X8205967Y-14858008D02*
X8225015Y-14877055D01*
X8225015Y-14877055D02*
X8234539Y-14896103D01*
X8234539Y-14896103D02*
X8244062Y-14934198D01*
X8244062Y-14934198D02*
X8244062Y-14962769D01*
X8244062Y-14962769D02*
X8234539Y-15000865D01*
X8234539Y-15000865D02*
X8225015Y-15019912D01*
X8225015Y-15019912D02*
X8205967Y-15038960D01*
X8205967Y-15038960D02*
X8177396Y-15048484D01*
X8177396Y-15048484D02*
X8129777Y-15048484D01*
X8329777Y-15048484D02*
X8329777Y-14915150D01*
X8329777Y-14953246D02*
X8339301Y-14934198D01*
X8339301Y-14934198D02*
X8348824Y-14924674D01*
X8348824Y-14924674D02*
X8367872Y-14915150D01*
X8367872Y-14915150D02*
X8386920Y-14915150D01*
X8453586Y-15048484D02*
X8453586Y-14915150D01*
X8453586Y-14848484D02*
X8444063Y-14858008D01*
X8444063Y-14858008D02*
X8453586Y-14867531D01*
X8453586Y-14867531D02*
X8463110Y-14858008D01*
X8463110Y-14858008D02*
X8453586Y-14848484D01*
X8453586Y-14848484D02*
X8453586Y-14867531D01*
X8577396Y-15048484D02*
X8558348Y-15038960D01*
X8558348Y-15038960D02*
X8548824Y-15019912D01*
X8548824Y-15019912D02*
X8548824Y-14848484D01*
X8682158Y-15048484D02*
X8663110Y-15038960D01*
X8663110Y-15038960D02*
X8653586Y-15019912D01*
X8653586Y-15019912D02*
X8653586Y-14848484D01*
X8910729Y-15048484D02*
X8910729Y-14848484D01*
X8910729Y-14848484D02*
X8977396Y-14991341D01*
X8977396Y-14991341D02*
X9044063Y-14848484D01*
X9044063Y-14848484D02*
X9044063Y-15048484D01*
X9225015Y-15048484D02*
X9225015Y-14943722D01*
X9225015Y-14943722D02*
X9215491Y-14924674D01*
X9215491Y-14924674D02*
X9196444Y-14915150D01*
X9196444Y-14915150D02*
X9158348Y-14915150D01*
X9158348Y-14915150D02*
X9139301Y-14924674D01*
X9225015Y-15038960D02*
X9205967Y-15048484D01*
X9205967Y-15048484D02*
X9158348Y-15048484D01*
X9158348Y-15048484D02*
X9139301Y-15038960D01*
X9139301Y-15038960D02*
X9129777Y-15019912D01*
X9129777Y-15019912D02*
X9129777Y-15000865D01*
X9129777Y-15000865D02*
X9139301Y-14981817D01*
X9139301Y-14981817D02*
X9158348Y-14972293D01*
X9158348Y-14972293D02*
X9205967Y-14972293D01*
X9205967Y-14972293D02*
X9225015Y-14962769D01*
X9320253Y-14915150D02*
X9320253Y-15115150D01*
X9320253Y-14924674D02*
X9339301Y-14915150D01*
X9339301Y-14915150D02*
X9377396Y-14915150D01*
X9377396Y-14915150D02*
X9396444Y-14924674D01*
X9396444Y-14924674D02*
X9405967Y-14934198D01*
X9405967Y-14934198D02*
X9415491Y-14953246D01*
X9415491Y-14953246D02*
X9415491Y-15010388D01*
X9415491Y-15010388D02*
X9405967Y-15029436D01*
X9405967Y-15029436D02*
X9396444Y-15038960D01*
X9396444Y-15038960D02*
X9377396Y-15048484D01*
X9377396Y-15048484D02*
X9339301Y-15048484D01*
X9339301Y-15048484D02*
X9320253Y-15038960D01*
X9501205Y-15029436D02*
X9510729Y-15038960D01*
X9510729Y-15038960D02*
X9501205Y-15048484D01*
X9501205Y-15048484D02*
X9491682Y-15038960D01*
X9491682Y-15038960D02*
X9501205Y-15029436D01*
X9501205Y-15029436D02*
X9501205Y-15048484D01*
X9501205Y-14924674D02*
X9510729Y-14934198D01*
X9510729Y-14934198D02*
X9501205Y-14943722D01*
X9501205Y-14943722D02*
X9491682Y-14934198D01*
X9491682Y-14934198D02*
X9501205Y-14924674D01*
X9501205Y-14924674D02*
X9501205Y-14943722D01*
D12*
X7829000Y-15357000D02*
X7869000Y-15397000D01*
X7869000Y-15357000D02*
X7829000Y-15397000D01*
D11*
X8167872Y-15268484D02*
X8186920Y-15268484D01*
X8186920Y-15268484D02*
X8205967Y-15278008D01*
X8205967Y-15278008D02*
X8215491Y-15287531D01*
X8215491Y-15287531D02*
X8225015Y-15306579D01*
X8225015Y-15306579D02*
X8234539Y-15344674D01*
X8234539Y-15344674D02*
X8234539Y-15392293D01*
X8234539Y-15392293D02*
X8225015Y-15430388D01*
X8225015Y-15430388D02*
X8215491Y-15449436D01*
X8215491Y-15449436D02*
X8205967Y-15458960D01*
X8205967Y-15458960D02*
X8186920Y-15468484D01*
X8186920Y-15468484D02*
X8167872Y-15468484D01*
X8167872Y-15468484D02*
X8148824Y-15458960D01*
X8148824Y-15458960D02*
X8139301Y-15449436D01*
X8139301Y-15449436D02*
X8129777Y-15430388D01*
X8129777Y-15430388D02*
X8120253Y-15392293D01*
X8120253Y-15392293D02*
X8120253Y-15344674D01*
X8120253Y-15344674D02*
X8129777Y-15306579D01*
X8129777Y-15306579D02*
X8139301Y-15287531D01*
X8139301Y-15287531D02*
X8148824Y-15278008D01*
X8148824Y-15278008D02*
X8167872Y-15268484D01*
X8320253Y-15449436D02*
X8329777Y-15458960D01*
X8329777Y-15458960D02*
X8320253Y-15468484D01*
X8320253Y-15468484D02*
X8310729Y-15458960D01*
X8310729Y-15458960D02*
X8320253Y-15449436D01*
X8320253Y-15449436D02*
X8320253Y-15468484D01*
X8501205Y-15335150D02*
X8501205Y-15468484D01*
X8453586Y-15258960D02*
X8405967Y-15401817D01*
X8405967Y-15401817D02*
X8529777Y-15401817D01*
X8644063Y-15268484D02*
X8663110Y-15268484D01*
X8663110Y-15268484D02*
X8682158Y-15278008D01*
X8682158Y-15278008D02*
X8691682Y-15287531D01*
X8691682Y-15287531D02*
X8701205Y-15306579D01*
X8701205Y-15306579D02*
X8710729Y-15344674D01*
X8710729Y-15344674D02*
X8710729Y-15392293D01*
X8710729Y-15392293D02*
X8701205Y-15430388D01*
X8701205Y-15430388D02*
X8691682Y-15449436D01*
X8691682Y-15449436D02*
X8682158Y-15458960D01*
X8682158Y-15458960D02*
X8663110Y-15468484D01*
X8663110Y-15468484D02*
X8644063Y-15468484D01*
X8644063Y-15468484D02*
X8625015Y-15458960D01*
X8625015Y-15458960D02*
X8615491Y-15449436D01*
X8615491Y-15449436D02*
X8605967Y-15430388D01*
X8605967Y-15430388D02*
X8596444Y-15392293D01*
X8596444Y-15392293D02*
X8596444Y-15344674D01*
X8596444Y-15344674D02*
X8605967Y-15306579D01*
X8605967Y-15306579D02*
X8615491Y-15287531D01*
X8615491Y-15287531D02*
X8625015Y-15278008D01*
X8625015Y-15278008D02*
X8644063Y-15268484D01*
X8834539Y-15268484D02*
X8853586Y-15268484D01*
X8853586Y-15268484D02*
X8872634Y-15278008D01*
X8872634Y-15278008D02*
X8882158Y-15287531D01*
X8882158Y-15287531D02*
X8891682Y-15306579D01*
X8891682Y-15306579D02*
X8901205Y-15344674D01*
X8901205Y-15344674D02*
X8901205Y-15392293D01*
X8901205Y-15392293D02*
X8891682Y-15430388D01*
X8891682Y-15430388D02*
X8882158Y-15449436D01*
X8882158Y-15449436D02*
X8872634Y-15458960D01*
X8872634Y-15458960D02*
X8853586Y-15468484D01*
X8853586Y-15468484D02*
X8834539Y-15468484D01*
X8834539Y-15468484D02*
X8815491Y-15458960D01*
X8815491Y-15458960D02*
X8805967Y-15449436D01*
X8805967Y-15449436D02*
X8796444Y-15430388D01*
X8796444Y-15430388D02*
X8786920Y-15392293D01*
X8786920Y-15392293D02*
X8786920Y-15344674D01*
X8786920Y-15344674D02*
X8796444Y-15306579D01*
X8796444Y-15306579D02*
X8805967Y-15287531D01*
X8805967Y-15287531D02*
X8815491Y-15278008D01*
X8815491Y-15278008D02*
X8834539Y-15268484D01*
X8986920Y-15468484D02*
X8986920Y-15335150D01*
X8986920Y-15354198D02*
X8996444Y-15344674D01*
X8996444Y-15344674D02*
X9015491Y-15335150D01*
X9015491Y-15335150D02*
X9044063Y-15335150D01*
X9044063Y-15335150D02*
X9063110Y-15344674D01*
X9063110Y-15344674D02*
X9072634Y-15363722D01*
X9072634Y-15363722D02*
X9072634Y-15468484D01*
X9072634Y-15363722D02*
X9082158Y-15344674D01*
X9082158Y-15344674D02*
X9101205Y-15335150D01*
X9101205Y-15335150D02*
X9129777Y-15335150D01*
X9129777Y-15335150D02*
X9148825Y-15344674D01*
X9148825Y-15344674D02*
X9158348Y-15363722D01*
X9158348Y-15363722D02*
X9158348Y-15468484D01*
X9253586Y-15468484D02*
X9253586Y-15335150D01*
X9253586Y-15354198D02*
X9263110Y-15344674D01*
X9263110Y-15344674D02*
X9282158Y-15335150D01*
X9282158Y-15335150D02*
X9310729Y-15335150D01*
X9310729Y-15335150D02*
X9329777Y-15344674D01*
X9329777Y-15344674D02*
X9339301Y-15363722D01*
X9339301Y-15363722D02*
X9339301Y-15468484D01*
X9339301Y-15363722D02*
X9348825Y-15344674D01*
X9348825Y-15344674D02*
X9367872Y-15335150D01*
X9367872Y-15335150D02*
X9396444Y-15335150D01*
X9396444Y-15335150D02*
X9415491Y-15344674D01*
X9415491Y-15344674D02*
X9425015Y-15363722D01*
X9425015Y-15363722D02*
X9425015Y-15468484D01*
X9815491Y-15258960D02*
X9644063Y-15516103D01*
X10072634Y-15268484D02*
X10091682Y-15268484D01*
X10091682Y-15268484D02*
X10110729Y-15278008D01*
X10110729Y-15278008D02*
X10120253Y-15287531D01*
X10120253Y-15287531D02*
X10129777Y-15306579D01*
X10129777Y-15306579D02*
X10139301Y-15344674D01*
X10139301Y-15344674D02*
X10139301Y-15392293D01*
X10139301Y-15392293D02*
X10129777Y-15430388D01*
X10129777Y-15430388D02*
X10120253Y-15449436D01*
X10120253Y-15449436D02*
X10110729Y-15458960D01*
X10110729Y-15458960D02*
X10091682Y-15468484D01*
X10091682Y-15468484D02*
X10072634Y-15468484D01*
X10072634Y-15468484D02*
X10053587Y-15458960D01*
X10053587Y-15458960D02*
X10044063Y-15449436D01*
X10044063Y-15449436D02*
X10034539Y-15430388D01*
X10034539Y-15430388D02*
X10025015Y-15392293D01*
X10025015Y-15392293D02*
X10025015Y-15344674D01*
X10025015Y-15344674D02*
X10034539Y-15306579D01*
X10034539Y-15306579D02*
X10044063Y-15287531D01*
X10044063Y-15287531D02*
X10053587Y-15278008D01*
X10053587Y-15278008D02*
X10072634Y-15268484D01*
X10225015Y-15449436D02*
X10234539Y-15458960D01*
X10234539Y-15458960D02*
X10225015Y-15468484D01*
X10225015Y-15468484D02*
X10215491Y-15458960D01*
X10215491Y-15458960D02*
X10225015Y-15449436D01*
X10225015Y-15449436D02*
X10225015Y-15468484D01*
X10358348Y-15268484D02*
X10377396Y-15268484D01*
X10377396Y-15268484D02*
X10396444Y-15278008D01*
X10396444Y-15278008D02*
X10405968Y-15287531D01*
X10405968Y-15287531D02*
X10415491Y-15306579D01*
X10415491Y-15306579D02*
X10425015Y-15344674D01*
X10425015Y-15344674D02*
X10425015Y-15392293D01*
X10425015Y-15392293D02*
X10415491Y-15430388D01*
X10415491Y-15430388D02*
X10405968Y-15449436D01*
X10405968Y-15449436D02*
X10396444Y-15458960D01*
X10396444Y-15458960D02*
X10377396Y-15468484D01*
X10377396Y-15468484D02*
X10358348Y-15468484D01*
X10358348Y-15468484D02*
X10339301Y-15458960D01*
X10339301Y-15458960D02*
X10329777Y-15449436D01*
X10329777Y-15449436D02*
X10320253Y-15430388D01*
X10320253Y-15430388D02*
X10310729Y-15392293D01*
X10310729Y-15392293D02*
X10310729Y-15344674D01*
X10310729Y-15344674D02*
X10320253Y-15306579D01*
X10320253Y-15306579D02*
X10329777Y-15287531D01*
X10329777Y-15287531D02*
X10339301Y-15278008D01*
X10339301Y-15278008D02*
X10358348Y-15268484D01*
X10615491Y-15468484D02*
X10501206Y-15468484D01*
X10558348Y-15468484D02*
X10558348Y-15268484D01*
X10558348Y-15268484D02*
X10539301Y-15297055D01*
X10539301Y-15297055D02*
X10520253Y-15316103D01*
X10520253Y-15316103D02*
X10501206Y-15325627D01*
X10796444Y-15268484D02*
X10701206Y-15268484D01*
X10701206Y-15268484D02*
X10691682Y-15363722D01*
X10691682Y-15363722D02*
X10701206Y-15354198D01*
X10701206Y-15354198D02*
X10720253Y-15344674D01*
X10720253Y-15344674D02*
X10767872Y-15344674D01*
X10767872Y-15344674D02*
X10786920Y-15354198D01*
X10786920Y-15354198D02*
X10796444Y-15363722D01*
X10796444Y-15363722D02*
X10805968Y-15382769D01*
X10805968Y-15382769D02*
X10805968Y-15430388D01*
X10805968Y-15430388D02*
X10796444Y-15449436D01*
X10796444Y-15449436D02*
X10786920Y-15458960D01*
X10786920Y-15458960D02*
X10767872Y-15468484D01*
X10767872Y-15468484D02*
X10720253Y-15468484D01*
X10720253Y-15468484D02*
X10701206Y-15458960D01*
X10701206Y-15458960D02*
X10691682Y-15449436D01*
X10872634Y-15268484D02*
X11005968Y-15268484D01*
X11005968Y-15268484D02*
X10920253Y-15468484D01*
X11072634Y-15268484D02*
X11072634Y-15306579D01*
X11148825Y-15268484D02*
X11148825Y-15306579D01*
X11444063Y-15544674D02*
X11434539Y-15535150D01*
X11434539Y-15535150D02*
X11415491Y-15506579D01*
X11415491Y-15506579D02*
X11405968Y-15487531D01*
X11405968Y-15487531D02*
X11396444Y-15458960D01*
X11396444Y-15458960D02*
X11386920Y-15411341D01*
X11386920Y-15411341D02*
X11386920Y-15373246D01*
X11386920Y-15373246D02*
X11396444Y-15325627D01*
X11396444Y-15325627D02*
X11405968Y-15297055D01*
X11405968Y-15297055D02*
X11415491Y-15278008D01*
X11415491Y-15278008D02*
X11434539Y-15249436D01*
X11434539Y-15249436D02*
X11444063Y-15239912D01*
X11548825Y-15354198D02*
X11529777Y-15344674D01*
X11529777Y-15344674D02*
X11520253Y-15335150D01*
X11520253Y-15335150D02*
X11510729Y-15316103D01*
X11510729Y-15316103D02*
X11510729Y-15306579D01*
X11510729Y-15306579D02*
X11520253Y-15287531D01*
X11520253Y-15287531D02*
X11529777Y-15278008D01*
X11529777Y-15278008D02*
X11548825Y-15268484D01*
X11548825Y-15268484D02*
X11586920Y-15268484D01*
X11586920Y-15268484D02*
X11605968Y-15278008D01*
X11605968Y-15278008D02*
X11615491Y-15287531D01*
X11615491Y-15287531D02*
X11625015Y-15306579D01*
X11625015Y-15306579D02*
X11625015Y-15316103D01*
X11625015Y-15316103D02*
X11615491Y-15335150D01*
X11615491Y-15335150D02*
X11605968Y-15344674D01*
X11605968Y-15344674D02*
X11586920Y-15354198D01*
X11586920Y-15354198D02*
X11548825Y-15354198D01*
X11548825Y-15354198D02*
X11529777Y-15363722D01*
X11529777Y-15363722D02*
X11520253Y-15373246D01*
X11520253Y-15373246D02*
X11510729Y-15392293D01*
X11510729Y-15392293D02*
X11510729Y-15430388D01*
X11510729Y-15430388D02*
X11520253Y-15449436D01*
X11520253Y-15449436D02*
X11529777Y-15458960D01*
X11529777Y-15458960D02*
X11548825Y-15468484D01*
X11548825Y-15468484D02*
X11586920Y-15468484D01*
X11586920Y-15468484D02*
X11605968Y-15458960D01*
X11605968Y-15458960D02*
X11615491Y-15449436D01*
X11615491Y-15449436D02*
X11625015Y-15430388D01*
X11625015Y-15430388D02*
X11625015Y-15392293D01*
X11625015Y-15392293D02*
X11615491Y-15373246D01*
X11615491Y-15373246D02*
X11605968Y-15363722D01*
X11605968Y-15363722D02*
X11586920Y-15354198D01*
X11701206Y-15287531D02*
X11710729Y-15278008D01*
X11710729Y-15278008D02*
X11729777Y-15268484D01*
X11729777Y-15268484D02*
X11777396Y-15268484D01*
X11777396Y-15268484D02*
X11796444Y-15278008D01*
X11796444Y-15278008D02*
X11805968Y-15287531D01*
X11805968Y-15287531D02*
X11815491Y-15306579D01*
X11815491Y-15306579D02*
X11815491Y-15325627D01*
X11815491Y-15325627D02*
X11805968Y-15354198D01*
X11805968Y-15354198D02*
X11691682Y-15468484D01*
X11691682Y-15468484D02*
X11815491Y-15468484D01*
X12053587Y-15468484D02*
X12053587Y-15268484D01*
X12139301Y-15468484D02*
X12139301Y-15363722D01*
X12139301Y-15363722D02*
X12129777Y-15344674D01*
X12129777Y-15344674D02*
X12110730Y-15335150D01*
X12110730Y-15335150D02*
X12082158Y-15335150D01*
X12082158Y-15335150D02*
X12063110Y-15344674D01*
X12063110Y-15344674D02*
X12053587Y-15354198D01*
X12263110Y-15468484D02*
X12244063Y-15458960D01*
X12244063Y-15458960D02*
X12234539Y-15449436D01*
X12234539Y-15449436D02*
X12225015Y-15430388D01*
X12225015Y-15430388D02*
X12225015Y-15373246D01*
X12225015Y-15373246D02*
X12234539Y-15354198D01*
X12234539Y-15354198D02*
X12244063Y-15344674D01*
X12244063Y-15344674D02*
X12263110Y-15335150D01*
X12263110Y-15335150D02*
X12291682Y-15335150D01*
X12291682Y-15335150D02*
X12310730Y-15344674D01*
X12310730Y-15344674D02*
X12320253Y-15354198D01*
X12320253Y-15354198D02*
X12329777Y-15373246D01*
X12329777Y-15373246D02*
X12329777Y-15430388D01*
X12329777Y-15430388D02*
X12320253Y-15449436D01*
X12320253Y-15449436D02*
X12310730Y-15458960D01*
X12310730Y-15458960D02*
X12291682Y-15468484D01*
X12291682Y-15468484D02*
X12263110Y-15468484D01*
X12444063Y-15468484D02*
X12425015Y-15458960D01*
X12425015Y-15458960D02*
X12415491Y-15439912D01*
X12415491Y-15439912D02*
X12415491Y-15268484D01*
X12596444Y-15458960D02*
X12577396Y-15468484D01*
X12577396Y-15468484D02*
X12539301Y-15468484D01*
X12539301Y-15468484D02*
X12520253Y-15458960D01*
X12520253Y-15458960D02*
X12510730Y-15439912D01*
X12510730Y-15439912D02*
X12510730Y-15363722D01*
X12510730Y-15363722D02*
X12520253Y-15344674D01*
X12520253Y-15344674D02*
X12539301Y-15335150D01*
X12539301Y-15335150D02*
X12577396Y-15335150D01*
X12577396Y-15335150D02*
X12596444Y-15344674D01*
X12596444Y-15344674D02*
X12605968Y-15363722D01*
X12605968Y-15363722D02*
X12605968Y-15382769D01*
X12605968Y-15382769D02*
X12510730Y-15401817D01*
X12682158Y-15458960D02*
X12701206Y-15468484D01*
X12701206Y-15468484D02*
X12739301Y-15468484D01*
X12739301Y-15468484D02*
X12758349Y-15458960D01*
X12758349Y-15458960D02*
X12767872Y-15439912D01*
X12767872Y-15439912D02*
X12767872Y-15430388D01*
X12767872Y-15430388D02*
X12758349Y-15411341D01*
X12758349Y-15411341D02*
X12739301Y-15401817D01*
X12739301Y-15401817D02*
X12710730Y-15401817D01*
X12710730Y-15401817D02*
X12691682Y-15392293D01*
X12691682Y-15392293D02*
X12682158Y-15373246D01*
X12682158Y-15373246D02*
X12682158Y-15363722D01*
X12682158Y-15363722D02*
X12691682Y-15344674D01*
X12691682Y-15344674D02*
X12710730Y-15335150D01*
X12710730Y-15335150D02*
X12739301Y-15335150D01*
X12739301Y-15335150D02*
X12758349Y-15344674D01*
X12834539Y-15544674D02*
X12844063Y-15535150D01*
X12844063Y-15535150D02*
X12863111Y-15506579D01*
X12863111Y-15506579D02*
X12872634Y-15487531D01*
X12872634Y-15487531D02*
X12882158Y-15458960D01*
X12882158Y-15458960D02*
X12891682Y-15411341D01*
X12891682Y-15411341D02*
X12891682Y-15373246D01*
X12891682Y-15373246D02*
X12882158Y-15325627D01*
X12882158Y-15325627D02*
X12872634Y-15297055D01*
X12872634Y-15297055D02*
X12863111Y-15278008D01*
X12863111Y-15278008D02*
X12844063Y-15249436D01*
X12844063Y-15249436D02*
X12834539Y-15239912D01*
D13*
X7869000Y-15641000D02*
G75*
G03*
X7869000Y-15641000I-40000J0D01*
G01*
D11*
X8167872Y-15532484D02*
X8186920Y-15532484D01*
X8186920Y-15532484D02*
X8205967Y-15542008D01*
X8205967Y-15542008D02*
X8215491Y-15551531D01*
X8215491Y-15551531D02*
X8225015Y-15570579D01*
X8225015Y-15570579D02*
X8234539Y-15608674D01*
X8234539Y-15608674D02*
X8234539Y-15656293D01*
X8234539Y-15656293D02*
X8225015Y-15694388D01*
X8225015Y-15694388D02*
X8215491Y-15713436D01*
X8215491Y-15713436D02*
X8205967Y-15722960D01*
X8205967Y-15722960D02*
X8186920Y-15732484D01*
X8186920Y-15732484D02*
X8167872Y-15732484D01*
X8167872Y-15732484D02*
X8148824Y-15722960D01*
X8148824Y-15722960D02*
X8139301Y-15713436D01*
X8139301Y-15713436D02*
X8129777Y-15694388D01*
X8129777Y-15694388D02*
X8120253Y-15656293D01*
X8120253Y-15656293D02*
X8120253Y-15608674D01*
X8120253Y-15608674D02*
X8129777Y-15570579D01*
X8129777Y-15570579D02*
X8139301Y-15551531D01*
X8139301Y-15551531D02*
X8148824Y-15542008D01*
X8148824Y-15542008D02*
X8167872Y-15532484D01*
X8320253Y-15713436D02*
X8329777Y-15722960D01*
X8329777Y-15722960D02*
X8320253Y-15732484D01*
X8320253Y-15732484D02*
X8310729Y-15722960D01*
X8310729Y-15722960D02*
X8320253Y-15713436D01*
X8320253Y-15713436D02*
X8320253Y-15732484D01*
X8444063Y-15618198D02*
X8425015Y-15608674D01*
X8425015Y-15608674D02*
X8415491Y-15599150D01*
X8415491Y-15599150D02*
X8405967Y-15580103D01*
X8405967Y-15580103D02*
X8405967Y-15570579D01*
X8405967Y-15570579D02*
X8415491Y-15551531D01*
X8415491Y-15551531D02*
X8425015Y-15542008D01*
X8425015Y-15542008D02*
X8444063Y-15532484D01*
X8444063Y-15532484D02*
X8482158Y-15532484D01*
X8482158Y-15532484D02*
X8501205Y-15542008D01*
X8501205Y-15542008D02*
X8510729Y-15551531D01*
X8510729Y-15551531D02*
X8520253Y-15570579D01*
X8520253Y-15570579D02*
X8520253Y-15580103D01*
X8520253Y-15580103D02*
X8510729Y-15599150D01*
X8510729Y-15599150D02*
X8501205Y-15608674D01*
X8501205Y-15608674D02*
X8482158Y-15618198D01*
X8482158Y-15618198D02*
X8444063Y-15618198D01*
X8444063Y-15618198D02*
X8425015Y-15627722D01*
X8425015Y-15627722D02*
X8415491Y-15637246D01*
X8415491Y-15637246D02*
X8405967Y-15656293D01*
X8405967Y-15656293D02*
X8405967Y-15694388D01*
X8405967Y-15694388D02*
X8415491Y-15713436D01*
X8415491Y-15713436D02*
X8425015Y-15722960D01*
X8425015Y-15722960D02*
X8444063Y-15732484D01*
X8444063Y-15732484D02*
X8482158Y-15732484D01*
X8482158Y-15732484D02*
X8501205Y-15722960D01*
X8501205Y-15722960D02*
X8510729Y-15713436D01*
X8510729Y-15713436D02*
X8520253Y-15694388D01*
X8520253Y-15694388D02*
X8520253Y-15656293D01*
X8520253Y-15656293D02*
X8510729Y-15637246D01*
X8510729Y-15637246D02*
X8501205Y-15627722D01*
X8501205Y-15627722D02*
X8482158Y-15618198D01*
X8644063Y-15532484D02*
X8663110Y-15532484D01*
X8663110Y-15532484D02*
X8682158Y-15542008D01*
X8682158Y-15542008D02*
X8691682Y-15551531D01*
X8691682Y-15551531D02*
X8701205Y-15570579D01*
X8701205Y-15570579D02*
X8710729Y-15608674D01*
X8710729Y-15608674D02*
X8710729Y-15656293D01*
X8710729Y-15656293D02*
X8701205Y-15694388D01*
X8701205Y-15694388D02*
X8691682Y-15713436D01*
X8691682Y-15713436D02*
X8682158Y-15722960D01*
X8682158Y-15722960D02*
X8663110Y-15732484D01*
X8663110Y-15732484D02*
X8644063Y-15732484D01*
X8644063Y-15732484D02*
X8625015Y-15722960D01*
X8625015Y-15722960D02*
X8615491Y-15713436D01*
X8615491Y-15713436D02*
X8605967Y-15694388D01*
X8605967Y-15694388D02*
X8596444Y-15656293D01*
X8596444Y-15656293D02*
X8596444Y-15608674D01*
X8596444Y-15608674D02*
X8605967Y-15570579D01*
X8605967Y-15570579D02*
X8615491Y-15551531D01*
X8615491Y-15551531D02*
X8625015Y-15542008D01*
X8625015Y-15542008D02*
X8644063Y-15532484D01*
X8834539Y-15532484D02*
X8853586Y-15532484D01*
X8853586Y-15532484D02*
X8872634Y-15542008D01*
X8872634Y-15542008D02*
X8882158Y-15551531D01*
X8882158Y-15551531D02*
X8891682Y-15570579D01*
X8891682Y-15570579D02*
X8901205Y-15608674D01*
X8901205Y-15608674D02*
X8901205Y-15656293D01*
X8901205Y-15656293D02*
X8891682Y-15694388D01*
X8891682Y-15694388D02*
X8882158Y-15713436D01*
X8882158Y-15713436D02*
X8872634Y-15722960D01*
X8872634Y-15722960D02*
X8853586Y-15732484D01*
X8853586Y-15732484D02*
X8834539Y-15732484D01*
X8834539Y-15732484D02*
X8815491Y-15722960D01*
X8815491Y-15722960D02*
X8805967Y-15713436D01*
X8805967Y-15713436D02*
X8796444Y-15694388D01*
X8796444Y-15694388D02*
X8786920Y-15656293D01*
X8786920Y-15656293D02*
X8786920Y-15608674D01*
X8786920Y-15608674D02*
X8796444Y-15570579D01*
X8796444Y-15570579D02*
X8805967Y-15551531D01*
X8805967Y-15551531D02*
X8815491Y-15542008D01*
X8815491Y-15542008D02*
X8834539Y-15532484D01*
X8986920Y-15732484D02*
X8986920Y-15599150D01*
X8986920Y-15618198D02*
X8996444Y-15608674D01*
X8996444Y-15608674D02*
X9015491Y-15599150D01*
X9015491Y-15599150D02*
X9044063Y-15599150D01*
X9044063Y-15599150D02*
X9063110Y-15608674D01*
X9063110Y-15608674D02*
X9072634Y-15627722D01*
X9072634Y-15627722D02*
X9072634Y-15732484D01*
X9072634Y-15627722D02*
X9082158Y-15608674D01*
X9082158Y-15608674D02*
X9101205Y-15599150D01*
X9101205Y-15599150D02*
X9129777Y-15599150D01*
X9129777Y-15599150D02*
X9148825Y-15608674D01*
X9148825Y-15608674D02*
X9158348Y-15627722D01*
X9158348Y-15627722D02*
X9158348Y-15732484D01*
X9253586Y-15732484D02*
X9253586Y-15599150D01*
X9253586Y-15618198D02*
X9263110Y-15608674D01*
X9263110Y-15608674D02*
X9282158Y-15599150D01*
X9282158Y-15599150D02*
X9310729Y-15599150D01*
X9310729Y-15599150D02*
X9329777Y-15608674D01*
X9329777Y-15608674D02*
X9339301Y-15627722D01*
X9339301Y-15627722D02*
X9339301Y-15732484D01*
X9339301Y-15627722D02*
X9348825Y-15608674D01*
X9348825Y-15608674D02*
X9367872Y-15599150D01*
X9367872Y-15599150D02*
X9396444Y-15599150D01*
X9396444Y-15599150D02*
X9415491Y-15608674D01*
X9415491Y-15608674D02*
X9425015Y-15627722D01*
X9425015Y-15627722D02*
X9425015Y-15732484D01*
X9815491Y-15522960D02*
X9644063Y-15780103D01*
X10072634Y-15532484D02*
X10091682Y-15532484D01*
X10091682Y-15532484D02*
X10110729Y-15542008D01*
X10110729Y-15542008D02*
X10120253Y-15551531D01*
X10120253Y-15551531D02*
X10129777Y-15570579D01*
X10129777Y-15570579D02*
X10139301Y-15608674D01*
X10139301Y-15608674D02*
X10139301Y-15656293D01*
X10139301Y-15656293D02*
X10129777Y-15694388D01*
X10129777Y-15694388D02*
X10120253Y-15713436D01*
X10120253Y-15713436D02*
X10110729Y-15722960D01*
X10110729Y-15722960D02*
X10091682Y-15732484D01*
X10091682Y-15732484D02*
X10072634Y-15732484D01*
X10072634Y-15732484D02*
X10053587Y-15722960D01*
X10053587Y-15722960D02*
X10044063Y-15713436D01*
X10044063Y-15713436D02*
X10034539Y-15694388D01*
X10034539Y-15694388D02*
X10025015Y-15656293D01*
X10025015Y-15656293D02*
X10025015Y-15608674D01*
X10025015Y-15608674D02*
X10034539Y-15570579D01*
X10034539Y-15570579D02*
X10044063Y-15551531D01*
X10044063Y-15551531D02*
X10053587Y-15542008D01*
X10053587Y-15542008D02*
X10072634Y-15532484D01*
X10225015Y-15713436D02*
X10234539Y-15722960D01*
X10234539Y-15722960D02*
X10225015Y-15732484D01*
X10225015Y-15732484D02*
X10215491Y-15722960D01*
X10215491Y-15722960D02*
X10225015Y-15713436D01*
X10225015Y-15713436D02*
X10225015Y-15732484D01*
X10358348Y-15532484D02*
X10377396Y-15532484D01*
X10377396Y-15532484D02*
X10396444Y-15542008D01*
X10396444Y-15542008D02*
X10405968Y-15551531D01*
X10405968Y-15551531D02*
X10415491Y-15570579D01*
X10415491Y-15570579D02*
X10425015Y-15608674D01*
X10425015Y-15608674D02*
X10425015Y-15656293D01*
X10425015Y-15656293D02*
X10415491Y-15694388D01*
X10415491Y-15694388D02*
X10405968Y-15713436D01*
X10405968Y-15713436D02*
X10396444Y-15722960D01*
X10396444Y-15722960D02*
X10377396Y-15732484D01*
X10377396Y-15732484D02*
X10358348Y-15732484D01*
X10358348Y-15732484D02*
X10339301Y-15722960D01*
X10339301Y-15722960D02*
X10329777Y-15713436D01*
X10329777Y-15713436D02*
X10320253Y-15694388D01*
X10320253Y-15694388D02*
X10310729Y-15656293D01*
X10310729Y-15656293D02*
X10310729Y-15608674D01*
X10310729Y-15608674D02*
X10320253Y-15570579D01*
X10320253Y-15570579D02*
X10329777Y-15551531D01*
X10329777Y-15551531D02*
X10339301Y-15542008D01*
X10339301Y-15542008D02*
X10358348Y-15532484D01*
X10491682Y-15532484D02*
X10615491Y-15532484D01*
X10615491Y-15532484D02*
X10548825Y-15608674D01*
X10548825Y-15608674D02*
X10577396Y-15608674D01*
X10577396Y-15608674D02*
X10596444Y-15618198D01*
X10596444Y-15618198D02*
X10605968Y-15627722D01*
X10605968Y-15627722D02*
X10615491Y-15646769D01*
X10615491Y-15646769D02*
X10615491Y-15694388D01*
X10615491Y-15694388D02*
X10605968Y-15713436D01*
X10605968Y-15713436D02*
X10596444Y-15722960D01*
X10596444Y-15722960D02*
X10577396Y-15732484D01*
X10577396Y-15732484D02*
X10520253Y-15732484D01*
X10520253Y-15732484D02*
X10501206Y-15722960D01*
X10501206Y-15722960D02*
X10491682Y-15713436D01*
X10805968Y-15732484D02*
X10691682Y-15732484D01*
X10748825Y-15732484D02*
X10748825Y-15532484D01*
X10748825Y-15532484D02*
X10729777Y-15561055D01*
X10729777Y-15561055D02*
X10710729Y-15580103D01*
X10710729Y-15580103D02*
X10691682Y-15589627D01*
X10986920Y-15532484D02*
X10891682Y-15532484D01*
X10891682Y-15532484D02*
X10882158Y-15627722D01*
X10882158Y-15627722D02*
X10891682Y-15618198D01*
X10891682Y-15618198D02*
X10910729Y-15608674D01*
X10910729Y-15608674D02*
X10958349Y-15608674D01*
X10958349Y-15608674D02*
X10977396Y-15618198D01*
X10977396Y-15618198D02*
X10986920Y-15627722D01*
X10986920Y-15627722D02*
X10996444Y-15646769D01*
X10996444Y-15646769D02*
X10996444Y-15694388D01*
X10996444Y-15694388D02*
X10986920Y-15713436D01*
X10986920Y-15713436D02*
X10977396Y-15722960D01*
X10977396Y-15722960D02*
X10958349Y-15732484D01*
X10958349Y-15732484D02*
X10910729Y-15732484D01*
X10910729Y-15732484D02*
X10891682Y-15722960D01*
X10891682Y-15722960D02*
X10882158Y-15713436D01*
X11072634Y-15532484D02*
X11072634Y-15570579D01*
X11148825Y-15532484D02*
X11148825Y-15570579D01*
X11444063Y-15808674D02*
X11434539Y-15799150D01*
X11434539Y-15799150D02*
X11415491Y-15770579D01*
X11415491Y-15770579D02*
X11405968Y-15751531D01*
X11405968Y-15751531D02*
X11396444Y-15722960D01*
X11396444Y-15722960D02*
X11386920Y-15675341D01*
X11386920Y-15675341D02*
X11386920Y-15637246D01*
X11386920Y-15637246D02*
X11396444Y-15589627D01*
X11396444Y-15589627D02*
X11405968Y-15561055D01*
X11405968Y-15561055D02*
X11415491Y-15542008D01*
X11415491Y-15542008D02*
X11434539Y-15513436D01*
X11434539Y-15513436D02*
X11444063Y-15503912D01*
X11625015Y-15732484D02*
X11510729Y-15732484D01*
X11567872Y-15732484D02*
X11567872Y-15532484D01*
X11567872Y-15532484D02*
X11548825Y-15561055D01*
X11548825Y-15561055D02*
X11529777Y-15580103D01*
X11529777Y-15580103D02*
X11510729Y-15589627D01*
X11796444Y-15532484D02*
X11758348Y-15532484D01*
X11758348Y-15532484D02*
X11739301Y-15542008D01*
X11739301Y-15542008D02*
X11729777Y-15551531D01*
X11729777Y-15551531D02*
X11710729Y-15580103D01*
X11710729Y-15580103D02*
X11701206Y-15618198D01*
X11701206Y-15618198D02*
X11701206Y-15694388D01*
X11701206Y-15694388D02*
X11710729Y-15713436D01*
X11710729Y-15713436D02*
X11720253Y-15722960D01*
X11720253Y-15722960D02*
X11739301Y-15732484D01*
X11739301Y-15732484D02*
X11777396Y-15732484D01*
X11777396Y-15732484D02*
X11796444Y-15722960D01*
X11796444Y-15722960D02*
X11805968Y-15713436D01*
X11805968Y-15713436D02*
X11815491Y-15694388D01*
X11815491Y-15694388D02*
X11815491Y-15646769D01*
X11815491Y-15646769D02*
X11805968Y-15627722D01*
X11805968Y-15627722D02*
X11796444Y-15618198D01*
X11796444Y-15618198D02*
X11777396Y-15608674D01*
X11777396Y-15608674D02*
X11739301Y-15608674D01*
X11739301Y-15608674D02*
X11720253Y-15618198D01*
X11720253Y-15618198D02*
X11710729Y-15627722D01*
X11710729Y-15627722D02*
X11701206Y-15646769D01*
X12053587Y-15732484D02*
X12053587Y-15532484D01*
X12139301Y-15732484D02*
X12139301Y-15627722D01*
X12139301Y-15627722D02*
X12129777Y-15608674D01*
X12129777Y-15608674D02*
X12110730Y-15599150D01*
X12110730Y-15599150D02*
X12082158Y-15599150D01*
X12082158Y-15599150D02*
X12063110Y-15608674D01*
X12063110Y-15608674D02*
X12053587Y-15618198D01*
X12263110Y-15732484D02*
X12244063Y-15722960D01*
X12244063Y-15722960D02*
X12234539Y-15713436D01*
X12234539Y-15713436D02*
X12225015Y-15694388D01*
X12225015Y-15694388D02*
X12225015Y-15637246D01*
X12225015Y-15637246D02*
X12234539Y-15618198D01*
X12234539Y-15618198D02*
X12244063Y-15608674D01*
X12244063Y-15608674D02*
X12263110Y-15599150D01*
X12263110Y-15599150D02*
X12291682Y-15599150D01*
X12291682Y-15599150D02*
X12310730Y-15608674D01*
X12310730Y-15608674D02*
X12320253Y-15618198D01*
X12320253Y-15618198D02*
X12329777Y-15637246D01*
X12329777Y-15637246D02*
X12329777Y-15694388D01*
X12329777Y-15694388D02*
X12320253Y-15713436D01*
X12320253Y-15713436D02*
X12310730Y-15722960D01*
X12310730Y-15722960D02*
X12291682Y-15732484D01*
X12291682Y-15732484D02*
X12263110Y-15732484D01*
X12444063Y-15732484D02*
X12425015Y-15722960D01*
X12425015Y-15722960D02*
X12415491Y-15703912D01*
X12415491Y-15703912D02*
X12415491Y-15532484D01*
X12596444Y-15722960D02*
X12577396Y-15732484D01*
X12577396Y-15732484D02*
X12539301Y-15732484D01*
X12539301Y-15732484D02*
X12520253Y-15722960D01*
X12520253Y-15722960D02*
X12510730Y-15703912D01*
X12510730Y-15703912D02*
X12510730Y-15627722D01*
X12510730Y-15627722D02*
X12520253Y-15608674D01*
X12520253Y-15608674D02*
X12539301Y-15599150D01*
X12539301Y-15599150D02*
X12577396Y-15599150D01*
X12577396Y-15599150D02*
X12596444Y-15608674D01*
X12596444Y-15608674D02*
X12605968Y-15627722D01*
X12605968Y-15627722D02*
X12605968Y-15646769D01*
X12605968Y-15646769D02*
X12510730Y-15665817D01*
X12682158Y-15722960D02*
X12701206Y-15732484D01*
X12701206Y-15732484D02*
X12739301Y-15732484D01*
X12739301Y-15732484D02*
X12758349Y-15722960D01*
X12758349Y-15722960D02*
X12767872Y-15703912D01*
X12767872Y-15703912D02*
X12767872Y-15694388D01*
X12767872Y-15694388D02*
X12758349Y-15675341D01*
X12758349Y-15675341D02*
X12739301Y-15665817D01*
X12739301Y-15665817D02*
X12710730Y-15665817D01*
X12710730Y-15665817D02*
X12691682Y-15656293D01*
X12691682Y-15656293D02*
X12682158Y-15637246D01*
X12682158Y-15637246D02*
X12682158Y-15627722D01*
X12682158Y-15627722D02*
X12691682Y-15608674D01*
X12691682Y-15608674D02*
X12710730Y-15599150D01*
X12710730Y-15599150D02*
X12739301Y-15599150D01*
X12739301Y-15599150D02*
X12758349Y-15608674D01*
X12834539Y-15808674D02*
X12844063Y-15799150D01*
X12844063Y-15799150D02*
X12863111Y-15770579D01*
X12863111Y-15770579D02*
X12872634Y-15751531D01*
X12872634Y-15751531D02*
X12882158Y-15722960D01*
X12882158Y-15722960D02*
X12891682Y-15675341D01*
X12891682Y-15675341D02*
X12891682Y-15637246D01*
X12891682Y-15637246D02*
X12882158Y-15589627D01*
X12882158Y-15589627D02*
X12872634Y-15561055D01*
X12872634Y-15561055D02*
X12863111Y-15542008D01*
X12863111Y-15542008D02*
X12844063Y-15513436D01*
X12844063Y-15513436D02*
X12834539Y-15503912D01*
D10*
X7819000Y-15855000D02*
X7819000Y-15955000D01*
X7769000Y-15905000D02*
X7869000Y-15905000D01*
D11*
X8234539Y-15996484D02*
X8120253Y-15996484D01*
X8177396Y-15996484D02*
X8177396Y-15796484D01*
X8177396Y-15796484D02*
X8158348Y-15825055D01*
X8158348Y-15825055D02*
X8139301Y-15844103D01*
X8139301Y-15844103D02*
X8120253Y-15853627D01*
X8320253Y-15977436D02*
X8329777Y-15986960D01*
X8329777Y-15986960D02*
X8320253Y-15996484D01*
X8320253Y-15996484D02*
X8310729Y-15986960D01*
X8310729Y-15986960D02*
X8320253Y-15977436D01*
X8320253Y-15977436D02*
X8320253Y-15996484D01*
X8453586Y-15796484D02*
X8472634Y-15796484D01*
X8472634Y-15796484D02*
X8491682Y-15806008D01*
X8491682Y-15806008D02*
X8501205Y-15815531D01*
X8501205Y-15815531D02*
X8510729Y-15834579D01*
X8510729Y-15834579D02*
X8520253Y-15872674D01*
X8520253Y-15872674D02*
X8520253Y-15920293D01*
X8520253Y-15920293D02*
X8510729Y-15958388D01*
X8510729Y-15958388D02*
X8501205Y-15977436D01*
X8501205Y-15977436D02*
X8491682Y-15986960D01*
X8491682Y-15986960D02*
X8472634Y-15996484D01*
X8472634Y-15996484D02*
X8453586Y-15996484D01*
X8453586Y-15996484D02*
X8434539Y-15986960D01*
X8434539Y-15986960D02*
X8425015Y-15977436D01*
X8425015Y-15977436D02*
X8415491Y-15958388D01*
X8415491Y-15958388D02*
X8405967Y-15920293D01*
X8405967Y-15920293D02*
X8405967Y-15872674D01*
X8405967Y-15872674D02*
X8415491Y-15834579D01*
X8415491Y-15834579D02*
X8425015Y-15815531D01*
X8425015Y-15815531D02*
X8434539Y-15806008D01*
X8434539Y-15806008D02*
X8453586Y-15796484D01*
X8644063Y-15796484D02*
X8663110Y-15796484D01*
X8663110Y-15796484D02*
X8682158Y-15806008D01*
X8682158Y-15806008D02*
X8691682Y-15815531D01*
X8691682Y-15815531D02*
X8701205Y-15834579D01*
X8701205Y-15834579D02*
X8710729Y-15872674D01*
X8710729Y-15872674D02*
X8710729Y-15920293D01*
X8710729Y-15920293D02*
X8701205Y-15958388D01*
X8701205Y-15958388D02*
X8691682Y-15977436D01*
X8691682Y-15977436D02*
X8682158Y-15986960D01*
X8682158Y-15986960D02*
X8663110Y-15996484D01*
X8663110Y-15996484D02*
X8644063Y-15996484D01*
X8644063Y-15996484D02*
X8625015Y-15986960D01*
X8625015Y-15986960D02*
X8615491Y-15977436D01*
X8615491Y-15977436D02*
X8605967Y-15958388D01*
X8605967Y-15958388D02*
X8596444Y-15920293D01*
X8596444Y-15920293D02*
X8596444Y-15872674D01*
X8596444Y-15872674D02*
X8605967Y-15834579D01*
X8605967Y-15834579D02*
X8615491Y-15815531D01*
X8615491Y-15815531D02*
X8625015Y-15806008D01*
X8625015Y-15806008D02*
X8644063Y-15796484D01*
X8834539Y-15796484D02*
X8853586Y-15796484D01*
X8853586Y-15796484D02*
X8872634Y-15806008D01*
X8872634Y-15806008D02*
X8882158Y-15815531D01*
X8882158Y-15815531D02*
X8891682Y-15834579D01*
X8891682Y-15834579D02*
X8901205Y-15872674D01*
X8901205Y-15872674D02*
X8901205Y-15920293D01*
X8901205Y-15920293D02*
X8891682Y-15958388D01*
X8891682Y-15958388D02*
X8882158Y-15977436D01*
X8882158Y-15977436D02*
X8872634Y-15986960D01*
X8872634Y-15986960D02*
X8853586Y-15996484D01*
X8853586Y-15996484D02*
X8834539Y-15996484D01*
X8834539Y-15996484D02*
X8815491Y-15986960D01*
X8815491Y-15986960D02*
X8805967Y-15977436D01*
X8805967Y-15977436D02*
X8796444Y-15958388D01*
X8796444Y-15958388D02*
X8786920Y-15920293D01*
X8786920Y-15920293D02*
X8786920Y-15872674D01*
X8786920Y-15872674D02*
X8796444Y-15834579D01*
X8796444Y-15834579D02*
X8805967Y-15815531D01*
X8805967Y-15815531D02*
X8815491Y-15806008D01*
X8815491Y-15806008D02*
X8834539Y-15796484D01*
X8986920Y-15996484D02*
X8986920Y-15863150D01*
X8986920Y-15882198D02*
X8996444Y-15872674D01*
X8996444Y-15872674D02*
X9015491Y-15863150D01*
X9015491Y-15863150D02*
X9044063Y-15863150D01*
X9044063Y-15863150D02*
X9063110Y-15872674D01*
X9063110Y-15872674D02*
X9072634Y-15891722D01*
X9072634Y-15891722D02*
X9072634Y-15996484D01*
X9072634Y-15891722D02*
X9082158Y-15872674D01*
X9082158Y-15872674D02*
X9101205Y-15863150D01*
X9101205Y-15863150D02*
X9129777Y-15863150D01*
X9129777Y-15863150D02*
X9148825Y-15872674D01*
X9148825Y-15872674D02*
X9158348Y-15891722D01*
X9158348Y-15891722D02*
X9158348Y-15996484D01*
X9253586Y-15996484D02*
X9253586Y-15863150D01*
X9253586Y-15882198D02*
X9263110Y-15872674D01*
X9263110Y-15872674D02*
X9282158Y-15863150D01*
X9282158Y-15863150D02*
X9310729Y-15863150D01*
X9310729Y-15863150D02*
X9329777Y-15872674D01*
X9329777Y-15872674D02*
X9339301Y-15891722D01*
X9339301Y-15891722D02*
X9339301Y-15996484D01*
X9339301Y-15891722D02*
X9348825Y-15872674D01*
X9348825Y-15872674D02*
X9367872Y-15863150D01*
X9367872Y-15863150D02*
X9396444Y-15863150D01*
X9396444Y-15863150D02*
X9415491Y-15872674D01*
X9415491Y-15872674D02*
X9425015Y-15891722D01*
X9425015Y-15891722D02*
X9425015Y-15996484D01*
X9815491Y-15786960D02*
X9644063Y-16044103D01*
X10072634Y-15796484D02*
X10091682Y-15796484D01*
X10091682Y-15796484D02*
X10110729Y-15806008D01*
X10110729Y-15806008D02*
X10120253Y-15815531D01*
X10120253Y-15815531D02*
X10129777Y-15834579D01*
X10129777Y-15834579D02*
X10139301Y-15872674D01*
X10139301Y-15872674D02*
X10139301Y-15920293D01*
X10139301Y-15920293D02*
X10129777Y-15958388D01*
X10129777Y-15958388D02*
X10120253Y-15977436D01*
X10120253Y-15977436D02*
X10110729Y-15986960D01*
X10110729Y-15986960D02*
X10091682Y-15996484D01*
X10091682Y-15996484D02*
X10072634Y-15996484D01*
X10072634Y-15996484D02*
X10053587Y-15986960D01*
X10053587Y-15986960D02*
X10044063Y-15977436D01*
X10044063Y-15977436D02*
X10034539Y-15958388D01*
X10034539Y-15958388D02*
X10025015Y-15920293D01*
X10025015Y-15920293D02*
X10025015Y-15872674D01*
X10025015Y-15872674D02*
X10034539Y-15834579D01*
X10034539Y-15834579D02*
X10044063Y-15815531D01*
X10044063Y-15815531D02*
X10053587Y-15806008D01*
X10053587Y-15806008D02*
X10072634Y-15796484D01*
X10225015Y-15977436D02*
X10234539Y-15986960D01*
X10234539Y-15986960D02*
X10225015Y-15996484D01*
X10225015Y-15996484D02*
X10215491Y-15986960D01*
X10215491Y-15986960D02*
X10225015Y-15977436D01*
X10225015Y-15977436D02*
X10225015Y-15996484D01*
X10358348Y-15796484D02*
X10377396Y-15796484D01*
X10377396Y-15796484D02*
X10396444Y-15806008D01*
X10396444Y-15806008D02*
X10405968Y-15815531D01*
X10405968Y-15815531D02*
X10415491Y-15834579D01*
X10415491Y-15834579D02*
X10425015Y-15872674D01*
X10425015Y-15872674D02*
X10425015Y-15920293D01*
X10425015Y-15920293D02*
X10415491Y-15958388D01*
X10415491Y-15958388D02*
X10405968Y-15977436D01*
X10405968Y-15977436D02*
X10396444Y-15986960D01*
X10396444Y-15986960D02*
X10377396Y-15996484D01*
X10377396Y-15996484D02*
X10358348Y-15996484D01*
X10358348Y-15996484D02*
X10339301Y-15986960D01*
X10339301Y-15986960D02*
X10329777Y-15977436D01*
X10329777Y-15977436D02*
X10320253Y-15958388D01*
X10320253Y-15958388D02*
X10310729Y-15920293D01*
X10310729Y-15920293D02*
X10310729Y-15872674D01*
X10310729Y-15872674D02*
X10320253Y-15834579D01*
X10320253Y-15834579D02*
X10329777Y-15815531D01*
X10329777Y-15815531D02*
X10339301Y-15806008D01*
X10339301Y-15806008D02*
X10358348Y-15796484D01*
X10491682Y-15796484D02*
X10615491Y-15796484D01*
X10615491Y-15796484D02*
X10548825Y-15872674D01*
X10548825Y-15872674D02*
X10577396Y-15872674D01*
X10577396Y-15872674D02*
X10596444Y-15882198D01*
X10596444Y-15882198D02*
X10605968Y-15891722D01*
X10605968Y-15891722D02*
X10615491Y-15910769D01*
X10615491Y-15910769D02*
X10615491Y-15958388D01*
X10615491Y-15958388D02*
X10605968Y-15977436D01*
X10605968Y-15977436D02*
X10596444Y-15986960D01*
X10596444Y-15986960D02*
X10577396Y-15996484D01*
X10577396Y-15996484D02*
X10520253Y-15996484D01*
X10520253Y-15996484D02*
X10501206Y-15986960D01*
X10501206Y-15986960D02*
X10491682Y-15977436D01*
X10710729Y-15996484D02*
X10748825Y-15996484D01*
X10748825Y-15996484D02*
X10767872Y-15986960D01*
X10767872Y-15986960D02*
X10777396Y-15977436D01*
X10777396Y-15977436D02*
X10796444Y-15948865D01*
X10796444Y-15948865D02*
X10805968Y-15910769D01*
X10805968Y-15910769D02*
X10805968Y-15834579D01*
X10805968Y-15834579D02*
X10796444Y-15815531D01*
X10796444Y-15815531D02*
X10786920Y-15806008D01*
X10786920Y-15806008D02*
X10767872Y-15796484D01*
X10767872Y-15796484D02*
X10729777Y-15796484D01*
X10729777Y-15796484D02*
X10710729Y-15806008D01*
X10710729Y-15806008D02*
X10701206Y-15815531D01*
X10701206Y-15815531D02*
X10691682Y-15834579D01*
X10691682Y-15834579D02*
X10691682Y-15882198D01*
X10691682Y-15882198D02*
X10701206Y-15901246D01*
X10701206Y-15901246D02*
X10710729Y-15910769D01*
X10710729Y-15910769D02*
X10729777Y-15920293D01*
X10729777Y-15920293D02*
X10767872Y-15920293D01*
X10767872Y-15920293D02*
X10786920Y-15910769D01*
X10786920Y-15910769D02*
X10796444Y-15901246D01*
X10796444Y-15901246D02*
X10805968Y-15882198D01*
X10977396Y-15863150D02*
X10977396Y-15996484D01*
X10929777Y-15786960D02*
X10882158Y-15929817D01*
X10882158Y-15929817D02*
X11005968Y-15929817D01*
X11072634Y-15796484D02*
X11072634Y-15834579D01*
X11148825Y-15796484D02*
X11148825Y-15834579D01*
X11444063Y-16072674D02*
X11434539Y-16063150D01*
X11434539Y-16063150D02*
X11415491Y-16034579D01*
X11415491Y-16034579D02*
X11405968Y-16015531D01*
X11405968Y-16015531D02*
X11396444Y-15986960D01*
X11396444Y-15986960D02*
X11386920Y-15939341D01*
X11386920Y-15939341D02*
X11386920Y-15901246D01*
X11386920Y-15901246D02*
X11396444Y-15853627D01*
X11396444Y-15853627D02*
X11405968Y-15825055D01*
X11405968Y-15825055D02*
X11415491Y-15806008D01*
X11415491Y-15806008D02*
X11434539Y-15777436D01*
X11434539Y-15777436D02*
X11444063Y-15767912D01*
X11501206Y-15796484D02*
X11625015Y-15796484D01*
X11625015Y-15796484D02*
X11558348Y-15872674D01*
X11558348Y-15872674D02*
X11586920Y-15872674D01*
X11586920Y-15872674D02*
X11605968Y-15882198D01*
X11605968Y-15882198D02*
X11615491Y-15891722D01*
X11615491Y-15891722D02*
X11625015Y-15910769D01*
X11625015Y-15910769D02*
X11625015Y-15958388D01*
X11625015Y-15958388D02*
X11615491Y-15977436D01*
X11615491Y-15977436D02*
X11605968Y-15986960D01*
X11605968Y-15986960D02*
X11586920Y-15996484D01*
X11586920Y-15996484D02*
X11529777Y-15996484D01*
X11529777Y-15996484D02*
X11510729Y-15986960D01*
X11510729Y-15986960D02*
X11501206Y-15977436D01*
X11863110Y-15996484D02*
X11863110Y-15796484D01*
X11948825Y-15996484D02*
X11948825Y-15891722D01*
X11948825Y-15891722D02*
X11939301Y-15872674D01*
X11939301Y-15872674D02*
X11920253Y-15863150D01*
X11920253Y-15863150D02*
X11891682Y-15863150D01*
X11891682Y-15863150D02*
X11872634Y-15872674D01*
X11872634Y-15872674D02*
X11863110Y-15882198D01*
X12072634Y-15996484D02*
X12053587Y-15986960D01*
X12053587Y-15986960D02*
X12044063Y-15977436D01*
X12044063Y-15977436D02*
X12034539Y-15958388D01*
X12034539Y-15958388D02*
X12034539Y-15901246D01*
X12034539Y-15901246D02*
X12044063Y-15882198D01*
X12044063Y-15882198D02*
X12053587Y-15872674D01*
X12053587Y-15872674D02*
X12072634Y-15863150D01*
X12072634Y-15863150D02*
X12101206Y-15863150D01*
X12101206Y-15863150D02*
X12120253Y-15872674D01*
X12120253Y-15872674D02*
X12129777Y-15882198D01*
X12129777Y-15882198D02*
X12139301Y-15901246D01*
X12139301Y-15901246D02*
X12139301Y-15958388D01*
X12139301Y-15958388D02*
X12129777Y-15977436D01*
X12129777Y-15977436D02*
X12120253Y-15986960D01*
X12120253Y-15986960D02*
X12101206Y-15996484D01*
X12101206Y-15996484D02*
X12072634Y-15996484D01*
X12253587Y-15996484D02*
X12234539Y-15986960D01*
X12234539Y-15986960D02*
X12225015Y-15967912D01*
X12225015Y-15967912D02*
X12225015Y-15796484D01*
X12405968Y-15986960D02*
X12386920Y-15996484D01*
X12386920Y-15996484D02*
X12348825Y-15996484D01*
X12348825Y-15996484D02*
X12329777Y-15986960D01*
X12329777Y-15986960D02*
X12320253Y-15967912D01*
X12320253Y-15967912D02*
X12320253Y-15891722D01*
X12320253Y-15891722D02*
X12329777Y-15872674D01*
X12329777Y-15872674D02*
X12348825Y-15863150D01*
X12348825Y-15863150D02*
X12386920Y-15863150D01*
X12386920Y-15863150D02*
X12405968Y-15872674D01*
X12405968Y-15872674D02*
X12415491Y-15891722D01*
X12415491Y-15891722D02*
X12415491Y-15910769D01*
X12415491Y-15910769D02*
X12320253Y-15929817D01*
X12491682Y-15986960D02*
X12510730Y-15996484D01*
X12510730Y-15996484D02*
X12548825Y-15996484D01*
X12548825Y-15996484D02*
X12567872Y-15986960D01*
X12567872Y-15986960D02*
X12577396Y-15967912D01*
X12577396Y-15967912D02*
X12577396Y-15958388D01*
X12577396Y-15958388D02*
X12567872Y-15939341D01*
X12567872Y-15939341D02*
X12548825Y-15929817D01*
X12548825Y-15929817D02*
X12520253Y-15929817D01*
X12520253Y-15929817D02*
X12501206Y-15920293D01*
X12501206Y-15920293D02*
X12491682Y-15901246D01*
X12491682Y-15901246D02*
X12491682Y-15891722D01*
X12491682Y-15891722D02*
X12501206Y-15872674D01*
X12501206Y-15872674D02*
X12520253Y-15863150D01*
X12520253Y-15863150D02*
X12548825Y-15863150D01*
X12548825Y-15863150D02*
X12567872Y-15872674D01*
X12644063Y-16072674D02*
X12653587Y-16063150D01*
X12653587Y-16063150D02*
X12672634Y-16034579D01*
X12672634Y-16034579D02*
X12682158Y-16015531D01*
X12682158Y-16015531D02*
X12691682Y-15986960D01*
X12691682Y-15986960D02*
X12701206Y-15939341D01*
X12701206Y-15939341D02*
X12701206Y-15901246D01*
X12701206Y-15901246D02*
X12691682Y-15853627D01*
X12691682Y-15853627D02*
X12682158Y-15825055D01*
X12682158Y-15825055D02*
X12672634Y-15806008D01*
X12672634Y-15806008D02*
X12653587Y-15777436D01*
X12653587Y-15777436D02*
X12644063Y-15767912D01*
D14*
X7854063Y-16205063D02*
X7854063Y-16132937D01*
X7781937Y-16132937D01*
X7781937Y-16205063D01*
X7854063Y-16205063D01*
D11*
X8234539Y-16260484D02*
X8120253Y-16260484D01*
X8177396Y-16260484D02*
X8177396Y-16060484D01*
X8177396Y-16060484D02*
X8158348Y-16089055D01*
X8158348Y-16089055D02*
X8139301Y-16108103D01*
X8139301Y-16108103D02*
X8120253Y-16117627D01*
X8320253Y-16241436D02*
X8329777Y-16250960D01*
X8329777Y-16250960D02*
X8320253Y-16260484D01*
X8320253Y-16260484D02*
X8310729Y-16250960D01*
X8310729Y-16250960D02*
X8320253Y-16241436D01*
X8320253Y-16241436D02*
X8320253Y-16260484D01*
X8453586Y-16060484D02*
X8472634Y-16060484D01*
X8472634Y-16060484D02*
X8491682Y-16070008D01*
X8491682Y-16070008D02*
X8501205Y-16079531D01*
X8501205Y-16079531D02*
X8510729Y-16098579D01*
X8510729Y-16098579D02*
X8520253Y-16136674D01*
X8520253Y-16136674D02*
X8520253Y-16184293D01*
X8520253Y-16184293D02*
X8510729Y-16222388D01*
X8510729Y-16222388D02*
X8501205Y-16241436D01*
X8501205Y-16241436D02*
X8491682Y-16250960D01*
X8491682Y-16250960D02*
X8472634Y-16260484D01*
X8472634Y-16260484D02*
X8453586Y-16260484D01*
X8453586Y-16260484D02*
X8434539Y-16250960D01*
X8434539Y-16250960D02*
X8425015Y-16241436D01*
X8425015Y-16241436D02*
X8415491Y-16222388D01*
X8415491Y-16222388D02*
X8405967Y-16184293D01*
X8405967Y-16184293D02*
X8405967Y-16136674D01*
X8405967Y-16136674D02*
X8415491Y-16098579D01*
X8415491Y-16098579D02*
X8425015Y-16079531D01*
X8425015Y-16079531D02*
X8434539Y-16070008D01*
X8434539Y-16070008D02*
X8453586Y-16060484D01*
X8596444Y-16079531D02*
X8605967Y-16070008D01*
X8605967Y-16070008D02*
X8625015Y-16060484D01*
X8625015Y-16060484D02*
X8672634Y-16060484D01*
X8672634Y-16060484D02*
X8691682Y-16070008D01*
X8691682Y-16070008D02*
X8701205Y-16079531D01*
X8701205Y-16079531D02*
X8710729Y-16098579D01*
X8710729Y-16098579D02*
X8710729Y-16117627D01*
X8710729Y-16117627D02*
X8701205Y-16146198D01*
X8701205Y-16146198D02*
X8586920Y-16260484D01*
X8586920Y-16260484D02*
X8710729Y-16260484D01*
X8834539Y-16060484D02*
X8853586Y-16060484D01*
X8853586Y-16060484D02*
X8872634Y-16070008D01*
X8872634Y-16070008D02*
X8882158Y-16079531D01*
X8882158Y-16079531D02*
X8891682Y-16098579D01*
X8891682Y-16098579D02*
X8901205Y-16136674D01*
X8901205Y-16136674D02*
X8901205Y-16184293D01*
X8901205Y-16184293D02*
X8891682Y-16222388D01*
X8891682Y-16222388D02*
X8882158Y-16241436D01*
X8882158Y-16241436D02*
X8872634Y-16250960D01*
X8872634Y-16250960D02*
X8853586Y-16260484D01*
X8853586Y-16260484D02*
X8834539Y-16260484D01*
X8834539Y-16260484D02*
X8815491Y-16250960D01*
X8815491Y-16250960D02*
X8805967Y-16241436D01*
X8805967Y-16241436D02*
X8796444Y-16222388D01*
X8796444Y-16222388D02*
X8786920Y-16184293D01*
X8786920Y-16184293D02*
X8786920Y-16136674D01*
X8786920Y-16136674D02*
X8796444Y-16098579D01*
X8796444Y-16098579D02*
X8805967Y-16079531D01*
X8805967Y-16079531D02*
X8815491Y-16070008D01*
X8815491Y-16070008D02*
X8834539Y-16060484D01*
X8986920Y-16260484D02*
X8986920Y-16127150D01*
X8986920Y-16146198D02*
X8996444Y-16136674D01*
X8996444Y-16136674D02*
X9015491Y-16127150D01*
X9015491Y-16127150D02*
X9044063Y-16127150D01*
X9044063Y-16127150D02*
X9063110Y-16136674D01*
X9063110Y-16136674D02*
X9072634Y-16155722D01*
X9072634Y-16155722D02*
X9072634Y-16260484D01*
X9072634Y-16155722D02*
X9082158Y-16136674D01*
X9082158Y-16136674D02*
X9101205Y-16127150D01*
X9101205Y-16127150D02*
X9129777Y-16127150D01*
X9129777Y-16127150D02*
X9148825Y-16136674D01*
X9148825Y-16136674D02*
X9158348Y-16155722D01*
X9158348Y-16155722D02*
X9158348Y-16260484D01*
X9253586Y-16260484D02*
X9253586Y-16127150D01*
X9253586Y-16146198D02*
X9263110Y-16136674D01*
X9263110Y-16136674D02*
X9282158Y-16127150D01*
X9282158Y-16127150D02*
X9310729Y-16127150D01*
X9310729Y-16127150D02*
X9329777Y-16136674D01*
X9329777Y-16136674D02*
X9339301Y-16155722D01*
X9339301Y-16155722D02*
X9339301Y-16260484D01*
X9339301Y-16155722D02*
X9348825Y-16136674D01*
X9348825Y-16136674D02*
X9367872Y-16127150D01*
X9367872Y-16127150D02*
X9396444Y-16127150D01*
X9396444Y-16127150D02*
X9415491Y-16136674D01*
X9415491Y-16136674D02*
X9425015Y-16155722D01*
X9425015Y-16155722D02*
X9425015Y-16260484D01*
X9815491Y-16050960D02*
X9644063Y-16308103D01*
X10072634Y-16060484D02*
X10091682Y-16060484D01*
X10091682Y-16060484D02*
X10110729Y-16070008D01*
X10110729Y-16070008D02*
X10120253Y-16079531D01*
X10120253Y-16079531D02*
X10129777Y-16098579D01*
X10129777Y-16098579D02*
X10139301Y-16136674D01*
X10139301Y-16136674D02*
X10139301Y-16184293D01*
X10139301Y-16184293D02*
X10129777Y-16222388D01*
X10129777Y-16222388D02*
X10120253Y-16241436D01*
X10120253Y-16241436D02*
X10110729Y-16250960D01*
X10110729Y-16250960D02*
X10091682Y-16260484D01*
X10091682Y-16260484D02*
X10072634Y-16260484D01*
X10072634Y-16260484D02*
X10053587Y-16250960D01*
X10053587Y-16250960D02*
X10044063Y-16241436D01*
X10044063Y-16241436D02*
X10034539Y-16222388D01*
X10034539Y-16222388D02*
X10025015Y-16184293D01*
X10025015Y-16184293D02*
X10025015Y-16136674D01*
X10025015Y-16136674D02*
X10034539Y-16098579D01*
X10034539Y-16098579D02*
X10044063Y-16079531D01*
X10044063Y-16079531D02*
X10053587Y-16070008D01*
X10053587Y-16070008D02*
X10072634Y-16060484D01*
X10225015Y-16241436D02*
X10234539Y-16250960D01*
X10234539Y-16250960D02*
X10225015Y-16260484D01*
X10225015Y-16260484D02*
X10215491Y-16250960D01*
X10215491Y-16250960D02*
X10225015Y-16241436D01*
X10225015Y-16241436D02*
X10225015Y-16260484D01*
X10358348Y-16060484D02*
X10377396Y-16060484D01*
X10377396Y-16060484D02*
X10396444Y-16070008D01*
X10396444Y-16070008D02*
X10405968Y-16079531D01*
X10405968Y-16079531D02*
X10415491Y-16098579D01*
X10415491Y-16098579D02*
X10425015Y-16136674D01*
X10425015Y-16136674D02*
X10425015Y-16184293D01*
X10425015Y-16184293D02*
X10415491Y-16222388D01*
X10415491Y-16222388D02*
X10405968Y-16241436D01*
X10405968Y-16241436D02*
X10396444Y-16250960D01*
X10396444Y-16250960D02*
X10377396Y-16260484D01*
X10377396Y-16260484D02*
X10358348Y-16260484D01*
X10358348Y-16260484D02*
X10339301Y-16250960D01*
X10339301Y-16250960D02*
X10329777Y-16241436D01*
X10329777Y-16241436D02*
X10320253Y-16222388D01*
X10320253Y-16222388D02*
X10310729Y-16184293D01*
X10310729Y-16184293D02*
X10310729Y-16136674D01*
X10310729Y-16136674D02*
X10320253Y-16098579D01*
X10320253Y-16098579D02*
X10329777Y-16079531D01*
X10329777Y-16079531D02*
X10339301Y-16070008D01*
X10339301Y-16070008D02*
X10358348Y-16060484D01*
X10596444Y-16127150D02*
X10596444Y-16260484D01*
X10548825Y-16050960D02*
X10501206Y-16193817D01*
X10501206Y-16193817D02*
X10625015Y-16193817D01*
X10739301Y-16060484D02*
X10758349Y-16060484D01*
X10758349Y-16060484D02*
X10777396Y-16070008D01*
X10777396Y-16070008D02*
X10786920Y-16079531D01*
X10786920Y-16079531D02*
X10796444Y-16098579D01*
X10796444Y-16098579D02*
X10805968Y-16136674D01*
X10805968Y-16136674D02*
X10805968Y-16184293D01*
X10805968Y-16184293D02*
X10796444Y-16222388D01*
X10796444Y-16222388D02*
X10786920Y-16241436D01*
X10786920Y-16241436D02*
X10777396Y-16250960D01*
X10777396Y-16250960D02*
X10758349Y-16260484D01*
X10758349Y-16260484D02*
X10739301Y-16260484D01*
X10739301Y-16260484D02*
X10720253Y-16250960D01*
X10720253Y-16250960D02*
X10710729Y-16241436D01*
X10710729Y-16241436D02*
X10701206Y-16222388D01*
X10701206Y-16222388D02*
X10691682Y-16184293D01*
X10691682Y-16184293D02*
X10691682Y-16136674D01*
X10691682Y-16136674D02*
X10701206Y-16098579D01*
X10701206Y-16098579D02*
X10710729Y-16079531D01*
X10710729Y-16079531D02*
X10720253Y-16070008D01*
X10720253Y-16070008D02*
X10739301Y-16060484D01*
X10882158Y-16079531D02*
X10891682Y-16070008D01*
X10891682Y-16070008D02*
X10910729Y-16060484D01*
X10910729Y-16060484D02*
X10958349Y-16060484D01*
X10958349Y-16060484D02*
X10977396Y-16070008D01*
X10977396Y-16070008D02*
X10986920Y-16079531D01*
X10986920Y-16079531D02*
X10996444Y-16098579D01*
X10996444Y-16098579D02*
X10996444Y-16117627D01*
X10996444Y-16117627D02*
X10986920Y-16146198D01*
X10986920Y-16146198D02*
X10872634Y-16260484D01*
X10872634Y-16260484D02*
X10996444Y-16260484D01*
X11072634Y-16060484D02*
X11072634Y-16098579D01*
X11148825Y-16060484D02*
X11148825Y-16098579D01*
X11444063Y-16336674D02*
X11434539Y-16327150D01*
X11434539Y-16327150D02*
X11415491Y-16298579D01*
X11415491Y-16298579D02*
X11405968Y-16279531D01*
X11405968Y-16279531D02*
X11396444Y-16250960D01*
X11396444Y-16250960D02*
X11386920Y-16203341D01*
X11386920Y-16203341D02*
X11386920Y-16165246D01*
X11386920Y-16165246D02*
X11396444Y-16117627D01*
X11396444Y-16117627D02*
X11405968Y-16089055D01*
X11405968Y-16089055D02*
X11415491Y-16070008D01*
X11415491Y-16070008D02*
X11434539Y-16041436D01*
X11434539Y-16041436D02*
X11444063Y-16031912D01*
X11605968Y-16127150D02*
X11605968Y-16260484D01*
X11558348Y-16050960D02*
X11510729Y-16193817D01*
X11510729Y-16193817D02*
X11634539Y-16193817D01*
X11748825Y-16060484D02*
X11767872Y-16060484D01*
X11767872Y-16060484D02*
X11786920Y-16070008D01*
X11786920Y-16070008D02*
X11796444Y-16079531D01*
X11796444Y-16079531D02*
X11805968Y-16098579D01*
X11805968Y-16098579D02*
X11815491Y-16136674D01*
X11815491Y-16136674D02*
X11815491Y-16184293D01*
X11815491Y-16184293D02*
X11805968Y-16222388D01*
X11805968Y-16222388D02*
X11796444Y-16241436D01*
X11796444Y-16241436D02*
X11786920Y-16250960D01*
X11786920Y-16250960D02*
X11767872Y-16260484D01*
X11767872Y-16260484D02*
X11748825Y-16260484D01*
X11748825Y-16260484D02*
X11729777Y-16250960D01*
X11729777Y-16250960D02*
X11720253Y-16241436D01*
X11720253Y-16241436D02*
X11710729Y-16222388D01*
X11710729Y-16222388D02*
X11701206Y-16184293D01*
X11701206Y-16184293D02*
X11701206Y-16136674D01*
X11701206Y-16136674D02*
X11710729Y-16098579D01*
X11710729Y-16098579D02*
X11720253Y-16079531D01*
X11720253Y-16079531D02*
X11729777Y-16070008D01*
X11729777Y-16070008D02*
X11748825Y-16060484D01*
X12053587Y-16260484D02*
X12053587Y-16060484D01*
X12139301Y-16260484D02*
X12139301Y-16155722D01*
X12139301Y-16155722D02*
X12129777Y-16136674D01*
X12129777Y-16136674D02*
X12110730Y-16127150D01*
X12110730Y-16127150D02*
X12082158Y-16127150D01*
X12082158Y-16127150D02*
X12063110Y-16136674D01*
X12063110Y-16136674D02*
X12053587Y-16146198D01*
X12263110Y-16260484D02*
X12244063Y-16250960D01*
X12244063Y-16250960D02*
X12234539Y-16241436D01*
X12234539Y-16241436D02*
X12225015Y-16222388D01*
X12225015Y-16222388D02*
X12225015Y-16165246D01*
X12225015Y-16165246D02*
X12234539Y-16146198D01*
X12234539Y-16146198D02*
X12244063Y-16136674D01*
X12244063Y-16136674D02*
X12263110Y-16127150D01*
X12263110Y-16127150D02*
X12291682Y-16127150D01*
X12291682Y-16127150D02*
X12310730Y-16136674D01*
X12310730Y-16136674D02*
X12320253Y-16146198D01*
X12320253Y-16146198D02*
X12329777Y-16165246D01*
X12329777Y-16165246D02*
X12329777Y-16222388D01*
X12329777Y-16222388D02*
X12320253Y-16241436D01*
X12320253Y-16241436D02*
X12310730Y-16250960D01*
X12310730Y-16250960D02*
X12291682Y-16260484D01*
X12291682Y-16260484D02*
X12263110Y-16260484D01*
X12444063Y-16260484D02*
X12425015Y-16250960D01*
X12425015Y-16250960D02*
X12415491Y-16231912D01*
X12415491Y-16231912D02*
X12415491Y-16060484D01*
X12596444Y-16250960D02*
X12577396Y-16260484D01*
X12577396Y-16260484D02*
X12539301Y-16260484D01*
X12539301Y-16260484D02*
X12520253Y-16250960D01*
X12520253Y-16250960D02*
X12510730Y-16231912D01*
X12510730Y-16231912D02*
X12510730Y-16155722D01*
X12510730Y-16155722D02*
X12520253Y-16136674D01*
X12520253Y-16136674D02*
X12539301Y-16127150D01*
X12539301Y-16127150D02*
X12577396Y-16127150D01*
X12577396Y-16127150D02*
X12596444Y-16136674D01*
X12596444Y-16136674D02*
X12605968Y-16155722D01*
X12605968Y-16155722D02*
X12605968Y-16174769D01*
X12605968Y-16174769D02*
X12510730Y-16193817D01*
X12682158Y-16250960D02*
X12701206Y-16260484D01*
X12701206Y-16260484D02*
X12739301Y-16260484D01*
X12739301Y-16260484D02*
X12758349Y-16250960D01*
X12758349Y-16250960D02*
X12767872Y-16231912D01*
X12767872Y-16231912D02*
X12767872Y-16222388D01*
X12767872Y-16222388D02*
X12758349Y-16203341D01*
X12758349Y-16203341D02*
X12739301Y-16193817D01*
X12739301Y-16193817D02*
X12710730Y-16193817D01*
X12710730Y-16193817D02*
X12691682Y-16184293D01*
X12691682Y-16184293D02*
X12682158Y-16165246D01*
X12682158Y-16165246D02*
X12682158Y-16155722D01*
X12682158Y-16155722D02*
X12691682Y-16136674D01*
X12691682Y-16136674D02*
X12710730Y-16127150D01*
X12710730Y-16127150D02*
X12739301Y-16127150D01*
X12739301Y-16127150D02*
X12758349Y-16136674D01*
X12834539Y-16336674D02*
X12844063Y-16327150D01*
X12844063Y-16327150D02*
X12863111Y-16298579D01*
X12863111Y-16298579D02*
X12872634Y-16279531D01*
X12872634Y-16279531D02*
X12882158Y-16250960D01*
X12882158Y-16250960D02*
X12891682Y-16203341D01*
X12891682Y-16203341D02*
X12891682Y-16165246D01*
X12891682Y-16165246D02*
X12882158Y-16117627D01*
X12882158Y-16117627D02*
X12872634Y-16089055D01*
X12872634Y-16089055D02*
X12863111Y-16070008D01*
X12863111Y-16070008D02*
X12844063Y-16041436D01*
X12844063Y-16041436D02*
X12834539Y-16031912D01*
M02*
