M48
; DRILL file {KiCad 7.0.5-7.0.5~ubuntu22.04.1} date mer. 28 juin 2023 11:52:22
; FORMAT={-:-/ absolute / metric / decimal}
; #@! TF.CreationDate,2023-06-28T11:52:22+02:00
; #@! TF.GenerationSoftware,Kicad,Pcbnew,7.0.5-7.0.5~ubuntu22.04.1
; #@! TF.FileFunction,Plated,1,2,PTH
FMAT,2
METRIC
; #@! TA.AperFunction,Plated,PTH,ViaDrill
T1C0.400
; #@! TA.AperFunction,Plated,PTH,ComponentDrill
T2C0.800
; #@! TA.AperFunction,Plated,PTH,ComponentDrill
T3C1.000
; #@! TA.AperFunction,Plated,PTH,ComponentDrill
T4C1.020
%
G90
G05
T1
X84.582Y-96.266
X84.582Y-111.76
X84.709Y-62.23
X84.709Y-119.38
X84.938Y-114.198
X88.9Y-96.266
X89.154Y-133.096
X90.424Y-83.058
X92.202Y-75.565
X93.726Y-106.426
X94.488Y-55.372
X94.615Y-75.565
X95.377Y-112.014
X95.504Y-118.872
X96.349Y-119.576
X97.282Y-123.698
X97.79Y-77.724
X98.298Y-83.82
X98.298Y-92.964
X98.806Y-55.372
X98.806Y-81.026
X98.933Y-124.968
X99.441Y-77.724
X100.076Y-142.24
X100.33Y-130.048
X100.584Y-117.856
X100.838Y-87.884
X101.854Y-117.602
X101.854Y-134.366
X102.235Y-64.008
X102.87Y-73.152
X104.648Y-102.743
X104.648Y-106.934
X104.648Y-112.014
X104.902Y-97.409
X105.029Y-82.677
X105.283Y-92.635
X105.283Y-127.762
X105.41Y-117.094
X107.188Y-57.658
X108.204Y-74.041
X108.204Y-80.01
X108.458Y-89.916
X115.57Y-63.754
X115.57Y-65.278
X115.824Y-77.978
X115.824Y-79.629
X117.475Y-126.746
X117.475Y-130.302
X118.872Y-137.16
X119.38Y-103.124
X119.634Y-81.28
X120.142Y-69.088
X120.396Y-82.296
X120.904Y-53.34
X120.904Y-72.644
X122.428Y-82.296
X123.444Y-62.357
X124.333Y-57.531
X124.714Y-83.312
X124.841Y-58.928
X125.476Y-67.564
X125.476Y-116.84
X125.73Y-70.358
X125.73Y-71.628
X125.73Y-72.898
X125.73Y-74.168
X128.016Y-134.112
X128.016Y-139.7
X129.794Y-77.978
X130.81Y-76.708
X134.747Y-55.372
X135.763Y-58.674
X138.684Y-48.26
X138.684Y-55.118
X139.827Y-122.809
X140.462Y-50.8
X140.462Y-55.118
X143.383Y-63.754
X144.653Y-131.445
X146.939Y-69.215
X147.32Y-131.191
T2
X81.28Y-45.72
X81.28Y-48.26
X81.28Y-50.8
X81.28Y-53.34
X81.28Y-134.62
X81.28Y-137.16
X81.28Y-139.7
X81.28Y-142.24
X147.32Y-45.72
X147.32Y-48.26
X147.32Y-50.8
X147.32Y-53.34
X147.32Y-134.62
X147.32Y-137.16
X147.32Y-139.7
X147.32Y-142.24
T3
X141.986Y-94.869
X141.986Y-109.22
X142.113Y-101.346
T4
X114.554Y-86.233
X114.554Y-88.773
X114.554Y-91.313
X114.554Y-93.853
X114.554Y-96.393
X114.554Y-98.933
X114.554Y-101.473
X114.554Y-104.013
X114.554Y-106.553
X114.554Y-109.093
X114.554Y-111.633
X114.554Y-114.173
X114.554Y-116.713
X114.554Y-119.253
X114.554Y-121.793
X114.554Y-124.333
X114.554Y-126.873
X114.554Y-129.413
X114.554Y-131.953
X114.554Y-134.493
X132.334Y-86.233
X132.334Y-88.773
X132.334Y-91.313
X132.334Y-93.853
X132.334Y-96.393
X132.334Y-98.933
X132.334Y-101.473
X132.334Y-104.013
X132.334Y-106.553
X132.334Y-109.093
X132.334Y-111.633
X132.334Y-114.173
X132.334Y-116.713
X132.334Y-119.253
X132.334Y-121.793
X132.334Y-124.333
X132.334Y-126.873
X132.334Y-129.413
X132.334Y-131.953
X132.334Y-134.493
T0
M30
