%TF.GenerationSoftware,KiCad,Pcbnew,7.0.5-7.0.5~ubuntu22.04.1*%
%TF.CreationDate,2023-06-28T11:52:23+02:00*%
%TF.ProjectId,AS3397_proto_SMS,41533333-3937-45f7-9072-6f746f5f534d,rev?*%
%TF.SameCoordinates,Original*%
%TF.FileFunction,Drillmap*%
%TF.FilePolarity,Positive*%
%FSLAX45Y45*%
G04 Gerber Fmt 4.5, Leading zero omitted, Abs format (unit mm)*
G04 Created by KiCad (PCBNEW 7.0.5-7.0.5~ubuntu22.04.1) date 2023-06-28 11:52:23*
%MOMM*%
%LPD*%
G01*
G04 APERTURE LIST*
%ADD10C,0.100000*%
%ADD11C,0.200000*%
G04 APERTURE END LIST*
D10*
X7874000Y-4318000D02*
X14986000Y-4318000D01*
X14986000Y-4318000D02*
X14986000Y-14732000D01*
X14986000Y-14732000D02*
X7874000Y-14732000D01*
X7874000Y-14732000D02*
X7874000Y-4318000D01*
D11*
X8129777Y-15048484D02*
X8129777Y-14848484D01*
X8129777Y-14848484D02*
X8177396Y-14848484D01*
X8177396Y-14848484D02*
X8205967Y-14858008D01*
X8205967Y-14858008D02*
X8225015Y-14877055D01*
X8225015Y-14877055D02*
X8234539Y-14896103D01*
X8234539Y-14896103D02*
X8244062Y-14934198D01*
X8244062Y-14934198D02*
X8244062Y-14962769D01*
X8244062Y-14962769D02*
X8234539Y-15000865D01*
X8234539Y-15000865D02*
X8225015Y-15019912D01*
X8225015Y-15019912D02*
X8205967Y-15038960D01*
X8205967Y-15038960D02*
X8177396Y-15048484D01*
X8177396Y-15048484D02*
X8129777Y-15048484D01*
X8329777Y-15048484D02*
X8329777Y-14915150D01*
X8329777Y-14953246D02*
X8339301Y-14934198D01*
X8339301Y-14934198D02*
X8348824Y-14924674D01*
X8348824Y-14924674D02*
X8367872Y-14915150D01*
X8367872Y-14915150D02*
X8386920Y-14915150D01*
X8453586Y-15048484D02*
X8453586Y-14915150D01*
X8453586Y-14848484D02*
X8444063Y-14858008D01*
X8444063Y-14858008D02*
X8453586Y-14867531D01*
X8453586Y-14867531D02*
X8463110Y-14858008D01*
X8463110Y-14858008D02*
X8453586Y-14848484D01*
X8453586Y-14848484D02*
X8453586Y-14867531D01*
X8577396Y-15048484D02*
X8558348Y-15038960D01*
X8558348Y-15038960D02*
X8548824Y-15019912D01*
X8548824Y-15019912D02*
X8548824Y-14848484D01*
X8682158Y-15048484D02*
X8663110Y-15038960D01*
X8663110Y-15038960D02*
X8653586Y-15019912D01*
X8653586Y-15019912D02*
X8653586Y-14848484D01*
X8910729Y-15048484D02*
X8910729Y-14848484D01*
X8910729Y-14848484D02*
X8977396Y-14991341D01*
X8977396Y-14991341D02*
X9044063Y-14848484D01*
X9044063Y-14848484D02*
X9044063Y-15048484D01*
X9225015Y-15048484D02*
X9225015Y-14943722D01*
X9225015Y-14943722D02*
X9215491Y-14924674D01*
X9215491Y-14924674D02*
X9196444Y-14915150D01*
X9196444Y-14915150D02*
X9158348Y-14915150D01*
X9158348Y-14915150D02*
X9139301Y-14924674D01*
X9225015Y-15038960D02*
X9205967Y-15048484D01*
X9205967Y-15048484D02*
X9158348Y-15048484D01*
X9158348Y-15048484D02*
X9139301Y-15038960D01*
X9139301Y-15038960D02*
X9129777Y-15019912D01*
X9129777Y-15019912D02*
X9129777Y-15000865D01*
X9129777Y-15000865D02*
X9139301Y-14981817D01*
X9139301Y-14981817D02*
X9158348Y-14972293D01*
X9158348Y-14972293D02*
X9205967Y-14972293D01*
X9205967Y-14972293D02*
X9225015Y-14962769D01*
X9320253Y-14915150D02*
X9320253Y-15115150D01*
X9320253Y-14924674D02*
X9339301Y-14915150D01*
X9339301Y-14915150D02*
X9377396Y-14915150D01*
X9377396Y-14915150D02*
X9396444Y-14924674D01*
X9396444Y-14924674D02*
X9405967Y-14934198D01*
X9405967Y-14934198D02*
X9415491Y-14953246D01*
X9415491Y-14953246D02*
X9415491Y-15010388D01*
X9415491Y-15010388D02*
X9405967Y-15029436D01*
X9405967Y-15029436D02*
X9396444Y-15038960D01*
X9396444Y-15038960D02*
X9377396Y-15048484D01*
X9377396Y-15048484D02*
X9339301Y-15048484D01*
X9339301Y-15048484D02*
X9320253Y-15038960D01*
X9501205Y-15029436D02*
X9510729Y-15038960D01*
X9510729Y-15038960D02*
X9501205Y-15048484D01*
X9501205Y-15048484D02*
X9491682Y-15038960D01*
X9491682Y-15038960D02*
X9501205Y-15029436D01*
X9501205Y-15029436D02*
X9501205Y-15048484D01*
X9501205Y-14924674D02*
X9510729Y-14934198D01*
X9510729Y-14934198D02*
X9501205Y-14943722D01*
X9501205Y-14943722D02*
X9491682Y-14934198D01*
X9491682Y-14934198D02*
X9501205Y-14924674D01*
X9501205Y-14924674D02*
X9501205Y-14943722D01*
M02*
