G04 #@! TF.GenerationSoftware,KiCad,Pcbnew,7.0.7*
G04 #@! TF.CreationDate,2024-03-19T17:37:58+01:00*
G04 #@! TF.ProjectId,Main_board,4d61696e-5f62-46f6-9172-642e6b696361,rev?*
G04 #@! TF.SameCoordinates,Original*
G04 #@! TF.FileFunction,Soldermask,Bot*
G04 #@! TF.FilePolarity,Negative*
%FSLAX46Y46*%
G04 Gerber Fmt 4.6, Leading zero omitted, Abs format (unit mm)*
G04 Created by KiCad (PCBNEW 7.0.7) date 2024-03-19 17:37:58*
%MOMM*%
%LPD*%
G01*
G04 APERTURE LIST*
G04 Aperture macros list*
%AMRoundRect*
0 Rectangle with rounded corners*
0 $1 Rounding radius*
0 $2 $3 $4 $5 $6 $7 $8 $9 X,Y pos of 4 corners*
0 Add a 4 corners polygon primitive as box body*
4,1,4,$2,$3,$4,$5,$6,$7,$8,$9,$2,$3,0*
0 Add four circle primitives for the rounded corners*
1,1,$1+$1,$2,$3*
1,1,$1+$1,$4,$5*
1,1,$1+$1,$6,$7*
1,1,$1+$1,$8,$9*
0 Add four rect primitives between the rounded corners*
20,1,$1+$1,$2,$3,$4,$5,0*
20,1,$1+$1,$4,$5,$6,$7,0*
20,1,$1+$1,$6,$7,$8,$9,0*
20,1,$1+$1,$8,$9,$2,$3,0*%
G04 Aperture macros list end*
%ADD10R,1.524000X1.524000*%
%ADD11C,1.524000*%
%ADD12R,3.500000X1.700000*%
%ADD13O,1.700000X1.700000*%
%ADD14R,1.700000X1.700000*%
%ADD15R,1.700000X3.500000*%
%ADD16O,1.600000X2.000000*%
%ADD17RoundRect,0.150000X0.587500X0.150000X-0.587500X0.150000X-0.587500X-0.150000X0.587500X-0.150000X0*%
%ADD18C,3.500000*%
%ADD19C,1.700000*%
%ADD20R,2.000000X2.000000*%
%ADD21C,2.000000*%
%ADD22R,2.000000X3.200000*%
G04 APERTURE END LIST*
D10*
X74781900Y-175526300D03*
D11*
X74781900Y-177526300D03*
X74781900Y-179526300D03*
X74781900Y-181526300D03*
D12*
X82746600Y-156413200D03*
D13*
X83646600Y-156413200D03*
D12*
X82746600Y-158953200D03*
D14*
X83646600Y-158953200D03*
D13*
X83646600Y-161493200D03*
D12*
X82746600Y-161493200D03*
D15*
X131676600Y-149163200D03*
D13*
X131676600Y-150063200D03*
X129136600Y-150063200D03*
D15*
X129136600Y-149163200D03*
D14*
X126596600Y-150063200D03*
D15*
X126596600Y-149163200D03*
D13*
X124056600Y-150063200D03*
D15*
X124056600Y-149163200D03*
X121516600Y-149163200D03*
D13*
X121516600Y-150063200D03*
X118976600Y-150063200D03*
D15*
X118976600Y-149163200D03*
D13*
X116436600Y-150063200D03*
D15*
X116436600Y-149163200D03*
D14*
X113896600Y-150063200D03*
D15*
X113896600Y-149163200D03*
X111356600Y-149163200D03*
D13*
X111356600Y-150063200D03*
D15*
X108816600Y-149163200D03*
D13*
X108816600Y-150063200D03*
X106276600Y-150063200D03*
D15*
X106276600Y-149163200D03*
X103736600Y-149163200D03*
D13*
X103736600Y-150063200D03*
D15*
X101196600Y-149163200D03*
D14*
X101196600Y-150063200D03*
D15*
X98656600Y-149163200D03*
D13*
X98656600Y-150063200D03*
X96116600Y-150063200D03*
D15*
X96116600Y-149163200D03*
D13*
X93576600Y-150063200D03*
D15*
X93576600Y-149163200D03*
X91036600Y-149163200D03*
D13*
X91036600Y-150063200D03*
D14*
X88496600Y-150063200D03*
D15*
X88496600Y-149163200D03*
D13*
X85956600Y-150063200D03*
D15*
X85956600Y-149163200D03*
D13*
X83416600Y-150063200D03*
D15*
X83416600Y-149163200D03*
D13*
X83416600Y-167843200D03*
D15*
X83416600Y-168743200D03*
X85956600Y-168743200D03*
D13*
X85956600Y-167843200D03*
D14*
X88496600Y-167843200D03*
D15*
X88496600Y-168743200D03*
D13*
X91036600Y-167843200D03*
D15*
X91036600Y-168743200D03*
D13*
X93576600Y-167843200D03*
D15*
X93576600Y-168743200D03*
X96116600Y-168743200D03*
D13*
X96116600Y-167843200D03*
X98656600Y-167843200D03*
D15*
X98656600Y-168743200D03*
X101196600Y-168743200D03*
D14*
X101196600Y-167843200D03*
D15*
X103736600Y-168743200D03*
D13*
X103736600Y-167843200D03*
X106276600Y-167843200D03*
D15*
X106276600Y-168743200D03*
X108816600Y-168743200D03*
D13*
X108816600Y-167843200D03*
X111356600Y-167843200D03*
D15*
X111356600Y-168743200D03*
X113896600Y-168743200D03*
D14*
X113896600Y-167843200D03*
D13*
X116436600Y-167843200D03*
D15*
X116436600Y-168743200D03*
X118976600Y-168743200D03*
D13*
X118976600Y-167843200D03*
D15*
X121516600Y-168743200D03*
D13*
X121516600Y-167843200D03*
D15*
X124056600Y-168743200D03*
D13*
X124056600Y-167843200D03*
D14*
X126596600Y-167843200D03*
D15*
X126596600Y-168743200D03*
X129136600Y-168743200D03*
D13*
X129136600Y-167843200D03*
D15*
X131676600Y-168743200D03*
D13*
X131676600Y-167843200D03*
X111836200Y-131495800D03*
X111836200Y-134035800D03*
X114376200Y-131495800D03*
X114376200Y-134035800D03*
X116916200Y-131495800D03*
X116916200Y-134035800D03*
X119456200Y-131495800D03*
X119456200Y-134035800D03*
X121996200Y-131495800D03*
D14*
X121996200Y-134035800D03*
D16*
X116228000Y-122100600D03*
X113688000Y-122100600D03*
X108608000Y-122100600D03*
X111148000Y-122100600D03*
D17*
X130248900Y-153761400D03*
X130248900Y-155661400D03*
X128373900Y-154711400D03*
D18*
X142036800Y-149034300D03*
X142036800Y-161074300D03*
D19*
X139326800Y-156304300D03*
X139326800Y-153804300D03*
X137326800Y-153804300D03*
D14*
X137326800Y-156304300D03*
D13*
X91038600Y-188280200D03*
X91038600Y-185740200D03*
X88498600Y-188280200D03*
X88498600Y-185740200D03*
X85958600Y-188280200D03*
X85958600Y-185740200D03*
X83418600Y-188280200D03*
X83418600Y-185740200D03*
X80878600Y-188280200D03*
D14*
X80878600Y-185740200D03*
D20*
X132323200Y-139279200D03*
D21*
X137323200Y-139279200D03*
X134823200Y-139279200D03*
D22*
X129223200Y-131779200D03*
X140423200Y-131779200D03*
D21*
X137323200Y-124779200D03*
X132323200Y-124779200D03*
D14*
X97693400Y-185740200D03*
D13*
X97693400Y-188280200D03*
X100233400Y-185740200D03*
X100233400Y-188280200D03*
X102773400Y-185740200D03*
X102773400Y-188280200D03*
X105313400Y-185740200D03*
X105313400Y-188280200D03*
X107853400Y-185740200D03*
X107853400Y-188280200D03*
X141833600Y-188137800D03*
X141833600Y-185597800D03*
X139293600Y-188137800D03*
X139293600Y-185597800D03*
X136753600Y-188137800D03*
X136753600Y-185597800D03*
X134213600Y-188137800D03*
X134213600Y-185597800D03*
X131673600Y-188137800D03*
D14*
X131673600Y-185597800D03*
D13*
X76123800Y-131495800D03*
X76123800Y-134035800D03*
X78663800Y-131495800D03*
X78663800Y-134035800D03*
X81203800Y-131495800D03*
X81203800Y-134035800D03*
X83743800Y-131495800D03*
X83743800Y-134035800D03*
X86283800Y-131495800D03*
D14*
X86283800Y-134035800D03*
X74091800Y-164617400D03*
D13*
X76631800Y-164617400D03*
X74091800Y-162077400D03*
X76631800Y-162077400D03*
X74091800Y-159537400D03*
X76631800Y-159537400D03*
X74091800Y-156997400D03*
X76631800Y-156997400D03*
X74091800Y-154457400D03*
X76631800Y-154457400D03*
D14*
X114604800Y-185724800D03*
D13*
X114604800Y-188264800D03*
X117144800Y-185724800D03*
X117144800Y-188264800D03*
X119684800Y-185724800D03*
X119684800Y-188264800D03*
X122224800Y-185724800D03*
X122224800Y-188264800D03*
X124764800Y-185724800D03*
X124764800Y-188264800D03*
X93726000Y-131495800D03*
X93726000Y-134035800D03*
X96266000Y-131495800D03*
X96266000Y-134035800D03*
X98806000Y-131495800D03*
X98806000Y-134035800D03*
X101346000Y-131495800D03*
X101346000Y-134035800D03*
X103886000Y-131495800D03*
D14*
X103886000Y-134035800D03*
M02*
