G04 #@! TF.GenerationSoftware,KiCad,Pcbnew,7.0.7*
G04 #@! TF.CreationDate,2024-03-19T17:37:58+01:00*
G04 #@! TF.ProjectId,Main_board,4d61696e-5f62-46f6-9172-642e6b696361,rev?*
G04 #@! TF.SameCoordinates,Original*
G04 #@! TF.FileFunction,Legend,Top*
G04 #@! TF.FilePolarity,Positive*
%FSLAX46Y46*%
G04 Gerber Fmt 4.6, Leading zero omitted, Abs format (unit mm)*
G04 Created by KiCad (PCBNEW 7.0.7) date 2024-03-19 17:37:58*
%MOMM*%
%LPD*%
G01*
G04 APERTURE LIST*
%ADD10C,0.150000*%
%ADD11C,0.120000*%
%ADD12R,1.524000X1.524000*%
%ADD13C,1.524000*%
%ADD14O,1.700000X1.700000*%
%ADD15R,1.700000X1.700000*%
%ADD16O,1.600000X2.000000*%
%ADD17C,3.500000*%
%ADD18C,1.700000*%
%ADD19R,2.000000X2.000000*%
%ADD20C,2.000000*%
%ADD21R,2.000000X3.200000*%
G04 APERTURE END LIST*
D10*
X72948566Y-170981119D02*
X72948566Y-171695404D01*
X72948566Y-171695404D02*
X72900947Y-171838261D01*
X72900947Y-171838261D02*
X72805709Y-171933500D01*
X72805709Y-171933500D02*
X72662852Y-171981119D01*
X72662852Y-171981119D02*
X72567614Y-171981119D01*
X73329519Y-170981119D02*
X73948566Y-170981119D01*
X73948566Y-170981119D02*
X73615233Y-171362071D01*
X73615233Y-171362071D02*
X73758090Y-171362071D01*
X73758090Y-171362071D02*
X73853328Y-171409690D01*
X73853328Y-171409690D02*
X73900947Y-171457309D01*
X73900947Y-171457309D02*
X73948566Y-171552547D01*
X73948566Y-171552547D02*
X73948566Y-171790642D01*
X73948566Y-171790642D02*
X73900947Y-171885880D01*
X73900947Y-171885880D02*
X73853328Y-171933500D01*
X73853328Y-171933500D02*
X73758090Y-171981119D01*
X73758090Y-171981119D02*
X73472376Y-171981119D01*
X73472376Y-171981119D02*
X73377138Y-171933500D01*
X73377138Y-171933500D02*
X73329519Y-171885880D01*
X121312133Y-121927209D02*
X121454990Y-121974828D01*
X121454990Y-121974828D02*
X121502609Y-122022447D01*
X121502609Y-122022447D02*
X121550228Y-122117685D01*
X121550228Y-122117685D02*
X121550228Y-122260542D01*
X121550228Y-122260542D02*
X121502609Y-122355780D01*
X121502609Y-122355780D02*
X121454990Y-122403400D01*
X121454990Y-122403400D02*
X121359752Y-122451019D01*
X121359752Y-122451019D02*
X120978800Y-122451019D01*
X120978800Y-122451019D02*
X120978800Y-121451019D01*
X120978800Y-121451019D02*
X121312133Y-121451019D01*
X121312133Y-121451019D02*
X121407371Y-121498638D01*
X121407371Y-121498638D02*
X121454990Y-121546257D01*
X121454990Y-121546257D02*
X121502609Y-121641495D01*
X121502609Y-121641495D02*
X121502609Y-121736733D01*
X121502609Y-121736733D02*
X121454990Y-121831971D01*
X121454990Y-121831971D02*
X121407371Y-121879590D01*
X121407371Y-121879590D02*
X121312133Y-121927209D01*
X121312133Y-121927209D02*
X120978800Y-121927209D01*
X121978800Y-122451019D02*
X121978800Y-121784352D01*
X121978800Y-121974828D02*
X122026419Y-121879590D01*
X122026419Y-121879590D02*
X122074038Y-121831971D01*
X122074038Y-121831971D02*
X122169276Y-121784352D01*
X122169276Y-121784352D02*
X122264514Y-121784352D01*
X123026419Y-122451019D02*
X123026419Y-121451019D01*
X123026419Y-122403400D02*
X122931181Y-122451019D01*
X122931181Y-122451019D02*
X122740705Y-122451019D01*
X122740705Y-122451019D02*
X122645467Y-122403400D01*
X122645467Y-122403400D02*
X122597848Y-122355780D01*
X122597848Y-122355780D02*
X122550229Y-122260542D01*
X122550229Y-122260542D02*
X122550229Y-121974828D01*
X122550229Y-121974828D02*
X122597848Y-121879590D01*
X122597848Y-121879590D02*
X122645467Y-121831971D01*
X122645467Y-121831971D02*
X122740705Y-121784352D01*
X122740705Y-121784352D02*
X122931181Y-121784352D01*
X122931181Y-121784352D02*
X123026419Y-121831971D01*
X124026419Y-122451019D02*
X123454991Y-122451019D01*
X123740705Y-122451019D02*
X123740705Y-121451019D01*
X123740705Y-121451019D02*
X123645467Y-121593876D01*
X123645467Y-121593876D02*
X123550229Y-121689114D01*
X123550229Y-121689114D02*
X123454991Y-121736733D01*
D11*
X77781900Y-172526300D02*
X77781900Y-175526300D01*
X71481900Y-181426300D02*
X71481900Y-184076300D01*
X71481900Y-176776300D02*
X71481900Y-180276300D01*
X71481900Y-173026300D02*
X71481900Y-175676300D01*
X74781900Y-172526300D02*
X77781900Y-172526300D01*
X71481900Y-175926300D02*
X71481900Y-176526300D01*
X71481900Y-180526300D02*
X71481900Y-181126300D01*
X77331900Y-173026300D02*
X77331900Y-184076300D01*
X71481900Y-184076300D02*
X77331900Y-184076300D01*
X71481900Y-173026300D02*
X77331900Y-173026300D01*
X125690000Y-123683600D02*
X125436000Y-123695600D01*
X125690000Y-140320600D02*
X125690000Y-123683600D01*
X122350000Y-140295600D02*
X125690000Y-140320600D01*
X122350000Y-123695600D02*
X125436000Y-123695600D01*
X107529000Y-120889600D02*
X107529000Y-123302600D01*
X117308000Y-123302600D02*
X107529000Y-123302600D01*
X117308000Y-120889600D02*
X117308000Y-123302600D01*
X107529000Y-120889600D02*
X117308000Y-120889600D01*
X99250000Y-123695600D02*
X122350000Y-123695600D01*
X99250000Y-140295600D02*
X99250000Y-123695600D01*
X122350000Y-140295600D02*
X99250000Y-140295600D01*
X98828000Y-147700600D02*
X98828000Y-120400600D01*
X126228000Y-147700600D02*
X98828000Y-147700600D01*
X126228000Y-120400600D02*
X126228000Y-147700600D01*
X98828000Y-120400600D02*
X126228000Y-120400600D01*
X130723200Y-139579200D02*
X130723200Y-138979200D01*
X131023200Y-139279200D02*
X130723200Y-139579200D01*
X130723200Y-138979200D02*
X131023200Y-139279200D01*
X128923200Y-137879200D02*
X140723200Y-137879200D01*
X128923200Y-133779200D02*
X128923200Y-137879200D01*
X140723200Y-133779200D02*
X140723200Y-137879200D01*
X134823200Y-132279200D02*
X134823200Y-131279200D01*
X134323200Y-131779200D02*
X135323200Y-131779200D01*
X128923200Y-129779200D02*
X128923200Y-125679200D01*
X128923200Y-125679200D02*
X131323200Y-125679200D01*
X133523200Y-125679200D02*
X136123200Y-125679200D01*
X138323200Y-125679200D02*
X140723200Y-125679200D01*
X140723200Y-125679200D02*
X140723200Y-129779200D01*
X137823200Y-131779200D02*
G75*
G03*
X137823200Y-131779200I-3000000J0D01*
G01*
%LPC*%
D12*
X74781900Y-175526300D03*
D13*
X74781900Y-177526300D03*
X74781900Y-179526300D03*
X74781900Y-181526300D03*
D14*
X83646600Y-156413200D03*
D15*
X83646600Y-158953200D03*
D14*
X83646600Y-161493200D03*
X131676600Y-150063200D03*
X129136600Y-150063200D03*
D15*
X126596600Y-150063200D03*
D14*
X124056600Y-150063200D03*
X121516600Y-150063200D03*
X118976600Y-150063200D03*
X116436600Y-150063200D03*
D15*
X113896600Y-150063200D03*
D14*
X111356600Y-150063200D03*
X108816600Y-150063200D03*
X106276600Y-150063200D03*
X103736600Y-150063200D03*
D15*
X101196600Y-150063200D03*
D14*
X98656600Y-150063200D03*
X96116600Y-150063200D03*
X93576600Y-150063200D03*
X91036600Y-150063200D03*
D15*
X88496600Y-150063200D03*
D14*
X85956600Y-150063200D03*
X83416600Y-150063200D03*
X83416600Y-167843200D03*
X85956600Y-167843200D03*
D15*
X88496600Y-167843200D03*
D14*
X91036600Y-167843200D03*
X93576600Y-167843200D03*
X96116600Y-167843200D03*
X98656600Y-167843200D03*
D15*
X101196600Y-167843200D03*
D14*
X103736600Y-167843200D03*
X106276600Y-167843200D03*
X108816600Y-167843200D03*
X111356600Y-167843200D03*
D15*
X113896600Y-167843200D03*
D14*
X116436600Y-167843200D03*
X118976600Y-167843200D03*
X121516600Y-167843200D03*
X124056600Y-167843200D03*
D15*
X126596600Y-167843200D03*
D14*
X129136600Y-167843200D03*
X131676600Y-167843200D03*
X111836200Y-131495800D03*
X111836200Y-134035800D03*
X114376200Y-131495800D03*
X114376200Y-134035800D03*
X116916200Y-131495800D03*
X116916200Y-134035800D03*
X119456200Y-131495800D03*
X119456200Y-134035800D03*
X121996200Y-131495800D03*
D15*
X121996200Y-134035800D03*
D16*
X116228000Y-122100600D03*
X113688000Y-122100600D03*
X108608000Y-122100600D03*
X111148000Y-122100600D03*
D17*
X142036800Y-149034300D03*
X142036800Y-161074300D03*
D18*
X139326800Y-156304300D03*
X139326800Y-153804300D03*
X137326800Y-153804300D03*
D15*
X137326800Y-156304300D03*
D14*
X91038600Y-188280200D03*
X91038600Y-185740200D03*
X88498600Y-188280200D03*
X88498600Y-185740200D03*
X85958600Y-188280200D03*
X85958600Y-185740200D03*
X83418600Y-188280200D03*
X83418600Y-185740200D03*
X80878600Y-188280200D03*
D15*
X80878600Y-185740200D03*
D19*
X132323200Y-139279200D03*
D20*
X137323200Y-139279200D03*
X134823200Y-139279200D03*
D21*
X129223200Y-131779200D03*
X140423200Y-131779200D03*
D20*
X137323200Y-124779200D03*
X132323200Y-124779200D03*
D15*
X97693400Y-185740200D03*
D14*
X97693400Y-188280200D03*
X100233400Y-185740200D03*
X100233400Y-188280200D03*
X102773400Y-185740200D03*
X102773400Y-188280200D03*
X105313400Y-185740200D03*
X105313400Y-188280200D03*
X107853400Y-185740200D03*
X107853400Y-188280200D03*
X141833600Y-188137800D03*
X141833600Y-185597800D03*
X139293600Y-188137800D03*
X139293600Y-185597800D03*
X136753600Y-188137800D03*
X136753600Y-185597800D03*
X134213600Y-188137800D03*
X134213600Y-185597800D03*
X131673600Y-188137800D03*
D15*
X131673600Y-185597800D03*
D14*
X76123800Y-131495800D03*
X76123800Y-134035800D03*
X78663800Y-131495800D03*
X78663800Y-134035800D03*
X81203800Y-131495800D03*
X81203800Y-134035800D03*
X83743800Y-131495800D03*
X83743800Y-134035800D03*
X86283800Y-131495800D03*
D15*
X86283800Y-134035800D03*
X74091800Y-164617400D03*
D14*
X76631800Y-164617400D03*
X74091800Y-162077400D03*
X76631800Y-162077400D03*
X74091800Y-159537400D03*
X76631800Y-159537400D03*
X74091800Y-156997400D03*
X76631800Y-156997400D03*
X74091800Y-154457400D03*
X76631800Y-154457400D03*
D15*
X114604800Y-185724800D03*
D14*
X114604800Y-188264800D03*
X117144800Y-185724800D03*
X117144800Y-188264800D03*
X119684800Y-185724800D03*
X119684800Y-188264800D03*
X122224800Y-185724800D03*
X122224800Y-188264800D03*
X124764800Y-185724800D03*
X124764800Y-188264800D03*
X93726000Y-131495800D03*
X93726000Y-134035800D03*
X96266000Y-131495800D03*
X96266000Y-134035800D03*
X98806000Y-131495800D03*
X98806000Y-134035800D03*
X101346000Y-131495800D03*
X101346000Y-134035800D03*
X103886000Y-131495800D03*
D15*
X103886000Y-134035800D03*
%LPD*%
M02*
