G04 #@! TF.GenerationSoftware,KiCad,Pcbnew,7.0.7*
G04 #@! TF.CreationDate,2024-03-19T10:03:33+01:00*
G04 #@! TF.ProjectId,Poly_UA_controller_6enc_4sw,506f6c79-5f55-4415-9f63-6f6e74726f6c,rev?*
G04 #@! TF.SameCoordinates,Original*
G04 #@! TF.FileFunction,Legend,Top*
G04 #@! TF.FilePolarity,Positive*
%FSLAX46Y46*%
G04 Gerber Fmt 4.6, Leading zero omitted, Abs format (unit mm)*
G04 Created by KiCad (PCBNEW 7.0.7) date 2024-03-19 10:03:33*
%MOMM*%
%LPD*%
G01*
G04 APERTURE LIST*
G04 Aperture macros list*
%AMRoundRect*
0 Rectangle with rounded corners*
0 $1 Rounding radius*
0 $2 $3 $4 $5 $6 $7 $8 $9 X,Y pos of 4 corners*
0 Add a 4 corners polygon primitive as box body*
4,1,4,$2,$3,$4,$5,$6,$7,$8,$9,$2,$3,0*
0 Add four circle primitives for the rounded corners*
1,1,$1+$1,$2,$3*
1,1,$1+$1,$4,$5*
1,1,$1+$1,$6,$7*
1,1,$1+$1,$8,$9*
0 Add four rect primitives between the rounded corners*
20,1,$1+$1,$2,$3,$4,$5,0*
20,1,$1+$1,$4,$5,$6,$7,0*
20,1,$1+$1,$6,$7,$8,$9,0*
20,1,$1+$1,$8,$9,$2,$3,0*%
G04 Aperture macros list end*
%ADD10C,0.150000*%
%ADD11C,0.120000*%
%ADD12R,2.000000X2.000000*%
%ADD13C,2.000000*%
%ADD14R,3.200000X2.000000*%
%ADD15R,1.700000X1.700000*%
%ADD16O,1.700000X1.700000*%
%ADD17R,1.500000X1.000000*%
%ADD18RoundRect,0.250000X-0.412500X-0.650000X0.412500X-0.650000X0.412500X0.650000X-0.412500X0.650000X0*%
G04 APERTURE END LIST*
D10*
X168130467Y-85460000D02*
X168273324Y-85507619D01*
X168273324Y-85507619D02*
X168511419Y-85507619D01*
X168511419Y-85507619D02*
X168606657Y-85460000D01*
X168606657Y-85460000D02*
X168654276Y-85412380D01*
X168654276Y-85412380D02*
X168701895Y-85317142D01*
X168701895Y-85317142D02*
X168701895Y-85221904D01*
X168701895Y-85221904D02*
X168654276Y-85126666D01*
X168654276Y-85126666D02*
X168606657Y-85079047D01*
X168606657Y-85079047D02*
X168511419Y-85031428D01*
X168511419Y-85031428D02*
X168320943Y-84983809D01*
X168320943Y-84983809D02*
X168225705Y-84936190D01*
X168225705Y-84936190D02*
X168178086Y-84888571D01*
X168178086Y-84888571D02*
X168130467Y-84793333D01*
X168130467Y-84793333D02*
X168130467Y-84698095D01*
X168130467Y-84698095D02*
X168178086Y-84602857D01*
X168178086Y-84602857D02*
X168225705Y-84555238D01*
X168225705Y-84555238D02*
X168320943Y-84507619D01*
X168320943Y-84507619D02*
X168559038Y-84507619D01*
X168559038Y-84507619D02*
X168701895Y-84555238D01*
X169035229Y-84507619D02*
X169273324Y-85507619D01*
X169273324Y-85507619D02*
X169463800Y-84793333D01*
X169463800Y-84793333D02*
X169654276Y-85507619D01*
X169654276Y-85507619D02*
X169892372Y-84507619D01*
X170701895Y-84507619D02*
X170511419Y-84507619D01*
X170511419Y-84507619D02*
X170416181Y-84555238D01*
X170416181Y-84555238D02*
X170368562Y-84602857D01*
X170368562Y-84602857D02*
X170273324Y-84745714D01*
X170273324Y-84745714D02*
X170225705Y-84936190D01*
X170225705Y-84936190D02*
X170225705Y-85317142D01*
X170225705Y-85317142D02*
X170273324Y-85412380D01*
X170273324Y-85412380D02*
X170320943Y-85460000D01*
X170320943Y-85460000D02*
X170416181Y-85507619D01*
X170416181Y-85507619D02*
X170606657Y-85507619D01*
X170606657Y-85507619D02*
X170701895Y-85460000D01*
X170701895Y-85460000D02*
X170749514Y-85412380D01*
X170749514Y-85412380D02*
X170797133Y-85317142D01*
X170797133Y-85317142D02*
X170797133Y-85079047D01*
X170797133Y-85079047D02*
X170749514Y-84983809D01*
X170749514Y-84983809D02*
X170701895Y-84936190D01*
X170701895Y-84936190D02*
X170606657Y-84888571D01*
X170606657Y-84888571D02*
X170416181Y-84888571D01*
X170416181Y-84888571D02*
X170320943Y-84936190D01*
X170320943Y-84936190D02*
X170273324Y-84983809D01*
X170273324Y-84983809D02*
X170225705Y-85079047D01*
X109075467Y-85460000D02*
X109218324Y-85507619D01*
X109218324Y-85507619D02*
X109456419Y-85507619D01*
X109456419Y-85507619D02*
X109551657Y-85460000D01*
X109551657Y-85460000D02*
X109599276Y-85412380D01*
X109599276Y-85412380D02*
X109646895Y-85317142D01*
X109646895Y-85317142D02*
X109646895Y-85221904D01*
X109646895Y-85221904D02*
X109599276Y-85126666D01*
X109599276Y-85126666D02*
X109551657Y-85079047D01*
X109551657Y-85079047D02*
X109456419Y-85031428D01*
X109456419Y-85031428D02*
X109265943Y-84983809D01*
X109265943Y-84983809D02*
X109170705Y-84936190D01*
X109170705Y-84936190D02*
X109123086Y-84888571D01*
X109123086Y-84888571D02*
X109075467Y-84793333D01*
X109075467Y-84793333D02*
X109075467Y-84698095D01*
X109075467Y-84698095D02*
X109123086Y-84602857D01*
X109123086Y-84602857D02*
X109170705Y-84555238D01*
X109170705Y-84555238D02*
X109265943Y-84507619D01*
X109265943Y-84507619D02*
X109504038Y-84507619D01*
X109504038Y-84507619D02*
X109646895Y-84555238D01*
X109980229Y-84507619D02*
X110218324Y-85507619D01*
X110218324Y-85507619D02*
X110408800Y-84793333D01*
X110408800Y-84793333D02*
X110599276Y-85507619D01*
X110599276Y-85507619D02*
X110837372Y-84507619D01*
X111694514Y-84507619D02*
X111218324Y-84507619D01*
X111218324Y-84507619D02*
X111170705Y-84983809D01*
X111170705Y-84983809D02*
X111218324Y-84936190D01*
X111218324Y-84936190D02*
X111313562Y-84888571D01*
X111313562Y-84888571D02*
X111551657Y-84888571D01*
X111551657Y-84888571D02*
X111646895Y-84936190D01*
X111646895Y-84936190D02*
X111694514Y-84983809D01*
X111694514Y-84983809D02*
X111742133Y-85079047D01*
X111742133Y-85079047D02*
X111742133Y-85317142D01*
X111742133Y-85317142D02*
X111694514Y-85412380D01*
X111694514Y-85412380D02*
X111646895Y-85460000D01*
X111646895Y-85460000D02*
X111551657Y-85507619D01*
X111551657Y-85507619D02*
X111313562Y-85507619D01*
X111313562Y-85507619D02*
X111218324Y-85460000D01*
X111218324Y-85460000D02*
X111170705Y-85412380D01*
X182735467Y-59983800D02*
X182878324Y-60031419D01*
X182878324Y-60031419D02*
X183116419Y-60031419D01*
X183116419Y-60031419D02*
X183211657Y-59983800D01*
X183211657Y-59983800D02*
X183259276Y-59936180D01*
X183259276Y-59936180D02*
X183306895Y-59840942D01*
X183306895Y-59840942D02*
X183306895Y-59745704D01*
X183306895Y-59745704D02*
X183259276Y-59650466D01*
X183259276Y-59650466D02*
X183211657Y-59602847D01*
X183211657Y-59602847D02*
X183116419Y-59555228D01*
X183116419Y-59555228D02*
X182925943Y-59507609D01*
X182925943Y-59507609D02*
X182830705Y-59459990D01*
X182830705Y-59459990D02*
X182783086Y-59412371D01*
X182783086Y-59412371D02*
X182735467Y-59317133D01*
X182735467Y-59317133D02*
X182735467Y-59221895D01*
X182735467Y-59221895D02*
X182783086Y-59126657D01*
X182783086Y-59126657D02*
X182830705Y-59079038D01*
X182830705Y-59079038D02*
X182925943Y-59031419D01*
X182925943Y-59031419D02*
X183164038Y-59031419D01*
X183164038Y-59031419D02*
X183306895Y-59079038D01*
X183640229Y-59031419D02*
X183878324Y-60031419D01*
X183878324Y-60031419D02*
X184068800Y-59317133D01*
X184068800Y-59317133D02*
X184259276Y-60031419D01*
X184259276Y-60031419D02*
X184497372Y-59031419D01*
X185306895Y-59364752D02*
X185306895Y-60031419D01*
X185068800Y-58983800D02*
X184830705Y-59698085D01*
X184830705Y-59698085D02*
X185449752Y-59698085D01*
X153220667Y-59983800D02*
X153363524Y-60031419D01*
X153363524Y-60031419D02*
X153601619Y-60031419D01*
X153601619Y-60031419D02*
X153696857Y-59983800D01*
X153696857Y-59983800D02*
X153744476Y-59936180D01*
X153744476Y-59936180D02*
X153792095Y-59840942D01*
X153792095Y-59840942D02*
X153792095Y-59745704D01*
X153792095Y-59745704D02*
X153744476Y-59650466D01*
X153744476Y-59650466D02*
X153696857Y-59602847D01*
X153696857Y-59602847D02*
X153601619Y-59555228D01*
X153601619Y-59555228D02*
X153411143Y-59507609D01*
X153411143Y-59507609D02*
X153315905Y-59459990D01*
X153315905Y-59459990D02*
X153268286Y-59412371D01*
X153268286Y-59412371D02*
X153220667Y-59317133D01*
X153220667Y-59317133D02*
X153220667Y-59221895D01*
X153220667Y-59221895D02*
X153268286Y-59126657D01*
X153268286Y-59126657D02*
X153315905Y-59079038D01*
X153315905Y-59079038D02*
X153411143Y-59031419D01*
X153411143Y-59031419D02*
X153649238Y-59031419D01*
X153649238Y-59031419D02*
X153792095Y-59079038D01*
X154125429Y-59031419D02*
X154363524Y-60031419D01*
X154363524Y-60031419D02*
X154554000Y-59317133D01*
X154554000Y-59317133D02*
X154744476Y-60031419D01*
X154744476Y-60031419D02*
X154982572Y-59031419D01*
X155268286Y-59031419D02*
X155887333Y-59031419D01*
X155887333Y-59031419D02*
X155554000Y-59412371D01*
X155554000Y-59412371D02*
X155696857Y-59412371D01*
X155696857Y-59412371D02*
X155792095Y-59459990D01*
X155792095Y-59459990D02*
X155839714Y-59507609D01*
X155839714Y-59507609D02*
X155887333Y-59602847D01*
X155887333Y-59602847D02*
X155887333Y-59840942D01*
X155887333Y-59840942D02*
X155839714Y-59936180D01*
X155839714Y-59936180D02*
X155792095Y-59983800D01*
X155792095Y-59983800D02*
X155696857Y-60031419D01*
X155696857Y-60031419D02*
X155411143Y-60031419D01*
X155411143Y-60031419D02*
X155315905Y-59983800D01*
X155315905Y-59983800D02*
X155268286Y-59936180D01*
X123807467Y-59983800D02*
X123950324Y-60031419D01*
X123950324Y-60031419D02*
X124188419Y-60031419D01*
X124188419Y-60031419D02*
X124283657Y-59983800D01*
X124283657Y-59983800D02*
X124331276Y-59936180D01*
X124331276Y-59936180D02*
X124378895Y-59840942D01*
X124378895Y-59840942D02*
X124378895Y-59745704D01*
X124378895Y-59745704D02*
X124331276Y-59650466D01*
X124331276Y-59650466D02*
X124283657Y-59602847D01*
X124283657Y-59602847D02*
X124188419Y-59555228D01*
X124188419Y-59555228D02*
X123997943Y-59507609D01*
X123997943Y-59507609D02*
X123902705Y-59459990D01*
X123902705Y-59459990D02*
X123855086Y-59412371D01*
X123855086Y-59412371D02*
X123807467Y-59317133D01*
X123807467Y-59317133D02*
X123807467Y-59221895D01*
X123807467Y-59221895D02*
X123855086Y-59126657D01*
X123855086Y-59126657D02*
X123902705Y-59079038D01*
X123902705Y-59079038D02*
X123997943Y-59031419D01*
X123997943Y-59031419D02*
X124236038Y-59031419D01*
X124236038Y-59031419D02*
X124378895Y-59079038D01*
X124712229Y-59031419D02*
X124950324Y-60031419D01*
X124950324Y-60031419D02*
X125140800Y-59317133D01*
X125140800Y-59317133D02*
X125331276Y-60031419D01*
X125331276Y-60031419D02*
X125569372Y-59031419D01*
X125902705Y-59126657D02*
X125950324Y-59079038D01*
X125950324Y-59079038D02*
X126045562Y-59031419D01*
X126045562Y-59031419D02*
X126283657Y-59031419D01*
X126283657Y-59031419D02*
X126378895Y-59079038D01*
X126378895Y-59079038D02*
X126426514Y-59126657D01*
X126426514Y-59126657D02*
X126474133Y-59221895D01*
X126474133Y-59221895D02*
X126474133Y-59317133D01*
X126474133Y-59317133D02*
X126426514Y-59459990D01*
X126426514Y-59459990D02*
X125855086Y-60031419D01*
X125855086Y-60031419D02*
X126474133Y-60031419D01*
X94267267Y-59983800D02*
X94410124Y-60031419D01*
X94410124Y-60031419D02*
X94648219Y-60031419D01*
X94648219Y-60031419D02*
X94743457Y-59983800D01*
X94743457Y-59983800D02*
X94791076Y-59936180D01*
X94791076Y-59936180D02*
X94838695Y-59840942D01*
X94838695Y-59840942D02*
X94838695Y-59745704D01*
X94838695Y-59745704D02*
X94791076Y-59650466D01*
X94791076Y-59650466D02*
X94743457Y-59602847D01*
X94743457Y-59602847D02*
X94648219Y-59555228D01*
X94648219Y-59555228D02*
X94457743Y-59507609D01*
X94457743Y-59507609D02*
X94362505Y-59459990D01*
X94362505Y-59459990D02*
X94314886Y-59412371D01*
X94314886Y-59412371D02*
X94267267Y-59317133D01*
X94267267Y-59317133D02*
X94267267Y-59221895D01*
X94267267Y-59221895D02*
X94314886Y-59126657D01*
X94314886Y-59126657D02*
X94362505Y-59079038D01*
X94362505Y-59079038D02*
X94457743Y-59031419D01*
X94457743Y-59031419D02*
X94695838Y-59031419D01*
X94695838Y-59031419D02*
X94838695Y-59079038D01*
X95172029Y-59031419D02*
X95410124Y-60031419D01*
X95410124Y-60031419D02*
X95600600Y-59317133D01*
X95600600Y-59317133D02*
X95791076Y-60031419D01*
X95791076Y-60031419D02*
X96029172Y-59031419D01*
X96933933Y-60031419D02*
X96362505Y-60031419D01*
X96648219Y-60031419D02*
X96648219Y-59031419D01*
X96648219Y-59031419D02*
X96552981Y-59174276D01*
X96552981Y-59174276D02*
X96457743Y-59269514D01*
X96457743Y-59269514D02*
X96362505Y-59317133D01*
X173175705Y-102441219D02*
X173175705Y-101441219D01*
X173175705Y-101441219D02*
X173413800Y-101441219D01*
X173413800Y-101441219D02*
X173556657Y-101488838D01*
X173556657Y-101488838D02*
X173651895Y-101584076D01*
X173651895Y-101584076D02*
X173699514Y-101679314D01*
X173699514Y-101679314D02*
X173747133Y-101869790D01*
X173747133Y-101869790D02*
X173747133Y-102012647D01*
X173747133Y-102012647D02*
X173699514Y-102203123D01*
X173699514Y-102203123D02*
X173651895Y-102298361D01*
X173651895Y-102298361D02*
X173556657Y-102393600D01*
X173556657Y-102393600D02*
X173413800Y-102441219D01*
X173413800Y-102441219D02*
X173175705Y-102441219D01*
X174604276Y-101441219D02*
X174413800Y-101441219D01*
X174413800Y-101441219D02*
X174318562Y-101488838D01*
X174318562Y-101488838D02*
X174270943Y-101536457D01*
X174270943Y-101536457D02*
X174175705Y-101679314D01*
X174175705Y-101679314D02*
X174128086Y-101869790D01*
X174128086Y-101869790D02*
X174128086Y-102250742D01*
X174128086Y-102250742D02*
X174175705Y-102345980D01*
X174175705Y-102345980D02*
X174223324Y-102393600D01*
X174223324Y-102393600D02*
X174318562Y-102441219D01*
X174318562Y-102441219D02*
X174509038Y-102441219D01*
X174509038Y-102441219D02*
X174604276Y-102393600D01*
X174604276Y-102393600D02*
X174651895Y-102345980D01*
X174651895Y-102345980D02*
X174699514Y-102250742D01*
X174699514Y-102250742D02*
X174699514Y-102012647D01*
X174699514Y-102012647D02*
X174651895Y-101917409D01*
X174651895Y-101917409D02*
X174604276Y-101869790D01*
X174604276Y-101869790D02*
X174509038Y-101822171D01*
X174509038Y-101822171D02*
X174318562Y-101822171D01*
X174318562Y-101822171D02*
X174223324Y-101869790D01*
X174223324Y-101869790D02*
X174175705Y-101917409D01*
X174175705Y-101917409D02*
X174128086Y-102012647D01*
X114120705Y-102390219D02*
X114120705Y-101390219D01*
X114120705Y-101390219D02*
X114358800Y-101390219D01*
X114358800Y-101390219D02*
X114501657Y-101437838D01*
X114501657Y-101437838D02*
X114596895Y-101533076D01*
X114596895Y-101533076D02*
X114644514Y-101628314D01*
X114644514Y-101628314D02*
X114692133Y-101818790D01*
X114692133Y-101818790D02*
X114692133Y-101961647D01*
X114692133Y-101961647D02*
X114644514Y-102152123D01*
X114644514Y-102152123D02*
X114596895Y-102247361D01*
X114596895Y-102247361D02*
X114501657Y-102342600D01*
X114501657Y-102342600D02*
X114358800Y-102390219D01*
X114358800Y-102390219D02*
X114120705Y-102390219D01*
X115596895Y-101390219D02*
X115120705Y-101390219D01*
X115120705Y-101390219D02*
X115073086Y-101866409D01*
X115073086Y-101866409D02*
X115120705Y-101818790D01*
X115120705Y-101818790D02*
X115215943Y-101771171D01*
X115215943Y-101771171D02*
X115454038Y-101771171D01*
X115454038Y-101771171D02*
X115549276Y-101818790D01*
X115549276Y-101818790D02*
X115596895Y-101866409D01*
X115596895Y-101866409D02*
X115644514Y-101961647D01*
X115644514Y-101961647D02*
X115644514Y-102199742D01*
X115644514Y-102199742D02*
X115596895Y-102294980D01*
X115596895Y-102294980D02*
X115549276Y-102342600D01*
X115549276Y-102342600D02*
X115454038Y-102390219D01*
X115454038Y-102390219D02*
X115215943Y-102390219D01*
X115215943Y-102390219D02*
X115120705Y-102342600D01*
X115120705Y-102342600D02*
X115073086Y-102294980D01*
X187780705Y-76837819D02*
X187780705Y-75837819D01*
X187780705Y-75837819D02*
X188018800Y-75837819D01*
X188018800Y-75837819D02*
X188161657Y-75885438D01*
X188161657Y-75885438D02*
X188256895Y-75980676D01*
X188256895Y-75980676D02*
X188304514Y-76075914D01*
X188304514Y-76075914D02*
X188352133Y-76266390D01*
X188352133Y-76266390D02*
X188352133Y-76409247D01*
X188352133Y-76409247D02*
X188304514Y-76599723D01*
X188304514Y-76599723D02*
X188256895Y-76694961D01*
X188256895Y-76694961D02*
X188161657Y-76790200D01*
X188161657Y-76790200D02*
X188018800Y-76837819D01*
X188018800Y-76837819D02*
X187780705Y-76837819D01*
X189209276Y-76171152D02*
X189209276Y-76837819D01*
X188971181Y-75790200D02*
X188733086Y-76504485D01*
X188733086Y-76504485D02*
X189352133Y-76504485D01*
X158265905Y-66113819D02*
X158265905Y-65113819D01*
X158265905Y-65113819D02*
X158504000Y-65113819D01*
X158504000Y-65113819D02*
X158646857Y-65161438D01*
X158646857Y-65161438D02*
X158742095Y-65256676D01*
X158742095Y-65256676D02*
X158789714Y-65351914D01*
X158789714Y-65351914D02*
X158837333Y-65542390D01*
X158837333Y-65542390D02*
X158837333Y-65685247D01*
X158837333Y-65685247D02*
X158789714Y-65875723D01*
X158789714Y-65875723D02*
X158742095Y-65970961D01*
X158742095Y-65970961D02*
X158646857Y-66066200D01*
X158646857Y-66066200D02*
X158504000Y-66113819D01*
X158504000Y-66113819D02*
X158265905Y-66113819D01*
X159170667Y-65113819D02*
X159789714Y-65113819D01*
X159789714Y-65113819D02*
X159456381Y-65494771D01*
X159456381Y-65494771D02*
X159599238Y-65494771D01*
X159599238Y-65494771D02*
X159694476Y-65542390D01*
X159694476Y-65542390D02*
X159742095Y-65590009D01*
X159742095Y-65590009D02*
X159789714Y-65685247D01*
X159789714Y-65685247D02*
X159789714Y-65923342D01*
X159789714Y-65923342D02*
X159742095Y-66018580D01*
X159742095Y-66018580D02*
X159694476Y-66066200D01*
X159694476Y-66066200D02*
X159599238Y-66113819D01*
X159599238Y-66113819D02*
X159313524Y-66113819D01*
X159313524Y-66113819D02*
X159218286Y-66066200D01*
X159218286Y-66066200D02*
X159170667Y-66018580D01*
X133602505Y-80185419D02*
X133602505Y-79185419D01*
X133602505Y-79185419D02*
X133840600Y-79185419D01*
X133840600Y-79185419D02*
X133983457Y-79233038D01*
X133983457Y-79233038D02*
X134078695Y-79328276D01*
X134078695Y-79328276D02*
X134126314Y-79423514D01*
X134126314Y-79423514D02*
X134173933Y-79613990D01*
X134173933Y-79613990D02*
X134173933Y-79756847D01*
X134173933Y-79756847D02*
X134126314Y-79947323D01*
X134126314Y-79947323D02*
X134078695Y-80042561D01*
X134078695Y-80042561D02*
X133983457Y-80137800D01*
X133983457Y-80137800D02*
X133840600Y-80185419D01*
X133840600Y-80185419D02*
X133602505Y-80185419D01*
X134554886Y-79280657D02*
X134602505Y-79233038D01*
X134602505Y-79233038D02*
X134697743Y-79185419D01*
X134697743Y-79185419D02*
X134935838Y-79185419D01*
X134935838Y-79185419D02*
X135031076Y-79233038D01*
X135031076Y-79233038D02*
X135078695Y-79280657D01*
X135078695Y-79280657D02*
X135126314Y-79375895D01*
X135126314Y-79375895D02*
X135126314Y-79471133D01*
X135126314Y-79471133D02*
X135078695Y-79613990D01*
X135078695Y-79613990D02*
X134507267Y-80185419D01*
X134507267Y-80185419D02*
X135126314Y-80185419D01*
X99312505Y-76837819D02*
X99312505Y-75837819D01*
X99312505Y-75837819D02*
X99550600Y-75837819D01*
X99550600Y-75837819D02*
X99693457Y-75885438D01*
X99693457Y-75885438D02*
X99788695Y-75980676D01*
X99788695Y-75980676D02*
X99836314Y-76075914D01*
X99836314Y-76075914D02*
X99883933Y-76266390D01*
X99883933Y-76266390D02*
X99883933Y-76409247D01*
X99883933Y-76409247D02*
X99836314Y-76599723D01*
X99836314Y-76599723D02*
X99788695Y-76694961D01*
X99788695Y-76694961D02*
X99693457Y-76790200D01*
X99693457Y-76790200D02*
X99550600Y-76837819D01*
X99550600Y-76837819D02*
X99312505Y-76837819D01*
X100836314Y-76837819D02*
X100264886Y-76837819D01*
X100550600Y-76837819D02*
X100550600Y-75837819D01*
X100550600Y-75837819D02*
X100455362Y-75980676D01*
X100455362Y-75980676D02*
X100360124Y-76075914D01*
X100360124Y-76075914D02*
X100264886Y-76123533D01*
X167485633Y-102243180D02*
X167438014Y-102290800D01*
X167438014Y-102290800D02*
X167295157Y-102338419D01*
X167295157Y-102338419D02*
X167199919Y-102338419D01*
X167199919Y-102338419D02*
X167057062Y-102290800D01*
X167057062Y-102290800D02*
X166961824Y-102195561D01*
X166961824Y-102195561D02*
X166914205Y-102100323D01*
X166914205Y-102100323D02*
X166866586Y-101909847D01*
X166866586Y-101909847D02*
X166866586Y-101766990D01*
X166866586Y-101766990D02*
X166914205Y-101576514D01*
X166914205Y-101576514D02*
X166961824Y-101481276D01*
X166961824Y-101481276D02*
X167057062Y-101386038D01*
X167057062Y-101386038D02*
X167199919Y-101338419D01*
X167199919Y-101338419D02*
X167295157Y-101338419D01*
X167295157Y-101338419D02*
X167438014Y-101386038D01*
X167438014Y-101386038D02*
X167485633Y-101433657D01*
X167818967Y-101338419D02*
X168485633Y-101338419D01*
X168485633Y-101338419D02*
X168057062Y-102338419D01*
X108379833Y-102293980D02*
X108332214Y-102341600D01*
X108332214Y-102341600D02*
X108189357Y-102389219D01*
X108189357Y-102389219D02*
X108094119Y-102389219D01*
X108094119Y-102389219D02*
X107951262Y-102341600D01*
X107951262Y-102341600D02*
X107856024Y-102246361D01*
X107856024Y-102246361D02*
X107808405Y-102151123D01*
X107808405Y-102151123D02*
X107760786Y-101960647D01*
X107760786Y-101960647D02*
X107760786Y-101817790D01*
X107760786Y-101817790D02*
X107808405Y-101627314D01*
X107808405Y-101627314D02*
X107856024Y-101532076D01*
X107856024Y-101532076D02*
X107951262Y-101436838D01*
X107951262Y-101436838D02*
X108094119Y-101389219D01*
X108094119Y-101389219D02*
X108189357Y-101389219D01*
X108189357Y-101389219D02*
X108332214Y-101436838D01*
X108332214Y-101436838D02*
X108379833Y-101484457D01*
X109236976Y-101389219D02*
X109046500Y-101389219D01*
X109046500Y-101389219D02*
X108951262Y-101436838D01*
X108951262Y-101436838D02*
X108903643Y-101484457D01*
X108903643Y-101484457D02*
X108808405Y-101627314D01*
X108808405Y-101627314D02*
X108760786Y-101817790D01*
X108760786Y-101817790D02*
X108760786Y-102198742D01*
X108760786Y-102198742D02*
X108808405Y-102293980D01*
X108808405Y-102293980D02*
X108856024Y-102341600D01*
X108856024Y-102341600D02*
X108951262Y-102389219D01*
X108951262Y-102389219D02*
X109141738Y-102389219D01*
X109141738Y-102389219D02*
X109236976Y-102341600D01*
X109236976Y-102341600D02*
X109284595Y-102293980D01*
X109284595Y-102293980D02*
X109332214Y-102198742D01*
X109332214Y-102198742D02*
X109332214Y-101960647D01*
X109332214Y-101960647D02*
X109284595Y-101865409D01*
X109284595Y-101865409D02*
X109236976Y-101817790D01*
X109236976Y-101817790D02*
X109141738Y-101770171D01*
X109141738Y-101770171D02*
X108951262Y-101770171D01*
X108951262Y-101770171D02*
X108856024Y-101817790D01*
X108856024Y-101817790D02*
X108808405Y-101865409D01*
X108808405Y-101865409D02*
X108760786Y-101960647D01*
X182141433Y-76741580D02*
X182093814Y-76789200D01*
X182093814Y-76789200D02*
X181950957Y-76836819D01*
X181950957Y-76836819D02*
X181855719Y-76836819D01*
X181855719Y-76836819D02*
X181712862Y-76789200D01*
X181712862Y-76789200D02*
X181617624Y-76693961D01*
X181617624Y-76693961D02*
X181570005Y-76598723D01*
X181570005Y-76598723D02*
X181522386Y-76408247D01*
X181522386Y-76408247D02*
X181522386Y-76265390D01*
X181522386Y-76265390D02*
X181570005Y-76074914D01*
X181570005Y-76074914D02*
X181617624Y-75979676D01*
X181617624Y-75979676D02*
X181712862Y-75884438D01*
X181712862Y-75884438D02*
X181855719Y-75836819D01*
X181855719Y-75836819D02*
X181950957Y-75836819D01*
X181950957Y-75836819D02*
X182093814Y-75884438D01*
X182093814Y-75884438D02*
X182141433Y-75932057D01*
X183046195Y-75836819D02*
X182570005Y-75836819D01*
X182570005Y-75836819D02*
X182522386Y-76313009D01*
X182522386Y-76313009D02*
X182570005Y-76265390D01*
X182570005Y-76265390D02*
X182665243Y-76217771D01*
X182665243Y-76217771D02*
X182903338Y-76217771D01*
X182903338Y-76217771D02*
X182998576Y-76265390D01*
X182998576Y-76265390D02*
X183046195Y-76313009D01*
X183046195Y-76313009D02*
X183093814Y-76408247D01*
X183093814Y-76408247D02*
X183093814Y-76646342D01*
X183093814Y-76646342D02*
X183046195Y-76741580D01*
X183046195Y-76741580D02*
X182998576Y-76789200D01*
X182998576Y-76789200D02*
X182903338Y-76836819D01*
X182903338Y-76836819D02*
X182665243Y-76836819D01*
X182665243Y-76836819D02*
X182570005Y-76789200D01*
X182570005Y-76789200D02*
X182522386Y-76741580D01*
X152728233Y-75822980D02*
X152680614Y-75870600D01*
X152680614Y-75870600D02*
X152537757Y-75918219D01*
X152537757Y-75918219D02*
X152442519Y-75918219D01*
X152442519Y-75918219D02*
X152299662Y-75870600D01*
X152299662Y-75870600D02*
X152204424Y-75775361D01*
X152204424Y-75775361D02*
X152156805Y-75680123D01*
X152156805Y-75680123D02*
X152109186Y-75489647D01*
X152109186Y-75489647D02*
X152109186Y-75346790D01*
X152109186Y-75346790D02*
X152156805Y-75156314D01*
X152156805Y-75156314D02*
X152204424Y-75061076D01*
X152204424Y-75061076D02*
X152299662Y-74965838D01*
X152299662Y-74965838D02*
X152442519Y-74918219D01*
X152442519Y-74918219D02*
X152537757Y-74918219D01*
X152537757Y-74918219D02*
X152680614Y-74965838D01*
X152680614Y-74965838D02*
X152728233Y-75013457D01*
X153585376Y-75251552D02*
X153585376Y-75918219D01*
X153347281Y-74870600D02*
X153109186Y-75584885D01*
X153109186Y-75584885D02*
X153728233Y-75584885D01*
X123213433Y-76741580D02*
X123165814Y-76789200D01*
X123165814Y-76789200D02*
X123022957Y-76836819D01*
X123022957Y-76836819D02*
X122927719Y-76836819D01*
X122927719Y-76836819D02*
X122784862Y-76789200D01*
X122784862Y-76789200D02*
X122689624Y-76693961D01*
X122689624Y-76693961D02*
X122642005Y-76598723D01*
X122642005Y-76598723D02*
X122594386Y-76408247D01*
X122594386Y-76408247D02*
X122594386Y-76265390D01*
X122594386Y-76265390D02*
X122642005Y-76074914D01*
X122642005Y-76074914D02*
X122689624Y-75979676D01*
X122689624Y-75979676D02*
X122784862Y-75884438D01*
X122784862Y-75884438D02*
X122927719Y-75836819D01*
X122927719Y-75836819D02*
X123022957Y-75836819D01*
X123022957Y-75836819D02*
X123165814Y-75884438D01*
X123165814Y-75884438D02*
X123213433Y-75932057D01*
X123594386Y-75932057D02*
X123642005Y-75884438D01*
X123642005Y-75884438D02*
X123737243Y-75836819D01*
X123737243Y-75836819D02*
X123975338Y-75836819D01*
X123975338Y-75836819D02*
X124070576Y-75884438D01*
X124070576Y-75884438D02*
X124118195Y-75932057D01*
X124118195Y-75932057D02*
X124165814Y-76027295D01*
X124165814Y-76027295D02*
X124165814Y-76122533D01*
X124165814Y-76122533D02*
X124118195Y-76265390D01*
X124118195Y-76265390D02*
X123546767Y-76836819D01*
X123546767Y-76836819D02*
X124165814Y-76836819D01*
X93597033Y-76665380D02*
X93549414Y-76713000D01*
X93549414Y-76713000D02*
X93406557Y-76760619D01*
X93406557Y-76760619D02*
X93311319Y-76760619D01*
X93311319Y-76760619D02*
X93168462Y-76713000D01*
X93168462Y-76713000D02*
X93073224Y-76617761D01*
X93073224Y-76617761D02*
X93025605Y-76522523D01*
X93025605Y-76522523D02*
X92977986Y-76332047D01*
X92977986Y-76332047D02*
X92977986Y-76189190D01*
X92977986Y-76189190D02*
X93025605Y-75998714D01*
X93025605Y-75998714D02*
X93073224Y-75903476D01*
X93073224Y-75903476D02*
X93168462Y-75808238D01*
X93168462Y-75808238D02*
X93311319Y-75760619D01*
X93311319Y-75760619D02*
X93406557Y-75760619D01*
X93406557Y-75760619D02*
X93549414Y-75808238D01*
X93549414Y-75808238D02*
X93597033Y-75855857D01*
X94549414Y-76760619D02*
X93977986Y-76760619D01*
X94263700Y-76760619D02*
X94263700Y-75760619D01*
X94263700Y-75760619D02*
X94168462Y-75903476D01*
X94168462Y-75903476D02*
X94073224Y-75998714D01*
X94073224Y-75998714D02*
X93977986Y-76046333D01*
D11*
X180263800Y-98152800D02*
X176163800Y-98152800D01*
X166963800Y-88152800D02*
X166663800Y-88452800D01*
X166663800Y-88452800D02*
X166363800Y-88152800D01*
X172163800Y-98152800D02*
X168063800Y-98152800D01*
X176163800Y-86352800D02*
X180263800Y-86352800D01*
X180263800Y-86352800D02*
X180263800Y-88752800D01*
X180263800Y-95752800D02*
X180263800Y-98152800D01*
X174163800Y-91752800D02*
X174163800Y-92752800D01*
X172163800Y-86352800D02*
X168063800Y-86352800D01*
X173663800Y-92252800D02*
X174663800Y-92252800D01*
X180263800Y-90952800D02*
X180263800Y-93552800D01*
X168063800Y-86352800D02*
X168063800Y-98152800D01*
X166363800Y-88152800D02*
X166963800Y-88152800D01*
X177163800Y-92252800D02*
G75*
G03*
X177163800Y-92252800I-3000000J0D01*
G01*
X121208800Y-98152800D02*
X117108800Y-98152800D01*
X107908800Y-88152800D02*
X107608800Y-88452800D01*
X107608800Y-88452800D02*
X107308800Y-88152800D01*
X113108800Y-98152800D02*
X109008800Y-98152800D01*
X117108800Y-86352800D02*
X121208800Y-86352800D01*
X121208800Y-86352800D02*
X121208800Y-88752800D01*
X121208800Y-95752800D02*
X121208800Y-98152800D01*
X115108800Y-91752800D02*
X115108800Y-92752800D01*
X113108800Y-86352800D02*
X109008800Y-86352800D01*
X114608800Y-92252800D02*
X115608800Y-92252800D01*
X121208800Y-90952800D02*
X121208800Y-93552800D01*
X109008800Y-86352800D02*
X109008800Y-98152800D01*
X107308800Y-88152800D02*
X107908800Y-88152800D01*
X118108800Y-92252800D02*
G75*
G03*
X118108800Y-92252800I-3000000J0D01*
G01*
X194868800Y-72676600D02*
X190768800Y-72676600D01*
X181568800Y-62676600D02*
X181268800Y-62976600D01*
X181268800Y-62976600D02*
X180968800Y-62676600D01*
X186768800Y-72676600D02*
X182668800Y-72676600D01*
X190768800Y-60876600D02*
X194868800Y-60876600D01*
X194868800Y-60876600D02*
X194868800Y-63276600D01*
X194868800Y-70276600D02*
X194868800Y-72676600D01*
X188768800Y-66276600D02*
X188768800Y-67276600D01*
X186768800Y-60876600D02*
X182668800Y-60876600D01*
X188268800Y-66776600D02*
X189268800Y-66776600D01*
X194868800Y-65476600D02*
X194868800Y-68076600D01*
X182668800Y-60876600D02*
X182668800Y-72676600D01*
X180968800Y-62676600D02*
X181568800Y-62676600D01*
X191768800Y-66776600D02*
G75*
G03*
X191768800Y-66776600I-3000000J0D01*
G01*
X162254000Y-66776600D02*
G75*
G03*
X162254000Y-66776600I-3000000J0D01*
G01*
X151454000Y-62676600D02*
X152054000Y-62676600D01*
X153154000Y-60876600D02*
X153154000Y-72676600D01*
X165354000Y-65476600D02*
X165354000Y-68076600D01*
X158754000Y-66776600D02*
X159754000Y-66776600D01*
X157254000Y-60876600D02*
X153154000Y-60876600D01*
X159254000Y-66276600D02*
X159254000Y-67276600D01*
X165354000Y-70276600D02*
X165354000Y-72676600D01*
X165354000Y-60876600D02*
X165354000Y-63276600D01*
X161254000Y-60876600D02*
X165354000Y-60876600D01*
X157254000Y-72676600D02*
X153154000Y-72676600D01*
X151754000Y-62976600D02*
X151454000Y-62676600D01*
X152054000Y-62676600D02*
X151754000Y-62976600D01*
X165354000Y-72676600D02*
X161254000Y-72676600D01*
X135940800Y-72676600D02*
X131840800Y-72676600D01*
X122640800Y-62676600D02*
X122340800Y-62976600D01*
X122340800Y-62976600D02*
X122040800Y-62676600D01*
X127840800Y-72676600D02*
X123740800Y-72676600D01*
X131840800Y-60876600D02*
X135940800Y-60876600D01*
X135940800Y-60876600D02*
X135940800Y-63276600D01*
X135940800Y-70276600D02*
X135940800Y-72676600D01*
X129840800Y-66276600D02*
X129840800Y-67276600D01*
X127840800Y-60876600D02*
X123740800Y-60876600D01*
X129340800Y-66776600D02*
X130340800Y-66776600D01*
X135940800Y-65476600D02*
X135940800Y-68076600D01*
X123740800Y-60876600D02*
X123740800Y-72676600D01*
X122040800Y-62676600D02*
X122640800Y-62676600D01*
X132840800Y-66776600D02*
G75*
G03*
X132840800Y-66776600I-3000000J0D01*
G01*
X106400600Y-72676600D02*
X102300600Y-72676600D01*
X93100600Y-62676600D02*
X92800600Y-62976600D01*
X92800600Y-62976600D02*
X92500600Y-62676600D01*
X98300600Y-72676600D02*
X94200600Y-72676600D01*
X102300600Y-60876600D02*
X106400600Y-60876600D01*
X106400600Y-60876600D02*
X106400600Y-63276600D01*
X106400600Y-70276600D02*
X106400600Y-72676600D01*
X100300600Y-66276600D02*
X100300600Y-67276600D01*
X98300600Y-60876600D02*
X94200600Y-60876600D01*
X99800600Y-66776600D02*
X100800600Y-66776600D01*
X106400600Y-65476600D02*
X106400600Y-68076600D01*
X94200600Y-60876600D02*
X94200600Y-72676600D01*
X92500600Y-62676600D02*
X93100600Y-62676600D01*
X103300600Y-66776600D02*
G75*
G03*
X103300600Y-66776600I-3000000J0D01*
G01*
X170263800Y-102736400D02*
X177563800Y-102736400D01*
X170263800Y-108236400D02*
X177563800Y-108236400D01*
X177563800Y-108236400D02*
X177563800Y-107086400D01*
X111208800Y-102685400D02*
X118508800Y-102685400D01*
X111208800Y-108185400D02*
X118508800Y-108185400D01*
X118508800Y-108185400D02*
X118508800Y-107035400D01*
X184868800Y-77133000D02*
X192168800Y-77133000D01*
X184868800Y-82633000D02*
X192168800Y-82633000D01*
X192168800Y-82633000D02*
X192168800Y-81483000D01*
X155354000Y-77133000D02*
X162654000Y-77133000D01*
X155354000Y-82633000D02*
X162654000Y-82633000D01*
X162654000Y-82633000D02*
X162654000Y-81483000D01*
X125940800Y-77133000D02*
X133240800Y-77133000D01*
X125940800Y-82633000D02*
X133240800Y-82633000D01*
X133240800Y-82633000D02*
X133240800Y-81483000D01*
X96400600Y-77133000D02*
X103700600Y-77133000D01*
X96400600Y-82633000D02*
X103700600Y-82633000D01*
X103700600Y-82633000D02*
X103700600Y-81483000D01*
X166941048Y-104643600D02*
X168363552Y-104643600D01*
X166941048Y-102823600D02*
X168363552Y-102823600D01*
X107835248Y-104694400D02*
X109257752Y-104694400D01*
X107835248Y-102874400D02*
X109257752Y-102874400D01*
X181596848Y-79142000D02*
X183019352Y-79142000D01*
X181596848Y-77322000D02*
X183019352Y-77322000D01*
X152285248Y-79116600D02*
X153707752Y-79116600D01*
X152285248Y-77296600D02*
X153707752Y-77296600D01*
X122668848Y-79142000D02*
X124091352Y-79142000D01*
X122668848Y-77322000D02*
X124091352Y-77322000D01*
X93052448Y-79065800D02*
X94474952Y-79065800D01*
X93052448Y-77245800D02*
X94474952Y-77245800D01*
%LPC*%
D12*
X166663800Y-89752800D03*
D13*
X166663800Y-94752800D03*
X166663800Y-92252800D03*
D14*
X174163800Y-97852800D03*
X174163800Y-86652800D03*
D13*
X181163800Y-94752800D03*
X181163800Y-89752800D03*
D12*
X107608800Y-89752800D03*
D13*
X107608800Y-94752800D03*
X107608800Y-92252800D03*
D14*
X115108800Y-97852800D03*
X115108800Y-86652800D03*
D13*
X122108800Y-94752800D03*
X122108800Y-89752800D03*
D12*
X181268800Y-64276600D03*
D13*
X181268800Y-69276600D03*
X181268800Y-66776600D03*
D14*
X188768800Y-72376600D03*
X188768800Y-61176600D03*
D13*
X195768800Y-69276600D03*
X195768800Y-64276600D03*
X166254000Y-64276600D03*
X166254000Y-69276600D03*
D14*
X159254000Y-61176600D03*
X159254000Y-72376600D03*
D13*
X151754000Y-66776600D03*
X151754000Y-69276600D03*
D12*
X151754000Y-64276600D03*
X122340800Y-64276600D03*
D13*
X122340800Y-69276600D03*
X122340800Y-66776600D03*
D14*
X129840800Y-72376600D03*
X129840800Y-61176600D03*
D13*
X136840800Y-69276600D03*
X136840800Y-64276600D03*
D12*
X92800600Y-64276600D03*
D13*
X92800600Y-69276600D03*
X92800600Y-66776600D03*
D14*
X100300600Y-72376600D03*
X100300600Y-61176600D03*
D13*
X107300600Y-69276600D03*
X107300600Y-64276600D03*
D15*
X102158800Y-48717200D03*
D16*
X102158800Y-51257200D03*
X104698800Y-48717200D03*
X104698800Y-51257200D03*
X107238800Y-48717200D03*
X107238800Y-51257200D03*
X109778800Y-48717200D03*
X109778800Y-51257200D03*
X112318800Y-48717200D03*
X112318800Y-51257200D03*
D17*
X176363800Y-107086400D03*
X176363800Y-103886400D03*
X171463800Y-103886400D03*
X171463800Y-107086400D03*
X117308800Y-107035400D03*
X117308800Y-103835400D03*
X112408800Y-103835400D03*
X112408800Y-107035400D03*
X190968800Y-81483000D03*
X190968800Y-78283000D03*
X186068800Y-78283000D03*
X186068800Y-81483000D03*
X161454000Y-81483000D03*
X161454000Y-78283000D03*
X156554000Y-78283000D03*
X156554000Y-81483000D03*
X132040800Y-81483000D03*
X132040800Y-78283000D03*
X127140800Y-78283000D03*
X127140800Y-81483000D03*
X102500600Y-81483000D03*
X102500600Y-78283000D03*
X97600600Y-78283000D03*
X97600600Y-81483000D03*
D18*
X166089800Y-103733600D03*
X169214800Y-103733600D03*
X106984000Y-103784400D03*
X110109000Y-103784400D03*
X180745600Y-78232000D03*
X183870600Y-78232000D03*
X151434000Y-78206600D03*
X154559000Y-78206600D03*
X121817600Y-78232000D03*
X124942600Y-78232000D03*
X92201200Y-78155800D03*
X95326200Y-78155800D03*
%LPD*%
M02*
