G04 #@! TF.GenerationSoftware,KiCad,Pcbnew,7.0.7*
G04 #@! TF.CreationDate,2024-03-19T10:03:33+01:00*
G04 #@! TF.ProjectId,Poly_UA_controller_6enc_4sw,506f6c79-5f55-4415-9f63-6f6e74726f6c,rev?*
G04 #@! TF.SameCoordinates,Original*
G04 #@! TF.FileFunction,Copper,L2,Bot*
G04 #@! TF.FilePolarity,Positive*
%FSLAX46Y46*%
G04 Gerber Fmt 4.6, Leading zero omitted, Abs format (unit mm)*
G04 Created by KiCad (PCBNEW 7.0.7) date 2024-03-19 10:03:33*
%MOMM*%
%LPD*%
G01*
G04 APERTURE LIST*
G04 Aperture macros list*
%AMRoundRect*
0 Rectangle with rounded corners*
0 $1 Rounding radius*
0 $2 $3 $4 $5 $6 $7 $8 $9 X,Y pos of 4 corners*
0 Add a 4 corners polygon primitive as box body*
4,1,4,$2,$3,$4,$5,$6,$7,$8,$9,$2,$3,0*
0 Add four circle primitives for the rounded corners*
1,1,$1+$1,$2,$3*
1,1,$1+$1,$4,$5*
1,1,$1+$1,$6,$7*
1,1,$1+$1,$8,$9*
0 Add four rect primitives between the rounded corners*
20,1,$1+$1,$2,$3,$4,$5,0*
20,1,$1+$1,$4,$5,$6,$7,0*
20,1,$1+$1,$6,$7,$8,$9,0*
20,1,$1+$1,$8,$9,$2,$3,0*%
G04 Aperture macros list end*
G04 #@! TA.AperFunction,SMDPad,CuDef*
%ADD10RoundRect,0.250000X0.650000X-0.412500X0.650000X0.412500X-0.650000X0.412500X-0.650000X-0.412500X0*%
G04 #@! TD*
G04 #@! TA.AperFunction,SMDPad,CuDef*
%ADD11RoundRect,0.150000X0.150000X-0.875000X0.150000X0.875000X-0.150000X0.875000X-0.150000X-0.875000X0*%
G04 #@! TD*
G04 #@! TA.AperFunction,ComponentPad*
%ADD12R,2.000000X2.000000*%
G04 #@! TD*
G04 #@! TA.AperFunction,ComponentPad*
%ADD13C,2.000000*%
G04 #@! TD*
G04 #@! TA.AperFunction,ComponentPad*
%ADD14R,3.200000X2.000000*%
G04 #@! TD*
G04 #@! TA.AperFunction,SMDPad,CuDef*
%ADD15RoundRect,0.250000X0.625000X-0.400000X0.625000X0.400000X-0.625000X0.400000X-0.625000X-0.400000X0*%
G04 #@! TD*
G04 #@! TA.AperFunction,SMDPad,CuDef*
%ADD16RoundRect,0.250000X-0.625000X0.400000X-0.625000X-0.400000X0.625000X-0.400000X0.625000X0.400000X0*%
G04 #@! TD*
G04 #@! TA.AperFunction,ComponentPad*
%ADD17R,1.700000X1.700000*%
G04 #@! TD*
G04 #@! TA.AperFunction,ComponentPad*
%ADD18O,1.700000X1.700000*%
G04 #@! TD*
G04 #@! TA.AperFunction,ViaPad*
%ADD19C,0.800000*%
G04 #@! TD*
G04 #@! TA.AperFunction,Conductor*
%ADD20C,0.500000*%
G04 #@! TD*
G04 #@! TA.AperFunction,Conductor*
%ADD21C,0.250000*%
G04 #@! TD*
G04 APERTURE END LIST*
D10*
X143535400Y-58878000D03*
X143535400Y-55753000D03*
D11*
X153720800Y-53341800D03*
X152450800Y-53341800D03*
X151180800Y-53341800D03*
X149910800Y-53341800D03*
X148640800Y-53341800D03*
X147370800Y-53341800D03*
X146100800Y-53341800D03*
X144830800Y-53341800D03*
X143560800Y-53341800D03*
X142290800Y-53341800D03*
X141020800Y-53341800D03*
X139750800Y-53341800D03*
X138480800Y-53341800D03*
X137210800Y-53341800D03*
X137210800Y-44041800D03*
X138480800Y-44041800D03*
X139750800Y-44041800D03*
X141020800Y-44041800D03*
X142290800Y-44041800D03*
X143560800Y-44041800D03*
X144830800Y-44041800D03*
X146100800Y-44041800D03*
X147370800Y-44041800D03*
X148640800Y-44041800D03*
X149910800Y-44041800D03*
X151180800Y-44041800D03*
X152450800Y-44041800D03*
X153720800Y-44041800D03*
D12*
X166663800Y-89752800D03*
D13*
X166663800Y-94752800D03*
X166663800Y-92252800D03*
D14*
X174163800Y-97852800D03*
X174163800Y-86652800D03*
D13*
X181163800Y-94752800D03*
X181163800Y-89752800D03*
D12*
X107608800Y-89752800D03*
D13*
X107608800Y-94752800D03*
X107608800Y-92252800D03*
D14*
X115108800Y-97852800D03*
X115108800Y-86652800D03*
D13*
X122108800Y-94752800D03*
X122108800Y-89752800D03*
D12*
X181268800Y-64276600D03*
D13*
X181268800Y-69276600D03*
X181268800Y-66776600D03*
D14*
X188768800Y-72376600D03*
X188768800Y-61176600D03*
D13*
X195768800Y-69276600D03*
X195768800Y-64276600D03*
X166254000Y-64276600D03*
X166254000Y-69276600D03*
D14*
X159254000Y-61176600D03*
X159254000Y-72376600D03*
D13*
X151754000Y-66776600D03*
X151754000Y-69276600D03*
D12*
X151754000Y-64276600D03*
X122340800Y-64276600D03*
D13*
X122340800Y-69276600D03*
X122340800Y-66776600D03*
D14*
X129840800Y-72376600D03*
X129840800Y-61176600D03*
D13*
X136840800Y-69276600D03*
X136840800Y-64276600D03*
D12*
X92800600Y-64276600D03*
D13*
X92800600Y-69276600D03*
X92800600Y-66776600D03*
D14*
X100300600Y-72376600D03*
X100300600Y-61176600D03*
D13*
X107300600Y-69276600D03*
X107300600Y-64276600D03*
D15*
X132765800Y-45110400D03*
X132765800Y-48210400D03*
X120269000Y-48388200D03*
X120269000Y-45288200D03*
D16*
X130251200Y-48210400D03*
X130251200Y-45110400D03*
X117450200Y-45288200D03*
X117450200Y-48388200D03*
D15*
X126415800Y-48210400D03*
X126415800Y-45110400D03*
D16*
X123697400Y-45110400D03*
X123697400Y-48210400D03*
X141020800Y-56159400D03*
X141020800Y-59259400D03*
D15*
X138404600Y-59564200D03*
X138404600Y-56464200D03*
D17*
X102158800Y-48717200D03*
D18*
X102158800Y-51257200D03*
X104698800Y-48717200D03*
X104698800Y-51257200D03*
X107238800Y-48717200D03*
X107238800Y-51257200D03*
X109778800Y-48717200D03*
X109778800Y-51257200D03*
X112318800Y-48717200D03*
X112318800Y-51257200D03*
D19*
X117195600Y-50393600D03*
X121691400Y-43459400D03*
X134696200Y-43535600D03*
X128219200Y-43535600D03*
X139141200Y-50088800D03*
X180035200Y-104343200D03*
X105283000Y-80797400D03*
X141376400Y-79451200D03*
X114604800Y-79781400D03*
X116357400Y-60020200D03*
X121843800Y-57683400D03*
X177317400Y-59537600D03*
X178816000Y-66725800D03*
X173939200Y-71145400D03*
X178028600Y-89687400D03*
X162915600Y-85471000D03*
X166827200Y-80086200D03*
X193954400Y-96748600D03*
X146583400Y-107467400D03*
X145872200Y-103708200D03*
X142748000Y-97231200D03*
X100888800Y-90906600D03*
X97358200Y-70891400D03*
X90881200Y-37998400D03*
X110007400Y-44653200D03*
X148412200Y-49530000D03*
X170434000Y-44500800D03*
X153720800Y-46075600D03*
X152628600Y-47853600D03*
X142290800Y-45567600D03*
X104851200Y-78257400D03*
X111531400Y-73634600D03*
D20*
X104241600Y-54254400D02*
X107238800Y-51257200D01*
X99999800Y-45872400D02*
X99999800Y-54254400D01*
X103835200Y-42037000D02*
X99999800Y-45872400D01*
X117602000Y-42037000D02*
X103835200Y-42037000D01*
X99999800Y-54254400D02*
X104241600Y-54254400D01*
D21*
X120269000Y-48388200D02*
X117450200Y-48388200D01*
X151104600Y-43965600D02*
X151180800Y-44041800D01*
X148539200Y-37973000D02*
X151104600Y-40538400D01*
X151104600Y-40538400D02*
X151104600Y-43965600D01*
X93929200Y-37973000D02*
X148539200Y-37973000D01*
X92724400Y-39177800D02*
X93929200Y-37973000D01*
X149834600Y-43965600D02*
X149910800Y-44041800D01*
X149834600Y-40513000D02*
X149834600Y-43965600D01*
X94996000Y-38557200D02*
X147878800Y-38557200D01*
X94945200Y-38608000D02*
X94996000Y-38557200D01*
X147878800Y-38557200D02*
X149834600Y-40513000D01*
X96291400Y-39293800D02*
X96240600Y-39243000D01*
X147066000Y-39293800D02*
X96291400Y-39293800D01*
X148640800Y-44041800D02*
X148640800Y-40868600D01*
X148640800Y-40868600D02*
X147066000Y-39293800D01*
X97764600Y-39827200D02*
X97434400Y-40157400D01*
X147370800Y-40894000D02*
X146304000Y-39827200D01*
X147370800Y-44041800D02*
X147370800Y-40894000D01*
X146304000Y-39827200D02*
X97764600Y-39827200D01*
X146100800Y-40894000D02*
X146100800Y-44041800D01*
X145745200Y-40538400D02*
X146100800Y-40894000D01*
X98933000Y-40538400D02*
X145745200Y-40538400D01*
X97256600Y-42214800D02*
X98933000Y-40538400D01*
X97256600Y-55753000D02*
X97256600Y-42214800D01*
X113919000Y-75438000D02*
X113919000Y-57277000D01*
X113919000Y-57277000D02*
X113588800Y-56946800D01*
X109982000Y-79375000D02*
X113919000Y-75438000D01*
X113588800Y-56946800D02*
X98450400Y-56946800D01*
X109982000Y-92379600D02*
X109982000Y-79375000D01*
X98450400Y-56946800D02*
X97256600Y-55753000D01*
X107608800Y-94752800D02*
X109982000Y-92379600D01*
X100152200Y-41224200D02*
X99288600Y-42087800D01*
X144818100Y-41224200D02*
X100152200Y-41224200D01*
X144830800Y-41236900D02*
X144818100Y-41224200D01*
X144830800Y-44041800D02*
X144830800Y-41236900D01*
X141020800Y-59259400D02*
X138709400Y-59259400D01*
X138709400Y-59259400D02*
X138404600Y-59564200D01*
X141020800Y-58801000D02*
X141020800Y-59259400D01*
X143535400Y-55753000D02*
X143535400Y-56286400D01*
X143535400Y-56286400D02*
X141020800Y-58801000D01*
X139750800Y-54889400D02*
X141020800Y-56159400D01*
X139750800Y-53341800D02*
X139750800Y-54889400D01*
X138379200Y-56438800D02*
X138404600Y-56464200D01*
X138379200Y-55092600D02*
X138379200Y-56438800D01*
D20*
X117602000Y-45136400D02*
X117450200Y-45288200D01*
X117602000Y-42037000D02*
X117602000Y-45136400D01*
X123748800Y-42037000D02*
X117602000Y-42037000D01*
X123748800Y-45059000D02*
X123697400Y-45110400D01*
X123748800Y-42037000D02*
X123748800Y-45059000D01*
X130505200Y-42037000D02*
X123748800Y-42037000D01*
X130505200Y-42037000D02*
X130505200Y-44856400D01*
X130505200Y-44856400D02*
X130251200Y-45110400D01*
X140919200Y-42037000D02*
X130505200Y-42037000D01*
D21*
X122782400Y-50901600D02*
X120269000Y-48388200D01*
X135813800Y-50901600D02*
X122782400Y-50901600D01*
X139750800Y-46964600D02*
X135813800Y-50901600D01*
X139750800Y-44041800D02*
X139750800Y-46964600D01*
X134162800Y-49885600D02*
X127406400Y-49885600D01*
X138480800Y-45567600D02*
X134162800Y-49885600D01*
X126415800Y-48895000D02*
X126415800Y-48210400D01*
X138480800Y-44041800D02*
X138480800Y-45567600D01*
X127406400Y-49885600D02*
X126415800Y-48895000D01*
X136934400Y-44041800D02*
X132765800Y-48210400D01*
X137210800Y-44041800D02*
X136934400Y-44041800D01*
X98501200Y-42875200D02*
X99364800Y-42011600D01*
X98501200Y-54660800D02*
X98501200Y-42875200D01*
X99542600Y-55702200D02*
X98501200Y-54660800D01*
X122108800Y-89752800D02*
X117525800Y-85169800D01*
X117525800Y-85169800D02*
X117525800Y-55702200D01*
X117525800Y-55702200D02*
X99542600Y-55702200D01*
D20*
X141020800Y-44041800D02*
X141020800Y-42138600D01*
X141020800Y-42138600D02*
X140919200Y-42037000D01*
D21*
X139750800Y-51993800D02*
X139750800Y-53341800D01*
X139496800Y-51739800D02*
X139750800Y-51993800D01*
X115341400Y-51739800D02*
X139496800Y-51739800D01*
X112318800Y-48717200D02*
X115341400Y-51739800D01*
X138480800Y-54991000D02*
X138480800Y-53341800D01*
X116154200Y-55092600D02*
X138379200Y-55092600D01*
X112318800Y-51257200D02*
X116154200Y-55092600D01*
X138379200Y-55092600D02*
X138480800Y-54991000D01*
X93091000Y-40538400D02*
X94919800Y-38709600D01*
X93091000Y-61917000D02*
X93091000Y-40538400D01*
X94125600Y-62951600D02*
X93091000Y-61917000D01*
X94919800Y-38709600D02*
X95021400Y-38709600D01*
X92800600Y-69276600D02*
X94125600Y-67951600D01*
X94125600Y-67951600D02*
X94125600Y-62951600D01*
X96062800Y-41452800D02*
X97510600Y-40005000D01*
X96062800Y-58089800D02*
X96062800Y-41452800D01*
X111683800Y-58089800D02*
X96062800Y-58089800D01*
X112699800Y-59105800D02*
X111683800Y-58089800D01*
X107608800Y-79741600D02*
X112699800Y-74650600D01*
X107608800Y-89752800D02*
X107608800Y-79741600D01*
X112699800Y-74650600D02*
X112699800Y-59105800D01*
X94665800Y-40817800D02*
X96316800Y-39166800D01*
X94665800Y-62026800D02*
X94665800Y-40817800D01*
X101915600Y-69276600D02*
X94665800Y-62026800D01*
X107300600Y-69276600D02*
X101915600Y-69276600D01*
X91160600Y-40741600D02*
X92800600Y-39101600D01*
X91160600Y-62636600D02*
X91160600Y-40741600D01*
X92800600Y-64276600D02*
X91160600Y-62636600D01*
D20*
X143560800Y-55854600D02*
X143408400Y-56007000D01*
X143560800Y-53341800D02*
X143560800Y-55854600D01*
D21*
X138480800Y-44041800D02*
X138480800Y-43615049D01*
X139750800Y-44041800D02*
X139750800Y-43129200D01*
D20*
X143560800Y-51739800D02*
X143560800Y-53341800D01*
X141020800Y-49199800D02*
X143560800Y-51739800D01*
X141020800Y-44041800D02*
X141020800Y-49199800D01*
D21*
X153720800Y-44041800D02*
X153720800Y-46075600D01*
X152450800Y-44041800D02*
X152450800Y-47675800D01*
X152450800Y-47675800D02*
X152628600Y-47853600D01*
X142290800Y-45567600D02*
X142290800Y-44041800D01*
X169062400Y-92354200D02*
X166663800Y-94752800D01*
X169062400Y-87325200D02*
X169062400Y-92354200D01*
X159308800Y-87325200D02*
X169062400Y-87325200D01*
X146100800Y-53341800D02*
X146100800Y-74117200D01*
X146100800Y-74117200D02*
X159308800Y-87325200D01*
X144830800Y-77419200D02*
X144830800Y-53341800D01*
X157164400Y-89752800D02*
X144830800Y-77419200D01*
X166663800Y-89752800D02*
X157164400Y-89752800D01*
X181163800Y-85891800D02*
X181163800Y-89752800D01*
X181279800Y-85547200D02*
X181279800Y-85775800D01*
X172339000Y-76606400D02*
X181279800Y-85547200D01*
X181279800Y-85775800D02*
X181163800Y-85891800D01*
X155371800Y-76606400D02*
X172339000Y-76606400D01*
X147370800Y-68605400D02*
X155371800Y-76606400D01*
X147370800Y-53341800D02*
X147370800Y-68605400D01*
X153212800Y-68681600D02*
X152349000Y-68681600D01*
X154813000Y-67081400D02*
X153212800Y-68681600D01*
X149910800Y-57429400D02*
X154813000Y-62331600D01*
X154813000Y-62331600D02*
X154813000Y-67081400D01*
X149910800Y-53341800D02*
X149910800Y-57429400D01*
X152349000Y-68681600D02*
X151754000Y-69276600D01*
X148640800Y-61163400D02*
X151754000Y-64276600D01*
X148640800Y-53341800D02*
X148640800Y-61163400D01*
X178191800Y-69276600D02*
X181268800Y-69276600D01*
X167741600Y-58826400D02*
X178191800Y-69276600D01*
X155016200Y-58826400D02*
X167741600Y-58826400D01*
X151180800Y-54991000D02*
X155016200Y-58826400D01*
X151180800Y-53341800D02*
X151180800Y-54991000D01*
X191882400Y-69276600D02*
X195768800Y-69276600D01*
X175844200Y-53238400D02*
X191882400Y-69276600D01*
X153824200Y-53238400D02*
X175844200Y-53238400D01*
X153720800Y-53341800D02*
X153824200Y-53238400D01*
X153822400Y-56032400D02*
X152450800Y-54660800D01*
X167487600Y-56032400D02*
X153822400Y-56032400D01*
X175731800Y-64276600D02*
X167487600Y-56032400D01*
X181268800Y-64276600D02*
X175731800Y-64276600D01*
X152450800Y-54660800D02*
X152450800Y-53341800D01*
X104851200Y-78257400D02*
X104876600Y-78257400D01*
X106908600Y-78257400D02*
X104851200Y-78257400D01*
X111531400Y-73634600D02*
X106908600Y-78257400D01*
D20*
X123393200Y-44806200D02*
X123697400Y-45110400D01*
D21*
X126415800Y-48210400D02*
X123697400Y-48210400D01*
X132765800Y-48210400D02*
X130251200Y-48210400D01*
G04 #@! TA.AperFunction,Conductor*
G36*
X167244187Y-56677585D02*
G01*
X167264829Y-56694219D01*
X175230997Y-64660388D01*
X175240822Y-64672651D01*
X175241043Y-64672469D01*
X175246014Y-64678478D01*
X175270586Y-64701552D01*
X175296435Y-64725826D01*
X175317329Y-64746720D01*
X175322811Y-64750973D01*
X175327243Y-64754757D01*
X175361218Y-64786662D01*
X175378776Y-64796314D01*
X175395035Y-64806995D01*
X175410864Y-64819273D01*
X175453638Y-64837782D01*
X175458856Y-64840338D01*
X175499708Y-64862797D01*
X175519116Y-64867780D01*
X175537517Y-64874080D01*
X175555904Y-64882037D01*
X175599288Y-64888908D01*
X175601919Y-64889325D01*
X175607639Y-64890509D01*
X175652781Y-64902100D01*
X175672816Y-64902100D01*
X175692214Y-64903626D01*
X175711994Y-64906759D01*
X175711995Y-64906760D01*
X175711995Y-64906759D01*
X175711996Y-64906760D01*
X175758383Y-64902375D01*
X175764222Y-64902100D01*
X179644301Y-64902100D01*
X179711340Y-64921785D01*
X179757095Y-64974589D01*
X179768301Y-65026100D01*
X179768301Y-65324476D01*
X179774708Y-65384083D01*
X179825002Y-65518928D01*
X179825006Y-65518935D01*
X179911252Y-65634144D01*
X179911255Y-65634147D01*
X180027786Y-65721383D01*
X180069657Y-65777317D01*
X180074641Y-65847008D01*
X180057284Y-65888470D01*
X179945067Y-66060231D01*
X179845212Y-66287882D01*
X179784187Y-66528861D01*
X179784185Y-66528870D01*
X179763659Y-66776594D01*
X179763659Y-66776605D01*
X179784185Y-67024329D01*
X179784187Y-67024338D01*
X179845212Y-67265317D01*
X179945066Y-67492964D01*
X180045364Y-67646482D01*
X180659850Y-67031995D01*
X180721173Y-66998510D01*
X180790864Y-67003494D01*
X180846798Y-67045365D01*
X180851839Y-67052625D01*
X180883058Y-67101204D01*
X180887039Y-67107398D01*
X181002402Y-67207359D01*
X181000093Y-67210022D01*
X181034806Y-67250099D01*
X181044735Y-67319260D01*
X181015698Y-67382810D01*
X181009682Y-67389269D01*
X180392900Y-68006050D01*
X180382282Y-68052748D01*
X180350176Y-68090156D01*
X180249055Y-68168862D01*
X180080633Y-68351817D01*
X179944624Y-68559996D01*
X179937205Y-68576911D01*
X179892249Y-68630397D01*
X179825513Y-68651086D01*
X179823650Y-68651100D01*
X178502252Y-68651100D01*
X178435213Y-68631415D01*
X178414571Y-68614781D01*
X168242403Y-58442612D01*
X168232580Y-58430350D01*
X168232359Y-58430534D01*
X168227386Y-58424523D01*
X168191413Y-58390742D01*
X168176964Y-58377173D01*
X168166519Y-58366728D01*
X168156075Y-58356283D01*
X168150586Y-58352025D01*
X168146161Y-58348247D01*
X168112182Y-58316338D01*
X168112180Y-58316336D01*
X168112177Y-58316335D01*
X168094629Y-58306688D01*
X168078363Y-58296004D01*
X168062533Y-58283725D01*
X168019768Y-58265218D01*
X168014522Y-58262648D01*
X167973693Y-58240203D01*
X167973692Y-58240202D01*
X167954293Y-58235222D01*
X167935881Y-58228918D01*
X167917498Y-58220962D01*
X167917492Y-58220960D01*
X167871474Y-58213672D01*
X167865752Y-58212487D01*
X167820621Y-58200900D01*
X167820619Y-58200900D01*
X167800584Y-58200900D01*
X167781186Y-58199373D01*
X167773762Y-58198197D01*
X167761405Y-58196240D01*
X167761404Y-58196240D01*
X167715016Y-58200625D01*
X167709178Y-58200900D01*
X155326652Y-58200900D01*
X155259613Y-58181215D01*
X155238971Y-58164581D01*
X153943972Y-56869581D01*
X153910487Y-56808258D01*
X153915471Y-56738566D01*
X153957343Y-56682633D01*
X154022807Y-56658216D01*
X154031653Y-56657900D01*
X167177148Y-56657900D01*
X167244187Y-56677585D01*
G37*
G04 #@! TD.AperFunction*
G04 #@! TA.AperFunction,Conductor*
G36*
X149469341Y-57875989D02*
G01*
X149487110Y-57890689D01*
X149491432Y-57894622D01*
X154151181Y-62554371D01*
X154184666Y-62615694D01*
X154187500Y-62642052D01*
X154187500Y-66770947D01*
X154167815Y-66837986D01*
X154151181Y-66858628D01*
X152990028Y-68019781D01*
X152928705Y-68053266D01*
X152902347Y-68056100D01*
X152731310Y-68056100D01*
X152664271Y-68036415D01*
X152643629Y-68019781D01*
X152013116Y-67389269D01*
X151979631Y-67327946D01*
X151984615Y-67258255D01*
X152021640Y-67208793D01*
X152020398Y-67207359D01*
X152074568Y-67160421D01*
X152135761Y-67107398D01*
X152170954Y-67052637D01*
X152223755Y-67006883D01*
X152292914Y-66996939D01*
X152356470Y-67025963D01*
X152362949Y-67031996D01*
X152977434Y-67646482D01*
X153077731Y-67492969D01*
X153177587Y-67265317D01*
X153238612Y-67024338D01*
X153238614Y-67024329D01*
X153259141Y-66776605D01*
X153259141Y-66776594D01*
X153238614Y-66528870D01*
X153238612Y-66528861D01*
X153177587Y-66287882D01*
X153077732Y-66060232D01*
X152965515Y-65888470D01*
X152945328Y-65821581D01*
X152964508Y-65754395D01*
X152995013Y-65721382D01*
X152996329Y-65720396D01*
X152996331Y-65720396D01*
X153111546Y-65634146D01*
X153197796Y-65518931D01*
X153248091Y-65384083D01*
X153254500Y-65324473D01*
X153254499Y-63228728D01*
X153248091Y-63169117D01*
X153222991Y-63101821D01*
X153197797Y-63034271D01*
X153197793Y-63034264D01*
X153111547Y-62919055D01*
X153111544Y-62919052D01*
X152996335Y-62832806D01*
X152996328Y-62832802D01*
X152861482Y-62782508D01*
X152861483Y-62782508D01*
X152801883Y-62776101D01*
X152801881Y-62776100D01*
X152801873Y-62776100D01*
X152801865Y-62776100D01*
X151189453Y-62776100D01*
X151122414Y-62756415D01*
X151101772Y-62739781D01*
X149302619Y-60940628D01*
X149269134Y-60879305D01*
X149266300Y-60852947D01*
X149266300Y-57971532D01*
X149285985Y-57904493D01*
X149338789Y-57858738D01*
X149407947Y-57848794D01*
X149469341Y-57875989D01*
G37*
G04 #@! TD.AperFunction*
G04 #@! TA.AperFunction,Conductor*
G36*
X140189634Y-47512869D02*
G01*
X140245567Y-47554741D01*
X140269984Y-47620205D01*
X140270300Y-47629051D01*
X140270300Y-49136094D01*
X140268991Y-49154063D01*
X140265510Y-49177825D01*
X140270064Y-49229864D01*
X140270300Y-49235270D01*
X140270300Y-49243509D01*
X140274106Y-49276074D01*
X140280800Y-49352591D01*
X140282261Y-49359667D01*
X140282203Y-49359678D01*
X140283834Y-49367037D01*
X140283892Y-49367024D01*
X140285557Y-49374050D01*
X140311825Y-49446224D01*
X140335985Y-49519131D01*
X140339036Y-49525674D01*
X140338982Y-49525698D01*
X140342270Y-49532488D01*
X140342321Y-49532463D01*
X140345561Y-49538913D01*
X140345562Y-49538914D01*
X140345563Y-49538917D01*
X140378237Y-49588596D01*
X140387765Y-49603083D01*
X140428087Y-49668455D01*
X140432566Y-49674119D01*
X140432519Y-49674156D01*
X140437282Y-49680002D01*
X140437328Y-49679964D01*
X140441973Y-49685500D01*
X140497818Y-49738185D01*
X140497818Y-49738186D01*
X141553169Y-50793537D01*
X142504481Y-51744848D01*
X142537966Y-51806171D01*
X142540800Y-51832529D01*
X142540800Y-53467800D01*
X142521115Y-53534839D01*
X142468311Y-53580594D01*
X142416800Y-53591800D01*
X142164800Y-53591800D01*
X142097761Y-53572115D01*
X142052006Y-53519311D01*
X142040800Y-53467800D01*
X142040800Y-51819503D01*
X142038303Y-51819700D01*
X141880606Y-51865516D01*
X141880603Y-51865517D01*
X141739249Y-51949113D01*
X141733083Y-51953897D01*
X141731189Y-51951455D01*
X141682380Y-51978039D01*
X141612694Y-51972979D01*
X141580027Y-51951959D01*
X141578831Y-51953502D01*
X141572662Y-51948717D01*
X141490522Y-51900140D01*
X141431198Y-51865056D01*
X141431197Y-51865055D01*
X141431196Y-51865055D01*
X141431193Y-51865054D01*
X141273373Y-51819202D01*
X141273367Y-51819201D01*
X141236496Y-51816300D01*
X141236494Y-51816300D01*
X140805106Y-51816300D01*
X140805104Y-51816300D01*
X140768232Y-51819201D01*
X140768226Y-51819202D01*
X140610406Y-51865054D01*
X140610405Y-51865054D01*
X140542658Y-51905119D01*
X140474934Y-51922300D01*
X140408671Y-51900140D01*
X140364909Y-51845674D01*
X140364246Y-51844034D01*
X140344312Y-51793688D01*
X140342419Y-51788158D01*
X140329419Y-51743412D01*
X140319218Y-51726163D01*
X140310660Y-51708694D01*
X140303286Y-51690068D01*
X140303283Y-51690064D01*
X140303283Y-51690063D01*
X140275898Y-51652371D01*
X140272690Y-51647487D01*
X140248972Y-51607382D01*
X140248963Y-51607371D01*
X140234805Y-51593213D01*
X140222170Y-51578420D01*
X140210393Y-51562212D01*
X140174493Y-51532513D01*
X140170181Y-51528590D01*
X139997603Y-51356012D01*
X139987780Y-51343750D01*
X139987559Y-51343934D01*
X139982586Y-51337923D01*
X139981080Y-51336509D01*
X139932164Y-51290573D01*
X139921719Y-51280128D01*
X139911275Y-51269683D01*
X139905786Y-51265425D01*
X139901361Y-51261647D01*
X139867382Y-51229738D01*
X139867380Y-51229736D01*
X139867377Y-51229735D01*
X139849829Y-51220088D01*
X139833563Y-51209404D01*
X139817736Y-51197127D01*
X139817735Y-51197126D01*
X139817733Y-51197125D01*
X139774968Y-51178618D01*
X139769722Y-51176048D01*
X139728893Y-51153603D01*
X139728892Y-51153602D01*
X139709493Y-51148622D01*
X139691081Y-51142318D01*
X139672698Y-51134362D01*
X139672692Y-51134360D01*
X139626674Y-51127072D01*
X139620952Y-51125887D01*
X139575821Y-51114300D01*
X139575819Y-51114300D01*
X139555784Y-51114300D01*
X139536386Y-51112773D01*
X139528962Y-51111597D01*
X139516605Y-51109640D01*
X139516604Y-51109640D01*
X139470216Y-51114025D01*
X139464378Y-51114300D01*
X136785052Y-51114300D01*
X136718013Y-51094615D01*
X136672258Y-51041811D01*
X136662314Y-50972653D01*
X136691339Y-50909097D01*
X136697371Y-50902619D01*
X140058619Y-47541370D01*
X140119942Y-47507885D01*
X140189634Y-47512869D01*
G37*
G04 #@! TD.AperFunction*
G04 #@! TA.AperFunction,Conductor*
G36*
X116794539Y-42807185D02*
G01*
X116840294Y-42859989D01*
X116851500Y-42911500D01*
X116851500Y-44017927D01*
X116831815Y-44084966D01*
X116779011Y-44130721D01*
X116740102Y-44141285D01*
X116672402Y-44148201D01*
X116672400Y-44148201D01*
X116505868Y-44203385D01*
X116505863Y-44203387D01*
X116356542Y-44295489D01*
X116232489Y-44419542D01*
X116140387Y-44568863D01*
X116140385Y-44568868D01*
X116140315Y-44569080D01*
X116085201Y-44735403D01*
X116085201Y-44735404D01*
X116085200Y-44735404D01*
X116074700Y-44838183D01*
X116074700Y-45738201D01*
X116074701Y-45738219D01*
X116085200Y-45840996D01*
X116085201Y-45840999D01*
X116140385Y-46007531D01*
X116140387Y-46007536D01*
X116146045Y-46016709D01*
X116232488Y-46156856D01*
X116356544Y-46280912D01*
X116505866Y-46373014D01*
X116672403Y-46428199D01*
X116775191Y-46438700D01*
X118125208Y-46438699D01*
X118227997Y-46428199D01*
X118394534Y-46373014D01*
X118543856Y-46280912D01*
X118667912Y-46156856D01*
X118754355Y-46016707D01*
X118806301Y-45969984D01*
X118875264Y-45958761D01*
X118939346Y-45986604D01*
X118965432Y-46016708D01*
X119051684Y-46156545D01*
X119175654Y-46280515D01*
X119324875Y-46372556D01*
X119324880Y-46372558D01*
X119491302Y-46427705D01*
X119491309Y-46427706D01*
X119594019Y-46438199D01*
X120018999Y-46438199D01*
X120019000Y-46438198D01*
X120019000Y-45538200D01*
X120519000Y-45538200D01*
X120519000Y-46438199D01*
X120943972Y-46438199D01*
X120943986Y-46438198D01*
X121046697Y-46427705D01*
X121213119Y-46372558D01*
X121213124Y-46372556D01*
X121362345Y-46280515D01*
X121486315Y-46156545D01*
X121578356Y-46007324D01*
X121578358Y-46007319D01*
X121633505Y-45840897D01*
X121633506Y-45840890D01*
X121643999Y-45738186D01*
X121644000Y-45738173D01*
X121644000Y-45538200D01*
X120519000Y-45538200D01*
X120019000Y-45538200D01*
X120019000Y-44138200D01*
X120519000Y-44138200D01*
X120519000Y-45038200D01*
X121643999Y-45038200D01*
X121643999Y-44838228D01*
X121643998Y-44838213D01*
X121633505Y-44735502D01*
X121578358Y-44569080D01*
X121578356Y-44569075D01*
X121486315Y-44419854D01*
X121362345Y-44295884D01*
X121213124Y-44203843D01*
X121213119Y-44203841D01*
X121046697Y-44148694D01*
X121046690Y-44148693D01*
X120943986Y-44138200D01*
X120519000Y-44138200D01*
X120019000Y-44138200D01*
X119594028Y-44138200D01*
X119594012Y-44138201D01*
X119491302Y-44148694D01*
X119324880Y-44203841D01*
X119324875Y-44203843D01*
X119175654Y-44295884D01*
X119051683Y-44419855D01*
X119051680Y-44419859D01*
X118965431Y-44559691D01*
X118913483Y-44606416D01*
X118844521Y-44617637D01*
X118780439Y-44589794D01*
X118754354Y-44559690D01*
X118753067Y-44557604D01*
X118667912Y-44419544D01*
X118543856Y-44295488D01*
X118411402Y-44213790D01*
X118364679Y-44161843D01*
X118352500Y-44108252D01*
X118352500Y-42911500D01*
X118372185Y-42844461D01*
X118424989Y-42798706D01*
X118476500Y-42787500D01*
X122874300Y-42787500D01*
X122941339Y-42807185D01*
X122987094Y-42859989D01*
X122998300Y-42911500D01*
X122998300Y-43854782D01*
X122978615Y-43921821D01*
X122925811Y-43967576D01*
X122913304Y-43972488D01*
X122753068Y-44025585D01*
X122753063Y-44025587D01*
X122603742Y-44117689D01*
X122479689Y-44241742D01*
X122387587Y-44391063D01*
X122387585Y-44391068D01*
X122378046Y-44419855D01*
X122332401Y-44557603D01*
X122332401Y-44557604D01*
X122332400Y-44557604D01*
X122321900Y-44660383D01*
X122321900Y-45560401D01*
X122321901Y-45560419D01*
X122332400Y-45663196D01*
X122332401Y-45663199D01*
X122387515Y-45829519D01*
X122387586Y-45829734D01*
X122479688Y-45979056D01*
X122603744Y-46103112D01*
X122753066Y-46195214D01*
X122919603Y-46250399D01*
X123022391Y-46260900D01*
X124372408Y-46260899D01*
X124475197Y-46250399D01*
X124641734Y-46195214D01*
X124791056Y-46103112D01*
X124915112Y-45979056D01*
X124951355Y-45920295D01*
X125003301Y-45873572D01*
X125072263Y-45862349D01*
X125136346Y-45890192D01*
X125162431Y-45920296D01*
X125198480Y-45978740D01*
X125198483Y-45978744D01*
X125322454Y-46102715D01*
X125471675Y-46194756D01*
X125471680Y-46194758D01*
X125638102Y-46249905D01*
X125638109Y-46249906D01*
X125740819Y-46260399D01*
X126165799Y-46260399D01*
X126165800Y-46260398D01*
X126665799Y-46260398D01*
X126665800Y-46260399D01*
X127090772Y-46260399D01*
X127090786Y-46260398D01*
X127193497Y-46249905D01*
X127359919Y-46194758D01*
X127359924Y-46194756D01*
X127509145Y-46102715D01*
X127633115Y-45978745D01*
X127725156Y-45829524D01*
X127725158Y-45829519D01*
X127780305Y-45663097D01*
X127780306Y-45663090D01*
X127790799Y-45560386D01*
X127790800Y-45560373D01*
X127790800Y-45360400D01*
X126665800Y-45360400D01*
X126665799Y-46260398D01*
X126165800Y-46260398D01*
X126165800Y-43960400D01*
X126665800Y-43960400D01*
X126665800Y-44860400D01*
X127790799Y-44860400D01*
X127790799Y-44660428D01*
X127790798Y-44660413D01*
X127780305Y-44557702D01*
X127725158Y-44391280D01*
X127725156Y-44391275D01*
X127633115Y-44242054D01*
X127509145Y-44118084D01*
X127359924Y-44026043D01*
X127359919Y-44026041D01*
X127193497Y-43970894D01*
X127193490Y-43970893D01*
X127090786Y-43960400D01*
X126665800Y-43960400D01*
X126165800Y-43960400D01*
X125740828Y-43960400D01*
X125740812Y-43960401D01*
X125638102Y-43970894D01*
X125471680Y-44026041D01*
X125471675Y-44026043D01*
X125322454Y-44118084D01*
X125198482Y-44242056D01*
X125162431Y-44300504D01*
X125110482Y-44347228D01*
X125041520Y-44358449D01*
X124977438Y-44330605D01*
X124951354Y-44300502D01*
X124915112Y-44241744D01*
X124791057Y-44117689D01*
X124791056Y-44117688D01*
X124641734Y-44025586D01*
X124641732Y-44025585D01*
X124641730Y-44025584D01*
X124641731Y-44025584D01*
X124584294Y-44006551D01*
X124526850Y-43966778D01*
X124500028Y-43902262D01*
X124499300Y-43888846D01*
X124499300Y-42911500D01*
X124518985Y-42844461D01*
X124571789Y-42798706D01*
X124623300Y-42787500D01*
X129630700Y-42787500D01*
X129697739Y-42807185D01*
X129743494Y-42859989D01*
X129754700Y-42911500D01*
X129754699Y-43835900D01*
X129735014Y-43902940D01*
X129682210Y-43948694D01*
X129630701Y-43959900D01*
X129576199Y-43959900D01*
X129576180Y-43959901D01*
X129473403Y-43970400D01*
X129473400Y-43970401D01*
X129306868Y-44025585D01*
X129306863Y-44025587D01*
X129157542Y-44117689D01*
X129033489Y-44241742D01*
X128941387Y-44391063D01*
X128941385Y-44391068D01*
X128931846Y-44419855D01*
X128886201Y-44557603D01*
X128886201Y-44557604D01*
X128886200Y-44557604D01*
X128875700Y-44660383D01*
X128875700Y-45560401D01*
X128875701Y-45560419D01*
X128886200Y-45663196D01*
X128886201Y-45663199D01*
X128941315Y-45829519D01*
X128941386Y-45829734D01*
X129033488Y-45979056D01*
X129157544Y-46103112D01*
X129306866Y-46195214D01*
X129473403Y-46250399D01*
X129576191Y-46260900D01*
X130926208Y-46260899D01*
X131028997Y-46250399D01*
X131195534Y-46195214D01*
X131344856Y-46103112D01*
X131421175Y-46026792D01*
X131482494Y-45993310D01*
X131552186Y-45998294D01*
X131596534Y-46026795D01*
X131672454Y-46102715D01*
X131821675Y-46194756D01*
X131821680Y-46194758D01*
X131988102Y-46249905D01*
X131988109Y-46249906D01*
X132090819Y-46260399D01*
X132515799Y-46260399D01*
X132515800Y-46260398D01*
X132515800Y-43960400D01*
X133015800Y-43960400D01*
X133015800Y-44860400D01*
X134140799Y-44860400D01*
X134140799Y-44660428D01*
X134140798Y-44660413D01*
X134130305Y-44557702D01*
X134075158Y-44391280D01*
X134075156Y-44391275D01*
X133983115Y-44242054D01*
X133859145Y-44118084D01*
X133709924Y-44026043D01*
X133709919Y-44026041D01*
X133543497Y-43970894D01*
X133543490Y-43970893D01*
X133440786Y-43960400D01*
X133015800Y-43960400D01*
X132515800Y-43960400D01*
X132090828Y-43960400D01*
X132090812Y-43960401D01*
X131988102Y-43970894D01*
X131821680Y-44026041D01*
X131821675Y-44026043D01*
X131672457Y-44118082D01*
X131596534Y-44194005D01*
X131535210Y-44227489D01*
X131465519Y-44222504D01*
X131421172Y-44194004D01*
X131344856Y-44117688D01*
X131344852Y-44117685D01*
X131314603Y-44099027D01*
X131267878Y-44047079D01*
X131255700Y-43993489D01*
X131255700Y-42911500D01*
X131275385Y-42844461D01*
X131328189Y-42798706D01*
X131379700Y-42787500D01*
X136328447Y-42787500D01*
X136395486Y-42807185D01*
X136441241Y-42859989D01*
X136451185Y-42929147D01*
X136447523Y-42946095D01*
X136413202Y-43064226D01*
X136413201Y-43064232D01*
X136410300Y-43101104D01*
X136410300Y-43629946D01*
X136390615Y-43696985D01*
X136373981Y-43717627D01*
X134342837Y-45748770D01*
X134281514Y-45782255D01*
X134211822Y-45777271D01*
X134155889Y-45735399D01*
X134131472Y-45669935D01*
X134131798Y-45648485D01*
X134140799Y-45560383D01*
X134140800Y-45560373D01*
X134140800Y-45360400D01*
X133015800Y-45360400D01*
X133015800Y-46260399D01*
X133440772Y-46260399D01*
X133440786Y-46260398D01*
X133528887Y-46251398D01*
X133597580Y-46264167D01*
X133648464Y-46312048D01*
X133665385Y-46379838D01*
X133642969Y-46446014D01*
X133629170Y-46462437D01*
X133068026Y-47023581D01*
X133006703Y-47057066D01*
X132980345Y-47059900D01*
X132090798Y-47059900D01*
X132090780Y-47059901D01*
X131988003Y-47070400D01*
X131988000Y-47070401D01*
X131821468Y-47125585D01*
X131821463Y-47125587D01*
X131672142Y-47217689D01*
X131596181Y-47293651D01*
X131534858Y-47327136D01*
X131465166Y-47322152D01*
X131420819Y-47293651D01*
X131344857Y-47217689D01*
X131344856Y-47217688D01*
X131195534Y-47125586D01*
X131028997Y-47070401D01*
X131028995Y-47070400D01*
X130926210Y-47059900D01*
X129576198Y-47059900D01*
X129576181Y-47059901D01*
X129473403Y-47070400D01*
X129473400Y-47070401D01*
X129306868Y-47125585D01*
X129306863Y-47125587D01*
X129157542Y-47217689D01*
X129033489Y-47341742D01*
X128941387Y-47491063D01*
X128941385Y-47491068D01*
X128931949Y-47519544D01*
X128886201Y-47657603D01*
X128886201Y-47657604D01*
X128886200Y-47657604D01*
X128875700Y-47760383D01*
X128875700Y-48660401D01*
X128875701Y-48660419D01*
X128886200Y-48763196D01*
X128886201Y-48763199D01*
X128941385Y-48929731D01*
X128941389Y-48929740D01*
X129028521Y-49071004D01*
X129046961Y-49138396D01*
X129026038Y-49205060D01*
X128972396Y-49249829D01*
X128922982Y-49260100D01*
X127744018Y-49260100D01*
X127676979Y-49240415D01*
X127631224Y-49187611D01*
X127621280Y-49118453D01*
X127638479Y-49071004D01*
X127711508Y-48952603D01*
X127725614Y-48929734D01*
X127780799Y-48763197D01*
X127791300Y-48660409D01*
X127791299Y-47760392D01*
X127780799Y-47657603D01*
X127725614Y-47491066D01*
X127633512Y-47341744D01*
X127509456Y-47217688D01*
X127360134Y-47125586D01*
X127193597Y-47070401D01*
X127193595Y-47070400D01*
X127090810Y-47059900D01*
X125740798Y-47059900D01*
X125740781Y-47059901D01*
X125638003Y-47070400D01*
X125638000Y-47070401D01*
X125471468Y-47125585D01*
X125471463Y-47125587D01*
X125322142Y-47217689D01*
X125198087Y-47341744D01*
X125162137Y-47400028D01*
X125110188Y-47446752D01*
X125041226Y-47457973D01*
X124977144Y-47430129D01*
X124951060Y-47400026D01*
X124938134Y-47379070D01*
X124915112Y-47341744D01*
X124791056Y-47217688D01*
X124641734Y-47125586D01*
X124475197Y-47070401D01*
X124475195Y-47070400D01*
X124372410Y-47059900D01*
X123022398Y-47059900D01*
X123022381Y-47059901D01*
X122919603Y-47070400D01*
X122919600Y-47070401D01*
X122753068Y-47125585D01*
X122753063Y-47125587D01*
X122603742Y-47217689D01*
X122479689Y-47341742D01*
X122387587Y-47491063D01*
X122387585Y-47491068D01*
X122378149Y-47519544D01*
X122332401Y-47657603D01*
X122332401Y-47657604D01*
X122332400Y-47657604D01*
X122321900Y-47760383D01*
X122321900Y-48660401D01*
X122321901Y-48660419D01*
X122332400Y-48763196D01*
X122332401Y-48763199D01*
X122387585Y-48929731D01*
X122387587Y-48929736D01*
X122414919Y-48974048D01*
X122479688Y-49079056D01*
X122603744Y-49203112D01*
X122753066Y-49295214D01*
X122919603Y-49350399D01*
X123022391Y-49360900D01*
X124372408Y-49360899D01*
X124475197Y-49350399D01*
X124641734Y-49295214D01*
X124791056Y-49203112D01*
X124915112Y-49079056D01*
X124951061Y-49020772D01*
X125003009Y-48974048D01*
X125071971Y-48962825D01*
X125136054Y-48990668D01*
X125162139Y-49020773D01*
X125193121Y-49071004D01*
X125198088Y-49079056D01*
X125322144Y-49203112D01*
X125471466Y-49295214D01*
X125638003Y-49350399D01*
X125740791Y-49360900D01*
X125945746Y-49360899D01*
X126012786Y-49380583D01*
X126033428Y-49397218D01*
X126700628Y-50064419D01*
X126734113Y-50125742D01*
X126729129Y-50195434D01*
X126687257Y-50251367D01*
X126621793Y-50275784D01*
X126612947Y-50276100D01*
X123092853Y-50276100D01*
X123025814Y-50256415D01*
X123005172Y-50239781D01*
X121680818Y-48915427D01*
X121647333Y-48854104D01*
X121644499Y-48827755D01*
X121644499Y-47938192D01*
X121633999Y-47835403D01*
X121578814Y-47668866D01*
X121486712Y-47519544D01*
X121362656Y-47395488D01*
X121213334Y-47303386D01*
X121046797Y-47248201D01*
X121046795Y-47248200D01*
X120944010Y-47237700D01*
X119593998Y-47237700D01*
X119593981Y-47237701D01*
X119491203Y-47248200D01*
X119491200Y-47248201D01*
X119324668Y-47303385D01*
X119324663Y-47303387D01*
X119175342Y-47395489D01*
X119051288Y-47519543D01*
X119051285Y-47519547D01*
X118965137Y-47659215D01*
X118913189Y-47705940D01*
X118844227Y-47717161D01*
X118780145Y-47689318D01*
X118754061Y-47659215D01*
X118667912Y-47519544D01*
X118543856Y-47395488D01*
X118394534Y-47303386D01*
X118227997Y-47248201D01*
X118227995Y-47248200D01*
X118125210Y-47237700D01*
X116775198Y-47237700D01*
X116775181Y-47237701D01*
X116672403Y-47248200D01*
X116672400Y-47248201D01*
X116505868Y-47303385D01*
X116505863Y-47303387D01*
X116356542Y-47395489D01*
X116232489Y-47519542D01*
X116140387Y-47668863D01*
X116140385Y-47668868D01*
X116122355Y-47723281D01*
X116085201Y-47835403D01*
X116085201Y-47835404D01*
X116085200Y-47835404D01*
X116074700Y-47938183D01*
X116074700Y-48838201D01*
X116074701Y-48838219D01*
X116085200Y-48940996D01*
X116085201Y-48940999D01*
X116124382Y-49059237D01*
X116140386Y-49107534D01*
X116232488Y-49256856D01*
X116356544Y-49380912D01*
X116505866Y-49473014D01*
X116672403Y-49528199D01*
X116775191Y-49538700D01*
X118125208Y-49538699D01*
X118227997Y-49528199D01*
X118394534Y-49473014D01*
X118543856Y-49380912D01*
X118667912Y-49256856D01*
X118754061Y-49117184D01*
X118806009Y-49070460D01*
X118874971Y-49059237D01*
X118939053Y-49087080D01*
X118965138Y-49117183D01*
X118982374Y-49145128D01*
X119046953Y-49249829D01*
X119051288Y-49256856D01*
X119175344Y-49380912D01*
X119324666Y-49473014D01*
X119491203Y-49528199D01*
X119593991Y-49538700D01*
X120483547Y-49538699D01*
X120550586Y-49558383D01*
X120571228Y-49575018D01*
X121898828Y-50902619D01*
X121932313Y-50963942D01*
X121927329Y-51033634D01*
X121885457Y-51089567D01*
X121819993Y-51113984D01*
X121811147Y-51114300D01*
X115651852Y-51114300D01*
X115584813Y-51094615D01*
X115564171Y-51077981D01*
X113659037Y-49172846D01*
X113625552Y-49111523D01*
X113626942Y-49053076D01*
X113653863Y-48952608D01*
X113674459Y-48717200D01*
X113653863Y-48481792D01*
X113592703Y-48253537D01*
X113492835Y-48039371D01*
X113487531Y-48031795D01*
X113357294Y-47845797D01*
X113190202Y-47678706D01*
X113190195Y-47678701D01*
X113171119Y-47665344D01*
X113113318Y-47624871D01*
X112996634Y-47543167D01*
X112996630Y-47543165D01*
X112945981Y-47519547D01*
X112782463Y-47443297D01*
X112782459Y-47443296D01*
X112782455Y-47443294D01*
X112554213Y-47382138D01*
X112554203Y-47382136D01*
X112318801Y-47361541D01*
X112318799Y-47361541D01*
X112083396Y-47382136D01*
X112083386Y-47382138D01*
X111855144Y-47443294D01*
X111855135Y-47443298D01*
X111640971Y-47543164D01*
X111640969Y-47543165D01*
X111447397Y-47678705D01*
X111280308Y-47845794D01*
X111150069Y-48031795D01*
X111095492Y-48075419D01*
X111025993Y-48082612D01*
X110963639Y-48051090D01*
X110946919Y-48031794D01*
X110816913Y-47846126D01*
X110816908Y-47846120D01*
X110649882Y-47679094D01*
X110456378Y-47543599D01*
X110242292Y-47443770D01*
X110242286Y-47443767D01*
X110028800Y-47386564D01*
X110028800Y-48104898D01*
X110009115Y-48171937D01*
X109956311Y-48217692D01*
X109887155Y-48227636D01*
X109814566Y-48217200D01*
X109814563Y-48217200D01*
X109743037Y-48217200D01*
X109743033Y-48217200D01*
X109670445Y-48227636D01*
X109601287Y-48217692D01*
X109548484Y-48171936D01*
X109528800Y-48104898D01*
X109528800Y-47386564D01*
X109528799Y-47386564D01*
X109315313Y-47443767D01*
X109315307Y-47443770D01*
X109101222Y-47543599D01*
X109101220Y-47543600D01*
X108907726Y-47679086D01*
X108907720Y-47679091D01*
X108740691Y-47846120D01*
X108740690Y-47846122D01*
X108610680Y-48031795D01*
X108556103Y-48075419D01*
X108486604Y-48082612D01*
X108424250Y-48051090D01*
X108407530Y-48031794D01*
X108277294Y-47845797D01*
X108110202Y-47678706D01*
X108110195Y-47678701D01*
X108091119Y-47665344D01*
X108033318Y-47624871D01*
X107916634Y-47543167D01*
X107916630Y-47543165D01*
X107865981Y-47519547D01*
X107702463Y-47443297D01*
X107702459Y-47443296D01*
X107702455Y-47443294D01*
X107474213Y-47382138D01*
X107474203Y-47382136D01*
X107238801Y-47361541D01*
X107238799Y-47361541D01*
X107003396Y-47382136D01*
X107003386Y-47382138D01*
X106775144Y-47443294D01*
X106775135Y-47443298D01*
X106560971Y-47543164D01*
X106560969Y-47543165D01*
X106367397Y-47678705D01*
X106200305Y-47845797D01*
X106070375Y-48031358D01*
X106015798Y-48074983D01*
X105946300Y-48082177D01*
X105883945Y-48050654D01*
X105867225Y-48031358D01*
X105737294Y-47845797D01*
X105570202Y-47678706D01*
X105570195Y-47678701D01*
X105551119Y-47665344D01*
X105493318Y-47624871D01*
X105376634Y-47543167D01*
X105376630Y-47543165D01*
X105325981Y-47519547D01*
X105162463Y-47443297D01*
X105162459Y-47443296D01*
X105162455Y-47443294D01*
X104934213Y-47382138D01*
X104934203Y-47382136D01*
X104698801Y-47361541D01*
X104698799Y-47361541D01*
X104463396Y-47382136D01*
X104463386Y-47382138D01*
X104235144Y-47443294D01*
X104235135Y-47443298D01*
X104020971Y-47543164D01*
X104020969Y-47543165D01*
X103827400Y-47678703D01*
X103705473Y-47800630D01*
X103644150Y-47834114D01*
X103574458Y-47829130D01*
X103518525Y-47787258D01*
X103501610Y-47756281D01*
X103452597Y-47624871D01*
X103452593Y-47624864D01*
X103366347Y-47509655D01*
X103366344Y-47509652D01*
X103251135Y-47423406D01*
X103251128Y-47423402D01*
X103116282Y-47373108D01*
X103116283Y-47373108D01*
X103056683Y-47366701D01*
X103056681Y-47366700D01*
X103056673Y-47366700D01*
X103056664Y-47366700D01*
X101260929Y-47366700D01*
X101260923Y-47366701D01*
X101201316Y-47373108D01*
X101066471Y-47423402D01*
X101066464Y-47423406D01*
X100948611Y-47511632D01*
X100883147Y-47536050D01*
X100814874Y-47521199D01*
X100765468Y-47471794D01*
X100750300Y-47412366D01*
X100750300Y-46841047D01*
X100750300Y-46234625D01*
X100769984Y-46167590D01*
X100786613Y-46146953D01*
X104109747Y-42823819D01*
X104171071Y-42790334D01*
X104197429Y-42787500D01*
X116727500Y-42787500D01*
X116794539Y-42807185D01*
G37*
G04 #@! TD.AperFunction*
G04 #@! TA.AperFunction,Conductor*
G36*
X199405262Y-36601336D02*
G01*
X199472288Y-36621050D01*
X199518018Y-36673876D01*
X199529200Y-36725335D01*
X199529200Y-109933700D01*
X199509515Y-110000739D01*
X199456711Y-110046494D01*
X199405200Y-110057700D01*
X197371798Y-110057700D01*
X89392771Y-110032830D01*
X89325737Y-110013130D01*
X89279994Y-109960315D01*
X89268800Y-109908830D01*
X89268800Y-98900670D01*
X113008300Y-98900670D01*
X113008301Y-98900676D01*
X113014708Y-98960283D01*
X113065002Y-99095128D01*
X113065006Y-99095135D01*
X113151252Y-99210344D01*
X113151255Y-99210347D01*
X113266464Y-99296593D01*
X113266471Y-99296597D01*
X113401317Y-99346891D01*
X113401316Y-99346891D01*
X113408244Y-99347635D01*
X113460927Y-99353300D01*
X116756672Y-99353299D01*
X116816283Y-99346891D01*
X116951131Y-99296596D01*
X117066346Y-99210346D01*
X117152596Y-99095131D01*
X117202891Y-98960283D01*
X117209300Y-98900673D01*
X117209300Y-98900670D01*
X172063300Y-98900670D01*
X172063301Y-98900676D01*
X172069708Y-98960283D01*
X172120002Y-99095128D01*
X172120006Y-99095135D01*
X172206252Y-99210344D01*
X172206255Y-99210347D01*
X172321464Y-99296593D01*
X172321471Y-99296597D01*
X172456317Y-99346891D01*
X172456316Y-99346891D01*
X172463244Y-99347635D01*
X172515927Y-99353300D01*
X175811672Y-99353299D01*
X175871283Y-99346891D01*
X176006131Y-99296596D01*
X176121346Y-99210346D01*
X176207596Y-99095131D01*
X176257891Y-98960283D01*
X176264300Y-98900673D01*
X176264299Y-96804928D01*
X176257891Y-96745317D01*
X176207596Y-96610469D01*
X176207595Y-96610468D01*
X176207593Y-96610464D01*
X176121347Y-96495255D01*
X176121344Y-96495252D01*
X176006135Y-96409006D01*
X176006128Y-96409002D01*
X175871282Y-96358708D01*
X175871283Y-96358708D01*
X175811683Y-96352301D01*
X175811681Y-96352300D01*
X175811673Y-96352300D01*
X175811664Y-96352300D01*
X172515929Y-96352300D01*
X172515923Y-96352301D01*
X172456316Y-96358708D01*
X172321471Y-96409002D01*
X172321464Y-96409006D01*
X172206255Y-96495252D01*
X172206252Y-96495255D01*
X172120006Y-96610464D01*
X172120002Y-96610471D01*
X172069708Y-96745317D01*
X172063301Y-96804916D01*
X172063301Y-96804923D01*
X172063300Y-96804935D01*
X172063300Y-98900670D01*
X117209300Y-98900670D01*
X117209299Y-96804928D01*
X117202891Y-96745317D01*
X117152596Y-96610469D01*
X117152595Y-96610468D01*
X117152593Y-96610464D01*
X117066347Y-96495255D01*
X117066344Y-96495252D01*
X116951135Y-96409006D01*
X116951128Y-96409002D01*
X116816282Y-96358708D01*
X116816283Y-96358708D01*
X116756683Y-96352301D01*
X116756681Y-96352300D01*
X116756673Y-96352300D01*
X116756664Y-96352300D01*
X113460929Y-96352300D01*
X113460923Y-96352301D01*
X113401316Y-96358708D01*
X113266471Y-96409002D01*
X113266464Y-96409006D01*
X113151255Y-96495252D01*
X113151252Y-96495255D01*
X113065006Y-96610464D01*
X113065002Y-96610471D01*
X113014708Y-96745317D01*
X113008301Y-96804916D01*
X113008301Y-96804923D01*
X113008300Y-96804935D01*
X113008300Y-98900670D01*
X89268800Y-98900670D01*
X89268800Y-97303600D01*
X89272763Y-93482250D01*
X89293563Y-73424470D01*
X98200100Y-73424470D01*
X98200101Y-73424476D01*
X98206508Y-73484083D01*
X98256802Y-73618928D01*
X98256806Y-73618935D01*
X98343052Y-73734144D01*
X98343055Y-73734147D01*
X98458264Y-73820393D01*
X98458271Y-73820397D01*
X98593117Y-73870691D01*
X98593116Y-73870691D01*
X98600044Y-73871435D01*
X98652727Y-73877100D01*
X101948472Y-73877099D01*
X102008083Y-73870691D01*
X102142931Y-73820396D01*
X102258146Y-73734146D01*
X102344396Y-73618931D01*
X102394691Y-73484083D01*
X102401100Y-73424473D01*
X102401099Y-71328728D01*
X102394691Y-71269117D01*
X102344396Y-71134269D01*
X102344395Y-71134268D01*
X102344393Y-71134264D01*
X102258147Y-71019055D01*
X102258144Y-71019052D01*
X102142935Y-70932806D01*
X102142928Y-70932802D01*
X102008082Y-70882508D01*
X102008083Y-70882508D01*
X101948483Y-70876101D01*
X101948481Y-70876100D01*
X101948473Y-70876100D01*
X101948464Y-70876100D01*
X98652729Y-70876100D01*
X98652723Y-70876101D01*
X98593116Y-70882508D01*
X98458271Y-70932802D01*
X98458264Y-70932806D01*
X98343055Y-71019052D01*
X98343052Y-71019055D01*
X98256806Y-71134264D01*
X98256802Y-71134271D01*
X98206508Y-71269117D01*
X98200101Y-71328716D01*
X98200101Y-71328723D01*
X98200100Y-71328735D01*
X98200100Y-73424470D01*
X89293563Y-73424470D01*
X89327475Y-40721795D01*
X90530440Y-40721795D01*
X90534825Y-40768183D01*
X90535100Y-40774021D01*
X90535100Y-62553855D01*
X90533375Y-62569472D01*
X90533661Y-62569499D01*
X90532926Y-62577265D01*
X90535100Y-62646414D01*
X90535100Y-62675943D01*
X90535101Y-62675960D01*
X90535968Y-62682831D01*
X90536426Y-62688650D01*
X90537890Y-62735224D01*
X90537891Y-62735227D01*
X90543480Y-62754467D01*
X90547424Y-62773511D01*
X90549936Y-62793391D01*
X90567090Y-62836719D01*
X90568982Y-62842247D01*
X90581982Y-62886990D01*
X90588630Y-62898232D01*
X90592180Y-62904234D01*
X90600738Y-62921703D01*
X90608114Y-62940332D01*
X90635498Y-62978023D01*
X90638706Y-62982907D01*
X90662427Y-63023016D01*
X90662433Y-63023024D01*
X90676590Y-63037180D01*
X90689228Y-63051976D01*
X90701005Y-63068186D01*
X90701006Y-63068187D01*
X90736909Y-63097888D01*
X90741220Y-63101810D01*
X91046126Y-63406716D01*
X91263781Y-63624371D01*
X91297266Y-63685694D01*
X91300100Y-63712052D01*
X91300100Y-65324470D01*
X91300101Y-65324476D01*
X91306508Y-65384083D01*
X91356802Y-65518928D01*
X91356806Y-65518935D01*
X91443052Y-65634144D01*
X91443055Y-65634147D01*
X91559586Y-65721383D01*
X91601457Y-65777317D01*
X91606441Y-65847008D01*
X91589084Y-65888470D01*
X91476867Y-66060231D01*
X91377012Y-66287882D01*
X91315987Y-66528861D01*
X91315985Y-66528870D01*
X91295458Y-66776594D01*
X91295458Y-66776605D01*
X91315985Y-67024329D01*
X91315987Y-67024338D01*
X91377012Y-67265317D01*
X91476866Y-67492964D01*
X91577164Y-67646482D01*
X92191650Y-67031995D01*
X92252973Y-66998510D01*
X92322664Y-67003494D01*
X92378598Y-67045365D01*
X92383639Y-67052625D01*
X92414858Y-67101204D01*
X92418839Y-67107398D01*
X92534202Y-67207359D01*
X92531893Y-67210022D01*
X92566606Y-67250099D01*
X92576535Y-67319260D01*
X92547498Y-67382810D01*
X92541482Y-67389269D01*
X91924700Y-68006050D01*
X91914082Y-68052748D01*
X91881976Y-68090156D01*
X91780855Y-68168862D01*
X91612433Y-68351817D01*
X91476426Y-68559993D01*
X91376536Y-68787718D01*
X91315492Y-69028775D01*
X91315490Y-69028787D01*
X91294957Y-69276594D01*
X91294957Y-69276605D01*
X91315490Y-69524412D01*
X91315492Y-69524424D01*
X91376536Y-69765481D01*
X91476426Y-69993206D01*
X91612433Y-70201382D01*
X91612436Y-70201385D01*
X91780856Y-70384338D01*
X91977091Y-70537074D01*
X92195790Y-70655428D01*
X92430986Y-70736171D01*
X92676265Y-70777100D01*
X92924935Y-70777100D01*
X93170214Y-70736171D01*
X93405410Y-70655428D01*
X93624109Y-70537074D01*
X93820344Y-70384338D01*
X93988764Y-70201385D01*
X94124773Y-69993207D01*
X94224663Y-69765481D01*
X94285708Y-69524421D01*
X94295467Y-69406650D01*
X94306243Y-69276605D01*
X94306243Y-69276594D01*
X94285709Y-69028787D01*
X94285707Y-69028775D01*
X94231736Y-68815649D01*
X94234361Y-68745829D01*
X94264261Y-68697528D01*
X94347008Y-68614781D01*
X94509387Y-68452402D01*
X94521642Y-68442586D01*
X94521459Y-68442364D01*
X94527466Y-68437392D01*
X94527477Y-68437386D01*
X94558375Y-68404482D01*
X94574827Y-68386964D01*
X94585271Y-68376518D01*
X94595720Y-68366071D01*
X94599979Y-68360578D01*
X94603752Y-68356161D01*
X94635662Y-68322182D01*
X94645315Y-68304620D01*
X94655989Y-68288370D01*
X94668273Y-68272536D01*
X94686780Y-68229767D01*
X94689349Y-68224524D01*
X94711796Y-68183693D01*
X94711797Y-68183692D01*
X94716777Y-68164291D01*
X94723078Y-68145888D01*
X94731038Y-68127496D01*
X94738330Y-68081449D01*
X94739511Y-68075752D01*
X94744557Y-68056100D01*
X94751100Y-68030619D01*
X94751099Y-68010586D01*
X94752627Y-67991183D01*
X94755759Y-67971408D01*
X94755760Y-67971406D01*
X94751375Y-67925015D01*
X94751100Y-67919177D01*
X94751100Y-65634143D01*
X94751100Y-63296048D01*
X94770784Y-63229013D01*
X94823588Y-63183258D01*
X94892746Y-63173314D01*
X94956302Y-63202339D01*
X94962780Y-63208371D01*
X101414797Y-69660388D01*
X101424622Y-69672651D01*
X101424843Y-69672469D01*
X101429814Y-69678478D01*
X101455817Y-69702895D01*
X101480235Y-69725826D01*
X101501129Y-69746720D01*
X101506611Y-69750973D01*
X101511043Y-69754757D01*
X101545018Y-69786662D01*
X101562574Y-69796313D01*
X101578835Y-69806995D01*
X101594664Y-69819273D01*
X101637438Y-69837782D01*
X101642656Y-69840338D01*
X101683508Y-69862797D01*
X101702916Y-69867780D01*
X101721317Y-69874080D01*
X101739704Y-69882037D01*
X101783088Y-69888908D01*
X101785719Y-69889325D01*
X101791439Y-69890509D01*
X101836581Y-69902100D01*
X101856616Y-69902100D01*
X101876014Y-69903626D01*
X101895794Y-69906759D01*
X101895795Y-69906760D01*
X101895795Y-69906759D01*
X101895796Y-69906760D01*
X101942183Y-69902375D01*
X101948022Y-69902100D01*
X105855450Y-69902100D01*
X105922489Y-69921785D01*
X105968244Y-69974589D01*
X105969005Y-69976289D01*
X105976424Y-69993203D01*
X106112433Y-70201382D01*
X106112436Y-70201385D01*
X106280856Y-70384338D01*
X106477091Y-70537074D01*
X106695790Y-70655428D01*
X106930986Y-70736171D01*
X107176265Y-70777100D01*
X107424935Y-70777100D01*
X107670214Y-70736171D01*
X107905410Y-70655428D01*
X108124109Y-70537074D01*
X108320344Y-70384338D01*
X108488764Y-70201385D01*
X108624773Y-69993207D01*
X108724663Y-69765481D01*
X108785708Y-69524421D01*
X108795467Y-69406650D01*
X108806243Y-69276605D01*
X108806243Y-69276594D01*
X108785709Y-69028787D01*
X108785707Y-69028775D01*
X108724663Y-68787718D01*
X108624773Y-68559993D01*
X108488766Y-68351817D01*
X108430345Y-68288355D01*
X108320344Y-68168862D01*
X108124109Y-68016126D01*
X108124107Y-68016125D01*
X108124106Y-68016124D01*
X107905411Y-67897772D01*
X107905402Y-67897769D01*
X107670216Y-67817029D01*
X107424935Y-67776100D01*
X107176265Y-67776100D01*
X106930983Y-67817029D01*
X106695797Y-67897769D01*
X106695788Y-67897772D01*
X106477093Y-68016124D01*
X106280857Y-68168861D01*
X106112433Y-68351817D01*
X105976424Y-68559996D01*
X105969005Y-68576911D01*
X105924049Y-68630397D01*
X105857313Y-68651086D01*
X105855450Y-68651100D01*
X102226053Y-68651100D01*
X102159014Y-68631415D01*
X102138372Y-68614781D01*
X97800197Y-64276605D01*
X105795458Y-64276605D01*
X105815985Y-64524329D01*
X105815987Y-64524338D01*
X105877012Y-64765317D01*
X105976866Y-64992964D01*
X106077164Y-65146482D01*
X106691650Y-64531995D01*
X106752973Y-64498510D01*
X106822664Y-64503494D01*
X106878598Y-64545365D01*
X106883639Y-64552625D01*
X106883648Y-64552639D01*
X106918839Y-64607398D01*
X107034202Y-64707359D01*
X107031893Y-64710022D01*
X107066606Y-64750099D01*
X107076535Y-64819260D01*
X107047498Y-64882810D01*
X107041482Y-64889269D01*
X106430542Y-65500209D01*
X106477368Y-65536655D01*
X106477370Y-65536656D01*
X106695985Y-65654964D01*
X106695996Y-65654969D01*
X106931106Y-65735683D01*
X107176307Y-65776600D01*
X107424893Y-65776600D01*
X107670093Y-65735683D01*
X107905203Y-65654969D01*
X107905214Y-65654964D01*
X108123828Y-65536657D01*
X108123831Y-65536655D01*
X108170656Y-65500209D01*
X107559716Y-64889269D01*
X107526231Y-64827946D01*
X107531215Y-64758254D01*
X107568241Y-64708793D01*
X107566998Y-64707359D01*
X107600330Y-64678477D01*
X107682361Y-64607398D01*
X107717554Y-64552637D01*
X107770355Y-64506883D01*
X107839514Y-64496939D01*
X107903070Y-64525963D01*
X107909549Y-64531996D01*
X108524034Y-65146482D01*
X108624331Y-64992969D01*
X108724187Y-64765317D01*
X108785212Y-64524338D01*
X108785214Y-64524329D01*
X108805741Y-64276605D01*
X108805741Y-64276594D01*
X108785214Y-64028870D01*
X108785212Y-64028861D01*
X108724187Y-63787882D01*
X108624331Y-63560230D01*
X108524034Y-63406716D01*
X107909549Y-64021202D01*
X107848226Y-64054687D01*
X107778534Y-64049703D01*
X107722601Y-64007831D01*
X107717553Y-64000561D01*
X107682361Y-63945802D01*
X107566998Y-63845841D01*
X107569298Y-63843185D01*
X107534560Y-63803028D01*
X107524674Y-63733861D01*
X107553752Y-63670329D01*
X107559716Y-63663929D01*
X108170656Y-63052989D01*
X108123829Y-63016543D01*
X107905214Y-62898235D01*
X107905203Y-62898230D01*
X107670093Y-62817516D01*
X107424893Y-62776600D01*
X107176307Y-62776600D01*
X106931106Y-62817516D01*
X106695996Y-62898230D01*
X106695990Y-62898232D01*
X106477361Y-63016549D01*
X106430542Y-63052988D01*
X106430542Y-63052990D01*
X107041483Y-63663930D01*
X107074968Y-63725253D01*
X107069984Y-63794944D01*
X107032958Y-63844405D01*
X107034202Y-63845841D01*
X106918838Y-63945802D01*
X106883646Y-64000562D01*
X106830842Y-64046317D01*
X106761683Y-64056260D01*
X106698128Y-64027234D01*
X106691650Y-64021203D01*
X106077164Y-63406716D01*
X105976867Y-63560232D01*
X105877012Y-63787882D01*
X105815987Y-64028861D01*
X105815985Y-64028870D01*
X105795458Y-64276594D01*
X105795458Y-64276605D01*
X97800197Y-64276605D01*
X95748062Y-62224470D01*
X98200100Y-62224470D01*
X98200101Y-62224476D01*
X98206508Y-62284083D01*
X98256802Y-62418928D01*
X98256806Y-62418935D01*
X98343052Y-62534144D01*
X98343055Y-62534147D01*
X98458264Y-62620393D01*
X98458271Y-62620397D01*
X98593117Y-62670691D01*
X98593116Y-62670691D01*
X98600044Y-62671435D01*
X98652727Y-62677100D01*
X101948472Y-62677099D01*
X102008083Y-62670691D01*
X102142931Y-62620396D01*
X102258146Y-62534146D01*
X102344396Y-62418931D01*
X102394691Y-62284083D01*
X102401100Y-62224473D01*
X102401099Y-60128728D01*
X102394691Y-60069117D01*
X102391359Y-60060184D01*
X102344397Y-59934271D01*
X102344393Y-59934264D01*
X102258147Y-59819055D01*
X102258144Y-59819052D01*
X102142935Y-59732806D01*
X102142928Y-59732802D01*
X102008082Y-59682508D01*
X102008083Y-59682508D01*
X101948483Y-59676101D01*
X101948481Y-59676100D01*
X101948473Y-59676100D01*
X101948464Y-59676100D01*
X98652729Y-59676100D01*
X98652723Y-59676101D01*
X98593116Y-59682508D01*
X98458271Y-59732802D01*
X98458264Y-59732806D01*
X98343055Y-59819052D01*
X98343052Y-59819055D01*
X98256806Y-59934264D01*
X98256802Y-59934271D01*
X98206508Y-60069117D01*
X98201792Y-60112988D01*
X98200101Y-60128723D01*
X98200100Y-60128735D01*
X98200100Y-62224470D01*
X95748062Y-62224470D01*
X95327619Y-61804027D01*
X95294134Y-61742704D01*
X95291300Y-61716346D01*
X95291300Y-58473717D01*
X95310985Y-58406678D01*
X95363789Y-58360923D01*
X95432947Y-58350979D01*
X95496503Y-58380004D01*
X95515616Y-58400830D01*
X95544076Y-58440002D01*
X95546255Y-58443209D01*
X95577013Y-58491676D01*
X95582964Y-58497264D01*
X95598404Y-58514778D01*
X95603203Y-58521385D01*
X95647447Y-58557987D01*
X95650367Y-58560561D01*
X95692218Y-58599862D01*
X95699378Y-58603798D01*
X95718679Y-58616914D01*
X95724977Y-58622124D01*
X95724978Y-58622124D01*
X95724979Y-58622125D01*
X95776925Y-58646569D01*
X95780397Y-58648338D01*
X95830703Y-58675995D01*
X95830705Y-58675995D01*
X95830708Y-58675997D01*
X95836005Y-58677356D01*
X95838614Y-58678027D01*
X95860577Y-58685933D01*
X95867974Y-58689414D01*
X95924376Y-58700173D01*
X95928162Y-58701019D01*
X95983781Y-58715300D01*
X95991953Y-58715300D01*
X96015185Y-58717496D01*
X96016789Y-58717801D01*
X96023212Y-58719027D01*
X96080524Y-58715421D01*
X96084397Y-58715300D01*
X111373348Y-58715300D01*
X111440387Y-58734985D01*
X111461029Y-58751619D01*
X112037981Y-59328571D01*
X112071466Y-59389894D01*
X112074300Y-59416252D01*
X112074300Y-72699651D01*
X112054615Y-72766690D01*
X112001811Y-72812445D01*
X111932653Y-72822389D01*
X111899864Y-72812931D01*
X111811203Y-72773456D01*
X111811201Y-72773455D01*
X111811200Y-72773455D01*
X111694502Y-72748650D01*
X111626046Y-72734100D01*
X111436754Y-72734100D01*
X111404297Y-72740998D01*
X111251597Y-72773455D01*
X111251592Y-72773457D01*
X111078670Y-72850448D01*
X111078665Y-72850451D01*
X110925529Y-72961711D01*
X110798866Y-73102385D01*
X110704221Y-73266315D01*
X110704218Y-73266322D01*
X110652832Y-73424473D01*
X110645726Y-73446344D01*
X110641760Y-73484082D01*
X110628079Y-73614249D01*
X110601494Y-73678863D01*
X110592439Y-73688968D01*
X106685828Y-77595581D01*
X106624505Y-77629066D01*
X106598147Y-77631900D01*
X105554948Y-77631900D01*
X105487909Y-77612215D01*
X105462800Y-77590874D01*
X105457073Y-77584514D01*
X105457069Y-77584510D01*
X105303934Y-77473251D01*
X105303929Y-77473248D01*
X105131007Y-77396257D01*
X105131002Y-77396255D01*
X104985201Y-77365265D01*
X104945846Y-77356900D01*
X104756554Y-77356900D01*
X104724097Y-77363798D01*
X104571397Y-77396255D01*
X104571392Y-77396257D01*
X104398470Y-77473248D01*
X104398465Y-77473251D01*
X104245329Y-77584511D01*
X104118666Y-77725185D01*
X104024021Y-77889115D01*
X104024018Y-77889122D01*
X103965527Y-78069140D01*
X103965526Y-78069144D01*
X103945740Y-78257400D01*
X103965526Y-78445656D01*
X103965527Y-78445659D01*
X104024018Y-78625677D01*
X104024021Y-78625684D01*
X104118667Y-78789616D01*
X104208346Y-78889214D01*
X104245329Y-78930288D01*
X104398465Y-79041548D01*
X104398470Y-79041551D01*
X104571392Y-79118542D01*
X104571397Y-79118544D01*
X104756554Y-79157900D01*
X104756555Y-79157900D01*
X104945844Y-79157900D01*
X104945846Y-79157900D01*
X105131003Y-79118544D01*
X105303930Y-79041551D01*
X105457071Y-78930288D01*
X105459988Y-78927047D01*
X105462800Y-78923926D01*
X105522287Y-78887279D01*
X105554948Y-78882900D01*
X106825857Y-78882900D01*
X106841477Y-78884624D01*
X106841504Y-78884339D01*
X106849260Y-78885071D01*
X106849267Y-78885073D01*
X106918414Y-78882900D01*
X106947950Y-78882900D01*
X106954828Y-78882030D01*
X106960641Y-78881572D01*
X107007227Y-78880109D01*
X107026469Y-78874517D01*
X107045512Y-78870574D01*
X107065392Y-78868064D01*
X107108722Y-78850907D01*
X107114246Y-78849017D01*
X107117996Y-78847927D01*
X107158990Y-78836018D01*
X107176229Y-78825822D01*
X107193703Y-78817262D01*
X107212327Y-78809888D01*
X107212327Y-78809887D01*
X107212332Y-78809886D01*
X107250049Y-78782482D01*
X107254905Y-78779292D01*
X107295020Y-78755570D01*
X107309189Y-78741399D01*
X107323979Y-78728768D01*
X107340187Y-78716994D01*
X107369899Y-78681076D01*
X107373812Y-78676776D01*
X111479171Y-74571419D01*
X111540495Y-74537934D01*
X111566853Y-74535100D01*
X111631347Y-74535100D01*
X111698386Y-74554785D01*
X111744141Y-74607589D01*
X111754085Y-74676747D01*
X111725060Y-74740303D01*
X111719028Y-74746781D01*
X107225008Y-79240799D01*
X107212751Y-79250620D01*
X107212934Y-79250841D01*
X107206923Y-79255813D01*
X107159572Y-79306236D01*
X107138689Y-79327119D01*
X107138677Y-79327132D01*
X107134421Y-79332617D01*
X107130637Y-79337047D01*
X107098737Y-79371018D01*
X107098736Y-79371020D01*
X107089084Y-79388576D01*
X107078410Y-79404826D01*
X107066129Y-79420661D01*
X107066124Y-79420668D01*
X107047615Y-79463438D01*
X107045045Y-79468684D01*
X107022603Y-79509506D01*
X107017622Y-79528907D01*
X107011321Y-79547310D01*
X107003362Y-79565702D01*
X107003361Y-79565705D01*
X106996071Y-79611727D01*
X106994887Y-79617446D01*
X106983301Y-79662572D01*
X106983300Y-79662582D01*
X106983300Y-79682616D01*
X106981773Y-79702015D01*
X106978640Y-79721794D01*
X106978639Y-79721797D01*
X106983024Y-79768185D01*
X106983299Y-79774021D01*
X106983300Y-88128300D01*
X106963615Y-88195339D01*
X106910811Y-88241094D01*
X106859300Y-88252300D01*
X106560930Y-88252300D01*
X106560923Y-88252301D01*
X106501316Y-88258708D01*
X106366471Y-88309002D01*
X106366464Y-88309006D01*
X106251255Y-88395252D01*
X106251252Y-88395255D01*
X106165006Y-88510464D01*
X106165002Y-88510471D01*
X106114708Y-88645317D01*
X106109814Y-88690845D01*
X106108301Y-88704923D01*
X106108300Y-88704935D01*
X106108300Y-90800670D01*
X106108301Y-90800676D01*
X106114708Y-90860283D01*
X106165002Y-90995128D01*
X106165006Y-90995135D01*
X106251252Y-91110344D01*
X106251255Y-91110347D01*
X106367786Y-91197583D01*
X106409657Y-91253517D01*
X106414641Y-91323208D01*
X106397284Y-91364670D01*
X106285067Y-91536431D01*
X106185212Y-91764082D01*
X106124187Y-92005061D01*
X106124185Y-92005070D01*
X106103658Y-92252794D01*
X106103658Y-92252805D01*
X106124185Y-92500529D01*
X106124187Y-92500538D01*
X106185212Y-92741517D01*
X106285066Y-92969164D01*
X106385364Y-93122682D01*
X106999850Y-92508195D01*
X107061173Y-92474710D01*
X107130864Y-92479694D01*
X107186798Y-92521565D01*
X107191839Y-92528825D01*
X107210228Y-92557439D01*
X107227039Y-92583598D01*
X107342402Y-92683559D01*
X107340093Y-92686222D01*
X107374806Y-92726299D01*
X107384735Y-92795460D01*
X107355698Y-92859010D01*
X107349682Y-92865469D01*
X106732900Y-93482250D01*
X106722282Y-93528948D01*
X106690176Y-93566356D01*
X106589055Y-93645062D01*
X106420633Y-93828017D01*
X106284626Y-94036193D01*
X106184736Y-94263918D01*
X106123692Y-94504975D01*
X106123690Y-94504987D01*
X106103157Y-94752794D01*
X106103157Y-94752805D01*
X106123690Y-95000612D01*
X106123692Y-95000624D01*
X106184736Y-95241681D01*
X106284626Y-95469406D01*
X106420633Y-95677582D01*
X106420636Y-95677585D01*
X106589056Y-95860538D01*
X106785291Y-96013274D01*
X106785293Y-96013275D01*
X107003132Y-96131164D01*
X107003990Y-96131628D01*
X107222941Y-96206794D01*
X107237764Y-96211883D01*
X107239186Y-96212371D01*
X107484465Y-96253300D01*
X107733135Y-96253300D01*
X107978414Y-96212371D01*
X108213610Y-96131628D01*
X108432309Y-96013274D01*
X108628544Y-95860538D01*
X108796964Y-95677585D01*
X108932973Y-95469407D01*
X109032863Y-95241681D01*
X109093908Y-95000621D01*
X109093916Y-95000529D01*
X109114443Y-94752805D01*
X120603658Y-94752805D01*
X120624185Y-95000529D01*
X120624187Y-95000538D01*
X120685212Y-95241517D01*
X120785066Y-95469164D01*
X120885364Y-95622682D01*
X121499850Y-95008195D01*
X121561173Y-94974710D01*
X121630864Y-94979694D01*
X121686798Y-95021565D01*
X121691839Y-95028825D01*
X121691848Y-95028839D01*
X121727039Y-95083598D01*
X121842402Y-95183559D01*
X121840093Y-95186222D01*
X121874806Y-95226299D01*
X121884735Y-95295460D01*
X121855698Y-95359010D01*
X121849682Y-95365469D01*
X121238742Y-95976409D01*
X121285568Y-96012855D01*
X121285570Y-96012856D01*
X121504185Y-96131164D01*
X121504196Y-96131169D01*
X121739306Y-96211883D01*
X121984507Y-96252800D01*
X122233093Y-96252800D01*
X122478293Y-96211883D01*
X122713403Y-96131169D01*
X122713414Y-96131164D01*
X122932028Y-96012857D01*
X122932031Y-96012855D01*
X122978856Y-95976409D01*
X122367916Y-95365469D01*
X122334431Y-95304146D01*
X122339415Y-95234454D01*
X122376441Y-95184993D01*
X122375198Y-95183559D01*
X122381900Y-95177752D01*
X122490561Y-95083598D01*
X122525754Y-95028837D01*
X122578555Y-94983083D01*
X122647714Y-94973139D01*
X122711270Y-95002163D01*
X122717749Y-95008196D01*
X123332234Y-95622682D01*
X123432531Y-95469169D01*
X123532387Y-95241517D01*
X123593412Y-95000538D01*
X123593414Y-95000529D01*
X123613941Y-94752805D01*
X123613941Y-94752794D01*
X123593414Y-94505070D01*
X123593412Y-94505061D01*
X123532387Y-94264082D01*
X123432531Y-94036430D01*
X123332234Y-93882916D01*
X122717749Y-94497402D01*
X122656426Y-94530887D01*
X122586734Y-94525903D01*
X122530801Y-94484031D01*
X122525753Y-94476761D01*
X122490561Y-94422002D01*
X122375198Y-94322041D01*
X122377498Y-94319385D01*
X122342760Y-94279228D01*
X122332874Y-94210061D01*
X122361952Y-94146529D01*
X122367916Y-94140129D01*
X122978856Y-93529189D01*
X122932029Y-93492743D01*
X122713414Y-93374435D01*
X122713403Y-93374430D01*
X122478293Y-93293716D01*
X122233093Y-93252800D01*
X121984507Y-93252800D01*
X121739306Y-93293716D01*
X121504196Y-93374430D01*
X121504190Y-93374432D01*
X121285561Y-93492749D01*
X121238742Y-93529188D01*
X121238742Y-93529190D01*
X121849683Y-94140130D01*
X121883168Y-94201453D01*
X121878184Y-94271144D01*
X121841158Y-94320605D01*
X121842402Y-94322041D01*
X121727038Y-94422002D01*
X121691846Y-94476762D01*
X121639042Y-94522517D01*
X121569883Y-94532460D01*
X121506328Y-94503434D01*
X121499850Y-94497403D01*
X120885364Y-93882916D01*
X120785067Y-94036432D01*
X120685212Y-94264082D01*
X120624187Y-94505061D01*
X120624185Y-94505070D01*
X120603658Y-94752794D01*
X120603658Y-94752805D01*
X109114443Y-94752805D01*
X109114443Y-94752794D01*
X109093909Y-94504987D01*
X109093908Y-94504983D01*
X109093908Y-94504979D01*
X109091989Y-94497403D01*
X109049052Y-94327848D01*
X109039936Y-94291849D01*
X109042560Y-94222030D01*
X109072458Y-94173730D01*
X110365786Y-92880402D01*
X110378048Y-92870580D01*
X110377865Y-92870359D01*
X110383867Y-92865392D01*
X110383877Y-92865386D01*
X110431241Y-92814948D01*
X110452120Y-92794070D01*
X110456373Y-92788586D01*
X110460150Y-92784163D01*
X110492062Y-92750182D01*
X110501714Y-92732623D01*
X110512389Y-92716372D01*
X110524674Y-92700536D01*
X110543186Y-92657752D01*
X110545742Y-92652535D01*
X110568197Y-92611692D01*
X110573180Y-92592280D01*
X110579477Y-92573891D01*
X110587438Y-92555495D01*
X110594729Y-92509453D01*
X110595908Y-92503762D01*
X110607500Y-92458619D01*
X110607500Y-92438582D01*
X110609027Y-92419182D01*
X110612160Y-92399404D01*
X110607775Y-92353015D01*
X110607500Y-92347177D01*
X110607500Y-79685451D01*
X110627185Y-79618412D01*
X110643814Y-79597775D01*
X114302786Y-75938802D01*
X114315048Y-75928980D01*
X114314865Y-75928759D01*
X114320867Y-75923792D01*
X114320877Y-75923786D01*
X114368241Y-75873348D01*
X114389120Y-75852470D01*
X114393370Y-75846989D01*
X114397151Y-75842561D01*
X114429062Y-75808582D01*
X114438713Y-75791024D01*
X114449396Y-75774761D01*
X114461673Y-75758936D01*
X114480183Y-75716158D01*
X114482743Y-75710932D01*
X114505197Y-75670092D01*
X114510178Y-75650687D01*
X114516482Y-75632279D01*
X114524438Y-75613895D01*
X114531729Y-75567853D01*
X114532908Y-75562162D01*
X114544500Y-75517019D01*
X114544500Y-75496982D01*
X114546027Y-75477583D01*
X114549160Y-75457804D01*
X114544773Y-75411407D01*
X114544499Y-75405584D01*
X114544499Y-66445802D01*
X114544499Y-57359727D01*
X114546225Y-57344123D01*
X114545938Y-57344096D01*
X114546672Y-57336333D01*
X114545968Y-57313942D01*
X114544500Y-57267203D01*
X114544500Y-57237650D01*
X114543629Y-57230759D01*
X114543172Y-57224945D01*
X114541709Y-57178373D01*
X114536121Y-57159139D01*
X114532174Y-57140081D01*
X114529664Y-57120208D01*
X114512507Y-57076875D01*
X114510614Y-57071346D01*
X114497618Y-57026614D01*
X114497617Y-57026610D01*
X114487420Y-57009368D01*
X114478863Y-56991902D01*
X114471486Y-56973268D01*
X114444083Y-56935550D01*
X114440900Y-56930705D01*
X114417170Y-56890579D01*
X114417165Y-56890573D01*
X114403005Y-56876413D01*
X114390370Y-56861620D01*
X114378593Y-56845412D01*
X114342693Y-56815713D01*
X114338381Y-56811790D01*
X114089603Y-56563012D01*
X114079780Y-56550750D01*
X114079559Y-56550934D01*
X114074585Y-56544921D01*
X114071571Y-56542091D01*
X114069922Y-56539284D01*
X114069613Y-56538911D01*
X114069673Y-56538861D01*
X114036177Y-56481849D01*
X114038971Y-56412035D01*
X114079066Y-56354815D01*
X114143731Y-56328355D01*
X114156456Y-56327700D01*
X116776300Y-56327700D01*
X116843339Y-56347385D01*
X116889094Y-56400189D01*
X116900300Y-56451700D01*
X116900300Y-85029695D01*
X116880615Y-85096734D01*
X116827811Y-85142489D01*
X116763057Y-85152986D01*
X116759606Y-85152615D01*
X116756673Y-85152300D01*
X116756670Y-85152300D01*
X113460929Y-85152300D01*
X113460923Y-85152301D01*
X113401316Y-85158708D01*
X113266471Y-85209002D01*
X113266464Y-85209006D01*
X113151255Y-85295252D01*
X113151252Y-85295255D01*
X113065006Y-85410464D01*
X113065002Y-85410471D01*
X113014708Y-85545317D01*
X113008301Y-85604916D01*
X113008301Y-85604923D01*
X113008300Y-85604935D01*
X113008300Y-87700670D01*
X113008301Y-87700676D01*
X113014708Y-87760283D01*
X113065002Y-87895128D01*
X113065006Y-87895135D01*
X113151252Y-88010344D01*
X113151255Y-88010347D01*
X113266464Y-88096593D01*
X113266471Y-88096597D01*
X113401317Y-88146891D01*
X113401316Y-88146891D01*
X113408244Y-88147635D01*
X113460927Y-88153300D01*
X116756672Y-88153299D01*
X116816283Y-88146891D01*
X116951131Y-88096596D01*
X117066346Y-88010346D01*
X117152596Y-87895131D01*
X117202891Y-87760283D01*
X117209300Y-87700673D01*
X117209299Y-86037250D01*
X117228984Y-85970212D01*
X117281787Y-85924457D01*
X117350946Y-85914513D01*
X117414502Y-85943538D01*
X117420980Y-85949570D01*
X120645138Y-89173728D01*
X120678623Y-89235051D01*
X120677663Y-89291849D01*
X120623692Y-89504974D01*
X120623690Y-89504987D01*
X120603157Y-89752794D01*
X120603157Y-89752805D01*
X120623690Y-90000612D01*
X120623692Y-90000624D01*
X120684736Y-90241681D01*
X120784626Y-90469406D01*
X120920633Y-90677582D01*
X120920636Y-90677585D01*
X121089056Y-90860538D01*
X121285291Y-91013274D01*
X121503990Y-91131628D01*
X121739186Y-91212371D01*
X121984465Y-91253300D01*
X122233135Y-91253300D01*
X122478414Y-91212371D01*
X122713610Y-91131628D01*
X122932309Y-91013274D01*
X123128544Y-90860538D01*
X123296964Y-90677585D01*
X123432973Y-90469407D01*
X123532863Y-90241681D01*
X123593908Y-90000621D01*
X123614443Y-89752800D01*
X123593908Y-89504979D01*
X123532863Y-89263919D01*
X123520200Y-89235051D01*
X123432973Y-89036193D01*
X123296966Y-88828017D01*
X123202850Y-88725780D01*
X123128544Y-88645062D01*
X122932309Y-88492326D01*
X122932307Y-88492325D01*
X122932306Y-88492324D01*
X122713611Y-88373972D01*
X122713602Y-88373969D01*
X122478416Y-88293229D01*
X122233135Y-88252300D01*
X121984465Y-88252300D01*
X121739186Y-88293228D01*
X121659511Y-88320580D01*
X121589712Y-88323729D01*
X121531569Y-88290979D01*
X118187619Y-84947028D01*
X118154134Y-84885705D01*
X118151300Y-84859347D01*
X118151300Y-73424470D01*
X127740300Y-73424470D01*
X127740301Y-73424476D01*
X127746708Y-73484083D01*
X127797002Y-73618928D01*
X127797006Y-73618935D01*
X127883252Y-73734144D01*
X127883255Y-73734147D01*
X127998464Y-73820393D01*
X127998471Y-73820397D01*
X128133317Y-73870691D01*
X128133316Y-73870691D01*
X128140244Y-73871435D01*
X128192927Y-73877100D01*
X131488672Y-73877099D01*
X131548283Y-73870691D01*
X131683131Y-73820396D01*
X131798346Y-73734146D01*
X131884596Y-73618931D01*
X131934891Y-73484083D01*
X131941300Y-73424473D01*
X131941299Y-71328728D01*
X131934891Y-71269117D01*
X131884596Y-71134269D01*
X131884595Y-71134268D01*
X131884593Y-71134264D01*
X131798347Y-71019055D01*
X131798344Y-71019052D01*
X131683135Y-70932806D01*
X131683128Y-70932802D01*
X131548282Y-70882508D01*
X131548283Y-70882508D01*
X131488683Y-70876101D01*
X131488681Y-70876100D01*
X131488673Y-70876100D01*
X131488664Y-70876100D01*
X128192929Y-70876100D01*
X128192923Y-70876101D01*
X128133316Y-70882508D01*
X127998471Y-70932802D01*
X127998464Y-70932806D01*
X127883255Y-71019052D01*
X127883252Y-71019055D01*
X127797006Y-71134264D01*
X127797002Y-71134271D01*
X127746708Y-71269117D01*
X127740301Y-71328716D01*
X127740301Y-71328723D01*
X127740300Y-71328735D01*
X127740300Y-73424470D01*
X118151300Y-73424470D01*
X118151300Y-69276605D01*
X120835157Y-69276605D01*
X120855690Y-69524412D01*
X120855692Y-69524424D01*
X120916736Y-69765481D01*
X121016626Y-69993206D01*
X121152633Y-70201382D01*
X121152636Y-70201385D01*
X121321056Y-70384338D01*
X121517291Y-70537074D01*
X121735990Y-70655428D01*
X121971186Y-70736171D01*
X122216465Y-70777100D01*
X122465135Y-70777100D01*
X122710414Y-70736171D01*
X122945610Y-70655428D01*
X123164309Y-70537074D01*
X123360544Y-70384338D01*
X123528964Y-70201385D01*
X123664973Y-69993207D01*
X123764863Y-69765481D01*
X123825908Y-69524421D01*
X123835667Y-69406650D01*
X123846443Y-69276605D01*
X135335157Y-69276605D01*
X135355690Y-69524412D01*
X135355692Y-69524424D01*
X135416736Y-69765481D01*
X135516626Y-69993206D01*
X135652633Y-70201382D01*
X135652636Y-70201385D01*
X135821056Y-70384338D01*
X136017291Y-70537074D01*
X136235990Y-70655428D01*
X136471186Y-70736171D01*
X136716465Y-70777100D01*
X136965135Y-70777100D01*
X137210414Y-70736171D01*
X137445610Y-70655428D01*
X137664309Y-70537074D01*
X137860544Y-70384338D01*
X138028964Y-70201385D01*
X138164973Y-69993207D01*
X138264863Y-69765481D01*
X138325908Y-69524421D01*
X138335667Y-69406650D01*
X138346443Y-69276605D01*
X138346443Y-69276594D01*
X138325909Y-69028787D01*
X138325907Y-69028775D01*
X138264863Y-68787718D01*
X138164973Y-68559993D01*
X138028966Y-68351817D01*
X137970545Y-68288355D01*
X137860544Y-68168862D01*
X137664309Y-68016126D01*
X137664307Y-68016125D01*
X137664306Y-68016124D01*
X137445611Y-67897772D01*
X137445602Y-67897769D01*
X137210416Y-67817029D01*
X136965135Y-67776100D01*
X136716465Y-67776100D01*
X136471183Y-67817029D01*
X136235997Y-67897769D01*
X136235988Y-67897772D01*
X136017293Y-68016124D01*
X135821057Y-68168861D01*
X135652633Y-68351817D01*
X135516626Y-68559993D01*
X135416736Y-68787718D01*
X135355692Y-69028775D01*
X135355690Y-69028787D01*
X135335157Y-69276594D01*
X135335157Y-69276605D01*
X123846443Y-69276605D01*
X123846443Y-69276594D01*
X123825909Y-69028787D01*
X123825907Y-69028775D01*
X123764863Y-68787718D01*
X123664973Y-68559993D01*
X123528966Y-68351817D01*
X123470545Y-68288355D01*
X123360544Y-68168862D01*
X123259423Y-68090156D01*
X123218610Y-68033446D01*
X123214497Y-68003849D01*
X122599916Y-67389269D01*
X122566431Y-67327946D01*
X122571415Y-67258255D01*
X122608440Y-67208793D01*
X122607198Y-67207359D01*
X122661368Y-67160421D01*
X122722561Y-67107398D01*
X122757754Y-67052637D01*
X122810555Y-67006883D01*
X122879714Y-66996939D01*
X122943270Y-67025963D01*
X122949749Y-67031996D01*
X123564234Y-67646482D01*
X123664531Y-67492969D01*
X123764387Y-67265317D01*
X123825412Y-67024338D01*
X123825414Y-67024329D01*
X123845941Y-66776605D01*
X123845941Y-66776594D01*
X123825414Y-66528870D01*
X123825412Y-66528861D01*
X123764387Y-66287882D01*
X123664532Y-66060232D01*
X123552315Y-65888470D01*
X123532128Y-65821581D01*
X123551308Y-65754395D01*
X123581813Y-65721382D01*
X123583129Y-65720396D01*
X123583131Y-65720396D01*
X123698346Y-65634146D01*
X123784596Y-65518931D01*
X123834891Y-65384083D01*
X123841300Y-65324473D01*
X123841300Y-64276605D01*
X135335659Y-64276605D01*
X135356185Y-64524329D01*
X135356187Y-64524338D01*
X135417212Y-64765317D01*
X135517066Y-64992964D01*
X135617364Y-65146482D01*
X136231850Y-64531995D01*
X136293173Y-64498510D01*
X136362864Y-64503494D01*
X136418798Y-64545365D01*
X136423839Y-64552625D01*
X136423848Y-64552639D01*
X136459039Y-64607398D01*
X136574402Y-64707359D01*
X136572093Y-64710022D01*
X136606806Y-64750099D01*
X136616735Y-64819260D01*
X136587698Y-64882810D01*
X136581682Y-64889269D01*
X135970742Y-65500209D01*
X136017568Y-65536655D01*
X136017570Y-65536656D01*
X136236185Y-65654964D01*
X136236196Y-65654969D01*
X136471306Y-65735683D01*
X136716507Y-65776600D01*
X136965093Y-65776600D01*
X137210293Y-65735683D01*
X137445403Y-65654969D01*
X137445414Y-65654964D01*
X137664028Y-65536657D01*
X137664031Y-65536655D01*
X137710856Y-65500209D01*
X137099916Y-64889269D01*
X137066431Y-64827946D01*
X137071415Y-64758254D01*
X137108441Y-64708793D01*
X137107198Y-64707359D01*
X137140530Y-64678477D01*
X137222561Y-64607398D01*
X137257754Y-64552637D01*
X137310555Y-64506883D01*
X137379714Y-64496939D01*
X137443270Y-64525963D01*
X137449749Y-64531996D01*
X138064234Y-65146482D01*
X138164531Y-64992969D01*
X138264387Y-64765317D01*
X138325412Y-64524338D01*
X138325414Y-64524329D01*
X138345941Y-64276605D01*
X138345941Y-64276594D01*
X138325414Y-64028870D01*
X138325412Y-64028861D01*
X138264387Y-63787882D01*
X138164531Y-63560230D01*
X138064234Y-63406716D01*
X137449749Y-64021202D01*
X137388426Y-64054687D01*
X137318734Y-64049703D01*
X137262801Y-64007831D01*
X137257753Y-64000561D01*
X137222561Y-63945802D01*
X137107198Y-63845841D01*
X137109498Y-63843185D01*
X137074760Y-63803028D01*
X137064874Y-63733861D01*
X137093952Y-63670329D01*
X137099916Y-63663929D01*
X137710856Y-63052989D01*
X137664029Y-63016543D01*
X137445414Y-62898235D01*
X137445403Y-62898230D01*
X137210293Y-62817516D01*
X136965093Y-62776600D01*
X136716507Y-62776600D01*
X136471306Y-62817516D01*
X136236196Y-62898230D01*
X136236190Y-62898232D01*
X136017561Y-63016549D01*
X135970742Y-63052988D01*
X135970742Y-63052990D01*
X136581683Y-63663930D01*
X136615168Y-63725253D01*
X136610184Y-63794944D01*
X136573158Y-63844405D01*
X136574402Y-63845841D01*
X136459038Y-63945802D01*
X136423846Y-64000562D01*
X136371042Y-64046317D01*
X136301883Y-64056260D01*
X136238328Y-64027234D01*
X136231850Y-64021203D01*
X135617364Y-63406716D01*
X135517067Y-63560232D01*
X135417212Y-63787882D01*
X135356187Y-64028861D01*
X135356185Y-64028870D01*
X135335659Y-64276594D01*
X135335659Y-64276605D01*
X123841300Y-64276605D01*
X123841299Y-63228728D01*
X123834891Y-63169117D01*
X123809791Y-63101821D01*
X123784597Y-63034271D01*
X123784593Y-63034264D01*
X123698347Y-62919055D01*
X123698344Y-62919052D01*
X123583135Y-62832806D01*
X123583128Y-62832802D01*
X123448282Y-62782508D01*
X123448283Y-62782508D01*
X123388683Y-62776101D01*
X123388681Y-62776100D01*
X123388673Y-62776100D01*
X123388664Y-62776100D01*
X121292929Y-62776100D01*
X121292923Y-62776101D01*
X121233316Y-62782508D01*
X121098471Y-62832802D01*
X121098464Y-62832806D01*
X120983255Y-62919052D01*
X120983252Y-62919055D01*
X120897006Y-63034264D01*
X120897002Y-63034271D01*
X120846708Y-63169117D01*
X120840301Y-63228716D01*
X120840301Y-63228723D01*
X120840300Y-63228735D01*
X120840300Y-65324470D01*
X120840301Y-65324476D01*
X120846708Y-65384083D01*
X120897002Y-65518928D01*
X120897006Y-65518935D01*
X120983252Y-65634144D01*
X120983255Y-65634147D01*
X121099786Y-65721383D01*
X121141657Y-65777317D01*
X121146641Y-65847008D01*
X121129284Y-65888470D01*
X121017067Y-66060231D01*
X120917212Y-66287882D01*
X120856187Y-66528861D01*
X120856185Y-66528870D01*
X120835658Y-66776594D01*
X120835658Y-66776605D01*
X120856185Y-67024329D01*
X120856187Y-67024338D01*
X120917212Y-67265317D01*
X121017066Y-67492964D01*
X121117364Y-67646482D01*
X121731850Y-67031995D01*
X121793173Y-66998510D01*
X121862864Y-67003494D01*
X121918798Y-67045365D01*
X121923839Y-67052625D01*
X121955058Y-67101204D01*
X121959039Y-67107398D01*
X122074402Y-67207359D01*
X122072093Y-67210022D01*
X122106806Y-67250099D01*
X122116735Y-67319260D01*
X122087698Y-67382810D01*
X122081682Y-67389269D01*
X121464900Y-68006050D01*
X121454282Y-68052748D01*
X121422176Y-68090156D01*
X121321055Y-68168862D01*
X121152633Y-68351817D01*
X121016626Y-68559993D01*
X120916736Y-68787718D01*
X120855692Y-69028775D01*
X120855690Y-69028787D01*
X120835157Y-69276594D01*
X120835157Y-69276605D01*
X118151300Y-69276605D01*
X118151300Y-62224470D01*
X127740300Y-62224470D01*
X127740301Y-62224476D01*
X127746708Y-62284083D01*
X127797002Y-62418928D01*
X127797006Y-62418935D01*
X127883252Y-62534144D01*
X127883255Y-62534147D01*
X127998464Y-62620393D01*
X127998471Y-62620397D01*
X128133317Y-62670691D01*
X128133316Y-62670691D01*
X128140244Y-62671435D01*
X128192927Y-62677100D01*
X131488672Y-62677099D01*
X131548283Y-62670691D01*
X131683131Y-62620396D01*
X131798346Y-62534146D01*
X131884596Y-62418931D01*
X131934891Y-62284083D01*
X131941300Y-62224473D01*
X131941299Y-60128728D01*
X131934891Y-60069117D01*
X131931559Y-60060184D01*
X131884597Y-59934271D01*
X131884593Y-59934264D01*
X131798347Y-59819055D01*
X131798344Y-59819052D01*
X131683135Y-59732806D01*
X131683128Y-59732802D01*
X131548282Y-59682508D01*
X131548283Y-59682508D01*
X131488683Y-59676101D01*
X131488681Y-59676100D01*
X131488673Y-59676100D01*
X131488664Y-59676100D01*
X128192929Y-59676100D01*
X128192923Y-59676101D01*
X128133316Y-59682508D01*
X127998471Y-59732802D01*
X127998464Y-59732806D01*
X127883255Y-59819052D01*
X127883252Y-59819055D01*
X127797006Y-59934264D01*
X127797002Y-59934271D01*
X127746708Y-60069117D01*
X127741992Y-60112988D01*
X127740301Y-60128723D01*
X127740300Y-60128735D01*
X127740300Y-62224470D01*
X118151300Y-62224470D01*
X118151300Y-55842100D01*
X118170985Y-55775061D01*
X118223789Y-55729306D01*
X118275300Y-55718100D01*
X136931936Y-55718100D01*
X136998975Y-55737785D01*
X137044730Y-55790589D01*
X137054674Y-55859747D01*
X137049641Y-55881105D01*
X137039602Y-55911399D01*
X137039600Y-55911404D01*
X137029100Y-56014183D01*
X137029100Y-56914201D01*
X137029101Y-56914219D01*
X137039600Y-57016996D01*
X137039601Y-57016999D01*
X137069071Y-57105932D01*
X137094786Y-57183534D01*
X137186888Y-57332856D01*
X137310944Y-57456912D01*
X137460266Y-57549014D01*
X137626803Y-57604199D01*
X137729591Y-57614700D01*
X139079608Y-57614699D01*
X139182397Y-57604199D01*
X139348934Y-57549014D01*
X139498256Y-57456912D01*
X139622312Y-57332856D01*
X139714414Y-57183534D01*
X139714416Y-57183527D01*
X139717213Y-57177530D01*
X139763382Y-57125088D01*
X139830574Y-57105932D01*
X139897456Y-57126143D01*
X139917279Y-57142247D01*
X139927144Y-57152112D01*
X140076466Y-57244214D01*
X140243003Y-57299399D01*
X140345791Y-57309900D01*
X141327946Y-57309899D01*
X141394985Y-57329583D01*
X141440740Y-57382387D01*
X141450684Y-57451546D01*
X141421659Y-57515102D01*
X141415627Y-57521580D01*
X140864626Y-58072581D01*
X140803303Y-58106066D01*
X140776945Y-58108900D01*
X140345798Y-58108900D01*
X140345780Y-58108901D01*
X140243003Y-58119400D01*
X140243000Y-58119401D01*
X140076468Y-58174585D01*
X140076463Y-58174587D01*
X139927142Y-58266689D01*
X139803089Y-58390742D01*
X139710981Y-58540074D01*
X139708181Y-58546079D01*
X139662007Y-58598517D01*
X139594813Y-58617667D01*
X139527933Y-58597449D01*
X139508120Y-58581352D01*
X139498257Y-58571489D01*
X139498256Y-58571488D01*
X139368861Y-58491677D01*
X139348936Y-58479387D01*
X139348931Y-58479385D01*
X139331826Y-58473717D01*
X139182397Y-58424201D01*
X139182395Y-58424200D01*
X139079610Y-58413700D01*
X137729598Y-58413700D01*
X137729581Y-58413701D01*
X137626803Y-58424200D01*
X137626800Y-58424201D01*
X137460268Y-58479385D01*
X137460263Y-58479387D01*
X137310942Y-58571489D01*
X137186889Y-58695542D01*
X137094787Y-58844863D01*
X137094785Y-58844866D01*
X137094786Y-58844866D01*
X137039601Y-59011403D01*
X137039601Y-59011404D01*
X137039600Y-59011404D01*
X137029100Y-59114183D01*
X137029100Y-60014201D01*
X137029101Y-60014219D01*
X137039600Y-60116996D01*
X137039601Y-60116999D01*
X137069071Y-60205932D01*
X137094786Y-60283534D01*
X137186888Y-60432856D01*
X137310944Y-60556912D01*
X137460266Y-60649014D01*
X137626803Y-60704199D01*
X137729591Y-60714700D01*
X139079608Y-60714699D01*
X139182397Y-60704199D01*
X139348934Y-60649014D01*
X139498256Y-60556912D01*
X139622312Y-60432856D01*
X139714414Y-60283534D01*
X139714416Y-60283527D01*
X139717213Y-60277530D01*
X139763382Y-60225088D01*
X139830574Y-60205932D01*
X139897456Y-60226143D01*
X139917279Y-60242247D01*
X139927144Y-60252112D01*
X140076466Y-60344214D01*
X140243003Y-60399399D01*
X140345791Y-60409900D01*
X141695808Y-60409899D01*
X141798597Y-60399399D01*
X141965134Y-60344214D01*
X142114456Y-60252112D01*
X142238512Y-60128056D01*
X142330614Y-59978734D01*
X142330614Y-59978732D01*
X142332197Y-59976167D01*
X142384145Y-59929442D01*
X142453107Y-59918219D01*
X142502833Y-59935725D01*
X142566269Y-59974853D01*
X142566280Y-59974858D01*
X142732702Y-60030005D01*
X142732709Y-60030006D01*
X142835419Y-60040499D01*
X143285399Y-60040499D01*
X143285400Y-60040498D01*
X143285400Y-57715500D01*
X143283383Y-57713483D01*
X143223212Y-57695815D01*
X143177457Y-57643011D01*
X143167513Y-57573853D01*
X143196538Y-57510297D01*
X143202561Y-57503827D01*
X143754071Y-56952318D01*
X143815395Y-56918833D01*
X143841753Y-56915999D01*
X144081300Y-56915999D01*
X144148339Y-56935684D01*
X144194094Y-56988488D01*
X144205300Y-57039999D01*
X144205300Y-57591500D01*
X144185615Y-57658539D01*
X144132811Y-57704294D01*
X144081300Y-57715500D01*
X143785400Y-57715500D01*
X143785400Y-60040499D01*
X144081300Y-60040499D01*
X144148339Y-60060184D01*
X144194094Y-60112988D01*
X144205300Y-60164499D01*
X144205300Y-77336455D01*
X144203575Y-77352072D01*
X144203861Y-77352099D01*
X144203126Y-77359865D01*
X144205300Y-77429014D01*
X144205300Y-77458543D01*
X144205301Y-77458560D01*
X144206168Y-77465431D01*
X144206626Y-77471250D01*
X144208090Y-77517824D01*
X144208091Y-77517827D01*
X144213680Y-77537067D01*
X144217624Y-77556111D01*
X144220136Y-77575992D01*
X144223510Y-77584514D01*
X144237290Y-77619319D01*
X144239182Y-77624847D01*
X144252181Y-77669588D01*
X144262380Y-77686834D01*
X144270938Y-77704303D01*
X144278314Y-77722932D01*
X144305698Y-77760623D01*
X144308906Y-77765507D01*
X144332627Y-77805616D01*
X144332633Y-77805624D01*
X144346790Y-77819780D01*
X144359428Y-77834576D01*
X144371205Y-77850786D01*
X144371206Y-77850787D01*
X144407109Y-77880488D01*
X144411420Y-77884410D01*
X153638362Y-87111353D01*
X156663597Y-90136588D01*
X156673422Y-90148851D01*
X156673643Y-90148669D01*
X156678614Y-90154678D01*
X156704617Y-90179095D01*
X156729035Y-90202026D01*
X156749929Y-90222920D01*
X156755411Y-90227173D01*
X156759843Y-90230957D01*
X156793818Y-90262862D01*
X156811376Y-90272514D01*
X156827635Y-90283195D01*
X156843464Y-90295473D01*
X156886238Y-90313982D01*
X156891456Y-90316538D01*
X156932308Y-90338997D01*
X156951716Y-90343980D01*
X156970117Y-90350280D01*
X156988504Y-90358237D01*
X157031888Y-90365108D01*
X157034519Y-90365525D01*
X157040239Y-90366709D01*
X157085381Y-90378300D01*
X157105416Y-90378300D01*
X157124814Y-90379826D01*
X157144594Y-90382959D01*
X157144595Y-90382960D01*
X157144595Y-90382959D01*
X157144596Y-90382960D01*
X157190983Y-90378575D01*
X157196822Y-90378300D01*
X165039301Y-90378300D01*
X165106340Y-90397985D01*
X165152095Y-90450789D01*
X165163301Y-90502300D01*
X165163301Y-90800676D01*
X165169708Y-90860283D01*
X165220002Y-90995128D01*
X165220006Y-90995135D01*
X165306252Y-91110344D01*
X165306255Y-91110347D01*
X165422786Y-91197583D01*
X165464657Y-91253517D01*
X165469641Y-91323208D01*
X165452284Y-91364670D01*
X165340067Y-91536431D01*
X165240212Y-91764082D01*
X165179187Y-92005061D01*
X165179185Y-92005070D01*
X165158659Y-92252794D01*
X165158659Y-92252805D01*
X165179185Y-92500529D01*
X165179187Y-92500538D01*
X165240212Y-92741517D01*
X165340066Y-92969164D01*
X165440364Y-93122682D01*
X166054850Y-92508195D01*
X166116173Y-92474710D01*
X166185864Y-92479694D01*
X166241798Y-92521565D01*
X166246839Y-92528825D01*
X166265228Y-92557439D01*
X166282039Y-92583598D01*
X166397402Y-92683559D01*
X166395093Y-92686222D01*
X166429806Y-92726299D01*
X166439735Y-92795460D01*
X166410698Y-92859010D01*
X166404682Y-92865469D01*
X165787900Y-93482250D01*
X165777282Y-93528948D01*
X165745176Y-93566356D01*
X165644055Y-93645062D01*
X165475633Y-93828017D01*
X165339626Y-94036193D01*
X165239736Y-94263918D01*
X165178692Y-94504975D01*
X165178690Y-94504987D01*
X165158157Y-94752794D01*
X165158157Y-94752805D01*
X165178690Y-95000612D01*
X165178692Y-95000624D01*
X165239736Y-95241681D01*
X165339626Y-95469406D01*
X165475633Y-95677582D01*
X165475636Y-95677585D01*
X165644056Y-95860538D01*
X165840291Y-96013274D01*
X165840293Y-96013275D01*
X166058132Y-96131164D01*
X166058990Y-96131628D01*
X166277941Y-96206794D01*
X166292764Y-96211883D01*
X166294186Y-96212371D01*
X166539465Y-96253300D01*
X166788135Y-96253300D01*
X167033414Y-96212371D01*
X167268610Y-96131628D01*
X167487309Y-96013274D01*
X167683544Y-95860538D01*
X167851964Y-95677585D01*
X167987973Y-95469407D01*
X168087863Y-95241681D01*
X168148908Y-95000621D01*
X168169443Y-94752805D01*
X179658659Y-94752805D01*
X179679185Y-95000529D01*
X179679187Y-95000538D01*
X179740212Y-95241517D01*
X179840066Y-95469164D01*
X179940364Y-95622682D01*
X180554850Y-95008195D01*
X180616173Y-94974710D01*
X180685864Y-94979694D01*
X180741798Y-95021565D01*
X180746839Y-95028825D01*
X180746848Y-95028839D01*
X180782039Y-95083598D01*
X180897402Y-95183559D01*
X180895093Y-95186222D01*
X180929806Y-95226299D01*
X180939735Y-95295460D01*
X180910698Y-95359010D01*
X180904682Y-95365469D01*
X180293742Y-95976409D01*
X180340568Y-96012855D01*
X180340570Y-96012856D01*
X180559185Y-96131164D01*
X180559196Y-96131169D01*
X180794306Y-96211883D01*
X181039507Y-96252800D01*
X181288093Y-96252800D01*
X181533293Y-96211883D01*
X181768403Y-96131169D01*
X181768414Y-96131164D01*
X181987028Y-96012857D01*
X181987031Y-96012855D01*
X182033856Y-95976409D01*
X181422916Y-95365469D01*
X181389431Y-95304146D01*
X181394415Y-95234454D01*
X181431441Y-95184993D01*
X181430198Y-95183559D01*
X181436900Y-95177752D01*
X181545561Y-95083598D01*
X181580754Y-95028837D01*
X181633555Y-94983083D01*
X181702714Y-94973139D01*
X181766270Y-95002163D01*
X181772749Y-95008196D01*
X182387234Y-95622682D01*
X182487531Y-95469169D01*
X182587387Y-95241517D01*
X182648412Y-95000538D01*
X182648414Y-95000529D01*
X182668941Y-94752805D01*
X182668941Y-94752794D01*
X182648414Y-94505070D01*
X182648412Y-94505061D01*
X182587387Y-94264082D01*
X182487531Y-94036430D01*
X182387234Y-93882916D01*
X181772749Y-94497402D01*
X181711426Y-94530887D01*
X181641734Y-94525903D01*
X181585801Y-94484031D01*
X181580753Y-94476761D01*
X181545561Y-94422002D01*
X181430198Y-94322041D01*
X181432498Y-94319385D01*
X181397760Y-94279228D01*
X181387874Y-94210061D01*
X181416952Y-94146529D01*
X181422916Y-94140129D01*
X182033856Y-93529189D01*
X181987029Y-93492743D01*
X181768414Y-93374435D01*
X181768403Y-93374430D01*
X181533293Y-93293716D01*
X181288093Y-93252800D01*
X181039507Y-93252800D01*
X180794306Y-93293716D01*
X180559196Y-93374430D01*
X180559190Y-93374432D01*
X180340561Y-93492749D01*
X180293742Y-93529188D01*
X180293742Y-93529190D01*
X180904683Y-94140130D01*
X180938168Y-94201453D01*
X180933184Y-94271144D01*
X180896158Y-94320605D01*
X180897402Y-94322041D01*
X180782038Y-94422002D01*
X180746846Y-94476762D01*
X180694042Y-94522517D01*
X180624883Y-94532460D01*
X180561328Y-94503434D01*
X180554850Y-94497403D01*
X179940364Y-93882916D01*
X179840067Y-94036432D01*
X179740212Y-94264082D01*
X179679187Y-94505061D01*
X179679185Y-94505070D01*
X179658659Y-94752794D01*
X179658659Y-94752805D01*
X168169443Y-94752805D01*
X168169443Y-94752800D01*
X168150642Y-94525903D01*
X168148909Y-94504987D01*
X168148908Y-94504983D01*
X168148908Y-94504979D01*
X168146989Y-94497403D01*
X168104052Y-94327848D01*
X168094936Y-94291849D01*
X168097560Y-94222030D01*
X168127458Y-94173730D01*
X169446186Y-92855002D01*
X169458448Y-92845180D01*
X169458265Y-92844959D01*
X169464267Y-92839992D01*
X169464277Y-92839986D01*
X169511641Y-92789548D01*
X169532520Y-92768670D01*
X169536773Y-92763186D01*
X169540550Y-92758763D01*
X169572462Y-92724782D01*
X169582114Y-92707223D01*
X169592789Y-92690972D01*
X169605074Y-92675136D01*
X169623586Y-92632352D01*
X169626142Y-92627135D01*
X169648597Y-92586292D01*
X169653580Y-92566880D01*
X169659877Y-92548491D01*
X169667838Y-92530095D01*
X169675129Y-92484053D01*
X169676308Y-92478362D01*
X169687900Y-92433219D01*
X169687900Y-92413174D01*
X169689425Y-92393791D01*
X169692560Y-92374004D01*
X169688175Y-92327615D01*
X169687900Y-92321777D01*
X169687900Y-87700670D01*
X172063300Y-87700670D01*
X172063301Y-87700676D01*
X172069708Y-87760283D01*
X172120002Y-87895128D01*
X172120006Y-87895135D01*
X172206252Y-88010344D01*
X172206255Y-88010347D01*
X172321464Y-88096593D01*
X172321471Y-88096597D01*
X172456317Y-88146891D01*
X172456316Y-88146891D01*
X172463244Y-88147635D01*
X172515927Y-88153300D01*
X175811672Y-88153299D01*
X175871283Y-88146891D01*
X176006131Y-88096596D01*
X176121346Y-88010346D01*
X176207596Y-87895131D01*
X176257891Y-87760283D01*
X176264300Y-87700673D01*
X176264299Y-85604928D01*
X176257891Y-85545317D01*
X176254927Y-85537371D01*
X176207597Y-85410471D01*
X176207593Y-85410464D01*
X176121347Y-85295255D01*
X176121344Y-85295252D01*
X176006135Y-85209006D01*
X176006128Y-85209002D01*
X175871282Y-85158708D01*
X175871283Y-85158708D01*
X175811683Y-85152301D01*
X175811681Y-85152300D01*
X175811673Y-85152300D01*
X175811664Y-85152300D01*
X172515929Y-85152300D01*
X172515923Y-85152301D01*
X172456316Y-85158708D01*
X172321471Y-85209002D01*
X172321464Y-85209006D01*
X172206255Y-85295252D01*
X172206252Y-85295255D01*
X172120006Y-85410464D01*
X172120002Y-85410471D01*
X172069708Y-85545317D01*
X172063301Y-85604916D01*
X172063301Y-85604923D01*
X172063300Y-85604935D01*
X172063300Y-87700670D01*
X169687900Y-87700670D01*
X169687900Y-87396044D01*
X169690097Y-87372806D01*
X169691627Y-87364788D01*
X169688021Y-87307475D01*
X169687900Y-87303603D01*
X169687900Y-87285850D01*
X169685670Y-87268202D01*
X169685310Y-87264391D01*
X169681704Y-87207062D01*
X169679179Y-87199292D01*
X169674087Y-87176514D01*
X169673064Y-87168408D01*
X169651920Y-87115006D01*
X169650611Y-87111370D01*
X169632867Y-87056759D01*
X169628489Y-87049861D01*
X169617895Y-87029068D01*
X169614886Y-87021468D01*
X169581136Y-86975015D01*
X169578945Y-86971792D01*
X169548185Y-86923322D01*
X169542234Y-86917734D01*
X169526798Y-86900225D01*
X169521994Y-86893613D01*
X169521991Y-86893611D01*
X169521991Y-86893610D01*
X169477761Y-86857020D01*
X169474838Y-86854443D01*
X169432985Y-86815140D01*
X169432977Y-86815134D01*
X169425815Y-86811197D01*
X169406514Y-86798080D01*
X169400224Y-86792876D01*
X169348278Y-86768432D01*
X169344817Y-86766669D01*
X169294492Y-86739003D01*
X169294489Y-86739002D01*
X169294485Y-86739000D01*
X169286574Y-86736969D01*
X169264622Y-86729066D01*
X169257225Y-86725585D01*
X169257221Y-86725584D01*
X169200844Y-86714830D01*
X169197044Y-86713980D01*
X169141423Y-86699700D01*
X169141419Y-86699700D01*
X169133247Y-86699700D01*
X169110015Y-86697504D01*
X169101988Y-86695973D01*
X169101986Y-86695973D01*
X169093033Y-86696536D01*
X169044675Y-86699578D01*
X169040803Y-86699700D01*
X159619252Y-86699700D01*
X159552213Y-86680015D01*
X159531571Y-86663381D01*
X146762619Y-73894428D01*
X146729134Y-73833105D01*
X146726300Y-73806747D01*
X146726300Y-69147532D01*
X146745985Y-69080493D01*
X146798789Y-69034738D01*
X146867947Y-69024794D01*
X146929341Y-69051989D01*
X146947110Y-69066689D01*
X146951432Y-69070622D01*
X154870994Y-76990184D01*
X154880819Y-77002448D01*
X154881040Y-77002266D01*
X154886010Y-77008273D01*
X154886013Y-77008276D01*
X154886014Y-77008277D01*
X154936451Y-77055641D01*
X154957330Y-77076520D01*
X154962804Y-77080766D01*
X154967242Y-77084556D01*
X155001218Y-77116462D01*
X155001222Y-77116464D01*
X155018773Y-77126113D01*
X155035031Y-77136792D01*
X155050864Y-77149074D01*
X155072815Y-77158572D01*
X155093637Y-77167583D01*
X155098881Y-77170152D01*
X155139708Y-77192597D01*
X155159112Y-77197579D01*
X155177510Y-77203878D01*
X155195905Y-77211838D01*
X155241929Y-77219126D01*
X155247632Y-77220307D01*
X155292781Y-77231900D01*
X155312816Y-77231900D01*
X155332213Y-77233426D01*
X155351996Y-77236560D01*
X155398383Y-77232175D01*
X155404222Y-77231900D01*
X172028548Y-77231900D01*
X172095587Y-77251585D01*
X172116229Y-77268219D01*
X180513311Y-85665301D01*
X180546796Y-85726624D01*
X180545735Y-85783815D01*
X180538301Y-85812771D01*
X180538300Y-85812782D01*
X180538300Y-85832816D01*
X180536773Y-85852213D01*
X180536360Y-85854821D01*
X180533640Y-85871994D01*
X180533640Y-85871995D01*
X180538025Y-85918383D01*
X180538300Y-85924221D01*
X180538300Y-88311279D01*
X180518615Y-88378318D01*
X180473319Y-88420333D01*
X180340296Y-88492322D01*
X180340294Y-88492323D01*
X180144057Y-88645061D01*
X179975633Y-88828017D01*
X179839626Y-89036193D01*
X179739736Y-89263918D01*
X179678692Y-89504975D01*
X179678690Y-89504987D01*
X179658157Y-89752794D01*
X179658157Y-89752805D01*
X179678690Y-90000612D01*
X179678692Y-90000624D01*
X179739736Y-90241681D01*
X179839626Y-90469406D01*
X179975633Y-90677582D01*
X179975636Y-90677585D01*
X180144056Y-90860538D01*
X180340291Y-91013274D01*
X180558990Y-91131628D01*
X180794186Y-91212371D01*
X181039465Y-91253300D01*
X181288135Y-91253300D01*
X181533414Y-91212371D01*
X181768610Y-91131628D01*
X181987309Y-91013274D01*
X182183544Y-90860538D01*
X182351964Y-90677585D01*
X182487973Y-90469407D01*
X182587863Y-90241681D01*
X182648908Y-90000621D01*
X182669443Y-89752800D01*
X182648908Y-89504979D01*
X182587863Y-89263919D01*
X182575200Y-89235051D01*
X182487973Y-89036193D01*
X182351966Y-88828017D01*
X182257850Y-88725780D01*
X182183544Y-88645062D01*
X181987309Y-88492326D01*
X181987308Y-88492325D01*
X181987305Y-88492323D01*
X181987298Y-88492319D01*
X181854281Y-88420333D01*
X181804691Y-88371114D01*
X181789300Y-88311282D01*
X181789300Y-86181957D01*
X181808985Y-86114917D01*
X181815324Y-86105953D01*
X181822474Y-86096736D01*
X181840986Y-86053952D01*
X181843542Y-86048735D01*
X181865997Y-86007892D01*
X181870980Y-85988480D01*
X181877277Y-85970091D01*
X181885238Y-85951695D01*
X181892529Y-85905653D01*
X181893708Y-85899962D01*
X181905300Y-85854819D01*
X181905300Y-85834783D01*
X181906827Y-85815382D01*
X181907239Y-85812781D01*
X181909960Y-85795604D01*
X181905575Y-85749215D01*
X181905300Y-85743377D01*
X181905300Y-85629942D01*
X181907024Y-85614323D01*
X181906739Y-85614297D01*
X181907471Y-85606539D01*
X181907473Y-85606533D01*
X181905299Y-85537371D01*
X181905300Y-85507850D01*
X181904431Y-85500979D01*
X181903973Y-85495149D01*
X181902510Y-85448573D01*
X181896919Y-85429330D01*
X181892973Y-85410278D01*
X181890464Y-85390408D01*
X181873304Y-85347067D01*
X181871424Y-85341579D01*
X181858418Y-85296810D01*
X181857498Y-85295255D01*
X181848223Y-85279571D01*
X181839661Y-85262094D01*
X181832287Y-85243470D01*
X181832286Y-85243468D01*
X181804879Y-85205745D01*
X181801688Y-85200886D01*
X181777972Y-85160783D01*
X181777965Y-85160774D01*
X181763806Y-85146615D01*
X181751168Y-85131819D01*
X181739394Y-85115613D01*
X181703488Y-85085909D01*
X181699176Y-85081986D01*
X172839803Y-76222612D01*
X172829980Y-76210350D01*
X172829759Y-76210534D01*
X172824786Y-76204523D01*
X172774364Y-76157173D01*
X172763919Y-76146728D01*
X172753475Y-76136283D01*
X172747986Y-76132025D01*
X172743561Y-76128247D01*
X172709582Y-76096338D01*
X172709580Y-76096336D01*
X172709577Y-76096335D01*
X172692029Y-76086688D01*
X172675763Y-76076004D01*
X172659933Y-76063725D01*
X172617168Y-76045218D01*
X172611922Y-76042648D01*
X172571093Y-76020203D01*
X172571092Y-76020202D01*
X172551693Y-76015222D01*
X172533281Y-76008918D01*
X172514898Y-76000962D01*
X172514892Y-76000960D01*
X172468874Y-75993672D01*
X172463152Y-75992487D01*
X172418021Y-75980900D01*
X172418019Y-75980900D01*
X172397984Y-75980900D01*
X172378586Y-75979373D01*
X172371162Y-75978197D01*
X172358805Y-75976240D01*
X172358804Y-75976240D01*
X172312416Y-75980625D01*
X172306578Y-75980900D01*
X155682252Y-75980900D01*
X155615213Y-75961215D01*
X155594571Y-75944581D01*
X153074460Y-73424470D01*
X157153500Y-73424470D01*
X157153501Y-73424476D01*
X157159908Y-73484083D01*
X157210202Y-73618928D01*
X157210206Y-73618935D01*
X157296452Y-73734144D01*
X157296455Y-73734147D01*
X157411664Y-73820393D01*
X157411671Y-73820397D01*
X157546517Y-73870691D01*
X157546516Y-73870691D01*
X157553444Y-73871435D01*
X157606127Y-73877100D01*
X160901872Y-73877099D01*
X160961483Y-73870691D01*
X161096331Y-73820396D01*
X161211546Y-73734146D01*
X161297796Y-73618931D01*
X161348091Y-73484083D01*
X161354500Y-73424473D01*
X161354500Y-73424470D01*
X186668300Y-73424470D01*
X186668301Y-73424476D01*
X186674708Y-73484083D01*
X186725002Y-73618928D01*
X186725006Y-73618935D01*
X186811252Y-73734144D01*
X186811255Y-73734147D01*
X186926464Y-73820393D01*
X186926471Y-73820397D01*
X187061317Y-73870691D01*
X187061316Y-73870691D01*
X187068244Y-73871435D01*
X187120927Y-73877100D01*
X190416672Y-73877099D01*
X190476283Y-73870691D01*
X190611131Y-73820396D01*
X190726346Y-73734146D01*
X190812596Y-73618931D01*
X190862891Y-73484083D01*
X190869300Y-73424473D01*
X190869299Y-71328728D01*
X190862891Y-71269117D01*
X190812596Y-71134269D01*
X190812595Y-71134268D01*
X190812593Y-71134264D01*
X190726347Y-71019055D01*
X190726344Y-71019052D01*
X190611135Y-70932806D01*
X190611128Y-70932802D01*
X190476282Y-70882508D01*
X190476283Y-70882508D01*
X190416683Y-70876101D01*
X190416681Y-70876100D01*
X190416673Y-70876100D01*
X190416664Y-70876100D01*
X187120929Y-70876100D01*
X187120923Y-70876101D01*
X187061316Y-70882508D01*
X186926471Y-70932802D01*
X186926464Y-70932806D01*
X186811255Y-71019052D01*
X186811252Y-71019055D01*
X186725006Y-71134264D01*
X186725002Y-71134271D01*
X186674708Y-71269117D01*
X186668301Y-71328716D01*
X186668301Y-71328723D01*
X186668300Y-71328735D01*
X186668300Y-73424470D01*
X161354500Y-73424470D01*
X161354499Y-71328728D01*
X161348091Y-71269117D01*
X161297796Y-71134269D01*
X161297795Y-71134268D01*
X161297793Y-71134264D01*
X161211547Y-71019055D01*
X161211544Y-71019052D01*
X161096335Y-70932806D01*
X161096328Y-70932802D01*
X160961482Y-70882508D01*
X160961483Y-70882508D01*
X160901883Y-70876101D01*
X160901881Y-70876100D01*
X160901873Y-70876100D01*
X160901864Y-70876100D01*
X157606129Y-70876100D01*
X157606123Y-70876101D01*
X157546516Y-70882508D01*
X157411671Y-70932802D01*
X157411664Y-70932806D01*
X157296455Y-71019052D01*
X157296452Y-71019055D01*
X157210206Y-71134264D01*
X157210202Y-71134271D01*
X157159908Y-71269117D01*
X157153501Y-71328716D01*
X157153501Y-71328723D01*
X157153500Y-71328735D01*
X157153500Y-73424470D01*
X153074460Y-73424470D01*
X148032619Y-68382628D01*
X147999134Y-68321305D01*
X147996300Y-68294947D01*
X147996300Y-61705532D01*
X148015985Y-61638493D01*
X148068789Y-61592738D01*
X148137947Y-61582794D01*
X148199341Y-61609989D01*
X148217110Y-61624689D01*
X148221432Y-61628622D01*
X150217181Y-63624371D01*
X150250666Y-63685694D01*
X150253500Y-63712052D01*
X150253500Y-65324470D01*
X150253501Y-65324476D01*
X150259908Y-65384083D01*
X150310202Y-65518928D01*
X150310206Y-65518935D01*
X150396452Y-65634144D01*
X150396455Y-65634147D01*
X150512986Y-65721383D01*
X150554857Y-65777317D01*
X150559841Y-65847008D01*
X150542484Y-65888470D01*
X150430267Y-66060231D01*
X150330412Y-66287882D01*
X150269387Y-66528861D01*
X150269385Y-66528870D01*
X150248859Y-66776594D01*
X150248859Y-66776605D01*
X150269385Y-67024329D01*
X150269387Y-67024338D01*
X150330412Y-67265317D01*
X150430266Y-67492964D01*
X150530564Y-67646482D01*
X151145050Y-67031995D01*
X151206373Y-66998510D01*
X151276064Y-67003494D01*
X151331998Y-67045365D01*
X151337039Y-67052625D01*
X151368258Y-67101204D01*
X151372239Y-67107398D01*
X151487602Y-67207359D01*
X151485293Y-67210022D01*
X151520006Y-67250099D01*
X151529935Y-67319260D01*
X151500898Y-67382810D01*
X151494882Y-67389269D01*
X150878100Y-68006050D01*
X150867482Y-68052748D01*
X150835376Y-68090156D01*
X150734255Y-68168862D01*
X150565833Y-68351817D01*
X150429826Y-68559993D01*
X150329936Y-68787718D01*
X150268892Y-69028775D01*
X150268890Y-69028787D01*
X150248357Y-69276594D01*
X150248357Y-69276605D01*
X150268890Y-69524412D01*
X150268892Y-69524424D01*
X150329936Y-69765481D01*
X150429826Y-69993206D01*
X150565833Y-70201382D01*
X150565836Y-70201385D01*
X150734256Y-70384338D01*
X150930491Y-70537074D01*
X151149190Y-70655428D01*
X151384386Y-70736171D01*
X151629665Y-70777100D01*
X151878335Y-70777100D01*
X152123614Y-70736171D01*
X152358810Y-70655428D01*
X152577509Y-70537074D01*
X152773744Y-70384338D01*
X152942164Y-70201385D01*
X153078173Y-69993207D01*
X153178063Y-69765481D01*
X153239108Y-69524421D01*
X153248867Y-69406644D01*
X153274018Y-69341464D01*
X153330420Y-69300226D01*
X153356904Y-69293866D01*
X153369592Y-69292264D01*
X153409139Y-69276605D01*
X164748357Y-69276605D01*
X164768890Y-69524412D01*
X164768892Y-69524424D01*
X164829936Y-69765481D01*
X164929826Y-69993206D01*
X165065833Y-70201382D01*
X165065836Y-70201385D01*
X165234256Y-70384338D01*
X165430491Y-70537074D01*
X165649190Y-70655428D01*
X165884386Y-70736171D01*
X166129665Y-70777100D01*
X166378335Y-70777100D01*
X166623614Y-70736171D01*
X166858810Y-70655428D01*
X167077509Y-70537074D01*
X167273744Y-70384338D01*
X167442164Y-70201385D01*
X167578173Y-69993207D01*
X167678063Y-69765481D01*
X167739108Y-69524421D01*
X167759643Y-69276600D01*
X167745261Y-69103037D01*
X167739109Y-69028787D01*
X167739107Y-69028775D01*
X167678063Y-68787718D01*
X167578173Y-68559993D01*
X167442166Y-68351817D01*
X167383745Y-68288355D01*
X167273744Y-68168862D01*
X167077509Y-68016126D01*
X167077507Y-68016125D01*
X167077506Y-68016124D01*
X166858811Y-67897772D01*
X166858802Y-67897769D01*
X166623616Y-67817029D01*
X166378335Y-67776100D01*
X166129665Y-67776100D01*
X165884383Y-67817029D01*
X165649197Y-67897769D01*
X165649188Y-67897772D01*
X165430493Y-68016124D01*
X165234257Y-68168861D01*
X165065833Y-68351817D01*
X164929826Y-68559993D01*
X164829936Y-68787718D01*
X164768892Y-69028775D01*
X164768890Y-69028787D01*
X164748357Y-69276594D01*
X164748357Y-69276605D01*
X153409139Y-69276605D01*
X153412922Y-69275107D01*
X153418446Y-69273217D01*
X153422196Y-69272127D01*
X153463190Y-69260218D01*
X153480429Y-69250022D01*
X153497903Y-69241462D01*
X153516527Y-69234088D01*
X153516527Y-69234087D01*
X153516532Y-69234086D01*
X153554249Y-69206682D01*
X153559105Y-69203492D01*
X153599220Y-69179770D01*
X153613389Y-69165599D01*
X153628179Y-69152968D01*
X153644387Y-69141194D01*
X153674099Y-69105276D01*
X153678012Y-69100976D01*
X155196786Y-67582202D01*
X155209048Y-67572380D01*
X155208865Y-67572159D01*
X155214867Y-67567192D01*
X155214877Y-67567186D01*
X155262241Y-67516748D01*
X155283120Y-67495870D01*
X155287373Y-67490386D01*
X155291150Y-67485963D01*
X155323062Y-67451982D01*
X155332714Y-67434423D01*
X155343389Y-67418172D01*
X155355674Y-67402336D01*
X155374186Y-67359552D01*
X155376742Y-67354335D01*
X155399197Y-67313492D01*
X155404180Y-67294080D01*
X155410477Y-67275691D01*
X155418438Y-67257295D01*
X155425729Y-67211253D01*
X155426908Y-67205562D01*
X155438500Y-67160419D01*
X155438500Y-67140383D01*
X155440027Y-67120982D01*
X155443160Y-67101204D01*
X155438775Y-67054815D01*
X155438500Y-67048977D01*
X155438500Y-64276605D01*
X164748859Y-64276605D01*
X164769385Y-64524329D01*
X164769387Y-64524338D01*
X164830412Y-64765317D01*
X164930266Y-64992964D01*
X165030564Y-65146482D01*
X165645050Y-64531995D01*
X165706373Y-64498510D01*
X165776064Y-64503494D01*
X165831998Y-64545365D01*
X165837039Y-64552625D01*
X165837048Y-64552639D01*
X165872239Y-64607398D01*
X165987602Y-64707359D01*
X165985293Y-64710022D01*
X166020006Y-64750099D01*
X166029935Y-64819260D01*
X166000898Y-64882810D01*
X165994882Y-64889269D01*
X165383942Y-65500209D01*
X165430768Y-65536655D01*
X165430770Y-65536656D01*
X165649385Y-65654964D01*
X165649396Y-65654969D01*
X165884506Y-65735683D01*
X166129707Y-65776600D01*
X166378293Y-65776600D01*
X166623493Y-65735683D01*
X166858603Y-65654969D01*
X166858614Y-65654964D01*
X167077228Y-65536657D01*
X167077231Y-65536655D01*
X167124056Y-65500209D01*
X166513116Y-64889269D01*
X166479631Y-64827946D01*
X166484615Y-64758254D01*
X166521641Y-64708793D01*
X166520398Y-64707359D01*
X166553730Y-64678477D01*
X166635761Y-64607398D01*
X166670954Y-64552637D01*
X166723755Y-64506883D01*
X166792914Y-64496939D01*
X166856470Y-64525963D01*
X166862949Y-64531996D01*
X167477434Y-65146482D01*
X167577731Y-64992969D01*
X167677587Y-64765317D01*
X167738612Y-64524338D01*
X167738614Y-64524329D01*
X167759141Y-64276605D01*
X167759141Y-64276594D01*
X167738614Y-64028870D01*
X167738612Y-64028861D01*
X167677587Y-63787882D01*
X167577731Y-63560230D01*
X167477434Y-63406716D01*
X166862949Y-64021202D01*
X166801626Y-64054687D01*
X166731934Y-64049703D01*
X166676001Y-64007831D01*
X166670953Y-64000561D01*
X166635761Y-63945802D01*
X166520398Y-63845841D01*
X166522698Y-63843185D01*
X166487960Y-63803028D01*
X166478074Y-63733861D01*
X166507152Y-63670329D01*
X166513116Y-63663929D01*
X167124056Y-63052989D01*
X167077229Y-63016543D01*
X166858614Y-62898235D01*
X166858603Y-62898230D01*
X166623493Y-62817516D01*
X166378293Y-62776600D01*
X166129707Y-62776600D01*
X165884506Y-62817516D01*
X165649396Y-62898230D01*
X165649390Y-62898232D01*
X165430761Y-63016549D01*
X165383942Y-63052988D01*
X165383942Y-63052990D01*
X165994883Y-63663930D01*
X166028368Y-63725253D01*
X166023384Y-63794944D01*
X165986358Y-63844405D01*
X165987602Y-63845841D01*
X165872238Y-63945802D01*
X165837046Y-64000562D01*
X165784242Y-64046317D01*
X165715083Y-64056260D01*
X165651528Y-64027234D01*
X165645050Y-64021203D01*
X165030564Y-63406716D01*
X164930267Y-63560232D01*
X164830412Y-63787882D01*
X164769387Y-64028861D01*
X164769385Y-64028870D01*
X164748859Y-64276594D01*
X164748859Y-64276605D01*
X155438500Y-64276605D01*
X155438500Y-62414342D01*
X155440224Y-62398722D01*
X155439939Y-62398695D01*
X155440673Y-62390933D01*
X155439343Y-62348587D01*
X155438500Y-62321771D01*
X155438500Y-62292250D01*
X155437631Y-62285379D01*
X155437173Y-62279552D01*
X155435710Y-62232973D01*
X155430119Y-62213730D01*
X155426173Y-62194678D01*
X155423664Y-62174808D01*
X155406504Y-62131467D01*
X155404624Y-62125979D01*
X155391618Y-62081210D01*
X155387230Y-62073791D01*
X155381423Y-62063971D01*
X155372861Y-62046494D01*
X155365487Y-62027870D01*
X155365486Y-62027868D01*
X155338079Y-61990145D01*
X155334888Y-61985286D01*
X155311172Y-61945183D01*
X155311165Y-61945174D01*
X155297006Y-61931015D01*
X155284368Y-61916219D01*
X155272594Y-61900013D01*
X155236688Y-61870309D01*
X155232376Y-61866386D01*
X150572619Y-57206628D01*
X150539134Y-57145305D01*
X150536300Y-57118947D01*
X150536300Y-55533132D01*
X150555985Y-55466093D01*
X150608789Y-55420338D01*
X150677947Y-55410394D01*
X150739339Y-55437588D01*
X150743732Y-55441222D01*
X150757110Y-55452289D01*
X150761432Y-55456222D01*
X154515394Y-59210184D01*
X154525219Y-59222448D01*
X154525440Y-59222266D01*
X154530410Y-59228273D01*
X154530413Y-59228276D01*
X154530414Y-59228277D01*
X154580851Y-59275641D01*
X154601730Y-59296520D01*
X154607204Y-59300766D01*
X154611642Y-59304556D01*
X154645618Y-59336462D01*
X154645622Y-59336464D01*
X154663173Y-59346113D01*
X154679431Y-59356792D01*
X154695264Y-59369074D01*
X154717215Y-59378572D01*
X154738037Y-59387583D01*
X154743281Y-59390152D01*
X154784108Y-59412597D01*
X154803512Y-59417579D01*
X154821910Y-59423878D01*
X154840305Y-59431838D01*
X154886329Y-59439126D01*
X154892032Y-59440307D01*
X154937181Y-59451900D01*
X154957216Y-59451900D01*
X154976613Y-59453426D01*
X154996396Y-59456560D01*
X155042783Y-59452175D01*
X155048622Y-59451900D01*
X157477517Y-59451900D01*
X157544556Y-59471585D01*
X157590311Y-59524389D01*
X157600255Y-59593547D01*
X157571230Y-59657103D01*
X157520850Y-59692082D01*
X157411671Y-59732802D01*
X157411664Y-59732806D01*
X157296455Y-59819052D01*
X157296452Y-59819055D01*
X157210206Y-59934264D01*
X157210202Y-59934271D01*
X157159908Y-60069117D01*
X157155192Y-60112988D01*
X157153501Y-60128723D01*
X157153500Y-60128735D01*
X157153500Y-62224470D01*
X157153501Y-62224476D01*
X157159908Y-62284083D01*
X157210202Y-62418928D01*
X157210206Y-62418935D01*
X157296452Y-62534144D01*
X157296455Y-62534147D01*
X157411664Y-62620393D01*
X157411671Y-62620397D01*
X157546517Y-62670691D01*
X157546516Y-62670691D01*
X157553444Y-62671435D01*
X157606127Y-62677100D01*
X160901872Y-62677099D01*
X160961483Y-62670691D01*
X161096331Y-62620396D01*
X161211546Y-62534146D01*
X161297796Y-62418931D01*
X161348091Y-62284083D01*
X161354500Y-62224473D01*
X161354499Y-60128728D01*
X161348091Y-60069117D01*
X161344759Y-60060184D01*
X161297797Y-59934271D01*
X161297793Y-59934264D01*
X161211547Y-59819055D01*
X161211544Y-59819052D01*
X161096335Y-59732806D01*
X161096328Y-59732802D01*
X160987150Y-59692082D01*
X160931216Y-59650211D01*
X160906799Y-59584747D01*
X160921650Y-59516474D01*
X160971055Y-59467068D01*
X161030483Y-59451900D01*
X167431148Y-59451900D01*
X167498187Y-59471585D01*
X167518829Y-59488219D01*
X177690994Y-69660384D01*
X177700819Y-69672648D01*
X177701040Y-69672466D01*
X177706010Y-69678473D01*
X177706013Y-69678476D01*
X177706014Y-69678477D01*
X177756451Y-69725841D01*
X177777330Y-69746720D01*
X177782801Y-69750964D01*
X177787242Y-69754756D01*
X177821218Y-69786662D01*
X177821222Y-69786664D01*
X177838773Y-69796313D01*
X177855031Y-69806992D01*
X177870864Y-69819274D01*
X177892815Y-69828772D01*
X177913637Y-69837783D01*
X177918881Y-69840352D01*
X177959708Y-69862797D01*
X177979112Y-69867779D01*
X177997510Y-69874078D01*
X178015905Y-69882038D01*
X178061929Y-69889326D01*
X178067632Y-69890507D01*
X178112781Y-69902100D01*
X178132816Y-69902100D01*
X178152213Y-69903626D01*
X178171996Y-69906760D01*
X178218383Y-69902375D01*
X178224222Y-69902100D01*
X179823650Y-69902100D01*
X179890689Y-69921785D01*
X179936444Y-69974589D01*
X179937205Y-69976289D01*
X179944624Y-69993203D01*
X180080633Y-70201382D01*
X180080636Y-70201385D01*
X180249056Y-70384338D01*
X180445291Y-70537074D01*
X180663990Y-70655428D01*
X180899186Y-70736171D01*
X181144465Y-70777100D01*
X181393135Y-70777100D01*
X181638414Y-70736171D01*
X181873610Y-70655428D01*
X182092309Y-70537074D01*
X182288544Y-70384338D01*
X182456964Y-70201385D01*
X182592973Y-69993207D01*
X182692863Y-69765481D01*
X182753908Y-69524421D01*
X182774443Y-69276600D01*
X182760061Y-69103037D01*
X182753909Y-69028787D01*
X182753907Y-69028775D01*
X182692863Y-68787718D01*
X182592973Y-68559993D01*
X182456966Y-68351817D01*
X182398545Y-68288355D01*
X182288544Y-68168862D01*
X182187423Y-68090156D01*
X182146610Y-68033446D01*
X182142497Y-68003849D01*
X181527916Y-67389269D01*
X181494431Y-67327946D01*
X181499415Y-67258255D01*
X181536440Y-67208793D01*
X181535198Y-67207359D01*
X181589368Y-67160421D01*
X181650561Y-67107398D01*
X181685754Y-67052637D01*
X181738555Y-67006883D01*
X181807714Y-66996939D01*
X181871270Y-67025963D01*
X181877749Y-67031996D01*
X182492234Y-67646482D01*
X182592531Y-67492969D01*
X182692387Y-67265317D01*
X182753412Y-67024338D01*
X182753414Y-67024329D01*
X182773941Y-66776605D01*
X182773941Y-66776594D01*
X182753414Y-66528870D01*
X182753412Y-66528861D01*
X182692387Y-66287882D01*
X182592532Y-66060232D01*
X182480315Y-65888470D01*
X182460128Y-65821581D01*
X182479308Y-65754395D01*
X182509813Y-65721382D01*
X182511129Y-65720396D01*
X182511131Y-65720396D01*
X182626346Y-65634146D01*
X182712596Y-65518931D01*
X182762891Y-65384083D01*
X182769300Y-65324473D01*
X182769299Y-63228728D01*
X182762891Y-63169117D01*
X182737791Y-63101821D01*
X182712597Y-63034271D01*
X182712593Y-63034264D01*
X182626347Y-62919055D01*
X182626344Y-62919052D01*
X182511135Y-62832806D01*
X182511128Y-62832802D01*
X182376282Y-62782508D01*
X182376283Y-62782508D01*
X182316683Y-62776101D01*
X182316681Y-62776100D01*
X182316673Y-62776100D01*
X182316664Y-62776100D01*
X180220929Y-62776100D01*
X180220923Y-62776101D01*
X180161316Y-62782508D01*
X180026471Y-62832802D01*
X180026464Y-62832806D01*
X179911255Y-62919052D01*
X179911252Y-62919055D01*
X179825006Y-63034264D01*
X179825002Y-63034271D01*
X179774708Y-63169117D01*
X179768301Y-63228716D01*
X179768301Y-63228723D01*
X179768300Y-63228735D01*
X179768300Y-63527100D01*
X179748615Y-63594139D01*
X179695811Y-63639894D01*
X179644300Y-63651100D01*
X176042253Y-63651100D01*
X175975214Y-63631415D01*
X175954572Y-63614781D01*
X167988403Y-55648612D01*
X167978580Y-55636350D01*
X167978359Y-55636534D01*
X167973386Y-55630523D01*
X167922964Y-55583173D01*
X167912519Y-55572728D01*
X167902075Y-55562283D01*
X167896586Y-55558025D01*
X167892161Y-55554247D01*
X167858182Y-55522338D01*
X167858180Y-55522336D01*
X167858177Y-55522335D01*
X167840629Y-55512688D01*
X167824363Y-55502004D01*
X167808533Y-55489725D01*
X167765768Y-55471218D01*
X167760522Y-55468648D01*
X167719693Y-55446203D01*
X167719692Y-55446202D01*
X167700293Y-55441222D01*
X167681881Y-55434918D01*
X167663498Y-55426962D01*
X167663492Y-55426960D01*
X167617474Y-55419672D01*
X167611752Y-55418487D01*
X167566621Y-55406900D01*
X167566619Y-55406900D01*
X167546584Y-55406900D01*
X167527186Y-55405373D01*
X167519762Y-55404197D01*
X167507405Y-55402240D01*
X167507404Y-55402240D01*
X167461016Y-55406625D01*
X167455178Y-55406900D01*
X154132853Y-55406900D01*
X154065814Y-55387215D01*
X154045172Y-55370581D01*
X153753572Y-55078981D01*
X153720087Y-55017658D01*
X153725071Y-54947966D01*
X153766943Y-54892033D01*
X153832407Y-54867616D01*
X153841253Y-54867300D01*
X153936496Y-54867300D01*
X153954931Y-54865849D01*
X153973369Y-54864398D01*
X153973371Y-54864397D01*
X153973373Y-54864397D01*
X154017451Y-54851591D01*
X154131198Y-54818544D01*
X154272665Y-54734881D01*
X154388881Y-54618665D01*
X154472544Y-54477198D01*
X154516563Y-54325686D01*
X154518397Y-54319373D01*
X154518398Y-54319367D01*
X154521300Y-54282496D01*
X154521300Y-53987900D01*
X154540985Y-53920861D01*
X154593789Y-53875106D01*
X154645300Y-53863900D01*
X175533748Y-53863900D01*
X175600787Y-53883585D01*
X175621428Y-53900218D01*
X183516349Y-61795140D01*
X191381597Y-69660388D01*
X191391422Y-69672651D01*
X191391643Y-69672469D01*
X191396614Y-69678478D01*
X191422617Y-69702895D01*
X191447035Y-69725826D01*
X191467929Y-69746720D01*
X191473411Y-69750973D01*
X191477843Y-69754757D01*
X191511818Y-69786662D01*
X191529374Y-69796313D01*
X191545633Y-69806993D01*
X191561464Y-69819273D01*
X191581137Y-69827786D01*
X191604233Y-69837782D01*
X191609477Y-69840350D01*
X191650308Y-69862797D01*
X191662923Y-69866035D01*
X191669705Y-69867777D01*
X191688119Y-69874081D01*
X191706504Y-69882038D01*
X191752557Y-69889332D01*
X191758226Y-69890506D01*
X191803381Y-69902100D01*
X191823416Y-69902100D01*
X191842813Y-69903626D01*
X191862596Y-69906760D01*
X191908983Y-69902375D01*
X191914822Y-69902100D01*
X194323650Y-69902100D01*
X194390689Y-69921785D01*
X194436444Y-69974589D01*
X194437205Y-69976289D01*
X194444624Y-69993203D01*
X194580633Y-70201382D01*
X194580636Y-70201385D01*
X194749056Y-70384338D01*
X194945291Y-70537074D01*
X195163990Y-70655428D01*
X195399186Y-70736171D01*
X195644465Y-70777100D01*
X195893135Y-70777100D01*
X196138414Y-70736171D01*
X196373610Y-70655428D01*
X196592309Y-70537074D01*
X196788544Y-70384338D01*
X196956964Y-70201385D01*
X197092973Y-69993207D01*
X197192863Y-69765481D01*
X197253908Y-69524421D01*
X197274443Y-69276600D01*
X197260061Y-69103037D01*
X197253909Y-69028787D01*
X197253907Y-69028775D01*
X197192863Y-68787718D01*
X197092973Y-68559993D01*
X196956966Y-68351817D01*
X196898545Y-68288355D01*
X196788544Y-68168862D01*
X196592309Y-68016126D01*
X196592307Y-68016125D01*
X196592306Y-68016124D01*
X196373611Y-67897772D01*
X196373602Y-67897769D01*
X196138416Y-67817029D01*
X195893135Y-67776100D01*
X195644465Y-67776100D01*
X195399183Y-67817029D01*
X195163997Y-67897769D01*
X195163988Y-67897772D01*
X194945293Y-68016124D01*
X194749057Y-68168861D01*
X194580633Y-68351817D01*
X194444624Y-68559996D01*
X194437205Y-68576911D01*
X194392249Y-68630397D01*
X194325513Y-68651086D01*
X194323650Y-68651100D01*
X192192852Y-68651100D01*
X192125813Y-68631415D01*
X192105171Y-68614781D01*
X187766995Y-64276605D01*
X194263659Y-64276605D01*
X194284185Y-64524329D01*
X194284187Y-64524338D01*
X194345212Y-64765317D01*
X194445066Y-64992964D01*
X194545364Y-65146482D01*
X195159850Y-64531995D01*
X195221173Y-64498510D01*
X195290864Y-64503494D01*
X195346798Y-64545365D01*
X195351839Y-64552625D01*
X195351848Y-64552639D01*
X195387039Y-64607398D01*
X195502402Y-64707359D01*
X195500093Y-64710022D01*
X195534806Y-64750099D01*
X195544735Y-64819260D01*
X195515698Y-64882810D01*
X195509682Y-64889269D01*
X194898742Y-65500209D01*
X194945568Y-65536655D01*
X194945570Y-65536656D01*
X195164185Y-65654964D01*
X195164196Y-65654969D01*
X195399306Y-65735683D01*
X195644507Y-65776600D01*
X195893093Y-65776600D01*
X196138293Y-65735683D01*
X196373403Y-65654969D01*
X196373414Y-65654964D01*
X196592028Y-65536657D01*
X196592031Y-65536655D01*
X196638856Y-65500209D01*
X196027916Y-64889269D01*
X195994431Y-64827946D01*
X195999415Y-64758254D01*
X196036441Y-64708793D01*
X196035198Y-64707359D01*
X196068530Y-64678477D01*
X196150561Y-64607398D01*
X196185754Y-64552637D01*
X196238555Y-64506883D01*
X196307714Y-64496939D01*
X196371270Y-64525963D01*
X196377749Y-64531996D01*
X196992234Y-65146482D01*
X197092531Y-64992969D01*
X197192387Y-64765317D01*
X197253412Y-64524338D01*
X197253414Y-64524329D01*
X197273941Y-64276605D01*
X197273941Y-64276594D01*
X197253414Y-64028870D01*
X197253412Y-64028861D01*
X197192387Y-63787882D01*
X197092531Y-63560230D01*
X196992234Y-63406716D01*
X196377749Y-64021202D01*
X196316426Y-64054687D01*
X196246734Y-64049703D01*
X196190801Y-64007831D01*
X196185753Y-64000561D01*
X196150561Y-63945802D01*
X196035198Y-63845841D01*
X196037498Y-63843185D01*
X196002760Y-63803028D01*
X195992874Y-63733861D01*
X196021952Y-63670329D01*
X196027916Y-63663929D01*
X196638856Y-63052989D01*
X196592029Y-63016543D01*
X196373414Y-62898235D01*
X196373403Y-62898230D01*
X196138293Y-62817516D01*
X195893093Y-62776600D01*
X195644507Y-62776600D01*
X195399306Y-62817516D01*
X195164196Y-62898230D01*
X195164190Y-62898232D01*
X194945561Y-63016549D01*
X194898742Y-63052988D01*
X194898742Y-63052990D01*
X195509683Y-63663930D01*
X195543168Y-63725253D01*
X195538184Y-63794944D01*
X195501158Y-63844405D01*
X195502402Y-63845841D01*
X195387038Y-63945802D01*
X195351846Y-64000562D01*
X195299042Y-64046317D01*
X195229883Y-64056260D01*
X195166328Y-64027234D01*
X195159850Y-64021203D01*
X194545364Y-63406716D01*
X194445067Y-63560232D01*
X194345212Y-63787882D01*
X194284187Y-64028861D01*
X194284185Y-64028870D01*
X194263659Y-64276594D01*
X194263659Y-64276605D01*
X187766995Y-64276605D01*
X185714860Y-62224470D01*
X186668300Y-62224470D01*
X186668301Y-62224476D01*
X186674708Y-62284083D01*
X186725002Y-62418928D01*
X186725006Y-62418935D01*
X186811252Y-62534144D01*
X186811255Y-62534147D01*
X186926464Y-62620393D01*
X186926471Y-62620397D01*
X187061317Y-62670691D01*
X187061316Y-62670691D01*
X187068244Y-62671435D01*
X187120927Y-62677100D01*
X190416672Y-62677099D01*
X190476283Y-62670691D01*
X190611131Y-62620396D01*
X190726346Y-62534146D01*
X190812596Y-62418931D01*
X190862891Y-62284083D01*
X190869300Y-62224473D01*
X190869299Y-60128728D01*
X190862891Y-60069117D01*
X190859559Y-60060184D01*
X190812597Y-59934271D01*
X190812593Y-59934264D01*
X190726347Y-59819055D01*
X190726344Y-59819052D01*
X190611135Y-59732806D01*
X190611128Y-59732802D01*
X190476282Y-59682508D01*
X190476283Y-59682508D01*
X190416683Y-59676101D01*
X190416681Y-59676100D01*
X190416673Y-59676100D01*
X190416664Y-59676100D01*
X187120929Y-59676100D01*
X187120923Y-59676101D01*
X187061316Y-59682508D01*
X186926471Y-59732802D01*
X186926464Y-59732806D01*
X186811255Y-59819052D01*
X186811252Y-59819055D01*
X186725006Y-59934264D01*
X186725002Y-59934271D01*
X186674708Y-60069117D01*
X186669992Y-60112988D01*
X186668301Y-60128723D01*
X186668300Y-60128735D01*
X186668300Y-62224470D01*
X185714860Y-62224470D01*
X176345003Y-52854612D01*
X176335180Y-52842350D01*
X176334959Y-52842534D01*
X176329986Y-52836523D01*
X176302577Y-52810784D01*
X176279564Y-52789173D01*
X176269119Y-52778728D01*
X176258675Y-52768283D01*
X176253186Y-52764025D01*
X176248761Y-52760247D01*
X176214782Y-52728338D01*
X176214780Y-52728336D01*
X176214777Y-52728335D01*
X176197229Y-52718688D01*
X176180963Y-52708004D01*
X176165133Y-52695725D01*
X176122368Y-52677218D01*
X176117122Y-52674648D01*
X176076293Y-52652203D01*
X176076292Y-52652202D01*
X176056893Y-52647222D01*
X176038481Y-52640918D01*
X176020098Y-52632962D01*
X176020092Y-52632960D01*
X175974074Y-52625672D01*
X175968352Y-52624487D01*
X175923221Y-52612900D01*
X175923219Y-52612900D01*
X175903184Y-52612900D01*
X175883786Y-52611373D01*
X175876362Y-52610197D01*
X175864005Y-52608240D01*
X175864004Y-52608240D01*
X175817616Y-52612625D01*
X175811778Y-52612900D01*
X154645300Y-52612900D01*
X154578261Y-52593215D01*
X154532506Y-52540411D01*
X154521300Y-52488900D01*
X154521300Y-52401104D01*
X154518398Y-52364232D01*
X154518397Y-52364226D01*
X154473566Y-52209920D01*
X154472544Y-52206402D01*
X154388881Y-52064935D01*
X154388879Y-52064933D01*
X154388876Y-52064929D01*
X154272670Y-51948723D01*
X154272662Y-51948717D01*
X154190522Y-51900140D01*
X154131198Y-51865056D01*
X154131197Y-51865055D01*
X154131196Y-51865055D01*
X154131193Y-51865054D01*
X153973373Y-51819202D01*
X153973367Y-51819201D01*
X153936496Y-51816300D01*
X153936494Y-51816300D01*
X153505106Y-51816300D01*
X153505104Y-51816300D01*
X153468232Y-51819201D01*
X153468226Y-51819202D01*
X153310406Y-51865054D01*
X153310403Y-51865055D01*
X153168937Y-51948717D01*
X153162769Y-51953502D01*
X153160872Y-51951056D01*
X153112158Y-51977657D01*
X153042466Y-51972673D01*
X153010096Y-51951869D01*
X153008831Y-51953502D01*
X153002662Y-51948717D01*
X152920522Y-51900140D01*
X152861198Y-51865056D01*
X152861197Y-51865055D01*
X152861196Y-51865055D01*
X152861193Y-51865054D01*
X152703373Y-51819202D01*
X152703367Y-51819201D01*
X152666496Y-51816300D01*
X152666494Y-51816300D01*
X152235106Y-51816300D01*
X152235104Y-51816300D01*
X152198232Y-51819201D01*
X152198226Y-51819202D01*
X152040406Y-51865054D01*
X152040403Y-51865055D01*
X151898937Y-51948717D01*
X151892769Y-51953502D01*
X151890872Y-51951056D01*
X151842158Y-51977657D01*
X151772466Y-51972673D01*
X151740096Y-51951869D01*
X151738831Y-51953502D01*
X151732662Y-51948717D01*
X151650522Y-51900140D01*
X151591198Y-51865056D01*
X151591197Y-51865055D01*
X151591196Y-51865055D01*
X151591193Y-51865054D01*
X151433373Y-51819202D01*
X151433367Y-51819201D01*
X151396496Y-51816300D01*
X151396494Y-51816300D01*
X150965106Y-51816300D01*
X150965104Y-51816300D01*
X150928232Y-51819201D01*
X150928226Y-51819202D01*
X150770406Y-51865054D01*
X150770403Y-51865055D01*
X150628937Y-51948717D01*
X150622769Y-51953502D01*
X150620872Y-51951056D01*
X150572158Y-51977657D01*
X150502466Y-51972673D01*
X150470096Y-51951869D01*
X150468831Y-51953502D01*
X150462662Y-51948717D01*
X150380522Y-51900140D01*
X150321198Y-51865056D01*
X150321197Y-51865055D01*
X150321196Y-51865055D01*
X150321193Y-51865054D01*
X150163373Y-51819202D01*
X150163367Y-51819201D01*
X150126496Y-51816300D01*
X150126494Y-51816300D01*
X149695106Y-51816300D01*
X149695104Y-51816300D01*
X149658232Y-51819201D01*
X149658226Y-51819202D01*
X149500406Y-51865054D01*
X149500403Y-51865055D01*
X149358937Y-51948717D01*
X149352769Y-51953502D01*
X149350872Y-51951056D01*
X149302158Y-51977657D01*
X149232466Y-51972673D01*
X149200096Y-51951869D01*
X149198831Y-51953502D01*
X149192662Y-51948717D01*
X149110522Y-51900140D01*
X149051198Y-51865056D01*
X149051197Y-51865055D01*
X149051196Y-51865055D01*
X149051193Y-51865054D01*
X148893373Y-51819202D01*
X148893367Y-51819201D01*
X148856496Y-51816300D01*
X148856494Y-51816300D01*
X148425106Y-51816300D01*
X148425104Y-51816300D01*
X148388232Y-51819201D01*
X148388226Y-51819202D01*
X148230406Y-51865054D01*
X148230403Y-51865055D01*
X148088937Y-51948717D01*
X148082769Y-51953502D01*
X148080872Y-51951056D01*
X148032158Y-51977657D01*
X147962466Y-51972673D01*
X147930096Y-51951869D01*
X147928831Y-51953502D01*
X147922662Y-51948717D01*
X147840522Y-51900140D01*
X147781198Y-51865056D01*
X147781197Y-51865055D01*
X147781196Y-51865055D01*
X147781193Y-51865054D01*
X147623373Y-51819202D01*
X147623367Y-51819201D01*
X147586496Y-51816300D01*
X147586494Y-51816300D01*
X147155106Y-51816300D01*
X147155104Y-51816300D01*
X147118232Y-51819201D01*
X147118226Y-51819202D01*
X146960406Y-51865054D01*
X146960403Y-51865055D01*
X146818937Y-51948717D01*
X146812769Y-51953502D01*
X146810872Y-51951056D01*
X146762158Y-51977657D01*
X146692466Y-51972673D01*
X146660096Y-51951869D01*
X146658831Y-51953502D01*
X146652662Y-51948717D01*
X146570522Y-51900140D01*
X146511198Y-51865056D01*
X146511197Y-51865055D01*
X146511196Y-51865055D01*
X146511193Y-51865054D01*
X146353373Y-51819202D01*
X146353367Y-51819201D01*
X146316496Y-51816300D01*
X146316494Y-51816300D01*
X145885106Y-51816300D01*
X145885104Y-51816300D01*
X145848232Y-51819201D01*
X145848226Y-51819202D01*
X145690406Y-51865054D01*
X145690403Y-51865055D01*
X145548937Y-51948717D01*
X145542769Y-51953502D01*
X145540872Y-51951056D01*
X145492158Y-51977657D01*
X145422466Y-51972673D01*
X145390096Y-51951869D01*
X145388831Y-51953502D01*
X145382662Y-51948717D01*
X145300522Y-51900140D01*
X145241198Y-51865056D01*
X145241197Y-51865055D01*
X145241196Y-51865055D01*
X145241193Y-51865054D01*
X145083373Y-51819202D01*
X145083367Y-51819201D01*
X145046496Y-51816300D01*
X145046494Y-51816300D01*
X144615106Y-51816300D01*
X144615104Y-51816300D01*
X144578232Y-51819201D01*
X144578226Y-51819202D01*
X144472452Y-51849933D01*
X144402582Y-51849734D01*
X144343912Y-51811792D01*
X144315069Y-51748153D01*
X144314329Y-51741663D01*
X144313241Y-51729232D01*
X144311535Y-51709735D01*
X144311300Y-51704331D01*
X144311300Y-51696097D01*
X144311300Y-51696096D01*
X144311300Y-51696091D01*
X144307491Y-51663507D01*
X144306089Y-51647487D01*
X144300798Y-51587005D01*
X144300798Y-51587002D01*
X144300796Y-51586997D01*
X144299338Y-51579933D01*
X144299397Y-51579920D01*
X144297767Y-51572564D01*
X144297708Y-51572579D01*
X144296042Y-51565553D01*
X144296041Y-51565545D01*
X144269773Y-51493373D01*
X144269518Y-51492603D01*
X144245615Y-51420466D01*
X144242563Y-51413921D01*
X144242617Y-51413895D01*
X144239333Y-51407112D01*
X144239280Y-51407140D01*
X144236038Y-51400685D01*
X144206656Y-51356012D01*
X144193829Y-51336509D01*
X144153511Y-51271144D01*
X144153510Y-51271143D01*
X144153509Y-51271141D01*
X144149033Y-51265481D01*
X144149080Y-51265443D01*
X144144319Y-51259599D01*
X144144274Y-51259638D01*
X144139634Y-51254108D01*
X144083764Y-51201396D01*
X141807619Y-48925251D01*
X141774134Y-48863928D01*
X141771300Y-48837570D01*
X141771300Y-46512967D01*
X141790985Y-46445928D01*
X141843789Y-46400173D01*
X141912947Y-46390229D01*
X141945736Y-46399688D01*
X142010992Y-46428742D01*
X142010997Y-46428744D01*
X142196154Y-46468100D01*
X142196155Y-46468100D01*
X142385444Y-46468100D01*
X142385446Y-46468100D01*
X142570603Y-46428744D01*
X142743530Y-46351751D01*
X142896671Y-46240488D01*
X143023333Y-46099816D01*
X143117979Y-45935884D01*
X143176474Y-45755856D01*
X143184886Y-45675814D01*
X143211469Y-45611204D01*
X143268766Y-45571218D01*
X143317932Y-45565161D01*
X143342792Y-45567117D01*
X143345105Y-45567300D01*
X143345106Y-45567300D01*
X143776496Y-45567300D01*
X143794931Y-45565849D01*
X143813369Y-45564398D01*
X143813371Y-45564397D01*
X143813373Y-45564397D01*
X143862235Y-45550201D01*
X143971198Y-45518544D01*
X144112665Y-45434881D01*
X144112670Y-45434876D01*
X144118826Y-45430101D01*
X144120722Y-45432545D01*
X144169442Y-45405942D01*
X144239134Y-45410926D01*
X144271508Y-45431732D01*
X144272774Y-45430101D01*
X144278939Y-45434884D01*
X144337623Y-45469589D01*
X144420402Y-45518544D01*
X144420409Y-45518546D01*
X144578226Y-45564397D01*
X144578229Y-45564397D01*
X144578231Y-45564398D01*
X144587926Y-45565161D01*
X144615104Y-45567300D01*
X144615106Y-45567300D01*
X145046496Y-45567300D01*
X145064931Y-45565849D01*
X145083369Y-45564398D01*
X145083371Y-45564397D01*
X145083373Y-45564397D01*
X145132235Y-45550201D01*
X145241198Y-45518544D01*
X145382665Y-45434881D01*
X145382670Y-45434876D01*
X145388826Y-45430101D01*
X145390722Y-45432545D01*
X145439442Y-45405942D01*
X145509134Y-45410926D01*
X145541508Y-45431732D01*
X145542774Y-45430101D01*
X145548939Y-45434884D01*
X145607623Y-45469589D01*
X145690402Y-45518544D01*
X145690409Y-45518546D01*
X145848226Y-45564397D01*
X145848229Y-45564397D01*
X145848231Y-45564398D01*
X145857926Y-45565161D01*
X145885104Y-45567300D01*
X145885106Y-45567300D01*
X146316496Y-45567300D01*
X146334931Y-45565849D01*
X146353369Y-45564398D01*
X146353371Y-45564397D01*
X146353373Y-45564397D01*
X146402235Y-45550201D01*
X146511198Y-45518544D01*
X146652665Y-45434881D01*
X146652670Y-45434876D01*
X146658826Y-45430101D01*
X146660722Y-45432545D01*
X146709442Y-45405942D01*
X146779134Y-45410926D01*
X146811508Y-45431732D01*
X146812774Y-45430101D01*
X146818939Y-45434884D01*
X146877623Y-45469589D01*
X146960402Y-45518544D01*
X146960409Y-45518546D01*
X147118226Y-45564397D01*
X147118229Y-45564397D01*
X147118231Y-45564398D01*
X147127926Y-45565161D01*
X147155104Y-45567300D01*
X147155106Y-45567300D01*
X147586496Y-45567300D01*
X147604931Y-45565849D01*
X147623369Y-45564398D01*
X147623371Y-45564397D01*
X147623373Y-45564397D01*
X147672235Y-45550201D01*
X147781198Y-45518544D01*
X147922665Y-45434881D01*
X147922670Y-45434876D01*
X147928826Y-45430101D01*
X147930728Y-45432553D01*
X147979378Y-45405955D01*
X148049073Y-45410904D01*
X148081511Y-45431728D01*
X148082774Y-45430101D01*
X148088939Y-45434884D01*
X148147623Y-45469589D01*
X148230402Y-45518544D01*
X148230409Y-45518546D01*
X148388226Y-45564397D01*
X148388229Y-45564397D01*
X148388231Y-45564398D01*
X148397926Y-45565161D01*
X148425104Y-45567300D01*
X148425106Y-45567300D01*
X148856496Y-45567300D01*
X148874931Y-45565849D01*
X148893369Y-45564398D01*
X148893371Y-45564397D01*
X148893373Y-45564397D01*
X148942235Y-45550201D01*
X149051198Y-45518544D01*
X149192665Y-45434881D01*
X149192670Y-45434876D01*
X149198826Y-45430101D01*
X149200722Y-45432545D01*
X149249442Y-45405942D01*
X149319134Y-45410926D01*
X149351508Y-45431732D01*
X149352774Y-45430101D01*
X149358939Y-45434884D01*
X149417623Y-45469589D01*
X149500402Y-45518544D01*
X149500409Y-45518546D01*
X149658226Y-45564397D01*
X149658229Y-45564397D01*
X149658231Y-45564398D01*
X149667926Y-45565161D01*
X149695104Y-45567300D01*
X149695106Y-45567300D01*
X150126496Y-45567300D01*
X150144931Y-45565849D01*
X150163369Y-45564398D01*
X150163371Y-45564397D01*
X150163373Y-45564397D01*
X150212235Y-45550201D01*
X150321198Y-45518544D01*
X150462665Y-45434881D01*
X150462670Y-45434876D01*
X150468826Y-45430101D01*
X150470728Y-45432553D01*
X150519378Y-45405955D01*
X150589073Y-45410904D01*
X150621511Y-45431728D01*
X150622774Y-45430101D01*
X150628939Y-45434884D01*
X150687623Y-45469589D01*
X150770402Y-45518544D01*
X150770409Y-45518546D01*
X150928226Y-45564397D01*
X150928229Y-45564397D01*
X150928231Y-45564398D01*
X150937926Y-45565161D01*
X150965104Y-45567300D01*
X150965106Y-45567300D01*
X151396496Y-45567300D01*
X151414931Y-45565849D01*
X151433369Y-45564398D01*
X151433371Y-45564397D01*
X151433373Y-45564397D01*
X151591193Y-45518546D01*
X151591194Y-45518544D01*
X151591198Y-45518544D01*
X151638181Y-45490758D01*
X151705902Y-45473576D01*
X151772165Y-45495736D01*
X151815929Y-45550201D01*
X151825300Y-45597491D01*
X151825300Y-47410730D01*
X151808687Y-47472731D01*
X151801420Y-47485317D01*
X151744917Y-47659215D01*
X151742926Y-47665344D01*
X151723140Y-47853600D01*
X151742926Y-48041856D01*
X151742927Y-48041859D01*
X151801418Y-48221877D01*
X151801421Y-48221884D01*
X151896067Y-48385816D01*
X152022728Y-48526487D01*
X152022729Y-48526488D01*
X152175865Y-48637748D01*
X152175870Y-48637751D01*
X152348792Y-48714742D01*
X152348797Y-48714744D01*
X152533954Y-48754100D01*
X152533955Y-48754100D01*
X152723244Y-48754100D01*
X152723246Y-48754100D01*
X152908403Y-48714744D01*
X153081330Y-48637751D01*
X153234471Y-48526488D01*
X153361133Y-48385816D01*
X153455779Y-48221884D01*
X153514274Y-48041856D01*
X153534060Y-47853600D01*
X153514274Y-47665344D01*
X153455779Y-47485316D01*
X153361133Y-47321384D01*
X153234471Y-47180712D01*
X153158598Y-47125587D01*
X153127415Y-47102931D01*
X153084749Y-47047601D01*
X153076300Y-47002613D01*
X153076300Y-46963785D01*
X153095985Y-46896746D01*
X153148789Y-46850991D01*
X153217947Y-46841047D01*
X153261173Y-46858687D01*
X153262437Y-46856499D01*
X153268070Y-46859751D01*
X153440992Y-46936742D01*
X153440997Y-46936744D01*
X153626154Y-46976100D01*
X153626155Y-46976100D01*
X153815444Y-46976100D01*
X153815446Y-46976100D01*
X154000603Y-46936744D01*
X154173530Y-46859751D01*
X154326671Y-46748488D01*
X154453333Y-46607816D01*
X154547979Y-46443884D01*
X154606474Y-46263856D01*
X154626260Y-46075600D01*
X154606474Y-45887344D01*
X154547979Y-45707316D01*
X154453333Y-45543384D01*
X154394443Y-45477980D01*
X154364213Y-45414990D01*
X154372838Y-45345655D01*
X154388620Y-45319000D01*
X154388871Y-45318674D01*
X154388881Y-45318665D01*
X154472544Y-45177198D01*
X154518398Y-45019369D01*
X154521300Y-44982494D01*
X154521300Y-43101106D01*
X154518398Y-43064231D01*
X154472544Y-42906402D01*
X154388881Y-42764935D01*
X154388879Y-42764933D01*
X154388876Y-42764929D01*
X154272670Y-42648723D01*
X154272662Y-42648717D01*
X154153863Y-42578460D01*
X154131198Y-42565056D01*
X154131197Y-42565055D01*
X154131196Y-42565055D01*
X154131193Y-42565054D01*
X153973373Y-42519202D01*
X153973367Y-42519201D01*
X153936496Y-42516300D01*
X153936494Y-42516300D01*
X153505106Y-42516300D01*
X153505104Y-42516300D01*
X153468232Y-42519201D01*
X153468226Y-42519202D01*
X153310406Y-42565054D01*
X153310403Y-42565055D01*
X153168937Y-42648717D01*
X153162769Y-42653502D01*
X153160872Y-42651056D01*
X153112158Y-42677657D01*
X153042466Y-42672673D01*
X153010096Y-42651869D01*
X153008831Y-42653502D01*
X153002662Y-42648717D01*
X152883863Y-42578460D01*
X152861198Y-42565056D01*
X152861197Y-42565055D01*
X152861196Y-42565055D01*
X152861193Y-42565054D01*
X152703373Y-42519202D01*
X152703367Y-42519201D01*
X152666496Y-42516300D01*
X152666494Y-42516300D01*
X152235106Y-42516300D01*
X152235104Y-42516300D01*
X152198232Y-42519201D01*
X152198226Y-42519202D01*
X152040406Y-42565054D01*
X152040399Y-42565057D01*
X151917220Y-42637904D01*
X151849496Y-42655087D01*
X151783234Y-42632927D01*
X151739471Y-42578460D01*
X151730100Y-42531172D01*
X151730100Y-40621137D01*
X151731824Y-40605523D01*
X151731538Y-40605496D01*
X151732272Y-40597733D01*
X151730100Y-40528602D01*
X151730100Y-40499051D01*
X151730100Y-40499050D01*
X151729229Y-40492159D01*
X151728772Y-40486345D01*
X151728136Y-40466114D01*
X151727309Y-40439772D01*
X151721720Y-40420537D01*
X151717774Y-40401484D01*
X151715264Y-40381608D01*
X151698101Y-40338259D01*
X151696214Y-40332746D01*
X151696001Y-40332014D01*
X151683217Y-40288010D01*
X151673021Y-40270769D01*
X151664460Y-40253293D01*
X151657086Y-40234669D01*
X151657086Y-40234667D01*
X151647074Y-40220888D01*
X151629683Y-40196950D01*
X151626500Y-40192105D01*
X151602770Y-40151979D01*
X151602765Y-40151973D01*
X151588605Y-40137813D01*
X151575970Y-40123020D01*
X151564193Y-40106812D01*
X151528293Y-40077113D01*
X151523981Y-40073190D01*
X149040003Y-37589212D01*
X149030180Y-37576950D01*
X149029959Y-37577134D01*
X149024986Y-37571123D01*
X149006359Y-37553631D01*
X148974564Y-37523773D01*
X148964119Y-37513328D01*
X148953675Y-37502883D01*
X148948186Y-37498625D01*
X148943761Y-37494847D01*
X148909782Y-37462938D01*
X148909780Y-37462936D01*
X148909777Y-37462935D01*
X148892229Y-37453288D01*
X148875963Y-37442604D01*
X148860133Y-37430325D01*
X148817368Y-37411818D01*
X148812122Y-37409248D01*
X148771293Y-37386803D01*
X148771292Y-37386802D01*
X148751893Y-37381822D01*
X148733481Y-37375518D01*
X148715098Y-37367562D01*
X148715092Y-37367560D01*
X148669074Y-37360272D01*
X148663352Y-37359087D01*
X148618221Y-37347500D01*
X148618219Y-37347500D01*
X148598184Y-37347500D01*
X148578786Y-37345973D01*
X148571362Y-37344797D01*
X148559005Y-37342840D01*
X148559004Y-37342840D01*
X148512616Y-37347225D01*
X148506778Y-37347500D01*
X94011937Y-37347500D01*
X93996320Y-37345776D01*
X93996293Y-37346062D01*
X93988531Y-37345327D01*
X93919403Y-37347500D01*
X93889850Y-37347500D01*
X93889129Y-37347590D01*
X93882957Y-37348369D01*
X93877145Y-37348826D01*
X93830572Y-37350290D01*
X93830569Y-37350291D01*
X93811326Y-37355881D01*
X93792283Y-37359825D01*
X93772404Y-37362336D01*
X93772403Y-37362337D01*
X93729078Y-37379490D01*
X93723552Y-37381382D01*
X93678808Y-37394383D01*
X93678804Y-37394385D01*
X93661565Y-37404580D01*
X93644098Y-37413137D01*
X93625469Y-37420512D01*
X93625467Y-37420513D01*
X93587764Y-37447906D01*
X93582882Y-37451112D01*
X93542780Y-37474828D01*
X93528608Y-37489000D01*
X93513823Y-37501628D01*
X93497612Y-37513407D01*
X93467909Y-37549310D01*
X93463977Y-37553631D01*
X92414179Y-38603430D01*
X90776808Y-40240799D01*
X90764551Y-40250620D01*
X90764734Y-40250841D01*
X90758723Y-40255813D01*
X90711372Y-40306236D01*
X90690489Y-40327119D01*
X90690477Y-40327132D01*
X90686221Y-40332617D01*
X90682437Y-40337047D01*
X90650537Y-40371018D01*
X90650536Y-40371020D01*
X90640884Y-40388576D01*
X90630210Y-40404826D01*
X90617929Y-40420661D01*
X90617924Y-40420668D01*
X90599415Y-40463438D01*
X90596845Y-40468684D01*
X90574403Y-40509506D01*
X90569422Y-40528907D01*
X90563121Y-40547310D01*
X90555162Y-40565702D01*
X90555161Y-40565705D01*
X90547871Y-40611727D01*
X90546687Y-40617446D01*
X90535101Y-40662572D01*
X90535100Y-40662582D01*
X90535100Y-40682616D01*
X90533573Y-40702015D01*
X90530440Y-40721794D01*
X90530440Y-40721795D01*
X89327475Y-40721795D01*
X89331658Y-36687670D01*
X89351412Y-36620652D01*
X89404264Y-36574952D01*
X89455658Y-36563800D01*
X117969204Y-36563800D01*
X199405262Y-36601336D01*
G37*
G04 #@! TD.AperFunction*
M02*
