G04 #@! TF.GenerationSoftware,KiCad,Pcbnew,7.0.7*
G04 #@! TF.CreationDate,2024-03-19T10:03:33+01:00*
G04 #@! TF.ProjectId,Poly_UA_controller_6enc_4sw,506f6c79-5f55-4415-9f63-6f6e74726f6c,rev?*
G04 #@! TF.SameCoordinates,Original*
G04 #@! TF.FileFunction,Legend,Bot*
G04 #@! TF.FilePolarity,Positive*
%FSLAX46Y46*%
G04 Gerber Fmt 4.6, Leading zero omitted, Abs format (unit mm)*
G04 Created by KiCad (PCBNEW 7.0.7) date 2024-03-19 10:03:33*
%MOMM*%
%LPD*%
G01*
G04 APERTURE LIST*
G04 Aperture macros list*
%AMRoundRect*
0 Rectangle with rounded corners*
0 $1 Rounding radius*
0 $2 $3 $4 $5 $6 $7 $8 $9 X,Y pos of 4 corners*
0 Add a 4 corners polygon primitive as box body*
4,1,4,$2,$3,$4,$5,$6,$7,$8,$9,$2,$3,0*
0 Add four circle primitives for the rounded corners*
1,1,$1+$1,$2,$3*
1,1,$1+$1,$4,$5*
1,1,$1+$1,$6,$7*
1,1,$1+$1,$8,$9*
0 Add four rect primitives between the rounded corners*
20,1,$1+$1,$2,$3,$4,$5,0*
20,1,$1+$1,$4,$5,$6,$7,0*
20,1,$1+$1,$6,$7,$8,$9,0*
20,1,$1+$1,$8,$9,$2,$3,0*%
G04 Aperture macros list end*
%ADD10C,0.150000*%
%ADD11C,0.120000*%
%ADD12RoundRect,0.250000X0.650000X-0.412500X0.650000X0.412500X-0.650000X0.412500X-0.650000X-0.412500X0*%
%ADD13RoundRect,0.150000X0.150000X-0.875000X0.150000X0.875000X-0.150000X0.875000X-0.150000X-0.875000X0*%
%ADD14R,2.000000X2.000000*%
%ADD15C,2.000000*%
%ADD16R,3.200000X2.000000*%
%ADD17RoundRect,0.250000X0.625000X-0.400000X0.625000X0.400000X-0.625000X0.400000X-0.625000X-0.400000X0*%
%ADD18RoundRect,0.250000X-0.625000X0.400000X-0.625000X-0.400000X0.625000X-0.400000X0.625000X0.400000X0*%
%ADD19R,1.700000X1.700000*%
%ADD20O,1.700000X1.700000*%
G04 APERTURE END LIST*
D10*
X145744980Y-57148833D02*
X145792600Y-57101214D01*
X145792600Y-57101214D02*
X145840219Y-56958357D01*
X145840219Y-56958357D02*
X145840219Y-56863119D01*
X145840219Y-56863119D02*
X145792600Y-56720262D01*
X145792600Y-56720262D02*
X145697361Y-56625024D01*
X145697361Y-56625024D02*
X145602123Y-56577405D01*
X145602123Y-56577405D02*
X145411647Y-56529786D01*
X145411647Y-56529786D02*
X145268790Y-56529786D01*
X145268790Y-56529786D02*
X145078314Y-56577405D01*
X145078314Y-56577405D02*
X144983076Y-56625024D01*
X144983076Y-56625024D02*
X144887838Y-56720262D01*
X144887838Y-56720262D02*
X144840219Y-56863119D01*
X144840219Y-56863119D02*
X144840219Y-56958357D01*
X144840219Y-56958357D02*
X144887838Y-57101214D01*
X144887838Y-57101214D02*
X144935457Y-57148833D01*
X144840219Y-57482167D02*
X144840219Y-58101214D01*
X144840219Y-58101214D02*
X145221171Y-57767881D01*
X145221171Y-57767881D02*
X145221171Y-57910738D01*
X145221171Y-57910738D02*
X145268790Y-58005976D01*
X145268790Y-58005976D02*
X145316409Y-58053595D01*
X145316409Y-58053595D02*
X145411647Y-58101214D01*
X145411647Y-58101214D02*
X145649742Y-58101214D01*
X145649742Y-58101214D02*
X145744980Y-58053595D01*
X145744980Y-58053595D02*
X145792600Y-58005976D01*
X145792600Y-58005976D02*
X145840219Y-57910738D01*
X145840219Y-57910738D02*
X145840219Y-57625024D01*
X145840219Y-57625024D02*
X145792600Y-57529786D01*
X145792600Y-57529786D02*
X145744980Y-57482167D01*
X154820619Y-47929895D02*
X155630142Y-47929895D01*
X155630142Y-47929895D02*
X155725380Y-47977514D01*
X155725380Y-47977514D02*
X155773000Y-48025133D01*
X155773000Y-48025133D02*
X155820619Y-48120371D01*
X155820619Y-48120371D02*
X155820619Y-48310847D01*
X155820619Y-48310847D02*
X155773000Y-48406085D01*
X155773000Y-48406085D02*
X155725380Y-48453704D01*
X155725380Y-48453704D02*
X155630142Y-48501323D01*
X155630142Y-48501323D02*
X154820619Y-48501323D01*
X155820619Y-49501323D02*
X155820619Y-48929895D01*
X155820619Y-49215609D02*
X154820619Y-49215609D01*
X154820619Y-49215609D02*
X154963476Y-49120371D01*
X154963476Y-49120371D02*
X155058714Y-49025133D01*
X155058714Y-49025133D02*
X155106333Y-48929895D01*
X135040619Y-46493733D02*
X134564428Y-46160400D01*
X135040619Y-45922305D02*
X134040619Y-45922305D01*
X134040619Y-45922305D02*
X134040619Y-46303257D01*
X134040619Y-46303257D02*
X134088238Y-46398495D01*
X134088238Y-46398495D02*
X134135857Y-46446114D01*
X134135857Y-46446114D02*
X134231095Y-46493733D01*
X134231095Y-46493733D02*
X134373952Y-46493733D01*
X134373952Y-46493733D02*
X134469190Y-46446114D01*
X134469190Y-46446114D02*
X134516809Y-46398495D01*
X134516809Y-46398495D02*
X134564428Y-46303257D01*
X134564428Y-46303257D02*
X134564428Y-45922305D01*
X134469190Y-47065162D02*
X134421571Y-46969924D01*
X134421571Y-46969924D02*
X134373952Y-46922305D01*
X134373952Y-46922305D02*
X134278714Y-46874686D01*
X134278714Y-46874686D02*
X134231095Y-46874686D01*
X134231095Y-46874686D02*
X134135857Y-46922305D01*
X134135857Y-46922305D02*
X134088238Y-46969924D01*
X134088238Y-46969924D02*
X134040619Y-47065162D01*
X134040619Y-47065162D02*
X134040619Y-47255638D01*
X134040619Y-47255638D02*
X134088238Y-47350876D01*
X134088238Y-47350876D02*
X134135857Y-47398495D01*
X134135857Y-47398495D02*
X134231095Y-47446114D01*
X134231095Y-47446114D02*
X134278714Y-47446114D01*
X134278714Y-47446114D02*
X134373952Y-47398495D01*
X134373952Y-47398495D02*
X134421571Y-47350876D01*
X134421571Y-47350876D02*
X134469190Y-47255638D01*
X134469190Y-47255638D02*
X134469190Y-47065162D01*
X134469190Y-47065162D02*
X134516809Y-46969924D01*
X134516809Y-46969924D02*
X134564428Y-46922305D01*
X134564428Y-46922305D02*
X134659666Y-46874686D01*
X134659666Y-46874686D02*
X134850142Y-46874686D01*
X134850142Y-46874686D02*
X134945380Y-46922305D01*
X134945380Y-46922305D02*
X134993000Y-46969924D01*
X134993000Y-46969924D02*
X135040619Y-47065162D01*
X135040619Y-47065162D02*
X135040619Y-47255638D01*
X135040619Y-47255638D02*
X134993000Y-47350876D01*
X134993000Y-47350876D02*
X134945380Y-47398495D01*
X134945380Y-47398495D02*
X134850142Y-47446114D01*
X134850142Y-47446114D02*
X134659666Y-47446114D01*
X134659666Y-47446114D02*
X134564428Y-47398495D01*
X134564428Y-47398495D02*
X134516809Y-47350876D01*
X134516809Y-47350876D02*
X134469190Y-47255638D01*
X120800019Y-50379333D02*
X120323828Y-50046000D01*
X120800019Y-49807905D02*
X119800019Y-49807905D01*
X119800019Y-49807905D02*
X119800019Y-50188857D01*
X119800019Y-50188857D02*
X119847638Y-50284095D01*
X119847638Y-50284095D02*
X119895257Y-50331714D01*
X119895257Y-50331714D02*
X119990495Y-50379333D01*
X119990495Y-50379333D02*
X120133352Y-50379333D01*
X120133352Y-50379333D02*
X120228590Y-50331714D01*
X120228590Y-50331714D02*
X120276209Y-50284095D01*
X120276209Y-50284095D02*
X120323828Y-50188857D01*
X120323828Y-50188857D02*
X120323828Y-49807905D01*
X119800019Y-50712667D02*
X119800019Y-51379333D01*
X119800019Y-51379333D02*
X120800019Y-50950762D01*
X130782219Y-49871333D02*
X130306028Y-49538000D01*
X130782219Y-49299905D02*
X129782219Y-49299905D01*
X129782219Y-49299905D02*
X129782219Y-49680857D01*
X129782219Y-49680857D02*
X129829838Y-49776095D01*
X129829838Y-49776095D02*
X129877457Y-49823714D01*
X129877457Y-49823714D02*
X129972695Y-49871333D01*
X129972695Y-49871333D02*
X130115552Y-49871333D01*
X130115552Y-49871333D02*
X130210790Y-49823714D01*
X130210790Y-49823714D02*
X130258409Y-49776095D01*
X130258409Y-49776095D02*
X130306028Y-49680857D01*
X130306028Y-49680857D02*
X130306028Y-49299905D01*
X129782219Y-50728476D02*
X129782219Y-50538000D01*
X129782219Y-50538000D02*
X129829838Y-50442762D01*
X129829838Y-50442762D02*
X129877457Y-50395143D01*
X129877457Y-50395143D02*
X130020314Y-50299905D01*
X130020314Y-50299905D02*
X130210790Y-50252286D01*
X130210790Y-50252286D02*
X130591742Y-50252286D01*
X130591742Y-50252286D02*
X130686980Y-50299905D01*
X130686980Y-50299905D02*
X130734600Y-50347524D01*
X130734600Y-50347524D02*
X130782219Y-50442762D01*
X130782219Y-50442762D02*
X130782219Y-50633238D01*
X130782219Y-50633238D02*
X130734600Y-50728476D01*
X130734600Y-50728476D02*
X130686980Y-50776095D01*
X130686980Y-50776095D02*
X130591742Y-50823714D01*
X130591742Y-50823714D02*
X130353647Y-50823714D01*
X130353647Y-50823714D02*
X130258409Y-50776095D01*
X130258409Y-50776095D02*
X130210790Y-50728476D01*
X130210790Y-50728476D02*
X130163171Y-50633238D01*
X130163171Y-50633238D02*
X130163171Y-50442762D01*
X130163171Y-50442762D02*
X130210790Y-50347524D01*
X130210790Y-50347524D02*
X130258409Y-50299905D01*
X130258409Y-50299905D02*
X130353647Y-50252286D01*
X116085019Y-46671533D02*
X115608828Y-46338200D01*
X116085019Y-46100105D02*
X115085019Y-46100105D01*
X115085019Y-46100105D02*
X115085019Y-46481057D01*
X115085019Y-46481057D02*
X115132638Y-46576295D01*
X115132638Y-46576295D02*
X115180257Y-46623914D01*
X115180257Y-46623914D02*
X115275495Y-46671533D01*
X115275495Y-46671533D02*
X115418352Y-46671533D01*
X115418352Y-46671533D02*
X115513590Y-46623914D01*
X115513590Y-46623914D02*
X115561209Y-46576295D01*
X115561209Y-46576295D02*
X115608828Y-46481057D01*
X115608828Y-46481057D02*
X115608828Y-46100105D01*
X115085019Y-47576295D02*
X115085019Y-47100105D01*
X115085019Y-47100105D02*
X115561209Y-47052486D01*
X115561209Y-47052486D02*
X115513590Y-47100105D01*
X115513590Y-47100105D02*
X115465971Y-47195343D01*
X115465971Y-47195343D02*
X115465971Y-47433438D01*
X115465971Y-47433438D02*
X115513590Y-47528676D01*
X115513590Y-47528676D02*
X115561209Y-47576295D01*
X115561209Y-47576295D02*
X115656447Y-47623914D01*
X115656447Y-47623914D02*
X115894542Y-47623914D01*
X115894542Y-47623914D02*
X115989780Y-47576295D01*
X115989780Y-47576295D02*
X116037400Y-47528676D01*
X116037400Y-47528676D02*
X116085019Y-47433438D01*
X116085019Y-47433438D02*
X116085019Y-47195343D01*
X116085019Y-47195343D02*
X116037400Y-47100105D01*
X116037400Y-47100105D02*
X115989780Y-47052486D01*
X126946819Y-50125333D02*
X126470628Y-49792000D01*
X126946819Y-49553905D02*
X125946819Y-49553905D01*
X125946819Y-49553905D02*
X125946819Y-49934857D01*
X125946819Y-49934857D02*
X125994438Y-50030095D01*
X125994438Y-50030095D02*
X126042057Y-50077714D01*
X126042057Y-50077714D02*
X126137295Y-50125333D01*
X126137295Y-50125333D02*
X126280152Y-50125333D01*
X126280152Y-50125333D02*
X126375390Y-50077714D01*
X126375390Y-50077714D02*
X126423009Y-50030095D01*
X126423009Y-50030095D02*
X126470628Y-49934857D01*
X126470628Y-49934857D02*
X126470628Y-49553905D01*
X126280152Y-50982476D02*
X126946819Y-50982476D01*
X125899200Y-50744381D02*
X126613485Y-50506286D01*
X126613485Y-50506286D02*
X126613485Y-51125333D01*
X124152819Y-49972933D02*
X123676628Y-49639600D01*
X124152819Y-49401505D02*
X123152819Y-49401505D01*
X123152819Y-49401505D02*
X123152819Y-49782457D01*
X123152819Y-49782457D02*
X123200438Y-49877695D01*
X123200438Y-49877695D02*
X123248057Y-49925314D01*
X123248057Y-49925314D02*
X123343295Y-49972933D01*
X123343295Y-49972933D02*
X123486152Y-49972933D01*
X123486152Y-49972933D02*
X123581390Y-49925314D01*
X123581390Y-49925314D02*
X123629009Y-49877695D01*
X123629009Y-49877695D02*
X123676628Y-49782457D01*
X123676628Y-49782457D02*
X123676628Y-49401505D01*
X123152819Y-50306267D02*
X123152819Y-50925314D01*
X123152819Y-50925314D02*
X123533771Y-50591981D01*
X123533771Y-50591981D02*
X123533771Y-50734838D01*
X123533771Y-50734838D02*
X123581390Y-50830076D01*
X123581390Y-50830076D02*
X123629009Y-50877695D01*
X123629009Y-50877695D02*
X123724247Y-50925314D01*
X123724247Y-50925314D02*
X123962342Y-50925314D01*
X123962342Y-50925314D02*
X124057580Y-50877695D01*
X124057580Y-50877695D02*
X124105200Y-50830076D01*
X124105200Y-50830076D02*
X124152819Y-50734838D01*
X124152819Y-50734838D02*
X124152819Y-50449124D01*
X124152819Y-50449124D02*
X124105200Y-50353886D01*
X124105200Y-50353886D02*
X124057580Y-50306267D01*
X136649619Y-57821533D02*
X136173428Y-57488200D01*
X136649619Y-57250105D02*
X135649619Y-57250105D01*
X135649619Y-57250105D02*
X135649619Y-57631057D01*
X135649619Y-57631057D02*
X135697238Y-57726295D01*
X135697238Y-57726295D02*
X135744857Y-57773914D01*
X135744857Y-57773914D02*
X135840095Y-57821533D01*
X135840095Y-57821533D02*
X135982952Y-57821533D01*
X135982952Y-57821533D02*
X136078190Y-57773914D01*
X136078190Y-57773914D02*
X136125809Y-57726295D01*
X136125809Y-57726295D02*
X136173428Y-57631057D01*
X136173428Y-57631057D02*
X136173428Y-57250105D01*
X135744857Y-58202486D02*
X135697238Y-58250105D01*
X135697238Y-58250105D02*
X135649619Y-58345343D01*
X135649619Y-58345343D02*
X135649619Y-58583438D01*
X135649619Y-58583438D02*
X135697238Y-58678676D01*
X135697238Y-58678676D02*
X135744857Y-58726295D01*
X135744857Y-58726295D02*
X135840095Y-58773914D01*
X135840095Y-58773914D02*
X135935333Y-58773914D01*
X135935333Y-58773914D02*
X136078190Y-58726295D01*
X136078190Y-58726295D02*
X136649619Y-58154867D01*
X136649619Y-58154867D02*
X136649619Y-58773914D01*
X141475619Y-60894933D02*
X140999428Y-60561600D01*
X141475619Y-60323505D02*
X140475619Y-60323505D01*
X140475619Y-60323505D02*
X140475619Y-60704457D01*
X140475619Y-60704457D02*
X140523238Y-60799695D01*
X140523238Y-60799695D02*
X140570857Y-60847314D01*
X140570857Y-60847314D02*
X140666095Y-60894933D01*
X140666095Y-60894933D02*
X140808952Y-60894933D01*
X140808952Y-60894933D02*
X140904190Y-60847314D01*
X140904190Y-60847314D02*
X140951809Y-60799695D01*
X140951809Y-60799695D02*
X140999428Y-60704457D01*
X140999428Y-60704457D02*
X140999428Y-60323505D01*
X141475619Y-61847314D02*
X141475619Y-61275886D01*
X141475619Y-61561600D02*
X140475619Y-61561600D01*
X140475619Y-61561600D02*
X140618476Y-61466362D01*
X140618476Y-61466362D02*
X140713714Y-61371124D01*
X140713714Y-61371124D02*
X140761333Y-61275886D01*
X99283619Y-46939580D02*
X99997904Y-46939580D01*
X99997904Y-46939580D02*
X100140761Y-46891961D01*
X100140761Y-46891961D02*
X100236000Y-46796723D01*
X100236000Y-46796723D02*
X100283619Y-46653866D01*
X100283619Y-46653866D02*
X100283619Y-46558628D01*
X99712190Y-47558628D02*
X99664571Y-47463390D01*
X99664571Y-47463390D02*
X99616952Y-47415771D01*
X99616952Y-47415771D02*
X99521714Y-47368152D01*
X99521714Y-47368152D02*
X99474095Y-47368152D01*
X99474095Y-47368152D02*
X99378857Y-47415771D01*
X99378857Y-47415771D02*
X99331238Y-47463390D01*
X99331238Y-47463390D02*
X99283619Y-47558628D01*
X99283619Y-47558628D02*
X99283619Y-47749104D01*
X99283619Y-47749104D02*
X99331238Y-47844342D01*
X99331238Y-47844342D02*
X99378857Y-47891961D01*
X99378857Y-47891961D02*
X99474095Y-47939580D01*
X99474095Y-47939580D02*
X99521714Y-47939580D01*
X99521714Y-47939580D02*
X99616952Y-47891961D01*
X99616952Y-47891961D02*
X99664571Y-47844342D01*
X99664571Y-47844342D02*
X99712190Y-47749104D01*
X99712190Y-47749104D02*
X99712190Y-47558628D01*
X99712190Y-47558628D02*
X99759809Y-47463390D01*
X99759809Y-47463390D02*
X99807428Y-47415771D01*
X99807428Y-47415771D02*
X99902666Y-47368152D01*
X99902666Y-47368152D02*
X100093142Y-47368152D01*
X100093142Y-47368152D02*
X100188380Y-47415771D01*
X100188380Y-47415771D02*
X100236000Y-47463390D01*
X100236000Y-47463390D02*
X100283619Y-47558628D01*
X100283619Y-47558628D02*
X100283619Y-47749104D01*
X100283619Y-47749104D02*
X100236000Y-47844342D01*
X100236000Y-47844342D02*
X100188380Y-47891961D01*
X100188380Y-47891961D02*
X100093142Y-47939580D01*
X100093142Y-47939580D02*
X99902666Y-47939580D01*
X99902666Y-47939580D02*
X99807428Y-47891961D01*
X99807428Y-47891961D02*
X99759809Y-47844342D01*
X99759809Y-47844342D02*
X99712190Y-47749104D01*
X100378857Y-48130057D02*
X100378857Y-48891961D01*
X100283619Y-49130057D02*
X99283619Y-49130057D01*
X99283619Y-49130057D02*
X99283619Y-49511009D01*
X99283619Y-49511009D02*
X99331238Y-49606247D01*
X99331238Y-49606247D02*
X99378857Y-49653866D01*
X99378857Y-49653866D02*
X99474095Y-49701485D01*
X99474095Y-49701485D02*
X99616952Y-49701485D01*
X99616952Y-49701485D02*
X99712190Y-49653866D01*
X99712190Y-49653866D02*
X99759809Y-49606247D01*
X99759809Y-49606247D02*
X99807428Y-49511009D01*
X99807428Y-49511009D02*
X99807428Y-49130057D01*
X99283619Y-50320533D02*
X99283619Y-50511009D01*
X99283619Y-50511009D02*
X99331238Y-50606247D01*
X99331238Y-50606247D02*
X99426476Y-50701485D01*
X99426476Y-50701485D02*
X99616952Y-50749104D01*
X99616952Y-50749104D02*
X99950285Y-50749104D01*
X99950285Y-50749104D02*
X100140761Y-50701485D01*
X100140761Y-50701485D02*
X100236000Y-50606247D01*
X100236000Y-50606247D02*
X100283619Y-50511009D01*
X100283619Y-50511009D02*
X100283619Y-50320533D01*
X100283619Y-50320533D02*
X100236000Y-50225295D01*
X100236000Y-50225295D02*
X100140761Y-50130057D01*
X100140761Y-50130057D02*
X99950285Y-50082438D01*
X99950285Y-50082438D02*
X99616952Y-50082438D01*
X99616952Y-50082438D02*
X99426476Y-50130057D01*
X99426476Y-50130057D02*
X99331238Y-50225295D01*
X99331238Y-50225295D02*
X99283619Y-50320533D01*
X100283619Y-51653866D02*
X100283619Y-51177676D01*
X100283619Y-51177676D02*
X99283619Y-51177676D01*
X99807428Y-52177676D02*
X100283619Y-52177676D01*
X99283619Y-51844343D02*
X99807428Y-52177676D01*
X99807428Y-52177676D02*
X99283619Y-52511009D01*
X100283619Y-53368152D02*
X100283619Y-52796724D01*
X100283619Y-53082438D02*
X99283619Y-53082438D01*
X99283619Y-53082438D02*
X99426476Y-52987200D01*
X99426476Y-52987200D02*
X99521714Y-52891962D01*
X99521714Y-52891962D02*
X99569333Y-52796724D01*
D11*
X142625400Y-58026752D02*
X142625400Y-56604248D01*
X144445400Y-58026752D02*
X144445400Y-56604248D01*
X136405800Y-48691800D02*
X136405800Y-52551800D01*
X136405800Y-52551800D02*
X136650800Y-52551800D01*
X136405800Y-48691800D02*
X136405800Y-44831800D01*
X154525800Y-44831800D02*
X154280800Y-44831800D01*
X136405800Y-44831800D02*
X136650800Y-44831800D01*
X154280800Y-52551800D02*
X154280800Y-54366800D01*
X154525800Y-52551800D02*
X154280800Y-52551800D01*
X154525800Y-48691800D02*
X154525800Y-44831800D01*
X154525800Y-48691800D02*
X154525800Y-52551800D01*
X131855800Y-47387464D02*
X131855800Y-45933336D01*
X133675800Y-47387464D02*
X133675800Y-45933336D01*
X121179000Y-47565264D02*
X121179000Y-46111136D01*
X119359000Y-47565264D02*
X119359000Y-46111136D01*
X131161200Y-45933336D02*
X131161200Y-47387464D01*
X129341200Y-45933336D02*
X129341200Y-47387464D01*
X116540200Y-46111136D02*
X116540200Y-47565264D01*
X118360200Y-46111136D02*
X118360200Y-47565264D01*
X127325800Y-47387464D02*
X127325800Y-45933336D01*
X125505800Y-47387464D02*
X125505800Y-45933336D01*
X122787400Y-45933336D02*
X122787400Y-47387464D01*
X124607400Y-45933336D02*
X124607400Y-47387464D01*
X140110800Y-56982336D02*
X140110800Y-58436464D01*
X141930800Y-56982336D02*
X141930800Y-58436464D01*
X139314600Y-58741264D02*
X139314600Y-57287136D01*
X137494600Y-58741264D02*
X137494600Y-57287136D01*
X102158800Y-47387200D02*
X100828800Y-47387200D01*
X103428800Y-47387200D02*
X113648800Y-47387200D01*
X100828800Y-49987200D02*
X100828800Y-52587200D01*
X103428800Y-47387200D02*
X103428800Y-49987200D01*
X100828800Y-47387200D02*
X100828800Y-48717200D01*
X103428800Y-49987200D02*
X100828800Y-49987200D01*
X113648800Y-47387200D02*
X113648800Y-52587200D01*
X100828800Y-52587200D02*
X113648800Y-52587200D01*
%LPC*%
D12*
X143535400Y-58878000D03*
X143535400Y-55753000D03*
D13*
X153720800Y-53341800D03*
X152450800Y-53341800D03*
X151180800Y-53341800D03*
X149910800Y-53341800D03*
X148640800Y-53341800D03*
X147370800Y-53341800D03*
X146100800Y-53341800D03*
X144830800Y-53341800D03*
X143560800Y-53341800D03*
X142290800Y-53341800D03*
X141020800Y-53341800D03*
X139750800Y-53341800D03*
X138480800Y-53341800D03*
X137210800Y-53341800D03*
X137210800Y-44041800D03*
X138480800Y-44041800D03*
X139750800Y-44041800D03*
X141020800Y-44041800D03*
X142290800Y-44041800D03*
X143560800Y-44041800D03*
X144830800Y-44041800D03*
X146100800Y-44041800D03*
X147370800Y-44041800D03*
X148640800Y-44041800D03*
X149910800Y-44041800D03*
X151180800Y-44041800D03*
X152450800Y-44041800D03*
X153720800Y-44041800D03*
D14*
X166663800Y-89752800D03*
D15*
X166663800Y-94752800D03*
X166663800Y-92252800D03*
D16*
X174163800Y-97852800D03*
X174163800Y-86652800D03*
D15*
X181163800Y-94752800D03*
X181163800Y-89752800D03*
D14*
X107608800Y-89752800D03*
D15*
X107608800Y-94752800D03*
X107608800Y-92252800D03*
D16*
X115108800Y-97852800D03*
X115108800Y-86652800D03*
D15*
X122108800Y-94752800D03*
X122108800Y-89752800D03*
D14*
X181268800Y-64276600D03*
D15*
X181268800Y-69276600D03*
X181268800Y-66776600D03*
D16*
X188768800Y-72376600D03*
X188768800Y-61176600D03*
D15*
X195768800Y-69276600D03*
X195768800Y-64276600D03*
X166254000Y-64276600D03*
X166254000Y-69276600D03*
D16*
X159254000Y-61176600D03*
X159254000Y-72376600D03*
D15*
X151754000Y-66776600D03*
X151754000Y-69276600D03*
D14*
X151754000Y-64276600D03*
X122340800Y-64276600D03*
D15*
X122340800Y-69276600D03*
X122340800Y-66776600D03*
D16*
X129840800Y-72376600D03*
X129840800Y-61176600D03*
D15*
X136840800Y-69276600D03*
X136840800Y-64276600D03*
D14*
X92800600Y-64276600D03*
D15*
X92800600Y-69276600D03*
X92800600Y-66776600D03*
D16*
X100300600Y-72376600D03*
X100300600Y-61176600D03*
D15*
X107300600Y-69276600D03*
X107300600Y-64276600D03*
D17*
X132765800Y-45110400D03*
X132765800Y-48210400D03*
X120269000Y-48388200D03*
X120269000Y-45288200D03*
D18*
X130251200Y-48210400D03*
X130251200Y-45110400D03*
X117450200Y-45288200D03*
X117450200Y-48388200D03*
D17*
X126415800Y-48210400D03*
X126415800Y-45110400D03*
D18*
X123697400Y-45110400D03*
X123697400Y-48210400D03*
X141020800Y-56159400D03*
X141020800Y-59259400D03*
D17*
X138404600Y-59564200D03*
X138404600Y-56464200D03*
D19*
X102158800Y-48717200D03*
D20*
X102158800Y-51257200D03*
X104698800Y-48717200D03*
X104698800Y-51257200D03*
X107238800Y-48717200D03*
X107238800Y-51257200D03*
X109778800Y-48717200D03*
X109778800Y-51257200D03*
X112318800Y-48717200D03*
X112318800Y-51257200D03*
%LPD*%
M02*
